<svg width="24" height="24" viewBox="0 0 24 24" fill="none" xmlns="http://www.w3.org/2000/svg">
<path d="M22.0002 6.47458V18.0263L12.0002 23.8017L2.00024 18.0263L12.0002 12.25V0.698212L22.0002 6.47458ZM9.45728 17.5937L6.80103 18.6826L9.92114 19.2422L10.8967 21.0498L12.7688 19.5146L16.0325 19.5302L14.0813 18.0097L15.1204 16.2177L12.0325 16.8261L9.40845 15.706L9.45728 17.5937ZM14.0803 8.9863V10.1699L17.1204 11.914V12.9863L18.7209 13.914V12.8427L19.2649 13.1621V11.8027L18.7209 11.4824V9.8027L17.2327 8.97067L17.137 10.5547L15.6965 9.72263L17.3284 6.23434L15.5042 5.19431L14.0803 8.9863Z" fill="#C4C4C4"/>
<path d="M12.0002 12.25L2.00024 18.0263V6.47458L12.0002 0.698212V12.25ZM6.68872 6.05856L4.30493 8.90622L4.84888 9.93063L6.41626 8.21872V13.2422L8.27271 12.1709V5.14645L6.68872 6.05856Z" fill="#EBEBEB"/>
</svg>
