<svg width="24" height="24" viewBox="0 0 24 24" fill="none" xmlns="http://www.w3.org/2000/svg">
<path d="M7.63356 16.5782L8.05347 16.6286C7.99407 16.7234 7.95337 16.7936 7.90772 16.8604C7.07258 18.077 6.23303 19.2905 5.40585 20.5123C5.27331 20.7081 5.19686 20.7655 4.99117 20.5813C2.83248 18.6445 1.4303 16.2749 1.08491 13.3669C0.708168 10.1971 1.58869 7.36934 3.6558 4.9398C5.23398 3.0847 7.23454 1.91489 9.59562 1.3913C11.5005 0.968918 13.3858 1.12044 15.2426 1.70122C16.139 1.98171 16.9965 2.34332 17.7868 2.86333C17.9883 2.99615 17.9903 3.08058 17.8528 3.26564C16.8389 4.63236 15.8338 6.00566 14.832 7.38117C14.7259 7.52691 14.6236 7.63416 14.4297 7.59649C14.1767 7.54699 14.0252 7.66468 13.8786 7.87285C13.2214 8.80535 12.5457 9.72492 11.8552 10.6789C11.1878 9.72987 10.5344 8.81442 9.89921 7.88605C9.75704 7.67816 9.61487 7.58301 9.35555 7.59236C8.7525 7.61436 8.14807 7.59924 7.53814 7.59924C7.53071 7.75956 7.64731 7.84233 7.71743 7.9438C8.65982 9.30308 9.60139 10.6635 10.5578 12.0128C10.7008 12.215 10.6923 12.3362 10.5496 12.5315C9.58187 13.8569 8.62848 15.1934 7.63356 16.5782ZM6.85918 12.4121H6.83608C6.83608 11.3149 6.85148 10.2177 6.83058 9.12076C6.81601 8.34446 6.34357 7.84948 5.578 7.71886C5.00052 7.62041 4.41974 7.66936 3.84088 7.66936C3.19326 7.66881 3.27164 7.52141 3.25734 8.28726C3.25321 8.49983 3.33626 8.53916 3.52738 8.54246C4.39086 8.55676 4.54706 8.72615 4.54706 9.60612C4.54706 11.6218 4.55201 13.6372 4.54156 15.6526C4.54018 15.9199 4.61223 16.003 4.88062 15.9928C5.4482 15.9719 6.01716 15.9785 6.58557 15.9881C6.79813 15.992 6.86743 15.9284 6.86468 15.7035C6.85258 14.6063 6.85918 13.5093 6.85918 12.4121ZM12.133 13.6116C12.8119 14.5763 13.4686 15.4948 14.1057 16.4267C14.2446 16.6299 14.3917 16.7031 14.6299 16.6973C15.2321 16.6822 15.8349 16.6924 16.5119 16.6924C16.166 16.1919 15.8536 15.7365 15.5376 15.2839C14.8364 14.2785 14.1374 13.272 13.4282 12.2727C13.2989 12.0904 13.2907 11.9664 13.4309 11.775C14.3246 10.5568 15.2019 9.32646 16.0838 8.09972C16.1663 7.98532 16.2435 7.86708 16.3288 7.74278C16.2193 7.63416 16.0857 7.71858 15.9878 7.65698C15.9485 7.59016 16.0037 7.54809 16.0337 7.50436C16.8884 6.25783 17.7486 5.01569 18.5955 3.76393C18.7344 3.55906 18.8273 3.55356 19.0042 3.71306C20.865 5.38886 22.1891 7.40894 22.7273 9.87561C23.3424 12.6948 22.9162 15.3787 21.4153 17.8542C19.7887 20.5365 17.4285 22.2442 14.3851 22.8907C11.5976 23.483 8.92739 23.0639 6.44917 21.5869C6.1959 21.4357 6.16923 21.3235 6.3433 21.0722C7.29092 19.7024 8.22094 18.3198 9.14958 16.9366C9.25875 16.7743 9.3682 16.6555 9.57555 16.6957C9.83789 16.7463 9.98088 16.6022 10.122 16.4036C10.7759 15.4821 11.4414 14.5697 12.133 13.6116ZM16.7842 11.2096C17.2087 10.903 17.5613 10.6272 17.9353 10.3843C18.3489 10.1157 18.697 9.82969 18.5697 9.25881C18.5601 9.21536 18.579 9.16449 18.5878 9.11801C18.6494 8.80095 18.8405 8.6541 19.1615 8.65383C19.4912 8.65383 19.8217 8.70195 19.8786 9.08364C19.9939 9.85856 19.9798 10.6093 19.2533 11.1433C18.7666 11.5014 18.3035 11.8918 17.8275 12.265C17.151 12.7952 16.6703 13.4128 16.7743 14.3544C16.8213 14.7787 16.7987 15.2135 16.7765 15.6419C16.7627 15.9108 16.8452 15.9843 17.1125 15.9815C18.4154 15.9678 19.7186 15.9752 21.0215 15.9752C21.6864 15.9752 21.6735 15.9752 21.6807 15.2877C21.6837 14.999 21.6075 14.8917 21.3031 14.8992C20.4864 14.9184 19.6685 14.8978 18.8513 14.908C18.6365 14.9107 18.5694 14.8458 18.5636 14.6258C18.5491 14.0456 18.7253 13.5531 19.1331 13.1409C19.6289 12.6404 20.2276 12.2711 20.768 11.8275C21.2467 11.4343 21.6614 11.0014 21.6782 10.3269C21.6864 10.0051 21.69 9.68229 21.6774 9.36055C21.6468 8.56996 21.3845 8.17424 20.6637 7.94875C19.7541 7.66386 18.8293 7.62784 17.9138 7.9449C17.2291 8.18222 16.81 8.74595 16.7875 9.4766C16.771 10.0247 16.7842 10.5738 16.7842 11.2096Z" fill="white"/>
</svg>
