<svg width="24" height="24" viewBox="0 0 24 24" fill="none" xmlns="http://www.w3.org/2000/svg">
<path fill-rule="evenodd" clip-rule="evenodd" d="M6.08134 2H18.2274C18.8225 2 19.3087 2.49509 19.3087 3.10115V20.8946C19.3087 21.5007 18.8225 21.9958 18.2274 21.9958H6.08134C5.48617 21.9958 5 21.5007 5 20.8946V3.10115C5 2.49509 5.48617 2 6.08134 2ZM13.1267 15.6876C14.6649 14.7956 15.369 13.767 15.457 12.064C14.8325 14.1468 13.9188 15.1541 13.1267 15.6876ZM7.87517 13.1865C8.09308 16.1741 11.2616 16.4302 12.1585 18.1161C13.0555 16.426 16.224 16.1698 16.4419 13.1865L16.5425 10.9842C14.3757 9.8361 9.94558 9.8361 7.77878 10.9842L7.87517 13.1865ZM11.5844 8.035C10.7503 8.0734 9.91209 8.1929 9.07802 8.40205C8.14337 8.6368 7.33029 9.20445 7.33029 10.1818C7.33029 10.4977 7.41413 10.7964 7.55663 11.0568L7.54825 10.8519L7.67401 10.7879C7.78715 10.7282 7.90866 10.6769 8.02604 10.6257C8.32779 10.4977 8.64215 10.391 8.95651 10.3013C10.8006 9.7721 13.5165 9.7721 15.3606 10.3013C15.6749 10.391 15.9893 10.5019 16.291 10.6257C16.4084 10.6727 16.5299 10.7282 16.6431 10.7879L16.7688 10.8519L16.7605 11.0568C16.903 10.7964 16.9868 10.4977 16.9868 10.1818C16.9868 9.20445 16.1737 8.62825 15.2391 8.40205C14.3505 8.18865 13.462 8.0606 12.5735 8.03075C12.7579 7.7917 13.0429 7.63805 13.3279 7.4887C13.9566 7.1515 14.5685 6.82288 14.6439 5.87964C13.4788 6.02903 14.0655 5.97354 12.9171 6.69484C12.3639 6.9936 11.7981 7.29665 11.5844 8.035Z" fill="url(#paint0_linear_4_5759)"/>
<defs>
<linearGradient id="paint0_linear_4_5759" x1="18.6093" y1="2.78399" x2="5.53708" y2="20.7882" gradientUnits="userSpaceOnUse">
<stop stop-color="#F8B900"/>
<stop offset="1" stop-color="#E67508"/>
</linearGradient>
</defs>
</svg>
