<svg width="24" height="24" viewBox="0 0 24 24" fill="none" xmlns="http://www.w3.org/2000/svg">
<path d="M1.88855 1.03771L1.98783 1C4.88371 1.00088 7.78095 0.99956 10.6773 1.00044V5.02913C8.9854 5.03049 7.294 5.02869 5.60215 5.02961C5.59945 6.07259 5.60802 7.11513 5.59764 8.15762C5.79485 7.9704 6.03268 7.92059 6.2863 7.86625C6.58551 7.80474 6.86979 7.81913 7.17397 7.82313C8.06435 7.87074 8.96103 8.14147 9.65016 8.74264C10.1105 9.17503 10.5229 9.63162 10.8325 10.1929C11.1693 10.7963 11.3522 11.4728 11.365 12.163C11.3646 14.1964 11.3641 16.2294 11.365 18.2624C11.3746 18.8699 11.2741 19.4741 11.0685 20.0462C10.7811 20.8409 10.24 21.5404 9.61676 22.0859C8.82568 22.7423 7.87392 22.9439 6.88062 23H6.14415C5.59268 22.9641 5.05655 22.886 4.5457 22.6606C3.81327 22.3463 3.22795 21.7698 2.76539 21.1179C2.36442 20.5501 2.09613 19.9003 1.98016 19.216C1.92375 18.9013 1.92285 18.5879 1.88855 18.2705V15.4015C2.0835 15.3597 2.27304 15.3786 2.47025 15.3764H5.74701C5.74701 16.4292 5.74792 17.4821 5.74701 18.5345C5.75108 18.7271 5.75017 18.9035 5.8657 19.0643C6.00605 19.2605 6.26103 19.3283 6.48576 19.3359C6.71412 19.3372 6.98217 19.2807 7.14462 19.1024C7.27323 18.9551 7.28903 18.7791 7.29356 18.5892C7.29356 16.774 7.29312 14.9579 7.294 13.1431C7.29448 12.7812 7.27323 12.3866 7.0142 12.1109C6.76059 11.8226 6.26148 11.8065 6.01643 12.1131C5.81471 12.37 5.78628 12.7453 5.78312 13.0619C4.49877 13.0591 3.21126 13.069 1.92736 13.0574L1.88855 12.695V1.03771Z" fill="#EF2F16"/>
<path fill-rule="evenodd" clip-rule="evenodd" d="M17.7487 1.51226C17.1959 1.60163 16.6535 1.43188 16.2067 1.10953C16.023 0.974848 15.7924 0.96046 15.6358 1.14319C15.0717 1.81309 14.8294 2.74607 14.7558 3.60002C14.2274 3.47656 13.7152 3.30324 13.2422 3.03431C13.2183 3.02261 13.193 3.00871 13.1669 2.99436C13.055 2.93285 12.9268 2.86188 12.8094 2.9068C12.5897 2.98041 12.4972 3.20987 12.4647 3.4209C12.4114 3.84831 12.494 4.29637 12.661 4.69193C12.925 5.30885 13.43 5.78163 14.0135 6.10037C14.8768 6.57315 15.9314 6.75139 16.9062 6.79812C18.0516 6.83939 19.2095 6.77476 20.2962 6.37964C20.988 6.12193 21.632 5.71964 22.0454 5.09739C22.3967 4.57286 22.5379 3.93649 22.4412 3.31358C22.4024 3.14163 22.2958 2.95036 22.1162 2.8969C21.9944 2.86505 21.8856 2.92387 21.78 2.9809C21.7526 2.99608 21.7248 3.0106 21.6966 3.02441C21.2164 3.28617 20.715 3.47339 20.1816 3.5969C20.0598 2.72856 19.8621 1.86114 19.303 1.1589C19.1635 0.98202 18.9518 0.94924 18.765 1.07856C18.4559 1.29138 18.1242 1.45612 17.7487 1.51226ZM17.8548 4.01309C16.8168 4.06787 15.7581 3.88739 14.7635 3.60046L14.759 3.7208C14.7531 3.86895 14.7472 4.02071 14.7725 4.16529C14.8041 4.3269 14.9422 4.40324 15.0749 4.4769L15.0956 4.48812C15.616 4.76061 16.2446 4.8729 16.8268 4.91597C17.3683 4.96134 17.913 4.94427 18.4514 4.87422C18.951 4.80461 19.4704 4.67442 19.9162 4.43466L19.9266 4.42885C20.0313 4.36914 20.1297 4.313 20.1545 4.18324C20.173 4.0589 20.1717 3.9309 20.1699 3.80295C20.1684 3.73339 20.1687 3.66378 20.1708 3.59417C19.4181 3.82416 18.6407 3.96447 17.8548 4.01309Z" fill="white"/>
<path d="M17.3522 14.9572C17.4517 16.2211 17.5507 17.4851 17.649 18.7492C17.6564 18.8559 17.6705 18.9622 17.6832 19.0685C17.6959 18.9621 17.7101 18.856 17.7174 18.7492C17.8248 17.3689 17.9329 15.9887 18.0416 14.6086C18.2074 12.4521 18.3736 10.2957 18.5367 8.13882H22.1959C22.1959 13.0774 22.1968 18.0156 22.1959 22.9543H19.7184C19.7175 20.4227 19.7175 17.8911 19.7184 15.3595C19.7207 15.1743 19.7136 14.9889 19.7037 14.8039C19.395 17.5203 19.0774 20.2359 18.7643 22.9523C18.7589 22.9523 18.7531 22.9523 18.7477 22.9523V22.9552C18.3929 22.9537 18.038 22.9529 17.6832 22.9533C17.3287 22.9529 16.9742 22.9537 16.6198 22.9552L16.6188 22.9523C16.6136 22.9523 16.6083 22.9523 16.6031 22.9523C16.2898 20.2339 15.9707 17.5164 15.6617 14.798C15.6517 14.985 15.6467 15.1723 15.649 15.3595C15.65 17.8911 15.65 20.4227 15.649 22.9543H13.1715L13.1705 8.13882H16.8307C17.0026 10.4119 17.1775 12.6845 17.3522 14.9572Z" fill="white"/>
</svg>
