<svg width="24" height="24" viewBox="0 0 24 24" fill="none" xmlns="http://www.w3.org/2000/svg">
<mask id="mask0_4_5692" style="mask-type:alpha" maskUnits="userSpaceOnUse" x="1" y="2" width="22" height="20">
<path d="M1 2.92499H23V21.075H1V2.92499Z" fill="white"/>
</mask>
<g mask="url(#mask0_4_5692)">
<path fill-rule="evenodd" clip-rule="evenodd" d="M1 4.01506V8.57528C1.00678 8.75837 1.05932 8.93676 1.15274 9.09387C1.24616 9.25098 1.37742 9.38166 1.53433 9.47381C1.96828 9.74862 2.24437 9.6695 2.79107 9.6695H5.66015C4.83364 12.0291 4.01095 14.3901 3.19203 16.7524C3.02538 17.2187 2.10798 19.7193 2.10798 20.0479C2.10798 20.7013 2.90327 21.075 3.30285 21.075H9.0135C9.47797 21.075 9.92842 20.4551 9.95125 20.1853C10.3828 20.2106 10.8119 20.1041 11.1827 19.8797C11.6571 19.6368 11.7976 19.4317 12.082 19.2376C12.4334 19.4753 12.4106 19.6229 13.1737 19.9427C13.6765 20.1596 14.2204 20.262 14.7667 20.2426C15.3131 20.2233 15.8486 20.0827 16.3351 19.8308C16.4789 19.7578 16.6417 19.6126 16.7704 19.5816C16.8276 19.8386 17.2245 20.1839 17.5336 20.1839H20.7725C21.3437 20.1839 21.9814 19.8103 22.3576 19.4034C23.0368 18.6661 23.1567 17.1791 22.8144 16.2594C22.7024 15.9563 22.56 15.7884 22.56 15.6587C22.5985 14.9562 22.5853 14.2641 22.5853 13.559C22.5853 13.1738 22.1657 12.8668 21.9033 12.7268C22.0614 12.4276 22.1478 12.4404 22.3681 11.8755C23.0385 10.152 22.2025 7.85186 20.4673 7.12405C19.6014 6.7498 18.6353 6.68325 17.7271 6.93529L17.2003 7.14847C17.1178 7.19843 17.1329 7.21287 17.0171 7.22148C16.98 7.08156 16.788 6.95223 16.6775 6.87726C16.474 6.74015 16.4305 6.76206 16.1077 6.76289H14.7258C14.7398 6.59635 15.3811 4.87532 15.4535 4.65823C15.5808 4.29237 15.7078 3.93539 15.5387 3.53346C15.4078 3.23644 15.0085 2.92499 14.7258 2.92499H2.1649C1.495 2.92499 1 3.34609 1 4.01506Z" fill="#1F1F1E"/>
</g>
<path fill-rule="evenodd" clip-rule="evenodd" d="M2.05493 3.94098L2.08408 8.50089H7.14132L3.19206 19.9741H8.87492L14.5006 3.9407L2.05493 3.94098Z" fill="#E50A7E"/>
<path fill-rule="evenodd" clip-rule="evenodd" d="M8.83144 7.64391V16.1714C8.51574 16.1714 8.21186 16.2291 7.99681 16.4282C7.90199 16.5057 7.82532 16.6035 7.7723 16.7145C7.71928 16.8255 7.69126 16.947 7.69019 17.0702V19.3817C7.69019 19.8452 8.21681 20.1881 8.71676 20.1881H10.0588C10.5678 20.1881 11.1698 19.8377 11.5427 19.5551C11.61 19.5035 11.6697 19.4624 11.736 19.4036C11.8003 19.3431 11.8694 19.2876 11.9422 19.2379C12.0324 19.2981 12.2062 19.473 12.4394 19.6232C12.6275 19.7492 12.8286 19.855 13.0384 19.939C13.4527 20.1149 13.8948 20.2145 14.3438 20.233H14.6568C15.1979 20.2074 15.7276 20.0669 16.2113 19.8208C16.3565 19.7475 16.5193 19.6015 16.6494 19.5704C16.7077 19.8272 17.1045 20.1755 17.4202 20.1755H20.6732C21.2469 20.1755 21.8865 19.8003 22.2646 19.3906C22.5916 19.0364 22.9007 18.3194 22.9007 17.6401V17.4977C22.9007 17.0458 22.8894 16.6746 22.7253 16.2327C22.612 15.9285 22.4706 15.7606 22.4706 15.6292C22.4844 15.5415 22.494 15.4535 22.4976 15.3647V13.5204C22.4976 13.1351 22.0735 12.8256 21.8117 12.6857C21.8882 12.5405 21.991 12.429 22.0661 12.2824C22.6015 11.2359 22.6601 9.9068 22.1423 8.86251C21.961 8.46412 21.7161 8.09848 21.4174 7.7802C20.741 7.11786 19.8406 6.73954 18.8984 6.72178C18.3132 6.72178 18.196 6.70261 17.6133 6.86612C17.2764 6.96078 17.0091 7.14453 16.901 7.15482C16.8562 6.9852 16.4811 6.694 16.2446 6.694H13.911C13.7949 6.70233 13.6822 6.73536 13.5801 6.79116C13.4822 6.85419 13.2545 7.17674 13.1657 7.29471C13.0763 7.41296 13.031 7.50401 12.9441 7.52843L12.5932 7.0149C12.4785 6.87888 12.2634 6.69012 12.0308 6.69012H9.80191C9.55441 6.69595 9.31846 6.79839 9.14411 6.97604C9.02971 7.09069 8.83116 7.41656 8.83116 7.6403L8.83144 7.64391Z" fill="#1F1B20"/>
<mask id="mask1_4_5692" style="mask-type:alpha" maskUnits="userSpaceOnUse" x="8" y="13" width="10" height="7">
<path d="M13.5925 13.8921C13.2959 14.0107 13.0227 14.182 12.786 14.3979C12.5605 14.605 12.368 14.8465 12.2162 15.1132C12.0437 15.4193 11.9405 15.7601 11.9142 16.1112V16.1236L11.9131 16.1264L11.9142 16.1112L11.8829 13.712H9.97435V16.4656C9.97435 17.3642 9.54535 17.2115 8.78113 17.2115V19.1907C9.7274 19.1907 9.9771 19.2931 10.7237 18.9128C10.8402 18.8543 10.9487 18.7809 11.0469 18.6946L11.3318 18.4096C11.6829 18.0051 11.8774 17.4722 11.8774 16.7235H11.9071C11.9071 17.3414 12.2327 17.8192 12.5723 18.2644C12.6171 18.3241 12.6677 18.3788 12.7238 18.4276C13.9957 19.5527 15.8239 19.365 16.7539 18.064C16.851 17.9363 16.9363 17.7994 17.0083 17.6559C17.6152 16.4296 17.2476 15.1735 16.3098 14.3257C15.8539 13.9113 15.2236 13.6984 14.5949 13.6984C14.2515 13.6968 13.9111 13.7626 13.5925 13.8921ZM13.8967 16.7585C13.8349 16.6182 13.816 16.4625 13.8424 16.3114C13.8689 16.1602 13.9395 16.0204 14.0452 15.91C14.1508 15.7996 14.2867 15.7236 14.4355 15.6916C14.5842 15.6597 14.7391 15.6734 14.8801 15.7309C15.0175 15.7889 15.1352 15.8862 15.2185 16.0108C15.3019 16.1354 15.3473 16.282 15.3492 16.4323V16.4387C15.3492 16.9342 14.9598 17.2062 14.5751 17.2062C14.2963 17.2062 14.0193 17.063 13.8967 16.7585Z" fill="white"/>
</mask>
<g mask="url(#mask1_4_5692)">
<path fill-rule="evenodd" clip-rule="evenodd" d="M13.5925 13.8921C13.2959 14.0107 13.0227 14.182 12.786 14.3979C12.5605 14.605 12.368 14.8465 12.2162 15.1132C12.0437 15.4193 11.9405 15.7601 11.9142 16.1112V16.1236L11.9131 16.1264L11.9142 16.1112L11.8829 13.712H9.97435V16.4656C9.97435 17.3642 9.54535 17.2115 8.78113 17.2115V19.1907C9.7274 19.1907 9.9771 19.2931 10.7237 18.9128C10.8402 18.8543 10.9487 18.7809 11.0469 18.6946L11.3318 18.4096C11.6829 18.0051 11.8774 17.4722 11.8774 16.7235H11.9071C11.9071 17.3414 12.2327 17.8192 12.5723 18.2644C12.6171 18.3241 12.6677 18.3788 12.7238 18.4276C13.9957 19.5527 15.8239 19.365 16.7539 18.064C16.851 17.9363 16.9363 17.7994 17.0083 17.6559C17.6152 16.4296 17.2476 15.1735 16.3098 14.3257C15.8539 13.9113 15.2236 13.6984 14.5949 13.6984C14.2515 13.6968 13.9111 13.7626 13.5925 13.8921ZM13.8967 16.7585C13.8349 16.6182 13.816 16.4625 13.8424 16.3114C13.8689 16.1602 13.9395 16.0204 14.0452 15.91C14.1508 15.7996 14.2867 15.7236 14.4355 15.6916C14.5842 15.6597 14.7391 15.6734 14.8801 15.7309C15.0175 15.7889 15.1352 15.8862 15.2185 16.0108C15.3019 16.1354 15.3473 16.282 15.3492 16.4323V16.4387C15.3492 16.9342 14.9598 17.2062 14.5751 17.2062C14.2963 17.2062 14.0193 17.063 13.8967 16.7585Z" fill="url(#paint0_linear_4_5692)"/>
</g>
<mask id="mask2_4_5692" style="mask-type:alpha" maskUnits="userSpaceOnUse" x="9" y="7" width="8" height="7">
<path d="M14.1561 7.80435C14.1368 7.87846 13.1306 9.26279 13.0478 9.32469C13.0022 9.28998 11.9349 7.89263 11.9121 7.80408H9.97937V13.2836H11.8873V10.5869L12.9048 11.9071C13.0668 12.128 13.0244 12.1241 13.2015 11.8901L14.1558 10.6446V13.2836H16.064V7.80435H14.1555H14.1561Z" fill="white"/>
</mask>
<g mask="url(#mask2_4_5692)">
<path fill-rule="evenodd" clip-rule="evenodd" d="M14.1561 7.80435C14.1368 7.87846 13.1306 9.26279 13.0478 9.32469C13.0022 9.28998 11.9349 7.89263 11.9121 7.80408H9.97937V13.2836H11.8873V10.5869L12.9048 11.9071C13.0668 12.128 13.0244 12.1241 13.2015 11.8901L14.1558 10.6446V13.2836H16.064V7.80435H14.1555H14.1561Z" fill="url(#paint1_linear_4_5692)"/>
</g>
<mask id="mask3_4_5692" style="mask-type:alpha" maskUnits="userSpaceOnUse" x="16" y="7" width="6" height="7">
<path d="M17.7092 8.03119C16.7957 8.48978 16.1165 9.34612 16.1165 10.4456C16.1165 11.609 16.6835 12.5001 17.6784 12.9986C18.1742 13.2319 18.7284 13.3077 19.2677 13.216C19.8071 13.1243 20.3061 12.8694 20.6988 12.4851C20.9209 12.2708 21.1042 12.0191 21.2405 11.7411C21.933 10.3415 21.3018 8.57943 19.8718 7.99929C19.5291 7.85216 19.1596 7.77901 18.7872 7.78457C18.4147 7.79012 18.0476 7.87394 17.7092 8.03119ZM18.1303 10.8515C18.0683 10.7112 18.0493 10.5554 18.0757 10.4042C18.1021 10.253 18.1727 10.1131 18.2784 10.0027C18.3841 9.89222 18.5201 9.81618 18.669 9.78431C18.8178 9.75244 18.9726 9.76622 19.1137 9.82386C19.2522 9.88221 19.3706 9.9805 19.454 10.1064C19.5375 10.2323 19.5824 10.3802 19.5831 10.5317C19.5831 11.0266 19.1934 11.2981 18.8087 11.2981C18.5296 11.2981 18.2532 11.1554 18.1303 10.8512" fill="white"/>
</mask>
<g mask="url(#mask3_4_5692)">
<path fill-rule="evenodd" clip-rule="evenodd" d="M17.7092 8.03119C16.7957 8.48978 16.1165 9.34612 16.1165 10.4456C16.1165 11.609 16.6835 12.5001 17.6784 12.9986C18.1742 13.2319 18.7284 13.3077 19.2677 13.216C19.8071 13.1243 20.3061 12.8694 20.6988 12.4851C20.9209 12.2708 21.1042 12.0191 21.2405 11.7411C21.933 10.3415 21.3018 8.57943 19.8718 7.99929C19.5291 7.85216 19.1596 7.77901 18.7872 7.78457C18.4147 7.79012 18.0476 7.87394 17.7092 8.03119ZM18.1303 10.8515C18.0683 10.7112 18.0493 10.5554 18.0757 10.4042C18.1021 10.253 18.1727 10.1131 18.2784 10.0027C18.3841 9.89222 18.5201 9.81618 18.669 9.78431C18.8178 9.75244 18.9726 9.76622 19.1137 9.82386C19.2522 9.88221 19.3706 9.9805 19.454 10.1064C19.5375 10.2323 19.5824 10.3802 19.5831 10.5317C19.5831 11.0266 19.1934 11.2981 18.8087 11.2981C18.5296 11.2981 18.2532 11.1554 18.1303 10.8512" fill="url(#paint2_linear_4_5692)"/>
</g>
<mask id="mask4_4_5692" style="mask-type:alpha" maskUnits="userSpaceOnUse" x="17" y="13" width="5" height="7">
<path d="M18.5079 13.7125C17.7982 13.7125 17.2003 14.4145 17.2003 15.1171L17.2017 15.1246C17.2017 15.6281 17.1926 15.9888 17.3923 16.4523C17.736 17.2515 18.2624 17.2232 18.9064 17.2232C19.204 17.2232 19.8442 17.1268 19.8442 17.4233C19.8442 17.5671 19.6783 17.6237 19.532 17.6237H17.5996V19.1724H20.5256C21.9023 19.1724 22.106 17.2692 21.597 16.3138C21.2255 15.6168 20.6961 15.6717 20.0702 15.6717C19.7804 15.6717 19.1899 15.7631 19.1899 15.4713C19.1899 15.3275 19.3555 15.2712 19.5015 15.2712H21.4342V13.7122H18.5082L18.5079 13.7125Z" fill="white"/>
</mask>
<g mask="url(#mask4_4_5692)">
<path fill-rule="evenodd" clip-rule="evenodd" d="M18.5079 13.7125C17.7982 13.7125 17.2003 14.4145 17.2003 15.1171L17.2017 15.1246C17.2017 15.6281 17.1926 15.9888 17.3923 16.4523C17.736 17.2515 18.2624 17.2232 18.9064 17.2232C19.204 17.2232 19.8442 17.1268 19.8442 17.4233C19.8442 17.5671 19.6783 17.6237 19.532 17.6237H17.5996V19.1724H20.5256C21.9023 19.1724 22.106 17.2692 21.597 16.3138C21.2255 15.6168 20.6961 15.6717 20.0702 15.6717C19.7804 15.6717 19.1899 15.7631 19.1899 15.4713C19.1899 15.3275 19.3555 15.2712 19.5015 15.2712H21.4342V13.7122H18.5082L18.5079 13.7125Z" fill="url(#paint3_linear_4_5692)"/>
</g>
<defs>
<linearGradient id="paint0_linear_4_5692" x1="9.07483" y1="16.4506" x2="17.5787" y2="16.4506" gradientUnits="userSpaceOnUse">
<stop stop-color="#FDE610"/>
<stop offset="1" stop-color="#E6422D"/>
</linearGradient>
<linearGradient id="paint1_linear_4_5692" x1="10.2662" y1="10.5438" x2="16.336" y2="10.5438" gradientUnits="userSpaceOnUse">
<stop stop-color="#FDE610"/>
<stop offset="1" stop-color="#E6422D"/>
</linearGradient>
<linearGradient id="paint2_linear_4_5692" x1="16.3939" y1="10.5189" x2="21.7911" y2="10.5189" gradientUnits="userSpaceOnUse">
<stop stop-color="#FDE610"/>
<stop offset="1" stop-color="#E6422D"/>
</linearGradient>
<linearGradient id="paint3_linear_4_5692" x1="17.4775" y1="16.4423" x2="22.1184" y2="16.4423" gradientUnits="userSpaceOnUse">
<stop stop-color="#FDE610"/>
<stop offset="1" stop-color="#E6422D"/>
</linearGradient>
</defs>
</svg>
