<svg width="24" height="24" viewBox="0 0 24 24" fill="none" xmlns="http://www.w3.org/2000/svg">
<path d="M23.9605 21.3707L12.2239 2.34579C12.1727 2.26255 12.0864 2.22073 12 2.22073C11.9136 2.22073 11.8276 2.26255 11.7761 2.34579L0.0394799 21.3707C-0.0683851 21.5458 0.0574573 21.7717 0.263417 21.7717H16.8043C16.9974 21.7717 17.115 21.5598 17.0134 21.3957L14.8655 17.9319C14.8205 17.8596 14.7416 17.8154 14.6564 17.8154H6.88149L12 9.51842L17.1185 17.8154L19.4497 21.5751C19.5255 21.6974 19.6592 21.7717 19.803 21.7717H23.737C23.9425 21.7717 24.0684 21.5458 23.9605 21.3707Z" fill="#FE0000"/>
</svg>
