<svg width="24" height="24" viewBox="0 0 24 24" fill="none" xmlns="http://www.w3.org/2000/svg">
<path d="M7.83659 10.6931C9.30932 8.62612 10.7943 6.56768 12.2657 4.5C14.873 8.17771 17.5143 11.8336 20.1305 15.5061C21.085 16.8427 22.0416 18.1773 23.0009 19.51C19.3314 16.8645 15.2193 14.7585 10.8298 13.4859C10.4745 14.703 10.1139 15.9181 9.75318 17.1333C7.5625 17.1366 5.3725 17.1286 3.18182 17.1372C4.33955 15.5602 5.47886 13.97 6.62159 12.3831C4.77932 11.9228 2.89477 11.617 1 11.4513C2.17273 11.0947 3.40205 10.9533 4.62114 10.8338C5.69023 10.7486 6.76273 10.6813 7.83659 10.6931ZM12.1273 9.11547C11.9145 9.83463 11.6991 10.5518 11.4802 11.2683C12.1893 11.448 12.9039 11.617 13.587 11.8759C13.0927 10.9599 12.6209 10.0321 12.1273 9.11547Z" fill="#EE151F"/>
</svg>
