<svg width="24" height="24" viewBox="0 0 24 24" fill="none" xmlns="http://www.w3.org/2000/svg">
<path d="M9.59003 11.5106C9.35447 11.6492 9.02834 11.72 8.61131 11.72C8.25797 11.72 7.97906 11.6222 7.77041 11.423C7.56173 11.2238 7.45772 10.8998 7.45772 10.451C7.08404 10.8998 6.6506 11.2238 6.15257 11.423C5.65484 11.6222 5.12003 11.72 4.5413 11.72C4.18196 11.7213 3.82385 11.6782 3.47498 11.5919C3.13868 11.5073 2.84603 11.3723 2.6006 11.1899C2.35517 11.0078 2.15997 10.7681 2.01528 10.4744C1.8706 10.1807 1.80005 9.8231 1.80005 9.4043C1.80005 8.9318 1.88076 8.5469 2.0389 8.2466C2.20032 7.9463 2.40898 7.7033 2.67115 7.514C2.94325 7.32041 3.24725 7.1765 3.56915 7.0889C3.90908 6.99107 4.25381 6.91097 4.60199 6.8489C4.95485 6.77747 5.31062 6.72122 5.66828 6.6803C6.00458 6.6431 6.30053 6.5891 6.55613 6.5183C6.8117 6.4475 7.01708 6.3461 7.16507 6.2111C7.31303 6.0761 7.39016 5.8805 7.39016 5.6237C7.39016 5.3234 7.33337 5.0837 7.22216 4.9016C7.11725 4.72568 6.9674 4.58108 6.78809 4.4828C6.60446 4.38227 6.4037 4.31705 6.19619 4.2905C5.98139 4.25807 5.76443 4.24223 5.5472 4.2431C4.97177 4.2431 4.49078 4.3547 4.10396 4.574C3.72071 4.7933 3.51206 5.2085 3.47858 5.8196H2.11632C2.13635 5.3066 2.24397 4.871 2.43589 4.5167C2.61897 4.17113 2.8833 3.87557 3.20594 3.6557C3.5258 3.4367 3.89231 3.2777 4.30244 3.1832C4.71287 3.0854 5.15351 3.0383 5.62433 3.0383C5.99801 3.0383 6.36779 3.0653 6.73787 3.1193C7.10765 3.1733 7.44068 3.2813 7.7402 3.4499C8.03798 3.61433 8.2865 3.85565 8.46005 4.1489C8.64149 4.4489 8.73209 4.8407 8.73209 5.3234V9.6002C8.73209 9.9209 8.7524 10.1573 8.78948 10.3091C8.82653 10.4576 8.95091 10.5353 9.16613 10.5353C9.28391 10.5353 9.42203 10.5083 9.58346 10.4543V11.5106H9.59003ZM7.38029 7.2506C7.20869 7.379 6.9866 7.4735 6.70769 7.5311C6.42818 7.5884 6.1391 7.6391 5.83301 7.676C5.52689 7.7132 5.22077 7.757 4.91138 7.8044C4.60199 7.8518 4.32248 7.9292 4.07735 8.0372C3.83162 8.1452 3.62984 8.2973 3.47498 8.4962C3.32045 8.6957 3.24302 8.9657 3.24302 9.3065C3.24302 9.5327 3.29024 9.7217 3.37754 9.8771C3.46841 10.0322 3.58619 10.1573 3.73088 10.2551C3.87527 10.3529 4.04357 10.4204 4.23518 10.4642C4.4351 10.5085 4.63937 10.53 4.84412 10.5284C5.29133 10.5284 5.67815 10.4678 5.99801 10.3427C6.31727 10.2179 6.57974 10.0625 6.78122 9.8771C6.9833 9.6881 7.13456 9.4853 7.22873 9.266C7.32647 9.0467 7.37342 8.8406 7.37342 8.6483V7.2509H7.38029V7.2506ZM22.2 16.9691V9.3671H20.9185V10.5554H20.9018C20.656 10.0931 20.3129 9.7487 19.8758 9.5192C19.4385 9.2897 18.9575 9.1748 18.4329 9.1748C17.7163 9.1748 17.1145 9.3098 16.6234 9.5834C16.1322 9.8567 15.7356 10.2044 15.4393 10.6298C15.1401 11.0516 14.9281 11.5244 14.8002 12.044C14.6725 12.5639 14.6086 13.07 14.6086 13.5632C14.6086 14.1302 14.686 14.6702 14.8405 15.1802C14.9954 15.6896 15.2274 16.1351 15.537 16.5134C15.8462 16.8947 16.2297 17.195 16.6907 17.4212C17.1513 17.6474 17.6894 17.7587 18.3085 17.7587C18.8433 17.7587 19.3476 17.6372 19.822 17.3978C20.2961 17.1578 20.653 16.7798 20.8883 16.2635H20.9218V16.8104C20.9218 17.2727 20.8782 17.6948 20.7873 18.0794C20.6964 18.4643 20.5484 18.7952 20.3466 19.0685C20.1445 19.3408 19.8805 19.5607 19.5766 19.7099C19.2669 19.8653 18.8869 19.9427 18.4394 19.9427C18.2143 19.9427 17.9788 19.9193 17.7333 19.8719C17.4969 19.8276 17.268 19.7492 17.0538 19.6391C16.8517 19.5364 16.6721 19.3941 16.5256 19.2206C16.3809 19.0484 16.3038 18.839 16.2937 18.5927H14.9281C14.9481 19.0415 15.0659 19.4231 15.2812 19.7336C15.4922 20.0428 15.7691 20.301 16.0919 20.4896C16.418 20.6822 16.7812 20.8205 17.1815 20.9081C17.5684 20.9917 17.9629 21.0347 18.3587 21.0365C19.6842 21.0365 20.656 20.699 21.2751 20.0237C21.8907 19.3487 22.2 18.3293 22.2 16.9691ZM18.3856 16.5671C17.9384 16.5671 17.565 16.4729 17.2658 16.2872C16.9706 16.1019 16.7238 15.8485 16.546 15.548C16.3642 15.2441 16.2366 14.903 16.1624 14.5286C16.0889 14.1585 16.0518 13.7819 16.0515 13.4045C16.0515 13.0094 16.0952 12.6281 16.186 12.2636C16.2769 11.8988 16.4213 11.5784 16.6198 11.2982C16.8183 11.018 17.0706 10.7984 17.38 10.6298C17.6894 10.4642 18.0628 10.3799 18.5001 10.3799C18.9273 10.3799 19.2905 10.4642 19.59 10.6364C19.8833 10.8029 20.1333 11.0366 20.3197 11.3183C20.5081 11.6018 20.6426 11.9225 20.7269 12.2735C20.8109 12.6281 20.8545 12.986 20.8545 13.3505C20.8545 13.7351 20.8076 14.1233 20.72 14.5085C20.6291 14.8931 20.488 15.2405 20.2961 15.5444C20.1061 15.8488 19.8453 16.1025 19.5362 16.2836C19.2164 16.4726 18.8367 16.5671 18.3856 16.5671ZM12.7854 0.00350952H11.3932V23.9933H12.7857L12.7854 0.00350952Z" fill="white"/>
<path d="M11.403 22.7172V24L14.5645 23.9967L14.5615 22.7172H11.403ZM9.62341 0.0033V1.2828L12.7853 1.2792V0L9.62341 0.0033Z" fill="white"/>
</svg>
