<svg width="24" height="24" viewBox="0 0 24 24" fill="none" xmlns="http://www.w3.org/2000/svg">
<g clip-path="url(#clip0_4_5649)">
<path d="M19.8717 22.3579C19.5123 21.2078 19.2247 20.0577 18.8653 18.9076L16.2058 9.99446C15.487 7.62241 14.84 5.32224 14.1212 2.95019C14.1212 2.95019 14.1212 2.87831 14.0494 2.87831C13.6181 2.66267 13.1868 2.51891 12.7555 2.30327H12.6836L12.9712 3.23771H12.6118C12.5399 3.23771 12.5399 3.23771 12.5399 3.16583C12.3961 2.59079 12.1805 2.01575 12.0367 1.44071C12.1086 1.36883 12.1086 1.36883 12.0367 1.36883C11.6054 1.15319 11.246 1.00943 10.8147 0.793785L10.5272 0.650024L10.5991 1.00943C10.7429 1.36883 10.8866 1.72823 10.9585 2.15951C11.4617 3.88464 11.8929 5.60976 12.3242 7.33489C12.3242 7.40677 12.3961 7.55053 12.3961 7.62241V7.55053C11.8929 6.04104 11.4617 4.60344 10.9585 3.09395C10.9585 3.02207 10.8866 3.02207 10.8866 3.02207C10.5991 2.80643 10.2397 2.51891 9.8803 2.30327L9.59278 2.08763V2.15951C9.8803 3.09395 10.1678 4.10028 10.4553 5.03472V5.1066C9.30526 8.26933 8.22706 11.4321 7.07697 14.5948C7.07697 14.6667 7.07697 14.6667 7.00509 14.6667H5.27997V15.3855H5.71125L5.63937 15.8168H5.42373V16.4637H6.35817C6.35817 16.5356 6.28629 16.6793 6.28629 16.7512C6.28629 16.8231 6.28629 16.8231 6.21441 16.8231H5.27997L5.35185 17.6138H5.85501L5.78313 18.1169H5.49561V18.8357H5.56749L4.12988 22.7891H4.20176C4.70492 22.6454 5.27997 22.4297 5.78313 22.286C5.78313 22.286 5.85501 22.286 5.85501 22.2141L6.50193 20.2733C6.64569 19.7702 6.86133 19.3389 7.00509 18.8357V18.7638L6.14253 21.7109L7.00509 21.9266L6.57381 23.1485H6.64569C7.00509 22.9329 7.36449 22.7173 7.79577 22.5016L7.86766 22.4297C8.22706 21.4953 8.51458 20.5609 8.87398 19.6264C8.94586 19.4826 9.01774 19.267 9.08962 19.1232L7.93954 23.0767L8.8021 22.4297C8.8021 22.4297 8.8021 22.3579 8.87398 22.3579C9.23338 21.2078 9.59278 20.0577 9.95218 18.9795C9.95218 18.9795 9.95218 18.9076 10.0241 18.9076H14.3369C14.3369 18.9076 14.4088 18.9076 14.4088 18.9795C14.84 20.4171 15.1994 21.7828 15.6307 23.2204C15.6307 23.2923 15.7026 23.2923 15.7026 23.3642C15.8464 23.3642 15.9182 23.4361 16.062 23.4361H16.2776V23.3642L15.9182 22.1422V22.0703C16.2058 22.1422 16.4214 22.286 16.7089 22.3579V22.4297C16.7808 22.5735 16.7808 22.6454 16.8527 22.7891C16.8527 22.7891 16.8527 22.861 16.9246 22.861C17.0683 22.9329 17.2121 22.9329 17.3558 23.0048H17.4996C17.4277 22.861 16.3495 18.9795 16.3495 18.9076V18.9795C16.637 19.842 16.9246 20.7765 17.2121 21.6391C17.2121 21.6391 17.2121 21.7109 17.284 21.7109C17.5715 21.7828 17.7871 21.8547 18.0746 21.9266C18.0746 21.9266 18.1465 21.9266 18.1465 21.9985C18.2184 22.2141 18.2903 22.4297 18.3622 22.5735L18.4341 22.6454C18.6497 22.6454 18.8653 22.7173 19.0091 22.7173L19.2966 22.7891L19.1529 22.2141L19.8717 22.3579ZM11.3179 14.7386L12.3242 11.6477L13.2587 14.7386H11.3179Z" fill="#D9000D"/>
</g>
<defs>
<clipPath id="clip0_4_5649">
<rect width="15.7418" height="22.7142" fill="white" transform="translate(4.12988 0.650024)"/>
</clipPath>
</defs>
</svg>
