<svg width="24" height="24" viewBox="0 0 24 24" fill="none" xmlns="http://www.w3.org/2000/svg">
<path d="M23.1715 5.93954C23.203 6.03584 23.1769 6.13766 23.1054 6.20783H23.1067L22.4682 6.82974C22.4407 6.85588 22.4283 6.89441 22.4352 6.93155L22.5866 7.81076C22.6003 7.88781 22.5797 7.96348 22.5302 8.02265C22.4792 8.0818 22.4063 8.1162 22.3293 8.1162C22.288 8.1162 22.2467 8.10658 22.2081 8.08593L21.4181 7.67041C21.3851 7.6539 21.3439 7.65252 21.3109 7.67041L20.5209 8.08593C20.4122 8.14372 20.2773 8.11483 20.1988 8.02265C20.1493 7.96348 20.1287 7.88781 20.1424 7.81076L20.2925 6.93155C20.2993 6.89441 20.2869 6.85588 20.2594 6.82974L19.6208 6.20783C19.5493 6.13766 19.5246 6.03447 19.5548 5.93954C19.5851 5.8446 19.6663 5.7758 19.7653 5.76205L20.6475 5.63409C20.6847 5.62858 20.7177 5.60519 20.7342 5.57079L21.1291 4.77139C21.1732 4.68196 21.264 4.62555 21.3631 4.62555C21.4622 4.62555 21.5531 4.68196 21.5971 4.77139L21.9921 5.57079C22.0086 5.60519 22.0416 5.62858 22.0787 5.63409L22.9609 5.76205C23.06 5.7758 23.1398 5.8446 23.1715 5.93954Z" fill="white"/>
<path d="M10.6603 13.697L12.4026 18.3399H15.3419L13.0713 12.2894C12.2306 12.7376 11.427 13.2068 10.6603 13.697Z" fill="white"/>
<path d="M18.3522 6.98937C17.4657 7.31033 16.6001 7.65546 15.7551 8.02477C14.5018 8.56939 13.2953 9.16005 12.1359 9.79675L11.1103 7.06068C10.9013 6.49382 10.5226 6.00511 10.0256 5.6611C9.52871 5.3171 8.93774 5.13452 8.33323 5.13824C7.72908 5.13531 7.13866 5.31822 6.64212 5.66214C6.14557 6.00606 5.76695 6.49433 5.55764 7.06068L1.3244 18.3399H4.80849C8.45939 14.1676 12.8179 10.5261 18.8716 7.98083C19.6566 7.65767 19.18 6.69088 18.3522 6.98937ZM9.66833 11.2567C8.36374 12.0886 7.10714 12.9933 5.90451 13.9666L8.1336 8.02687C8.14895 7.98565 8.18599 7.88785 8.33323 7.88785C8.48047 7.88785 8.5178 7.98565 8.53286 8.02687L9.73005 11.2164L9.66833 11.2567Z" fill="white"/>
<path fill-rule="evenodd" clip-rule="evenodd" d="M23.1855 5.94345C23.2172 6.04004 23.191 6.14216 23.1193 6.21254H23.1207L22.4807 6.8363C22.4531 6.86252 22.4407 6.90116 22.4476 6.93842L22.5993 7.82024C22.6131 7.89751 22.5924 7.97342 22.5428 8.03276C22.4917 8.09209 22.4186 8.12659 22.3414 8.12659C22.3 8.12659 22.2586 8.11693 22.22 8.09624L21.4283 7.67948C21.3953 7.66292 21.3539 7.66154 21.3207 7.67948L20.5291 8.09624C20.4202 8.15419 20.285 8.12522 20.2064 8.03276C20.1567 7.97342 20.136 7.89751 20.1498 7.82024L20.3001 6.93842C20.3071 6.90116 20.2947 6.86252 20.2671 6.8363L19.6271 6.21254C19.5554 6.14216 19.5306 6.03867 19.5609 5.94345C19.5913 5.84823 19.6726 5.77922 19.7719 5.76542L20.656 5.63708C20.6932 5.63157 20.7264 5.60811 20.7429 5.57361L21.1387 4.77183C21.1828 4.68213 21.2739 4.62555 21.3732 4.62555C21.4725 4.62555 21.5635 4.68213 21.6076 4.77183L22.0035 5.57361C22.02 5.60811 22.0531 5.63157 22.0904 5.63708L22.9744 5.76542C23.0738 5.77922 23.1537 5.84823 23.1855 5.94345ZM18.8853 8.05414C12.7651 10.6205 8.50944 14.1319 4.81916 18.3385L4.40187 18.3399H1.29999C2.10537 17.4359 2.96359 16.5527 3.88164 15.7014C7.18244 12.6387 11.2163 9.96136 15.8844 7.93847C16.7384 7.56689 17.4365 7.27259 18.3323 6.94814C19.1697 6.64727 19.6797 7.72832 18.8853 8.05414Z" fill="#FF0000"/>
<path fill-rule="evenodd" clip-rule="evenodd" d="M23.1855 5.94345C23.2172 6.04004 23.191 6.14216 23.1193 6.21254H23.1207L22.4807 6.8363C22.4531 6.86252 22.4407 6.90116 22.4476 6.93842L22.5993 7.82024C22.6131 7.89751 22.5924 7.97342 22.5428 8.03276C22.4917 8.09209 22.4186 8.12659 22.3414 8.12659C22.3 8.12659 22.2586 8.11693 22.22 8.09624L21.4283 7.67948C21.3953 7.66292 21.3539 7.66154 21.3207 7.67948L20.5291 8.09624C20.4202 8.15419 20.285 8.12522 20.2064 8.03276C20.1567 7.97342 20.136 7.89751 20.1498 7.82024L20.3001 6.93842C20.3071 6.90116 20.2947 6.86252 20.2671 6.8363L19.6271 6.21254C19.5554 6.14216 19.5306 6.03867 19.5609 5.94345C19.5913 5.84823 19.6726 5.77922 19.7719 5.76542L20.656 5.63708C20.6932 5.63157 20.7264 5.60811 20.7429 5.57361L21.1387 4.77183C21.1828 4.68213 21.2739 4.62555 21.3732 4.62555C21.4725 4.62555 21.5635 4.68213 21.6076 4.77183L22.0035 5.57361C22.02 5.60811 22.0531 5.63157 22.0904 5.63708L22.9744 5.76542C23.0738 5.77922 23.1537 5.84823 23.1855 5.94345ZM18.8853 8.05414C12.7651 10.6205 8.50944 14.1319 4.81916 18.3385L4.40187 18.3399H1.29999C2.10537 17.4359 2.96359 16.5527 3.88164 15.7014C7.18244 12.6387 11.2163 9.96136 15.8844 7.93847C16.7384 7.56689 17.4365 7.27259 18.3323 6.94814C19.1697 6.64727 19.6797 7.72832 18.8853 8.05414Z" fill="url(#paint0_linear_85_960)"/>
<defs>
<linearGradient id="paint0_linear_85_960" x1="22.9456" y1="5.59154" x2="13.5461" y2="8.40551" gradientUnits="userSpaceOnUse">
<stop offset="0.02" stop-color="#FFCB15"/>
<stop offset="0.09" stop-color="#FFB525"/>
<stop offset="0.23" stop-color="#FF7D4E"/>
<stop offset="0.480903" stop-color="#FF2490"/>
<stop offset="0.631946" stop-color="#FF139D"/>
<stop offset="0.819447" stop-color="#C81EE8"/>
<stop offset="1" stop-color="#BA22FE"/>
</linearGradient>
</defs>
</svg>
