<svg width="24" height="24" viewBox="0 0 24 24" fill="none" xmlns="http://www.w3.org/2000/svg">
<path d="M14.2827 15.0984H8.39425L7.51098 17.9016C7.21656 18.4918 7.06935 19.082 7.06935 19.3771C7.06935 19.6721 7.21656 19.9672 7.36377 20.1148C7.65819 20.2623 8.09982 20.4098 8.83588 20.5574V21H4.12512V20.5574C4.71397 20.4098 5.1556 20.2623 5.30281 19.9672C5.74445 19.5246 6.18608 18.7869 6.62771 17.459L11.7801 3H12.2217L17.3741 17.6066C17.6686 18.7869 18.1102 19.5246 18.4046 19.9672C18.8462 20.2623 19.2879 20.4098 19.8767 20.5574V21H13.9883V20.5574C14.5771 20.4098 15.0188 20.4098 15.166 20.1148C15.4604 19.9672 15.4604 19.6721 15.4604 19.3771C15.4604 19.082 15.3132 18.4918 15.0188 17.6066L14.2827 15.0984ZM13.8411 14.2131L11.3385 7.13115L8.83588 14.2131H13.8411Z" fill="white"/>
</svg>
