<svg width="24" height="24" viewBox="0 0 24 24" fill="none" xmlns="http://www.w3.org/2000/svg">
<path d="M10.7756 18.4549H9.18579L9.04028 18.4559C9.00283 18.4558 8.96503 18.4549 8.927 18.4549H7.59595V17.8191C7.59595 17.3728 7.62541 17.1859 7.69165 17.1697C7.71054 17.1686 7.73038 17.1678 7.75122 17.1668C8.08431 17.1599 9.87085 17.1522 11.9993 17.1453C14.1253 17.1522 15.9105 17.16 16.2473 17.1668C16.2685 17.1678 16.2887 17.1686 16.3079 17.1697C16.3744 17.1852 16.4045 17.3717 16.4045 17.8191V18.4549H15.0725C15.0345 18.4549 14.9967 18.4558 14.9592 18.4559L14.8147 18.4549H13.2239V20.2H21.5959L21.5881 19.3465C21.5804 18.8751 21.5577 18.4731 21.5422 18.4549C21.5267 18.4316 21.3169 18.4001 21.0842 18.3846C20.8516 18.369 20.6111 18.3306 20.5491 18.2996C20.394 18.2374 19.9987 17.6101 19.9827 17.408C19.9749 17.3231 19.9521 17.2534 19.929 17.2527C19.9057 17.2527 19.8743 17.1906 19.8665 17.1209C19.8432 16.8727 19.8123 16.7482 19.7502 16.6551C19.7115 16.6008 19.673 16.4845 19.6575 16.3992C19.642 16.3139 19.4784 15.7867 19.3 15.2205C19.1139 14.6544 18.9593 14.15 18.9514 14.0955C18.9359 13.987 18.7733 13.4598 18.7112 13.2967C18.6879 13.2346 18.6564 13.1411 18.6487 13.1023C18.6329 13.0549 18.5325 12.7525 18.4241 12.4119C18.3078 12.0785 18.2299 11.7916 18.2454 11.7684C18.2611 11.7528 18.455 11.7301 18.6643 11.7068C18.8815 11.6913 19.2076 11.6362 19.3938 11.5896C19.4037 11.5872 19.4139 11.5853 19.4241 11.5828C19.4982 11.5677 19.5652 11.5511 19.6233 11.5359C19.737 11.5086 19.8385 11.4828 19.8899 11.4734C20.5027 11.3338 21.5114 10.5895 21.8372 10.0311C21.952 9.83953 22.0026 9.51554 21.9973 9.20781C22.0028 8.89603 21.9452 8.6055 21.8186 8.48711C21.8142 8.482 21.8105 8.47609 21.8059 8.47148C21.7917 8.45726 21.7766 8.44632 21.7629 8.43437C21.7594 8.4309 21.7557 8.42788 21.7522 8.42461C21.7469 8.42033 21.7412 8.41687 21.7356 8.41289C21.6987 8.38174 21.6567 8.36016 21.551 8.3455C21.5156 8.33946 21.4741 8.3364 21.425 8.33183C21.4215 8.33158 21.418 8.33013 21.4143 8.32988C21.1015 8.30201 20.4859 8.29794 19.1604 8.29375C17.7727 8.29374 16.8707 8.26752 16.6565 8.22929L16.4436 7.71172C16.1644 7.04464 15.6827 6.14453 15.3958 5.76445C14.8435 5.03061 14.0138 4.31703 13.4182 4.04668C13.4093 4.03878 13.4021 4.03258 13.3977 4.02715C13.369 3.98415 13.3414 3.98118 13.3372 4.01152C13.3009 3.99708 13.2657 3.98405 13.2317 3.97343C13.062 3.91944 12.9159 3.84961 12.9143 3.82597C12.9143 3.77081 12.4617 3.76241 11.9993 3.78203C11.5374 3.76249 11.0862 3.77087 11.0862 3.82597C11.0847 3.84959 10.9376 3.91941 10.7678 3.97343C10.7335 3.98415 10.698 3.99691 10.6614 4.01152C10.6571 3.98146 10.6313 3.98447 10.6028 4.02715C10.5985 4.03252 10.591 4.03888 10.5823 4.04668C9.98664 4.3169 9.15612 5.03036 8.60376 5.76445C8.31677 6.14452 7.83613 7.04465 7.55688 7.71172L7.34302 8.22929C7.12798 8.26748 6.22607 8.29375 4.83911 8.29375C3.51303 8.29794 2.89781 8.30197 2.58521 8.32988C2.58022 8.33022 2.57538 8.33148 2.57056 8.33183C2.52361 8.33629 2.48371 8.33968 2.44946 8.3455C2.34465 8.35999 2.30155 8.38032 2.26489 8.41093C2.23991 8.42851 2.21827 8.4478 2.19458 8.47148C2.19131 8.47475 2.18898 8.47968 2.18579 8.4832C2.18429 8.48455 2.18246 8.48573 2.18091 8.48711C2.05652 8.60356 1.99794 8.88644 2.00122 9.19218C1.9939 9.50458 2.04649 9.83631 2.16333 10.0311C2.48919 10.5895 3.49786 11.3338 4.1106 11.4734C4.16145 11.4827 4.26068 11.5082 4.37231 11.535C4.43152 11.5505 4.50025 11.5673 4.57642 11.5828C4.58653 11.5853 4.59677 11.5872 4.60669 11.5896C4.79273 11.6362 5.11803 11.6913 5.33521 11.7068C5.54351 11.73 5.73681 11.7528 5.75415 11.7684C5.76966 11.7916 5.69269 12.0785 5.57642 12.4119C5.46793 12.7529 5.3665 13.0553 5.35083 13.1023C5.34307 13.1411 5.31258 13.2346 5.28931 13.2967C5.22724 13.4596 5.06461 13.9869 5.04907 14.0955C5.04132 14.1498 4.88562 14.6543 4.69946 15.2205C4.52112 15.7865 4.35857 16.3138 4.34302 16.3992C4.3275 16.4845 4.28805 16.6008 4.24927 16.6551C4.18728 16.7481 4.15631 16.8728 4.13306 17.1209C4.12526 17.1904 4.09474 17.2524 4.07153 17.2527C4.04826 17.2527 4.0246 17.3227 4.01685 17.408C4.0008 17.6101 3.60546 18.2376 3.45044 18.2996C3.38793 18.3306 3.14762 18.3691 2.91528 18.3846C2.68285 18.4001 2.47401 18.4316 2.45825 18.4549C2.44274 18.4704 2.41914 18.8734 2.41138 19.3465L2.40356 20.2H10.7756V18.4549ZM8.05005 12.5984L8.04321 11.8602L8.60376 11.823C8.90924 11.8007 10.3743 11.7933 11.9055 11.7996C11.9684 11.7993 12.0313 11.7999 12.094 11.7996C13.5355 11.8066 14.9205 11.816 15.3713 11.823C15.3801 11.8236 15.3883 11.8225 15.3958 11.823L15.9563 11.8602L15.9495 12.5984L15.9417 13.3738H8.05786L8.05005 12.5984Z" fill="#FF1F00" fill-opacity="0.941176"/>
</svg>
