<svg width="24" height="24" viewBox="0 0 24 24" fill="none" xmlns="http://www.w3.org/2000/svg">
<path d="M12.414 15.134C14.3136 15.134 15.8535 13.5941 15.8535 11.6946C15.8535 9.79504 14.3136 8.25515 12.414 8.25515C10.5145 8.25515 8.97461 9.79504 8.97461 11.6946C8.97461 13.5941 10.5145 15.134 12.414 15.134Z" fill="#A6CE39"/>
<path fill-rule="evenodd" clip-rule="evenodd" d="M17.9269 14.3881C17.844 14.4296 17.7197 14.3467 17.8026 14.2638C19.543 12.2333 20.1231 9.82983 19.0872 8.04796C17.8026 5.85169 14.4874 5.39586 11.2552 6.55615C7.81577 7.79932 5.57806 10.41 6.03389 13.0621C6.94555 18.4491 17.6368 17.9933 21.3663 17.7032C21.4906 17.7032 21.4906 17.869 21.4077 17.869C11.8353 20.0653 3.3818 18.7392 2.13863 13.9323C0.936901 9.29113 7.8572 6.59759 10.9651 5.76882C15.2333 4.64996 20.7033 4.6914 21.8221 7.79932C22.568 9.78839 20.9105 12.3576 17.9269 14.3881Z" fill="#A6CE39"/>
</svg>
