<svg width="24" height="24" viewBox="0 0 24 24" fill="none" xmlns="http://www.w3.org/2000/svg">
<g clip-path="url(#clip0_4_5520)">
<mask id="mask0_4_5520" style="mask-type:luminance" maskUnits="userSpaceOnUse" x="-32" y="1" width="83" height="23">
<path d="M50.3831 1.45899H-31.3221V23.556H50.3831V1.45899Z" fill="white"/>
</mask>
<g mask="url(#mask0_4_5520)">
<mask id="mask1_4_5520" style="mask-type:luminance" maskUnits="userSpaceOnUse" x="6" y="6" width="12" height="12">
<path d="M11.8172 13.0431C11.8172 13.0431 11.8162 13.0314 11.8005 13.026L11.8172 13.0431ZM12.1377 13.0406C12.1377 13.0406 12.3816 12.8705 14.5305 14.7695C16.6809 16.668 17.321 17.1875 17.321 17.1875C17.321 17.1875 16.9449 16.771 14.854 14.4378C13.1418 12.5272 13.0574 12.1607 13.0837 12.0905L12.1377 13.0406ZM9.13214 14.4792C7.24066 16.6373 6.72425 17.2804 6.72425 17.2804C6.72425 17.2804 7.13821 16.9028 9.46277 14.8038C11.3659 13.085 11.7303 13.0002 11.8005 13.0259L10.854 12.0764C10.854 12.0764 11.0246 12.3212 9.13214 14.4792ZM12.0907 10.9603L12.0736 10.9436C12.0736 10.9436 12.0751 10.9553 12.0907 10.9603ZM9.11143 9.51756C10.8242 11.4287 10.908 11.7957 10.8828 11.8654L11.8288 10.9154C11.8288 10.9154 11.585 11.0865 9.43509 9.18688C7.2856 7.28731 6.64453 6.76841 6.64453 6.76841C6.64453 6.76841 7.02104 7.18435 9.11143 9.51756ZM14.4285 9.18288C12.5254 10.9017 12.1605 10.986 12.0907 10.9603L13.0363 11.9103C13.0363 11.9103 12.8667 11.666 14.7581 9.50748C16.6506 7.34891 17.1671 6.70578 17.1671 6.70578C17.1671 6.70578 16.7531 7.0844 14.4285 9.18288Z" fill="white"/>
</mask>
<g mask="url(#mask1_4_5520)">
<path d="M15.71 2.88229L21.1099 15.6828L8.25936 21.1039L2.85938 8.30336L15.71 2.88229Z" fill="url(#paint0_linear_4_5520)"/>
</g>
</g>
<mask id="mask2_4_5520" style="mask-type:luminance" maskUnits="userSpaceOnUse" x="-32" y="1" width="83" height="23">
<path d="M50.3831 1.45899H-31.3221V23.556H50.3831V1.45899Z" fill="white"/>
</mask>
<g mask="url(#mask2_4_5520)">
<mask id="mask3_4_5520" style="mask-type:luminance" maskUnits="userSpaceOnUse" x="7" y="7" width="10" height="10">
<path d="M12.3548 12.9789C12.7539 13.1505 13.5342 13.7421 14.6036 14.6872C15.2344 15.2441 15.736 15.6828 16.1293 16.0246C15.7868 15.6427 15.3437 15.1485 14.7728 14.5113C13.5726 13.1722 13.1601 12.5803 13.0275 12.3032L12.3548 12.9789ZM9.21528 14.5518C8.65974 15.1856 8.22223 15.6895 7.8817 16.0845C8.26248 15.7403 8.755 15.2953 9.38952 14.7224C10.4825 13.7352 11.2202 13.1482 11.5906 12.9705L10.9149 12.2927C10.7096 12.7859 9.92074 13.7473 9.21528 14.5518ZM9.19371 9.4443C10.3952 10.7849 10.8074 11.3764 10.9398 11.6529L11.6124 10.9774C11.213 10.8059 10.4324 10.2144 9.36266 9.26932C8.73249 8.71236 8.23123 8.27361 7.83801 7.93183C8.18078 8.31394 8.62376 8.80805 9.19371 9.4443ZM14.5027 9.26446C13.4099 10.2514 12.672 10.8384 12.3016 11.0159L12.9767 11.6943C13.1824 11.2013 13.9709 10.2397 14.676 9.43509C15.2303 8.80289 15.6669 8.30008 16.0073 7.9054C15.6269 8.24924 15.1353 8.69338 14.5027 9.26446Z" fill="white"/>
</mask>
<g mask="url(#mask3_4_5520)">
<path d="M14.878 4.93604L19.0598 14.8488L9.09205 19.0537L4.91028 9.14101L14.878 4.93604Z" fill="url(#paint1_linear_4_5520)"/>
</g>
</g>
<mask id="mask4_4_5520" style="mask-type:luminance" maskUnits="userSpaceOnUse" x="-32" y="1" width="83" height="23">
<path d="M50.3831 1.45899H-31.3221V23.556H50.3831V1.45899Z" fill="white"/>
</mask>
<g mask="url(#mask4_4_5520)">
<mask id="mask5_4_5520" style="mask-type:luminance" maskUnits="userSpaceOnUse" x="-32" y="1" width="83" height="23">
<path d="M50.3849 1.45899H-31.3202V23.556H50.3849V1.45899Z" fill="white"/>
</mask>
<g mask="url(#mask5_4_5520)">
<g opacity="0.29">
<mask id="mask6_4_5520" style="mask-type:luminance" maskUnits="userSpaceOnUse" x="10" y="12" width="2" height="2">
<path d="M11.591 12.406H10.2618V13.6045H11.591V12.406Z" fill="white"/>
</mask>
<g mask="url(#mask6_4_5520)">
<mask id="mask7_4_5520" style="mask-type:luminance" maskUnits="userSpaceOnUse" x="10" y="12" width="2" height="2">
<path d="M10.7871 12.4061L10.2676 13.1192C10.2676 13.1192 10.7384 13.0654 10.8709 13.6045L11.5968 13.0429L10.7871 12.4061Z" fill="white"/>
</mask>
<g mask="url(#mask7_4_5520)">
<path d="M12.1706 12.8369L11.1178 14.2423L9.69128 13.1737L10.7441 11.7682L12.1706 12.8369Z" fill="url(#paint2_linear_4_5520)"/>
</g>
</g>
</g>
</g>
<mask id="mask8_4_5520" style="mask-type:luminance" maskUnits="userSpaceOnUse" x="-32" y="1" width="83" height="23">
<path d="M50.3849 1.45899H-31.3202V23.556H50.3849V1.45899Z" fill="white"/>
</mask>
<g mask="url(#mask8_4_5520)">
<g opacity="0.29">
<mask id="mask9_4_5520" style="mask-type:luminance" maskUnits="userSpaceOnUse" x="10" y="10" width="2" height="2">
<path d="M11.5341 10.2576H10.1466V11.6812H11.5341V10.2576Z" fill="white"/>
</mask>
<g mask="url(#mask9_4_5520)">
<mask id="mask10_4_5520" style="mask-type:luminance" maskUnits="userSpaceOnUse" x="10" y="10" width="2" height="2">
<path d="M11.5322 10.8325L10.6728 10.2576C10.6728 10.2576 10.7716 10.5546 10.1447 10.7192L10.8575 11.6812L11.5322 10.8325Z" fill="white"/>
</mask>
<g mask="url(#mask10_4_5520)">
<path d="M10.7735 12.3721L9.43567 10.9032L10.9028 9.56702L12.2406 11.0359L10.7735 12.3721Z" fill="url(#paint3_linear_4_5520)"/>
</g>
</g>
</g>
</g>
<mask id="mask11_4_5520" style="mask-type:luminance" maskUnits="userSpaceOnUse" x="-32" y="1" width="83" height="23">
<path d="M50.3849 1.45899H-31.3202V23.556H50.3849V1.45899Z" fill="white"/>
</mask>
<g mask="url(#mask11_4_5520)">
<g opacity="0.29">
<mask id="mask12_4_5520" style="mask-type:luminance" maskUnits="userSpaceOnUse" x="12" y="10" width="2" height="2">
<path d="M13.4698 10.5083H12.3282V11.5419H13.4698V10.5083Z" fill="white"/>
</mask>
<g mask="url(#mask12_4_5520)">
<mask id="mask13_4_5520" style="mask-type:luminance" maskUnits="userSpaceOnUse" x="12" y="10" width="2" height="2">
<path d="M13.179 11.5419L13.4696 11.0868C13.4696 11.0868 13.0069 11.0474 12.8744 10.5083L12.3282 10.9066L13.179 11.5419Z" fill="white"/>
</mask>
<g mask="url(#mask13_4_5520)">
<path d="M11.8146 10.9612L12.9687 9.94202L13.9815 11.089L12.8275 12.1082L11.8146 10.9612Z" fill="url(#paint4_linear_4_5520)"/>
</g>
</g>
</g>
</g>
<mask id="mask14_4_5520" style="mask-type:luminance" maskUnits="userSpaceOnUse" x="-32" y="1" width="83" height="23">
<path d="M50.3849 1.45899H-31.3202V23.556H50.3849V1.45899Z" fill="white"/>
</mask>
<g mask="url(#mask14_4_5520)">
<g opacity="0.29">
<mask id="mask15_4_5520" style="mask-type:luminance" maskUnits="userSpaceOnUse" x="12" y="12" width="2" height="2">
<path d="M13.777 12.3031H12.4728V13.6046H13.777V12.3031Z" fill="white"/>
</mask>
<g mask="url(#mask15_4_5520)">
<mask id="mask16_4_5520" style="mask-type:luminance" maskUnits="userSpaceOnUse" x="12" y="12" width="2" height="2">
<path d="M12.4728 13.1518L13.1709 13.6046C13.1709 13.6046 13.2183 13.2867 13.7774 13.1801L13.0993 12.3031L12.4728 13.1518Z" fill="white"/>
</mask>
<g mask="url(#mask16_4_5520)">
<path d="M13.1078 11.6509L14.4281 12.9363L13.1427 14.2566L11.8224 12.9712L13.1078 11.6509Z" fill="url(#paint5_linear_4_5520)"/>
</g>
</g>
</g>
</g>
</g>
<mask id="mask17_4_5520" style="mask-type:luminance" maskUnits="userSpaceOnUse" x="-32" y="1" width="83" height="23">
<path d="M50.3831 1.45899H-31.3221V23.556H50.3831V1.45899Z" fill="white"/>
</mask>
<g mask="url(#mask17_4_5520)">
<mask id="mask18_4_5520" style="mask-type:luminance" maskUnits="userSpaceOnUse" x="1" y="1" width="22" height="22">
<path d="M11.7338 6.63555C11.6489 8.26656 11.5369 9.43161 11.4496 10.1757C11.3441 11.1 11.1518 11.3241 10.1729 11.4564C9.39555 11.5564 8.19666 11.6871 6.64842 11.786C3.79123 11.9698 1.50598 12.0571 1.50598 12.0571C1.50598 12.0571 3.53228 12.0843 6.65346 12.2505C8.41271 12.3433 9.62524 12.4665 10.3517 12.5568C11.1184 12.6835 11.3259 12.9087 11.4304 13.6281C11.437 13.678 11.6853 15.7957 11.7843 17.3555C11.9665 20.2248 12.0539 22.5267 12.0539 22.5267C12.0539 22.5267 12.0812 20.4853 12.2457 17.3505C12.3431 15.509 12.4724 14.2616 12.5632 13.5448C12.6798 12.8426 12.9261 12.6488 13.804 12.5307C14.5809 12.4307 15.7818 12.2989 17.3321 12.2C20.1892 12.0168 22.4745 11.9289 22.4745 11.9289C22.4745 11.9289 20.4482 11.9022 17.327 11.7366C15.5567 11.6422 14.3391 11.518 13.6142 11.4282C12.86 11.3009 12.654 11.0743 12.5501 10.3605C12.4476 9.59269 12.3032 8.31705 12.1962 6.63055C12.014 3.76226 11.9262 1.45935 11.9262 1.45935C11.9262 1.45935 11.8993 3.50123 11.7338 6.63555Z" fill="white"/>
</mask>
<g mask="url(#mask18_4_5520)">
<path d="M22.4744 1.45935H1.50598V22.5267H22.4744V1.45935Z" fill="url(#paint6_linear_4_5520)"/>
</g>
</g>
<mask id="mask19_4_5520" style="mask-type:luminance" maskUnits="userSpaceOnUse" x="-32" y="1" width="83" height="23">
<path d="M50.3831 1.45899H-31.3221V23.556H50.3831V1.45899Z" fill="white"/>
</mask>
<g mask="url(#mask19_4_5520)">
<mask id="mask20_4_5520" style="mask-type:luminance" maskUnits="userSpaceOnUse" x="-32" y="1" width="83" height="23">
<path d="M50.3849 1.45899H-31.3202V23.556H50.3849V1.45899Z" fill="white"/>
</mask>
<g mask="url(#mask20_4_5520)">
<path d="M12.0447 22.527C12.0438 22.504 11.9552 20.1924 11.7751 17.356C11.6739 15.7617 11.4236 13.6464 11.4213 13.6291C11.3151 12.8982 11.1046 12.6892 10.3488 12.5644C9.64093 12.4763 8.42461 12.3517 6.65138 12.258C3.56609 12.0939 1.52447 12.065 1.50424 12.0647L1.50403 12.0497C1.52689 12.0488 3.82187 11.9602 6.64626 11.7786C8.22497 11.6777 9.43402 11.5437 10.1703 11.449C10.6912 11.3786 10.9607 11.283 11.1317 11.1079C11.3224 10.9125 11.3912 10.6061 11.4404 10.1749C11.558 9.17323 11.6563 7.94925 11.7246 6.63522C11.8883 3.53693 11.9167 1.47969 11.917 1.45928L11.932 1.45911C11.9329 1.48214 12.022 3.79473 12.2021 6.63009C12.3098 8.32865 12.454 9.59572 12.5559 10.3595C12.6606 11.0785 12.8781 11.2967 13.6138 11.4208C14.3268 11.5091 15.5499 11.6345 17.3257 11.7291C20.4111 11.8928 22.4526 11.9212 22.4728 11.9214L22.4731 11.9365C22.4502 11.9374 20.1553 12.0265 17.3308 12.2076C15.7597 12.3078 14.5453 12.4427 13.8033 12.5382C12.9262 12.6562 12.6839 12.854 12.5689 13.546C12.478 14.2634 12.3491 15.5061 12.2515 17.3509C12.0889 20.4497 12.06 22.5064 12.0597 22.5268L12.0447 22.527ZM1.76101 12.0543C2.40125 12.0673 4.19601 12.1123 6.65228 12.243C8.42586 12.3366 9.64261 12.4613 10.351 12.5494C11.107 12.6743 11.3301 12.8959 11.4362 13.627C11.4386 13.6444 11.689 15.7603 11.7902 17.3551C11.9354 19.6418 12.0211 21.5874 12.0494 22.2678C12.0624 21.6228 12.1071 19.8165 12.2366 17.3501C12.3343 15.5048 12.4632 14.2617 12.5541 13.5438C12.6706 12.8426 12.9154 12.6424 13.8014 12.5232C14.5438 12.4277 15.7585 12.2928 17.33 12.1925C19.6072 12.0464 21.5404 11.9603 22.2161 11.9318C21.5756 11.919 19.7809 11.8744 17.3251 11.7441C15.5488 11.6494 14.3253 11.5241 13.6117 11.4356C12.8672 11.31 12.6471 11.0892 12.5411 10.3616C12.4391 9.59744 12.295 8.32998 12.1871 6.631C12.0419 4.3451 11.9559 2.39891 11.9276 1.7182C11.9147 2.3634 11.8701 4.16999 11.7398 6.63599C11.6715 7.95028 11.5732 9.17465 11.4555 10.1766C11.406 10.6109 11.3363 10.9199 11.1426 11.1183C10.9691 11.2961 10.697 11.393 10.1724 11.4639C9.43587 11.5586 8.22648 11.6927 6.64733 11.7936C4.3697 11.9401 2.43638 12.026 1.76101 12.0543Z" fill="#A05216"/>
</g>
</g>
<mask id="mask21_4_5520" style="mask-type:luminance" maskUnits="userSpaceOnUse" x="-32" y="1" width="83" height="23">
<path d="M50.3831 1.45899H-31.3221V23.556H50.3831V1.45899Z" fill="white"/>
</mask>
<g mask="url(#mask21_4_5520)">
<mask id="mask22_4_5520" style="mask-type:luminance" maskUnits="userSpaceOnUse" x="4" y="4" width="16" height="16">
<path d="M11.8424 6.64111C11.7731 7.97623 11.6771 9.16969 11.5576 10.1881C11.444 11.1836 11.2005 11.4282 10.1858 11.5652C9.44764 11.6601 8.23588 11.7945 6.65437 11.8956C5.82055 11.9492 5.03291 11.9947 4.33606 12.0323C5.01436 12.0593 5.79558 12.0946 6.65816 12.1406C8.43467 12.2344 9.654 12.3594 10.3685 12.4483C11.1731 12.5813 11.4246 12.8315 11.5382 13.6136C11.5404 13.6309 11.7934 15.7798 11.8928 17.3484C11.9457 18.1808 11.9906 18.9683 12.0278 19.6658C12.0547 18.9867 12.0896 18.2057 12.1347 17.3445C12.2325 15.4959 12.3617 14.2502 12.4536 13.5266C12.5786 12.7746 12.8529 12.5474 13.7888 12.4215C14.5326 12.3258 15.7496 12.1906 17.3238 12.0902C18.1561 12.0368 18.9422 11.9914 19.638 11.9539C18.9606 11.927 18.1808 11.8918 17.32 11.8461C15.5406 11.7513 14.3147 11.6257 13.5948 11.5363C12.8015 11.4026 12.5533 11.1532 12.44 10.3749C12.3378 9.60957 12.1934 8.33996 12.0854 6.63732C12.0324 5.80341 11.9873 5.01483 11.95 4.31617C11.9231 4.99619 11.888 5.7784 11.8424 6.64111Z" fill="white"/>
</mask>
<g mask="url(#mask22_4_5520)">
<path d="M15.8206 -2.3042L26.2774 15.8381L8.15038 26.2862L-2.30652 8.14392L15.8206 -2.3042Z" fill="url(#paint7_linear_4_5520)"/>
</g>
</g>
<mask id="mask23_4_5520" style="mask-type:luminance" maskUnits="userSpaceOnUse" x="-32" y="1" width="83" height="23">
<path d="M50.3849 1.45898H-31.3202V23.556H50.3849V1.45898Z" fill="white"/>
</mask>
<g mask="url(#mask23_4_5520)">
<path d="M4.71667 12.0103C4.71667 12.0103 5.5406 11.9555 6.7765 11.8732C7.39437 11.8336 8.11425 11.774 8.88428 11.6979C9.26923 11.6594 9.66666 11.6158 10.0697 11.5653C10.2714 11.5406 10.4739 11.5133 10.6714 11.465C10.7705 11.4415 10.8668 11.409 10.9591 11.3686C11.0502 11.3258 11.1341 11.2704 11.206 11.2014C11.2746 11.1294 11.3297 11.0453 11.3716 10.9539C11.4106 10.8611 11.4421 10.7645 11.4633 10.665C11.5083 10.4665 11.529 10.2633 11.5526 10.0613C11.5982 9.65781 11.6365 9.25982 11.6695 8.87435C11.7346 8.10337 11.784 7.38259 11.8162 6.76438C11.8829 5.52753 11.9273 4.70296 11.9273 4.70296C11.9273 4.70296 11.8955 5.52813 11.8477 6.7658C11.8348 7.07538 11.8168 7.41035 11.796 7.7647C11.775 8.119 11.7499 8.4925 11.7178 8.8784C11.686 9.26438 11.6488 9.66276 11.6045 10.0672C11.5816 10.2687 11.5614 10.474 11.516 10.677C11.4946 10.7787 11.4625 10.879 11.4219 10.9763C11.378 11.0727 11.3197 11.1633 11.2455 11.2409C11.1679 11.3151 11.0778 11.3739 10.9819 11.4186C10.8853 11.4606 10.7855 11.4937 10.6844 11.5174C10.4822 11.5662 10.2777 11.5929 10.0761 11.617C9.67239 11.6664 9.27444 11.7087 8.88902 11.7461C8.50359 11.7836 8.13048 11.8138 7.77648 11.8398C7.42248 11.8657 7.08772 11.8875 6.77835 11.9045C5.54137 11.968 4.71667 12.0103 4.71667 12.0103Z" fill="white"/>
</g>
<mask id="mask24_4_5520" style="mask-type:luminance" maskUnits="userSpaceOnUse" x="-32" y="1" width="83" height="23">
<path d="M50.3849 1.45898H-31.3202V23.556H50.3849V1.45898Z" fill="white"/>
</mask>
<g mask="url(#mask24_4_5520)">
<path d="M19.2537 11.9911C19.2537 11.9911 18.4297 12.0459 17.1938 12.1282C16.576 12.1678 15.8561 12.2274 15.0861 12.3035C14.7011 12.342 14.3036 12.3856 13.9007 12.4361C13.6989 12.4608 13.4964 12.4881 13.299 12.5364C13.1999 12.5598 13.1036 12.5924 13.0113 12.6328C12.9202 12.6756 12.8362 12.731 12.7644 12.7999C12.6958 12.872 12.6407 12.9561 12.5988 13.0475C12.5598 13.1403 12.5283 13.2369 12.5071 13.3364C12.4621 13.5349 12.4413 13.7381 12.4178 13.9401C12.3723 14.3436 12.3339 14.7416 12.301 15.127C12.2358 15.898 12.1864 16.6188 12.1542 17.237C12.0875 18.4739 12.0431 19.2985 12.0431 19.2985C12.0431 19.2985 12.0749 18.4733 12.1228 17.2356C12.1357 16.9261 12.1536 16.591 12.1744 16.2367C12.1954 15.8824 12.2205 15.5089 12.2526 15.123C12.2844 14.737 12.3215 14.3386 12.3659 13.9343C12.3888 13.7327 12.409 13.5274 12.4543 13.3244C12.4758 13.2227 12.5078 13.1224 12.5485 13.0251C12.5923 12.9288 12.6507 12.8382 12.7249 12.7605C12.8024 12.6863 12.8926 12.6275 12.9884 12.5829C13.0851 12.5409 13.1848 12.5077 13.286 12.484C13.4882 12.4352 13.6927 12.4085 13.8943 12.3844C14.298 12.3351 14.6959 12.2927 15.0813 12.2553C15.4668 12.2178 15.8399 12.1877 16.1939 12.1616C16.5479 12.1358 16.8827 12.1139 17.192 12.097C18.429 12.0334 19.2537 11.9911 19.2537 11.9911Z" fill="white"/>
</g>
<mask id="mask25_4_5520" style="mask-type:luminance" maskUnits="userSpaceOnUse" x="-32" y="1" width="83" height="23">
<path d="M50.3849 1.45898H-31.3202V23.556H50.3849V1.45898Z" fill="white"/>
</mask>
<g mask="url(#mask25_4_5520)">
<g opacity="0.4">
<mask id="mask26_4_5520" style="mask-type:luminance" maskUnits="userSpaceOnUse" x="9" y="4" width="4" height="16">
<path d="M12.0224 4.31628H9.0509V19.6116H12.0224V4.31628Z" fill="white"/>
</mask>
<g mask="url(#mask26_4_5520)">
<path d="M11.9475 4.31628L12.0224 19.6116C12.0224 19.6116 11.8326 16.1337 11.4991 13.4044C11.3379 12.0856 9.0509 11.7368 9.0509 11.7368C9.0509 11.7368 10.0631 11.62 10.4281 11.5687C11.042 11.4826 11.4507 11.2837 11.5206 10.6165C11.8326 7.63685 11.9475 4.31628 11.9475 4.31628Z" fill="white"/>
</g>
</g>
</g>
</g>
<defs>
<linearGradient id="paint0_linear_4_5520" x1="10.9609" y1="9.55816" x2="14.0115" y2="16.7897" gradientUnits="userSpaceOnUse">
<stop stop-color="#FAB430"/>
<stop offset="0.4551" stop-color="#E78E07"/>
<stop offset="1" stop-color="#E58205"/>
</linearGradient>
<linearGradient id="paint1_linear_4_5520" x1="11.1845" y1="10.1006" x2="13.5539" y2="15.7172" gradientUnits="userSpaceOnUse">
<stop stop-color="#FAEB48"/>
<stop offset="0.0643" stop-color="#FCDC33"/>
<stop offset="0.1335" stop-color="#FCD122"/>
<stop offset="0.2049" stop-color="#FCC916"/>
<stop offset="0.2809" stop-color="#FCC711"/>
<stop offset="0.6685" stop-color="#F39040"/>
<stop offset="1" stop-color="#ED683C"/>
</linearGradient>
<linearGradient id="paint2_linear_4_5520" x1="11.1622" y1="12.6978" x2="10.8049" y2="13.1748" gradientUnits="userSpaceOnUse">
<stop/>
<stop offset="0.1566" stop-color="#0D0D0D"/>
<stop offset="0.2863" stop-color="#292929"/>
<stop offset="0.4065" stop-color="#424241"/>
<stop offset="0.5209" stop-color="#5B5B5A"/>
<stop offset="0.6313" stop-color="#797978"/>
<stop offset="0.7386" stop-color="#9B9B9A"/>
<stop offset="0.8434" stop-color="#C1C0C0"/>
<stop offset="0.9437" stop-color="#E8E8E7"/>
<stop offset="1" stop-color="white"/>
</linearGradient>
<linearGradient id="paint3_linear_4_5520" x1="11.0872" y1="11.2447" x2="10.7883" y2="10.9165" gradientUnits="userSpaceOnUse">
<stop/>
<stop offset="0.1566" stop-color="#0D0D0D"/>
<stop offset="0.2863" stop-color="#292929"/>
<stop offset="0.4065" stop-color="#424241"/>
<stop offset="0.5209" stop-color="#5B5B5A"/>
<stop offset="0.6313" stop-color="#797978"/>
<stop offset="0.7386" stop-color="#9B9B9A"/>
<stop offset="0.8434" stop-color="#C1C0C0"/>
<stop offset="0.9437" stop-color="#E8E8E7"/>
<stop offset="1" stop-color="white"/>
</linearGradient>
<linearGradient id="paint4_linear_4_5520" x1="12.7401" y1="11.1642" x2="13.0681" y2="10.8746" gradientUnits="userSpaceOnUse">
<stop/>
<stop offset="0.1566" stop-color="#0D0D0D"/>
<stop offset="0.2863" stop-color="#292929"/>
<stop offset="0.4065" stop-color="#424241"/>
<stop offset="0.5209" stop-color="#5B5B5A"/>
<stop offset="0.6313" stop-color="#797978"/>
<stop offset="0.7386" stop-color="#9B9B9A"/>
<stop offset="0.8434" stop-color="#C1C0C0"/>
<stop offset="0.9437" stop-color="#E8E8E7"/>
<stop offset="1" stop-color="white"/>
</linearGradient>
<linearGradient id="paint5_linear_4_5520" x1="12.8424" y1="12.678" x2="13.2136" y2="13.0394" gradientUnits="userSpaceOnUse">
<stop/>
<stop offset="0.1566" stop-color="#0D0D0D"/>
<stop offset="0.2863" stop-color="#292929"/>
<stop offset="0.4065" stop-color="#424241"/>
<stop offset="0.5209" stop-color="#5B5B5A"/>
<stop offset="0.6313" stop-color="#797978"/>
<stop offset="0.7386" stop-color="#9B9B9A"/>
<stop offset="0.8434" stop-color="#C1C0C0"/>
<stop offset="0.9437" stop-color="#E8E8E7"/>
<stop offset="1" stop-color="white"/>
</linearGradient>
<linearGradient id="paint6_linear_4_5520" x1="11.9846" y1="1.45299" x2="11.9846" y2="22.5201" gradientUnits="userSpaceOnUse">
<stop stop-color="#FAEB48"/>
<stop offset="0.0643" stop-color="#FCDC33"/>
<stop offset="0.1335" stop-color="#FCD122"/>
<stop offset="0.2049" stop-color="#FCC916"/>
<stop offset="0.2809" stop-color="#FCC711"/>
<stop offset="0.6685" stop-color="#F39040"/>
<stop offset="0.8876" stop-color="#ED683C"/>
<stop offset="1" stop-color="#E83F3B"/>
</linearGradient>
<linearGradient id="paint7_linear_4_5520" x1="9.79796" y1="8.19185" x2="14.3509" y2="16.091" gradientUnits="userSpaceOnUse">
<stop stop-color="#F7EC68"/>
<stop offset="0.4551" stop-color="#FFD808"/>
<stop offset="1" stop-color="#F6A119"/>
</linearGradient>
<clipPath id="clip0_4_5520">
<rect width="22.039" height="22.082" fill="white" transform="translate(0.96106 1.45898)"/>
</clipPath>
</defs>
</svg>
