<svg width="24" height="24" viewBox="0 0 24 24" fill="none" xmlns="http://www.w3.org/2000/svg">
<path d="M17.4647 3.76002C17.4647 3.86982 17.3424 3.94583 17.2463 3.88671C16.8532 3.67556 16.4513 3.48976 16.032 3.33773C16.0057 3.32929 15.9883 3.30395 15.9883 3.27861C15.9883 3.27017 15.9883 3.27017 15.9883 3.26172C16.2154 2.47627 16.3902 1.99486 16.5125 1.69925C16.5561 1.58946 16.7046 1.56412 16.7833 1.65703C17.3249 2.32424 17.4472 3.18571 17.4647 3.76002Z" fill="#ED3836"/>
<path d="M20.565 14.765C20.5388 14.6805 20.4165 14.6552 20.3641 14.7227C20.2593 15.5505 19.936 15.8545 19.8399 15.9896C19.7963 15.9305 19.7526 15.8629 19.7001 15.7954C19.6914 15.7785 19.674 15.7616 19.6652 15.7447C19.6565 15.7363 19.6565 15.7278 19.6477 15.7194C19.6215 15.6771 19.5866 15.6434 19.5604 15.6011C19.5429 15.5758 19.5167 15.5505 19.4992 15.5251C19.4818 15.4998 19.4643 15.4829 19.4468 15.4575C19.4031 15.3984 19.3507 15.3478 19.2983 15.2886C19.2808 15.2633 19.2546 15.238 19.2284 15.2126C19.0799 15.0522 18.9226 14.8832 18.7392 14.7059C18.713 14.6805 18.678 14.6552 18.6518 14.6214C18.6169 14.5876 18.582 14.5623 18.547 14.5285C18.5121 14.4947 18.4858 14.4694 18.4509 14.4441C18.416 14.4187 18.381 14.3849 18.3548 14.3596C18.3198 14.3343 18.2937 14.3005 18.2587 14.2751C18.2412 14.2583 18.2238 14.2414 18.1975 14.2245C18.1626 14.1907 18.1189 14.1569 18.084 14.1315C18.049 14.1062 18.0228 14.0809 17.9879 14.0556C17.9355 14.0133 17.8918 13.9795 17.8394 13.9373C17.7957 13.9035 17.752 13.8697 17.7083 13.8444C17.6734 13.8191 17.6472 13.7937 17.6122 13.7768C17.4637 13.6671 17.3065 13.5657 17.1492 13.4644C17.0618 13.4052 16.9658 13.3461 16.8697 13.287C16.8522 13.2785 16.8435 13.2701 16.826 13.2617C16.7823 13.2363 16.7299 13.2025 16.6862 13.1772C16.5202 13.0758 16.3455 12.9829 16.162 12.8816C16.1184 12.8563 16.0747 12.8309 16.0223 12.8056C16.0048 12.7971 15.9961 12.7887 15.9786 12.7802C15.9262 12.7549 15.8738 12.7296 15.8213 12.7042C15.7689 12.6789 15.7252 12.6535 15.6728 12.6282C15.6291 12.6029 15.5855 12.586 15.5418 12.5607C15.4981 12.5353 15.4457 12.5184 15.402 12.4931C15.3496 12.4678 15.2972 12.4508 15.2447 12.4255C15.1923 12.4002 15.1312 12.3749 15.0787 12.3495C14.9302 12.2819 14.773 12.2228 14.6158 12.1552C14.3362 12.0454 14.0392 11.9357 13.7247 11.8259C13.349 11.7161 13.1568 11.7921 12.9384 12.1046C11.3659 14.3258 9.25179 15.7954 6.54359 16.3697C5.4079 16.6062 4.22852 16.6315 3.04915 16.7497C3.00547 16.7582 2.97052 16.8004 2.98799 16.8427C2.99673 16.8511 2.99673 16.8595 2.99673 16.8595C3.04915 16.9609 3.10156 17.0622 3.15398 17.1636C3.17145 17.2058 3.19766 17.2396 3.21513 17.2818C3.24134 17.3241 3.26755 17.3663 3.28502 17.4085C3.31123 17.4507 3.33744 17.5014 3.36365 17.5436C3.46848 17.721 3.58205 17.8984 3.69562 18.0673C3.72183 18.1095 3.74803 18.1517 3.77424 18.1855C3.80919 18.2278 3.8354 18.2784 3.87034 18.3207C3.91402 18.3882 3.96644 18.4558 4.01885 18.5234C4.04506 18.5571 4.07127 18.5994 4.10621 18.6331C4.13242 18.667 4.15863 18.7007 4.18484 18.7345C4.19358 18.7429 4.19358 18.7514 4.20231 18.7599C4.22852 18.7936 4.25473 18.8274 4.28094 18.8528C4.39451 18.9963 4.50808 19.1314 4.63038 19.2666C4.64785 19.2919 4.66532 19.3088 4.69153 19.3341C4.709 19.3595 4.73522 19.3764 4.75269 19.4017C4.81384 19.4693 4.87499 19.5284 4.93614 19.596C4.95362 19.6213 4.97982 19.6382 4.9973 19.6635C5.03224 19.6973 5.05845 19.7226 5.09339 19.7565C5.25938 19.9253 5.43411 20.0774 5.61757 20.2294C5.64378 20.2463 5.66125 20.2716 5.68744 20.2885C5.99323 20.5419 6.31645 20.7699 6.64843 20.9811C6.68336 21.0064 6.72704 21.0233 6.76198 21.0487C6.79695 21.074 6.84063 21.0909 6.87556 21.1162C6.9105 21.1416 6.95418 21.1584 6.98912 21.1838C7.02408 21.2091 7.06777 21.226 7.1027 21.2513C7.13764 21.2767 7.18132 21.2936 7.21626 21.3104C7.74044 21.5892 8.29955 21.8172 8.8936 21.9946C9.02465 22.0368 9.15567 22.0706 9.28672 22.1044C9.33041 22.1128 9.37409 22.1297 9.41778 22.1382C9.47893 22.155 9.54008 22.1719 9.60123 22.1804C9.63617 22.1888 9.67985 22.1973 9.71479 22.2057C9.92446 22.2564 10.1429 22.2902 10.3613 22.324C10.405 22.3324 10.4574 22.3408 10.5098 22.3493C10.5535 22.3577 10.5884 22.3577 10.6321 22.3662C10.7893 22.3831 10.9466 22.4084 11.1038 22.4169C12.7287 22.5604 14.1003 22.3408 15.2447 21.927C18.7654 20.6517 20.137 17.493 20.3292 17.02C20.3379 16.944 20.8097 16.1079 20.565 14.765Z" fill="#ED3836"/>
<path d="M21.9995 11.7159C21.982 11.4794 21.9296 11.1669 21.8335 10.7953V10.7868C20.0688 5.33929 16.6792 4.03021 15.9715 3.81062C15.9017 3.78528 15.823 3.82751 15.8056 3.90352L15.0892 6.59772C15.0892 6.60616 15.0892 6.6146 15.0892 6.62305C14.9756 7.51833 15.0892 8.23621 15.4386 8.81897C15.5435 8.99633 15.6745 9.16523 15.8318 9.32571C16.3647 9.8747 17.1771 10.2885 18.2866 10.5841C18.4177 10.6179 18.5662 10.6517 18.706 10.6855H18.7147C18.7671 10.7024 19.4485 10.8882 20.2522 11.1838C20.7589 11.3696 21.318 11.5976 21.7898 11.8594C21.8859 11.9017 22.0082 11.8341 21.9995 11.7159ZM19.5359 8.67537C19.5184 8.67537 19.5009 8.68382 19.4835 8.68382C19.4835 8.68382 19.2126 8.70073 19.1165 8.67537C19.0641 8.65849 19.0117 8.6416 18.968 8.61627C18.9243 8.59091 18.8894 8.56558 18.8545 8.53181C18.7933 8.46423 18.7409 8.37977 18.7234 8.26998C18.706 8.16019 18.6972 8.03351 18.7584 7.86459C18.9418 7.82237 19.0729 7.83926 19.1777 7.86459C19.2913 7.89836 19.3786 7.94905 19.4398 8.01662C19.5009 8.08417 19.5534 8.16863 19.5708 8.27842C19.5883 8.37133 19.597 8.49804 19.5359 8.67537Z" fill="#ED3836"/>
<path d="M19.5351 8.67539C19.5176 8.67539 19.5002 8.68383 19.4827 8.68383C19.4827 8.68383 19.2119 8.70072 19.1158 8.67539C19.0633 8.6585 19.0109 8.64162 18.9673 8.61626C18.9236 8.59093 18.8886 8.5656 18.8537 8.5318C18.7925 8.46425 18.7401 8.37979 18.7226 8.27C18.7052 8.1602 18.6964 8.0335 18.7576 7.8646C18.941 7.82236 19.0721 7.83924 19.1769 7.8646C19.2905 7.89838 19.3779 7.94907 19.439 8.01661C19.5002 8.08419 19.5526 8.16865 19.5701 8.27844C19.5875 8.37135 19.5962 8.49802 19.5351 8.67539Z" fill="white"/>
<path d="M15.2202 3.58265C14.8795 3.49819 13.901 3.25326 13.0274 3.17725C12.1451 3.10124 11.2802 3.12657 10.4503 3.25326C6.21325 3.90358 2.91101 7.07921 2.15971 10.9811C1.88015 12.4254 1.95878 13.9794 2.46547 15.5334C2.52663 15.7277 2.64893 16.15 2.7625 16.2344C2.84986 16.4962 13.0274 16.8003 14.7921 6.4542C15.0891 5.07754 15.4124 4.08939 15.5434 3.74311C15.5696 3.68399 15.2901 3.59954 15.2202 3.58265ZM5.64542 13.5402H5.6192L5.57552 13.5318L5.54058 13.574L5.38334 13.7513L5.33091 13.5233L5.32219 13.4727L5.26976 13.4557H5.26101L5.04262 13.3713L5.25229 13.253L5.30469 13.2193V13.1601V13.1517L5.32219 12.9237L5.4969 13.0757H5.50565L5.54933 13.1179L5.61048 13.101L5.84634 13.0503L5.75025 13.2615V13.27L5.72404 13.3206L5.75897 13.3713L5.88128 13.5656L5.64542 13.5402ZM7.83819 12.8561H7.6722H7.61105L7.57608 12.9068L7.48 13.0419L7.34894 13.2362L7.27033 13.0166L7.21792 12.8645L7.20042 12.8054L7.13927 12.7885L6.96457 12.7379L6.74618 12.6788L6.93835 12.5352L7.0694 12.4338L7.11309 12.4V12.3493L7.10434 12.172L7.09562 11.944L7.29654 12.0791L7.43631 12.172L7.48 12.2058L7.5324 12.1889L7.68967 12.1298L7.91681 12.0453L7.84691 12.2649L7.7945 12.4169L7.77704 12.4761L7.81197 12.5183L7.91681 12.6534L8.06533 12.8308L7.83819 12.8561ZM10.1794 11.5048L9.88244 11.5723L9.83 11.5808L9.81254 11.6315L9.69895 11.9017L9.61161 12.1213L9.48931 11.9271L9.33204 11.6737L9.29711 11.623H9.25342H9.24468C9.24468 11.623 9.24467 11.623 9.23596 11.623L8.93892 11.6061L8.70306 11.5977L8.8603 11.4203L9.06122 11.1923L9.09619 11.1501L9.07869 11.0909L9.00007 10.8038L8.93892 10.5842L9.14859 10.6686H9.15734L9.48931 10.8038L9.54171 10.77L9.81254 10.6011L9.99599 10.4828L9.97852 10.7024L9.95231 11.0065L9.94359 11.0656L9.98724 11.0994L10.2231 11.2852L10.4066 11.4288L10.1794 11.5048ZM12.0577 9.32575L11.7345 9.49468L11.6821 9.52001L11.6384 9.92543L11.6122 10.1535L11.4462 10.0014L11.1754 9.75651L11.1317 9.72273L11.0793 9.73118L10.7211 9.80717L10.4852 9.85786L10.59 9.64672L10.7473 9.32575L10.7735 9.27509L10.7386 9.22441L10.5464 8.91192L10.4328 8.72611L10.6512 8.75147L11.0356 8.79368L11.0793 8.80213L11.1229 8.75991L11.3676 8.49808L11.5248 8.32916L11.5685 8.54877L11.6384 8.89503L11.6471 8.95416L11.7083 8.97949L12.0577 9.1315L12.2586 9.21596L12.0577 9.32575ZM13.3419 6.2515L13.0362 6.61468L12.9925 6.6569L13.0099 6.70758L13.1497 7.15519L13.2196 7.37481L12.9925 7.29035L12.5469 7.12142L12.4945 7.10453L12.4421 7.13831L12.049 7.40014L11.848 7.52681L11.8655 7.29879V7.29035L11.8917 6.81738V6.76669L11.848 6.73291L11.4637 6.44576L11.2715 6.30219L11.4986 6.24306L11.9703 6.12482L12.0315 6.10794L12.049 6.04881L12.2149 5.60964L12.2936 5.39003L12.4246 5.58428L12.6867 5.98123L12.7217 6.03192H12.7828L13.4992 6.04881L13.3419 6.2515ZM5.24354 13.2446L5.29598 13.2108V13.1517C5.29598 13.1939 5.26976 13.2277 5.24354 13.2446ZM5.31344 13.4727L5.26101 13.4557C5.29598 13.4727 5.31344 13.498 5.32219 13.5318L5.31344 13.4727ZM5.4969 13.0757L5.54058 13.1179L5.60173 13.101C5.5668 13.1095 5.52312 13.101 5.4969 13.0757ZM5.57552 13.5402L5.54058 13.5824C5.55805 13.5571 5.59299 13.5402 5.62795 13.5402H5.57552ZM5.73279 13.3122C5.73279 13.2953 5.73279 13.2868 5.7415 13.27L5.71529 13.3206L5.75025 13.3713C5.73279 13.3459 5.73279 13.3291 5.73279 13.3122ZM7.80322 12.4423L7.78576 12.5014L7.82069 12.5436C7.80322 12.5098 7.7945 12.476 7.80322 12.4423ZM7.61105 12.8561L7.57608 12.9068C7.59355 12.873 7.63724 12.8561 7.6722 12.8561H7.61105ZM7.43631 12.1889L7.48 12.2227L7.5324 12.2058C7.50621 12.2142 7.46253 12.2058 7.43631 12.1889ZM7.20042 12.8054L7.13927 12.7885C7.17424 12.797 7.20917 12.8223 7.21792 12.8645L7.20042 12.8054ZM7.11309 12.3662C7.11309 12.4 7.09562 12.4338 7.0694 12.4507L7.11309 12.4169V12.3662ZM9.08744 11.1585L9.06997 11.0994C9.07869 11.1332 9.06997 11.1754 9.04375 11.2007L9.08744 11.1585ZM9.29711 11.6315H9.25342C9.28836 11.6399 9.31458 11.6568 9.33204 11.6821L9.29711 11.6315ZM9.42816 10.7953L9.14859 10.6855L9.48056 10.8207L9.53297 10.7869C9.50678 10.8038 9.4631 10.8122 9.42816 10.7953ZM9.83 11.5892L9.81254 11.6399C9.82129 11.6061 9.85622 11.5808 9.89116 11.5723L9.83 11.5892ZM9.95231 11.0234L9.94359 11.0825L9.98724 11.1163C9.96106 11.0994 9.95231 11.0571 9.95231 11.0234ZM10.7648 9.28354L10.7298 9.23288C10.7473 9.26665 10.7473 9.30887 10.7386 9.34267L10.7648 9.28354ZM11.0356 8.80213L11.0793 8.81057L11.1229 8.76835C11.1055 8.78524 11.0705 8.80213 11.0356 8.80213ZM11.1317 9.72273L11.0793 9.73118C11.1142 9.72273 11.1492 9.73118 11.1754 9.75651L11.1317 9.72273ZM11.6384 8.89503L11.6471 8.95416L11.7083 8.97949C11.6733 8.96261 11.6471 8.93728 11.6384 8.89503ZM11.6821 9.52848L11.6384 9.93387L11.6733 9.58758C11.6733 9.55381 11.6995 9.52001 11.7345 9.49468L11.6821 9.52848ZM11.8393 6.7498C11.8655 6.77516 11.883 6.80049 11.883 6.84271V6.79205L11.8393 6.7498ZM11.9616 6.14171L12.0228 6.12482L12.0402 6.06569C12.0315 6.10794 11.9966 6.13327 11.9616 6.14171ZM12.4858 7.11298L12.4334 7.14675C12.4683 7.12142 12.5033 7.12142 12.5382 7.12986L12.4858 7.11298ZM12.678 5.99815L12.7129 6.04881H12.7741C12.7304 6.04881 12.6954 6.03192 12.678 5.99815ZM13.0362 6.61468L12.9925 6.6569L13.0099 6.70758C13.0012 6.67378 13.0099 6.64001 13.0362 6.61468Z" fill="#233D7B"/>
<path d="M5.87186 13.5656L5.64472 13.5403H5.61854H5.57485L5.53117 13.5825L5.3739 13.7599L5.3215 13.5319V13.5234L5.31275 13.4727L5.26035 13.4558L5.2516 13.4474L5.0332 13.3629L5.24288 13.2447L5.29528 13.2109V13.1602L5.30403 13.1518L5.3215 12.9238L5.4962 13.0758L5.53989 13.118L5.60104 13.1011H5.60979L5.83693 13.0504L5.74084 13.2616V13.27L5.71462 13.3207L5.74956 13.3629V13.3714L5.87186 13.5656Z" fill="white"/>
<path d="M8.07399 12.8477L7.8381 12.8561H7.67212H7.61097L7.57603 12.9068L7.47994 13.0419L7.34889 13.2362L7.27027 13.0166L7.21784 12.8646L7.20037 12.8054L7.13922 12.7885L6.96451 12.7463L6.74609 12.6872L6.9383 12.5436L7.06935 12.4507L7.12175 12.4169L7.113 12.3663V12.1889L7.09554 11.9609L7.29649 12.096L7.43626 12.1889L7.47994 12.2227L7.53235 12.1973L7.69833 12.1467L7.92547 12.0622L7.85557 12.2818L7.80317 12.4423L7.7857 12.4929L7.82064 12.5436L7.93422 12.6703L8.07399 12.8477Z" fill="white"/>
<path d="M10.4166 11.454L10.1807 11.5047L9.88366 11.5722L9.83123 11.5807L9.81376 11.6314L9.70021 11.9016L9.61284 12.1212L9.49054 11.927L9.3333 11.6736L9.29833 11.6229H9.25465H9.24593C9.24593 11.6229 9.24593 11.6229 9.23718 11.6229L8.94017 11.606L8.70428 11.5976L8.86152 11.4202L9.06248 11.1922L9.09741 11.1499L9.07994 11.0908L9.00132 10.8037L8.94017 10.5841L9.14981 10.6685H9.15856L9.49054 10.8037L9.54294 10.7699L9.81376 10.601L9.99722 10.4827L9.97975 10.7023L9.95353 11.0064L9.94481 11.0655L9.9885 11.0993L10.2244 11.2851L10.4166 11.454Z" fill="white"/>
<path d="M12.2584 9.21597L12.0575 9.32576L11.7342 9.49468L11.6818 9.52846L11.6381 9.93385L11.6207 10.1619L11.4459 10.0099L11.1751 9.76493L11.1315 9.72271L11.079 9.7396L10.7121 9.81561L10.485 9.86627L10.5811 9.65513L10.7383 9.3342L10.7645 9.28354L10.7296 9.23285L10.5374 8.91192L10.4238 8.72611L10.651 8.75989L11.0353 8.80213L11.0878 8.81057L11.1227 8.75989L11.3673 8.49809L11.5246 8.32916L11.5683 8.54875L11.6381 8.89504L11.6556 8.95414L11.708 8.97947L12.0575 9.13151L12.2584 9.21597Z" fill="white"/>
<path d="M13.0362 6.61476L13.0012 6.65701L13.01 6.70766L13.1497 7.16375L13.2196 7.38333L12.9925 7.29887L12.5469 7.12998L12.4858 7.11309L12.4334 7.14686L12.0403 7.40022L11.8393 7.53537L11.8568 7.30731L11.883 6.83437V6.78368L11.8393 6.74991L11.4549 6.46275L11.2715 6.31916L11.4899 6.26006L11.9617 6.14182L12.0228 6.1249L12.0403 6.0658L12.2063 5.63505L12.2849 5.41547L12.4159 5.60972L12.678 5.99823L12.7129 6.04892H12.7741L13.4905 6.07425L13.342 6.25161L13.0362 6.61476Z" fill="white"/>
</svg>
