<svg width="24" height="24" viewBox="0 0 24 24" fill="none" xmlns="http://www.w3.org/2000/svg">
<path d="M19.7954 14.1013L18.9654 12.2577C16.6721 12.1288 14.3564 12.0632 12.0184 12.0616C9.68026 12.0596 7.35286 12.1258 5.03565 12.2602L4.20469 14.1013C6.7658 13.9389 9.37018 13.8569 12.0184 13.8539C14.6507 13.8539 17.2429 13.9364 19.7954 14.1013ZM16.053 5.78972L15.722 5.05754C14.4934 5.01935 13.2592 5 12.0189 5C10.7785 5 9.5326 5.01986 8.28006 5.05906L7.94961 5.78972C9.29686 5.74491 10.6523 5.71691 12.0189 5.71691C13.3855 5.71691 14.7174 5.74491 16.053 5.78972ZM18.2872 10.7521L16.6406 7.10031C15.109 7.0443 13.5683 7.01528 12.0189 7.01375C10.4695 7.01172 8.91702 7.04074 7.36203 7.10031L5.71539 10.7551C7.79635 10.6456 9.89768 10.5912 12.0189 10.5912C14.14 10.5912 16.2297 10.6446 18.2872 10.7521ZM21.4975 17.8824C19.6543 17.7373 17.7918 17.636 15.9094 17.5769L16.389 18.6665C18.2826 18.7337 20.1533 18.8447 22.0006 18.9995L21.4975 17.8824ZM20.3952 15.4318C17.638 15.2449 14.8463 15.1518 12.0189 15.1518C9.19146 15.1518 6.38749 15.246 3.60744 15.4349L3.10591 16.555C6.02496 16.3356 8.99594 16.2241 12.0189 16.2215C15.0306 16.2215 17.9899 16.33 20.8967 16.5464L20.3952 15.4318ZM2 19.0026C3.84471 18.8483 5.71335 18.7368 7.60592 18.6675L8.09116 17.5779C6.21641 17.637 4.35388 17.7383 2.50458 17.8824L2 19.0021V19.0026Z" fill="url(#paint0_linear_4_5503)"/>
<defs>
<linearGradient id="paint0_linear_4_5503" x1="5.06809" y1="16.9306" x2="15.4132" y2="6.62955" gradientUnits="userSpaceOnUse">
<stop stop-color="#F507EC"/>
<stop offset="0.09" stop-color="#EE0CEC"/>
<stop offset="0.22" stop-color="#DA19ED"/>
<stop offset="0.38" stop-color="#B92FEF"/>
<stop offset="0.57" stop-color="#8B4DF1"/>
<stop offset="0.77" stop-color="#5173F4"/>
<stop offset="0.98" stop-color="#0AA2F8"/>
<stop offset="1" stop-color="#02A7F8"/>
</linearGradient>
</defs>
</svg>
