<svg width="24" height="24" viewBox="0 0 24 24" fill="none" xmlns="http://www.w3.org/2000/svg">
<path d="M18.2139 8.18164C18.5069 8.08167 18.8392 8.13602 19.0732 8.34961C19.9098 9.11334 20.4634 10.0111 20.8535 11.0713C20.9143 11.2367 20.921 11.4145 20.8682 11.5791C20.699 12.1059 20.2453 13.3017 19.5146 13.6816C11.1765 18.0157 7.21129 18.7394 5.99805 18.8574C5.71859 18.8846 5.43771 18.8988 5.16016 18.9385L2.76758 19.2803L1.76953 17.8545C1.7579 17.8389 1.0664 16.9067 1.00586 16.4131C0.945031 15.9152 1.40432 14.8677 2.62695 15.2607L6.43359 16.2852L8.16699 14.8809L1 13.2432L4.28516 10.8975C4.47751 10.7601 4.71609 10.6976 4.95605 10.7217L10.5566 11.2832L10.5576 10.3516C10.5578 10.1869 10.6478 10.0378 10.793 9.96289L11.7871 9.4502C12.8364 8.90855 14.0756 8.81889 15.2217 9.20215L18.2139 8.18164ZM18.5635 5.31445C19.2619 5.61809 19.8199 6.1832 20.1143 6.88477L20.7021 8.28711L21.4834 8.70801L21.4941 9.49023L22.7725 11.5381C22.9363 11.8005 23.0149 12.1056 22.9971 12.4092L22.9434 13.3223L22.0928 12.7168C21.8359 12.5341 21.641 12.2764 21.5381 11.9805L20.9912 10.4043L20.6396 9.69824C20.4015 9.22013 20.0973 8.77613 19.7373 8.37891L18.6172 7.38281C18.3685 7.16171 18.199 6.86513 18.1367 6.54199L17.8389 5L18.5635 5.31445ZM14.3438 9.62598C13.7677 9.35916 13.107 9.37388 12.5615 9.66602L11.5371 10.2148V11.8809L15.334 10.085L14.3438 9.62598Z" fill="url(#paint0_linear_4_5786)"/>
<defs>
<linearGradient id="paint0_linear_4_5786" x1="12.1145" y1="5.14754" x2="12.1145" y2="19.2894" gradientUnits="userSpaceOnUse">
<stop stop-color="#FF809E"/>
<stop offset="1" stop-color="#F33763"/>
</linearGradient>
</defs>
</svg>
