<svg width="24" height="24" viewBox="0 0 24 24" fill="none" xmlns="http://www.w3.org/2000/svg">
<path fill-rule="evenodd" clip-rule="evenodd" d="M13.1016 9.73019C13.1371 9.74605 13.1714 9.76254 13.2044 9.7803C13.3845 9.87228 13.5514 9.98836 13.7004 10.126C13.9357 10.3347 14.1222 10.5929 14.2453 10.8827C14.348 11.125 14.4045 11.3845 14.4134 11.6477V11.675L18.9348 6.49774L18.9969 6.42606L21.805 3.20439C22.0118 2.96716 22.0429 2.75467 21.9477 2.57643C21.9427 2.57516 21.9382 2.57262 21.9344 2.56881C21.9306 2.56564 21.9281 2.5612 21.9262 2.55613C21.9173 2.53583 21.9059 2.51617 21.8932 2.49777C21.8672 2.46479 21.8374 2.43497 21.805 2.4077C21.7473 2.37091 21.6788 2.35251 21.6103 2.35632H18.8593C18.6284 2.35632 18.3988 2.37471 18.171 2.41214C17.4168 2.6868 16.7419 3.1435 16.2066 3.74229C15.0807 5.03311 14.1013 7.13966 13.4175 8.87324L13.1016 9.72956V9.73019ZM15.5069 5.48538C15.3731 5.80063 15.264 6.1254 15.1796 6.45714C15.1238 6.68106 15.08 6.90814 15.0401 7.13776C15.023 7.24813 15.0058 7.35787 14.99 7.46633C14.9506 7.79618 14.9164 8.12602 14.8993 8.46538C14.8872 8.70832 14.8694 8.94555 14.8523 9.18215C14.8453 9.27666 14.8384 9.37054 14.832 9.46505C14.8136 9.69784 14.7864 9.93064 14.754 10.1615C14.7489 10.1983 14.7432 10.2357 14.7369 10.2725C14.7343 10.2909 14.7312 10.3093 14.728 10.3284C14.6741 10.6931 14.5973 11.0546 14.499 11.4105C14.6976 11.0749 14.8542 10.7165 14.9659 10.3429L16.3157 8.50851L17.028 7.54816L15.1225 9.74478C15.1384 9.66613 15.1524 9.58747 15.1669 9.50945C15.1936 9.36673 15.2151 9.22401 15.2335 9.08129L17.0153 6.64046L15.2951 8.60175C15.2963 8.5897 15.2982 8.57701 15.3002 8.56433C15.3033 8.54467 15.3065 8.52437 15.3065 8.5047L15.3591 7.97632L15.3693 7.9852L16.6335 6.21928L16.9012 5.84377L16.5751 6.21801L15.4188 7.51137C15.4448 7.30205 15.4759 7.09336 15.5126 6.88594L16.8815 4.95192L15.6198 6.34931C15.6763 6.09812 15.7404 5.84947 15.819 5.6059C16.0302 4.9773 16.2859 4.36518 16.5834 3.77337C16.1381 4.28463 15.7753 4.86248 15.5069 5.48601V5.48538Z" fill="white"/>
<path fill-rule="evenodd" clip-rule="evenodd" d="M8.18465 8.06836L9.91252 11.5482C9.88461 11.6846 9.87002 11.826 9.87002 11.9706C9.87002 13.1333 10.8101 14.0753 11.9696 14.0753C13.1291 14.0753 14.0692 13.1333 14.0692 11.9706C14.0692 10.9621 13.3606 10.1191 12.4161 9.91358L11.2998 7.76453C11.2046 7.55013 11.0448 7.44357 10.8189 7.44357H8.61155C8.48088 7.44357 8.36797 7.49685 8.27346 7.60405C8.19036 7.69919 8.1485 7.80639 8.1485 7.92501C8.1485 7.94911 8.16055 7.99669 8.18402 8.06773L8.18465 8.06836ZM11.9696 12.7737C12.4117 12.7737 12.7701 12.4147 12.7701 11.9713C12.7701 11.5279 12.4117 11.1689 11.9696 11.1689C11.5275 11.1689 11.1691 11.5279 11.1691 11.9713C11.1691 12.4147 11.5275 12.7737 11.9696 12.7737Z" fill="white"/>
<path fill-rule="evenodd" clip-rule="evenodd" d="M10.7949 14.2154C10.8279 14.2332 10.8621 14.2503 10.8977 14.2661L10.5818 15.1225C9.89798 16.856 8.91861 18.962 7.79334 20.2534C7.25734 20.8522 6.58243 21.3089 5.82824 21.5836C5.60115 21.621 5.3709 21.6394 5.14065 21.6394H2.38964C2.32113 21.6426 2.25262 21.6248 2.19427 21.588C2.16192 21.5607 2.13274 21.5309 2.1061 21.4979C2.09341 21.4795 2.08263 21.4599 2.07311 21.4396C2.07121 21.4351 2.06867 21.4307 2.06486 21.4269C2.06106 21.4237 2.05662 21.4205 2.05155 21.4193C1.9564 21.241 1.98748 21.0279 2.19363 20.7913L5.00173 17.5696L5.06453 17.4986L9.58527 12.3213V12.3486C9.59415 12.6119 9.65124 12.8713 9.75336 13.1136C9.87705 13.4035 10.0629 13.6616 10.2982 13.8703C10.4473 14.0073 10.6141 14.1241 10.7943 14.216L10.7949 14.2154ZM8.81965 17.5379C8.73529 17.8697 8.62619 18.1951 8.49235 18.5097C8.22467 19.1332 7.86121 19.7111 7.41592 20.2223C7.71405 19.6305 7.96968 19.0178 8.18027 18.3898C8.25892 18.1456 8.32235 17.8976 8.37944 17.6464L7.11779 19.0438L8.48601 17.1098C8.5228 16.9023 8.55451 16.6937 8.57988 16.4843L7.42353 17.7777L7.0975 18.1519L7.36518 17.7764L8.62936 16.0105L8.63951 16.0187L8.69216 15.4904C8.69216 15.4701 8.69533 15.4504 8.6985 15.4307C8.7004 15.4181 8.70231 15.4054 8.70357 15.3933L6.98332 17.3546L8.76447 14.9138C8.78286 14.7711 8.80443 14.6283 8.83171 14.4856C8.84566 14.407 8.86025 14.3283 8.87611 14.2503L6.97063 16.4469L7.68233 15.4866L9.03215 13.6521C9.14379 13.2785 9.30046 12.9201 9.499 12.5846C9.40068 12.9404 9.32393 13.3014 9.27001 13.6667C9.26684 13.6851 9.2643 13.7035 9.26113 13.7225C9.25479 13.76 9.24908 13.7968 9.24464 13.8342C9.21166 14.0657 9.18502 14.2979 9.16662 14.5306C9.16028 14.6245 9.1533 14.719 9.14632 14.8136C9.1292 15.0495 9.11207 15.2874 9.09938 15.5303C9.08226 15.8703 9.048 16.1995 9.00804 16.5294C8.99219 16.6378 8.97506 16.7476 8.95857 16.8573C8.91861 17.0876 8.8742 17.3146 8.81902 17.5386L8.81965 17.5379Z" fill="white"/>
<path d="M11.9676 14.4843C12.8728 14.4843 13.667 14.0029 14.1072 13.2817L15.5033 16.0929C15.5268 16.164 15.5388 16.2122 15.5388 16.2357C15.5388 16.3549 15.497 16.4615 15.4139 16.5566C15.3193 16.6638 15.2064 16.7171 15.0758 16.7171H12.8684C12.6432 16.7171 12.4827 16.6099 12.3882 16.3961L11.3555 14.4088C11.5515 14.4583 11.7564 14.4843 11.9676 14.4843Z" fill="white"/>
</svg>
