<svg width="24" height="24" viewBox="0 0 24 24" fill="none" xmlns="http://www.w3.org/2000/svg">
<path d="M17.1914 3C19.2948 3.00009 20.9999 4.7052 21 6.80859V17.1914C20.9999 19.2948 19.2948 20.9999 17.1914 21H6.80859C4.7052 20.9999 3.00009 19.2948 3 17.1914V6.80859C3.00009 4.7052 4.7052 3.00009 6.80859 3H17.1914ZM11.2773 6.67676C9.2979 6.67678 8.18365 6.94102 8.17383 6.94336V17.1309C8.18131 17.1327 8.93004 17.3154 10.8125 17.3154C11.8892 17.3154 13.4171 17.2763 14.2598 16.9102C15.3283 16.4448 16.2294 15.6105 16.2295 14.1455C16.2295 12.2027 14.6043 11.7334 14.4561 11.6777V11.6748C14.6308 11.5694 15.7881 10.9057 15.7744 9.53809C15.7634 8.55776 15.3455 7.79714 14.4727 7.26562C13.7043 6.79745 12.6075 6.67676 11.2773 6.67676ZM11.6689 12.5869C12.1351 12.5869 14.4258 12.5873 14.4258 14.1182C14.4254 15.7479 12.1595 15.8056 11.1816 15.8057V15.8027C10.5771 15.8027 9.90757 15.7626 9.89258 15.7617V12.5869H11.6689ZM11.3604 8.14453C12.0848 8.14453 14.0175 8.15 14.0176 9.5791C14.0176 11.0084 12.0895 11.0859 11.6709 11.0859H9.89551V8.22656L9.89258 8.22461C10.5258 8.18055 10.8179 8.14453 11.3604 8.14453Z" fill="white"/>
</svg>
