<svg width="24" height="24" viewBox="0 0 24 24" fill="none" xmlns="http://www.w3.org/2000/svg">
<path d="M12 2C17.5228 2 22 6.47715 22 12C22 17.5228 17.5228 22 12 22C6.47715 22 2 17.5228 2 12C2 6.47715 6.47715 2 12 2ZM15.3008 3.5293C15.4013 3.5685 15.5009 3.60969 15.5996 3.65234C15.5983 4.27298 15.599 4.89391 15.5996 5.51465C15.5997 5.76857 15.6464 5.81538 15.8945 5.81543C16.3884 5.81543 16.8831 5.81433 17.377 5.81543C17.6137 5.81583 17.7207 5.92487 17.7207 6.16016C17.7207 6.62354 17.7218 7.0874 17.7207 7.55078C17.7206 7.76383 17.6126 7.8767 17.3984 7.87793C16.8984 7.88122 16.3975 7.87805 15.8975 7.87988C15.6525 7.88104 15.5996 7.93674 15.5996 8.18262C15.5996 9.00578 15.5989 9.82918 15.5996 10.6523C15.5996 10.8929 15.646 10.9394 15.8877 10.9395C16.5097 10.9398 17.1319 10.9388 17.7539 10.9385C18.0365 10.9385 18.1292 11.0257 18.1299 11.3047C18.1321 11.9023 18.132 12.5 18.1309 13.0977C18.1304 13.3529 18.0462 13.442 17.7959 13.4424C16.3691 13.4442 14.9424 13.4438 13.5156 13.4424C13.2635 13.4424 13.1729 13.3416 13.1729 13.0801C13.1729 9.78113 13.1736 6.48157 13.1729 3.18262C13.1729 3.11687 13.168 3.05099 13.1641 2.98535C12.7828 2.93661 12.3945 2.90918 12 2.90918C11.7244 2.90918 11.4519 2.92326 11.1826 2.94727L11.1768 3.37598C11.1741 3.53104 11.1732 3.68603 11.1787 3.84082C11.2043 4.56707 10.5946 5.31159 9.82812 5.41895C9.68441 5.43905 9.53837 5.4547 9.39355 5.45508C8.16031 5.4576 6.9266 5.45684 5.69336 5.45508C5.69611 5.45243 5.69842 5.44894 5.70117 5.44629C3.98057 7.10039 2.90918 9.42478 2.90918 12C2.90918 14.3118 3.77402 16.4202 5.19531 18.0244C5.19548 14.82 5.19531 11.6157 5.19531 8.41113C5.19531 8.19488 5.29607 8.08543 5.5166 8.08496C6.68807 8.08386 7.86125 8.05397 9.03125 8.0957C10.0352 8.13172 10.9059 8.904 11.1289 9.91016C11.1808 10.1447 11.2021 10.391 11.2021 10.6318C11.2021 11.4055 11.1993 12.1802 11.1719 12.9531C11.1495 13.5845 10.8053 14.0292 10.2764 14.3477C10.1746 14.409 10.0081 14.4055 10.001 14.5762C9.99421 14.7571 10.1679 14.746 10.2686 14.8057C10.8208 15.1326 11.1642 15.5975 11.1719 16.252C11.185 17.3678 11.1811 18.4847 11.1738 19.6006C11.17 20.1723 10.8568 20.674 10.3936 20.9463C9.63195 20.8106 8.90383 20.579 8.2207 20.2666C9.37199 20.7938 10.6509 21.0908 12 21.0908C13.032 21.0908 14.0227 20.9155 14.9473 20.5986C14.3791 20.7932 13.7857 20.9337 13.1729 21.0127C13.1732 21.0008 13.1748 20.9885 13.1748 20.9766C13.1755 19.4642 13.1741 17.9512 13.1748 16.4385C13.1749 16.1962 13.2768 16.0958 13.5176 16.0957C14.9325 16.0961 16.3477 16.0966 17.7627 16.0977C18.0608 16.0977 18.1304 16.1678 18.1309 16.46C18.1316 17.033 18.1315 17.6063 18.1318 18.1797C18.1318 18.5037 18.04 18.5962 17.7051 18.5977C17.077 18.6006 16.4483 18.6034 15.8203 18.5986C15.6833 18.5977 15.6034 18.6474 15.6035 18.7803C15.604 19.301 15.6074 19.8222 15.6104 20.3428C15.5264 20.3792 15.4417 20.4143 15.3564 20.4482C18.7154 19.1126 21.0908 15.8349 21.0908 12C21.0908 8.1439 18.6892 4.85064 15.3008 3.5293ZM7.53223 19.916C7.63484 19.9741 7.73871 20.0299 7.84375 20.084C7.7387 20.0299 7.63484 19.974 7.53223 19.916ZM7.22168 19.7334C7.31195 19.7893 7.40375 19.8427 7.49609 19.8955C7.40374 19.8428 7.31196 19.7892 7.22168 19.7334ZM6.29883 19.0791C6.5554 19.286 6.82412 19.4778 7.10254 19.6562C6.82409 19.4779 6.55544 19.2859 6.29883 19.0791ZM5.74902 18.5977C5.8196 18.6645 5.89117 18.7303 5.96387 18.7949C5.89117 18.7303 5.81961 18.6645 5.74902 18.5977ZM7.88184 15.6055C7.67908 15.6146 7.62185 15.671 7.62109 15.8711C7.61963 16.2912 7.62109 16.7117 7.62109 17.1318H7.62012C7.62012 17.4786 7.62158 17.8257 7.62012 18.1729C7.61718 18.7099 7.59855 18.6474 8.11523 18.6719C8.58844 18.6942 8.78529 18.3429 8.78027 17.9971C8.77259 17.4491 8.77929 16.9005 8.7793 16.3525C8.77918 15.8107 8.57156 15.6049 8.02734 15.6045C7.97884 15.6045 7.93034 15.6033 7.88184 15.6055ZM5.47461 18.3271C5.54434 18.399 5.61545 18.4695 5.6875 18.5391C5.61545 18.4695 5.54434 18.399 5.47461 18.3271ZM5.22168 18.0557C5.2802 18.1211 5.34003 18.1853 5.40039 18.249C5.34002 18.1853 5.2802 18.1211 5.22168 18.0557ZM7.85742 10.5791C7.68553 10.5693 7.61562 10.6451 7.61816 10.8174C7.62402 11.2317 7.62012 11.6468 7.62012 12.0615V13.0312C7.62045 13.5463 7.55309 13.5489 8.13867 13.5391C8.53088 13.5324 8.7626 13.33 8.77148 12.9375C8.78465 12.3465 8.78393 11.7541 8.77441 11.1631C8.76844 10.7932 8.53578 10.5839 8.16797 10.582C8.06453 10.5817 7.96049 10.5849 7.85742 10.5791ZM7.15234 4.31055C6.7546 4.56182 6.37827 4.84327 6.02539 5.15137C6.37822 4.8433 6.75475 4.56178 7.15234 4.31055ZM7.46094 4.12402C7.37169 4.17557 7.28359 4.22875 7.19629 4.2832C7.28356 4.22875 7.37172 4.17556 7.46094 4.12402ZM7.81152 3.93164C7.71889 3.97983 7.62686 4.02883 7.53613 4.08008C7.62684 4.02883 7.71892 3.97982 7.81152 3.93164ZM9.96777 3.13965C9.23461 3.30711 8.5356 3.56264 7.88184 3.89551C8.53542 3.56268 9.2347 3.30707 9.96777 3.13965ZM14.1318 3.16309C14.4216 3.23273 14.7062 3.31543 14.9844 3.41211C14.7061 3.31542 14.4217 3.23275 14.1318 3.16309ZM13.1846 2.98828C13.4797 3.02676 13.7702 3.0795 14.0557 3.14551C13.7701 3.07948 13.4797 3.0267 13.1846 2.98828ZM10.3545 3.05957C10.2477 3.07911 10.1416 3.10079 10.0361 3.12402C10.1416 3.1008 10.2477 3.0791 10.3545 3.05957ZM10.7676 2.99414C10.6559 3.00928 10.5449 3.02674 10.4346 3.0459C10.5449 3.02675 10.6559 3.00928 10.7676 2.99414ZM11.1787 2.94727C11.0602 2.95788 10.9424 2.9712 10.8252 2.98633C10.9424 2.97121 11.0602 2.95788 11.1787 2.94727ZM5.96094 5.20605C5.87279 5.28447 5.7862 5.36455 5.70117 5.44629C5.78619 5.36457 5.87281 5.28445 5.96094 5.20605ZM7.86816 20.0967C7.97603 20.1518 8.085 20.2049 8.19531 20.2559C8.085 20.205 7.97603 20.1518 7.86816 20.0967ZM15.0293 20.5713C15.1133 20.5416 15.1965 20.5106 15.2793 20.4785C15.1965 20.5105 15.1132 20.5416 15.0293 20.5713ZM15.3008 3.5293C15.2099 3.49387 15.1186 3.45932 15.0264 3.42676C15.1186 3.45932 15.2099 3.49386 15.3008 3.5293ZM6.06641 18.8838C6.1348 18.9428 6.20329 19.0016 6.27344 19.0586C6.20329 19.0016 6.13481 18.9428 6.06641 18.8838Z" fill="#0041FF"/>
</svg>
