<svg width="24" height="24" viewBox="0 0 24 24" fill="none" xmlns="http://www.w3.org/2000/svg">
<path d="M12.4787 7.50359L12.7781 6.20199C12.8339 5.9609 12.6512 5.73 12.4047 5.73H8.27191C8.18199 5.73 8.09426 5.76205 8.02542 5.82032L2.9393 10.1046C2.87551 10.1585 2.83059 10.2313 2.81171 10.3129L2.40427 12.0865L2.00995 13.8033C1.98309 13.9191 2.01141 14.04 2.08538 14.1325L5.30335 18.1305C5.37576 18.2209 5.48603 18.2733 5.60125 18.2733H9.86746C10.0458 18.2733 10.2009 18.1495 10.2408 17.9746L10.5663 16.5565C10.5931 16.4407 10.5648 16.3198 10.4909 16.2273L7.3947 12.38C7.26353 12.2169 7.28599 11.9772 7.44622 11.8425L12.3504 7.7119C12.4142 7.658 12.4591 7.58517 12.478 7.50359H12.4787Z" fill="#FD33C4"/>
<path d="M21.5961 11.9168L21.9904 10.2C22.0173 10.0842 21.9889 9.9633 21.9151 9.8708L18.697 5.87276C18.6246 5.78245 18.5143 5.73 18.3991 5.73H14.1329C13.9545 5.73 13.7994 5.85383 13.7595 6.02864L13.4341 7.44678C13.4072 7.56259 13.4355 7.6835 13.5094 7.776L16.6056 11.6233C16.7368 11.7864 16.7144 12.0261 16.5541 12.1608L11.65 16.2914C11.5862 16.3453 11.5412 16.4181 11.5224 16.4997L11.223 17.8013C11.1672 18.0424 11.3498 18.2733 11.5963 18.2733H15.7292C15.8191 18.2733 15.9068 18.2413 15.9757 18.1829L21.0618 13.8987C21.1256 13.8448 21.1705 13.772 21.1894 13.6904L21.5968 11.9168H21.5961Z" fill="#FD33C4"/>
</svg>
