<svg width="24" height="24" viewBox="0 0 24 24" fill="none" xmlns="http://www.w3.org/2000/svg">
<path d="M12 2C17.5228 2 22 6.47715 22 12C22 17.5228 17.5228 22 12 22C6.47715 22 2 17.5228 2 12C2 6.47715 6.47715 2 12 2ZM6 15.0781H8.06836V12.5928H15.0781C15.552 12.5928 15.8457 12.7497 15.8457 13.1445C15.8456 13.5392 15.5519 13.7041 15.0781 13.7041H8.79199L10.1455 15.0781H15.5186C17.0354 15.078 18 14.4302 18 13.4062C17.9999 12.4781 17.1972 11.9625 16.2324 11.9014C17.1461 11.8402 17.6543 11.2355 17.6543 10.5439C17.654 9.5802 16.6896 8.95023 15.1729 8.9502H6V15.0781ZM14.8281 10.3252C15.2588 10.3252 15.5693 10.4567 15.5693 10.833C15.5693 11.2175 15.2588 11.3486 14.8281 11.3486H8.06836V10.3252H14.8281Z" fill="#FF4100"/>
</svg>
