<svg width="24" height="24" viewBox="0 0 24 24" fill="none" xmlns="http://www.w3.org/2000/svg">
<path d="M16.8834 11.9985C16.8834 14.6954 14.6972 16.8816 12.0003 16.8816C9.30342 16.8816 7.11719 14.6954 7.11719 11.9985C7.11719 9.30159 9.30342 7.11536 12.0003 7.11536C14.6972 7.11536 16.8834 9.30159 16.8834 11.9985ZM12.0003 9.83071C10.8026 9.83071 9.83254 10.8018 9.83254 11.9985C9.83254 13.1962 10.8036 14.1663 12.0003 14.1663C13.197 14.1663 14.1681 13.1952 14.1681 11.9985C14.1681 10.8008 13.197 9.83071 12.0003 9.83071Z" fill="url(#paint0_linear_4_5447)"/>
<path d="M1.20751 7.5378L1.20658 7.53821C0.540202 7.8349 0.240513 8.61562 0.537202 9.28199L3.43509 15.7908C3.73178 16.4571 4.51249 16.7568 5.17887 16.4601L5.1798 16.4597C5.84618 16.163 6.14586 15.3823 5.84918 14.7159L2.95129 8.20717C2.6546 7.5408 1.87388 7.24111 1.20751 7.5378Z" fill="url(#paint1_linear_4_5447)"/>
<path d="M18.8207 7.53724L18.8197 7.53766C18.1534 7.83435 17.8537 8.61506 18.1504 9.28143L21.0482 15.7902C21.3449 16.4566 22.1257 16.7563 22.792 16.4596L22.793 16.4592C23.4593 16.1625 23.759 15.3817 23.4623 14.7154L20.5644 8.20661C20.2678 7.54024 19.487 7.24055 18.8207 7.53724Z" fill="url(#paint2_linear_4_5447)"/>
<defs>
<linearGradient id="paint0_linear_4_5447" x1="12.0003" y1="17.0354" x2="12.0003" y2="7.77369" gradientUnits="userSpaceOnUse">
<stop stop-color="#FF8C1A"/>
<stop offset="1" stop-color="#F7AD1C"/>
</linearGradient>
<linearGradient id="paint1_linear_4_5447" x1="3.1935" y1="17.0361" x2="3.1935" y2="7.77432" gradientUnits="userSpaceOnUse">
<stop stop-color="#FF8C1A"/>
<stop offset="1" stop-color="#F7AD1C"/>
</linearGradient>
<linearGradient id="paint2_linear_4_5447" x1="20.8058" y1="17.036" x2="20.8058" y2="7.77426" gradientUnits="userSpaceOnUse">
<stop stop-color="#FF8C1A"/>
<stop offset="1" stop-color="#F7AD1C"/>
</linearGradient>
</defs>
</svg>
