<svg width="24" height="24" viewBox="0 0 24 24" fill="none" xmlns="http://www.w3.org/2000/svg">
<path d="M13.3365 7.60859H10.4675C7.37232 7.60859 6.64218 8.10966 6.46179 10.7496H17.411V9.97652C17.411 8.79112 16.5234 7.60859 13.3365 7.60859Z" fill="#0078AE"/>
<path d="M13.791 4.34449H10.209C5.46457 4.34449 2 5.48121 2 10.3688V13.6272C2 18.5177 5.46457 19.6544 10.209 19.6544H13.791C18.5354 19.6544 22 18.5206 22 13.6272V10.3688C22 5.47835 18.5354 4.34449 13.791 4.34449ZM19.3686 12.3416H6.46099V13.0689C6.46099 15.7088 7.73515 16.3932 11.151 16.3932H13.8368C16.2963 16.3932 17.2985 16.0753 17.4102 14.2972H19.3686V14.5263C19.3686 17.1892 17.1611 17.988 13.519 17.988H9.96564C7.41446 17.988 4.50251 17.5098 4.50251 13.2292V10.7038C4.50251 6.49195 7.41732 6.01378 10.1947 6.01378H13.3357C16.8404 6.01378 19.3686 6.9014 19.3686 11.0446V12.3416Z" fill="#0078AE"/>
</svg>
