<svg width="24" height="24" viewBox="0 0 24 24" fill="none" xmlns="http://www.w3.org/2000/svg">
<path d="M19 10L17 11.7451L19 13.459V22H5V13.459L7 11.7451L5 10V2H19V10ZM9 20.1973H12C12.8286 20.1973 13.5428 19.9256 14.1143 19.4102C14.6856 18.8947 15 18.2706 15 17.5381V13.6318C14.9429 13.1977 14.8001 12.7902 14.543 12.4375H9V20.1973ZM12.0283 12.9531C12.2853 12.9531 12.5141 13.0344 12.6855 13.1699C12.8855 13.3327 12.9714 13.5232 13 13.7402V17.5381C13 17.7823 12.8853 17.9993 12.7139 18.1621C12.5139 18.3248 12.2854 18.4062 12.0283 18.4062H11.0283V12.9531H12.0283ZM9.0293 11.7861H14.3438C14.6579 11.325 14.8005 10.8366 14.8291 10.3213V6.41504C14.772 5.73677 14.4289 5.1663 13.8574 4.70508C13.2861 4.24408 12.6003 4 11.8291 4H9.0293V11.7861ZM11.8008 5.73633C12.0578 5.73634 12.2864 5.81757 12.4863 5.95312C12.6863 6.11591 12.7722 6.30639 12.8008 6.52344V10.2939C12.8008 10.5653 12.6861 10.7825 12.5146 10.9453C12.3147 11.108 12.0864 11.1894 11.8008 11.1895H11.001V5.73633H11.8008Z" fill="#FDE100"/>
</svg>
