<svg width="24" height="24" viewBox="0 0 24 24" fill="none" xmlns="http://www.w3.org/2000/svg">
<path fill-rule="evenodd" clip-rule="evenodd" d="M11.9908 1.99942C14.083 2.00034 16.1223 2.65707 17.8219 3.87727C19.5214 5.09747 20.7957 6.81973 21.4656 8.80183C19.1228 7.93872 16.6387 7.52314 14.1426 7.5767L14.1773 8.76712C16.786 8.71963 19.3792 9.17932 21.8126 10.1207C21.9297 10.742 21.989 11.3729 21.9896 12.0052C21.9907 13.4853 21.6628 14.9471 21.0296 16.2849C20.3965 17.6227 19.474 18.8031 18.3288 19.7407C17.1836 20.6783 15.8444 21.3497 14.4079 21.7063C12.9715 22.063 11.4737 22.0959 10.0229 21.8028C11.9421 20.211 13.5455 18.2733 14.7499 16.0901L13.7087 15.5175C12.4448 17.795 10.7497 19.8049 8.718 21.4349C7.16942 20.8978 5.77674 19.9881 4.66271 18.7858C3.54868 17.5835 2.74752 16.1257 2.32986 14.5407C1.91219 12.9558 1.89083 11.2924 2.26768 9.69726C2.64452 8.10211 3.40799 6.62416 4.49079 5.39369C4.91281 7.84827 5.78973 10.2024 7.0764 12.3349L8.09676 11.7171C6.75298 9.4825 5.8593 7.00659 5.46603 4.42885C7.27881 2.85976 9.59671 1.99717 11.9943 1.99942H11.9908Z" fill="#0595CE"/>
</svg>
