<svg width="24" height="24" viewBox="0 0 24 24" fill="none" xmlns="http://www.w3.org/2000/svg">
<path d="M15.0505 10.6097C15.3217 10.2368 15.6268 9.86389 15.8641 9.52488H20.2712L22.0001 7.32135H17.3896C18.3727 5.72802 18.8134 4.6432 18.5083 4.4059C18.4744 4.3381 18.3727 4.3381 18.2032 4.372C17.8642 4.4737 17.4574 4.77881 17.1523 4.98221C16.8472 5.21951 16.5082 5.49072 16.1353 5.82972C15.3217 6.57553 15.3556 6.54163 16.1014 5.89752C16.5082 5.55852 16.8472 5.32121 17.1184 5.18561C17.1862 5.15171 17.254 5.11781 17.3218 5.11781C17.4235 5.08391 17.4913 5.08391 17.5252 5.11781C17.7286 5.28731 17.3557 6.10093 16.5421 7.28745C15.6268 8.67737 14.1691 10.6097 12.4062 12.6776L12.2706 12.8132C11.3214 13.9319 10.4061 14.949 9.55859 15.8643H15.0505V12.7454H19.8983L21.4916 10.6775L15.0505 10.6097Z" fill="#F6C445"/>
<path d="M12.4414 10.8809C12.5431 10.7453 12.6448 10.5758 12.7126 10.3724C12.7804 10.169 12.8143 9.93171 12.8143 9.69441C12.8143 9.3215 12.7465 8.9486 12.577 8.67739C12.4075 8.37229 12.2041 8.13499 11.899 7.93158C11.5939 7.72818 11.2548 7.59258 10.848 7.49088C10.4073 7.38917 9.96662 7.32137 9.45812 7.32137H3.72893L2 9.55881H9.55982C9.76322 9.55881 9.89882 9.59271 10.0683 9.66051C10.2378 9.72831 10.3056 9.89781 10.3056 10.1012C10.3056 10.3385 10.2378 10.4741 10.0683 10.5419C9.93272 10.6097 9.76322 10.6436 9.55982 10.6436H7.49189H2V15.8643H7.49189H8.00039C7.86479 15.9999 7.69529 16.2033 7.49189 16.3728C6.77997 17.0847 5.86466 17.9661 5.11885 18.3729C5.05105 18.4068 4.98325 18.4407 4.91545 18.4746C4.77984 18.5425 4.67814 18.5425 4.61034 18.4746C4.30524 18.2034 5.59346 16.5423 5.59346 16.5423C4.64424 17.5593 3.62723 19.2544 4.06793 19.5934C4.13573 19.6612 4.30524 19.6612 4.47474 19.5934C4.64424 19.5256 4.84764 19.39 5.11885 19.2205C5.22055 19.1527 5.32225 19.0849 5.42395 18.9832C5.96636 18.5764 6.67827 18 7.45799 17.2542C7.93259 16.8135 8.4411 16.3389 8.98351 15.8304C9.96662 14.8473 11.0175 13.7286 12.0685 12.5082C12.2041 12.3387 12.3736 12.1691 12.5092 11.9996C12.4753 11.9657 12.4414 11.8979 12.3736 11.864C12.2041 11.7284 12.0685 11.5928 11.8651 11.525C11.7973 11.4911 11.6956 11.4572 11.6278 11.4233C11.7634 11.3894 11.899 11.2877 12.0685 11.186C12.2041 11.1521 12.3397 11.0165 12.4414 10.8809ZM10.1361 13.5252C10.0005 13.6269 9.79712 13.6947 9.52592 13.6947H7.49189H4.64424V12.4743H7.49189H9.52592C9.83102 12.4743 10.0344 12.5082 10.1361 12.6099C10.2717 12.7116 10.3395 12.8472 10.3395 13.0506C10.3395 13.254 10.2717 13.4235 10.1361 13.5252Z" fill="white"/>
</svg>
