<svg width="24" height="24" viewBox="0 0 24 24" fill="none" xmlns="http://www.w3.org/2000/svg">
<path fill-rule="evenodd" clip-rule="evenodd" d="M4.80078 3H19.2008V21H4.80078V3ZM8.27531 18.2603V6.26458H11.8399C13.0882 6.26458 14.0533 6.54623 14.7482 7.08393C15.4431 7.62162 15.7906 8.45377 15.7906 9.54196C15.8035 10.0669 15.6748 10.5918 15.4174 11.0654C15.1472 11.5135 14.7482 11.8592 14.2721 12.064C14.8512 12.1792 15.3659 12.5249 15.6876 13.0242C15.9965 13.5491 16.1638 14.1508 16.138 14.7653C16.138 15.9175 15.8035 16.7881 15.1472 17.377C14.4909 17.9659 13.5386 18.2603 12.3032 18.2603H8.27531ZM10.4758 12.9602V16.3912H12.1359C12.6378 16.3912 12.9981 16.2504 13.2555 15.9815C13.5128 15.7127 13.6287 15.303 13.6287 14.7525C13.6287 14.1764 13.5257 13.7411 13.3069 13.4339C13.0882 13.1266 12.7665 12.973 12.3032 12.973L10.4758 12.9602ZM10.4758 11.3343H11.7756C12.2517 11.3215 12.6249 11.1807 12.8823 10.9118C13.1397 10.643 13.2683 10.2589 13.2683 9.7596C13.2683 9.1963 13.1397 8.78663 12.8694 8.53058C12.5992 8.27454 12.2002 8.13371 11.6726 8.13371H10.4758V11.3343Z" fill="white"/>
</svg>
