<svg width="24" height="24" viewBox="0 0 24 24" fill="none" xmlns="http://www.w3.org/2000/svg">
<path d="M18.6155 12.5059L23.678 9.26199L18.1555 8.93441L21.6027 4.43466L16.263 6.80571L17.4562 2.00303L14.4136 4.77558L14.0675 0.341553L11.3268 5.13499L8.46286 0.892983L8.89518 6.13824L4.27425 2.74957L6.34751 7.57586L1.98433 6.63422L5.93573 10.4336L0.390625 11.5201L5.16763 13.1723L1.06015 15.6265L6.52105 14.958L3.12108 19.3531L8.29651 16.8752L7.24499 22.7345L10.531 18.7575L11.8084 22.6236L13.1731 18.7451L16.5197 22.9759L15.9159 16.8475L20.4762 19.7997L18.3742 14.5956L23.2642 14.4713L18.6155 12.5059ZM12.2192 5.81683C13.7766 5.81874 15.2696 6.43832 16.3708 7.53967C17.4719 8.64101 18.0912 10.1342 18.0929 11.6916V11.707C18.089 12.8671 17.7415 14.0001 17.0942 14.9629C16.447 15.9256 15.5289 16.6751 14.4561 17.1165C13.3832 17.5579 12.2036 17.6716 11.0662 17.4431C9.92874 17.2146 8.88451 16.6543 8.06532 15.8328C7.24613 15.0113 6.68869 13.9655 6.4634 12.8275C6.23811 11.6894 6.35507 10.5102 6.7995 9.43852C7.24392 8.36688 7.9959 7.45095 8.96049 6.80637C9.92508 6.16178 11.059 5.81745 12.2192 5.81683Z" fill="white"/>
<path d="M8.40024 10.0249C8.34307 10.0654 8.29575 10.1183 8.2618 10.1796C8.22785 10.241 8.20813 10.3091 8.20411 10.3791C8.18473 10.4899 8.17136 10.6017 8.16406 10.7139C8.18277 10.7272 8.20393 10.7366 8.2263 10.7418C8.24868 10.7469 8.27185 10.7475 8.29447 10.7437C8.34915 10.7283 8.39922 10.6997 8.44029 10.6605C8.42121 10.5647 8.42722 10.4657 8.45775 10.373C8.48141 10.2597 8.51579 10.149 8.56044 10.0423C8.53723 10.0309 8.51221 10.0236 8.4865 10.0207C8.4577 10.0179 8.42864 10.0193 8.40024 10.0249Z" fill="white"/>
<path d="M12.2324 6.06683C13.3447 6.06704 14.4327 6.39696 15.3574 7.01508C16.282 7.63318 17.0023 8.5119 17.4277 9.53949C17.8532 10.5671 17.9651 11.6977 17.748 12.7885C17.5309 13.8794 16.9946 14.8819 16.208 15.6684C15.4214 16.4548 14.419 16.9905 13.3281 17.2075C12.2373 17.4243 11.1066 17.3128 10.0791 16.8871C9.05164 16.4615 8.1736 15.7405 7.55566 14.8159C6.93772 13.891 6.60742 12.8032 6.60742 11.6909C6.60909 10.1996 7.20227 8.76965 8.25684 7.71527C9.31138 6.66098 10.7413 6.06825 12.2324 6.06683ZM8.68457 12.2426C8.62015 12.2204 8.60059 12.2914 8.60059 12.2914C8.23606 12.9905 7.72461 13.2475 7.72461 13.2475C7.71851 13.251 7.62341 13.3062 7.6582 13.3559C7.65943 13.3578 7.68662 13.3969 7.80762 13.351C7.98052 13.2556 8.14513 13.1449 8.29883 13.0209C8.59129 13.5224 8.93303 13.9938 9.31934 14.4272C9.71968 14.8785 10.2146 15.2359 10.7686 15.475C11.2635 15.7369 11.9395 15.7465 11.9395 15.7465C14.622 15.8851 15.846 13.1825 15.8594 13.1528C15.9756 13.3157 16.1195 13.4576 16.2832 13.5727C16.4411 13.6151 16.3871 13.4782 16.3838 13.4702C16.0774 13.1776 15.8551 12.8072 15.7422 12.3989C15.7142 12.3081 15.6556 12.32 15.6523 12.3207C15.5884 12.3335 15.6113 12.4019 15.6133 12.4077C15.6551 12.5934 15.7097 12.7765 15.7773 12.9545C11.9235 13.7736 8.45867 12.8777 8.43848 12.8725C8.54173 12.7045 8.63064 12.5278 8.70508 12.3452C8.72754 12.2611 8.68457 12.2426 8.68457 12.2426ZM8.74316 13.1205C9.98577 13.4089 11.261 13.5362 12.5361 13.4995C12.0463 13.5179 13.9342 13.5146 15.4375 13.2045L15.6367 13.1655C15.6367 13.1655 14.4499 15.5768 12.0596 15.5483C9.80867 15.5226 8.56738 13.0834 8.56738 13.0834L8.74316 13.1205ZM12.2578 8.9057C12.2355 8.82879 11.8405 8.9671 11.8291 8.97113C11.8291 8.97113 10.4147 9.38202 10.3232 10.5649C10.3232 10.5649 10.2508 11.5453 11.2305 11.6459L12.0498 11.6528C12.264 11.6197 12.1699 11.8722 12.166 11.8823C12.0933 11.9727 12.1727 12.0029 12.1797 12.0053C12.3043 12.0053 12.3459 11.761 12.3477 11.7504C12.3801 11.4756 12.1551 11.5141 12.1494 11.5151L11.2949 11.5014C10.47 11.4323 10.5108 10.6136 10.5117 10.5961C10.5117 10.0498 11.0342 9.57367 11.0342 9.57367C11.445 9.1908 12.1914 8.97601 12.1914 8.97601C12.2939 8.92986 12.2578 8.9057 12.2578 8.9057ZM15.0371 10.0385C14.4457 10.0015 14.1702 11.8737 14.7666 11.9418C15.1979 11.9911 15.494 11.2535 15.457 10.7133C15.4447 10.4803 15.3891 10.2326 15.2598 10.1362C15.2253 10.1084 15.1876 10.0845 15.1484 10.0639C15.1119 10.0532 15.0747 10.0449 15.0371 10.0385ZM8.55957 9.77191C7.9816 9.77818 7.7095 11.5074 8.3877 11.5707C9.06646 11.6334 9.27633 9.71646 8.55957 9.77191ZM15.0527 9.1391C14.1943 9.06824 13.9785 10.103 13.9785 10.103C13.9785 10.103 14.3616 9.24248 15.0527 9.30511C16.0401 9.39046 16.2329 10.5105 16.2373 10.5366C16.2372 10.51 16.2253 9.23163 15.0527 9.1391ZM8.87891 8.81097C7.85335 8.54951 7.53711 9.77972 7.53711 9.77972C7.53711 9.77972 8.02071 8.80093 8.83789 9.01312C9.6522 9.22488 9.65139 10.2146 9.65137 10.2221C9.65224 10.2149 9.79102 9.04438 8.87891 8.81097Z" fill="white"/>
<path d="M14.8885 10.2692C14.8314 10.3098 14.784 10.3627 14.7501 10.424C14.7161 10.4853 14.6964 10.5535 14.6924 10.6235C14.6731 10.734 14.6597 10.8454 14.6523 10.9572C14.6709 10.9709 14.692 10.9807 14.7144 10.986C14.7368 10.9913 14.7601 10.992 14.7828 10.988C14.8374 10.9727 14.8875 10.9441 14.9286 10.9049C14.9095 10.8091 14.9155 10.7101 14.946 10.6173C14.9697 10.5041 15.0041 10.3934 15.0487 10.2867C15.0255 10.2753 15.0005 10.268 14.9748 10.2651C14.946 10.2623 14.9169 10.2636 14.8885 10.2692Z" fill="white"/>
</svg>
