<svg width="24" height="24" viewBox="0 0 24 24" fill="none" xmlns="http://www.w3.org/2000/svg">
<path d="M12.434 6.98829C16.7643 6.98829 19.8232 9.99762 19.8232 14.2256C19.8232 18.4535 16.7643 21.4629 12.434 21.4629C10.7926 21.4629 9.33442 20.931 8.19183 20.0076L7.89835 20.6573C7.79975 20.8761 7.57587 21.0174 7.32879 21.0174H4.77215C4.42879 21.0174 4.15039 20.7481 4.15039 20.416V5.07514C4.15039 4.88551 4.24203 4.7071 4.39863 4.59377L7.11883 2.62006C7.22671 2.54152 7.35779 2.5 7.49235 2.5H8.3171C8.66044 2.5 8.93884 2.76929 8.93884 3.10143V7.92518C9.94575 7.3249 11.1336 6.98829 12.434 6.98829ZM14.9349 14.2256C14.9349 12.4493 13.6009 11.123 11.7867 11.123C9.97242 11.123 8.63842 12.4493 8.63842 14.2256C8.63842 15.9872 9.97242 17.3135 11.7867 17.3135C13.5893 17.3135 14.9349 15.9872 14.9349 14.2256Z" fill="#D60006"/>
</svg>
