<svg width="24" height="24" viewBox="0 0 24 24" fill="none" xmlns="http://www.w3.org/2000/svg">
<path d="M17.8577 12.1572H22.1407V17.2397C21.5233 17.6915 20.8671 18.0207 20.1699 18.2231C19.4728 18.4275 18.7449 18.5298 17.9844 18.5298C16.9928 18.5298 16.0892 18.3744 15.2776 18.0636C14.4639 17.7529 13.7688 17.3235 13.1902 16.7736C12.6116 16.2257 12.1659 15.5755 11.8511 14.8232C11.5362 14.0708 11.3809 13.2531 11.3809 12.3719C11.3809 11.4744 11.5301 10.6484 11.8266 9.89608C12.125 9.14373 12.5503 8.49563 13.1043 7.94979C13.6584 7.40392 14.3269 6.98071 15.112 6.6761C15.897 6.37352 16.7741 6.22223 17.7452 6.22223C18.2461 6.22223 18.7184 6.26311 19.1579 6.34695C19.5995 6.42871 20.0043 6.54321 20.3764 6.68632C20.7485 6.82942 21.0879 7.00115 21.3966 7.19947C21.7053 7.39779 21.9812 7.61246 22.2226 7.84347L21.4129 9.07422C21.2862 9.26639 21.1226 9.38499 20.9202 9.42996C20.7199 9.47493 20.5032 9.42383 20.2721 9.28071C20.0513 9.14782 19.8428 9.03334 19.6486 8.93725C19.4523 8.84115 19.254 8.76346 19.0496 8.70214C18.8451 8.6408 18.6305 8.59786 18.4056 8.56926C18.1786 8.54063 17.9272 8.52835 17.645 8.52835C17.1217 8.52835 16.6494 8.62036 16.2323 8.80436C15.8132 8.98835 15.4575 9.25005 15.161 9.58534C14.8666 9.92061 14.6397 10.3254 14.4782 10.7956C14.3187 11.2659 14.239 11.7913 14.239 12.3699C14.239 13.0098 14.3269 13.5761 14.5027 14.0729C14.6786 14.5697 14.928 14.9868 15.251 15.3302C15.574 15.6737 15.9584 15.9313 16.4082 16.1112C16.8579 16.2911 17.3547 16.379 17.9006 16.379C18.2359 16.379 18.5405 16.3463 18.8144 16.2788C19.0864 16.2134 19.3521 16.1255 19.6118 16.0151V14.1894H18.4199C18.2441 14.1894 18.105 14.1424 18.0069 14.0483C17.9067 13.9543 17.8577 13.8357 17.8577 13.6926V12.1572Z" fill="#EC1C24"/>
<path d="M6.20347 6.50434C7.03351 6.50434 7.74089 6.58203 8.32558 6.73536C8.90827 6.8887 9.38461 7.10744 9.75262 7.38754C10.1206 7.66762 10.3905 8.00905 10.5581 8.41181C10.7258 8.81456 10.8096 9.2623 10.8096 9.75705C10.8096 10.0269 10.7707 10.2865 10.6931 10.538C10.6154 10.7895 10.4948 11.0226 10.3292 11.2393C10.1636 11.456 9.95298 11.6563 9.69331 11.8383C9.43367 12.0202 9.12293 12.1777 8.76107 12.3085C9.5543 12.5007 10.139 12.8114 10.5193 13.2408C10.8995 13.6701 11.0897 14.2262 11.0897 14.909C11.0897 15.4202 10.9915 15.8965 10.7932 16.3361C10.5949 16.7756 10.3046 17.16 9.92229 17.4871C9.53999 17.8142 9.06772 18.0697 8.50756 18.2537C7.94534 18.4377 7.30541 18.5297 6.58374 18.5297H1.7793V6.50434H6.20347ZM4.56995 8.59171V11.5623H6.02355C6.33226 11.5623 6.6103 11.5398 6.85769 11.4969C7.10505 11.4539 7.31565 11.3763 7.48941 11.2658C7.6632 11.1554 7.79405 11.0041 7.88603 10.812C7.976 10.6198 8.02301 10.3765 8.02301 10.0862C8.02301 9.79998 7.98622 9.56282 7.91671 9.37268C7.84515 9.18255 7.73474 9.02923 7.58551 8.91475C7.43626 8.80025 7.24818 8.71643 7.0192 8.66736C6.79022 8.6183 6.52036 8.59376 6.2055 8.59376H4.56995V8.59171ZM6.53467 16.426C6.90266 16.426 7.20524 16.379 7.43831 16.285C7.67136 16.1909 7.85537 16.0703 7.98622 15.921C8.1191 15.7718 8.20907 15.6041 8.25814 15.4181C8.3072 15.2321 8.33174 15.0419 8.33174 14.8477C8.33174 14.6269 8.30311 14.4286 8.24586 14.2528C8.18861 14.077 8.08844 13.9277 7.94941 13.8071C7.80834 13.6865 7.62436 13.5924 7.39128 13.527C7.16027 13.4616 6.86791 13.4289 6.51627 13.4289H4.56791V16.426H6.53467Z" fill="#EC1C24"/>
</svg>
