<svg width="24" height="24" viewBox="0 0 24 24" fill="none" xmlns="http://www.w3.org/2000/svg">
<path d="M11.2026 3.03356C16.1906 2.60336 20.574 6.35889 21.0042 11.4399C21.26 14.4513 20.0508 17.4046 17.7719 19.3347C14.5047 22.1019 9.79571 22.1717 6.44712 19.5323C2.49392 16.4047 1.77305 10.6028 4.84259 6.56818C6.37736 4.54508 8.69114 3.2661 11.2026 3.03356ZM11.2723 3.34749C6.45875 3.74281 2.86599 8.04481 3.24968 12.9514C3.63337 17.858 7.85399 21.5206 12.6676 21.1252C17.4928 20.7299 21.0739 16.4395 20.6902 11.5213C20.4693 8.73081 18.9694 6.21937 16.6557 4.70785C15.0628 3.67305 13.1792 3.19634 11.2723 3.34749Z" fill="white"/>
<path d="M10.725 3.81256C14.8991 3.16144 18.8988 5.78915 20.0383 9.94001C20.6662 12.2305 20.329 14.8117 19.0267 16.8C17.8408 17.3464 16.5037 17.4395 15.2247 17.3813C13.0853 17.2767 10.9925 16.707 8.84145 16.6488C7.63224 16.6139 6.38814 16.7767 5.26032 17.2767C2.52797 13.4863 3.33023 8.14945 7.05089 5.37058C8.12057 4.55669 9.38792 4.03347 10.725 3.81256ZM11.9808 3.97534C11.8063 4.49855 11.6436 5.02177 11.4692 5.55661C10.9227 5.55661 10.3762 5.54499 9.82975 5.56824C10.2716 5.8938 10.7134 6.21936 11.1552 6.55654C10.9925 7.07976 10.818 7.60297 10.6553 8.13782C11.0971 7.81226 11.5389 7.4867 11.9808 7.16115C12.4226 7.4867 12.8644 7.81226 13.3062 8.13782C13.1435 7.6146 12.9691 7.07976 12.8063 6.55654C13.2481 6.23098 13.6899 5.90543 14.1318 5.56824C13.5853 5.55661 13.0388 5.56824 12.4923 5.56824C12.3179 5.02177 12.1435 4.49855 11.9808 3.97534ZM8.17871 6.03332C8.12057 6.30074 8.08569 6.56817 8.02756 6.83559L7.22529 6.94023L7.93454 7.33555C7.88803 7.60297 7.84153 7.88202 7.79502 8.13782C7.99268 7.95178 8.19034 7.76575 8.388 7.56809C8.62054 7.69599 8.85308 7.83551 9.09725 7.95178C8.98098 7.70762 8.8647 7.45182 8.74843 7.20765C8.94609 7.02162 9.14375 6.82396 9.32979 6.63793C9.06236 6.67281 8.79494 6.70769 8.52752 6.74257C8.41125 6.53328 8.29498 6.28912 8.17871 6.03332ZM15.434 6.77745L14.6317 6.67281C14.8294 6.87047 15.0154 7.0565 15.2131 7.24253C15.0968 7.4867 14.9805 7.7425 14.8643 7.98667L15.5735 7.60297C15.7712 7.78901 15.9688 7.98667 16.1665 8.1727C16.1084 7.90528 16.0735 7.62623 16.027 7.35881C16.2595 7.23091 16.492 7.09138 16.7362 6.96349L15.9339 6.85884C15.8758 6.59142 15.8409 6.31237 15.7828 6.05658C15.6665 6.28912 15.5503 6.53328 15.434 6.77745ZM5.63239 7.95178C5.64401 8.11456 5.65564 8.27734 5.66727 8.44012L5.21381 8.62615L5.67889 8.74242C5.69052 8.9052 5.70215 9.06798 5.71378 9.23076C5.79517 9.09124 5.87655 8.95171 5.96957 8.82381L6.43465 8.92846L6.13235 8.55639L6.38814 8.13782L5.93469 8.32385C5.84167 8.19595 5.73703 8.06806 5.63239 7.95178ZM18.0152 8.32385L17.5734 8.13782L17.8292 8.55639C17.7245 8.68429 17.6199 8.80056 17.5152 8.92846L17.9803 8.82381L18.2361 9.23076L18.271 8.74242L18.7361 8.62615L18.2942 8.44012L18.3291 7.95178L18.0152 8.32385ZM6.86485 9.17262C6.35326 9.31215 5.86493 9.63771 5.60913 10.1144C5.58588 11.7887 5.60913 13.463 5.59751 15.1489C5.9812 15.4163 6.39977 15.6024 6.85323 15.7187C7.37644 15.8582 7.91129 15.8233 8.44613 15.7884C8.98098 15.7535 9.52745 15.614 9.92277 15.2419C10.539 14.6955 10.725 13.7304 10.3995 12.963C10.2251 12.5328 9.84138 12.2305 9.43443 12.0445C9.84138 11.7887 10.1553 11.3469 10.1321 10.8469C10.1437 9.95164 9.37629 9.17262 8.52752 9.07961C7.98105 9.02147 7.41132 9.02147 6.86485 9.17262ZM9.16701 9.04473C9.77161 9.26564 10.1669 9.82374 10.3762 10.4167C10.6436 10.4167 10.9111 10.4167 11.1785 10.4167C11.1785 12.2073 11.1785 14.0095 11.1785 15.8H12.5505C12.5505 14.0095 12.5505 12.2073 12.5505 10.4167C12.8063 10.4167 13.0621 10.4167 13.3062 10.4167C13.7132 9.80048 14.2829 9.27727 14.9805 9.04473C13.0388 9.05635 11.0971 9.04473 9.16701 9.04473ZM15.1549 9.23076C14.4108 9.49818 13.8062 10.033 13.4574 10.7539C13.0737 11.5329 13.0156 12.4282 13.1435 13.277C13.2597 14.0792 13.655 14.835 14.2945 15.335C14.8991 15.8117 15.6898 15.9628 16.4223 15.9047C17.1664 15.8465 17.9454 15.6373 18.5384 15.1489C18.5384 14.0792 18.5384 13.0095 18.5384 11.9282C17.7943 11.9282 17.0501 11.9282 16.306 11.9282C16.306 12.3352 16.306 12.7538 16.306 13.1607H17.178C17.178 13.5676 17.178 13.9862 17.178 14.3932C16.7246 14.7071 16.12 14.7071 15.6084 14.5211C15.0503 14.3001 14.6666 13.7421 14.5503 13.1607C14.4341 12.5677 14.4689 11.9515 14.6899 11.3934C14.8991 10.8818 15.3293 10.4632 15.8642 10.3586C16.5269 10.1842 17.2129 10.4749 17.7129 10.9051C17.9105 10.5214 18.0966 10.1377 18.3059 9.75397C17.4687 8.97496 16.2014 8.88195 15.1549 9.23076Z" fill="white"/>
<path d="M7.22537 10.6028C7.57418 10.1726 8.37645 10.2423 8.60899 10.7772C8.702 11.0678 8.5741 11.4748 8.24855 11.5562C7.87648 11.6608 7.49279 11.6027 7.1091 11.6143C7.13235 11.2887 7.02771 10.9051 7.22537 10.6028ZM7.1091 12.7305C7.58581 12.7538 8.08577 12.6607 8.53922 12.8468C9.20196 13.1142 9.15546 14.2653 8.49272 14.4978C8.03926 14.5559 7.5393 14.5908 7.1091 14.3699C7.1091 13.8351 7.1091 13.277 7.1091 12.7305ZM9.73681 17.0441C12.1669 17.2883 14.5853 17.951 17.0386 17.6604C17.6199 17.6022 18.1897 17.4627 18.7478 17.2418C18.3176 17.8115 17.8641 18.358 17.2944 18.7882C16.8409 18.8696 16.3875 18.8231 15.9457 18.7766C14.6318 18.6022 13.3761 18.1952 12.1204 17.7766C11.3297 17.5325 10.5507 17.2302 9.73681 17.0441ZM8.1439 17.5674C9.19034 17.5906 10.1903 17.951 11.1902 18.2766C12.8412 18.8114 14.469 19.4626 16.2131 19.6021C15.4689 20.0207 14.6899 20.3578 13.8528 20.5439C13.7365 20.5788 13.6435 20.4857 13.5389 20.4509C12.504 19.8695 11.5157 19.2068 10.4809 18.5905C9.73681 18.1603 8.96942 17.765 8.1439 17.5674ZM6.84167 18.9626C7.57418 19.0091 8.31831 19.1138 8.98105 19.4393C9.73681 19.7765 10.3996 20.2648 11.0739 20.7299C9.53915 20.5323 8.07414 19.9276 6.84167 18.9626Z" fill="white"/>
</svg>
