<svg width="24" height="24" viewBox="0 0 24 24" fill="none" xmlns="http://www.w3.org/2000/svg">
<path d="M5 20.035V18.1035L6.74117 17.7724V6.23865L5 5.90754V3.96502H6.74117H12.268C14.1926 3.96502 15.6941 4.33292 16.7725 5.06873C17.8509 5.80453 18.3901 6.90456 18.3901 8.36881C18.3901 9.11197 18.1879 9.77787 17.7835 10.3665C17.3866 10.9478 16.8062 11.3856 16.0424 11.6799C16.6939 11.8197 17.2368 12.0662 17.6712 12.4194C18.113 12.7726 18.4425 13.203 18.6597 13.7107C18.8769 14.2111 18.9855 14.7593 18.9855 15.3553C18.9855 16.8931 18.4688 18.0593 17.4353 18.854C16.4018 19.6413 14.9377 20.035 13.0431 20.035H5ZM10.0213 17.5627H13.0431C13.9118 17.5627 14.5745 17.3787 15.0314 17.0108C15.4882 16.6356 15.7166 16.0837 15.7166 15.3553C15.7166 14.8255 15.6305 14.3803 15.4582 14.0198C15.286 13.6592 15.0201 13.387 14.6607 13.203C14.3087 13.0191 13.8519 12.9271 13.2902 12.9271H10.0213V17.5627ZM10.0213 10.6976H12.3803C13.2565 10.6976 13.9305 10.521 14.4023 10.1678C14.8741 9.81466 15.11 9.2996 15.11 8.62266C15.11 7.8795 14.8703 7.33132 14.3911 6.97814C13.9193 6.62495 13.2116 6.44836 12.268 6.44836H10.0213V10.6976Z" fill="#4FBFA8"/>
</svg>
