<svg width="24" height="24" viewBox="0 0 24 24" fill="none" xmlns="http://www.w3.org/2000/svg">
<path d="M15.0371 3.31812C19.0944 2.6419 22.2218 6.48759 20.5312 10.2068L17.1924 17.8992C15.6285 21.3645 11.022 21.7448 8.65527 18.7019L4.09082 12.7849C1.72421 9.69976 3.41457 5.26184 7.17578 4.62769L15.0371 3.31812ZM13.0498 6.90992C12.2048 6.90997 11.4019 7.1215 10.6836 7.50172C10.0074 7.88209 9.45779 8.38995 9.03516 9.06617C8.65486 9.74233 8.44336 10.5032 8.44336 11.3484C8.44342 12.1935 8.65484 12.9545 9.03516 13.6306C9.41552 14.2645 9.96522 14.8138 10.6836 15.1941C11.4019 15.5743 12.1625 15.7439 13.0498 15.7439C13.7683 15.7439 14.4451 15.6169 15.0791 15.3211C15.6707 15.0675 16.178 14.6866 16.6006 14.1795L15.332 12.9959C14.7403 13.6721 14.022 14.0105 13.1768 14.0105C12.6275 14.0105 12.1628 13.8838 11.7402 13.6726C11.3177 13.4613 11.0211 13.1235 10.7676 12.7009C10.5563 12.2784 10.3878 11.8976 10.3877 11.3484C10.3877 10.799 10.5143 10.3335 10.7256 9.9109C10.9791 9.48845 11.2749 9.15053 11.6973 8.93922C12.1199 8.7279 12.6276 8.60133 13.1348 8.60133C13.9799 8.60136 14.6984 8.93892 15.29 9.615L16.5576 8.4314C16.1351 7.92446 15.6277 7.54429 15.0361 7.29078C14.4445 7.03728 13.7682 6.90992 13.0498 6.90992Z" fill="#069BE8"/>
</svg>
