<svg width="24" height="24" viewBox="0 0 24 24" fill="none" xmlns="http://www.w3.org/2000/svg">
<g clip-path="url(#clip0_4_5743)">
<path d="M19.9338 17.5696C17.7473 19.8883 14.7696 20.41 12.0548 19.4696C10.9486 19.1393 10.1716 18.6703 9.65514 18.254C9.57223 18.2037 9.53196 18.1774 9.48695 18.1271C9.468 18.1056 9.44905 18.0841 9.42773 18.0625C9.21453 17.8256 8.99896 17.5863 8.7905 17.3446C8.78339 17.3351 8.78102 17.3303 8.78102 17.3303C7.74108 16.1123 6.89538 14.7962 7.11569 12.9871C7.45681 14.3032 7.99929 15.4734 8.83314 16.4593C9.15531 16.8397 9.51775 17.1915 9.92993 17.5121C10.0057 17.5696 10.0436 17.5983 10.1621 17.7084C10.9746 18.2827 11.7824 18.6225 12.1188 18.7541C12.1401 18.7613 12.1591 18.7684 12.1804 18.7756C12.2467 18.7995 12.2846 18.8115 12.2846 18.8115C12.7465 18.9527 13.2203 19.046 13.6988 19.0987C15.0917 19.247 16.4325 19.0293 17.7378 18.1846C17.1337 17.8017 16.7358 18.1104 16.333 18.1846C14.9354 18.4406 13.5804 18.4143 12.2941 17.9668C12.2443 17.95 12.1922 17.9333 12.1448 17.9165C12.1117 17.9046 12.0761 17.8902 12.043 17.8759C10.5387 17.2776 9.56512 16.1817 9.21216 15.7318C9.19084 15.7055 9.16952 15.6768 9.15294 15.6528C9.15057 15.6481 9.1482 15.6433 9.14346 15.6409C9.10556 15.5978 9.0724 15.5476 9.04397 15.4997C9.03686 15.4877 9.02976 15.4758 9.02265 15.4662C9.0037 15.4375 8.99422 15.4207 8.99422 15.4207C8.98001 15.3992 8.96816 15.38 8.95632 15.3609C7.96139 13.8294 7.53735 12.1879 8.06562 10.374C8.71469 8.16059 10.2213 6.84209 12.3486 6.15293C12.6186 6.06678 13.0948 6.0596 12.9313 5.60495C12.8176 5.28908 12.4362 5.48291 12.1899 5.54034C9.61724 6.14575 7.77424 7.59586 6.74378 10.1252C6.1705 11.5346 6.13023 12.889 6.47135 14.2626C6.47135 14.2626 6.47372 14.2721 6.47846 14.2865C6.48083 14.3032 6.48794 14.3296 6.49741 14.3607C6.50215 14.375 6.50689 14.3942 6.51162 14.4133C6.51873 14.4396 6.52584 14.4659 6.53294 14.4899C6.54005 14.5138 6.54953 14.5401 6.55663 14.5688C6.56374 14.5928 6.57322 14.6191 6.58032 14.6454C6.62296 14.7962 6.67271 14.9493 6.72482 15.1001C6.75562 15.1838 6.80063 15.2748 6.83853 15.3681C6.9854 15.7342 7.17728 16.1673 7.42365 16.6172C8.06562 17.6294 8.1509 17.7682 8.48728 18.1582C8.48728 18.1582 8.45175 18.1415 8.39015 18.108C8.37831 18.1008 8.3641 18.0936 8.34751 18.0841C7.96612 17.8759 7.62737 17.627 7.37864 17.2992C6.93329 16.8421 6.43345 16.1721 6.04022 15.2269C6.02837 15.2006 6.01653 15.1719 6.00705 15.1455C5.99521 15.1168 5.98336 15.0881 5.97389 15.0594C5.96441 15.0307 5.95493 15.002 5.94309 14.9756C5.92177 14.9254 5.90282 14.8751 5.88624 14.8249C5.86729 14.777 5.8507 14.7268 5.83412 14.6741C5.80569 14.5976 5.78201 14.521 5.75832 14.4396C5.73937 14.3798 5.72041 14.3176 5.70383 14.253C5.68014 14.1692 5.65882 14.0879 5.6375 14.0041C5.63513 13.9921 5.63277 13.9802 5.6304 13.9682C5.62566 13.9491 5.62092 13.9299 5.61618 13.9084C4.57861 9.29484 8.17932 4.47309 13.0284 4.43481C14.6914 4.42045 16.2146 4.83203 17.6502 5.65281C17.8183 5.74852 17.9771 6.09789 18.2258 5.79399C18.529 5.42308 18.1358 5.30344 17.9344 5.18858C17.3896 4.87989 16.8329 4.5736 16.2525 4.33909C15.0444 3.85572 13.7604 3.68343 12.4954 3.50157C16.0985 3.04691 18.7991 4.62145 21.0092 7.62697C20.0664 4.09023 15.7574 1.8672 11.2281 2.53961C6.67034 3.21681 2.828 7.55279 3.00803 12.542C3.16201 16.8684 6.86696 20.9962 11.2328 21.4796C15.8498 21.9893 20.173 19.8094 20.9358 16.5765C20.481 16.7847 20.2559 17.2274 19.9338 17.5696Z" fill="#32AE98"/>
<path d="M8.723 12.4439C8.72537 12.4678 8.72774 12.4966 8.73247 12.5253C8.73484 12.554 8.73958 12.5875 8.74432 12.621C8.74669 12.6473 8.75142 12.6784 8.75616 12.7095C8.76327 12.7526 8.77038 12.7981 8.77748 12.8459C8.86513 13.3437 9.06175 14.0998 9.50236 14.8656C9.50236 14.8656 9.50236 14.868 9.50473 14.8703C9.54027 14.9326 9.5758 14.9948 9.61607 15.057C9.77952 15.3226 9.97614 15.5834 10.2059 15.8347C10.2154 15.8443 10.2249 15.8538 10.232 15.8634C10.5376 16.1912 10.9071 16.4999 11.3477 16.7655C11.7386 17.0024 12.1887 17.2034 12.7051 17.3542C12.7122 17.359 12.7193 17.359 12.7264 17.3614C12.788 17.3805 12.852 17.3973 12.9159 17.414C12.9586 17.426 13.0012 17.4356 13.0439 17.4451C15.318 17.9165 17.7674 16.8589 18.5965 14.8656C18.2151 15.0977 17.8882 15.404 17.54 15.6815C16.1282 16.8134 14.5268 17.0383 12.8709 16.4569C10.9711 15.7892 9.95245 14.3439 9.87191 12.3123C9.79611 10.4075 10.5802 8.9 12.2432 7.96436C13.9914 6.97848 15.7136 7.15077 17.3529 8.28741C17.6466 8.49081 17.874 8.88325 18.5278 8.57456C17.5732 7.682 16.6706 7.12445 15.4672 6.82055C13.2144 6.24864 11.388 6.85165 9.98562 8.57695C9.06175 9.7112 8.64246 10.9555 8.70642 12.2668C8.70642 12.2836 8.70878 12.3434 8.72063 12.4439H8.723Z" fill="#32AE98"/>
</g>
<defs>
<clipPath id="clip0_4_5743">
<rect width="18.0083" height="19.1338" fill="white" transform="translate(3 2.42001)"/>
</clipPath>
</defs>
</svg>
