<svg width="24" height="24" viewBox="0 0 24 24" fill="none" xmlns="http://www.w3.org/2000/svg">
<path fill-rule="evenodd" clip-rule="evenodd" d="M4.31713 10.625C4.69999 9.0024 5.57495 6.43289 7.75085 3.66928C7.8375 3.55921 8.01823 3.58474 8.06742 3.71405L12.9693 16.6026C13.507 14.9305 14.6123 11.4466 15.2607 9.06112C15.289 8.95671 15.429 8.93247 15.4959 9.01907C16.8035 10.7178 17.6073 12.0105 18.3282 13.9574C18.4121 14.1836 18.4898 14.3932 18.5623 14.5904C18.8629 13.878 19.1248 13.1956 19.2946 12.641C20.0536 10.1602 19.9291 8.64939 19.5282 6.02637C19.5077 5.89077 19.7171 5.82027 19.82 5.91609C22.5489 8.44587 23.9028 14.3415 21.6303 19.366C21.4559 19.7522 20.9717 20.0259 20.0953 20.2039C20.0953 20.2039 20.0475 20.1723 19.9625 20.1175C20.5904 19.9467 20.9444 19.7528 20.9444 19.5474C20.9444 18.8594 16.9702 18.3017 12.0677 18.3017C7.91248 18.3017 4.42396 18.7024 3.4573 19.2435C2.65444 19.1111 2.1574 18.9328 1.9687 18.6097C0.274354 14.8902 0.336259 11.7951 2.51303 8.41505C2.80038 7.96884 3.37554 7.41705 3.7359 7.09131C3.83928 6.99791 4.01527 7.07248 3.99778 7.20149C3.88987 7.99483 3.66731 9.83825 3.72679 11.1572C3.72679 11.3505 3.76534 11.5723 3.79081 11.719C3.83003 12.0347 3.87541 12.3497 3.92692 12.6637C4.04075 11.8493 4.18838 11.1707 4.31713 10.625Z" fill="white"/>
</svg>
