<svg width="24" height="24" viewBox="0 0 24 24" fill="none" xmlns="http://www.w3.org/2000/svg">
<g clip-path="url(#clip0_4_5337)">
<path d="M22.9992 16.2006C22.4611 16.2006 21.9416 16.2006 21.3787 16.2006C21.3787 14.3116 21.3787 12.4286 21.3787 10.5456C21.354 10.5395 21.3354 10.5335 21.3107 10.5275C20.0056 12.3924 18.6943 14.2572 17.3893 16.1221C17.3645 16.1161 17.346 16.1101 17.3212 16.098C17.3212 14.2452 17.3212 12.3984 17.3212 10.4611C17.2037 10.612 17.1357 10.6965 17.0738 10.7809C15.8615 12.507 14.6492 14.2271 13.4493 15.9592C13.3194 16.1463 13.1895 16.2308 12.9483 16.2247C12.4164 16.2066 11.8783 16.2187 11.2969 16.2187C11.3525 16.1221 11.3773 16.0497 11.4206 15.9954C13.3875 13.2675 15.3543 10.5335 17.3274 7.81161C17.4016 7.70901 17.5686 7.62451 17.6985 7.61848C18.1006 7.59434 18.5026 7.60641 18.9479 7.60641C18.9479 8.75914 18.9479 9.8998 18.9479 11.0344C18.9727 11.0405 18.9912 11.0465 19.016 11.0586C19.084 10.9741 19.152 10.8956 19.2077 10.8111C19.9252 9.81531 20.6427 8.81949 21.3478 7.81764C21.4591 7.66073 21.5766 7.59434 21.7807 7.60037C22.1766 7.61848 22.5786 7.60641 22.9992 7.60641C22.9992 10.4852 22.9992 13.3338 22.9992 16.2006Z" fill="white"/>
<path d="M9.55386 10.2025C8.9972 10.2025 8.44053 10.2085 7.89005 10.1964C7.80346 10.1964 7.69213 10.13 7.64265 10.0636C6.93135 9.11008 5.34176 8.65744 3.99339 9.44806C2.76873 10.1723 2.27392 11.6328 2.81203 12.9726C3.29447 14.1797 4.55624 14.922 5.8675 14.741C6.00976 14.7229 6.17058 14.6203 6.25717 14.5116C6.56024 14.1254 6.83857 13.715 7.1602 13.2684C6.25717 13.2684 5.4098 13.2684 4.53769 13.2684C4.53769 12.7795 4.53769 12.3208 4.53769 11.838C6.33139 11.838 8.12509 11.838 9.9559 11.838C9.90642 11.9225 9.86931 12.001 9.81983 12.0673C8.97246 13.2804 8.12509 14.4935 7.26535 15.6945C7.17257 15.8273 6.99939 15.948 6.83857 15.9963C4.29028 16.7567 1.58736 15.2177 1.08018 12.7192C0.597734 10.3292 2.34814 7.96339 4.83458 7.64955C6.43035 7.45039 7.7849 7.93925 8.88587 9.0618C9.18275 9.36356 9.38686 9.75585 9.62809 10.1059C9.60953 10.1481 9.58479 10.1783 9.55386 10.2025Z" fill="white"/>
<path d="M7.14081 16.2188C7.23359 16.08 7.28925 15.9894 7.3511 15.9049C9.28088 13.2253 11.2107 10.5396 13.1281 7.85394C13.2579 7.67288 13.394 7.60649 13.6105 7.61856C13.9878 7.63667 14.3651 7.6246 14.7857 7.6246C14.7857 7.85997 14.7857 8.05914 14.7857 8.2583C14.7857 9.03081 14.7919 9.80936 14.7795 10.5819C14.7733 10.7388 14.7115 10.9138 14.6125 11.0405C14.161 11.626 13.6909 12.1933 13.1775 12.833C13.1775 12.0424 13.1775 11.3182 13.1775 10.5939C13.1528 10.5819 13.1281 10.5698 13.1033 10.5638C13.0415 10.6422 12.9796 10.7207 12.9239 10.7991C11.7117 12.5192 10.4932 14.2453 9.29325 15.9713C9.15717 16.1705 9.00873 16.2429 8.76751 16.2369C8.24177 16.2067 7.72221 16.2188 7.14081 16.2188Z" fill="white"/>
</g>
<defs>
<clipPath id="clip0_4_5337">
<rect width="22" height="8.63718" fill="white" transform="translate(1 7.6)"/>
</clipPath>
</defs>
</svg>
