<svg width="24" height="24" viewBox="0 0 24 24" fill="none" xmlns="http://www.w3.org/2000/svg">
<g clip-path="url(#clip0_4_5330)">
<path d="M15.7625 5.6778C15.8024 5.60732 15.8411 5.53684 15.8807 5.46605C15.8789 5.80246 15.8807 6.13979 15.8505 6.47496C15.8411 6.7729 15.8567 7.07237 15.8149 7.36785C15.8146 7.84491 15.7703 8.32013 15.7774 8.79719C15.7671 8.72271 15.7603 8.64761 15.7509 8.57313C15.7568 8.86214 15.7484 9.15115 15.7419 9.44016C15.7041 9.73009 15.7387 10.0243 15.6941 10.3136C15.6857 10.5032 15.6891 10.6931 15.6847 10.883C15.6354 11.2059 15.6782 11.5349 15.6342 11.8584C15.6254 12.1216 15.6233 12.385 15.622 12.6485L15.5974 12.6457C15.5927 12.9384 15.5986 13.2321 15.5699 13.5238C15.5552 13.8267 15.5746 14.1314 15.5349 14.4324C15.5234 14.7248 15.5271 15.0175 15.5212 15.3099C15.515 15.4201 15.5534 15.529 15.5318 15.6386C15.5246 15.574 15.5212 15.5087 15.5128 15.4444C15.4479 15.8531 15.4744 16.2683 15.4641 16.6802L15.4398 16.6746C15.4501 16.9895 15.4054 17.3022 15.4098 17.6171C15.4079 17.8303 15.3973 18.0436 15.4023 18.2569C15.3467 18.268 15.2906 18.2772 15.2341 18.2769C12.8962 18.2763 10.5583 18.2757 8.2207 18.2776C8.2232 18.2511 8.22601 18.2249 8.22882 18.1991C8.30903 18.0778 8.38143 17.9516 8.45633 17.827C8.62206 17.5506 8.7909 17.2757 8.95381 16.9978C9.00156 16.9193 9.04869 16.8408 9.09925 16.7645L9.10767 16.7414C9.20536 16.5838 9.29992 16.4244 9.39418 16.2653C9.41914 16.2243 9.44411 16.1834 9.4697 16.1431C9.48874 16.1104 9.50809 16.0778 9.52775 16.0455C9.77337 15.6346 10.024 15.2265 10.2659 14.8131C10.2861 14.7805 10.3067 14.7482 10.3264 14.715C10.474 14.4718 10.6213 14.2287 10.7658 13.9837C10.8105 13.9113 10.8535 13.8378 10.8969 13.7645C10.9525 13.6759 11.0065 13.5863 11.0604 13.4967C11.0795 13.4632 11.0985 13.4297 11.1182 13.3964C11.1928 13.2751 11.2658 13.153 11.3401 13.0317C11.6035 12.5869 11.8747 12.1465 12.1369 11.7014C12.2377 11.5405 12.3335 11.3767 12.4321 11.2145C12.4814 11.1336 12.5301 11.052 12.5778 10.9698C12.6955 10.775 12.8129 10.5796 12.9302 10.3841C12.9486 10.3527 12.9677 10.3213 12.9873 10.2906C13.017 10.2404 13.0466 10.1899 13.076 10.1394C13.1012 10.0988 13.1265 10.0585 13.1527 10.0185C13.3188 9.73101 13.4942 9.44847 13.6646 9.16315C13.6864 9.12745 13.7076 9.09113 13.7285 9.05481C13.8006 8.932 13.8787 8.81289 13.9467 8.68793C13.9723 8.64792 13.9976 8.6076 14.0235 8.56728C14.3349 8.04651 14.647 7.52574 14.9613 7.00651C15.0425 6.87047 15.123 6.73412 15.2066 6.59931C15.2257 6.56884 15.2441 6.53806 15.2628 6.50728C15.2815 6.47435 15.3006 6.44111 15.319 6.40787C15.4501 6.19642 15.5743 5.98066 15.7053 5.76922C15.725 5.73905 15.7434 5.70828 15.7625 5.6778ZM15.4525 6.71904C15.4323 6.74889 15.4126 6.77906 15.3939 6.80983C15.2007 7.14193 14.9953 7.46726 14.8021 7.79967C14.6149 8.10837 14.4283 8.41739 14.2438 8.72764C14.1698 8.84952 14.0943 8.97017 14.0241 9.09421C13.9486 9.21486 13.8758 9.33705 13.8034 9.45955C13.7788 9.49987 13.7541 9.54049 13.7295 9.58112C13.6636 9.69654 13.5906 9.80796 13.5244 9.92338C13.428 10.0865 13.3275 10.2469 13.2311 10.4103C13.0385 10.7338 12.8419 11.0554 12.6499 11.3795C12.5763 11.4992 12.502 11.6186 12.4333 11.7415C12.4074 11.7812 12.3825 11.8212 12.3572 11.8612C12.3297 11.9077 12.3023 11.9544 12.2751 12.0012C12.2539 12.036 12.2333 12.0708 12.213 12.1059C12.0382 12.3909 11.8697 12.6796 11.6952 12.9646C11.5514 13.2022 11.4116 13.442 11.2667 13.679C11.243 13.7174 11.219 13.7559 11.1946 13.7941L11.1897 13.8138C10.9955 14.124 10.8111 14.4401 10.6213 14.7531C10.5964 14.7934 10.5717 14.8341 10.5474 14.8747C10.4762 14.9987 10.4001 15.12 10.3258 15.2422C10.2559 15.3665 10.1791 15.4869 10.1048 15.6088C10.0798 15.6528 10.0546 15.6965 10.0293 15.7405C9.9366 15.895 9.84016 16.0477 9.74996 16.2037C9.67693 16.325 9.60266 16.4456 9.5315 16.5678C9.31116 16.9316 9.09176 17.296 8.87423 17.6617C8.84708 17.7048 8.82055 17.7488 8.79433 17.7928C8.76219 17.8457 8.72942 17.8987 8.69446 17.9504C8.69353 17.9692 8.6929 17.9885 8.69259 18.0082C10.837 18.0012 12.9814 18.0046 15.1258 18.0067C15.1305 17.811 15.1236 17.6143 15.1476 17.4198C15.1648 17.1923 15.143 16.9627 15.1798 16.7365C15.1954 16.4752 15.1832 16.2129 15.1969 15.9516C15.2222 15.7879 15.2166 15.622 15.2235 15.457C15.2731 15.1009 15.2303 14.7383 15.2625 14.3807C15.3002 14.1573 15.2647 13.9289 15.3018 13.7057C15.3096 13.3866 15.318 13.0674 15.3152 12.7485C15.3265 12.8224 15.3352 12.8969 15.3471 12.9711C15.3343 12.6728 15.3492 12.3746 15.3555 12.0766C15.3764 11.9535 15.3695 11.8283 15.373 11.7039C15.4226 11.5042 15.3917 11.2955 15.4057 11.092C15.3992 10.7055 15.4476 10.3216 15.4394 9.93538L15.4638 9.93846C15.4638 9.68484 15.4682 9.43123 15.4722 9.17762C15.514 8.90523 15.4881 8.62853 15.5097 8.3546C15.5303 8.26381 15.5256 8.16993 15.5265 8.0776C15.5275 7.84522 15.5371 7.61346 15.5356 7.38108L15.5599 7.38601C15.5543 7.0973 15.5827 6.80799 15.5615 6.51959C15.5253 6.58607 15.4894 6.65286 15.4525 6.71904Z" fill="#EB1C24"/>
<path d="M4.55065 8.24524C4.56438 8.24462 4.59153 8.24339 4.60526 8.24277C4.61962 8.28032 4.6346 8.31787 4.64958 8.35573C4.65925 8.38497 4.66893 8.41452 4.67829 8.44407C4.69421 8.48531 4.7095 8.52717 4.72448 8.56903C4.73634 8.5995 4.74883 8.62997 4.76131 8.66044C4.76412 8.67613 4.76974 8.70722 4.77223 8.72292C4.80282 8.78601 4.82654 8.85219 4.83746 8.92175L4.85182 8.9239C4.8824 9.03224 4.9236 9.1375 4.95918 9.24461C4.98508 9.31725 5.00911 9.39081 5.04282 9.46098C5.04532 9.47607 5.05031 9.50684 5.05281 9.52192C5.09525 9.62257 5.12677 9.72691 5.16454 9.82909C5.22102 9.99899 5.29156 10.1646 5.3365 10.3385L5.35117 10.3372C5.36771 10.4043 5.38737 10.4711 5.41452 10.5348C5.42825 10.5779 5.44261 10.621 5.45666 10.6644C5.47476 10.7127 5.49192 10.7617 5.51002 10.8106C5.54498 10.915 5.58305 11.0184 5.61863 11.1224C5.62987 11.1532 5.64079 11.184 5.65078 11.215C5.67606 11.2865 5.70165 11.3575 5.72662 11.429C5.7519 11.5031 5.77842 11.5767 5.80714 11.6496C5.81588 11.6847 5.8243 11.7198 5.8321 11.7552L5.85052 11.7537C5.86207 11.822 5.88235 11.8891 5.91294 11.9522C5.9223 11.983 5.93197 12.0141 5.94196 12.0454C5.96318 12.1008 5.98066 12.1572 5.99346 12.2153L6.00719 12.2147C6.03777 12.324 6.07741 12.4305 6.11424 12.5382C6.14888 12.6302 6.18227 12.7229 6.21068 12.8174C6.22753 12.8565 6.24407 12.8962 6.26092 12.9359C6.26186 12.9556 6.26373 12.9953 6.26467 13.015L6.28932 13.0128C6.30212 13.0605 6.31616 13.1082 6.33021 13.1559C6.35517 13.2166 6.37546 13.2787 6.39637 13.3412C6.42071 13.4117 6.44506 13.4825 6.47471 13.5514C6.47783 13.5674 6.48407 13.5998 6.48719 13.6158C6.50467 13.6561 6.5209 13.697 6.53681 13.7379C6.55772 13.8017 6.58051 13.8648 6.60423 13.9275C6.60516 13.9331 6.60672 13.9445 6.60766 13.95C6.62701 14.0005 6.64511 14.0513 6.6654 14.1017C6.68069 14.1445 6.6938 14.1879 6.70659 14.2316C6.73375 14.3027 6.7559 14.376 6.78462 14.4468C6.81645 14.5407 6.85047 14.6339 6.88511 14.7272L6.8901 14.7518C6.91445 14.8152 6.93661 14.8792 6.96001 14.9429C6.96938 14.9722 6.97874 15.0014 6.98779 15.0313C7.01369 15.1036 7.03772 15.1771 7.07081 15.247C7.07268 15.263 7.07642 15.2947 7.07798 15.3107C7.09109 15.3341 7.1042 15.3578 7.11731 15.3818C7.1273 15.4234 7.13697 15.4652 7.14602 15.5074L7.1635 15.5065C7.17629 15.5542 7.19003 15.6019 7.20345 15.6496C7.22779 15.7096 7.24995 15.7706 7.27024 15.8324C7.2952 15.9038 7.31892 15.9758 7.35044 16.0451C7.35325 16.0611 7.35887 16.0934 7.36168 16.1094C7.39195 16.1799 7.41723 16.2522 7.44782 16.323C7.44969 16.3363 7.45343 16.3633 7.45531 16.3766C5.03564 16.3794 2.61566 16.3766 0.195683 16.3781C0.130143 16.3781 0.0649156 16.3729 0 16.3649C0.0115475 16.3581 0.0349545 16.3446 0.046502 16.3378C0.0717817 16.2913 0.0976855 16.2452 0.122653 16.199C0.149805 16.1504 0.176645 16.102 0.203485 16.054C0.253108 15.9592 0.309285 15.8681 0.361405 15.7752C0.398232 15.701 0.439117 15.6287 0.480625 15.5573C0.528063 15.4729 0.577062 15.3898 0.621692 15.3043C0.674123 15.2116 0.728428 15.1199 0.778051 15.0257C0.854202 14.8958 0.925671 14.7635 1.00151 14.6333C1.04364 14.5502 1.08921 14.4689 1.13696 14.3889C1.18627 14.2944 1.2387 14.2018 1.29301 14.1101C1.36011 13.9854 1.43439 13.8651 1.49899 13.7392C1.59855 13.5662 1.69374 13.3905 1.79329 13.2175C1.86476 13.0842 1.94185 12.9543 2.01363 12.8217C2.06045 12.7377 2.10913 12.6546 2.1547 12.5702C2.25363 12.3966 2.34851 12.2206 2.44776 12.0473C2.51486 11.9257 2.58383 11.8051 2.65093 11.6838C2.67652 11.6398 2.70149 11.5958 2.72677 11.5521C2.75392 11.5004 2.78138 11.449 2.80916 11.3979C2.85629 11.3185 2.90123 11.2378 2.94555 11.1566C2.99673 11.0698 3.04791 10.983 3.09004 10.8916L3.10253 10.8906C3.16027 10.7617 3.23767 10.6429 3.30258 10.5176C3.4062 10.3422 3.50045 10.1618 3.60282 9.98576C3.69395 9.81986 3.78758 9.6555 3.88058 9.49053C3.90804 9.43913 3.93613 9.38773 3.96422 9.33633C4.01197 9.25662 4.0566 9.17474 4.10123 9.09318C4.14992 9.01008 4.19735 8.92636 4.2423 8.84141C4.31533 8.7103 4.39179 8.58134 4.46107 8.44837C4.48792 8.40498 4.51507 8.36158 4.54378 8.31911C4.54534 8.30064 4.54877 8.2637 4.55065 8.24524Z" fill="#EB1C24"/>
<path d="M16.2518 8.31758C16.2568 8.28249 16.2621 8.24771 16.2684 8.21324C16.2731 8.24556 16.2824 8.31081 16.2871 8.34313L16.3174 8.33143L16.3105 8.37083L16.3358 8.36836C16.3552 8.4687 16.3948 8.56319 16.4326 8.65768C16.46 8.74109 16.4912 8.82358 16.5227 8.90576C16.5449 8.967 16.5674 9.02795 16.5905 9.08889C16.6055 9.13136 16.6201 9.17353 16.6348 9.21631C16.6832 9.3308 16.7256 9.44776 16.7587 9.56749L16.7743 9.56688C16.7883 9.61489 16.8033 9.6626 16.8183 9.7103C16.8455 9.78048 16.871 9.85158 16.901 9.92113C16.9041 9.93622 16.911 9.96638 16.9141 9.98177C16.9381 10.0322 16.9569 10.0852 16.9762 10.1381C17.0099 10.2351 17.0602 10.3274 17.0736 10.4302L17.0923 10.4287C17.1051 10.481 17.1192 10.5327 17.132 10.585L17.1491 10.5813C17.1622 10.6293 17.1769 10.6774 17.1916 10.7251C17.2318 10.8273 17.2674 10.9316 17.3111 11.0325C17.312 11.039 17.3145 11.0516 17.3158 11.0578C17.328 11.0901 17.3404 11.1224 17.3526 11.1553C17.3957 11.268 17.4359 11.3816 17.4787 11.4945C17.4896 11.525 17.4999 11.5561 17.5102 11.5872C17.5567 11.7023 17.6048 11.8174 17.6332 11.9384L17.6491 11.9374C17.6622 11.9848 17.6769 12.0322 17.6909 12.0799C17.7187 12.1501 17.7446 12.2212 17.7774 12.2898C17.7789 12.3095 17.7817 12.3486 17.7833 12.3683L17.8064 12.3689C17.8198 12.4154 17.8339 12.4616 17.8476 12.5081C17.8648 12.5478 17.8807 12.5881 17.8972 12.6287C17.9181 12.69 17.9403 12.7509 17.9659 12.8109C17.9818 12.858 17.9958 12.9057 18.0086 12.9543L18.0233 12.9556C18.067 13.1079 18.1278 13.2547 18.1856 13.4028C18.1862 13.4086 18.1878 13.4206 18.1884 13.4265C18.2449 13.5696 18.2986 13.7143 18.3491 13.8598C18.3654 13.9005 18.3806 13.9414 18.3966 13.9827C18.4178 14.0439 18.4399 14.1048 18.4655 14.1646C18.4802 14.2119 18.4942 14.2597 18.5077 14.308L18.5236 14.3067C18.5364 14.3541 18.5501 14.4009 18.5648 14.448C18.5888 14.5013 18.6085 14.5567 18.6291 14.6118C18.6475 14.6601 18.6653 14.7087 18.6852 14.757C18.6865 14.7635 18.6896 14.7761 18.6909 14.7826C18.7021 14.814 18.7133 14.8454 18.7246 14.8771C18.7408 14.9171 18.7561 14.9571 18.772 14.9977C18.7932 15.0596 18.8148 15.1211 18.8372 15.183C18.8569 15.2347 18.8759 15.2864 18.8965 15.3381C18.9231 15.4108 18.949 15.484 18.9749 15.5576C18.9905 15.5967 19.007 15.6358 19.0245 15.6748C19.0379 15.7219 19.0523 15.7693 19.066 15.817L19.0816 15.81C19.1019 15.906 19.14 15.9968 19.1656 16.0916H19.1843C19.1965 16.1436 19.2099 16.1956 19.2224 16.2482L19.2461 16.2452C19.2498 16.2889 19.2542 16.3329 19.2586 16.3772C18.1497 16.3778 17.0408 16.3787 15.9316 16.3766C15.9438 16.1131 15.9307 15.8484 15.9647 15.5862C15.9691 15.3344 15.9747 15.0827 15.975 14.8312L15.9991 14.8334C16.004 14.561 15.9975 14.2877 16.0262 14.0162C16.0368 13.7601 16.0293 13.5031 16.0452 13.2474C16.0886 13.0024 16.0471 12.7515 16.0868 12.5068C16.1067 12.2323 16.0811 11.9553 16.1239 11.6829C16.1298 11.3154 16.1345 10.9476 16.1389 10.5801C16.1476 10.5847 16.1654 10.594 16.1741 10.5986C16.1548 10.477 16.1654 10.3542 16.181 10.2329C16.1985 9.96576 16.1741 9.69645 16.2169 9.43145C16.2275 9.05842 16.2344 8.68507 16.2319 8.31173L16.2518 8.31758Z" fill="#EB1C24"/>
<path d="M5.39282 9.01759C7.98476 9.0179 10.5767 9.01944 13.1683 9.01667C13.1637 9.03883 13.1587 9.0613 13.1543 9.08407C13.1253 9.12316 13.0984 9.1641 13.0722 9.20503C13.0357 9.27121 12.9961 9.33553 12.9564 9.39986C12.9046 9.48973 12.8516 9.57899 12.7954 9.6664C12.6999 9.83291 12.595 9.99388 12.5017 10.1616C12.3544 10.3943 12.2214 10.6356 12.0732 10.868L12.0657 10.8898C12.0158 10.9649 11.9696 11.0422 11.9243 11.1201C11.905 11.1524 11.8859 11.1847 11.8672 11.2173C11.8126 11.3072 11.758 11.3971 11.704 11.4873C11.6843 11.5196 11.6647 11.5516 11.645 11.5839C11.5002 11.8286 11.3535 12.072 11.2059 12.3152C11.1088 12.4845 11.0012 12.6476 10.9082 12.819C10.8819 12.8581 10.856 12.8978 10.8301 12.9372C10.6947 13.177 10.5455 13.4087 10.4079 13.6473C10.3345 13.7698 10.2584 13.8907 10.1866 14.0142C10.1354 14.0994 10.083 14.1841 10.034 14.2705C9.98716 14.3478 9.93879 14.4241 9.89478 14.5029C9.87418 14.5359 9.85358 14.5688 9.83361 14.602C9.8049 14.6476 9.77743 14.6934 9.75122 14.7405C9.69598 14.8246 9.64635 14.9126 9.5958 15C9.52401 15.1062 9.46659 15.221 9.39574 15.3278C9.36953 15.3739 9.34269 15.4201 9.31616 15.4663C9.14856 15.7424 8.98159 16.0188 8.81681 16.2964C8.77062 16.3736 8.72443 16.4509 8.67637 16.5269C8.64984 16.5728 8.62362 16.6183 8.59741 16.6642C8.50284 16.8227 8.3986 16.9763 8.31652 17.1416C8.29249 17.1394 8.26877 17.1375 8.24505 17.136C8.23694 17.0566 8.21353 16.98 8.17421 16.9104L8.17046 16.8304L8.14768 16.8341C8.11865 16.7233 8.07746 16.6165 8.04032 16.5084C8.0063 16.4167 7.97166 16.3253 7.94326 16.232C7.92703 16.192 7.91205 16.1514 7.89738 16.1111C7.88677 16.0803 7.87616 16.0498 7.86492 16.02C7.85088 15.9769 7.83652 15.9344 7.82185 15.8923C7.78658 15.8005 7.75475 15.7076 7.72354 15.6149C7.69889 15.5555 7.67766 15.4952 7.65925 15.434C7.63834 15.3819 7.62149 15.3287 7.6037 15.2758C7.57717 15.2053 7.55407 15.1336 7.52661 15.0634C7.49602 14.9711 7.46263 14.8803 7.42799 14.7898C7.39522 14.6845 7.35652 14.5814 7.32125 14.4774C7.2838 14.382 7.24604 14.2862 7.22513 14.1859L7.20921 14.1881C7.1961 14.1403 7.18237 14.0926 7.16895 14.0452C7.14336 13.9846 7.12182 13.9227 7.10091 13.8609C7.07626 13.7892 7.0516 13.7178 7.02133 13.6482C7.01852 13.6331 7.01228 13.6027 7.00916 13.5873C6.98669 13.5356 6.96734 13.4826 6.94799 13.4297C6.92552 13.3681 6.90492 13.3056 6.88338 13.2441C6.84781 13.149 6.81191 13.0536 6.78788 12.9551L6.77259 12.9541C6.75948 12.9071 6.74544 12.8603 6.73139 12.8135C6.70674 12.7532 6.68676 12.6913 6.66648 12.6297C6.61748 12.498 6.57191 12.3654 6.52416 12.2336C6.49857 12.1607 6.47204 12.0877 6.44801 12.0142C6.41337 11.9222 6.37998 11.8298 6.35064 11.7362C6.30663 11.6251 6.26793 11.5119 6.22986 11.3986C6.21145 11.3497 6.19459 11.3001 6.17743 11.2512C6.15839 11.1986 6.13904 11.1456 6.11938 11.0936C6.08442 10.9905 6.04635 10.8886 6.01264 10.7852C5.99423 10.7353 5.97675 10.6852 5.95927 10.6353C5.92307 10.526 5.87563 10.4205 5.85129 10.3078L5.83568 10.3106C5.82258 10.2626 5.80822 10.2152 5.79386 10.1675C5.7689 10.1025 5.74736 10.0364 5.7277 9.96988H5.70523C5.70523 9.9511 5.70398 9.91263 5.70336 9.89355C5.68401 9.85323 5.66497 9.8126 5.64624 9.77228C5.64343 9.75658 5.63813 9.7258 5.63563 9.71042C5.61285 9.65778 5.59287 9.60361 5.57259 9.55037C5.54918 9.48573 5.52983 9.41987 5.51017 9.35431L5.49644 9.35369C5.47334 9.25366 5.43683 9.15733 5.39563 9.06345C5.39501 9.05207 5.39345 9.02898 5.39282 9.01759Z" fill="#EB1C24"/>
<path d="M17.0627 9.01622C19.375 9.02022 21.6873 9.01622 23.9996 9.01807C23.9828 9.06485 23.9634 9.11071 23.9416 9.15565C23.8892 9.26091 23.8336 9.36556 23.794 9.47636L23.7765 9.47728C23.7628 9.51791 23.7487 9.55854 23.7362 9.59947L23.7194 9.60347C23.7016 9.64902 23.6822 9.69427 23.661 9.73828C23.6304 9.79799 23.6011 9.85862 23.5746 9.91987C23.5477 9.97066 23.5218 10.0221 23.4953 10.0728C23.4813 10.1101 23.4672 10.147 23.4541 10.1846L23.4391 10.1861C23.4201 10.232 23.4004 10.2775 23.3795 10.3225C23.3237 10.4333 23.2722 10.5459 23.2172 10.657C23.1926 10.7115 23.1635 10.7641 23.1395 10.8192C23.1186 10.8605 23.0993 10.9023 23.0805 10.9448C23.0543 10.9953 23.0293 11.0467 23.0031 11.0971C22.9535 11.1981 22.9064 11.3 22.8574 11.4012C22.8368 11.4456 22.8174 11.4905 22.799 11.5357C22.7953 11.5376 22.7878 11.5407 22.7837 11.5422C22.7669 11.5902 22.745 11.6364 22.7179 11.6795C22.7141 11.693 22.7066 11.7201 22.7032 11.7336C22.6745 11.7773 22.6536 11.8254 22.6367 11.8746H22.6189C22.6071 11.9159 22.5943 11.9568 22.5831 11.9983H22.5634C22.5456 12.0464 22.5259 12.0938 22.4988 12.1375C22.4938 12.1516 22.4841 12.1796 22.4791 12.1938C22.4245 12.2818 22.3883 12.3794 22.3437 12.4726C22.2756 12.6084 22.2095 12.7453 22.1452 12.8832C22.124 12.9248 22.1031 12.9666 22.0834 13.0091C22.0459 13.0876 22.0085 13.1661 21.9679 13.243C21.9529 13.28 21.9383 13.3169 21.9248 13.3544L21.9099 13.3594C21.8918 13.4052 21.8727 13.4508 21.8509 13.4951C21.8169 13.5588 21.7872 13.6247 21.7638 13.6927L21.7473 13.6893C21.7332 13.7256 21.7195 13.7619 21.7064 13.7986C21.6037 14.0011 21.507 14.2067 21.409 14.4114C21.364 14.5089 21.3125 14.6034 21.2691 14.7016C21.2136 14.8118 21.163 14.9241 21.1084 15.0349C21.0853 15.0786 21.0653 15.1239 21.0475 15.1701L21.0329 15.1725C21.0188 15.2094 21.0045 15.2464 20.9904 15.2839C20.9336 15.3969 20.8718 15.5083 20.8294 15.6277L20.8097 15.6305C20.7979 15.6711 20.7854 15.7118 20.7742 15.7527L20.7539 15.7548C20.7214 15.8419 20.6805 15.9257 20.6331 16.006C20.6275 16.0232 20.6156 16.0577 20.6097 16.0746C20.5825 16.1254 20.556 16.1765 20.5298 16.2276C20.5023 16.2888 20.4724 16.3492 20.444 16.4104C20.3332 16.652 20.2043 16.8866 20.1053 17.1337C20.0829 17.1349 20.0607 17.1368 20.0385 17.1389C20.0267 17.0278 19.9796 16.9257 19.9371 16.8235C19.9224 16.7804 19.9078 16.7373 19.8934 16.6945C19.8722 16.6431 19.8529 16.5908 19.8338 16.5391C19.7948 16.436 19.7574 16.3329 19.7168 16.2307C19.7146 16.2245 19.7102 16.2125 19.7077 16.2067C19.6962 16.1688 19.6859 16.131 19.6771 16.0931L19.6597 16.094C19.6503 16.0589 19.6406 16.0238 19.6313 15.9894C19.6007 15.9066 19.5698 15.8238 19.5367 15.7419C19.5261 15.7118 19.5155 15.6816 19.5049 15.6517C19.4743 15.5671 19.4424 15.4828 19.4109 15.3987C19.3841 15.3283 19.3576 15.2575 19.3338 15.1864C19.3173 15.1451 19.3017 15.1039 19.2861 15.0629C19.2602 14.9903 19.2337 14.9177 19.2065 14.8453C19.1912 14.8056 19.1759 14.7656 19.1603 14.7268C19.145 14.6834 19.1297 14.6407 19.1144 14.5979C19.0626 14.4548 19.0077 14.3126 18.9556 14.1698C18.9322 14.1144 18.9147 14.0565 18.8982 13.9992L18.8829 14.0014C18.8626 13.9066 18.8201 13.8189 18.7995 13.7244H18.7839C18.7702 13.6776 18.7558 13.6314 18.7421 13.5853C18.7034 13.4954 18.67 13.4034 18.6397 13.3107C18.6135 13.2498 18.5907 13.187 18.567 13.1254C18.5527 13.0836 18.538 13.0417 18.5236 12.9999C18.4968 12.9358 18.4753 12.87 18.4569 12.8032L18.4431 12.8013C18.4278 12.753 18.4125 12.705 18.3966 12.6573C18.3848 12.6274 18.3741 12.5973 18.3642 12.5671C18.3046 12.4157 18.2487 12.263 18.1934 12.1101C18.1847 12.0879 18.176 12.0661 18.1675 12.0445C18.1151 11.9005 18.0642 11.7558 18.0056 11.6142C17.9918 11.5727 17.9781 11.5317 17.9644 11.4911C17.9294 11.4015 17.8954 11.312 17.8633 11.2218C17.842 11.1679 17.8221 11.1138 17.803 11.0596C17.7578 10.9368 17.7178 10.8118 17.6607 10.694C17.6591 10.6743 17.656 10.6349 17.6545 10.6155L17.6295 10.6176C17.617 10.565 17.6033 10.5127 17.5908 10.4603C17.5858 10.46 17.5761 10.4594 17.5714 10.4591C17.548 10.3582 17.5065 10.2631 17.4681 10.1673C17.4672 10.1609 17.4656 10.1479 17.4647 10.1415C17.4522 10.1098 17.4401 10.0784 17.4285 10.047C17.4126 10.0067 17.3973 9.96604 17.3826 9.92572C17.3467 9.81615 17.2952 9.71181 17.27 9.59916L17.2562 9.59855C17.2306 9.51021 17.1994 9.42311 17.1642 9.33816C17.1348 9.26245 17.1089 9.18581 17.0868 9.10794L17.0605 9.10732C17.0612 9.07685 17.0618 9.04638 17.0627 9.01622Z" fill="#EB1C24"/>
</g>
<defs>
<clipPath id="clip0_4_5330">
<rect width="24.0005" height="12.8115" fill="white" transform="translate(0 5.46605)"/>
</clipPath>
</defs>
</svg>
