<svg width="24" height="24" viewBox="0 0 24 24" fill="none" xmlns="http://www.w3.org/2000/svg">
<path d="M11.0403 2.41792C11.5072 1.86656 12.4345 1.86326 12.9211 2.39151C14.3712 3.78476 15.7423 5.25725 17.2154 6.62739C15.3905 6.73964 13.2565 6.17508 11.7111 7.43627C10.5274 8.55219 10.9351 10.3482 10.8562 11.8009C10.9482 13.4286 10.4452 15.4788 11.8821 16.6707C13.4571 17.6876 15.4497 17.2386 17.2121 17.3211C15.6765 18.721 14.2988 20.2925 12.7567 21.6857C12.2569 22.2305 11.4579 21.9994 11.0173 21.5108C8.19608 18.7077 5.39789 15.8816 2.57998 13.0753C2.021 12.6494 1.75466 11.7547 2.29391 11.2033C3.09621 10.3284 3.89851 9.4304 4.83563 8.69746C6.41392 8.58191 8.06784 8.85924 9.58038 8.25175C10.2643 7.94801 10.5931 7.23488 10.9745 6.6373C9.57709 6.60428 8.17964 6.61419 6.78219 6.63069C8.2191 5.24404 9.60339 3.80457 11.0403 2.41792Z" fill="white"/>
<path d="M13.2562 9.83556C13.2331 9.20496 13.7724 8.68662 14.3971 8.70973C16.0116 8.60739 17.6359 8.67672 19.2537 8.68993C20.1382 9.74972 21.3811 10.5388 22.0223 11.7835C22.0913 12.7574 21.0556 13.2956 20.5196 13.9724C19.9442 14.4313 19.5365 15.3458 18.6947 15.2666C17.1953 15.26 15.6894 15.3326 14.1966 15.2105C13.6178 15.1874 13.2331 14.6096 13.2463 14.0681C13.1937 12.6584 13.1805 11.242 13.2562 9.83556Z" fill="white"/>
</svg>
