<svg width="24" height="24" viewBox="0 0 24 24" fill="none" xmlns="http://www.w3.org/2000/svg">
<g clip-path="url(#clip0_4_5298)">
<path d="M8.07204 9.67286C7.80018 9.17097 7.40285 8.75273 6.92188 8.46694C6.41999 8.17417 5.84142 8.02081 5.19315 8.02081H1.7357H1.67296L1.65902 8.08355L0.0209112 16.0162L0 16.1068H0.097589H4.55882C6.61517 16.1068 7.59106 14.1689 7.91171 13.5346C8.23933 12.8794 8.46239 11.9871 8.46239 11.311C8.46937 10.7324 8.32995 10.1608 8.07204 9.67286ZM3.81296 12.3914L3.84084 12.2729L3.88266 12.0777C4.02905 11.3458 4.16846 10.6766 4.3009 10.0144C4.35667 10.0144 4.43335 10.0144 4.43335 10.0144C4.69823 10.0144 4.95615 10.0214 5.15133 10.1469C5.54865 10.3908 5.72292 11.0879 5.59745 11.9523C5.46501 12.8863 4.98403 13.925 4.32182 14.1062C4.27999 14.1202 4.18937 14.1341 3.98722 14.1341C3.81296 14.1341 3.61778 14.1271 3.48534 14.1202C3.48534 14.1202 3.47139 14.1202 3.45745 14.1202C3.57595 13.5416 3.69445 12.9561 3.81296 12.3914Z" fill="#AC6A18"/>
<path d="M8.00128 9.70782C7.7364 9.2129 7.35301 8.8086 6.87901 8.52978C6.39106 8.24398 5.81947 8.0976 5.19211 8.0976H1.73465L2.04136 8.47401H5.19211C5.77764 8.47401 6.27953 8.61342 6.6908 8.8574C7.11601 9.10834 7.44363 9.46385 7.66669 9.88209C7.88975 10.3073 8.01523 10.7952 8.01523 11.3111C8.01523 11.9106 7.81308 12.7261 7.51334 13.3256C7.08813 14.1621 6.20982 15.6468 4.56474 15.6468H0.563578L0.103516 16.0233H4.56474C6.57927 16.0233 7.53425 14.1203 7.84793 13.4929C8.17555 12.8446 8.39164 11.9663 8.39164 11.3041C8.39164 10.7395 8.2592 10.1888 8.00128 9.70782Z" fill="url(#paint0_linear_4_5298)"/>
<path d="M2.90039 14.5524L3.24892 14.5593C3.30469 14.5593 3.38137 14.5663 3.46502 14.5663C3.61837 14.5733 3.81355 14.5802 3.98782 14.5802C4.20391 14.5802 4.34332 14.5663 4.44091 14.5384C5.33316 14.2944 5.89778 13.0537 6.04416 12.0081C6.19752 10.9416 5.94657 10.0981 5.38195 9.74957C5.08221 9.56834 4.74762 9.55439 4.42697 9.55439H4.27361C4.23876 9.55439 4.19694 9.55439 4.16208 9.55439L3.91811 9.54742L4.22482 9.93081C4.23876 9.93081 4.42697 9.93081 4.42697 9.93081C4.7058 9.93081 4.97068 9.94475 5.18677 10.0702C5.61198 10.3351 5.80019 11.0531 5.66775 11.9593C5.53531 12.9143 5.03342 13.9877 4.33635 14.176C4.27361 14.1969 4.14814 14.2038 3.98084 14.2038C3.81355 14.2038 3.62534 14.1969 3.47896 14.1899C3.47896 14.1899 3.38834 14.1829 3.36046 14.1829L2.90039 14.5524Z" fill="url(#paint1_linear_4_5298)"/>
<path d="M15.378 13.6741H12.4155L13.5656 8.10449L13.5865 8.0069H13.4889H10.4916H10.4288L10.4149 8.06963L8.77677 16.0232L8.75586 16.1208H8.85345H14.904H14.9667L14.9807 16.058L15.4547 13.7647L15.4756 13.6741H15.378Z" fill="#AC6A18"/>
<path d="M14.9041 16.0371H8.85352L9.32752 15.6537H14.5834L14.9041 16.0371Z" fill="url(#paint2_linear_4_5298)"/>
<path d="M14.9039 14.1411H11.8438L12.3178 13.7507H15.3779L14.9039 14.1411Z" fill="url(#paint3_linear_4_5298)"/>
<path d="M13.0136 8.47402H10.8109L10.4902 8.09064H13.4876L13.0136 8.47402Z" fill="url(#paint4_linear_4_5298)"/>
<path d="M9.32752 15.6538L8.85352 16.0372L10.4916 8.09064L10.8123 8.47402L9.32752 15.6538Z" fill="url(#paint5_linear_4_5298)"/>
<path d="M12.3178 13.7508L11.8438 14.1412L13.0148 8.47402L13.4888 8.09064L12.3178 13.7508Z" fill="url(#paint6_linear_4_5298)"/>
<path d="M14.9027 16.0371L14.582 15.6537L14.9027 14.1411L15.3767 13.7507L14.9027 16.0371Z" fill="url(#paint7_linear_4_5298)"/>
<path d="M9.26367 15.7095L10.7624 8.41821H13.0766L11.9125 14.0854H14.9657L14.6311 15.7095H9.26367Z" fill="url(#paint8_linear_4_5298)"/>
<path d="M13.0137 8.47394H10.8109L9.32617 15.6537H14.5821L14.9027 14.1411H12.2051H11.8426L11.9193 13.7856L13.0137 8.47394Z" fill="url(#paint9_linear_4_5298)"/>
<path d="M0.563007 15.6537L0.0820312 16.0441L1.72014 8.08356L2.04079 8.47391L0.563007 15.6537Z" fill="url(#paint10_linear_4_5298)"/>
<path d="M3.38137 14.1759L2.90039 14.5524L3.92508 9.55438L4.24573 9.95171L3.38137 14.1759Z" fill="url(#paint11_linear_4_5298)"/>
<path d="M0.494141 15.7095L1.99981 8.42517H5.19238C5.76397 8.42517 6.2798 8.55761 6.71895 8.81553C7.13719 9.0595 7.48573 9.42198 7.71576 9.86113C7.94579 10.2933 8.06429 10.7952 8.06429 11.318C8.06429 11.9314 7.86214 12.754 7.55543 13.3604C7.26266 13.939 6.37042 15.7095 4.55804 15.7095H0.494141ZM3.25453 14.5106C3.30332 14.5106 3.37303 14.5175 3.44274 14.5175H3.47062C3.62397 14.5245 3.81915 14.5315 3.98645 14.5315C4.19557 14.5315 4.32801 14.5175 4.4256 14.4897C5.29694 14.2527 5.84762 13.0328 5.994 12.0081C6.14039 10.9625 5.90338 10.14 5.35967 9.80536C5.07387 9.6311 4.74625 9.61716 4.43257 9.61716C4.43257 9.61716 4.20951 9.61716 4.16769 9.61716L3.97251 9.61019L3.93068 9.80536C3.77733 10.5303 3.63094 11.2622 3.48456 12.0011L3.44274 12.1963C3.30332 12.8725 3.16391 13.5556 3.0245 14.2248L2.96873 14.5036L3.25453 14.5106Z" fill="url(#paint12_linear_4_5298)"/>
<path d="M7.66757 9.88201C7.44451 9.4568 7.10991 9.1013 6.69167 8.85732C6.2804 8.61335 5.77852 8.47394 5.19298 8.47394H2.04224L0.564453 15.6537H4.56562C6.2107 15.6537 7.09597 14.169 7.51421 13.3325C7.82092 12.726 8.0161 11.9105 8.0161 11.318C8.0161 10.8021 7.8976 10.3072 7.66757 9.88201ZM6.05037 12.015C5.90399 13.0606 5.33936 14.2944 4.44712 14.5454C4.34256 14.5733 4.20314 14.5872 3.99402 14.5872C3.81976 14.5872 3.62458 14.5802 3.47122 14.5733C3.38758 14.5663 3.31787 14.5663 3.25513 14.5663L2.9066 14.5593L2.97631 14.2178C3.12966 13.4859 3.28301 12.74 3.4294 11.9941C3.57578 11.2622 3.72914 10.5233 3.87552 9.79837L3.92432 9.56136L4.16829 9.56833C4.20314 9.56833 4.24497 9.56833 4.27982 9.56833H4.43318C4.75383 9.56833 5.08842 9.58227 5.38816 9.76351C5.95278 10.1051 6.19676 10.9485 6.05037 12.015Z" fill="url(#paint13_linear_4_5298)"/>
<path d="M23.8675 8.00697H20.668H20.6261L20.6052 8.04879L19.239 10.5722L19.1135 8.07668V8H19.0368H15.8582H15.7676L15.7815 8.09062L17.0153 16.0511L17.0293 16.1208H17.092H18.9741H19.0159L19.0438 16.079L23.9302 8.12547L23.9999 8.00697H23.8675Z" fill="#AC6A18"/>
<path d="M18.9739 16.0371H17.0918L17.4264 15.6537H18.7578L18.9739 16.0371Z" fill="url(#paint14_linear_4_5298)"/>
<path d="M18.6666 8.46694H16.3105L15.8574 8.08356H19.036L18.6666 8.46694Z" fill="url(#paint15_linear_4_5298)"/>
<path d="M17.4258 15.6537L17.0912 16.0371L15.8574 8.08356L16.3105 8.46694L17.4258 15.6537Z" fill="url(#paint16_linear_4_5298)"/>
<path d="M19.1768 10.8509L18.8562 12.252L18.668 8.46694L19.0374 8.08356L19.1768 10.8509Z" fill="url(#paint17_linear_4_5298)"/>
<path d="M18.7578 15.6538L18.9739 16.0372L23.8673 8.09064L23.1702 8.47402L18.7578 15.6538Z" fill="url(#paint18_linear_4_5298)"/>
<path d="M19.1742 10.851L18.8535 12.2521L20.9029 8.47402L20.6659 8.09064L19.1742 10.851Z" fill="url(#paint19_linear_4_5298)"/>
<path d="M23.1704 8.47402H20.905L20.668 8.09064H23.8675L23.1704 8.47402Z" fill="url(#paint20_linear_4_5298)"/>
<path d="M17.3773 15.7095L16.248 8.41125H18.7226L18.8969 12.0569L20.8696 8.41823H23.2675L18.7854 15.7095H17.3773Z" fill="url(#paint21_linear_4_5298)"/>
<path d="M18.6647 8.46698H16.3086L17.4239 15.6537H18.7553L23.1677 8.47395H20.9023L19.3548 11.3319L18.8529 12.2521L18.8041 11.2134L18.6647 8.46698Z" fill="url(#paint22_linear_4_5298)"/>
</g>
<defs>
<linearGradient id="paint0_linear_4_5298" x1="0.92374" y1="11.6161" x2="8.04692" y2="13.2606" gradientUnits="userSpaceOnUse">
<stop stop-color="#EBBB1B"/>
<stop offset="0.1472" stop-color="#F0CD63"/>
<stop offset="0.4233" stop-color="#DD962E"/>
<stop offset="0.5215" stop-color="#E5AB1D"/>
<stop offset="0.7055" stop-color="#F7EC75"/>
<stop offset="0.8405" stop-color="#E6B150"/>
<stop offset="1" stop-color="#B35512"/>
</linearGradient>
<linearGradient id="paint1_linear_4_5298" x1="4.55353" y1="14.5688" x2="4.37788" y2="9.53862" gradientUnits="userSpaceOnUse">
<stop stop-color="#EBBB1B"/>
<stop offset="0.2454" stop-color="#FFF081"/>
<stop offset="0.5215" stop-color="#DA8D23"/>
<stop offset="0.773" stop-color="#F7EC78"/>
<stop offset="1" stop-color="#B35512"/>
</linearGradient>
<linearGradient id="paint2_linear_4_5298" x1="8.85319" y1="15.847" x2="14.9014" y2="15.847" gradientUnits="userSpaceOnUse">
<stop stop-color="#DA8E1B"/>
<stop offset="1" stop-color="#9D4C12"/>
</linearGradient>
<linearGradient id="paint3_linear_4_5298" x1="11.8456" y1="13.9446" x2="15.3789" y2="13.9446" gradientUnits="userSpaceOnUse">
<stop stop-color="#C86511"/>
<stop offset="1" stop-color="#ECC01B"/>
</linearGradient>
<linearGradient id="paint4_linear_4_5298" x1="10.4922" y1="8.28076" x2="13.4873" y2="8.28076" gradientUnits="userSpaceOnUse">
<stop stop-color="#C86A12"/>
<stop offset="0.5215" stop-color="#EEC91B"/>
<stop offset="1" stop-color="#FFF3B6"/>
</linearGradient>
<linearGradient id="paint5_linear_4_5298" x1="12.0051" y1="10.9266" x2="7.44395" y2="13.1513" gradientUnits="userSpaceOnUse">
<stop stop-color="#FFF3B6"/>
<stop offset="0.4785" stop-color="#EEC91B"/>
<stop offset="1" stop-color="#C86A12"/>
</linearGradient>
<linearGradient id="paint6_linear_4_5298" x1="11.6823" y1="10.4484" x2="13.6523" y2="11.7772" gradientUnits="userSpaceOnUse">
<stop stop-color="#C86A12"/>
<stop offset="1" stop-color="#EEC91B"/>
</linearGradient>
<linearGradient id="paint7_linear_4_5298" x1="14.793" y1="13.8861" x2="15.2707" y2="15.9549" gradientUnits="userSpaceOnUse">
<stop stop-color="#C86A12"/>
<stop offset="1" stop-color="#E5AB1D"/>
</linearGradient>
<linearGradient id="paint8_linear_4_5298" x1="9.02481" y1="12.3206" x2="14.816" y2="11.9157" gradientUnits="userSpaceOnUse">
<stop stop-color="#FFF3B0"/>
<stop offset="0.3313" stop-color="#DC952E"/>
<stop offset="0.7117" stop-color="#FFF2A5"/>
<stop offset="0.8827" stop-color="#F1CE5D"/>
<stop offset="1" stop-color="#E9B730"/>
</linearGradient>
<linearGradient id="paint9_linear_4_5298" x1="12.1144" y1="15.6534" x2="12.1144" y2="8.47423" gradientUnits="userSpaceOnUse">
<stop stop-color="#E09F1E"/>
<stop offset="0.2667" stop-color="#BC671A"/>
<stop offset="0.4121" stop-color="#A24A13"/>
<stop offset="0.4124" stop-color="#AE5A19"/>
<stop offset="0.4128" stop-color="#BF7021"/>
<stop offset="0.4133" stop-color="#CC8127"/>
<stop offset="0.4139" stop-color="#D58C2B"/>
<stop offset="0.4148" stop-color="#DB932D"/>
<stop offset="0.4172" stop-color="#DC952E"/>
<stop offset="0.4182" stop-color="#DC962E"/>
<stop offset="0.4508" stop-color="#E5AD25"/>
<stop offset="0.4883" stop-color="#ECBE1F"/>
<stop offset="0.5337" stop-color="#F0CB1A"/>
<stop offset="0.5945" stop-color="#F3D218"/>
<stop offset="0.7362" stop-color="#F4D417"/>
<stop offset="0.8405" stop-color="#F3D11A"/>
<stop offset="0.9267" stop-color="#EFC623"/>
<stop offset="1" stop-color="#E9B730"/>
</linearGradient>
<linearGradient id="paint10_linear_4_5298" x1="3.23709" y1="10.925" x2="-1.32916" y2="13.1521" gradientUnits="userSpaceOnUse">
<stop stop-color="#C86A12"/>
<stop offset="0.5215" stop-color="#EEC91B"/>
<stop offset="1" stop-color="#B35F15"/>
</linearGradient>
<linearGradient id="paint11_linear_4_5298" x1="4.9139" y1="11.3224" x2="2.01624" y2="12.7357" gradientUnits="userSpaceOnUse">
<stop stop-color="#AB5E14"/>
<stop offset="0.5215" stop-color="#DA8D23"/>
<stop offset="1" stop-color="#B35512"/>
</linearGradient>
<linearGradient id="paint12_linear_4_5298" x1="0.256956" y1="12.2786" x2="8.10595" y2="11.7298" gradientUnits="userSpaceOnUse">
<stop stop-color="#FFF3B0"/>
<stop offset="0.3313" stop-color="#DC952E"/>
<stop offset="0.7117" stop-color="#FFF2A5"/>
<stop offset="0.8827" stop-color="#F1CE5D"/>
<stop offset="1" stop-color="#E9B730"/>
</linearGradient>
<linearGradient id="paint13_linear_4_5298" x1="4.28952" y1="15.6534" x2="4.28952" y2="8.47423" gradientUnits="userSpaceOnUse">
<stop stop-color="#E09F1E"/>
<stop offset="0.2667" stop-color="#BC671A"/>
<stop offset="0.4121" stop-color="#A24A13"/>
<stop offset="0.4124" stop-color="#AE5A19"/>
<stop offset="0.4128" stop-color="#BF7021"/>
<stop offset="0.4133" stop-color="#CC8127"/>
<stop offset="0.4139" stop-color="#D58C2B"/>
<stop offset="0.4148" stop-color="#DB932D"/>
<stop offset="0.4172" stop-color="#DC952E"/>
<stop offset="0.4182" stop-color="#DC962E"/>
<stop offset="0.4508" stop-color="#E5AD25"/>
<stop offset="0.4883" stop-color="#ECBE1F"/>
<stop offset="0.5337" stop-color="#F0CB1A"/>
<stop offset="0.5945" stop-color="#F3D218"/>
<stop offset="0.7362" stop-color="#F4D417"/>
<stop offset="0.8405" stop-color="#F3D11A"/>
<stop offset="0.9267" stop-color="#EFC623"/>
<stop offset="1" stop-color="#E9B730"/>
</linearGradient>
<linearGradient id="paint14_linear_4_5298" x1="17.095" y1="15.847" x2="18.9751" y2="15.847" gradientUnits="userSpaceOnUse">
<stop stop-color="#DA8E1B"/>
<stop offset="1" stop-color="#9D4C12"/>
</linearGradient>
<linearGradient id="paint15_linear_4_5298" x1="15.8595" y1="8.27407" x2="19.0364" y2="8.27407" gradientUnits="userSpaceOnUse">
<stop stop-color="#C86A12"/>
<stop offset="0.5215" stop-color="#EEC91B"/>
<stop offset="1" stop-color="#FFF3B6"/>
</linearGradient>
<linearGradient id="paint16_linear_4_5298" x1="17.759" y1="11.4352" x2="15.4076" y2="12.582" gradientUnits="userSpaceOnUse">
<stop stop-color="#FFF3B6"/>
<stop offset="0.4785" stop-color="#EEC91B"/>
<stop offset="1" stop-color="#C86A12"/>
</linearGradient>
<linearGradient id="paint17_linear_4_5298" x1="18.3715" y1="8.28409" x2="19.5232" y2="12.0511" gradientUnits="userSpaceOnUse">
<stop stop-color="#B35F15"/>
<stop offset="0.5215" stop-color="#DD971D"/>
<stop offset="0.7058" stop-color="#C06E12"/>
<stop offset="0.8982" stop-color="#A54809"/>
<stop offset="1" stop-color="#9B3A05"/>
</linearGradient>
<linearGradient id="paint18_linear_4_5298" x1="24.9611" y1="10.3366" x2="17.8558" y2="13.8021" gradientUnits="userSpaceOnUse">
<stop stop-color="#C86A12"/>
<stop offset="0.2218" stop-color="#C27317"/>
<stop offset="0.5521" stop-color="#BC7B1B"/>
<stop offset="0.6353" stop-color="#C17E1B"/>
<stop offset="0.7296" stop-color="#CE871B"/>
<stop offset="0.7853" stop-color="#DA8E1B"/>
<stop offset="0.9018" stop-color="#E2AE1E"/>
</linearGradient>
<linearGradient id="paint19_linear_4_5298" x1="21.0662" y1="8.37565" x2="18.4573" y2="11.9664" gradientUnits="userSpaceOnUse">
<stop stop-color="#AB5E14"/>
<stop offset="0.2112" stop-color="#BC6F16"/>
<stop offset="0.5627" stop-color="#D2861A"/>
<stop offset="0.7853" stop-color="#DA8E1B"/>
<stop offset="1" stop-color="#E8BE1D"/>
</linearGradient>
<linearGradient id="paint20_linear_4_5298" x1="20.6712" y1="8.28076" x2="23.8642" y2="8.28076" gradientUnits="userSpaceOnUse">
<stop stop-color="#C86A12"/>
<stop offset="0.5215" stop-color="#EEC91B"/>
<stop offset="1" stop-color="#FFF3B6"/>
</linearGradient>
<linearGradient id="paint21_linear_4_5298" x1="16.5089" y1="12.1313" x2="23.4928" y2="11.6429" gradientUnits="userSpaceOnUse">
<stop stop-color="#FFF3B0"/>
<stop offset="0.3313" stop-color="#DC952E"/>
<stop offset="0.7117" stop-color="#FFF2A5"/>
<stop offset="0.8827" stop-color="#F1CE5D"/>
<stop offset="1" stop-color="#E9B730"/>
</linearGradient>
<linearGradient id="paint22_linear_4_5298" x1="19.7396" y1="15.6534" x2="19.7396" y2="8.46776" gradientUnits="userSpaceOnUse">
<stop stop-color="#E09F1E"/>
<stop offset="0.2667" stop-color="#BC671A"/>
<stop offset="0.4121" stop-color="#A24A13"/>
<stop offset="0.4124" stop-color="#AE5A19"/>
<stop offset="0.4128" stop-color="#BF7021"/>
<stop offset="0.4133" stop-color="#CC8127"/>
<stop offset="0.4139" stop-color="#D58C2B"/>
<stop offset="0.4148" stop-color="#DB932D"/>
<stop offset="0.4172" stop-color="#DC952E"/>
<stop offset="0.4182" stop-color="#DC962E"/>
<stop offset="0.4508" stop-color="#E5AD25"/>
<stop offset="0.4883" stop-color="#ECBE1F"/>
<stop offset="0.5337" stop-color="#F0CB1A"/>
<stop offset="0.5945" stop-color="#F3D218"/>
<stop offset="0.7362" stop-color="#F4D417"/>
<stop offset="0.8405" stop-color="#F3D11A"/>
<stop offset="0.9267" stop-color="#EFC623"/>
<stop offset="1" stop-color="#E9B730"/>
</linearGradient>
<clipPath id="clip0_4_5298">
<rect width="23.9999" height="8.12083" fill="white" transform="translate(0 8)"/>
</clipPath>
</defs>
</svg>
