<svg width="24" height="24" viewBox="0 0 24 24" fill="none" xmlns="http://www.w3.org/2000/svg">
<path d="M3.17648 16.6741C4.90153 16.6241 6.62269 16.483 8.33269 16.2514C10.9305 15.943 13.4751 15.2899 15.8986 14.3095C17.0186 13.8769 18.0429 13.2308 18.9137 12.4074C19.3914 11.97 19.7148 11.3911 19.8359 10.7566C19.8808 10.3982 19.847 10.0344 19.7369 9.69023C19.6269 9.34605 19.4432 9.02967 19.1984 8.76286C18.5587 8.02998 17.7757 7.43436 16.897 7.01234C15.8134 6.45149 14.6774 5.99741 13.5049 5.65658C13.4252 5.63502 13.3475 5.60701 13.2724 5.57285C13.6087 5.5737 13.9438 5.61385 14.2707 5.69247C16.2606 6.00939 18.209 6.54432 20.0805 7.28748C21.1928 7.69948 22.2141 8.32244 23.0876 9.12173C23.5847 9.55656 23.9066 10.1558 23.9938 10.8085C24.0396 11.3838 23.8616 11.9548 23.4966 12.4035C22.9365 13.1021 22.2288 13.6697 21.4237 14.0663C19.9375 14.8403 18.3566 15.4193 16.7205 15.7889C13.9979 16.4378 11.2183 16.8224 8.42089 16.9373C6.26031 17.0413 4.09545 17.0186 1.93755 16.8695C1.48047 16.8376 1.02338 16.7897 0.570312 16.7499C0.606398 16.6382 0.698616 16.694 0.762768 16.694H2.94794C3.02466 16.7043 3.10274 16.6975 3.17648 16.6741Z" fill="#FF2F2F"/>
<path d="M17.2849 12.486C16.8699 12.4914 16.4627 12.3745 16.1144 12.15C15.7662 11.9255 15.4926 11.6035 15.3282 11.2245C15.1638 10.8456 15.1159 10.4267 15.1905 10.0207C15.2652 9.61472 15.4591 9.23982 15.7478 8.9433C16.0364 8.64678 16.4069 8.44192 16.8125 8.35456C17.2181 8.2672 17.6406 8.30126 18.0268 8.45244C18.413 8.60362 18.7454 8.86515 18.9823 9.20403C19.2192 9.54292 19.3499 9.94398 19.3578 10.3566C19.3643 10.9116 19.1501 11.4467 18.7619 11.8455C18.3737 12.2442 17.8429 12.4744 17.2849 12.486Z" fill="#FF2F2F"/>
<path d="M8.90489 11.0346C8.54003 11.0346 8.18319 11.0346 7.82634 11.0346C7.69002 11.0346 7.67799 10.9947 7.71007 10.8791C7.86243 10.3049 7.85842 10.3049 8.45583 10.3049H9.81104C9.89123 10.3049 9.96741 10.3049 9.93533 10.4245C9.82227 11.0713 9.45871 11.6482 8.92273 12.0314C8.38674 12.4146 7.72104 12.5735 7.06855 12.4741C6.66931 12.4174 6.30724 12.2104 6.05723 11.8957C5.80722 11.581 5.68841 11.1828 5.72537 10.7834C5.78088 10.1151 6.07641 9.48912 6.55791 9.01978C7.0394 8.55044 7.67468 8.26916 8.34758 8.22738C8.65734 8.20655 8.96731 8.26486 9.24802 8.39677C9.52874 8.52868 9.77086 8.7298 9.95137 8.98102C10.0155 9.06874 10.0276 9.12457 9.91529 9.16843C9.87658 9.18589 9.83908 9.20587 9.80302 9.22824C9.6705 9.33196 9.52141 9.41284 9.36198 9.46749C9.19358 9.49541 9.13745 9.27609 9.01315 9.18039C8.78562 9.03002 8.51852 8.94981 8.24533 8.94981C7.97215 8.94981 7.70504 9.03002 7.47752 9.18039C7.18392 9.33802 6.9387 9.57175 6.76787 9.85678C6.59704 10.1418 6.50697 10.4675 6.50722 10.7993C6.50669 11.052 6.60303 11.2953 6.7766 11.4798C6.95017 11.6642 7.18792 11.776 7.44143 11.7922C7.73194 11.8128 8.0225 11.7529 8.28084 11.6191C8.53918 11.4854 8.75519 11.283 8.90489 11.0346Z" fill="#FF2F2F"/>
<path d="M3.3935 11.6829C3.82251 11.6829 4.23549 11.6829 4.64847 11.6829C4.79682 11.6829 4.84493 11.6829 4.79281 11.8663C4.62441 12.4126 4.62842 12.4126 4.05907 12.4126C3.56591 12.4126 3.07274 12.4126 2.57957 12.4126C2.43523 12.4126 2.3791 12.4126 2.43122 12.2292C2.80009 11.001 3.16229 9.77152 3.51779 8.5407C3.52155 8.50705 3.53233 8.47455 3.54945 8.44528C3.56656 8.41601 3.58963 8.39061 3.61718 8.37072C3.64474 8.35082 3.67616 8.33687 3.70945 8.32975C3.74273 8.32263 3.77715 8.3225 3.81049 8.32937C4.42394 8.32937 5.03739 8.32937 5.65084 8.32937C5.78716 8.32937 5.81523 8.35329 5.77514 8.49285C5.61476 9.06307 5.61476 9.06307 5.02135 9.06307C4.7888 9.06307 4.55625 9.06307 4.3237 9.06307C4.20743 9.06307 4.14327 9.08699 4.1112 9.20662C4.06709 9.39005 4.01096 9.57347 3.95082 9.74892C3.89068 9.92437 3.95082 9.90045 4.07511 9.90045C4.43998 9.90045 4.80885 9.90045 5.17371 9.90045C5.31004 9.90045 5.35815 9.90045 5.31404 10.0719C5.15767 10.6222 5.16168 10.6262 4.59234 10.6262C4.33974 10.6262 4.08313 10.6262 3.83053 10.6262C3.81208 10.6228 3.79312 10.623 3.77477 10.627C3.75643 10.631 3.73908 10.6386 3.72376 10.6494C3.70843 10.6602 3.69543 10.6739 3.68553 10.6898C3.67564 10.7057 3.66904 10.7234 3.66614 10.7418C3.59397 11.013 3.50576 11.2801 3.42958 11.5393C3.41756 11.5792 3.40954 11.6191 3.3935 11.6829Z" fill="#FF2F2F"/>
<path d="M11.518 9.06151H10.648C10.7121 8.83422 10.7763 8.62687 10.8324 8.41952C10.8564 8.33977 10.9126 8.33578 10.9807 8.33578H13.3584L13.1699 9.0017C13.1499 9.07746 13.0857 9.06151 13.0296 9.06151C12.8411 9.06151 12.6286 9.06151 12.4602 9.06151C12.2918 9.06151 12.2718 9.1293 12.2397 9.24494C11.955 10.2099 11.6664 11.1749 11.3897 12.1439C11.3336 12.3432 11.2614 12.423 11.0369 12.415C10.5357 12.3951 10.5357 12.415 10.676 11.9325L11.518 9.06151Z" fill="#FF2F2F"/>
<path d="M3.17552 16.6742C3.10736 16.734 3.02717 16.7101 2.95099 16.7101H0.773832C0.701661 16.7101 0.617462 16.6782 0.55331 16.7459C0.366267 16.7503 0.179658 16.7261 0 16.6742H3.17552Z" fill="#FF2F2F"/>
</svg>
