<svg width="24" height="24" viewBox="0 0 24 24" fill="none" xmlns="http://www.w3.org/2000/svg">
<path d="M1.4018 9.2253L1 15.4107L8.13209 12.7749L8.26962 6.0733L1.4018 9.2253Z" fill="url(#paint0_linear_4_5246)"/>
<path d="M1 15.4105L6.42652 18.9214L13.1358 17.0318L8.13209 12.7747L1 15.4105Z" fill="url(#paint1_linear_4_5246)"/>
<path d="M7.59785 17.7433C7.61547 17.5448 7.29833 17.3564 6.88968 17.3215C6.48103 17.2833 6.13551 17.4155 6.11789 17.6145C6.10027 17.8135 6.4174 18.0014 6.82606 18.0363C7.23471 18.0745 7.58023 17.9423 7.59785 17.7433Z" fill="white"/>
<path d="M8.08077 16.1917C8.10181 15.9719 7.75678 15.7666 7.3124 15.7278C6.87194 15.6896 6.49509 15.8324 6.47748 16.0484C6.45643 16.2682 6.80146 16.4736 7.24584 16.5123C7.68631 16.5506 8.06315 16.4077 8.08077 16.1917Z" fill="white"/>
<path d="M4.73313 15.7767C4.75417 15.5607 4.41257 15.3477 3.9721 15.306C3.52821 15.2605 3.15088 15.4 3.12984 15.6164C3.10879 15.8329 3.44697 16.0455 3.89086 16.0871C4.33133 16.1326 4.70817 15.9932 4.73313 15.7767Z" fill="white"/>
<path d="M11.4911 16.5927C11.498 16.3728 11.1422 16.1811 10.6915 16.1636C10.2441 16.1462 9.87415 16.3099 9.86338 16.5297C9.85653 16.7496 10.2123 16.9413 10.6631 16.9588C11.1104 16.9762 11.4804 16.8125 11.4911 16.5927Z" fill="white"/>
<path d="M8.62873 14.4237C8.64978 14.1763 8.28713 13.9463 7.81828 13.9041C7.34943 13.862 6.95154 14.0296 6.9305 14.2736C6.90945 14.5211 7.2721 14.7511 7.74095 14.7932C8.2098 14.8354 8.60426 14.6678 8.62873 14.4237Z" fill="white"/>
<path d="M3.03598 12.8198C2.82798 12.628 2.41933 12.7258 2.11639 13.043C1.81345 13.3568 1.73563 13.7684 1.9402 13.9602C2.14478 14.152 2.55685 14.0541 2.85637 13.7404C3.15931 13.4232 3.24055 13.0116 3.03598 12.8198Z" fill="white"/>
<path d="M3.17059 11.0067C2.96602 10.8184 2.56079 10.9162 2.25785 11.23C1.95491 11.5472 1.87709 11.9554 2.07824 12.1433C2.28281 12.335 2.68804 12.2338 2.99098 11.92C3.29392 11.6062 3.37173 11.1985 3.17059 11.0067Z" fill="white"/>
<path d="M3.29215 9.27066C3.09834 9.08955 2.70731 9.18689 2.42198 9.48664C2.13324 9.78639 2.05542 10.1772 2.24922 10.3583C2.44303 10.5394 2.83406 10.4455 3.11939 10.1457C3.40813 9.84256 3.48595 9.45177 3.29215 9.27066Z" fill="white"/>
<path d="M7.25809 11.1882C7.04667 10.965 6.58858 11.0488 6.23964 11.3732C5.89069 11.7011 5.77813 12.1437 5.98955 12.3669C6.20098 12.5902 6.65563 12.5064 7.008 12.1819C7.35695 11.8575 7.46951 11.4115 7.25809 11.1882Z" fill="white"/>
<path d="M7.32062 9.2983C7.11605 9.07845 6.66874 9.15884 6.32713 9.47941C5.98553 9.7966 5.8759 10.2324 6.0839 10.4489C6.29189 10.6687 6.73578 10.585 7.07739 10.2678C7.41899 9.95059 7.52862 9.51476 7.32062 9.2983Z" fill="white"/>
<path d="M7.38348 7.45761C7.1931 7.25519 6.7634 7.35301 6.42131 7.6702C6.08313 7.98738 5.9598 8.40578 6.15018 8.6048C6.34056 8.80722 6.77025 8.71279 7.11235 8.39561C7.45444 8.07842 7.57386 7.65664 7.38348 7.45761Z" fill="white"/>
<path d="M8.27034 6.07312L12.0828 10.4527L13.1365 17.0318L8.13281 12.7747L8.27034 6.07312Z" fill="url(#paint2_linear_4_5246)"/>
<path d="M12.1602 15.1874C12.2903 15.1418 12.2766 14.7758 12.1283 14.3714C11.98 13.967 11.7549 13.6741 11.6243 13.723C11.4941 13.7685 11.5078 14.1346 11.6561 14.539C11.8044 14.9433 12.0295 15.2363 12.1602 15.1874Z" fill="white"/>
<path d="M10.8879 12.2586C11.022 12.2063 10.9936 11.8296 10.8282 11.4218C10.6589 11.0102 10.4161 10.7211 10.2854 10.7734C10.1514 10.8257 10.1797 11.2025 10.3491 11.6102C10.5145 12.0218 10.7577 12.3109 10.8884 12.2586H10.8879Z" fill="white"/>
<path d="M9.59806 9.22185C9.72824 9.16277 9.68958 8.80345 9.50997 8.42331C9.33036 8.03979 9.0837 7.77829 8.95303 7.83737C8.82235 7.89645 8.86493 8.25576 9.04112 8.6359C9.22073 9.01943 9.47082 9.28093 9.59806 9.22185Z" fill="white"/>
<path opacity="0.2" d="M12.0821 10.4528L10.4856 8.60486L9.29492 10.3133L10.1264 14.4692L13.1358 17.0318L12.0821 10.4528Z" fill="black"/>
<path d="M11.6447 10.6861L19.9361 12.5931L22.9984 7.28669L14.8512 6.00003L11.6447 10.6861Z" fill="url(#paint3_linear_4_5246)"/>
<path d="M11.6447 10.6862L12.9484 17.0841L20.4926 18.9737L19.9361 12.5931L11.6447 10.6862Z" fill="url(#paint4_linear_4_5246)"/>
<path d="M22.9997 7.28674L22.8514 14.2043L20.494 18.9737L19.9375 12.5932L22.9997 7.28674Z" fill="url(#paint5_linear_4_5246)"/>
<path d="M14.331 12.8619C14.4827 12.6145 14.2605 12.2028 13.8343 11.9486C13.4114 11.6939 12.9426 11.6905 12.7879 11.9418C12.6362 12.1893 12.8584 12.6009 13.2847 12.8551C13.7075 13.1098 14.1764 13.1132 14.331 12.8619Z" fill="white"/>
<path d="M19.3247 14.0963C19.4867 13.8315 19.2611 13.399 18.8206 13.1375C18.3801 12.8726 17.8902 12.876 17.7283 13.1409C17.5663 13.4058 17.7919 13.8382 18.2323 14.0997C18.6728 14.3646 19.1627 14.3646 19.3247 14.0963Z" fill="white"/>
<path d="M14.9648 16.4357C15.1126 16.2023 14.9012 15.8115 14.4999 15.5708C14.0946 15.3302 13.6507 15.3268 13.5064 15.564C13.362 15.8013 13.5734 16.1882 13.9752 16.4289C14.3804 16.6696 14.8209 16.673 14.9653 16.4357H14.9648Z" fill="white"/>
<path d="M19.7118 17.6977C19.8596 17.4502 19.6448 17.0493 19.2254 16.798C18.8094 16.5505 18.3479 16.5471 18.1966 16.7912C18.0488 17.0352 18.2671 17.4362 18.6831 17.687C19.1025 17.9379 19.5606 17.9418 19.7118 17.6977Z" fill="white"/>
<path d="M14.9241 9.81446C14.9099 9.52488 14.5257 9.3089 14.0642 9.32973C13.6027 9.35055 13.2395 9.60188 13.2503 9.88758C13.2645 10.1733 13.6487 10.3898 14.1102 10.3723C14.5717 10.3515 14.9383 10.1002 14.9241 9.81446Z" fill="white"/>
<path d="M15.7678 8.43388C15.7536 8.15834 15.3836 7.95253 14.9432 7.97384C14.4993 7.99127 14.1503 8.23194 14.1645 8.50748C14.1753 8.78302 14.5453 8.98883 14.9892 8.9714C15.4297 8.95057 15.7786 8.7099 15.7678 8.43436V8.43388Z" fill="white"/>
<path d="M16.587 7.09831C16.5728 6.83343 16.2205 6.6344 15.7942 6.65571C15.3679 6.67314 15.0332 6.90316 15.0474 7.16805C15.0581 7.43293 15.4139 7.63196 15.8368 7.61065C16.2631 7.59322 16.5978 7.3632 16.5875 7.09831H16.587Z" fill="white"/>
<path d="M19.9873 10.8362C19.9838 10.5292 19.5644 10.2818 19.0501 10.2852C18.5357 10.2919 18.1197 10.5433 18.1231 10.8537C18.1231 11.1607 18.5425 11.4048 19.0569 11.4009C19.5713 11.397 19.9873 11.1428 19.9873 10.8362Z" fill="white"/>
<path d="M20.8445 9.34719C20.8303 9.05083 20.4074 8.83098 19.9038 8.85229C19.3963 8.8765 18.9984 9.13122 19.0121 9.42758C19.0263 9.72055 19.4457 9.94379 19.9528 9.9191C20.4568 9.89827 20.8547 9.64017 20.8445 9.34719Z" fill="white"/>
<path d="M21.6288 7.90027C21.618 7.62134 21.2167 7.41553 20.7337 7.43636C20.2506 7.45718 19.8704 7.69785 19.8811 7.97678C19.8953 8.25571 20.2971 8.46152 20.7797 8.4407C21.2622 8.41987 21.643 8.1792 21.6288 7.90027Z" fill="white"/>
<path d="M21.0812 13.1859C21.1585 12.7084 21.1164 12.3036 20.9823 12.2828C20.8482 12.2586 20.6759 12.628 20.5947 13.1055C20.5174 13.583 20.5595 13.9878 20.6936 14.0086C20.8276 14.0329 20.9999 13.6634 21.0812 13.1859Z" fill="white"/>
<path d="M21.9143 13.5418C21.9917 13.1166 21.9672 12.7607 21.8615 12.7399C21.7523 12.7224 21.6041 13.0503 21.5267 13.4721C21.4528 13.8938 21.4773 14.2532 21.583 14.2706C21.6887 14.2914 21.8365 13.9636 21.9143 13.5418Z" fill="white"/>
<path d="M22.624 10.0412C22.7013 9.55982 22.6803 9.15547 22.5746 9.13803C22.4654 9.1206 22.3137 9.49735 22.2364 9.97821C22.1552 10.4596 22.1767 10.8639 22.2858 10.8813C22.3915 10.8988 22.5433 10.522 22.624 10.0412Z" fill="white"/>
<path d="M21.256 16.6624C21.3441 16.272 21.3333 15.9369 21.2349 15.9161C21.1326 15.8953 20.9814 16.1951 20.8933 16.5854C20.8052 16.9757 20.816 17.3069 20.9178 17.3316C21.0167 17.3524 21.1679 17.0527 21.256 16.6624Z" fill="white"/>
<path d="M22.5814 13.8101C22.6587 13.43 22.6553 13.1094 22.578 13.0953C22.4967 13.0779 22.37 13.3743 22.2926 13.751C22.2187 14.1312 22.2187 14.4517 22.2995 14.4658C22.3807 14.4832 22.5075 14.1868 22.5814 13.8101Z" fill="white"/>
<defs>
<linearGradient id="paint0_linear_4_5246" x1="-1.06819" y1="0.94704" x2="7.52466" y2="13.646" gradientUnits="userSpaceOnUse">
<stop stop-color="#AD1A1F"/>
<stop offset="0.7" stop-color="#CC1A20"/>
<stop offset="1" stop-color="#EC1A22"/>
</linearGradient>
<linearGradient id="paint1_linear_4_5246" x1="6.97967" y1="21.7608" x2="7.151" y2="6.14915" gradientUnits="userSpaceOnUse">
<stop stop-color="#AD1A1F"/>
<stop offset="0.7" stop-color="#CC1A20"/>
<stop offset="1" stop-color="#EC1A22"/>
</linearGradient>
<linearGradient id="paint2_linear_4_5246" x1="16.2452" y1="14.4519" x2="-2.39446" y2="-0.301968" gradientUnits="userSpaceOnUse">
<stop stop-color="#AD1A1F"/>
<stop offset="0.7" stop-color="#CC1A20"/>
<stop offset="1" stop-color="#EC1A22"/>
</linearGradient>
<linearGradient id="paint3_linear_4_5246" x1="13.0965" y1="0.197615" x2="20.1859" y2="13.7884" gradientUnits="userSpaceOnUse">
<stop stop-color="#AD1A1F"/>
<stop offset="0.7" stop-color="#CC1A20"/>
<stop offset="1" stop-color="#EC1A22"/>
</linearGradient>
<linearGradient id="paint4_linear_4_5246" x1="17.7704" y1="18.2828" x2="14.544" y2="7.9307" gradientUnits="userSpaceOnUse">
<stop stop-color="#AD1A1F"/>
<stop offset="0.7" stop-color="#CC1A20"/>
<stop offset="1" stop-color="#EC1A22"/>
</linearGradient>
<linearGradient id="paint5_linear_4_5246" x1="30.863" y1="21.061" x2="20.9196" y2="10.9875" gradientUnits="userSpaceOnUse">
<stop stop-color="#AD1A1F"/>
<stop offset="0.7" stop-color="#CC1A20"/>
<stop offset="1" stop-color="#EC1A22"/>
</linearGradient>
</defs>
</svg>
