<svg width="24" height="24" viewBox="0 0 24 24" fill="none" xmlns="http://www.w3.org/2000/svg">
<path d="M22.998 7.28711L19.9355 12.5928V12.5938L20.4922 18.9736L12.9482 17.084L12.9473 17.083L6.42676 18.9209L1 15.4102L1.40137 9.22559L8.26953 6.07324L8.13184 12.7744L12.1484 16.1914L8.13281 12.7744L8.27051 6.07324L11.9268 10.2734L14.8516 6L22.998 7.28711ZM22.8516 14.2051L20.4941 18.9736L19.9375 12.5938L23 7.28711L22.8516 14.2051ZM6.88965 17.3213C6.48127 17.2831 6.13617 17.4154 6.11816 17.6143C6.10065 17.8132 6.4176 18.0013 6.82617 18.0361C7.23461 18.0743 7.5798 17.942 7.59766 17.7432C7.61486 17.5448 7.29805 17.3561 6.88965 17.3213ZM19.2256 16.7979C18.8096 16.5504 18.3475 16.5479 18.1963 16.792C18.0494 17.0361 18.2673 17.4369 18.6826 17.6875C19.1018 17.9381 19.5605 17.9419 19.7119 17.6982C19.8597 17.4508 19.6449 17.0492 19.2256 16.7979ZM21.2354 15.916C21.1331 15.8952 20.9816 16.1956 20.8936 16.5859C20.8056 16.9759 20.8163 17.3072 20.918 17.332C21.0168 17.3527 21.1678 17.0529 21.2559 16.6631C21.3439 16.273 21.3336 15.9371 21.2354 15.916ZM10.6914 16.1631C10.2444 16.1457 9.8745 16.3097 9.86328 16.5293C9.85643 16.7491 10.2124 16.9406 10.6631 16.958C11.1101 16.9754 11.4799 16.8124 11.4912 16.5928C11.4977 16.3731 11.1419 16.1805 10.6914 16.1631ZM14.5 15.5713C14.0949 15.3307 13.6513 15.3274 13.5068 15.5645C13.3628 15.8018 13.5739 16.1891 13.9756 16.4297C14.3802 16.6697 14.82 16.6729 14.9648 16.4365L14.9883 16.3906C15.0854 16.1546 14.8761 15.797 14.5 15.5713ZM7.3125 15.7275C6.87242 15.6893 6.49574 15.8322 6.47754 16.0479C6.4565 16.2677 6.80173 16.473 7.24609 16.5117C7.68644 16.5499 8.06342 16.4073 8.08105 16.1914C8.10168 15.9717 7.75658 15.7663 7.3125 15.7275ZM3.97168 15.3057C3.52823 15.2603 3.15131 15.4 3.12988 15.6162C3.10901 15.8326 3.44696 16.0452 3.89062 16.0869C4.33109 16.1324 4.70844 15.9928 4.7334 15.7764C4.75402 15.5605 4.41189 15.3473 3.97168 15.3057ZM11.624 13.7227C11.4941 13.7685 11.508 14.1349 11.6562 14.5391C11.8045 14.9432 12.0295 15.2361 12.1602 15.1875C12.2903 15.142 12.2772 14.7754 12.1289 14.3711C11.9806 13.9669 11.7547 13.6738 11.624 13.7227ZM7.81836 13.9033C7.34976 13.8612 6.95207 14.0296 6.93066 14.2734C6.9098 14.5208 7.27248 14.7508 7.74121 14.793C8.20965 14.835 8.60402 14.6676 8.62891 14.4238C8.64956 14.1765 8.28695 13.9454 7.81836 13.9033ZM22.5781 13.0957C22.4969 13.0785 22.3703 13.3745 22.293 13.751C22.2191 14.131 22.2191 14.4518 22.2998 14.4658C22.381 14.483 22.5081 14.187 22.582 13.8105C22.6593 13.4305 22.6554 13.1099 22.5781 13.0957ZM18.8203 13.1377C18.3799 12.873 17.8905 12.8768 17.7285 13.1416C17.567 13.4065 17.7922 13.8392 18.2324 14.1006C18.6725 14.3651 19.162 14.3644 19.3242 14.0967C19.4862 13.8318 19.2607 13.3992 18.8203 13.1377ZM21.8613 12.7402C21.7522 12.7236 21.6046 13.0514 21.5273 13.4727C21.4536 13.8938 21.4776 14.2524 21.583 14.2705C21.6887 14.2912 21.8372 13.9635 21.915 13.542C21.9923 13.117 21.967 12.7612 21.8613 12.7402ZM3.03613 12.8193C2.8281 12.6278 2.41908 12.7259 2.11621 13.043C1.81335 13.3567 1.73592 13.7682 1.94043 13.96C2.14501 14.1517 2.55694 14.054 2.85645 13.7402C3.15931 13.4231 3.24068 13.0111 3.03613 12.8193ZM20.9824 12.2832C20.8484 12.2593 20.676 12.6283 20.5947 13.1055C20.5176 13.5822 20.5597 13.9871 20.6934 14.0088C20.8274 14.0329 20.9998 13.6636 21.0811 13.1865C21.1584 12.7091 21.1165 12.3041 20.9824 12.2832ZM13.834 11.9492C13.4112 11.6946 12.9427 11.6911 12.7881 11.9424C12.6368 12.1899 12.8591 12.6014 13.2852 12.8555C13.7077 13.1098 14.1763 13.1133 14.3311 12.8623C14.4828 12.6149 14.2602 12.2035 13.834 11.9492ZM7.25781 11.1885C7.04638 10.9653 6.58818 11.0486 6.23926 11.373C5.89044 11.7009 5.7779 12.144 5.98926 12.3672C6.20069 12.5904 6.65546 12.5061 7.00781 12.1816C7.35672 11.8572 7.46921 11.4117 7.25781 11.1885ZM10.2852 10.7734C10.1515 10.8263 10.1804 11.203 10.3496 11.6104C10.515 12.0218 10.758 12.311 10.8887 12.2588C11.0221 12.2057 10.9933 11.829 10.8281 11.4219C10.6588 11.0103 10.4158 10.7211 10.2852 10.7734ZM3.1709 11.0068C2.96637 10.8185 2.56071 10.9159 2.25781 11.2295C1.95489 11.5467 1.87702 11.9557 2.07812 12.1436C2.28273 12.3352 2.68832 12.2337 2.99121 11.9199C3.29389 11.6063 3.3717 11.1987 3.1709 11.0068ZM19.0498 10.2852C18.5356 10.292 18.1197 10.5432 18.123 10.8535C18.123 11.1605 18.5424 11.4042 19.0566 11.4004C19.571 11.3965 19.9873 11.1425 19.9873 10.8359C19.9836 10.529 19.564 10.2818 19.0498 10.2852ZM22.5752 9.13867C22.4661 9.12124 22.3137 9.49766 22.2363 9.97852C22.1552 10.4597 22.177 10.8644 22.2861 10.8818C22.3918 10.8989 22.5433 10.5222 22.624 10.042C22.7012 9.56136 22.6805 9.15723 22.5752 9.13867ZM7.32031 9.29785C7.11558 9.0785 6.66854 9.15913 6.32715 9.47949C5.98561 9.79666 5.87604 10.2328 6.08398 10.4492C6.29207 10.6687 6.73568 10.5846 7.07715 10.2676C7.41873 9.9504 7.5283 9.51431 7.32031 9.29785ZM3.29199 9.27051C3.09816 9.08962 2.70711 9.18674 2.42188 9.48633C2.13315 9.78605 2.05529 10.1773 2.24902 10.3584C2.44282 10.5395 2.83382 10.4452 3.11914 10.1455C3.40786 9.84237 3.48579 9.45161 3.29199 9.27051ZM14.0645 9.33008C13.603 9.3509 13.2393 9.60201 13.25 9.8877C13.2644 10.1733 13.6489 10.3895 14.1104 10.3721C14.5717 10.3512 14.9379 10.1001 14.9238 9.81445C14.9096 9.52497 14.5258 9.30937 14.0645 9.33008ZM19.9033 8.85254C19.3961 8.87688 18.9981 9.13149 19.0117 9.42773C19.0261 9.72059 19.4462 9.94364 19.9531 9.91895C20.457 9.89799 20.855 9.63957 20.8447 9.34668C20.8301 9.05055 20.4067 8.83124 19.9033 8.85254ZM8.95312 7.83789C8.82275 7.89725 8.86505 8.25593 9.04102 8.63574C9.2206 9.01917 9.47138 9.28067 9.59863 9.22168C9.7282 9.16195 9.68904 8.80339 9.50977 8.42383C9.33015 8.0403 9.0838 7.77881 8.95312 7.83789ZM14.9434 7.97363C14.4995 7.99106 14.1499 8.2323 14.1641 8.50781C14.1752 8.78315 14.5456 8.9891 14.9893 8.97168C15.4295 8.95083 15.7781 8.70996 15.7676 8.43457C15.7533 8.15911 15.3837 7.95241 14.9434 7.97363ZM7.38379 7.45801C7.1934 7.25564 6.76297 7.35278 6.4209 7.66992C6.08284 7.98706 5.96011 8.40546 6.15039 8.60449C6.34077 8.80691 6.77021 8.71269 7.1123 8.39551C7.45415 8.07854 7.57363 7.65719 7.38379 7.45801ZM20.7334 7.43652C20.2506 7.45741 19.8703 7.69776 19.8809 7.97656C19.895 8.25543 20.2969 8.46115 20.7793 8.44043C21.2617 8.41961 21.6429 8.17923 21.6289 7.90039C21.6181 7.62149 21.2164 7.4157 20.7334 7.43652ZM15.7939 6.65527C15.3678 6.67276 15.0327 6.90315 15.0469 7.16797C15.0576 7.43285 15.4141 7.63166 15.8369 7.61035C16.2629 7.59286 16.5978 7.3633 16.5879 7.09863C16.5736 6.83378 16.2202 6.63397 15.7939 6.65527Z" fill="white"/>
</svg>
