<svg width="24" height="24" viewBox="0 0 24 24" fill="none" xmlns="http://www.w3.org/2000/svg">
<path fill-rule="evenodd" clip-rule="evenodd" d="M24 8.82905L19.8445 8.81961L17.9203 10.2902L17.8916 10.3193L17.8822 8.81961H14.8617V12.4729H10.4852V8.79999H2.03862L1.28815 8.81961C1.03325 8.88621 0.796546 9.01042 0.595808 9.1829C0.319851 9.40605 0.120901 9.71209 0.027581 10.057C-0.0197712 10.2488 0.00820966 10.5249 0.00820966 10.7487V12.2194C0.00820966 13.1254 -0.0499044 13.8673 0.315999 14.3991C0.520475 14.6978 0.821807 14.9928 1.20134 15.1105C1.52922 15.2122 2.05799 15.1497 2.45187 15.1497H17.865V13.5149L19.8466 15.1323H23.9735L20.2484 11.9759L23.9806 8.82905H24ZM19.777 11.9665H19.7577L23.1147 14.8002L23.134 14.8293H19.9693L17.5644 12.8624V14.8598H2.49779C2.10821 14.8598 1.58805 14.9208 1.27811 14.8111C0.996766 14.6988 0.755463 14.503 0.585763 14.2495C0.247841 13.7612 0.326043 12.9932 0.326043 12.1707V10.7676C0.326043 10.5453 0.30165 10.2743 0.354742 10.0955C0.435227 9.8529 0.575627 9.63515 0.762604 9.46296C0.94958 9.29077 1.17692 9.16985 1.42304 9.1117L3.58761 9.10225H10.1961V12.765H15.1602V9.1117H17.5845V10.9435L19.96 9.12114H23.1534L19.777 11.9665Z" fill="white"/>
<path fill-rule="evenodd" clip-rule="evenodd" d="M7.66777 9.46224V10.8261H3.69521C3.43405 10.8261 2.54728 10.7716 2.44468 10.8944C2.37293 10.9808 2.38513 11.1719 2.38728 11.3303H7.65916V12.6673H2.37724C2.37724 12.8126 2.35858 13.0066 2.42531 13.0865C2.52503 13.2057 3.41755 13.1446 3.68516 13.1446H7.66777V14.5085H2.91605C1.80112 14.5085 1.05066 14.6334 0.732109 13.7877C0.588617 13.4098 0.664668 12.7465 0.664668 12.2582C0.664668 11.1857 0.510414 10.1423 1.12671 9.66641C1.51342 9.36778 2.3758 9.46151 3.05093 9.46151L7.66777 9.46224Z" fill="white"/>
<path fill-rule="evenodd" clip-rule="evenodd" d="M8.07617 9.46191H9.81744V13.1443H15.1661V14.5183H8.07617V9.46191Z" fill="white"/>
<path fill-rule="evenodd" clip-rule="evenodd" d="M15.4961 9.49078H17.1986L17.2079 11.5856L17.2273 11.5659L20.0742 9.49078H22.1548L19.2132 11.9554L19.2326 11.9845L22.205 14.4978H20.0161L17.2072 12.1116H17.1979V14.4985H15.4961V9.49078Z" fill="white"/>
</svg>
