<svg width="24" height="24" viewBox="0 0 24 24" fill="none" xmlns="http://www.w3.org/2000/svg">
<g clip-path="url(#clip0_4_5185)">
<path d="M5.36134 4.24102C7.09381 2.85631 9.27653 2.04491 11.4898 2.0028C13.377 1.96123 15.3 2.3807 16.9313 3.35891C17.9721 3.98622 18.9127 4.81813 19.5712 5.8514C18.3533 4.7798 16.8531 4.06827 15.2866 3.68984C14.324 3.45716 13.3357 3.32706 12.3458 3.31032C11.4844 3.29952 10.6069 3.38266 9.79692 3.69524C9.25833 3.90686 8.74169 4.24534 8.44028 4.7555C8.11691 5.2581 7.96754 5.88325 8.0971 6.47493C8.24165 7.1546 8.57947 7.79001 9.0399 8.30556C9.64166 8.97876 10.3489 9.5456 11.0679 10.0855C11.2194 10.2021 11.3864 10.2987 11.524 10.4337C9.98376 9.72807 8.45527 8.99711 6.91821 8.28559C6.16601 7.966 5.42291 7.59836 4.78099 7.08442C4.43407 6.7983 4.08982 6.44254 4.02344 5.97503C4.17495 5.21978 4.79438 4.69936 5.36134 4.24102Z" fill="#5B98D1"/>
<path d="M4.36286 7.34408C4.10106 6.94459 3.93563 6.45656 4.02397 5.97501C4.09035 6.44252 4.4346 6.79829 4.78152 7.08441C5.42344 7.59835 6.16654 7.96598 6.91874 8.28558C8.4558 8.9971 9.98429 9.72806 11.5246 10.4336C11.9363 10.6474 12.3276 10.912 12.6526 11.2477C12.8427 11.448 13.0193 11.698 13.0161 11.9873C13.0306 12.308 12.8255 12.5812 12.613 12.7971C12.2843 13.1226 11.8929 13.3775 11.4871 13.5939C10.2391 14.1424 9.01473 14.746 7.77587 15.3161C6.76562 15.8057 5.6847 16.1868 4.79973 16.9016C4.44477 17.1926 4.08607 17.5537 4.0245 18.0342C3.94473 17.5948 4.07055 17.1445 4.29594 16.7683C4.67445 16.128 5.23713 15.6324 5.76501 15.1223C6.44975 14.4626 7.05793 13.6684 7.29457 12.7286C7.47446 12.0251 7.37274 11.2677 7.06222 10.6167C6.79025 10.0293 6.38872 9.51266 5.94007 9.05217C5.39131 8.50638 4.78474 8.00323 4.36286 7.34408Z" fill="#CC2630"/>
<path d="M7.77481 15.316C9.01366 14.7459 10.2381 14.1424 11.486 13.5939C11.3393 13.7418 11.1562 13.8422 10.9945 13.9712C10.207 14.5699 9.42429 15.1983 8.80647 15.98C8.38727 16.5598 8.06659 17.2497 8.04999 17.978C8.06123 18.8051 8.52915 19.6132 9.23798 20.0311C10.0427 20.5137 10.9967 20.6567 11.9186 20.6913C13.1826 20.7134 14.4504 20.5477 15.6694 20.2114C17.0957 19.8173 18.4545 19.1354 19.5696 18.1486C19.099 18.9082 18.4539 19.5452 17.7526 20.0888C16.0613 21.3845 13.9177 21.9988 11.8083 21.9988C9.22621 22.0404 6.65748 21.0163 4.76761 19.2494C4.42283 18.919 4.1198 18.513 4.02344 18.0341C4.08501 17.5537 4.44371 17.1925 4.79866 16.9015C5.68363 16.1868 6.76455 15.8056 7.77481 15.316Z" fill="#E8AC30"/>
</g>
<defs>
<clipPath id="clip0_4_5185">
<rect width="15.5722" height="20" fill="white" transform="translate(4 2)"/>
</clipPath>
</defs>
</svg>
