<svg width="24" height="24" viewBox="0 0 24 24" fill="none" xmlns="http://www.w3.org/2000/svg">
<g clip-path="url(#clip0_4_5181)">
<path d="M21.9963 12.6774V16.9067C21.9963 19.2551 20.1144 21.1653 17.8022 21.1653H12.1727C9.86044 21.1653 7.97852 19.2551 7.97852 16.9067C7.97852 16.6151 8.00737 16.3298 8.06258 16.0548C8.31977 14.78 9.13904 13.709 10.2469 13.1257C10.824 12.8213 11.4789 12.6494 12.1727 12.6494H17.6867V15.5785H12.1727C11.77 15.5785 11.4099 15.7631 11.1703 16.0548C10.9796 16.2853 10.8641 16.582 10.8641 16.9067C10.8641 17.6403 11.4513 18.2363 12.1727 18.2363H17.8022C18.5236 18.2363 19.1107 17.6403 19.1107 16.9067V12.6774C19.1107 11.9439 18.5236 11.3492 17.8022 11.3492H14.4298C15.5388 10.7659 16.3594 9.69617 16.6165 8.42013H17.8022C20.1144 8.42013 21.9963 10.3291 21.9963 12.6774Z" fill="#B4B6B8"/>
<path d="M16.0166 7.09065C16.0166 7.41157 15.9814 7.72358 15.9149 8.02412C15.6276 9.32564 14.7519 10.403 13.5876 10.9532C13.0507 11.2079 12.4522 11.3492 11.8224 11.3492H6.30961V8.42018H11.8224C12.1862 8.42018 12.5162 8.26863 12.7546 8.02412C12.9867 7.78343 13.131 7.45487 13.131 7.09065C13.131 6.35838 12.545 5.76239 11.8224 5.76239H6.19418C5.47278 5.76239 4.88562 6.35838 4.88562 7.09065V11.3212C4.88562 12.0535 5.47278 12.6495 6.19418 12.6495H9.66069C8.4964 13.1996 7.62068 14.277 7.33337 15.5785H6.19418C3.88067 15.5785 2 13.6695 2 11.3212V7.09065C2 4.74359 3.88067 2.83334 6.19418 2.83334H11.8224C14.1359 2.83334 16.0166 4.74359 16.0166 7.09065Z" fill="#D0B76F"/>
</g>
<defs>
<clipPath id="clip0_4_5181">
<rect width="19.9986" height="18.332" fill="white" transform="translate(2 2.83334)"/>
</clipPath>
</defs>
</svg>
