<svg width="24" height="24" viewBox="0 0 24 24" fill="none" xmlns="http://www.w3.org/2000/svg">
<g clip-path="url(#clip0_4_5167)">
<path d="M7.88091 6.16363C7.88091 6.64894 7.66785 6.71308 7.58349 6.71792H6.33972V5.58876H7.5889C7.66352 5.59723 7.88091 5.66864 7.88091 6.16363Z" fill="#4D9859"/>
<path d="M10.9239 3H3.32932C2.85561 3 2.47058 3.42964 2.47058 3.96094V9.81006C2.47058 10.3414 2.85561 10.7722 3.32932 10.7722H10.9239C11.3987 10.7722 11.7837 10.3414 11.7837 9.81006V3.96094C11.7837 3.42964 11.3987 3 10.9239 3ZM8.47851 9.19888C8.43633 9.21946 8.39307 9.22914 8.34981 9.22914C8.22435 9.22914 8.10538 9.14684 8.05239 9.01009C8.04806 8.99919 7.65546 7.99832 7.11902 7.44403H6.34032V8.92658C6.34032 9.12748 6.19431 9.28965 6.01586 9.28965C5.8374 9.28965 5.69139 9.12748 5.69139 8.92658V5.46769C5.69139 5.13366 5.93366 4.86257 6.23216 4.86257H7.60139C7.92909 4.87346 8.53043 5.15908 8.53043 6.16358C8.53043 6.88368 8.20921 7.21771 7.9226 7.35689C8.35738 7.97774 8.63209 8.68332 8.64723 8.72205C8.71861 8.906 8.64291 9.11901 8.47851 9.19888Z" fill="#4D9859"/>
<path d="M20.671 4.97998H13.0765C12.6017 4.97998 12.2167 5.41083 12.2167 5.94092V11.7912C12.2167 12.3213 12.6017 12.7522 13.0765 12.7522H20.671C21.1448 12.7522 21.5298 12.3213 21.5298 11.7912V5.94092C21.5298 5.41083 21.1448 4.97998 20.671 4.97998ZM17.9402 8.40256C18.1186 8.40256 18.2646 8.56473 18.2646 8.76563C18.2646 8.96653 18.1186 9.12871 17.9402 9.12871H16.3806V10.2881H18.1511C18.3306 10.2881 18.4755 10.4503 18.4755 10.6512C18.4755 10.8521 18.3306 11.0143 18.1511 11.0143H16.3103C15.9912 11.0143 15.7317 10.7311 15.7317 10.3837V7.32302C15.7317 6.98899 15.9739 6.71789 16.2724 6.71789H18.1651C18.3447 6.71789 18.4896 6.88007 18.4896 7.08097C18.4896 7.28187 18.3447 7.44404 18.1651 7.44404H16.3806V8.40256H17.9402Z" fill="#D8E06D"/>
<path d="M10.9237 11.2479H3.3292C2.85549 11.2479 2.47046 11.6787 2.47046 12.21V18.0592C2.47046 18.5905 2.85549 19.0201 3.3292 19.0201H10.9237C11.3985 19.0201 11.7836 18.5905 11.7836 18.0592V12.21C11.7836 11.6787 11.3985 11.2479 10.9237 11.2479ZM7.89869 14.524C8.07822 14.524 8.22315 14.6862 8.22315 14.8871C8.22315 15.088 8.07822 15.2502 7.89869 15.2502H6.34019V16.4096H8.11067C8.2902 16.4096 8.43513 16.573 8.43513 16.7727C8.43513 16.9724 8.2902 17.1357 8.11067 17.1357H6.26989C5.95084 17.1357 5.69127 16.8525 5.69127 16.5052V13.4445C5.69127 13.1117 5.93354 12.8394 6.23204 12.8394H8.12473C8.30318 12.8394 8.44919 13.0028 8.44919 13.2024C8.44919 13.4021 8.30318 13.5655 8.12473 13.5655H6.34019V14.524H7.89869Z" fill="#EC9B5D"/>
<path d="M20.671 13.2278H13.0765C12.6017 13.2278 12.2167 13.6586 12.2167 14.1899V20.0391C12.2167 20.5703 12.6017 21 13.0765 21H20.671C21.1448 21 21.5298 20.5703 21.5298 20.0391V14.1899C21.5298 13.6586 21.1448 13.2278 20.671 13.2278ZM17.7141 18.9208H15.9534C15.6419 18.9208 15.3888 18.6376 15.3888 18.2902V14.9875C15.3888 14.7878 15.5348 14.6244 15.7133 14.6244C15.8917 14.6244 16.0377 14.7878 16.0377 14.9875V18.1946H17.7141C17.8937 18.1946 18.0386 18.358 18.0386 18.5577C18.0386 18.7574 17.8937 18.9208 17.7141 18.9208Z" fill="#DF574F"/>
</g>
<defs>
<clipPath id="clip0_4_5167">
<rect width="19.0588" height="18" fill="white" transform="translate(2.47058 3)"/>
</clipPath>
</defs>
</svg>
