<svg width="24" height="24" viewBox="0 0 24 24" fill="none" xmlns="http://www.w3.org/2000/svg">
<path d="M22.1945 5.34055C22.4144 5.32428 22.6253 5.32094 22.8406 5.37681C23.0847 5.44015 23.3089 5.58103 23.4369 5.80296C23.6483 6.16987 23.5935 6.72914 23.4902 7.1218C23.3779 7.54856 23.1786 7.95868 22.9752 8.3491C22.3357 9.57741 21.5255 10.6304 20.5086 11.5698C20.2669 11.7932 20.0095 12.0446 19.7246 12.2115C19.8277 12.0664 19.9471 11.9418 20.0731 11.8168C21.0869 10.6451 21.985 9.40333 22.5923 7.96963C22.7669 7.55729 22.9515 7.09003 22.9344 6.63486C22.9256 6.40123 22.8476 6.17128 22.6711 6.01122C22.2216 5.60354 21.5327 5.83882 21 5.85847C21.3931 5.67608 21.7613 5.42207 22.1945 5.34055Z" fill="white"/>
<path d="M21.8962 13.6672C21.9121 13.6645 21.9281 13.6624 21.9443 13.6616C22.0298 13.6574 22.1393 13.7015 22.221 13.7259C22.7203 13.8752 23.2715 14.1167 23.6523 14.4783C23.8283 14.6454 23.996 14.8694 24 15.1215C24.0038 15.3739 23.8316 15.5776 23.6635 15.7464C21.3566 18.0622 13.3324 18.661 10.059 18.6717C7.46081 18.6802 4.59063 18.6031 2.09974 17.8232C1.46533 17.6246 0.749082 17.3604 0.271495 16.8817C0.12184 16.7316 -0.00276665 16.5394 4.6727e-05 16.3202C0.00405508 16.0078 0.243408 15.7818 0.451843 15.5803C0.700944 15.3429 1.27699 14.9497 1.57859 14.7726L1.62096 14.7851C1.62005 14.8852 1.08867 15.4594 0.994175 15.6243C0.912803 15.7662 0.873576 15.9038 0.840361 16.0624C0.915109 16.3602 1.07885 16.5321 1.33305 16.6886C2.3164 17.2944 3.80305 17.5239 4.93542 17.6928C5.78098 17.8204 6.62974 17.921 7.4817 17.9946C8.33367 18.0681 9.18713 18.1144 10.0421 18.1335C10.897 18.1526 11.7517 18.1444 12.6061 18.109C13.4605 18.0736 14.3129 18.011 15.1633 17.9213C16.4129 17.7985 17.6699 17.6408 18.8927 17.3505C20.2196 17.0355 21.5086 16.6234 22.6282 15.8235C22.8422 15.6706 23.1099 15.4827 23.247 15.2531C23.295 15.1727 23.3339 15.0859 23.309 14.9921C23.4596 14.4286 22.0095 13.8839 21.8962 13.6672Z" fill="white"/>
<path d="M6.87884 16.3771C6.42235 15.9436 6.01841 15.3974 5.64201 14.8939C4.41363 13.2509 3.54971 11.3953 3.2227 9.36337C3.12243 8.74029 3.05904 8.0943 3.15109 7.46615C3.22873 6.93622 3.39763 6.29255 3.85196 5.95709C4.92437 5.16527 7.86182 6.37024 8.99131 6.80818C9.62202 7.05274 10.2491 7.30702 10.8872 7.53207C11.1841 7.63722 11.4853 7.72843 11.7907 7.80571C12.0961 7.88299 12.4044 7.946 12.7156 7.99475C15.1748 8.36136 17.429 7.60764 19.3994 6.14939C19.5883 6.53694 19.7484 6.91493 19.8198 7.34334C19.9184 7.93565 19.8747 8.4921 19.7657 9.07792C19.7425 9.20198 19.7255 9.37039 19.6513 9.4741L19.6305 9.47584C19.5912 9.37164 19.6414 9.17531 19.6466 9.05886C19.664 8.73384 19.66 8.40908 19.6344 8.08458C19.5996 7.65498 19.4906 7.26086 19.3587 6.85322C19.1707 6.99979 18.9364 7.1079 18.7266 7.22094C18.1243 7.54564 17.5227 7.85198 16.8759 8.0802C14.7047 8.84621 12.4925 8.78986 10.2964 8.15334C9.37314 7.88575 8.47164 7.52534 7.5691 7.19501C7.06361 7.00999 6.55039 6.80703 6.02325 6.69472C5.66147 6.61764 5.26601 6.5704 4.90181 6.65941C4.54017 6.74778 4.24943 6.97242 4.05805 7.29035C3.5594 8.11869 3.78672 9.5211 4.00766 10.4217C4.52714 12.5393 5.42619 14.2815 7.34497 15.4416C9.79383 16.9223 12.9481 16.6927 15.6123 16.0363C16.178 15.8969 16.9761 15.7677 17.4233 15.3742C17.5768 15.2391 17.6887 15.0687 17.7937 14.8951L17.8431 14.884C17.8735 14.8125 17.901 14.7413 17.9252 14.6674L17.9369 14.6646C17.9453 14.8038 17.8853 14.9517 17.9146 15.0797C17.874 15.2725 17.8213 15.4657 17.7027 15.6264C17.2453 16.2459 14.995 16.7206 14.2264 16.8343C11.8034 17.1931 8.59471 17.1876 6.16366 16.8298C5.54768 16.7391 4.75493 16.6495 4.24656 16.2639C4.16624 16.203 4.05454 16.0985 4.04709 15.9898C4.03469 15.8085 4.42082 15.4727 4.54116 15.3439C4.57337 15.4976 4.59975 15.7062 4.70467 15.8286C5.08594 16.2733 6.29759 16.3234 6.87884 16.3771Z" fill="white"/>
</svg>
