<svg width="24" height="24" viewBox="0 0 24 24" fill="none" xmlns="http://www.w3.org/2000/svg">
<path d="M20.5576 2.23346L20.2773 21.4376L19.4355 21.9942L3.45117 19.211L5.69434 5.5733L19.9971 1.95514L20.5576 2.23346ZM6.38477 6.9649V7.45319L7.48438 7.20905C7.72875 7.20905 8.24209 7.33162 8.33984 7.82037C8.46187 8.43212 7.72983 15.7595 7.60742 16.6172C7.50971 17.3012 6.99645 17.4726 6.75195 17.4727L5.04102 17.5948V17.8399L16.7715 19.6729L18.2373 16.0069L17.5039 15.7628C17.2187 16.211 16.551 17.2292 16.1602 17.7178C15.6714 18.3285 14.9379 18.3281 14.4492 18.4503C13.9601 18.5722 11.3957 18.0843 10.6621 17.962C9.92909 17.8398 9.80674 17.4731 9.68457 16.9844C9.58682 16.5934 9.88786 13.807 10.0508 12.463C11.1505 12.3815 13.5207 12.2432 14.2051 12.3409C14.8893 12.4386 15.0605 13.3597 15.0605 13.8077H15.7939L16.2822 9.53033L15.5488 9.65338C15.3044 10.8749 14.6938 11.2412 14.2051 11.3633C13.8141 11.4611 11.354 11.6491 10.1729 11.7305C10.3357 10.0608 10.6864 6.69722 10.7842 6.59869C10.9064 6.47651 14.9384 5.37678 16.0381 5.62115C16.9177 5.81682 17.1377 7.16875 17.1377 7.82037L17.9932 7.57623L18.1152 4.15436L6.38477 6.9649Z" fill="#44C0FF"/>
</svg>
