<svg width="24" height="24" viewBox="0 0 24 24" fill="none" xmlns="http://www.w3.org/2000/svg">
<path d="M11.7686 5.99609C12.0564 6.00142 12.3506 5.97902 12.6338 6.04785C12.7799 6.0592 12.9267 6.0663 13.0742 6.07031C13.0736 6.08284 13.0729 6.10726 13.0723 6.12012C13.3181 6.12881 13.5601 6.18446 13.7832 6.28809C13.872 6.33216 13.9633 6.37399 14.0547 6.41406C14.1616 6.47022 14.2691 6.52619 14.376 6.58301C14.5042 6.65119 14.6322 6.7214 14.7578 6.79492C14.9882 6.93993 15.2149 7.08923 15.4326 7.25293C15.506 7.30905 15.5811 7.36385 15.6572 7.41797C15.8182 7.55366 15.9715 7.69895 16.1338 7.83398L16.1426 7.86133C16.1653 7.87607 16.211 7.90555 16.2344 7.9209C16.4333 8.10262 16.6237 8.29413 16.834 8.46387C16.9068 8.518 16.9802 8.5741 17.0537 8.62891C17.4318 8.92039 17.8432 9.16376 18.25 9.41113L18.3135 9.41406C18.53 9.54713 18.7701 9.63569 19.0146 9.69922V9.74316C19.1268 9.7445 19.239 9.74768 19.3525 9.74902V9.80371C19.8643 9.82577 20.3769 9.83075 20.8887 9.80469C20.888 9.79116 20.8861 9.7661 20.8848 9.75293C21.0396 9.74959 21.1954 9.74327 21.3516 9.73926C21.3522 9.72786 21.3545 9.70691 21.3545 9.69629C21.4332 9.67826 21.5121 9.65808 21.5908 9.63672C21.6213 9.63291 21.6673 9.62604 21.7129 9.62012C21.8992 10.383 22 11.1797 22 12C22 17.5228 17.5228 22 12 22C7.56327 22 3.80314 19.1101 2.49512 15.1104C2.72212 15.0931 2.94951 15.0816 3.17773 15.083L3.16602 15.0293C3.37699 15.0293 3.58923 15.0187 3.79688 14.9746C3.96652 14.9626 4.13731 14.954 4.30762 14.9473V14.8984C4.50807 14.8964 4.70873 14.8869 4.90918 14.8809L4.90625 14.8408C4.98642 14.8221 5.0676 14.8023 5.14844 14.7803C5.19255 14.7756 5.28111 14.7651 5.3252 14.7598L5.32617 14.7236C5.43702 14.6702 5.54514 14.6115 5.65332 14.5527L5.65137 14.4912L5.69727 14.4883C5.73931 14.4335 5.7828 14.3793 5.82617 14.3252C5.86411 14.2573 5.90441 14.1893 5.94434 14.1221C5.96836 14.0238 5.98552 13.9241 6.00488 13.8252C6.01489 13.8265 6.03684 13.8297 6.04688 13.8311C6.05622 13.7295 6.06672 13.6263 6.08008 13.5254C6.10604 13.4026 6.11851 13.2771 6.13184 13.1523C6.14318 13.1543 6.16539 13.1581 6.17676 13.1602C6.1821 12.9951 6.19131 12.8285 6.20801 12.6641C6.23395 12.5601 6.25066 12.454 6.26465 12.3486L6.30469 12.3428C6.31003 12.1443 6.31985 11.9459 6.3252 11.748L6.37598 11.7568C6.38002 11.4821 6.44321 11.2122 6.46191 10.9395L6.50781 10.9521C6.51449 10.818 6.52453 10.6833 6.5332 10.5498C6.56786 10.4277 6.59806 10.3041 6.63672 10.1826C6.64605 10.0812 6.65539 9.97839 6.66406 9.87695L6.70703 9.88867C6.73041 9.76171 6.76159 9.6357 6.79297 9.51074C6.83368 9.42726 6.87397 9.34356 6.91602 9.26074C6.94605 9.18193 6.97485 9.10194 7.00488 9.02246L7.04004 9.00488C7.13018 8.81117 7.23819 8.62511 7.34766 8.44141C7.45386 8.28097 7.56233 8.12163 7.67188 7.96387C8.05067 7.44448 8.50709 6.98297 9.02344 6.60059C9.04687 6.60326 9.09354 6.60835 9.11621 6.61035V6.5293L9.19531 6.54004L9.20801 6.46582C9.23659 6.47114 9.29467 6.48192 9.32422 6.4873L9.33105 6.4248C9.52602 6.34861 9.71993 6.25925 9.93359 6.25391L9.9248 6.21875C10.0035 6.20072 10.0824 6.18086 10.1611 6.16016C10.2834 6.14612 10.4057 6.13374 10.5293 6.12305L10.5244 6.07227C10.6713 6.06692 10.8196 6.05957 10.9678 6.04688C11.229 5.98405 11.5013 6.00077 11.7686 5.99609ZM16.4307 9.14648C16.0694 9.11265 15.8043 9.4222 15.5205 9.59668C15.4458 9.6494 15.3725 9.70376 15.2998 9.75781C15.2096 9.82666 15.1204 9.89636 15.0303 9.96387C14.902 10.0608 14.7785 10.1627 14.6543 10.2637C14.4526 10.4194 14.2518 10.5763 14.0508 10.7334C13.9767 10.7875 13.9009 10.8423 13.8281 10.8984C13.7394 10.9666 13.6509 11.0345 13.5615 11.1006C13.4321 11.1988 13.3081 11.3021 13.1826 11.4043C13.1085 11.4584 13.0344 11.5133 12.9609 11.5674C12.7199 11.7632 12.4622 11.9373 12.2031 12.1084C12.0408 12.2207 11.8656 12.3189 11.6738 12.3711C11.6718 12.3836 11.6671 12.4071 11.665 12.4199C11.5737 12.4213 11.4836 12.4238 11.3936 12.4258L11.3965 12.4795C10.8788 12.5396 10.3702 12.421 9.85449 12.4189L9.85645 12.3711C9.47434 12.367 9.09957 12.2702 8.7168 12.2822L8.73535 12.2275C8.50755 12.2249 8.27889 12.2236 8.05176 12.2256L8.06836 12.2871C8.01758 12.2891 7.91535 12.2942 7.86523 12.2969C7.80194 12.3442 7.7397 12.3921 7.67773 12.4395C7.62632 12.5003 7.57449 12.5622 7.52441 12.623C7.51707 12.863 7.4784 13.1308 7.64453 13.3301C7.64786 13.3461 7.65388 13.3788 7.65723 13.3955C8.29398 14.206 8.98636 14.9899 9.83691 15.583C9.91296 15.6351 9.99001 15.6862 10.0674 15.7383C10.1468 15.7897 10.2269 15.8434 10.3057 15.8975L10.3584 15.9023C10.4533 15.9598 10.5534 16.0118 10.6562 16.0586L10.6689 16.1113C10.693 16.11 10.7416 16.1075 10.7656 16.1055C11.0494 16.2438 11.3507 16.3614 11.6699 16.3828C11.6686 16.3949 11.6664 16.419 11.665 16.4316C12.0879 16.453 12.5127 16.4574 12.9355 16.4287C12.9349 16.4167 12.9339 16.3929 12.9326 16.3809C13.0455 16.3575 13.1583 16.3282 13.2705 16.3008L13.2793 16.2646C13.3922 16.2112 13.5018 16.1507 13.6113 16.0898C13.8177 15.9014 14.0172 15.7013 14.1602 15.458C14.261 15.2795 14.3498 15.0932 14.4707 14.9268C14.4714 14.9113 14.473 14.8796 14.4736 14.8643C14.5972 14.6931 14.6814 14.4976 14.8057 14.3271L14.8115 14.2637C14.9304 14.0879 15.0211 13.8949 15.1406 13.7197L15.1445 13.6631C15.1992 13.5671 15.2505 13.4695 15.2998 13.3701L15.3281 13.3535C15.3802 13.2299 15.4396 13.1088 15.501 12.9893C15.6251 12.7741 15.7274 12.5467 15.8389 12.3242C15.8836 12.2293 15.9264 12.133 15.9678 12.0361C15.9766 12.03 15.9943 12.018 16.0029 12.0127C16.0564 11.8824 16.1126 11.7527 16.166 11.623L16.2021 11.6123C16.2289 11.5261 16.2578 11.4397 16.2852 11.3535L16.3232 11.3447C16.3733 11.1972 16.4345 11.0539 16.5059 10.915C16.5632 10.7975 16.6098 10.6745 16.6318 10.5449L16.6709 10.5537C16.6789 10.4482 16.6879 10.3421 16.6992 10.2373C16.7719 9.94124 16.7307 9.63714 16.6699 9.34375L16.6406 9.33398C16.5792 9.26309 16.5408 9.14448 16.4307 9.14648ZM12 2C16.5315 2 20.3569 5.01472 21.585 9.14746C21.4629 9.17586 21.3419 9.20637 21.2197 9.22949L21.2295 9.26953C21.0845 9.27956 20.941 9.3004 20.8027 9.33984C20.3838 9.37929 19.956 9.38295 19.5498 9.2666V9.22461C19.439 9.19522 19.3301 9.1622 19.2207 9.13281L19.2148 9.09766C19.1153 9.06022 19.0164 9.01873 18.9209 8.97461C18.7987 8.91247 18.6763 8.85172 18.5527 8.79492L18.543 8.76465C18.0901 8.54804 17.6893 8.23694 17.2979 7.92676C17.02 7.69009 16.7525 7.43884 16.5273 7.15137C16.2581 6.81908 15.9329 6.53758 15.5908 6.28418C15.4092 6.16521 15.2213 6.05555 15.041 5.93457C15.0231 5.9359 14.9866 5.9378 14.9678 5.93848C14.9023 5.89103 14.8375 5.84366 14.7734 5.79688L14.7148 5.80859C14.6274 5.7645 14.538 5.72208 14.4512 5.68066C14.3331 5.64794 14.2164 5.61084 14.0996 5.57812C13.8925 5.50325 13.6749 5.46361 13.4551 5.46094L13.4736 5.41211C12.7527 5.38469 12.0275 5.27099 11.3086 5.37793C11.1362 5.39197 10.9634 5.40321 10.791 5.40723L10.8037 5.45605C10.5225 5.45539 10.2621 5.56388 9.99219 5.62207L9.98828 5.67676C9.96489 5.67475 9.91791 5.66997 9.89453 5.66797C9.75029 5.74282 9.60527 5.81567 9.45703 5.88184L9.44922 5.90625C9.22291 6.0105 9.01813 6.15142 8.8125 6.28906C8.3241 6.64478 7.88115 7.06609 7.50098 7.53613L7.47754 7.55176C7.37603 7.69612 7.27293 7.83929 7.17676 7.98633C7.11467 8.07318 7.05201 8.15929 6.98926 8.24414C6.9886 8.26005 6.987 8.29144 6.98633 8.30762C6.82071 8.53284 6.71763 8.79501 6.59277 9.04297C6.58746 9.0576 6.57698 9.08805 6.57227 9.10352C6.54623 9.18302 6.52203 9.26451 6.5 9.34668H6.46777C6.37291 9.71631 6.22606 10.0744 6.16992 10.4541C6.13458 10.585 6.10726 10.7191 6.07324 10.8506C6.06324 10.9561 6.05581 11.0618 6.0498 11.168L6 11.1475C5.99929 11.4449 5.93653 11.7365 5.91113 12.0312L5.86523 12.0215C5.86056 12.2019 5.85295 12.383 5.84961 12.5635L5.80273 12.5537C5.78403 12.7576 5.74465 12.9596 5.71191 13.1621C5.69922 13.1621 5.67383 13.1618 5.66113 13.1611C5.65579 13.2192 5.64597 13.334 5.64062 13.3916C5.39608 13.9286 4.7889 14.1488 4.24902 14.2471L4.25684 14.291C4.19604 14.297 4.13563 14.3039 4.07617 14.3105C3.97613 14.3346 3.87672 14.356 3.77734 14.376C3.77933 14.3866 3.78218 14.4078 3.78418 14.418C3.69481 14.4273 3.60561 14.4376 3.51758 14.4482C3.42563 14.4736 3.33285 14.4924 3.24023 14.5117L3.24902 14.5527C3.08933 14.5567 2.93051 14.5634 2.77148 14.5674L2.78613 14.6162C2.64314 14.6213 2.50119 14.6392 2.35938 14.6572C2.12663 13.8109 2 12.9203 2 12C2 6.47715 6.47715 2 12 2ZM9.9375 7.74316C9.69363 7.73781 9.44463 7.70449 9.2041 7.75195C8.86743 7.91576 8.62448 8.22664 8.4668 8.55957C8.4481 8.59767 8.4113 8.67378 8.39258 8.71191C8.39789 8.7352 8.40741 8.78213 8.41211 8.80566C8.39207 8.807 8.35208 8.81116 8.33203 8.8125C8.32669 8.924 8.32267 9.03597 8.31934 9.14746L8.26758 9.14355C8.24754 9.53731 8.24264 9.93622 8.34277 10.3213C8.38685 10.4336 8.4274 10.5478 8.4668 10.6621C8.59238 10.8861 8.72773 11.1141 8.93945 11.2686C9.01616 11.3133 9.09096 11.3595 9.16699 11.4082C9.24239 11.4142 9.31846 11.4204 9.39453 11.4258C9.39586 11.4404 9.39711 11.4706 9.39844 11.4854C9.54671 11.4807 9.69983 11.4866 9.84277 11.4385C9.91693 11.4291 9.99256 11.4211 10.0674 11.4131L10.0771 11.3809C10.3364 11.2779 10.5449 11.0812 10.6846 10.8418C10.7219 10.7785 10.7602 10.7153 10.7988 10.6533C10.7988 10.6372 10.7988 10.6058 10.7988 10.5898C10.8436 10.4802 10.8834 10.3678 10.9248 10.2568C10.9261 10.1714 10.93 10.0854 10.9326 10L10.9883 10.0137C10.9869 9.81519 10.9863 9.61646 10.9863 9.41797L10.9375 9.42773C10.912 8.83875 10.6626 8.23626 10.1816 7.87793C10.0983 7.84991 10.0162 7.82064 9.93359 7.79395L9.9375 7.74316ZM14.0723 7.28223L14.0791 7.32422C13.9763 7.34092 13.8748 7.35944 13.7754 7.38281C13.7381 7.39148 13.6635 7.40828 13.626 7.41699C13.5106 7.46774 13.3948 7.51518 13.2773 7.55859L13.2656 7.58984C13.1749 7.64194 13.0868 7.69687 12.998 7.75098C12.7275 7.97892 12.5164 8.26284 12.3447 8.57031C12.3421 8.61426 12.3357 8.70178 12.333 8.74609L12.2695 8.74414C12.2595 8.92257 12.2563 9.10087 12.2656 9.2793C12.3504 9.28197 12.4354 9.28511 12.5215 9.28711C12.7439 9.05518 12.9588 8.81018 13.2246 8.625C13.3582 8.58088 13.4907 8.53117 13.625 8.48438C13.6871 8.4797 13.75 8.47667 13.8135 8.47266L13.8008 8.41504C14.0093 8.4117 14.2191 8.40028 14.4209 8.34277C14.6922 8.32339 14.9677 8.34965 15.2363 8.29883C15.3258 8.28613 15.416 8.27344 15.5068 8.26074C15.5601 8.20941 15.6137 8.15938 15.6689 8.10938C15.6703 8.03465 15.6731 7.95949 15.6758 7.88477C15.6637 7.88209 15.639 7.877 15.627 7.875C15.5869 7.80087 15.5466 7.72709 15.5059 7.6543C15.4877 7.63548 15.4515 7.59773 15.4336 7.5791C15.3602 7.53568 15.2863 7.49326 15.2129 7.45117L15.21 7.42188C15.1313 7.39853 15.0532 7.37398 14.9766 7.34863C14.9178 7.34328 14.8592 7.33769 14.8018 7.33301L14.8076 7.28027C14.5618 7.28027 14.3174 7.28156 14.0723 7.28223Z" fill="white"/>
</svg>
