<svg width="24" height="24" viewBox="0 0 24 24" fill="none" xmlns="http://www.w3.org/2000/svg">
<path d="M18.6866 6.47266C19.277 6.47266 19.7549 6.95061 19.7549 7.54102V20.9316C19.7549 21.522 19.277 22 18.6866 22H5.29791C4.70751 22 4.22955 21.522 4.22955 20.9316V7.54297C4.22955 6.95256 4.70751 6.47461 5.29791 6.47461H18.6866V6.47266ZM10.8428 12.1768V19.0889H13.1358V12.1768H10.8428ZM10.8428 9.12402V10.9473H13.1358V9.12402H10.8428ZM19.0089 3.83105C19.4196 3.83105 19.753 4.16441 19.753 4.5752V4.57715C19.753 4.98796 19.4197 5.32129 19.0089 5.32129H4.97369C4.56289 5.32129 4.22955 4.98796 4.22955 4.57715V4.5752C4.22959 4.16441 4.56291 3.83105 4.97369 3.83105H19.0089ZM19.4483 2C19.6165 2.00013 19.7529 2.13647 19.753 2.30469C19.753 2.47301 19.6166 2.60924 19.4483 2.60938H4.53424C4.36595 2.60925 4.22955 2.47301 4.22955 2.30469C4.22968 2.13647 4.36602 2.00012 4.53424 2H19.4483Z" fill="white"/>
</svg>
