<svg width="24" height="24" viewBox="0 0 24 24" fill="none" xmlns="http://www.w3.org/2000/svg">
<path d="M19.1786 4H5.12162C4.50167 4 4 4.50167 4 5.12162V19.1807C4 19.8006 4.50167 20.3023 5.12162 20.3023H19.1807C19.8006 20.3023 20.3023 19.8006 20.3023 19.1807V5.12162C20.3023 4.50167 19.8006 4 19.1807 4H19.1786ZM14.221 8.52932C12.3347 8.12145 12.404 9.51634 12.404 9.51634V10.4585H13.9457V11.9574H12.4244V16.9191H10.3096V11.9492H9.13907V10.4769H10.3096V9.48779C10.3096 9.05546 10.3892 8.62312 10.5768 8.23362C11.5781 6.16167 14.4005 6.97536 14.4005 6.97536L14.219 8.53136L14.221 8.52932Z" fill="white"/>
</svg>
