<svg width="24" height="24" viewBox="0 0 24 24" fill="none" xmlns="http://www.w3.org/2000/svg">
<path d="M21.6968 8.60454C21.5598 8.10103 21.3661 7.61465 21.1196 7.15471C20.9441 3.75959 16.9385 1.04197 11.9944 1C7.05187 1.04197 3.04412 3.75959 2.86916 7.15471C2.62224 7.61453 2.42841 8.10093 2.2914 8.60454C2.10336 9.2755 2.07338 9.5126 2.08101 10.177C2.08756 11.2311 2.71654 12.1517 2.58355 13.2511C2.52904 13.6953 2.36934 14.1368 2.41186 14.5876C2.47345 15.252 2.96618 15.8036 3.51722 16.1829C4.39312 16.7857 5.37039 17.2529 6.27082 17.8268C6.84148 18.1903 6.76136 18.6989 6.71503 19.39C6.69868 19.6685 6.69541 20.6774 6.7183 20.9592C6.73299 21.1218 6.76329 21.2826 6.80878 21.4394C7.02298 22.1627 7.61327 22.7399 8.37525 22.9764C8.41845 22.9891 8.46321 22.9958 8.50824 22.996C8.62216 22.9962 8.73149 22.9512 8.8123 22.8709C8.89311 22.7906 8.9388 22.6816 8.93938 22.5676V21.096C9.19481 21.096 9.43978 21.1975 9.6204 21.3781C9.80102 21.5587 9.90249 21.8037 9.90249 22.0591V22.4515C9.93192 22.9541 10.0486 22.9999 10.6656 22.9999C10.6981 23.0004 10.7307 22.9993 10.7631 22.9966H11.0226C11.0343 22.9949 11.0461 22.9938 11.058 22.9933C11.1208 22.9931 11.183 22.9805 11.241 22.9563C11.299 22.932 11.3516 22.8966 11.3959 22.852C11.4402 22.8074 11.4753 22.7545 11.4991 22.6964C11.523 22.6383 11.5351 22.576 11.5349 22.5131V21.5789C11.5352 21.4579 11.5805 21.3414 11.662 21.252C11.7435 21.1627 11.8554 21.1068 11.9759 21.0955V21.0922C11.9826 21.0917 11.9893 21.0928 11.9955 21.0955C12.0015 21.0927 12.008 21.0916 12.0146 21.0922V21.0955C12.135 21.1068 12.2469 21.1627 12.3284 21.252C12.4099 21.3414 12.4552 21.4579 12.4555 21.5789V22.5126C12.4553 22.5754 12.4675 22.6377 12.4913 22.6958C12.5152 22.754 12.5502 22.8069 12.5945 22.8515C12.6388 22.896 12.6914 22.9315 12.7494 22.9557C12.8074 22.98 12.8696 22.9926 12.9324 22.9928C12.9443 22.9932 12.9561 22.9943 12.9678 22.996H13.2273C13.2597 22.9988 13.2923 22.9999 13.3249 22.9993C13.9408 22.9993 14.0574 22.9535 14.0879 22.451V22.0586C14.0879 21.8031 14.1894 21.5582 14.37 21.3775C14.5506 21.1969 14.7956 21.0955 15.051 21.0955V22.5671C15.0516 22.681 15.0973 22.7901 15.1781 22.8703C15.2589 22.9506 15.3682 22.9957 15.4822 22.9955C15.5272 22.9952 15.572 22.9886 15.6152 22.9759C16.3782 22.7393 16.9674 22.1621 17.1816 21.4388C17.2271 21.2821 17.2574 21.1212 17.2721 20.9587C17.295 20.6769 17.2917 19.668 17.2754 19.3895C17.2301 18.6989 17.1489 18.1903 17.7201 17.8262C18.6184 17.2523 19.5973 16.7852 20.4732 16.1824C21.0242 15.8008 21.517 15.2514 21.5791 14.587C21.6211 14.1363 21.4619 13.6948 21.4069 13.2506C21.2739 12.1512 21.9029 11.2306 21.9094 10.1765C21.9138 9.5126 21.8849 9.2755 21.6968 8.60454ZM10.5124 14.3052C10.4011 14.5141 10.2685 14.7108 10.1167 14.8922C10.0774 14.9375 10.042 14.9827 10.0077 15.0318C9.92126 15.1563 9.82715 15.2754 9.72589 15.3882C9.41467 15.706 8.99279 15.8652 8.55512 15.9039C8.04483 15.9539 7.52969 15.9054 7.0377 15.7611C6.46907 15.5828 5.96845 15.2351 5.6028 14.7645C5.23714 14.294 5.0239 13.723 4.99158 13.1279C4.98831 13.0734 4.98831 13.0189 4.98831 12.9644C4.98754 12.521 5.08752 12.0833 5.2807 11.6842C5.47389 11.2852 5.75522 10.9352 6.10346 10.6608C6.4517 10.3864 6.85773 10.1947 7.2909 10.1002C7.72407 10.0057 8.17306 10.0108 8.60395 10.1153C9.03484 10.2197 9.43637 10.4207 9.77821 10.703C10.1201 10.9853 10.3933 11.3417 10.5772 11.7451C10.7612 12.1485 10.8511 12.5884 10.8402 13.0316C10.8292 13.4748 10.7177 13.9098 10.514 14.3036L10.5124 14.3052ZM12.9346 17.9696C12.8567 17.9631 12.7951 17.8982 12.7433 17.8399C12.5683 17.642 12.3618 17.3728 12.0947 17.2948C12.029 17.2758 11.9592 17.2758 11.8935 17.2948C11.6276 17.3728 11.4172 17.642 11.2449 17.8399C11.1904 17.8982 11.1316 17.9631 11.0536 17.9696C10.7326 18.0018 10.9691 17.1231 11.203 16.4435C11.3294 16.0739 11.4559 15.7621 11.488 15.6875C11.524 15.6034 11.5662 15.5221 11.6145 15.4444C11.6622 15.3636 11.7213 15.2902 11.79 15.2264C11.8189 15.1996 11.8503 15.1757 11.8837 15.155C11.918 15.1281 11.9601 15.1131 12.0037 15.1124C12.0265 15.1139 12.0487 15.1206 12.0685 15.1321C12.0913 15.1442 12.113 15.1582 12.1334 15.174C12.1563 15.1904 12.1792 15.21 12.2015 15.2285L12.244 15.2705C12.3078 15.3413 12.3627 15.4197 12.4075 15.5038C12.4411 15.5626 12.4715 15.6232 12.4986 15.6853C12.5307 15.76 12.6572 16.0717 12.7836 16.4413C13.0191 17.1231 13.2556 18.0018 12.9346 17.9696ZM18.9988 13.1279C18.9666 13.7231 18.7533 14.2941 18.3875 14.7647C18.0217 15.2353 17.5209 15.5829 16.9522 15.7611C16.4602 15.9054 15.945 15.9539 15.4347 15.9039C14.9987 15.8652 14.5752 15.706 14.264 15.3882C14.1627 15.2754 14.0686 15.1563 13.9822 15.0318C13.9462 14.9827 13.9108 14.9375 13.8732 14.8922C13.7213 14.7108 13.5887 14.5141 13.4775 14.3052C13.2744 13.9115 13.1635 13.4768 13.1529 13.0339C13.1424 12.5911 13.2325 12.1516 13.4166 11.7486C13.6006 11.3457 13.8738 10.9898 14.2154 10.7078C14.5571 10.4258 14.9583 10.225 15.3888 10.1207C15.8194 10.0164 16.268 10.0112 16.7008 10.1055C17.1337 10.1998 17.5394 10.3912 17.8875 10.6652C18.2356 10.9392 18.517 11.2886 18.7103 11.6872C18.9037 12.0858 19.004 12.523 19.0037 12.966C19.0021 13.0211 19.0021 13.0761 18.9988 13.1279Z" fill="white"/>
</svg>
