<svg width="24" height="24" viewBox="0 0 24 24" fill="none" xmlns="http://www.w3.org/2000/svg">
<path fill-rule="evenodd" clip-rule="evenodd" d="M14.7545 4.19239C12.0881 3.46274 9.59687 2.31622 7.35118 0.71814C6.64934 3.32425 5.45642 5.82544 3.84249 8.04881C5.2459 8.46568 6.61428 8.95221 7.98269 9.43874C8.05644 9.46655 8.13053 9.49399 8.20474 9.52149C8.8722 9.76873 9.5479 10.0191 10.0529 10.5506C10.6844 11.2452 10.8598 12.2877 10.4038 13.1214C9.94739 14.0253 9.46467 14.9118 8.98198 15.7982C8.49979 16.6836 8.0176 17.5691 7.56167 18.4718C6.8248 19.9658 6.40379 21.5989 6.54422 23.2664C6.64939 23.2664 6.75463 23.2702 6.85986 23.2741C7.07038 23.2818 7.28098 23.2895 7.49161 23.2664C7.73708 23.072 7.74213 22.7586 7.74698 22.4569C7.74907 22.3274 7.75112 22.2 7.77217 22.0851C7.8292 20.2828 8.46219 18.6176 9.0924 16.9598C9.23971 16.5722 9.38688 16.185 9.52652 15.7966C9.55524 15.7171 9.58206 15.6367 9.60885 15.5564C9.74599 15.1454 9.8819 14.7381 10.2634 14.4764C10.1775 14.9016 10.0508 15.321 9.9237 15.7416C9.73921 16.3522 9.55388 16.9655 9.49147 17.6034C9.35106 18.7499 9.70199 20.0005 10.544 20.8343C11.3512 21.668 12.7897 21.8073 13.737 21.1124C14.2069 20.8132 14.452 20.2917 14.6873 19.7911C14.698 19.7683 14.7087 19.7455 14.7195 19.7227C15.3863 20.0005 16.1582 20.2437 16.8598 19.9658C18.1581 19.5487 18.8599 17.9856 18.4036 16.7C18.0179 15.2754 16.7196 14.3373 15.4914 13.6773C15.1827 13.4808 14.8568 13.3015 14.5287 13.121C13.8126 12.727 13.0865 12.3275 12.5091 11.7318C13.3977 11.8575 14.2489 12.1131 15.1015 12.3692C15.8982 12.6085 16.696 12.8482 17.5266 12.9824C18.6141 13.1911 19.7369 12.9477 20.6493 12.3224C21.5266 11.7318 21.9476 10.62 21.7021 9.61248C21.605 9.1323 21.307 8.78487 21.0047 8.43251C20.8696 8.2749 20.7335 8.11634 20.6143 7.94446C21.4913 7.97943 22.2985 8.3963 23.0001 8.91752C22.4316 7.61415 21.905 6.29321 21.4212 4.95674C21.2107 5.82544 20.9298 6.72884 20.2283 7.35413C20.2283 7.2018 20.2362 7.04949 20.244 6.89787C20.2648 6.49618 20.2854 6.09948 20.1582 5.72108C19.842 4.71361 18.7896 4.01865 17.7371 4.01865C16.5091 4.01865 15.3159 4.7483 14.6143 5.75606C14.1931 6.33126 13.838 6.96006 13.4819 7.59069C12.9776 8.48359 12.4713 9.38013 11.7722 10.1334C12.2986 7.97943 13.4915 6.03387 14.7545 4.19239ZM3.4559 9.68181C2.47377 9.89052 1.84199 10.9327 2.01745 11.8705C2.09067 12.3772 2.43469 12.7333 2.77907 13.0898C2.93042 13.2465 3.08184 13.4033 3.21037 13.5729C2.36838 13.5382 1.63149 13.1561 1 12.6348C1.421 13.7467 1.84199 14.8932 2.19292 16.0397C2.43845 15.2407 2.7193 14.4069 3.45619 13.9551C3.43695 14.0551 3.41508 14.157 3.39293 14.2602C3.25337 14.9106 3.10247 15.6139 3.52626 16.2134C4.12299 17.1862 5.59649 17.3947 6.43876 16.6303C7.10529 16.1094 7.24544 15.1713 6.99989 14.4069C7.66671 14.3722 8.4033 14.1985 8.78928 13.6079C9.42104 12.7739 9.24558 11.4886 8.36827 10.8977C7.63168 10.3421 6.61394 10.5155 5.87707 11.0021C5.82023 10.9136 5.76715 10.8214 5.71393 10.729C5.53714 10.422 5.35864 10.112 5.03507 9.92493C4.57903 9.61242 3.98228 9.61242 3.4559 9.68181Z" fill="white"/>
</svg>
