<svg width="24" height="24" viewBox="0 0 24 24" fill="none" xmlns="http://www.w3.org/2000/svg">
<path d="M21.2715 1C21.499 1.00001 21.7244 1.04459 21.9346 1.13184C22.1448 1.21913 22.3355 1.34757 22.4961 1.50879C22.6567 1.67002 22.7837 1.86177 22.8701 2.07227C22.9565 2.28268 23.001 2.50791 23 2.73535V21.2715C23.001 21.4987 22.9566 21.7245 22.8701 21.9346C22.7836 22.1445 22.6567 22.3355 22.4961 22.4961C22.3354 22.6567 22.1438 22.7836 21.9336 22.8701C21.7235 22.9565 21.4986 23.0009 21.2715 23H2.72852C2.50137 23.0009 2.27646 22.9565 2.06641 22.8701C1.85625 22.7836 1.66462 22.6567 1.50391 22.4961C1.3433 22.3355 1.2164 22.1445 1.12988 21.9346C1.04335 21.7245 0.999039 21.4987 1 21.2715V2.73535C0.999044 2.50791 1.04352 2.28268 1.12988 2.07227C1.21633 1.86177 1.34329 1.67002 1.50391 1.50879C1.66451 1.34757 1.85525 1.21913 2.06543 1.13184C2.27556 1.04459 2.50099 1.00001 2.72852 1H21.2715ZM5.0166 11.6582C4.64631 11.6672 4.2912 11.8082 4.01562 12.0557C3.74002 12.3032 3.56211 12.6416 3.51367 13.0088L3.21582 15.6523H4.89355L5.2207 12.748H10.0215L10.1445 11.6436L5.0166 11.6582ZM12.5049 8.75391L13.2314 9.86523L13.1729 10.4238L13.1152 10.9033V11.0635C13.0829 11.2752 13.098 11.492 13.1592 11.6973C13.2204 11.9024 13.3259 12.0915 13.4688 12.251C13.6118 12.4106 13.7888 12.5368 13.9863 12.6201C14.1837 12.7034 14.3972 12.7423 14.6113 12.7334H18.6855C18.778 12.7315 18.8704 12.7492 18.9551 12.7861C19.0397 12.8231 19.1154 12.8783 19.1768 12.9473C19.2381 13.0162 19.2837 13.0982 19.3105 13.1865C19.3373 13.2747 19.3446 13.3676 19.332 13.459L19.2959 13.7783C19.2698 13.9767 19.1737 14.1597 19.0244 14.293C18.8751 14.4262 18.6825 14.5014 18.4824 14.5049H12.7588L12.6357 15.6084H19.0928C19.5514 15.597 19.9911 15.4229 20.333 15.1172C20.675 14.8112 20.897 14.3931 20.959 13.9385L21.0322 13.2998C21.065 13.0912 21.0513 12.8778 20.9932 12.6748C20.935 12.4719 20.8335 12.2836 20.6953 12.124C20.557 11.9643 20.3851 11.8366 20.1924 11.75C19.9997 11.6634 19.7904 11.6195 19.5791 11.6221H15.5049C15.4124 11.6238 15.3202 11.6061 15.2354 11.5693C15.1503 11.5324 15.0737 11.4771 15.0117 11.4082C14.9499 11.3394 14.9037 11.2581 14.876 11.1699C14.8482 11.0816 14.8392 10.9883 14.8506 10.8965V10.5771L14.9385 9.85059H21.417L21.54 8.75391H12.5049ZM3.8623 9.85059H12.0254L12.1494 8.74023H3.13574L3.8623 9.85059Z" fill="white"/>
</svg>
