<svg width="24" height="24" viewBox="0 0 24 24" fill="none" xmlns="http://www.w3.org/2000/svg">
<path d="M21.2714 23H2.72864C2.50136 23.0009 2.27615 22.9569 2.06599 22.8704C1.85583 22.7839 1.66488 22.6567 1.50417 22.496C1.34346 22.3353 1.21617 22.1445 1.12964 21.9344C1.04311 21.7243 0.999054 21.4991 1.00002 21.2719V2.73531C0.999059 2.50777 1.04307 2.28228 1.12951 2.07179C1.21595 1.86129 1.34313 1.66994 1.50374 1.5087C1.66435 1.34747 1.85524 1.21953 2.06544 1.13223C2.27564 1.04494 2.50102 0.999998 2.72864 1H21.2714C21.499 0.999998 21.7244 1.04494 21.9346 1.13223C22.1448 1.21953 22.3356 1.34747 22.4963 1.5087C22.6569 1.66994 22.784 1.86129 22.8705 2.07179C22.9569 2.28228 23.0009 2.50777 23 2.73531V21.2719C23.0009 21.4991 22.9569 21.7243 22.8704 21.9344C22.7838 22.1445 22.6565 22.3353 22.4958 22.496C22.3351 22.6567 22.1442 22.7839 21.934 22.8704C21.7239 22.9569 21.4986 23.0009 21.2714 23Z" fill="#C42C2B"/>
<path d="M12.1493 8.73975L12.0258 9.85065H3.86205L3.13574 8.73975H12.1493ZM10.1446 11.644L10.0212 12.7477H5.22026L4.89342 15.652H3.21564L3.51342 13.0091C3.56181 12.6417 3.7399 12.3038 4.01558 12.0561C4.29126 11.8085 4.64638 11.6675 5.01689 11.6586L10.1446 11.644Z" fill="#222221"/>
<path d="M21.4167 9.85065H14.938L14.8509 10.5767V10.8962C14.8394 10.9881 14.8478 11.0814 14.8756 11.1698C14.9034 11.2582 14.9498 11.3396 15.0118 11.4085C15.0738 11.4773 15.1499 11.5321 15.2349 11.5689C15.3199 11.6058 15.4119 11.624 15.5045 11.6223H19.5792C19.7904 11.6197 19.9997 11.6633 20.1924 11.7499C20.3851 11.8365 20.5566 11.9641 20.6949 12.1238C20.8332 12.2835 20.935 12.4714 20.9932 12.6745C21.0514 12.8775 21.0645 13.0908 21.0318 13.2995L20.9591 13.9384C20.8972 14.3931 20.6753 14.8108 20.3333 15.1168C19.9912 15.4228 19.5514 15.5971 19.0925 15.6084H12.6356L12.7591 14.5048H18.4824C18.6825 14.5012 18.8747 14.426 19.024 14.2928C19.1733 14.1595 19.2698 13.9771 19.2959 13.7787L19.3322 13.4592C19.3448 13.3677 19.3374 13.2745 19.3106 13.1861C19.2837 13.0977 19.2379 13.0162 19.1765 12.9472C19.115 12.8781 19.0394 12.8233 18.9546 12.7863C18.8699 12.7494 18.7782 12.7312 18.6858 12.7331H14.6112C14.397 12.742 14.1835 12.7034 13.986 12.6201C13.7885 12.5367 13.6119 12.4107 13.4689 12.2511C13.3259 12.0915 13.22 11.9022 13.1588 11.6968C13.0976 11.4914 13.0826 11.275 13.115 11.0632V10.9035L13.1731 10.4242L13.2312 9.86516L12.5049 8.75427H21.5402L21.4167 9.85065Z" fill="#222221"/>
</svg>
