<svg width="24" height="24" viewBox="0 0 24 24" fill="none" xmlns="http://www.w3.org/2000/svg">
<path d="M16.073 18.7206H14.5746C14.5746 16.4624 15.4635 14.1238 17.0148 12.3016C17.8995 11.2624 18.9196 10.4751 20.0159 9.9672C19.254 9.50794 18.6063 8.87937 18.1259 8.13228C16.9069 11.3873 13.891 13.9714 10.3735 14.418C10.2571 14.4328 10.1407 14.4455 10.0243 14.454V18.7206H8.52593V14.4265C5.42963 14.0561 3 11.7683 1.72804 9.27725C1.63069 9.08466 1.31111 8.46667 1 7.55873C1.8 7.31958 2.58095 7.26878 2.9746 7.26667C4.55344 7.26032 6.26773 7.86561 7.58413 8.93651C8.87513 9.98836 9.69206 11.3894 9.9418 12.9577C10.0222 12.9513 10.1026 12.9429 10.1831 12.9323C14.054 12.4392 17.2053 8.88148 17.2053 5H18.7037C18.7037 7.36826 20.6317 9.2963 23 9.2963V10.7947C19.0995 10.7947 16.073 15.055 16.073 18.7206ZM3.15026 8.76297C4.19577 10.7185 6.06243 12.49 8.40741 12.8942C8.11323 11.5609 7.32381 10.6571 6.6381 10.0984C5.62646 9.27513 4.33968 8.79471 3.15026 8.76297Z" fill="#FF8300"/>
</svg>
