<svg width="24" height="24" viewBox="0 0 24 24" fill="none" xmlns="http://www.w3.org/2000/svg">
<path d="M2.40039 2.40002C7.48077 2.4037 12.5611 2.4092 17.6415 2.41746C17.117 3.32202 16.591 4.2252 16.0637 5.12792C13.0953 5.12654 10.127 5.1192 7.1586 5.11139C7.5776 5.8131 7.98697 6.52032 8.41056 7.21927C10.5464 7.21835 12.6823 7.21927 14.8182 7.21881C14.2803 8.11694 13.7622 9.02746 13.2326 9.9311C12.1706 9.9366 11.1086 9.92697 10.0467 9.93615C10.5611 10.7925 11.0485 11.6654 11.5565 12.5254C11.5726 12.5626 11.6121 12.5998 11.6121 12.6402C11.0953 13.5475 10.5483 14.4383 10.026 15.3433C9.36698 14.2262 8.70749 13.1097 8.05535 11.9885C6.97961 10.1073 5.85752 8.25278 4.75884 6.38493C3.97223 5.05678 3.18516 3.72909 2.40039 2.40002Z" fill="#D61A1F"/>
<path d="M16.4083 7.21857C17.9715 7.21857 19.5346 7.21857 21.0977 7.21857C18.4639 11.7184 15.8195 16.2123 13.1885 20.7139C12.1297 18.9268 11.0792 17.1342 10.0273 15.343C10.5496 14.438 11.0967 13.5472 11.6134 12.6399C12.082 13.4178 12.5244 14.2109 12.9856 14.9933C13.0512 15.1172 13.1205 15.2393 13.2064 15.3513C14.2734 13.5431 15.3399 11.734 16.4166 9.93131C15.8856 9.92672 15.3546 9.93085 14.8236 9.92902C15.3588 9.02997 15.8755 8.11945 16.4083 7.21857Z" fill="white"/>
</svg>
