<svg width="24" height="24" viewBox="0 0 24 24" fill="none" xmlns="http://www.w3.org/2000/svg">
<g clip-path="url(#clip0_4_5138)">
<path d="M21.258 13.5676C22.0933 12.7323 22.0933 11.378 21.258 10.5427C20.4227 9.70745 19.0684 9.70745 18.2331 10.5427C17.3978 11.378 17.3978 12.7323 18.2331 13.5676C19.0684 14.4029 20.4227 14.4029 21.258 13.5676Z" fill="url(#paint0_linear_4_5138)"/>
<path d="M15.6591 13.2706L14.6557 12.2671L14.6657 12.2571L12.6857 10.2771C12.6553 10.2467 12.6193 10.2226 12.5797 10.2062C12.54 10.1898 12.4975 10.1813 12.4546 10.1813C12.4117 10.1813 12.3692 10.1898 12.3295 10.2062C12.2898 10.2226 12.2538 10.2467 12.2235 10.2771L10.2866 12.2144C10.2253 12.2757 10.1909 12.3588 10.1909 12.4455C10.1909 12.5322 10.2253 12.6153 10.2866 12.6766L12.2666 14.6566L12.2731 14.6501L12.9782 15.3552C13.0174 15.3944 13.0484 15.4409 13.0697 15.4921C13.0909 15.5433 13.1018 15.5981 13.1018 15.6535C13.1018 15.7089 13.0909 15.7638 13.0697 15.815C13.0484 15.8662 13.0174 15.9127 12.9782 15.9519L11.9612 16.9689C11.8999 17.0302 11.8168 17.0646 11.7301 17.0646C11.6434 17.0646 11.5603 17.0302 11.499 16.9689L10.7183 16.1883L10.7201 16.1865L8.33538 13.8053L7.02278 12.49C6.96154 12.4287 6.92715 12.3456 6.92715 12.259C6.92715 12.1723 6.96154 12.0893 7.02278 12.028L8.75688 10.294L10.3033 8.74748L12.0351 7.01558C12.0964 6.95431 12.1795 6.91989 12.2662 6.91989C12.3529 6.91989 12.436 6.95431 12.4973 7.01558L14.2286 8.74708L14.2305 8.74518L16.1812 10.696C16.2115 10.7263 16.2476 10.7504 16.2872 10.7669C16.3269 10.7833 16.3694 10.7918 16.4123 10.7918C16.4552 10.7918 16.4977 10.7833 16.5374 10.7669C16.577 10.7504 16.613 10.7263 16.6434 10.696L18.5634 8.77538C18.6247 8.71408 18.6591 8.63095 18.6591 8.54428C18.6591 8.45761 18.6247 8.37448 18.5634 8.31318L15.6662 5.41528L15.6643 5.41718L14.6491 4.40178L14.6509 4.40008L12.4991 2.24828C12.4378 2.18701 12.3547 2.15259 12.268 2.15259C12.1813 2.15259 12.0982 2.18701 12.0369 2.24828L10.3034 3.98178L10.0943 4.19088L9.88508 4.39998L7.92038 6.36468L6.37398 7.91118L3.99108 10.294L2.25768 12.0275C2.19641 12.0888 2.16199 12.1719 2.16199 12.2586C2.16199 12.3453 2.19641 12.4284 2.25768 12.4897L3.98908 14.2211L3.98738 14.2228L6.37038 16.6057L6.37218 16.6039L7.91718 18.1488L7.91528 18.1506L9.34738 19.5827L10.2981 20.5334L11.499 21.7343C11.5603 21.7956 11.6434 21.83 11.7301 21.83C11.8168 21.83 11.8999 21.7956 11.9612 21.7343L13.6948 20.0008L13.9039 19.7917L14.113 19.5826L15.6594 18.0361L17.8104 15.8845C17.8407 15.8541 17.8648 15.8181 17.8813 15.7785C17.8977 15.7388 17.9062 15.6963 17.9062 15.6534C17.9062 15.6105 17.8977 15.568 17.8813 15.5283C17.8648 15.4886 17.8407 15.4526 17.8104 15.4223L15.6587 13.2706H15.6591Z" fill="url(#paint1_linear_4_5138)"/>
</g>
<defs>
<linearGradient id="paint0_linear_4_5138" x1="22.2593" y1="-0.721095" x2="16.3212" y2="29.4603" gradientUnits="userSpaceOnUse">
<stop offset="0.1" stop-color="#FF0F4F"/>
<stop offset="0.34" stop-color="#FF2980"/>
<stop offset="0.74" stop-color="#C41191"/>
<stop offset="1" stop-color="#9C009C"/>
</linearGradient>
<linearGradient id="paint1_linear_4_5138" x1="13.3014" y1="-2.64962" x2="7.29618" y2="27.8724" gradientUnits="userSpaceOnUse">
<stop offset="0.1" stop-color="#FF0F4F"/>
<stop offset="0.34" stop-color="#FF2980"/>
<stop offset="0.74" stop-color="#C41191"/>
<stop offset="1" stop-color="#9C009C"/>
</linearGradient>
<clipPath id="clip0_4_5138">
<rect width="20" height="20" fill="white" transform="translate(2 2)"/>
</clipPath>
</defs>
</svg>
