<svg width="24" height="24" viewBox="0 0 24 24" fill="none" xmlns="http://www.w3.org/2000/svg">
<path d="M17.3755 6.00647C14.3663 6.00647 13.304 7.71936 13.304 9.64908C13.304 11.4406 14.1107 13.3703 16.9617 13.3703H18.7125C19.9709 13.3703 20.6593 13.5871 20.6593 14.7489C20.6593 15.7905 19.9709 16.1475 18.7125 16.1475H13.855V18.5686H18.7125C22.0161 18.5686 22.9999 17.2695 22.9999 14.8275C22.9999 13.0162 22.233 11.0665 18.8697 11.0665H17.2373C16.1957 11.0665 15.6446 10.791 15.6446 9.78732C15.6446 8.86128 16.1948 8.42857 17.2543 8.42857H22.0152V6.00647H17.3755Z" fill="#0068FF"/>
<path d="M8.19586 6.00009C4.89223 6.00009 0.999634 7.47626 0.999634 12.2807C0.999634 17.0851 4.89412 18.5622 8.19586 18.5622H11.8337V12.2617H9.39555V16.1439H8.19586C5.04941 16.1439 3.59407 14.7653 3.59407 12.2617C3.59407 10.1938 5.02952 8.42124 8.62859 8.42124H11.8337V6.00009H8.19586Z" fill="#0068FF"/>
</svg>
