<svg width="24" height="24" viewBox="0 0 24 24" fill="none" xmlns="http://www.w3.org/2000/svg">
<path d="M23 16.9014C23 18.8532 21.4177 20.4355 19.4658 20.4355H4.53415C2.58227 20.4355 1 18.8532 1 16.9014V7.09415C1 5.14227 2.58227 3.56 4.53415 3.56H19.4659C21.4177 3.56 23 5.14231 23 7.09415V16.9014Z" fill="url(#paint0_linear_85_984)"/>
<path d="M19.5625 11.6613V12.0012C20.2317 12.302 20.7828 13.0473 20.7828 13.9757C20.7828 15.5317 19.7725 16.6824 17.5548 16.6824H13.0408V7.34631H17.4367C19.4969 7.34631 20.5204 8.48389 20.5204 9.81762C20.5204 10.6545 20.153 11.3475 19.5625 11.6613ZM14.996 11.0467H17.2005C18.0797 11.0467 18.5127 10.6937 18.5127 10.0007C18.5127 9.30766 18.0666 8.96769 17.1874 8.96769H14.996V11.0467ZM14.996 15.0218H17.2661C18.2503 15.0218 18.7752 14.6556 18.7752 13.8711C18.7752 13.0734 18.2765 12.6812 17.2923 12.6812H14.996V15.0218Z" fill="white"/>
<path d="M7.60562 11.5207H11.6721V12.5889C11.6721 14.7 10.534 16.7347 7.66954 16.7347C4.80511 16.7347 3.25781 14.7763 3.25781 12.0294C3.25781 9.29518 4.8179 7.32404 7.68233 7.32404C9.76673 7.32404 11.0838 8.41771 11.4291 10.0836H9.44703C9.24242 9.40966 8.65419 9.01541 7.66954 9.01541C6.03274 9.01541 5.21432 10.2998 5.21432 12.0294C5.21432 13.7589 6.03274 15.0561 7.68233 15.0561C9.08899 15.0561 9.72835 14.2294 9.76673 13.0722H7.60562V11.5207Z" fill="white"/>
<defs>
<linearGradient id="paint0_linear_85_984" x1="12" y1="20.4355" x2="12" y2="3.56" gradientUnits="userSpaceOnUse">
<stop stop-color="#057400"/>
<stop offset="0.632213" stop-color="#2BDC24"/>
</linearGradient>
</defs>
</svg>
