<svg width="24" height="24" viewBox="0 0 24 24" fill="none" xmlns="http://www.w3.org/2000/svg">
<path d="M23.8462 17.3081C21.8848 14.0748 19.9242 10.3562 17.9578 7.11111H16.255C15.1509 9.05 14.0504 11.4551 12.9479 13.3766C12.2167 14.6511 11.4844 15.9243 10.7529 17.1984C10.7172 17.1885 10.6815 17.1785 10.6459 17.1685C10.6459 13.838 10.6459 10.508 10.6459 7.12412C7.05377 7.12412 3.52688 7.12412 0 7.12412C0 10.6315 0 14.139 0 17.646C3.18394 17.6434 6.36826 17.6056 9.55144 17.636H9.56563C10.2987 17.6429 11.0318 17.6538 11.7648 17.6694C11.9336 17.6729 12.0955 17.6711 12.2505 17.6616L13.2728 17.6711L14.6308 15.838H15.3516C16.3716 15.8606 17.3939 15.8975 18.4093 15.838H19.7688L21.3516 17.6273H21.9331C22.5991 17.6481 23.2715 17.6347 24 17.6347C23.9252 17.4738 23.893 17.3853 23.8462 17.3081ZM9.92622 14.8042C9.91932 14.9859 9.70987 15.2053 9.54683 15.325C8.23988 16.2838 6.7745 16.4343 5.28496 16.2374C4.61019 16.1481 3.90857 15.9382 3.30708 15.5891C1.12435 14.3237 1.01119 10.8874 3.06464 9.36787C4.71914 8.14365 7.82789 8.16187 9.43213 9.40777C9.54798 9.49753 9.65232 9.60551 9.79925 9.73908C9.53878 10.1168 9.29058 10.4767 9.01477 10.877C7.77572 9.72694 6.35062 9.74645 4.90557 10.034C3.76242 10.2612 3.16553 11.0856 3.15057 12.3159C3.13484 13.6208 3.68071 14.5249 4.83767 14.7027C5.77175 14.8463 6.75264 14.8072 7.68941 14.6598C8.59779 14.5167 8.62464 14.3424 8.51608 13.1971C7.51832 13.1971 6.5125 13.1971 5.47906 13.1971C5.47906 12.6979 5.47906 12.2634 5.47906 11.7807C6.94981 11.7807 8.41519 11.7807 9.94387 11.7807C9.94387 12.8042 9.96343 13.8055 9.92622 14.8042ZM15.716 13.5999C16.296 12.6229 16.8177 11.7447 17.3747 10.8067C17.9451 11.75 18.4803 12.635 19.0641 13.5999C17.921 13.5999 16.8818 13.5999 15.716 13.5999Z" fill="white"/>
</svg>
