<svg width="24" height="24" viewBox="0 0 24 24" fill="none" xmlns="http://www.w3.org/2000/svg">
<path d="M19.4658 3.56C21.4177 3.56 23 5.14233 23 7.09418V16.9018C22.9998 18.8534 21.4176 20.436 19.4658 20.436H4.53418C2.58245 20.436 1.00024 18.8534 1 16.9018V7.09418C1 5.1423 2.5823 3.56 4.53418 3.56H19.4658ZM7.68262 7.32367C4.81818 7.32367 3.25781 9.29553 3.25781 12.0297C3.25797 14.7764 4.80563 16.7348 7.66992 16.7348C10.5339 16.7346 11.6717 14.7001 11.6719 12.5893V11.5209H7.60547V13.0717H9.7666C9.72823 14.2289 9.08907 15.056 7.68262 15.0561C6.03315 15.0561 5.214 13.7591 5.21387 12.0297C5.21387 10.3002 6.03312 9.01508 7.66992 9.01508C8.65431 9.01518 9.24267 9.40958 9.44727 10.0834H11.4287C11.0834 8.4177 9.76675 7.32377 7.68262 7.32367ZM13.041 16.6821H17.5547C19.7721 16.6821 20.783 15.5318 20.7832 13.976C20.7832 13.0477 20.2317 12.3022 19.5625 12.0014V11.6616C20.1529 11.3477 20.5204 10.6545 20.5205 9.81781C20.5205 8.48408 19.4967 7.34613 17.4365 7.34613H13.041V16.6821ZM17.292 12.6811C18.276 12.6811 18.7752 13.0732 18.7754 13.8705C18.7754 14.6549 18.2505 15.0218 17.2666 15.0219H14.9961V12.6811H17.292ZM17.1875 8.96722C18.0665 8.96725 18.5126 9.30756 18.5127 10.0004C18.5127 10.6934 18.0794 11.0463 17.2002 11.0463H14.9961V8.96722H17.1875Z" fill="white" fill-opacity="0.9"/>
</svg>
