<svg width="24" height="24" viewBox="0 0 24 24" fill="none" xmlns="http://www.w3.org/2000/svg">
<path d="M8.20472 4.453C10.4139 2.95029 13.8158 3.19769 15.4819 5.38762C15.4633 4.98903 15.4262 4.18728 15.4076 3.78869C16.3312 3.78869 17.2594 3.78869 18.183 3.77953C18.1598 7.45843 18.248 11.1373 18.1412 14.8116C18.0716 16.9924 16.8603 19.2327 14.6929 19.9932C11.8294 20.9599 8.39036 20.5842 5.99094 18.6829C6.57107 17.9178 7.1512 17.1482 7.72669 16.3831C9.36962 17.8308 11.899 18.5363 13.9179 17.4322C15.2777 16.6396 15.2406 14.9078 15.3659 13.5517C13.3145 15.5309 9.76411 15.5813 7.65708 13.6709C4.98383 11.316 5.22516 6.46425 8.20472 4.453ZM10.5531 6.3543C8.15367 7.32098 8.10262 11.1373 10.4788 12.1727C12.6648 13.3914 15.7743 11.6046 15.4262 9.04818C15.4494 6.66126 12.5812 5.36929 10.5531 6.3543Z" fill="#EE004F"/>
</svg>
