<svg width="24" height="24" viewBox="0 0 24 24" fill="none" xmlns="http://www.w3.org/2000/svg">
<path d="M19.9712 11.9052H12.2575V14.6469H16.6983C16.2735 15.552 15.7153 16.2157 15.0237 16.6379C14.3321 17.06 13.4809 17.2719 12.4701 17.2734C10.919 17.2734 9.61464 16.7593 8.55711 15.731C7.49959 14.7027 6.97101 13.4487 6.97139 11.9691C6.97139 10.5372 7.48078 9.32126 8.49955 8.32111C9.5183 7.32097 10.7824 6.82071 12.2917 6.82033C14.0241 6.82033 15.5404 7.50831 16.8408 8.88426L18.8962 6.85168C17.958 5.83709 16.9989 5.12118 16.0189 4.70395C14.8347 4.20565 13.5616 3.95354 12.2769 3.96296C10.0813 3.96296 8.24134 4.62491 6.75708 5.94882C6.76499 5.99402 6.75694 6.04056 6.73428 6.08048C6.73008 6.12934 6.70798 6.17494 6.67219 6.20849C6.63643 6.24205 6.58953 6.26123 6.54049 6.2623C6.53574 6.26259 6.53098 6.26259 6.52624 6.2623C6.3127 6.44727 6.12279 6.65785 5.96081 6.88929C5.92376 7.24384 5.57378 7.49918 5.34863 7.76765C5.30589 7.85144 5.26257 7.93466 5.21697 8.0156C5.10115 8.23581 5.01034 8.4683 4.94622 8.7087C4.87896 8.93044 4.79118 9.14189 4.71025 9.35907C4.54267 9.80879 4.47598 10.2802 4.33348 10.7367C4.2571 10.9801 4.15963 11.2224 4.14367 11.4777C4.12771 11.7331 4.13626 11.9793 4.09294 12.2301C4.08997 12.2451 4.08498 12.2597 4.07812 12.2734C4.32037 13.9013 4.84704 15.4996 5.82686 16.8385C6.70064 18.0355 8.00537 18.8563 9.36079 19.4092C10.7715 19.986 12.3903 20.08 13.886 19.8361C15.3366 19.5989 16.7359 18.997 17.7203 17.8776C18.7212 16.7376 19.3915 15.3759 19.762 13.9116C19.7684 13.8793 19.7839 13.8496 19.8068 13.8259C19.8296 13.8023 19.8588 13.7857 19.8908 13.7782C19.9588 13.3729 19.9933 12.9626 19.994 12.5516L19.9712 11.9052Z" fill="white"/>
<path d="M19.9256 13.5445C19.7899 14.5405 19.4578 15.4997 18.9487 16.3665C18.254 17.5692 17.354 18.4865 16.2486 19.1184C15.1432 19.7503 13.8472 20.0665 12.3607 20.0669C10.7693 20.0669 9.35001 19.7213 8.10287 19.0301C7.39545 18.64 6.75583 18.138 6.2088 17.5435C6.0948 17.4176 7.26841 17.8211 9.0975 17.967C10.5584 18.0839 12.4947 18.0115 14.0986 17.5612C15.7293 17.1052 17.2575 16.167 18.2915 15.2812C19.3841 14.3419 19.9359 13.4635 19.9256 13.5445Z" fill="url(#paint0_linear_4_5112)"/>
<path d="M10.1223 19.8053C9.31535 19.6451 8.54262 19.3451 7.83891 18.919C6.90356 18.349 6.33584 17.6998 5.95054 17.2523C5.00689 16.2 4.37836 14.9035 4.13682 13.5109C3.87356 12.0995 3.99162 10.6435 4.47882 9.29295C4.80205 8.35696 5.30184 7.49166 5.9511 6.74396C6.21186 6.4487 6.49381 6.17285 6.79468 5.91861C6.79468 5.91861 6.48234 7.30995 6.23952 9.07067C5.89752 11.5655 6.4829 13.8164 6.4829 13.8164C6.76577 14.9624 7.21821 16.0598 7.82523 17.0722C8.44471 18.0967 9.21964 19.0188 10.1223 19.8053Z" fill="url(#paint1_linear_4_5112)"/>
<defs>
<linearGradient id="paint0_linear_4_5112" x1="6.919" y1="19.0335" x2="20.3753" y2="15.9555" gradientUnits="userSpaceOnUse">
<stop offset="0.01" stop-color="#352B19"/>
<stop offset="1" stop-color="#DEA329"/>
</linearGradient>
<linearGradient id="paint1_linear_4_5112" x1="584.087" y1="2068.5" x2="1656.61" y2="4437.08" gradientUnits="userSpaceOnUse">
<stop offset="0.01" stop-color="#352B19"/>
<stop offset="1" stop-color="#DEA329"/>
</linearGradient>
</defs>
</svg>
