<svg width="24" height="24" viewBox="0 0 24 24" fill="none" xmlns="http://www.w3.org/2000/svg">
<path d="M13.187 12.128C13.5236 12.1315 13.7866 12.163 13.9689 12.2191C14.1723 12.2823 14.3266 12.426 14.4318 12.6469C14.5335 12.8608 14.5861 13.1729 14.5861 13.5797V15.5433L14.565 15.5574C14.3126 15.7397 13.9935 15.8835 13.6218 15.9887C13.2501 16.0939 12.8609 16.1465 12.4716 16.1465C11.9211 16.1465 11.3951 16.0448 10.9112 15.8449C10.4273 15.645 9.99952 15.354 9.63484 14.9753C9.27016 14.5966 8.98613 14.1407 8.78977 13.6147C8.5934 13.0923 8.49171 12.5032 8.49171 11.8685C8.49171 11.2689 8.58288 10.7113 8.76171 10.2169C8.94055 9.72249 9.20003 9.29119 9.52965 8.93703C9.85926 8.58287 10.2485 8.31287 10.6798 8.13053C11.1111 7.94819 11.588 7.85702 12.0964 7.85702C12.5733 7.85702 13.0467 7.94468 13.5061 8.11299C13.9654 8.28481 14.3932 8.55832 14.7754 8.93002C15.1506 9.2947 15.4522 9.75756 15.6696 10.3081H16.0237L15.8484 7.32402H15.5083C15.3645 7.67468 15.1331 7.85351 14.814 7.85351C14.5896 7.85351 14.3862 7.81494 14.2074 7.7413C13.1764 7.45727 12.3699 7.31 11.8159 7.31C11.0971 7.31 10.4063 7.42922 9.76458 7.66766C9.13341 7.90962 8.55834 8.24624 8.06742 8.67755C7.57651 9.10885 7.18728 9.6173 6.91377 10.1959C6.64026 10.7709 6.5 11.4056 6.5 12.0754C6.5 13.0432 6.75598 13.8883 7.25741 14.5826C7.76235 15.2804 8.45665 15.8098 9.32276 16.1605C10.1924 16.5147 11.1567 16.69 12.1911 16.69C12.6785 16.69 13.1975 16.6444 13.7305 16.5532C14.267 16.4621 14.7719 16.3358 15.2313 16.178C15.6801 16.0237 16.0483 15.8554 16.3323 15.6766V13.5797C16.3323 13.0712 16.4165 12.703 16.5778 12.4856C16.7391 12.2682 17.0477 12.149 17.5 12.128V11.7984H13.187V12.128Z" fill="#E8C07B"/>
<path d="M12 22C6.48588 22 2 17.5141 2 12C2 6.48588 6.48588 2 12 2C17.5141 2 22 6.48588 22 12C22 17.5141 17.5141 22 12 22ZM12 3.10762C7.09692 3.10762 3.10762 7.09692 3.10762 12C3.10762 16.9031 7.09692 20.8924 12 20.8924C16.9031 20.8924 20.8924 16.9031 20.8924 12C20.8924 7.09692 16.9031 3.10762 12 3.10762Z" fill="#E8C07B"/>
</svg>
