<svg width="24" height="24" viewBox="0 0 24 24" fill="none" xmlns="http://www.w3.org/2000/svg">
<path fill-rule="evenodd" clip-rule="evenodd" d="M13.3192 3.01131C13.5944 3.01131 13.8201 2.78556 13.8201 2.51043V1.06423C13.8201 0.789103 13.5944 0.563354 13.3192 0.563354C13.0441 0.563354 12.8184 0.789103 12.8184 1.06423V2.51043C12.8184 2.78556 13.0441 3.01131 13.3192 3.01131Z" fill="url(#paint0_linear_4_5101)"/>
<path fill-rule="evenodd" clip-rule="evenodd" d="M11.3153 4.33833C11.5905 4.33833 11.8162 4.11259 11.8162 3.83746V2.39126C11.8162 2.11613 11.5905 1.89038 11.3153 1.89038C11.0402 1.89038 10.8145 2.11613 10.8145 2.39126V3.83746C10.8145 4.11259 11.0402 4.33833 11.3153 4.33833Z" fill="url(#paint1_linear_4_5101)"/>
<path fill-rule="evenodd" clip-rule="evenodd" d="M11.3153 0.987647C11.5905 0.987647 11.8162 0.761899 11.8162 0.486769V0.500879C11.8162 0.225748 11.5905 0 11.3153 0C11.0402 0 10.8145 0.225748 10.8145 0.500879V0.486769C10.8145 0.761899 11.0402 0.987647 11.3153 0.987647Z" fill="url(#paint2_linear_4_5101)"/>
<path fill-rule="evenodd" clip-rule="evenodd" d="M15.3231 4.72611C15.5983 4.72611 15.824 4.50036 15.824 4.22523V4.23934C15.824 3.96421 15.5983 3.73846 15.3231 3.73846C15.048 3.73846 14.8223 3.96421 14.8223 4.23934V4.22523C14.8223 4.50036 15.048 4.72611 15.3231 4.72611Z" fill="url(#paint3_linear_4_5101)"/>
<path fill-rule="evenodd" clip-rule="evenodd" d="M19.3314 8.43603C19.0562 8.43603 18.8305 8.66177 18.8305 8.93691V9.19087C18.8164 9.45189 18.5977 9.65648 18.3296 9.65648C18.0545 9.65648 17.8287 9.43073 17.8287 9.1556V7.90693C17.8287 7.6318 17.603 7.40605 17.3278 7.40605C17.0527 7.40605 16.827 7.6318 16.827 7.90693V7.93515C16.827 8.21028 16.6012 8.43603 16.3261 8.43603C16.051 8.43603 15.8252 8.21028 15.8252 7.93515V5.83993C15.8252 5.5648 15.5995 5.33905 15.3243 5.33905C15.0492 5.33905 14.8235 5.5648 14.8235 5.83993V6.6371C14.8164 6.91928 14.5695 7.13798 14.3226 7.13798C14.0474 7.13798 13.8217 6.91223 13.8217 6.6371V4.37962C13.8217 4.10449 13.5959 3.87874 13.3208 3.87874C13.0457 3.87874 12.8199 4.10449 12.8199 4.37962V6.3408C12.8199 6.61593 12.5942 6.84168 12.3191 6.84168C12.0439 6.84168 11.8182 6.61593 11.8182 6.3408V5.64239C11.8182 5.36726 11.5924 5.14152 11.3173 5.14152C11.0422 5.14152 10.8164 5.36726 10.8164 5.64239V7.15208C10.8164 7.42721 10.5907 7.65296 10.3155 7.65296C10.0404 7.65296 9.81467 7.42721 9.81467 7.15208V5.05686C9.81467 4.78173 9.58892 4.55598 9.31379 4.55598C9.03866 4.55598 8.81291 4.78173 8.81291 5.05686V8.26672C8.81291 8.54185 8.58716 8.76759 8.31203 8.76759C8.0369 8.76759 7.81115 8.54185 7.81115 8.26672V7.42016C7.81115 7.14503 7.5854 6.91928 7.31027 6.91928C7.03514 6.91928 6.8094 7.14503 6.8094 7.42016V9.7764C6.8094 10.0515 6.58365 10.2773 6.30852 10.2773C6.03339 10.2773 5.80764 10.0515 5.80764 9.7764V9.0004C5.80764 8.72527 5.58189 8.49952 5.30676 8.49952C5.03163 8.49952 4.80588 8.72527 4.80588 9.0004L4.79883 9.7764V18.4606L12.3191 22.7992L19.8322 18.4536V8.94396C19.8322 8.66178 19.6135 8.43603 19.3314 8.43603ZM15.8534 16.951H13.4901V15.152H11.1268V16.951H8.76353V11.3214H11.1268V13.212H13.4901V11.3214H15.8534V16.951Z" fill="url(#paint4_linear_4_5101)"/>
<defs>
<linearGradient id="paint0_linear_4_5101" x1="5.02179" y1="1.78275" x2="19.8764" y2="1.78275" gradientUnits="userSpaceOnUse">
<stop stop-color="#EE344D"/>
<stop offset="1" stop-color="#F89927"/>
</linearGradient>
<linearGradient id="paint1_linear_4_5101" x1="5.5608" y1="3.114" x2="20.2855" y2="3.114" gradientUnits="userSpaceOnUse">
<stop stop-color="#EE344D"/>
<stop offset="1" stop-color="#F89927"/>
</linearGradient>
<linearGradient id="paint2_linear_4_5101" x1="5.22719" y1="0.492977" x2="20.0126" y2="0.492977" gradientUnits="userSpaceOnUse">
<stop stop-color="#EE344D"/>
<stop offset="1" stop-color="#F89927"/>
</linearGradient>
<linearGradient id="paint3_linear_4_5101" x1="5.14968" y1="4.22749" x2="19.8011" y2="4.22749" gradientUnits="userSpaceOnUse">
<stop stop-color="#EE344D"/>
<stop offset="1" stop-color="#F89927"/>
</linearGradient>
<linearGradient id="paint4_linear_4_5101" x1="4.79622" y1="13.338" x2="19.8352" y2="13.338" gradientUnits="userSpaceOnUse">
<stop stop-color="#EE344D"/>
<stop offset="1" stop-color="#F89927"/>
</linearGradient>
</defs>
</svg>
