<svg width="24" height="24" viewBox="0 0 24 24" fill="none" xmlns="http://www.w3.org/2000/svg">
<g clip-path="url(#clip0_4_5094)">
<path d="M8.96039 10.3076C8.9305 10.319 8.9024 10.3347 8.87692 10.354L11.0027 5.53249L2.01129 5.52684V8.49843H2.96922V10.6716L2.97044 10.6704L6.47614 10.6726L6.47513 10.6716L6.47916 8.49864H7.61655V13.7976H6.47795L6.47553 11.7999H2.96882V11.8263H2.95733V13.796L2.01129 13.7976V13.8061H2.00807L2 16.7662L5.75028 16.7686C5.82105 16.8634 5.9009 16.9646 5.98981 17.0682C6.43192 17.6332 7.02887 18.0574 7.70788 18.2891C8.05025 18.4057 8.40958 18.4648 8.77127 18.4639C8.79849 18.4639 8.82551 18.4639 8.85192 18.4629C8.88983 18.4629 8.92773 18.4641 8.96584 18.4641C11.5168 18.4641 13.1732 16.6841 13.1732 14.3745C13.1726 11.2702 10.5202 10.3028 8.96039 10.3076Z" fill="#EFB433"/>
<path d="M11.4423 6.97679L10.8019 8.55937L10.7275 8.74325C10.7221 8.75132 10.7192 8.75656 10.7215 8.75676V8.75878L10.7241 8.75696C11.6159 8.83156 14.678 9.51307 14.8335 13.0994C14.894 14.4862 14.5494 15.8742 13.7753 16.7557H22.0017L21.9991 13.7716L18.5085 13.7565C18.1526 13.7505 17.8001 13.6866 17.4647 13.5674C17.1542 13.4295 16.8702 13.2385 16.6255 13.0028C16.3922 12.753 16.2038 12.4647 16.0686 12.1508C15.951 11.8099 15.8881 11.4526 15.8823 11.092C15.8876 10.7386 15.9497 10.3883 16.0662 10.0546C16.207 9.7589 16.4006 9.49133 16.6374 9.26507C16.8821 9.04841 17.1557 8.86682 17.4504 8.72551C17.7791 8.60457 18.1247 8.53599 18.4747 8.52227L21.9812 8.5259L21.9473 8.48557L21.9816 8.5259V5.53334H21.9741V5.52971L16.1219 5.53334L15.3694 6.97195L11.4423 6.97679Z" fill="#EFB433"/>
<path d="M17.0449 11.1514C17.0449 12.2301 18.1377 12.6386 18.8118 12.6386L21.2267 12.641L21.2158 12.632V12.6304L21.2267 12.6382V11.8115H18.695L18.4511 11.8105V10.7016H21.9997V9.65514L18.7928 9.6636C17.9827 9.6628 17.0449 9.95536 17.0449 11.1514Z" fill="#EFB433"/>
</g>
<defs>
<clipPath id="clip0_4_5094">
<rect width="20.0009" height="12.9373" fill="white" transform="translate(2 5.52684)"/>
</clipPath>
</defs>
</svg>
