<svg width="24" height="24" viewBox="0 0 24 24" fill="none" xmlns="http://www.w3.org/2000/svg">
<path d="M20.8123 5.31926C20.8123 4.80949 20.4277 4.39594 19.9532 4.39594H12.3814C11.9072 4.39594 11.5227 4.80982 11.5227 5.31926V11.3222C10.952 12.1941 10.6191 13.2357 10.6191 14.3554C10.6191 17.42 13.1034 19.904 16.1673 19.904C19.2312 19.904 21.7158 17.42 21.7158 14.3554C21.7158 13.2357 21.383 12.1944 20.8123 11.3225V5.31926Z" fill="#0B0506"/>
<path d="M8.32808 13.4272H3.70453V9.0376H2.27539V19.4894H3.70453V14.7416H8.32808V19.4894H9.75755V9.0376H8.32808V13.4272Z" fill="#0B0506"/>
<mask id="mask0_4_5077" style="mask-type:luminance" maskUnits="userSpaceOnUse" x="10" y="4" width="12" height="16">
<path d="M12.3834 4.0722C11.9092 4.0722 11.5246 4.48609 11.5246 4.99586V10.9988C10.9539 11.8707 10.6211 12.9123 10.6211 14.0321C10.6211 17.0966 13.1054 19.5806 16.1693 19.5806C19.2332 19.5806 21.7178 17.0966 21.7178 14.0321C21.7178 12.9123 21.385 11.871 20.8142 10.9991V4.99586C20.8142 4.48609 20.4297 4.0722 19.9552 4.0722H12.3834Z" fill="white"/>
</mask>
<g mask="url(#mask0_4_5077)">
<path d="M21.7178 4.0722H10.6211V19.5802H21.7178V4.0722Z" fill="url(#paint0_linear_4_5077)"/>
</g>
<path fill-rule="evenodd" clip-rule="evenodd" d="M15.4763 16.2626C15.4857 16.2584 15.4956 16.2538 15.505 16.2492H15.4727L15.4763 16.2626Z" fill="white"/>
<mask id="mask1_4_5077" style="mask-type:luminance" maskUnits="userSpaceOnUse" x="2" y="8" width="8" height="12">
<path d="M8.33036 8.64557V13.0355H3.70682V8.64557H2.27734V19.0974H3.70682V14.3496H8.33036V19.0974H9.75983V8.64557H8.33036Z" fill="white"/>
</mask>
<g mask="url(#mask1_4_5077)">
<path d="M9.7595 8.64557H2.27734V19.0974H9.7595V8.64557Z" fill="url(#paint1_linear_4_5077)"/>
</g>
<path d="M16.2925 14.7729H18.9597C18.8832 16.3075 17.604 17.2407 16.1508 17.2407C14.4567 17.2407 13.2213 15.8996 13.2213 14.3007C13.2213 12.7019 14.4564 11.36 16.1508 11.36C17.2218 11.36 17.7793 11.8112 18.6209 12.4976L19.3093 11.768V11.3663L19.1093 11.5782C18.1685 10.7109 17.3536 10.416 16.1508 10.416C13.9868 10.416 12.1504 12.1328 12.1504 14.3007C12.1504 16.4686 13.9865 18.1855 16.1508 18.1855C17.976 18.1855 20.0306 16.9086 20.0306 14.4724V13.8285H16.2925V14.7729Z" fill="#0B0506"/>
<path d="M16.2925 14.3709H18.9597C18.8832 15.9055 17.604 16.8387 16.1508 16.8387C14.4567 16.8387 13.2213 15.4976 13.2213 13.8987C13.2213 12.2999 14.4564 10.9584 16.1508 10.9584C17.2218 10.9584 17.7793 11.4095 18.6209 12.0959L19.3093 11.3663C18.2927 10.3685 17.4297 10.0143 16.1508 10.0143C13.9868 10.0143 12.1504 11.7314 12.1504 13.899C12.1504 16.0666 13.9865 17.7838 16.1508 17.7838C17.976 17.7838 20.0306 16.5069 20.0306 14.0707V13.4268H16.2925V14.3712V14.3709Z" fill="white"/>
<defs>
<linearGradient id="paint0_linear_4_5077" x1="16.1336" y1="3.54669" x2="16.1336" y2="8.39844" gradientUnits="userSpaceOnUse">
<stop stop-color="#C5E9FB"/>
<stop offset="1" stop-color="#00AFEF"/>
</linearGradient>
<linearGradient id="paint1_linear_4_5077" x1="6.09118" y1="-7.67814" x2="6.09118" y2="14.2161" gradientUnits="userSpaceOnUse">
<stop stop-color="white"/>
<stop offset="1" stop-color="#00AFEF"/>
</linearGradient>
</defs>
</svg>
