<svg width="24" height="24" viewBox="0 0 24 24" fill="none" xmlns="http://www.w3.org/2000/svg">
<path d="M8.33036 8.64557V13.0355H3.70682V8.64557H2.27734V19.0974H3.70682V14.3496H8.33036V19.0974H9.75983V8.64557H8.33036Z" fill="white"/>
<path d="M19.9531 4.39594C20.4275 4.39594 20.8123 4.80923 20.8125 5.31879V11.3227C21.3831 12.1946 21.7158 13.2363 21.7158 14.3559C21.7156 17.4203 19.2308 19.9037 16.167 19.9037C13.1034 19.9036 10.6194 17.4201 10.6191 14.3559C10.6191 13.2362 10.9517 12.1936 11.5225 11.3217V5.31879C11.5227 4.80956 11.9078 4.39594 12.3818 4.39594H19.9531ZM16.1504 10.0141C13.9866 10.0143 12.1505 11.7315 12.1504 13.8989C12.1504 16.0663 13.9863 17.7834 16.1504 17.7836C17.9756 17.7836 20.0303 16.5069 20.0303 14.0707V13.4272H16.293V14.3705H18.96C18.8835 15.9051 17.6036 16.8383 16.1504 16.8383C14.4566 16.8381 13.2218 15.4975 13.2217 13.8989C13.2217 12.3001 14.4562 10.9587 16.1504 10.9584C17.2213 10.9584 17.7795 11.4097 18.6211 12.0961L19.3096 11.3666C18.293 10.3688 17.4293 10.0141 16.1504 10.0141Z" fill="white"/>
</svg>
