<svg width="24" height="24" viewBox="0 0 24 24" fill="none" xmlns="http://www.w3.org/2000/svg">
<path d="M11.2336 7.61035C12.7299 7.39093 14.3649 7.13033 15.7932 7.75293C16.8761 8.23845 17.1334 9.50788 17.1165 10.5527C17.0995 13.3203 16.8136 16.0859 16.4006 18.8232C16.1997 20.2712 15.4676 21.8175 13.969 22.3662C12.2889 22.9614 10.4214 23.1512 8.65356 22.877C7.52514 22.715 6.78095 21.6835 6.73853 20.6221C6.59428 18.2742 6.89476 15.9209 7.11255 13.584C7.31901 12.1386 7.35572 10.5781 8.17017 9.30273C8.8292 8.27691 10.0626 7.82155 11.2336 7.61035ZM13.1086 10.7451C12.5911 10.7616 12.0257 10.669 11.5647 10.9541C11.214 11.8016 11.2024 12.7311 11.095 13.6279C10.9309 15.6659 10.6226 17.704 10.7385 19.7529C11.2476 19.6241 11.9571 19.8044 12.3049 19.3271C12.5877 18.6443 12.6051 17.8931 12.6956 17.1719C12.8766 15.0325 13.1709 12.8955 13.1086 10.7451ZM11.05 1.44141C11.8872 2.2313 12.6246 3.30388 12.3645 4.49414C12.158 5.86554 10.085 6.84241 9.01294 5.79199C8.25493 4.74974 8.9596 3.47156 9.48853 2.49512C9.63285 2.68996 9.91857 3.07684 10.0627 3.27148C10.7726 2.93408 10.7842 2.07223 11.05 1.44141ZM15.8752 1C16.6191 1.71585 17.3601 2.58268 17.2922 3.66602C17.3403 5.18812 15.1938 6.47722 13.9407 5.42188C13.061 4.30284 13.8892 2.87339 14.5793 1.875C14.6105 2.14648 14.6673 2.68934 14.6956 2.96094C15.5044 2.59611 15.7565 1.80087 15.8752 1Z" fill="#F13053"/>
</svg>
