<svg width="24" height="24" viewBox="0 0 24 24" fill="none" xmlns="http://www.w3.org/2000/svg">
<path d="M10.4725 11.415V21.7643H13.9227V11.415C13.3648 11.5966 12.7858 11.6929 12.1978 11.6929C11.6094 11.6929 11.0304 11.5966 10.4725 11.415Z" fill="#F8B217"/>
<path d="M12.1978 8.24738C10.977 8.24738 9.98713 7.25761 9.98713 6.03685C9.98713 4.81609 10.977 3.82645 12.1978 3.82645C13.4186 3.82645 14.4083 4.81609 14.4083 6.03685C14.4083 7.25761 13.4186 8.24738 12.1978 8.24738ZM12.1978 2.23553C10.1017 2.23553 8.39648 3.94085 8.39648 6.03685C8.39648 7.6888 9.45591 9.09717 10.9306 9.62018C11.3272 9.76085 11.7536 9.83816 12.1978 9.83816C12.642 9.83816 13.0682 9.76085 13.4647 9.62031C14.9397 9.09731 15.9991 7.6888 15.9991 6.03685C15.9991 3.94085 14.2938 2.23553 12.1978 2.23553Z" fill="#F8B217"/>
</svg>
