<svg width="24" height="24" viewBox="0 0 24 24" fill="none" xmlns="http://www.w3.org/2000/svg">
<path d="M9.09657 3.06233C11.8989 2.94831 14.7067 3.05653 17.5108 3.00822C17.8727 2.9657 18.2086 3.09131 18.5 3.31161C17.9136 3.88747 16.943 3.25943 16.4252 3.91645C16.0281 4.39376 15.9575 5.05078 15.7998 5.63824C15.1447 8.92142 14.4209 12.1911 13.7435 15.4684C13.5951 17.0028 12.8435 18.4386 12.9827 20.0058C13.3909 20.4753 13.9867 20.4502 14.5453 20.4773C14.5824 20.6087 14.6585 20.8676 14.6956 20.999C11.9211 20.9952 9.14668 21.0068 6.37223 20.9932C5.99921 21.0203 5.58722 20.8908 5.5 20.456C6.27202 20.4077 7.27787 20.6299 7.75111 19.799C8.36909 18.4985 8.46374 17.0124 8.81635 15.623C9.46959 12.564 10.0987 9.49921 10.765 6.44406C10.8911 5.66143 11.1435 4.8846 11.0619 4.08071C10.958 3.62273 10.442 3.61886 10.082 3.56862C9.69971 3.5493 9.3935 3.28262 9.09657 3.06233Z" fill="white"/>
</svg>
