<svg width="24" height="24" viewBox="0 0 24 24" fill="none" xmlns="http://www.w3.org/2000/svg">
<path d="M21.1116 11.2528C21.041 10.7381 20.8951 10.2589 20.6567 9.81486C20.2863 9.05154 19.7239 8.30751 18.9802 7.87916C16.9223 6.69392 13.399 6.62813 11.1845 7.87916C10.4374 8.30134 9.87764 9.06776 9.50718 9.83112C9.26893 10.2751 9.06754 10.7462 8.99683 11.261C8.92636 11.7759 8.84375 12.4245 8.84375 13.2234V16.5608V19.7899V22H12.3744V19.7899V16.5608V13.7318C12.3744 12.5335 12.309 10.2754 14.9244 10.2445C17.5723 10.2131 17.4742 12.5335 17.4742 13.7318V19.7899C17.4742 20.5002 17.7219 21.0459 18.0573 21.4275C18.3926 21.8091 18.8693 22 19.4075 22C19.4171 22 19.4261 21.9988 19.4357 21.9988V22H21.201V19.7899V16.5608V13.2234C21.201 12.4245 21.1821 11.7677 21.1116 11.2528Z" fill="#E52A41"/>
<path d="M4.87477 2C4.82119 2 4.76907 2.00447 4.717 2.00876V2H2.91406V3.96395V4.32574V5.18088H6.83555V3.96395H6.82864C6.75869 2.90349 5.96777 2 4.87477 2Z" fill="#E52A41"/>
<path d="M4.87465 6.99744C4.84077 6.99744 4.8082 7.00058 4.7749 7.00216H2.95496V13.5267H2.95746V15.4412H2.95496V21.7684H6.79192V19.6252V15.4412V9.14049C6.79192 7.85453 5.99313 6.99744 4.87465 6.99744Z" fill="#E52A41"/>
</svg>
