<svg width="24" height="24" viewBox="0 0 24 24" fill="none" xmlns="http://www.w3.org/2000/svg">
<path d="M15.6836 3H16.4279L19.2427 4.75926H18.4578L15.6836 3Z" fill="#FFA200"/>
<path d="M12.774 20.2678H13.5183L16.3332 18.5085H15.5483L12.774 20.2678Z" fill="#FDE43B"/>
<path d="M10.7733 16.9387L12.5574 11.5527L14.1648 16.9387H18.0823C18.0823 16.9387 17.7786 17.78 17.5839 18.319C17.1992 18.4087 16.9798 18.4474 16.5873 18.495C16.1786 18.5445 15.5352 18.5626 15.5352 18.5626H4.48868C3.65813 18.5626 3.14595 18.5626 2.32922 18.3055C1.85616 18.1566 1.55403 17.9537 1.3187 17.6695C1.02605 17.316 1.00049 16.9387 1.00049 16.9387H10.7733Z" fill="url(#paint0_linear_85_980)"/>
<path d="M4.39179 5.82829C4.68889 5.57918 4.88278 5.46496 5.2362 5.30051C5.59585 5.13315 6.2052 4.98926 6.2052 4.98926L5.73453 6.38313L4.51637 10.9166L2.85524 16.9387H1.00049C1.00049 16.9387 1.0005 15.7787 1.09721 15.3689C1.61977 13.1543 1.74785 12.96 2.32922 10.8219C2.6685 9.57407 2.88295 8.87315 3.24284 7.65521C3.56945 6.54991 3.74151 6.37355 4.39179 5.82829Z" fill="url(#paint1_linear_85_980)"/>
<path d="M17.6668 6.38318L16.1842 11.7421L14.2754 6.38318H5.7207L6.2052 4.98931C6.2052 4.98931 6.63343 4.90196 6.91118 4.86752C7.18551 4.83349 7.61715 4.80956 7.61715 4.80956L19.3005 4.75543C20.131 4.75543 20.6432 4.75925 21.4599 5.01638C21.933 5.16531 22.2351 5.36823 22.4704 5.65241C22.7631 6.00584 22.7611 6.38318 22.7611 6.38318H17.6668Z" fill="url(#paint2_linear_85_980)"/>
<path d="M19.3974 17.4665C19.1003 17.7156 18.9064 17.8298 18.553 17.9943C18.1933 18.1617 17.973 18.2355 17.584 18.3191C17.7678 17.7695 18.0546 16.9117 18.0546 16.9117L19.2728 12.3782L20.9339 6.35614H22.7612C22.7612 6.35614 22.7581 7.17601 22.692 7.69588C22.5697 8.65633 20.9105 14.8815 20.5463 15.6396C20.1821 16.3976 20.0477 16.9213 19.3974 17.4665Z" fill="url(#paint3_linear_85_980)"/>
<path d="M15.6834 3L18.4652 4.76313L12.8462 4.80662L15.6834 3Z" fill="url(#paint4_linear_85_980)"/>
<path d="M12.7739 20.2678L9.93921 18.4612H15.6216L12.7739 20.2678Z" fill="url(#paint5_linear_85_980)"/>
<path d="M9.12409 6.38318H10.4412L7.60542 16.9387H6.28833L9.12409 6.38318Z" fill="url(#paint6_linear_85_980)"/>
<path d="M4.0459 9.11676H8.8078V10.443H4.0459V9.11676Z" fill="url(#paint7_linear_85_980)"/>
<path d="M14.3169 16.9387L12.5576 11.5527L13.6402 16.9387H14.3169Z" fill="#FFF348"/>
<path d="M18.0247 6.38318L16.1842 11.7421L17.3345 6.38318H18.0247Z" fill="#FFA200"/>
<path d="M22.3477 7.19506L22.4003 6.81522C22.4499 6.45669 22.3761 6.0919 22.1911 5.78081C21.9675 5.40503 21.5995 5.13748 21.1731 5.0407L19.9328 4.75922L20.364 4.75922C20.4732 4.75922 20.5821 4.7709 20.6888 4.79407L21.5724 4.98586C22.0231 5.08368 22.4195 5.34961 22.681 5.72949C22.8891 6.03181 23.0005 6.39021 23.0005 6.75725V7.02006C23.0005 7.25233 22.9701 7.48361 22.91 7.70798L20.6827 16.0203C20.5014 16.6971 20.0898 17.2895 19.5189 17.6957C19.2288 17.9021 18.9044 18.0555 18.5607 18.1487L18.3198 18.214C17.7635 18.3648 17.1938 18.4608 16.6188 18.5004L16.306 18.522L18.2111 17.8376C18.4467 17.7529 18.6704 17.638 18.8763 17.4957C19.4399 17.1062 19.8467 16.5291 20.024 15.8674L22.3477 7.19506Z" fill="#FFF348"/>
<path d="M3.15212 16.9387H2.48901L4.26524 10.443H4.87078L3.15212 16.9387Z" fill="url(#paint8_linear_85_980)"/>
<path d="M7.99697 16.9387H7.33386L10.1487 6.38318H10.7712L7.99697 16.9387Z" fill="#FFF349"/>
<path d="M7.99697 16.9387H7.33386L10.1487 6.38318H10.7712L7.99697 16.9387Z" fill="url(#paint9_linear_85_980)"/>
<path d="M5.24979 9.11679H4.58081L5.32089 6.38318H5.92642L5.24979 9.11679Z" fill="#FFAA06"/>
<defs>
<linearGradient id="paint0_linear_85_980" x1="10.3787" y1="23.1232" x2="13.7093" y2="4.17449" gradientUnits="userSpaceOnUse">
<stop offset="0.380208" stop-color="#FFA200"/>
<stop offset="1" stop-color="#FDE43B"/>
</linearGradient>
<linearGradient id="paint1_linear_85_980" x1="10.3787" y1="23.1231" x2="13.7093" y2="4.17445" gradientUnits="userSpaceOnUse">
<stop offset="0.380208" stop-color="#FFA200"/>
<stop offset="1" stop-color="#FDE43B"/>
</linearGradient>
<linearGradient id="paint2_linear_85_980" x1="10.3787" y1="23.1232" x2="13.7093" y2="4.17451" gradientUnits="userSpaceOnUse">
<stop offset="0.380208" stop-color="#FFA200"/>
<stop offset="1" stop-color="#FDE43B"/>
</linearGradient>
<linearGradient id="paint3_linear_85_980" x1="10.3787" y1="23.1232" x2="13.7094" y2="4.17453" gradientUnits="userSpaceOnUse">
<stop offset="0.380208" stop-color="#FFA200"/>
<stop offset="1" stop-color="#FDE43B"/>
</linearGradient>
<linearGradient id="paint4_linear_85_980" x1="10.3786" y1="23.1232" x2="13.7092" y2="4.17451" gradientUnits="userSpaceOnUse">
<stop offset="0.380208" stop-color="#FFA200"/>
<stop offset="1" stop-color="#FDE43B"/>
</linearGradient>
<linearGradient id="paint5_linear_85_980" x1="10.3786" y1="23.1232" x2="13.7092" y2="4.17454" gradientUnits="userSpaceOnUse">
<stop offset="0.380208" stop-color="#FFA200"/>
<stop offset="1" stop-color="#FDE43B"/>
</linearGradient>
<linearGradient id="paint6_linear_85_980" x1="10.3788" y1="23.1232" x2="13.7094" y2="4.1745" gradientUnits="userSpaceOnUse">
<stop offset="0.380208" stop-color="#FFA200"/>
<stop offset="1" stop-color="#FDE43B"/>
</linearGradient>
<linearGradient id="paint7_linear_85_980" x1="10.3788" y1="23.1231" x2="13.7095" y2="4.17447" gradientUnits="userSpaceOnUse">
<stop offset="0.380208" stop-color="#FFA200"/>
<stop offset="1" stop-color="#FDE43B"/>
</linearGradient>
<linearGradient id="paint8_linear_85_980" x1="3.67989" y1="10.443" x2="2.48901" y2="16.9387" gradientUnits="userSpaceOnUse">
<stop stop-color="#FFAA06"/>
<stop offset="1" stop-color="#FFF348"/>
</linearGradient>
<linearGradient id="paint9_linear_85_980" x1="9.5397" y1="10.443" x2="5.79113" y2="23.9216" gradientUnits="userSpaceOnUse">
<stop stop-color="#FFAB00"/>
<stop offset="1" stop-color="#FFE600" stop-opacity="0"/>
</linearGradient>
</defs>
</svg>
