<svg width="24" height="24" viewBox="0 0 24 24" fill="none" xmlns="http://www.w3.org/2000/svg">
<g clip-path="url(#clip0_4_5047)">
<path d="M11.4615 4.49137C12.1457 4.0381 12.9753 3.85198 13.7886 3.83533C14.6237 3.83866 15.4749 4.03958 16.1722 4.51098C16.5974 4.77961 16.9315 5.15999 17.2697 5.5252C18.154 6.48169 19.02 7.45484 19.8934 8.42058C19.8886 6.94273 19.8953 5.46451 19.8901 3.98666C20.4484 3.98592 21.0066 3.98666 21.5649 3.98592C21.5649 6.44284 21.5649 8.89939 21.5649 11.3563C21.0787 11.3563 20.5929 11.3556 20.1068 11.3563C19.3103 10.4464 18.5097 9.54026 17.7154 8.62853C17.4307 9.84219 16.4955 10.8805 15.3102 11.2853C14.5631 11.5413 13.7488 11.585 12.9727 11.4507C12.1773 11.3126 11.4206 10.9374 10.853 10.3628C9.89184 9.40224 9.55361 7.90367 9.94945 6.61416C10.1992 5.76867 10.7088 4.97461 11.4615 4.491V4.49137ZM13.5064 5.42825C12.8616 5.49819 12.2431 5.8497 11.8963 6.40177C11.5562 6.9357 11.4696 7.60507 11.5897 8.21966C11.7168 8.88422 12.1877 9.46699 12.8014 9.75191C13.2652 9.96874 13.799 9.99094 14.2981 9.90916C14.9605 9.7952 15.5596 9.35377 15.8462 8.7462C16.0911 8.2204 16.1324 7.6084 15.9878 7.04856C15.8711 6.61342 15.6436 6.19271 15.2823 5.91187C14.7865 5.52187 14.1312 5.35573 13.5064 5.42825Z" fill="white"/>
<path d="M2.08742 3.99042C2.6561 3.99079 3.22477 3.99079 3.79345 3.99042C3.79456 6.44548 3.79382 8.90092 3.79382 11.356C3.2244 11.3552 2.65535 11.3575 2.08594 11.3552C2.08965 8.90018 2.08631 6.44548 2.08742 3.99042Z" fill="white"/>
<path d="M4.30506 3.98948C5.04954 3.98171 5.79402 3.98837 6.53813 3.98615C6.96036 3.99133 7.38668 3.96247 7.80445 4.04166C8.37349 4.14156 8.9351 4.42055 9.27557 4.89825C9.65319 5.42367 9.75466 6.10598 9.65617 6.73464C9.58481 7.19902 9.33838 7.63897 8.96038 7.92425C8.70355 8.12591 8.4036 8.27022 8.08767 8.35458C8.85073 9.35067 9.60153 10.356 10.3579 11.3573C9.65914 11.351 8.96001 11.3628 8.26124 11.3514C7.62232 10.4089 6.96816 9.47647 6.32367 8.53737C6.29356 8.49852 6.27981 8.45115 6.28538 8.40268C6.2865 8.03488 6.28798 7.66709 6.28427 7.29929C6.70613 7.29115 7.16887 7.34369 7.5413 7.10355C8.0728 6.76832 8.10328 5.90358 7.61749 5.51618C7.40117 5.3567 7.12092 5.32266 6.85963 5.31156C6.57604 5.30934 6.29244 5.30601 6.00922 5.31341C6.01517 7.32704 6.00774 9.34105 6.01294 11.3547C5.44352 11.3565 4.8741 11.3565 4.30469 11.3547C4.30506 8.89962 4.30432 6.44418 4.30506 3.98911V3.98948Z" fill="white"/>
<path d="M9.08111 12.8536C9.66242 12.5135 10.3274 12.3304 10.9975 12.2815C11.8498 12.2183 12.7325 12.3348 13.5008 12.7222C14.0185 12.9861 14.4895 13.3587 14.8199 13.8389C15.238 13.2384 15.8316 12.747 16.5266 12.4991C17.1574 12.2727 17.8405 12.2419 18.5044 12.2778C19.1429 12.3152 19.7844 12.4891 20.3156 12.8528C20.869 13.2206 21.2935 13.7572 21.5722 14.3551C21.0638 14.6016 20.5523 14.8424 20.0469 15.0948C19.9093 14.7536 19.7012 14.4265 19.386 14.2234C18.9537 13.9455 18.4163 13.8774 17.9127 13.9189C17.4614 13.9511 17.0184 14.125 16.6824 14.4295C16.1241 14.9157 15.8056 15.6313 15.7078 16.3536C15.8167 17.0566 16.1197 17.7523 16.6601 18.2325C16.9909 18.5385 17.4261 18.7235 17.8755 18.7605C18.3854 18.8061 18.9292 18.748 19.3711 18.473C19.7391 18.2418 19.9747 17.8503 20.0963 17.4422C19.4536 17.4366 18.811 17.4425 18.1684 17.4392C18.1687 16.9526 18.168 16.4661 18.1687 15.9791C19.467 15.9791 20.7649 15.9784 22.0632 15.9795C22.0747 16.6119 21.9592 17.2435 21.7555 17.8411C21.5462 18.4405 21.2307 19.0162 20.7638 19.4551C20.3472 19.8628 19.819 20.1563 19.2503 20.2909C18.74 20.4182 18.2096 20.4241 17.687 20.4034C17.0615 20.3705 16.4322 20.2143 15.9004 19.8765C15.4737 19.6094 15.1042 19.2527 14.8191 18.8394C14.4861 19.3296 14.0037 19.7045 13.4766 19.9698C12.6805 20.3653 11.7665 20.4671 10.8882 20.3894C10.227 20.3257 9.57247 20.1315 9.00715 19.7799C8.59495 19.5302 8.23962 19.1927 7.95491 18.8053C7.51335 19.35 6.91197 19.7611 6.24852 19.989C5.68728 20.1844 5.08813 20.2506 4.49604 20.238C3.68763 20.241 2.87922 20.2365 2.07081 20.2373C2.07081 17.6431 2.07118 15.0489 2.07007 12.4547C2.95207 12.4547 3.83407 12.454 4.71607 12.4551C5.46762 12.4617 6.24072 12.5824 6.90157 12.9587C7.32157 13.1955 7.69511 13.5144 7.99654 13.8896C8.24408 13.4441 8.64847 13.1119 9.08111 12.8536ZM3.88982 13.9562C3.88908 15.5381 3.89131 17.1199 3.88871 18.7017C4.20278 18.6991 4.51797 18.7139 4.83092 18.6803C5.39365 18.6255 5.98314 18.4323 6.35519 17.9857C6.69305 17.5687 6.8696 17.0485 7.01233 16.5393C6.95137 15.9899 6.82537 15.4322 6.53509 14.9542C6.24109 14.4672 5.71627 14.1531 5.16692 14.0336C4.74878 13.9326 4.31614 13.9603 3.88982 13.9562ZM11.0057 13.9603C10.3129 14.0576 9.64755 14.468 9.32642 15.0985C9.11939 15.4937 8.95214 15.9159 8.86107 16.3521C8.97407 16.8124 9.1443 17.2609 9.37846 17.6742C9.51449 17.921 9.71892 18.1245 9.94378 18.2928C10.9079 18.9963 12.3902 18.8771 13.2086 18.0028C13.5944 17.5454 13.8438 16.9808 13.9598 16.3969C13.9769 16.3192 13.9501 16.2418 13.9345 16.1667C13.8182 15.648 13.5866 15.1532 13.2584 14.734C12.7158 14.1024 11.8189 13.8356 11.0057 13.9603Z" fill="white"/>
</g>
<defs>
<clipPath id="clip0_4_5047">
<rect width="20" height="18.8235" fill="white" transform="translate(2 2.65881)"/>
</clipPath>
</defs>
</svg>
