<svg width="24" height="24" viewBox="0 0 24 24" fill="none" xmlns="http://www.w3.org/2000/svg">
<g clip-path="url(#clip0_4_5043)">
<path d="M7.89606 0H8.63358C9.31122 0.297328 9.97426 0.818359 10.04 1.58716C10.0721 3.0115 10.0356 4.43868 10.0517 5.86302C11.2989 5.56427 12.5811 5.64781 13.8415 5.80214C13.8473 4.47832 13.8371 3.1545 13.8415 1.82927C13.8371 0.906141 14.6769 0.0269011 15.6495 0.0608814C16.6236 0.0297328 17.4721 0.911805 17.4429 1.84485C17.4546 6.18866 17.4488 10.5325 17.4488 14.8763C17.478 15.4709 17.1435 15.992 17.0063 16.547C17.1771 17.2592 17.2341 17.9869 17.1567 18.7161C17.0033 18.7571 16.85 18.7982 16.6981 18.8407C15.9066 18.6877 15.0814 18.7529 14.2898 18.8775C14.2373 18.9794 14.1321 19.1861 14.0795 19.2895C14.6477 19.3051 15.2216 19.2753 15.7824 19.3829C15.6203 19.6633 15.4451 19.9351 15.2581 20.2013C15.762 20.1857 16.2658 20.1829 16.7682 20.1985C16.7697 20.8115 16.7638 21.4246 16.774 22.0376C16.4425 22.0461 16.1125 22.0518 15.781 22.0674C16.1242 22.5459 16.6353 22.8418 17.237 22.8716C17.18 23.1859 17.275 23.5866 16.999 23.8188C16.5185 23.9759 15.9986 23.9108 15.5005 23.9136C15.2304 23.8768 14.8463 23.949 14.7221 23.6418C14.671 23.1222 14.7105 22.5983 14.7032 22.0773C14.4461 22.5035 14.2241 22.9707 13.8196 23.2892C13.3683 23.663 12.7914 23.8358 12.235 24L11.9897 23.5455C12.8513 23.3317 13.6881 22.8787 14.0839 22.0702C13.5961 22.0476 13.1098 22.0405 12.622 22.0419C12.6191 21.7743 12.6235 21.5067 12.6016 21.2405C12.6191 20.8682 12.1737 20.7648 11.9458 20.5453C12.3285 20.2862 12.7155 20.0229 13.0207 19.6774C13.3479 19.3334 13.5845 18.8024 14.1555 18.8378C14.119 18.4258 14.0985 18.0138 14.0971 17.6004C12.6337 17.6188 11.1689 17.6414 9.707 17.5862C9.74643 18.0506 9.75228 18.5419 9.41345 18.9129C9.13451 18.8506 8.85995 18.7316 8.56932 18.7557C8.03626 18.8095 7.48422 18.6453 6.98913 18.9214C6.88106 18.7854 6.68098 18.692 6.66345 18.5065C6.60942 17.9827 6.61964 17.4475 6.70581 16.9279C6.79489 16.4394 7.363 16.3332 7.72519 16.0925C7.42288 16.1364 7.12641 16.2086 6.83141 16.2822C6.63863 15.8362 6.47652 15.3676 6.50281 14.8763C6.51011 10.4886 6.49843 6.09946 6.51011 1.71176C6.50281 0.889151 7.20528 0.338387 7.89606 0ZM7.2783 1.8321C7.29874 3.67129 7.27538 5.51189 7.28998 7.35107C7.93988 6.91499 8.54888 6.41803 9.28202 6.11362C9.28202 4.73317 9.28056 3.35272 9.28494 1.97369C9.32729 1.52062 9.06003 1.02507 8.59269 0.890567C7.98223 0.625804 7.21404 1.19356 7.2783 1.8321ZM14.6842 1.70609C14.671 3.18848 14.6783 4.67229 14.6842 6.1561C15.3881 6.44493 15.9854 6.90791 16.6032 7.33267C16.6265 5.45242 16.609 3.57076 16.6105 1.69052C16.6616 1.31815 16.3403 1.02649 16.0117 0.90331C15.4553 0.652705 14.6316 1.06613 14.6842 1.70609ZM7.6843 13.3344C7.66531 13.7535 7.60105 14.2335 7.93257 14.5634C8.2787 15.0051 8.9096 15.0632 9.42368 14.9117C9.87057 14.7007 10.075 14.2406 10.2167 13.8073C9.38425 13.5964 8.53135 13.4675 7.6843 13.3344ZM13.7656 13.7677C13.6969 14.6044 14.6769 15.2826 15.464 14.9386C16.1271 14.7191 16.387 13.9801 16.2906 13.3543C15.4377 13.4052 14.6053 13.6176 13.7656 13.7677ZM11.4143 14.351C11.4362 14.6498 11.5092 14.9443 11.5194 15.2444C11.3164 15.5106 10.9469 15.529 10.6388 15.5814C10.611 15.7074 10.5847 15.8334 10.5599 15.9608C11.1295 16.0444 11.6099 15.7683 11.9648 15.3605C12.3037 15.7329 13.0397 16.2737 13.4501 15.7187C13.0602 15.5941 12.6644 15.4738 12.3241 15.2444C12.4146 14.9584 12.5213 14.6767 12.5636 14.3807C12.1897 14.2392 11.7954 14.2335 11.4143 14.351ZM13.2705 20.1744C13.7028 20.1914 14.138 20.2084 14.5703 20.1659C14.7032 20.054 14.8156 19.9195 14.931 19.7907C14.3541 19.8048 13.6107 19.5741 13.2705 20.1744ZM13.1171 20.711C13.1186 20.9842 13.1186 21.2561 13.1127 21.5294C13.4954 21.5732 13.8824 21.5817 14.2665 21.5378C14.284 21.2589 14.3045 20.9814 14.322 20.7025C13.9204 20.7025 13.5187 20.7025 13.1171 20.711ZM14.8682 20.7138C14.8565 20.9998 14.8448 21.2844 14.8346 21.5704C15.2873 21.5647 15.7415 21.5704 16.1943 21.5732C16.203 21.2858 16.2045 20.9984 16.203 20.711C15.759 20.7082 15.3136 20.7082 14.8682 20.7138ZM15.2771 22.3845C15.261 22.7314 15.2654 23.0797 15.2698 23.428C15.7766 23.3317 16.5082 23.6829 16.796 23.1264C16.6076 23.1406 16.4192 23.1533 16.2308 23.1647C15.8978 22.9254 15.6422 22.5898 15.2771 22.3845Z" fill="#F6F6F6"/>
<path d="M6.92249 19.257C8.4355 19.2117 9.95289 19.2457 11.4674 19.2358L11.479 19.7568C10.7956 19.7682 10.1121 19.7724 9.43006 19.7597C9.4286 20.2085 9.43006 20.6559 9.43444 21.1047C10.0347 21.1458 10.6378 21.1288 11.2395 21.1302C11.2352 21.2916 11.2322 21.4516 11.2293 21.613C10.8934 21.6272 10.5458 21.572 10.2172 21.6654C10.5006 22.1298 11.0774 22.4059 11.3053 22.9298C11.1475 22.9807 10.9913 23.0317 10.8335 23.0827C10.4903 22.7358 10.1442 22.3903 9.7791 22.0661C9.87987 21.9302 10.0478 21.8282 10.0902 21.6583C9.88279 21.5705 9.64474 21.6385 9.42567 21.6258C9.43152 22.1482 9.43006 22.6721 9.42713 23.1959C10.1807 23.2257 10.9489 23.0883 11.6893 23.2639C11.7156 23.3772 11.7682 23.6009 11.793 23.7141C10.0785 23.7623 8.35956 23.7283 6.64355 23.7368C6.64355 23.615 6.64209 23.3715 6.64062 23.2497C7.37668 23.2469 8.11128 23.2441 8.84588 23.2469C8.86487 22.7004 8.86633 22.1539 8.85026 21.6074C8.26755 21.6173 7.68484 21.6201 7.10212 21.596C7.13133 21.4828 7.18829 21.2534 7.2175 21.1401C7.76078 21.1061 8.30552 21.1359 8.85026 21.1245C8.86195 20.6701 8.86049 20.2156 8.8561 19.7625C8.21643 19.7682 7.5753 19.7668 6.93563 19.7625L6.92249 19.257Z" fill="#F6F6F6"/>
</g>
<defs>
<clipPath id="clip0_4_5043">
<rect width="10.9506" height="24" fill="white" transform="translate(6.5)"/>
</clipPath>
</defs>
</svg>
