<svg width="24" height="24" viewBox="0 0 24 24" fill="none" xmlns="http://www.w3.org/2000/svg">
<path d="M5.42726 6.5L6.73052 8.19935L6.61979 8.621H6.61766L5.99371 10.9911L4.85655 15.2864C4.67767 15.7804 4.40722 16.151 4.04307 16.3873C3.60652 16.6727 3.32117 16.6173 3.04433 16.6131C2.95276 16.6131 2.57158 16.5598 2.21808 16.415L1 18.0015C1.88801 18.4764 2.78879 18.4849 3.59801 18.3593C4.13251 18.2762 4.64999 18.0803 5.10357 17.7843C5.64873 17.4265 6.36211 16.7451 6.74543 15.5057L7.12661 14.0789L9.1177 6.5H5.42726Z" fill="url(#paint0_linear_85_961)"/>
<path d="M22.9872 9.26837C23.0745 8.49961 22.7807 7.82882 22.3377 7.32838C22.0034 6.95146 21.3603 6.5 20.1954 6.5H10.9683H9.22631L10.5296 8.19935L8.4895 15.7783H18.8687C19.6652 15.7783 20.4638 15.5227 21.1218 15.0585C21.8607 14.5368 22.3164 13.8255 22.4037 13.0568C22.4889 12.3051 22.3122 11.6492 21.8905 11.153C22.4442 10.6568 22.8999 9.99027 22.983 9.26837H22.9872ZM15.8896 10.9911C15.7703 11.4383 15.4615 12.2965 14.7162 13.0035C13.9624 13.7169 12.806 14.0789 11.573 14.0789H10.783L12.3652 8.19935H13.5726C14.6055 8.19935 15.3167 8.4485 15.6873 8.94042C16.1834 9.60057 15.9939 10.5951 15.8896 10.9911ZM20.6426 13.0206C20.5447 13.5636 19.793 14.0789 18.9859 14.0789H15.9449C16.6455 13.3805 17.0629 12.6053 17.3057 11.9899H19.5417C19.9931 11.9899 20.2827 12.0495 20.4957 12.3072C20.6362 12.4775 20.6895 12.7693 20.6426 13.0227V13.0206ZM21.1857 9.22152C21.1133 9.84972 20.5468 10.2884 19.8079 10.2884H17.706C17.755 9.64316 17.689 8.88505 17.3099 8.19935H20.0464C20.4978 8.19935 20.8173 8.31647 21.0004 8.52304C21.1473 8.68914 21.2197 8.917 21.1835 9.22152H21.1857Z" fill="url(#paint1_linear_85_961)"/>
<g style="mix-blend-mode:darken">
<mask id="mask0_85_961" style="mask-type:luminance" maskUnits="userSpaceOnUse" x="14" y="6" width="6" height="3">
<path d="M19.6485 6.50012H14.0372V8.19947H19.6485V6.50012Z" fill="white"/>
</mask>
<g mask="url(#mask0_85_961)">
<mask id="mask1_85_961" style="mask-type:luminance" maskUnits="userSpaceOnUse" x="14" y="6" width="6" height="3">
<path d="M14.6645 6.50024H14.0363C15.693 6.50024 16.432 7.06244 16.9771 7.70981C17.1091 7.86739 17.2177 8.03136 17.3093 8.1996H19.6497V6.50024H14.6645Z" fill="white"/>
</mask>
<g mask="url(#mask1_85_961)">
<path style="mix-blend-mode:multiply" d="M19.6497 6.50031H14.0363V8.19966H19.6497V6.50031Z" fill="url(#paint2_linear_85_961)"/>
</g>
</g>
</g>
<path style="mix-blend-mode:multiply" d="M10.5312 8.19928L8.49109 15.7782H10.3246L12.3647 8.19928H10.5312Z" fill="url(#paint3_linear_85_961)"/>
<defs>
<linearGradient id="paint0_linear_85_961" x1="5.00561" y1="12.4648" x2="23.6005" y2="12.4648" gradientUnits="userSpaceOnUse">
<stop stop-color="#FFD200"/>
<stop offset="0.11" stop-color="#FFCB02"/>
<stop offset="0.27" stop-color="#FFB908"/>
<stop offset="0.45" stop-color="#FF9C12"/>
<stop offset="0.65" stop-color="#FF7321"/>
<stop offset="0.87" stop-color="#FF3F33"/>
<stop offset="0.94" stop-color="#FF2E3A"/>
</linearGradient>
<linearGradient id="paint1_linear_85_961" x1="5.00562" y1="11.1381" x2="23.6005" y2="11.1381" gradientUnits="userSpaceOnUse">
<stop stop-color="#FFD200"/>
<stop offset="0.11" stop-color="#FFCB02"/>
<stop offset="0.27" stop-color="#FFB908"/>
<stop offset="0.45" stop-color="#FF9C12"/>
<stop offset="0.65" stop-color="#FF7321"/>
<stop offset="0.87" stop-color="#FF3F33"/>
<stop offset="0.94" stop-color="#FF2E3A"/>
</linearGradient>
<linearGradient id="paint2_linear_85_961" x1="17.6859" y1="6.06933" x2="11.8064" y2="6.06933" gradientUnits="userSpaceOnUse">
<stop stop-color="white"/>
<stop offset="1"/>
</linearGradient>
<linearGradient id="paint3_linear_85_961" x1="9.9136" y1="13.7381" x2="12.0367" y2="6.51483" gradientUnits="userSpaceOnUse">
<stop stop-color="white" stop-opacity="0"/>
<stop offset="0.94" stop-color="#212121" stop-opacity="0.87"/>
<stop offset="1"/>
</linearGradient>
</defs>
</svg>
