<svg width="24" height="24" viewBox="0 0 24 24" fill="none" xmlns="http://www.w3.org/2000/svg">
<path d="M1.39132 11.6394L2.32035 12.4224L1.65169 13.1783C1.64433 13.1866 1.63937 13.1972 1.6328 13.2061L6.225 13.9862L14.899 11.2132L15.0467 11.676L6.31556 14.4673L6.25932 14.4851L6.20186 14.4754L1.65342 13.7028C1.69394 13.7484 1.74395 13.7856 1.80239 13.8085L3.69458 14.5507L3.47765 14.88C3.37386 15.0382 3.39725 15.2482 3.53306 15.3803L5.21494 17.0141L4.9849 17.1469C4.86292 17.2177 4.78788 17.3488 4.78851 17.4903L4.80316 20.6719C4.80356 20.7404 4.82101 20.8081 4.85514 20.8675C4.90778 20.959 4.99851 21.0308 5.09934 21.058C5.19971 21.0841 5.30957 21.0744 5.3991 21.0225C5.40058 21.0216 5.40209 21.0208 5.40333 21.0201L6.07815 20.6147C6.13741 20.579 6.18629 20.5283 6.21982 20.4675L8.40796 16.5113L8.85454 16.152L9.63665 18.8973C9.69673 19.1068 9.9144 19.2278 10.1232 19.1678L11.6815 18.7203C11.7127 18.7114 11.7423 18.6988 11.7702 18.6826C11.8065 18.6616 11.8399 18.6353 11.8679 18.6037L11.9195 18.5446C11.952 18.5075 11.9784 18.4645 11.995 18.4176L14.0268 12.7903L19.1442 8.47812L23.0041 5.79065C23.161 5.68144 23.2166 5.47516 23.1366 5.30142C23.0569 5.12774 22.8648 5.03696 22.6805 5.08554L18.6122 6.16014C18.4459 5.96269 18.1173 5.7976 17.4595 5.86488C16.9515 5.91691 16.3342 6.09837 15.7221 6.37518C15.1101 6.65154 14.5662 6.9949 14.1911 7.34254C13.9396 7.57535 13.7956 7.78248 13.717 7.96471L12.0396 8.53398L9.87613 8.12657L5.68283 10.887L5.72814 10.942L5.63017 10.9208L5.54648 10.977L5.50227 11.0059L5.44938 11.0139L1.38097 11.6273C1.38483 11.6309 1.38728 11.636 1.39132 11.6394ZM14.4469 8.25036C14.5557 8.04101 15.0547 7.54066 16.0449 7.09433C17.0352 6.64658 17.7378 6.60145 17.9661 6.65832C17.8575 6.8675 17.3585 7.36608 16.3681 7.81434C15.3776 8.26215 14.6751 8.30677 14.4469 8.25036ZM3.72569 7.85258C3.6249 7.91099 3.5557 8.01188 3.53565 8.12694C3.51563 8.24185 3.54711 8.35969 3.62235 8.449L5.36586 10.5118L9.18803 7.99724L5.01614 7.21467C4.92385 7.19702 4.8277 7.2139 4.74635 7.26105L3.72569 7.85258ZM2.20792 10.214C2.05037 10.1815 1.88928 10.249 1.80071 10.3837L1.31681 11.1197C1.31085 11.1288 1.30705 11.1393 1.30192 11.1486L4.43717 10.6747L2.20792 10.214Z" fill="url(#paint0_linear_4_5779)"/>
<defs>
<linearGradient id="paint0_linear_4_5779" x1="8.16185" y1="3.71034" x2="14.864" y2="15.3188" gradientUnits="userSpaceOnUse">
<stop stop-color="#FFE49D"/>
<stop offset="1" stop-color="#FEDD10"/>
</linearGradient>
</defs>
</svg>
