<svg width="24" height="24" viewBox="0 0 24 24" fill="none" xmlns="http://www.w3.org/2000/svg">
<path d="M15.127 5.70294C15.0522 5.31094 14.6546 5 14.2487 5H9.79198C9.38531 5 8.98841 5.31094 8.91364 5.70294C8.57405 7.56579 8.38399 9.56001 8.38538 11.5549C8.38399 13.5498 8.57405 15.5441 8.91364 17.4069C8.98841 17.7989 9.386 18.1099 9.79198 18.1099H14.2487C14.6553 18.1099 15.0522 17.7989 15.127 17.4069C15.4666 15.5441 15.6567 13.5498 15.6553 11.5549C15.6567 9.56001 15.4666 7.56579 15.127 5.70294ZM14.5519 10.5117H13.0223L13.6883 9.56421L14.5519 10.5117ZM13.5345 9.50132L12.8672 10.4502L12.1775 9.50132H13.5345ZM12.7121 10.5117H11.3306L12.021 9.56141L12.7121 10.5117ZM11.8645 9.50132L11.1748 10.4502L10.5075 9.50132H11.8645ZM10.3524 9.56281L11.0197 10.5117H9.48732L10.3517 9.56281H10.3524ZM9.48523 10.6675H11.1098L11.8638 13.3661L9.48523 10.6675ZM11.2803 10.6675H12.7603L12.0196 13.5009L11.2796 10.6675H11.2803ZM12.1768 13.3661L12.9315 10.6675H14.5533L12.1768 13.3661Z" fill="white" stroke="white" stroke-width="0.0698751" stroke-miterlimit="10"/>
<path d="M21.77 5.70364C21.5953 5.31164 21.1041 5 20.6995 5H16.2701C15.8655 5 15.5944 5.31094 15.6559 5.70364C16.2666 9.43144 16.2666 13.6791 15.6559 17.4069C15.5944 17.7989 15.8655 18.1106 16.2701 18.1106H20.6995C21.1041 18.1106 21.5946 17.7996 21.77 17.4069C23.41 13.6791 23.41 9.43144 21.77 5.70364ZM22.0474 10.5117H20.5179L21.1838 9.5642L22.0474 10.5117ZM21.03 9.50132L20.3627 10.4502L19.6731 9.50132H21.03ZM20.2076 10.5117H18.8262L19.5165 9.56141L20.2076 10.5117ZM19.36 9.50132L18.6703 10.4502L18.003 9.50132H19.36ZM17.8479 9.56281L18.5152 10.5117H16.9828L17.8472 9.56281H17.8479ZM16.9807 10.6675H18.6054L19.3593 13.3661L16.9807 10.6675ZM18.7759 10.6675H20.2558L19.5151 13.5009L18.7752 10.6675H18.7759ZM19.6724 13.3661L20.427 10.6675H22.0488L19.6724 13.3661Z" fill="white" stroke="white" stroke-width="0.0698751" stroke-miterlimit="10"/>
<path d="M7.7299 5.00006H3.30048C2.8959 5.00006 2.40538 5.311 2.22999 5.7037C0.590004 9.4315 0.590004 13.6792 2.22999 17.407C2.40468 17.799 2.8959 18.1106 3.30048 18.1106H7.7299C8.13448 18.1106 8.4056 17.7997 8.34411 17.407C7.7334 13.6792 7.7334 9.4315 8.34411 5.7037C8.4056 5.3117 8.13448 5.00006 7.7299 5.00006ZM6.99341 10.5118H5.46384L6.12975 9.56427L6.99341 10.5118ZM5.97602 9.50138L5.30871 10.4503L4.61904 9.50138H5.97602ZM5.15359 10.5118H3.77214L4.46251 9.56147L5.15359 10.5118ZM4.30599 9.50138L3.61632 10.4503L2.94901 9.50138H4.30599ZM2.79388 9.56287L3.4612 10.5118H1.92882L2.79319 9.56287H2.79388ZM1.92673 10.6676H3.55134L4.30529 13.3661L1.92673 10.6676ZM3.72183 10.6676H5.2018L4.46112 13.501L3.72113 10.6676H3.72183ZM4.61834 13.3661L5.373 10.6676H6.99481L4.61834 13.3661Z" fill="white" stroke="white" stroke-width="0.0698751" stroke-miterlimit="10"/>
</svg>
