<svg width="24" height="24" viewBox="0 0 24 24" fill="none" xmlns="http://www.w3.org/2000/svg">
<path d="M11.2752 4.71541L10.8305 4.66L10.5463 4.67137H6.21881L5.91051 4.68131C5.61448 4.66573 5.31979 4.73106 5.05808 4.87027C4.92902 4.94524 4.82244 5.05347 4.74947 5.18367C4.6765 5.31387 4.63981 5.46127 4.64322 5.61048C4.64322 5.63606 4.64322 5.66021 4.64322 5.68436C4.64106 5.72364 4.64106 5.76301 4.64322 5.80228C4.64322 5.82217 4.64322 5.83922 4.64322 5.85911C4.64322 5.879 4.64322 5.90742 4.64322 5.93299C4.64322 6.399 4.92737 6.73713 5.41468 6.85932L5.79401 6.95593C5.82998 7.0461 5.84504 7.14325 5.83805 7.24008V16.1027C5.84529 16.3281 5.81553 16.5532 5.74997 16.769C5.73486 16.8075 5.71323 16.843 5.68604 16.8741C5.61835 16.9417 5.54516 17.0034 5.46724 17.0588L5.3749 17.1242L5.20725 17.245V19.2894L5.59227 19.3079C5.88352 19.3221 6.06253 19.3278 6.17477 19.3278C6.82375 19.3309 7.46992 19.2424 8.09417 19.0649C8.65407 18.9139 9.17978 18.6569 9.64276 18.3077C10.5165 17.6087 10.9598 16.5914 10.9598 15.2815V7.17188C10.9543 7.08279 10.9664 6.99349 10.9953 6.90904L11.2794 6.82096H11.2922C11.4865 6.76283 11.6564 6.64253 11.7758 6.47853C11.8951 6.31453 11.9573 6.11588 11.9529 5.9131C11.9529 5.89321 11.9529 5.87474 11.9529 5.85627C11.9529 5.8378 11.9529 5.80797 11.9529 5.78239C11.9529 5.75682 11.9529 5.71704 11.9529 5.68436C11.9529 5.65168 11.9529 5.62327 11.9529 5.59059C11.9625 5.38793 11.8996 5.18847 11.7754 5.02805C11.6512 4.86763 11.4738 4.75677 11.2752 4.71541Z" fill="#651A01"/>
<path d="M5.3065 16.9409C5.62879 16.5442 5.80664 16.0497 5.81086 15.5386C5.81086 15.5159 5.81086 15.4946 5.81086 15.4733C5.81086 15.452 5.81086 15.4292 5.81086 15.4065C5.81086 15.3838 5.81086 15.3426 5.81086 15.3113C5.81086 15.2801 5.81086 15.2474 5.81086 15.2147C5.80936 14.5933 5.56137 13.998 5.12134 13.5593C4.6813 13.1206 4.08518 12.8744 3.46382 12.8747C3.13671 12.872 2.81264 12.9377 2.51242 13.0676C2.21221 13.1975 1.94249 13.3888 1.72059 13.6292C1.48751 13.8658 1.3038 14.1465 1.18014 14.4548C1.05648 14.7631 0.995342 15.0929 1.00028 15.425C1.00028 15.4619 1.00028 15.4989 1.00028 15.5372C1.00028 15.5756 1.00028 15.5898 1.00028 15.6168C1.00028 15.6438 1.00028 15.6679 1.00028 15.6935C1.00028 15.7191 1.00028 15.7304 1.00028 15.7489C0.999955 16.2975 1.14401 16.8365 1.41797 17.3117C1.70232 17.7997 2.09752 18.2139 2.5716 18.5208C3.10295 18.8689 3.80906 19.1161 4.67144 19.2525L5.14028 19.3278V17.1327H5.13317C5.19472 17.0723 5.2526 17.0083 5.3065 16.9409Z" fill="#651A01"/>
<path d="M22.9524 14.3794V15.6471V17.3262V18.0664C22.9524 18.6187 22.5047 19.0664 21.9524 19.0664H19.6399H13.4748C13.2038 19.0791 12.9355 19.0082 12.7061 18.8632C12.5905 18.7851 12.4965 18.679 12.4329 18.5548C12.3693 18.4306 12.3382 18.2923 12.3424 18.1529V18.0946V18.0221V17.9383C12.3403 17.9024 12.3403 17.8663 12.3424 17.8303C12.3354 17.6258 12.3974 17.4248 12.5186 17.2599C12.6397 17.0949 12.8129 16.9755 13.0102 16.9211L13.2943 16.8245C13.3258 16.7446 13.338 16.6584 13.3298 16.573V7.17334C13.3378 7.08742 13.3256 7.00084 13.2943 6.92044L13.0102 6.82099C12.8135 6.76626 12.641 6.64695 12.5204 6.48228C12.3998 6.3176 12.3381 6.11713 12.3453 5.91314V5.84068V5.78243C12.3431 5.74647 12.3431 5.71041 12.3453 5.67445V5.59063C12.3416 5.45108 12.3731 5.31286 12.4369 5.18871C12.5007 5.06455 12.5948 4.95847 12.7104 4.88025C12.9391 4.73524 13.2072 4.66475 13.4776 4.67851H18.3919C18.6794 4.65878 18.9665 4.72084 19.2202 4.85752C19.3496 4.93357 19.4572 5.04185 19.5324 5.17182C19.6076 5.30179 19.6478 5.44901 19.6492 5.59915C19.6492 5.62899 19.6421 5.6574 19.6421 5.68724C19.6467 5.72163 19.649 5.75627 19.6492 5.79095V5.85062V5.92166C19.6492 6.39903 19.3651 6.73717 18.8693 6.85083C18.6377 6.9034 18.5425 6.92897 18.5041 6.94033L18.4899 6.95596C18.451 7.04532 18.4354 7.14308 18.4445 7.24011V16.9069L18.7528 16.85C18.9837 16.8118 19.2109 16.7538 19.4319 16.6767C19.5861 16.6161 19.7299 16.5317 19.8581 16.4266C20.1213 16.2091 20.3432 15.9458 20.513 15.6495C20.73 15.2829 20.9027 14.8918 21.0273 14.4845C21.0953 14.1883 21.215 13.9064 21.3811 13.6519C21.4648 13.5447 21.573 13.4591 21.6966 13.4023C21.8202 13.3454 21.9556 13.319 22.0915 13.3252C22.2436 13.3204 22.3941 13.3577 22.5264 13.4329C22.6587 13.5081 22.7678 13.6183 22.8416 13.7514C22.9296 13.9484 22.9677 14.1641 22.9524 14.3794Z" fill="#651A01"/>
<mask id="mask0_4_5025" style="mask-type:luminance" maskUnits="userSpaceOnUse" x="1" y="4" width="22" height="15">
<path d="M18.8037 5.85195C18.6525 5.88247 18.5031 5.92136 18.3562 5.96845C18.3012 5.99679 18.2527 6.0365 18.2141 6.08495C18.106 6.24475 18.0558 6.43681 18.0721 6.6291V18.0505H13.4959C13.3074 18.0619 13.1198 18.0163 12.9575 17.9198C12.8965 17.879 12.847 17.8232 12.8139 17.7577C12.7808 17.6923 12.7652 17.6194 12.7685 17.5461C12.7612 17.4271 12.7961 17.3092 12.867 17.2134C12.9379 17.1175 13.0404 17.0497 13.1564 17.0218C13.3695 16.9508 13.4945 16.9068 13.53 16.8911C13.5766 16.8642 13.6153 16.8255 13.6422 16.7789C13.7321 16.6299 13.7729 16.4565 13.7587 16.2831V6.56232C13.7729 6.38891 13.7321 6.21546 13.6422 6.06648C13.6153 6.01991 13.5766 5.98122 13.53 5.95424C13.4945 5.93861 13.3695 5.89457 13.1564 5.82353C13.0404 5.7957 12.9379 5.72788 12.867 5.632C12.7961 5.53613 12.7612 5.41832 12.7685 5.29928C12.7652 5.226 12.7808 5.15311 12.8139 5.08765C12.847 5.02219 12.8965 4.96638 12.9575 4.92562C13.1196 4.82856 13.3073 4.78298 13.4959 4.79491H18.4102C18.621 4.77902 18.8323 4.81922 19.0225 4.91142C19.0976 4.95018 19.1608 5.00857 19.2053 5.08037C19.2498 5.15217 19.2741 5.23469 19.2754 5.31917C19.2716 5.60711 19.1144 5.7847 18.8037 5.85195ZM18.8521 18.0505V16.9622C19.1085 16.9204 19.3605 16.8553 19.605 16.7675C19.7969 16.6922 19.9757 16.5872 20.135 16.4564C20.4354 16.2094 20.6886 15.91 20.8823 15.5727C21.1166 15.1787 21.3026 14.758 21.4364 14.3196C21.4926 14.0692 21.5885 13.8293 21.7205 13.6092C21.7661 13.5522 21.8248 13.5069 21.8915 13.4772C21.9583 13.4475 22.0312 13.4343 22.1041 13.4387C22.1847 13.4344 22.2649 13.4531 22.3353 13.4926C22.4058 13.5321 22.4635 13.5907 22.5019 13.6618C22.551 13.7982 22.5709 13.9434 22.5602 14.088V18.0405H18.8521V18.0505ZM4.99984 16.0813C4.78168 16.3437 4.50133 16.5474 4.18435 16.6738C4.06785 16.732 4.00675 16.7775 3.99965 16.8158C3.99255 16.8542 4.02096 16.8883 4.08205 16.938C4.15216 16.9915 4.22909 17.0355 4.31079 17.0687C4.45306 17.12 4.59945 17.159 4.74837 17.1852V18.2536C3.93856 18.1239 3.29118 17.9003 2.80624 17.583C2.38457 17.3106 2.03352 16.942 1.78189 16.5075C1.54159 16.0928 1.41605 15.6215 1.41819 15.1422C1.41413 14.8613 1.46635 14.5825 1.57176 14.3222C1.67717 14.0618 1.83364 13.8252 2.03194 13.6263C2.21615 13.4251 2.44064 13.265 2.6908 13.1563C2.94096 13.0476 3.21119 12.9928 3.48393 12.9955C3.99642 12.997 4.48752 13.2011 4.85004 13.5634C5.21257 13.9256 5.41708 14.4166 5.41896 14.9291C5.41453 15.3497 5.26667 15.7562 4.99984 16.0813ZM11.1672 5.82638L10.8561 5.92299C10.661 5.98834 10.5663 6.20193 10.5719 6.56374V14.6833C10.5719 15.8682 10.1836 16.7713 9.40694 17.3927C8.98621 17.7096 8.5081 17.9422 7.999 18.0775C7.4113 18.2447 6.80287 18.328 6.19183 18.3247C6.08244 18.3247 5.89348 18.3176 5.62354 18.3048V17.1781L5.72015 17.1099C5.81936 17.0392 5.91207 16.9598 5.99719 16.8727C6.05711 16.805 6.10515 16.7276 6.13927 16.6439C6.22468 16.3808 6.26409 16.1049 6.25577 15.8284V6.6433C6.25577 6.24123 6.13927 6.01533 5.90627 5.96277L5.52693 5.86616C5.21627 5.78754 5.06093 5.60948 5.06093 5.33196C5.05703 5.25247 5.07545 5.17349 5.11412 5.10393C5.15279 5.03438 5.21016 4.97704 5.27973 4.93841C5.47945 4.83873 5.70197 4.79364 5.92474 4.8077L6.24582 4.79776H10.5648L10.8277 4.78781L11.1772 4.82617C11.2864 4.84697 11.3845 4.90663 11.4532 4.99412C11.5219 5.08162 11.5566 5.19103 11.5508 5.30212C11.5562 5.42013 11.521 5.53642 11.4513 5.63176C11.3815 5.72709 11.2813 5.79575 11.1672 5.82638Z" fill="white"/>
</mask>
<g mask="url(#mask0_4_5025)">
<path d="M40.3898 1.99042H-15.871V21.1236H40.3898V1.99042Z" fill="url(#paint0_linear_4_5025)"/>
</g>
<mask id="mask1_4_5025" style="mask-type:luminance" maskUnits="userSpaceOnUse" x="1" y="4" width="22" height="15">
<path d="M13.7339 17.917H13.4938C13.3339 17.9275 13.1743 17.891 13.0349 17.8119C12.9927 17.7842 12.9586 17.7458 12.9361 17.7006C12.9136 17.6554 12.9036 17.6051 12.9071 17.5547C12.8997 17.4665 12.9243 17.3786 12.9765 17.3071C13.0287 17.2356 13.1049 17.1853 13.1912 17.1654C13.5151 17.0575 13.5634 17.0362 13.5791 17.0234C13.6482 16.9876 13.7061 16.9335 13.7467 16.8671C13.8551 16.6941 13.9049 16.4909 13.8888 16.2874V6.56242C13.9035 6.35997 13.8537 6.15807 13.7467 5.9856C13.7065 5.91813 13.6485 5.86306 13.5791 5.82648C13.5506 5.81369 13.481 5.7867 13.1912 5.6844C13.1049 5.66454 13.0287 5.61425 12.9765 5.54275C12.9243 5.47125 12.8997 5.38333 12.9071 5.29512C12.9036 5.24476 12.9136 5.19439 12.9361 5.1492C12.9586 5.104 12.9927 5.06561 13.0349 5.03796C13.1743 4.95865 13.3338 4.92208 13.4938 4.93283H18.4081C18.5918 4.91637 18.7766 4.94872 18.9437 5.0266C18.9981 5.05196 19.0443 5.09198 19.0772 5.14218C19.1101 5.19238 19.1283 5.25076 19.1298 5.31075C19.1298 5.52812 19.0204 5.6503 18.7747 5.70571C18.6145 5.73564 18.4569 5.77743 18.303 5.83074C18.2241 5.86846 18.1555 5.92448 18.1027 5.99412C17.97 6.17809 17.9066 6.40302 17.9236 6.6292V17.9085H13.741M18.9977 17.9085V17.0802C19.223 17.0392 19.4445 16.9793 19.6598 16.9012C19.8656 16.8211 20.0574 16.7089 20.2281 16.5687C20.5421 16.3111 20.8068 15.9987 21.0095 15.6467C21.2493 15.2447 21.4401 14.8154 21.5778 14.368C21.6293 14.1364 21.7181 13.9148 21.8406 13.7116C21.873 13.6718 21.9147 13.6405 21.962 13.6204C22.0093 13.6004 22.0608 13.5922 22.1119 13.5965C22.1675 13.5922 22.2232 13.6043 22.2719 13.6313C22.3207 13.6583 22.3604 13.6991 22.3861 13.7485C22.423 13.8636 22.4366 13.9848 22.4259 14.1052V17.9156H18.992M2.88229 17.4595C2.4795 17.1998 2.14404 16.8482 1.90341 16.4338C1.67632 16.0403 1.55723 15.5938 1.55817 15.1395C1.55265 14.8766 1.60013 14.6154 1.69776 14.3713C1.7954 14.1272 1.9412 13.9052 2.12646 13.7187C2.29704 13.5308 2.50555 13.3812 2.7382 13.2798C2.97086 13.1784 3.22238 13.1275 3.47615 13.1305C3.81116 13.1227 4.14143 13.2108 4.42809 13.3843C4.71474 13.5579 4.94586 13.8097 5.09422 14.1102C5.24259 14.4106 5.30204 14.7472 5.26556 15.0804C5.22909 15.4135 5.09822 15.7292 4.88836 15.9905C4.68389 16.2333 4.42286 16.4221 4.12827 16.5403C3.98619 16.6142 3.88674 16.6824 3.86827 16.7762V16.8088C3.87342 16.8544 3.8889 16.8981 3.91352 16.9368C3.93814 16.9754 3.97126 17.008 4.01035 17.0319C4.09011 17.0932 4.17751 17.1438 4.27034 17.1825C4.38354 17.2248 4.49993 17.2581 4.61842 17.2819V18.0662C4.00507 17.9817 3.41479 17.7754 2.88229 17.4595ZM5.76352 18.1699V17.2535L5.79904 17.2294C5.90599 17.1533 6.00542 17.0672 6.09597 16.9722C6.16496 16.8927 6.22061 16.8025 6.26078 16.7051C6.26078 16.7051 6.26078 16.7051 6.26078 16.698C6.35164 16.4194 6.39393 16.1272 6.3858 15.8342V6.6434C6.3858 6.31663 6.30624 5.9103 5.92549 5.82506L5.54615 5.72844C5.22791 5.64888 5.18671 5.47413 5.18671 5.33206C5.18267 5.27724 5.19461 5.22243 5.22108 5.17427C5.24756 5.1261 5.28744 5.08665 5.33588 5.06069C5.51271 4.97574 5.70838 4.93759 5.90417 4.94988L6.22526 4.93993H10.5684L10.8199 4.92999L11.1467 4.96693C11.224 4.98079 11.2935 5.02293 11.3416 5.08516C11.3896 5.14739 11.4128 5.22526 11.4067 5.30364C11.4123 5.39152 11.3869 5.47859 11.335 5.54971C11.2831 5.62083 11.2079 5.67151 11.1225 5.69293L10.8128 5.78954C10.5542 5.8762 10.4207 6.1362 10.4207 6.56242V14.6862C10.4295 15.2037 10.3329 15.7176 10.1365 16.1965C9.95331 16.6225 9.66724 16.9965 9.30397 17.2848C8.89735 17.5899 8.43572 17.8137 7.94434 17.944C7.3695 18.1072 6.77451 18.1885 6.17695 18.1855C6.08603 18.1855 5.92691 18.1855 5.75784 18.1713" fill="white"/>
</mask>
<g mask="url(#mask1_4_5025)">
<path d="M42.7308 -2.35703H-20.0341V25.6785H42.7308V-2.35703Z" fill="url(#paint1_radial_4_5025)"/>
</g>
<defs>
<linearGradient id="paint0_linear_4_5025" x1="12.2594" y1="3.19095" x2="12.2594" y2="20.9091" gradientUnits="userSpaceOnUse">
<stop stop-color="#FDFF6E"/>
<stop offset="1" stop-color="#FFBC00"/>
</linearGradient>
<radialGradient id="paint1_radial_4_5025" cx="0" cy="0" r="1" gradientUnits="userSpaceOnUse" gradientTransform="translate(12.0744 3.69323) scale(41.2963 24.3651)">
<stop offset="0.03" stop-color="#FFFF6D"/>
<stop offset="0.27" stop-color="#FFF36D"/>
<stop offset="0.33" stop-color="#FBFFB9"/>
<stop offset="0.36" stop-color="#F6F6AF"/>
<stop offset="0.4" stop-color="#EADE93"/>
<stop offset="0.45" stop-color="#D7B766"/>
<stop offset="0.49" stop-color="#C18B34"/>
<stop offset="0.53" stop-color="#C88F2C"/>
<stop offset="0.59" stop-color="#DB9915"/>
<stop offset="0.63" stop-color="#E9A103"/>
</radialGradient>
</defs>
</svg>
