<svg width="24" height="24" viewBox="0 0 24 24" fill="none" xmlns="http://www.w3.org/2000/svg">
<path d="M13.7338 17.9171H13.4937C13.3337 17.9276 13.1742 17.891 13.0348 17.8119C12.9926 17.7843 12.9585 17.7459 12.936 17.7007C12.9135 17.6555 12.9035 17.6051 12.9069 17.5548C12.8995 17.4666 12.9242 17.3787 12.9764 17.3072C13.0286 17.2356 13.1048 17.1854 13.1911 17.1655C13.515 17.0575 13.5633 17.0362 13.5789 17.0234C13.648 16.9876 13.706 16.9336 13.7466 16.8671C13.8549 16.6942 13.9048 16.4909 13.8887 16.2875V6.56248C13.9033 6.36003 13.8536 6.15813 13.7466 5.98566C13.7064 5.91819 13.6484 5.86312 13.5789 5.82654C13.5505 5.81375 13.4809 5.78676 13.1911 5.68446C13.1048 5.66461 13.0286 5.61432 12.9764 5.54281C12.9242 5.47131 12.8995 5.38339 12.9069 5.29518C12.9035 5.24482 12.9135 5.19445 12.936 5.14926C12.9585 5.10406 12.9926 5.06567 13.0348 5.03802C13.1741 4.95871 13.3337 4.92214 13.4937 4.93289H18.408C18.5917 4.91643 18.7764 4.94878 18.9436 5.02666C18.998 5.05202 19.0442 5.09205 19.0771 5.14224C19.11 5.19244 19.1282 5.25082 19.1297 5.31081C19.1297 5.52818 19.0203 5.65036 18.7745 5.70577C18.6144 5.7357 18.4568 5.77749 18.3029 5.8308C18.224 5.86852 18.1553 5.92454 18.1025 5.99419C17.9698 6.17815 17.9064 6.40308 17.9235 6.62926V17.9086H13.7409M18.9976 17.9086V17.0803C19.2229 17.0393 19.4444 16.9794 19.6596 16.9012C19.8655 16.8212 20.0573 16.709 20.2279 16.5688C20.5419 16.3111 20.8067 15.9987 21.0093 15.6467C21.2492 15.2447 21.44 14.8155 21.5776 14.3681C21.6292 14.1365 21.718 13.9148 21.8405 13.7117C21.8729 13.6718 21.9146 13.6405 21.9619 13.6205C22.0092 13.6004 22.0606 13.5922 22.1118 13.5966C22.1674 13.5922 22.223 13.6043 22.2718 13.6314C22.3205 13.6584 22.3603 13.6992 22.386 13.7486C22.4229 13.8636 22.4364 13.9849 22.4258 14.1052V17.9157H18.9919M2.88217 17.4596C2.47938 17.1998 2.14392 16.8483 1.90329 16.4338C1.6762 16.0403 1.5571 15.5938 1.55805 15.1395C1.55253 14.8767 1.60001 14.6154 1.69764 14.3713C1.79528 14.1272 1.94108 13.9053 2.12634 13.7188C2.29692 13.5309 2.50542 13.3813 2.73808 13.2799C2.97074 13.1785 3.22226 13.1276 3.47603 13.1306C3.81104 13.1228 4.14131 13.2108 4.42797 13.3844C4.71462 13.5579 4.94573 13.8098 5.0941 14.1102C5.24247 14.4107 5.30191 14.7473 5.26544 15.0804C5.22897 15.4135 5.0981 15.7293 4.88823 15.9905C4.68376 16.2333 4.42274 16.4222 4.12814 16.5404C3.98607 16.6143 3.88662 16.6824 3.86815 16.7762V16.8089C3.8733 16.8544 3.88878 16.8982 3.9134 16.9368C3.93802 16.9755 3.97113 17.008 4.01022 17.032C4.08999 17.0932 4.17739 17.1438 4.27022 17.1826C4.38341 17.2249 4.49981 17.2582 4.6183 17.282V18.0663C4.00494 17.9817 3.41467 17.7755 2.88217 17.4596ZM5.7634 18.17V17.2536L5.79892 17.2294C5.90587 17.1534 6.0053 17.0673 6.09585 16.9723C6.16483 16.8927 6.22049 16.8025 6.26066 16.7052C6.26066 16.7052 6.26066 16.7052 6.26066 16.6981C6.35152 16.4194 6.39381 16.1272 6.38568 15.8343V6.64347C6.38568 6.31669 6.30612 5.91036 5.92536 5.82512L5.54603 5.72851C5.22779 5.64894 5.18659 5.47419 5.18659 5.33212C5.18254 5.2773 5.19448 5.22249 5.22096 5.17433C5.24744 5.12617 5.28732 5.08671 5.33576 5.06076C5.51259 4.97581 5.70826 4.93765 5.90405 4.94994L6.22514 4.93999H10.5683L10.8198 4.93005L11.1465 4.96699C11.2239 4.98085 11.2934 5.02299 11.3414 5.08522C11.3895 5.14745 11.4127 5.22532 11.4065 5.3037C11.4122 5.39158 11.3868 5.47865 11.3349 5.54977C11.283 5.62089 11.2078 5.67157 11.1224 5.69299L10.8127 5.7896C10.5541 5.87626 10.4205 6.13626 10.4205 6.56248V14.6863C10.4294 15.2038 10.3327 15.7177 10.1364 16.1966C9.95318 16.6226 9.66712 16.9965 9.30385 17.2848C8.89723 17.5899 8.43559 17.8138 7.94422 17.9441C7.36938 18.1073 6.77439 18.1886 6.17683 18.1856C6.08591 18.1856 5.92679 18.1856 5.75772 18.1714" fill="white"/>
</svg>
