<svg width="24" height="24" viewBox="0 0 24 24" fill="none" xmlns="http://www.w3.org/2000/svg">
<path d="M8.5 2.27185C10.0084 1.53712 10.6073 1.53743 11.5547 1.80798L20.2148 4.05115C21.2665 4.36836 21.3352 4.7463 20.292 5.2865L15.7617 7.62537C14.8101 8.11806 13.3869 8.54813 12.335 8.23181L3.39453 5.54041C2.34349 5.22406 3.1272 4.64899 4.55762 4.01111L8.5 2.27185ZM6.96191 3.90173C5.96357 3.90173 5.15435 4.25648 5.1543 4.6947C5.1543 5.13208 5.96354 5.48767 6.96191 5.48767C7.96021 5.48763 8.77051 5.13292 8.77051 4.6947C8.77045 4.2565 7.96017 3.90177 6.96191 3.90173ZM11.9951 3.90173C10.9968 3.90173 10.1876 4.25648 10.1875 4.6947C10.1875 5.13208 10.9967 5.48767 11.9951 5.48767C12.9934 5.48763 13.8037 5.13292 13.8037 4.6947C13.8037 4.2565 12.9934 3.90177 11.9951 3.90173ZM17.0312 3.92322C16.0598 3.9233 15.2734 4.26861 15.2734 4.6947C15.2735 5.11992 16.0599 5.46512 17.0312 5.46521C18.0019 5.46521 18.791 5.11998 18.791 4.6947C18.791 4.26856 18.0028 3.92322 17.0312 3.92322Z" fill="white"/>
<path d="M2.00586 7.31107C2.00595 6.25674 2.44166 5.73635 3.49609 6.0181L12.2305 8.77786C13.285 9.06052 14.1328 9.99468 14.1328 11.0484L14.1396 20.6294C14.1395 21.6829 13.2849 22.3086 12.2305 22.0269L3.95996 19.0347C2.90569 18.7527 2.46973 17.5638 2.46973 16.5103L2.00586 7.31107ZM9.89453 10.0005C9.54036 9.88822 9.24808 9.83112 9.10449 10.0269C8.90395 10.3009 8.78164 10.5066 8.56641 10.8091L8.33691 11.1324C8.12169 11.4349 7.76434 11.9271 7.54395 12.2261L7.10645 12.8189C6.88602 13.118 6.84294 13.6344 7.00977 13.9663L9.33984 18.7222C9.51961 19.1327 9.73079 19.3669 10.2588 19.564L11.9414 20.1773C12.292 20.298 12.4419 20.1261 12.2744 19.7945L10.3076 15.9029C10.1399 15.571 9.88831 15.0718 9.75 14.7935C9.6117 14.5152 9.59578 14.1553 9.7168 13.9937C9.83783 13.832 10.1324 13.4663 10.3701 13.1802L11.9346 11.3003C12.1722 11.0151 12.0779 10.689 11.7236 10.5757L9.89453 10.0005ZM4.24316 8.21048C3.6118 8.10183 3.61701 8.63314 3.61719 8.64407C3.70708 10.4592 3.95295 15.0504 4.01953 16.7544C4.01953 16.7621 4.01952 16.7711 4.01953 16.7788C4.03077 16.88 4.10474 17.2881 4.56543 17.5025C5.04949 17.6719 5.68269 17.8909 6.13477 18.0542C6.19451 18.0686 6.78125 18.1836 6.78125 17.6138L6.59375 14.0152L6.47559 9.50833H6.4707C6.4026 9.0786 5.86711 8.73082 5.86133 8.72708C5.35744 8.56459 4.75398 8.36952 4.24316 8.21048Z" fill="white"/>
<path d="M21.1357 5.50671C21.9932 4.91118 21.9932 5.337 21.9932 6.45105L21.7617 14.7928C21.7617 15.906 21.7201 16.8854 20.9053 17.6503L16.0596 21.5741C14.9454 22.1671 14.5879 21.45 14.5879 20.3358L14.7451 11.0292C14.7451 9.915 15.0284 8.87715 16.1426 8.28503L21.1357 5.50671ZM18.9971 8.5155C18.9574 8.52069 18.9177 8.5287 18.8789 8.53992C18.8547 8.54683 18.8104 8.57898 18.7871 8.57898C18.6722 8.64118 18.5526 8.70515 18.4395 8.76648C18.3929 8.79149 18.3467 8.81644 18.3027 8.83972C17.9062 9.09044 17.7812 9.54187 17.7812 9.54187C17.732 9.81733 17.6735 10.1357 17.6484 10.2655L17.4883 11.1122L15.9766 18.9354L15.8721 19.4384L15.8672 19.4608C15.8464 19.5602 15.8133 19.8014 15.9473 19.8446C16.0515 19.878 16.1375 19.7953 16.21 19.7391C16.2903 19.6769 16.3715 19.6147 16.4502 19.5516C16.5133 19.5015 16.6598 19.3859 16.8896 19.2079C17.1153 19.0333 17.1622 18.749 17.1631 18.7499C17.3273 17.7498 17.4869 16.8227 17.6416 15.9764L19.1133 14.8944C19.2568 15.6611 19.3683 16.3426 19.4521 16.9442C19.4526 16.9482 19.4751 17.1332 19.6904 17.0145C19.8685 16.8745 20.0856 16.7033 20.293 16.5399C20.4996 16.3774 20.6407 16.2899 20.7168 16.0487C20.773 15.8724 20.6995 15.5757 20.6641 15.4003C20.6598 15.3813 20.6557 15.3616 20.6514 15.3427L19.7852 10.745C19.7748 10.6862 19.7653 10.628 19.7549 10.5692C19.7307 10.4266 19.7049 10.2841 19.6807 10.1415C19.6504 9.96514 19.6201 9.7895 19.5898 9.61316C19.5622 9.45244 19.5345 9.29244 19.5068 9.13171C19.4878 9.02036 19.4691 8.90811 19.4492 8.79675C19.4397 8.74489 19.4386 8.69664 19.4023 8.65515C19.3064 8.54476 19.143 8.49564 18.9971 8.5155ZM18.4951 10.9872C18.5158 10.8689 18.5474 10.8684 18.5664 10.9872L18.8691 12.8973C18.888 13.0165 18.8218 13.1711 18.7217 13.2411L18.1787 13.621C18.0785 13.6908 18.0136 13.6514 18.0352 13.5331L18.167 12.8202C18.1886 12.7018 18.2235 12.5089 18.2451 12.3905L18.4951 10.9872Z" fill="white"/>
</svg>
