<svg width="24" height="24" viewBox="0 0 24 24" fill="none" xmlns="http://www.w3.org/2000/svg">
<path d="M11.5556 1.80861C11.5556 1.80861 18.8545 3.69817 20.2151 4.05084C21.5756 4.40438 22.0415 4.79422 21.9957 6.45126C21.9499 8.10744 21.8652 13.337 21.7641 14.7927C21.6629 16.2483 21.6085 17.0833 20.9074 17.6503C20.2064 18.2182 17.0445 20.7889 16.0617 21.5738C15.0797 22.3587 13.9136 22.6353 12.2315 22.0276C10.5494 21.42 5.03287 19.488 3.96103 19.036C2.88918 18.5856 2.52441 17.5717 2.45612 16.2094C2.38697 14.8471 2.10345 8.51025 2.00663 7.31306C1.91069 6.11588 2.4492 4.94463 4.47361 4.05084C6.49888 3.1562 7.2898 2.78191 8.79212 2.12584C10.2944 1.46977 11.5556 1.80861 11.5556 1.80861Z" fill="url(#paint0_linear_4_4991)"/>
<path d="M20.2146 4.05083C21.2666 4.36806 21.3358 4.74667 20.2924 5.28691L15.7613 7.6251C14.8096 8.1178 13.3868 8.54827 12.3348 8.2319L3.39442 5.54018C2.34332 5.22381 3.12732 4.64899 4.55789 4.01107L8.50039 2.27191C10.0088 1.53718 10.6069 1.53718 11.5543 1.80773L20.2146 4.05083Z" fill="url(#paint1_linear_4_4991)"/>
<path d="M14.1393 20.6291C14.1393 21.6828 13.2853 22.3086 12.2308 22.0268L3.96025 19.0352C2.90569 18.7534 2.47004 17.564 2.47004 16.5103L2.00586 7.3114C2.00586 6.25684 2.44151 5.73648 3.49607 6.01827L12.2308 8.77741C13.2853 9.06007 14.1333 9.99448 14.1333 11.0482L14.1393 20.6291Z" fill="url(#paint2_linear_4_4991)"/>
<path d="M21.7615 14.7926C21.7615 15.906 21.72 16.8853 20.9049 17.6503L16.0591 21.5738C14.9449 22.1668 14.5879 21.4502 14.5879 20.336L14.7452 11.0291C14.7452 9.91487 15.0287 8.8776 16.1429 8.28549L21.1357 5.50647C21.9931 4.9109 21.9931 5.33705 21.9931 6.45125L21.7615 14.7926Z" fill="url(#paint3_linear_4_4991)"/>
<path d="M5.1543 4.69475C5.1543 5.13213 5.96337 5.4874 6.96174 5.4874C7.96012 5.4874 8.77005 5.133 8.77005 4.69475C8.77005 4.2565 7.96012 3.9021 6.96174 3.9021C5.96337 3.9021 5.1543 4.2565 5.1543 4.69475Z" fill="url(#paint4_linear_4_4991)"/>
<path d="M5.1543 4.69475C5.1543 5.13213 5.96337 5.4874 6.96174 5.4874C7.96012 5.4874 8.77005 5.133 8.77005 4.69475C8.77005 4.2565 7.96012 3.9021 6.96174 3.9021C5.96337 3.9021 5.1543 4.2565 5.1543 4.69475Z" fill="url(#paint5_linear_4_4991)"/>
<path d="M6.96261 4.01534C7.9169 4.01534 8.68967 4.34035 8.75709 4.75093C8.76055 4.73192 8.77005 4.71376 8.77005 4.69475C8.77005 4.25737 7.96098 3.9021 6.96261 3.9021C5.96423 3.9021 5.1543 4.2565 5.1543 4.69475C5.1543 4.71376 5.16381 4.73192 5.16726 4.75093C5.23469 4.34035 6.00832 4.01534 6.96261 4.01534Z" fill="#E50012"/>
<path d="M6.96136 4.311C7.79809 4.311 8.49393 4.56081 8.70052 4.89879C8.72991 4.85125 8.7472 4.80198 8.75584 4.75098C8.68842 4.34039 7.91565 4.01538 6.96136 4.01538C6.00707 4.01538 5.23344 4.34039 5.16602 4.75098C5.17466 4.80198 5.19195 4.85125 5.22134 4.89879C5.42793 4.56081 6.12463 4.311 6.96136 4.311Z" fill="#CCCCCC"/>
<path d="M10.1875 4.69475C10.1875 5.13213 10.9966 5.4874 11.9949 5.4874C12.9933 5.4874 13.8033 5.133 13.8033 4.69475C13.8033 4.2565 12.9933 3.9021 11.9949 3.9021C10.9966 3.9021 10.1875 4.2565 10.1875 4.69475Z" fill="url(#paint6_linear_4_4991)"/>
<path d="M10.1875 4.69475C10.1875 5.13213 10.9966 5.4874 11.9949 5.4874C12.9933 5.4874 13.8033 5.133 13.8033 4.69475C13.8033 4.2565 12.9933 3.9021 11.9949 3.9021C10.9966 3.9021 10.1875 4.2565 10.1875 4.69475Z" fill="url(#paint7_linear_4_4991)"/>
<path d="M11.9958 4.01534C12.9501 4.01534 13.7229 4.34035 13.7903 4.75093C13.7937 4.73192 13.8033 4.71376 13.8033 4.69475C13.8033 4.25737 12.9942 3.9021 11.9958 3.9021C10.9974 3.9021 10.1875 4.2565 10.1875 4.69475C10.1875 4.71376 10.197 4.73192 10.2005 4.75093C10.267 4.34035 11.0415 4.01534 11.9958 4.01534Z" fill="#E50012"/>
<path d="M11.9946 4.311C12.8313 4.311 13.5271 4.56081 13.7337 4.89879C13.7631 4.85125 13.7804 4.80198 13.789 4.75098C13.7216 4.34039 12.9489 4.01538 11.9946 4.01538C11.0403 4.01538 10.2666 4.34039 10.1992 4.75098C10.2079 4.80198 10.2252 4.85125 10.2545 4.89879C10.4611 4.56081 11.1578 4.311 11.9946 4.311Z" fill="#CCCCCC"/>
<path d="M15.2734 4.69468C15.2734 5.11997 16.06 5.46486 17.0316 5.46486C18.0023 5.46486 18.7907 5.11997 18.7907 4.69468C18.7907 4.26854 18.0032 3.92365 17.0316 3.92365C16.06 3.92365 15.2734 4.26854 15.2734 4.69468Z" fill="url(#paint8_linear_4_4991)"/>
<path d="M15.2734 4.69468C15.2734 5.11997 16.06 5.46486 17.0316 5.46486C18.0023 5.46486 18.7907 5.11997 18.7907 4.69468C18.7907 4.26854 18.0032 3.92365 17.0316 3.92365C16.06 3.92365 15.2734 4.26854 15.2734 4.69468Z" fill="url(#paint9_linear_4_4991)"/>
<path d="M17.0325 4.03342C17.9608 4.03342 18.712 4.34979 18.7777 4.74914C18.7803 4.73099 18.7907 4.71284 18.7907 4.69382C18.7907 4.26854 18.0041 3.92365 17.0325 3.92365C16.0618 3.92365 15.2734 4.26854 15.2734 4.69382C15.2734 4.71284 15.2829 4.73012 15.2864 4.74914C15.3521 4.34979 16.1041 4.03342 17.0325 4.03342Z" fill="#E50012"/>
<path d="M17.0312 4.32128C17.8446 4.32128 18.5223 4.56504 18.7228 4.89351C18.7514 4.84683 18.7687 4.79929 18.7764 4.75002C18.7107 4.35067 17.9596 4.0343 17.0312 4.0343C16.1029 4.0343 15.3509 4.35067 15.2852 4.75002C15.2929 4.79929 15.3102 4.8477 15.3387 4.89351C15.5393 4.56417 16.2178 4.32128 17.0312 4.32128Z" fill="#CCCCCC"/>
<path d="M10.3074 15.9025C10.1397 15.5706 9.88817 15.0718 9.74986 14.7935C9.61156 14.5151 9.596 14.1556 9.71702 13.9939C9.83803 13.8323 10.1319 13.4666 10.3696 13.1805L11.935 11.3005C12.1728 11.0152 12.0777 10.6893 11.7233 10.5761L9.89422 10.0004C9.53982 9.88805 9.24765 9.831 9.10416 10.0272C8.90362 10.3012 8.78174 10.5061 8.56651 10.8086L8.33658 11.1319C8.12135 11.4345 7.76435 11.9272 7.54393 12.2262L7.10655 12.8192C6.88613 13.1183 6.84291 13.6343 7.00974 13.9663L9.34014 18.7221C9.51993 19.1327 9.73085 19.367 10.259 19.5641L11.9411 20.1769C12.292 20.2979 12.4424 20.1259 12.2748 19.794L10.3074 15.9025Z" fill="url(#paint10_linear_4_4991)"/>
<path d="M6.78088 17.614L6.59417 14.0147L6.47575 9.50863H6.47057C6.40228 9.07644 5.86203 8.72722 5.86117 8.72722C5.35723 8.56472 4.75388 8.36936 4.24302 8.21032C3.6051 8.10054 3.6172 8.64424 3.6172 8.64424C3.7071 10.4595 3.95259 15.0511 4.01915 16.7548C4.01915 16.7626 4.02001 16.7713 4.02001 16.779C4.03125 16.8802 4.10472 17.2882 4.56544 17.5025C5.0495 17.672 5.68224 17.8907 6.13432 18.054C6.19137 18.0679 6.78088 18.1854 6.78088 17.614Z" fill="url(#paint11_linear_4_4991)"/>
<path d="M7.10843 13.0449L7.54582 12.452C7.76624 12.1529 8.12323 11.6602 8.33847 11.3576L8.56839 11.0344C8.78363 10.7318 8.90551 10.527 9.10605 10.2529C9.24954 10.0567 9.5417 10.1138 9.8961 10.2262L11.7252 10.8018C11.8989 10.8572 12.0095 10.9643 12.0502 11.0923C12.1133 10.871 11.9948 10.6618 11.7252 10.5762L9.8961 10.0005C9.5417 9.88818 9.24954 9.83113 9.10605 10.0273C8.90551 10.3014 8.78363 10.5062 8.56839 10.8088L8.33847 11.132C8.12323 11.4346 7.76624 11.9273 7.54582 12.2264L7.10843 12.8193C6.95976 13.0207 6.89406 13.319 6.91654 13.5947C6.93469 13.3907 6.99952 13.191 7.10843 13.0449Z" fill="#E50012"/>
<path d="M4.24757 16.9865C4.24757 16.9787 4.24671 16.9614 4.24671 16.9536C4.18015 15.2508 3.93466 10.6323 3.84476 8.81708C3.84476 8.81708 3.83266 8.29153 4.47058 8.40131C4.98144 8.56035 5.58565 8.77818 6.08873 8.94069C6.08873 8.94069 6.17171 8.98736 6.2763 9.07294C6.09651 8.85165 5.86399 8.71249 5.86312 8.71249C5.35918 8.54998 4.75583 8.36241 4.24498 8.20336C3.60706 8.09358 3.61916 8.64506 3.61916 8.64506C3.70905 10.4603 3.95454 15.0519 4.0211 16.7557C4.0211 16.7634 4.02196 16.7721 4.02196 16.7799C4.03147 16.868 4.08939 17.1879 4.41008 17.4126C4.2856 17.2337 4.25449 17.0478 4.24757 16.9865Z" fill="#E50012"/>
<path d="M20.6638 15.4004C20.6595 15.3814 20.656 15.3615 20.6517 15.3425L19.7847 10.7447C19.7743 10.686 19.7648 10.6281 19.7544 10.5693C19.7302 10.4267 19.7052 10.284 19.681 10.1414C19.6507 9.96507 19.6205 9.78959 19.5902 9.61326C19.5626 9.45248 19.5349 9.29257 19.5072 9.13179C19.4882 9.02028 19.4692 8.90791 19.4493 8.79641C19.4398 8.74454 19.4389 8.697 19.4026 8.65551C19.3067 8.54487 19.1433 8.4956 18.9972 8.51548C18.9575 8.52067 18.9177 8.52845 18.8788 8.53968C18.8546 8.5466 18.8105 8.57858 18.7872 8.57858C18.6722 8.64082 18.5529 8.70478 18.4397 8.76615C18.393 8.79122 18.3472 8.81629 18.3031 8.83963C17.9064 9.0903 17.781 9.54151 17.781 9.54151C17.7318 9.81726 17.6739 10.1362 17.6488 10.2659L17.488 11.1121L15.9762 18.9357L15.8725 19.4379L15.8673 19.4613C15.8465 19.5607 15.8128 19.8019 15.9468 19.8451C16.0514 19.8788 16.1378 19.7949 16.2104 19.7388C16.2908 19.6765 16.3712 19.6143 16.4499 19.5512C16.513 19.501 16.6599 19.3861 16.8899 19.208C17.1155 19.0334 17.1621 18.749 17.163 18.7499C17.3272 17.7498 17.4871 16.8232 17.6419 15.9769L19.1131 14.8947C19.2566 15.6614 19.3681 16.3426 19.4519 16.9442C19.4519 16.9442 19.4727 17.1343 19.6905 17.0142C19.8685 16.8742 20.0855 16.703 20.293 16.5396C20.4996 16.3771 20.6405 16.2898 20.7165 16.0487C20.7727 15.8723 20.6992 15.5758 20.6638 15.4004ZM18.7215 13.2411L18.1787 13.6206C18.0784 13.6906 18.0136 13.6517 18.0352 13.5333L18.1666 12.8202C18.1882 12.7017 18.2236 12.509 18.2452 12.3906L18.495 10.9868C18.5158 10.8684 18.5478 10.8684 18.5668 10.9876L18.8693 12.8971C18.8883 13.0164 18.8218 13.1711 18.7215 13.2411Z" fill="url(#paint12_linear_4_4991)"/>
<path d="M20.6642 15.4004C20.6599 15.3814 20.6564 15.3615 20.6521 15.3425L19.7851 10.7447C19.7747 10.686 19.7652 10.6281 19.7549 10.5693C19.7306 10.4267 19.7056 10.284 19.6814 10.1414C19.6511 9.96507 19.6209 9.78959 19.5906 9.61326C19.563 9.45248 19.5353 9.29257 19.5076 9.13179C19.4886 9.02029 19.4696 8.90791 19.4497 8.79641C19.4402 8.74454 19.4393 8.697 19.403 8.65551C19.3071 8.54487 19.1437 8.4956 18.9976 8.51548C18.9579 8.52067 18.9181 8.52845 18.8792 8.53968C18.855 8.5466 18.8109 8.57858 18.7876 8.57858C18.6726 8.64082 18.5533 8.70478 18.4401 8.76615C18.3934 8.79122 18.3476 8.81629 18.3035 8.83963C17.9068 9.0903 17.7814 9.54151 17.7814 9.54151C17.7797 9.55362 17.7771 9.56572 17.7754 9.57782C17.8419 9.42569 17.9846 9.17328 18.2482 9.00732C18.2923 8.98398 18.3381 8.95891 18.3848 8.93385C18.498 8.87247 18.6173 8.80851 18.7323 8.74627C18.7556 8.74627 18.7997 8.71515 18.8239 8.70738C18.8628 8.69614 18.9026 8.68836 18.9423 8.68317C19.0875 8.66329 19.2509 8.7117 19.3477 8.8232C19.384 8.86469 19.3849 8.91224 19.3944 8.9641C19.4143 9.07561 19.4333 9.18798 19.4523 9.29948C19.48 9.46026 19.5076 9.62017 19.5353 9.78095C19.5655 9.95729 19.5958 10.1328 19.6261 10.3091C19.6503 10.4517 19.6753 10.5943 19.6995 10.737C19.7099 10.7957 19.7194 10.8537 19.7298 10.9124L20.5968 15.5101C20.6002 15.5292 20.6045 15.549 20.6089 15.5681C20.6417 15.7288 20.7022 15.9899 20.6685 16.168C20.6875 16.1325 20.704 16.0945 20.7186 16.0495C20.7731 15.8723 20.6996 15.5758 20.6642 15.4004Z" fill="#C90018"/>
<defs>
<linearGradient id="paint0_linear_4_4991" x1="-3.62736" y1="1.29442" x2="23.8645" y2="19.0134" gradientUnits="userSpaceOnUse">
<stop offset="0.2085" stop-color="#EFA26F"/>
<stop offset="0.4736" stop-color="#D2000E"/>
<stop offset="1" stop-color="#7D0000"/>
</linearGradient>
<linearGradient id="paint1_linear_4_4991" x1="2.29877" y1="4.99114" x2="31.5908" y2="4.99114" gradientUnits="userSpaceOnUse">
<stop stop-color="#EFA26F"/>
<stop offset="0.5586" stop-color="#D2000E"/>
<stop offset="1" stop-color="#7D0000"/>
</linearGradient>
<linearGradient id="paint2_linear_4_4991" x1="2.1804" y1="8.2513" x2="19.6356" y2="24.6929" gradientUnits="userSpaceOnUse">
<stop stop-color="#EFA26F"/>
<stop offset="0.5586" stop-color="#D2000E"/>
<stop offset="1" stop-color="#7D0000"/>
</linearGradient>
<linearGradient id="paint3_linear_4_4991" x1="-2.36511" y1="0.648916" x2="25.0001" y2="17.541" gradientUnits="userSpaceOnUse">
<stop offset="0.4721" stop-color="#D2000E"/>
<stop offset="0.7683" stop-color="#7D0000"/>
</linearGradient>
<linearGradient id="paint4_linear_4_4991" x1="6.96221" y1="4.0942" x2="6.96221" y2="5.43692" gradientUnits="userSpaceOnUse">
<stop stop-color="#9E9E9F"/>
<stop offset="0.0899" stop-color="#B6B6B6"/>
<stop offset="0.2184" stop-color="#D0D0D1"/>
<stop offset="0.3592" stop-color="#E5E5E5"/>
<stop offset="0.5166" stop-color="#F4F4F4"/>
<stop offset="0.7042" stop-color="#FCFCFC"/>
<stop offset="1" stop-color="white"/>
</linearGradient>
<linearGradient id="paint5_linear_4_4991" x1="6.96221" y1="1252.46" x2="6.96221" y2="1253.27" gradientUnits="userSpaceOnUse">
<stop stop-color="#9E9E9F"/>
<stop offset="0.0899" stop-color="#B6B6B6"/>
<stop offset="0.2184" stop-color="#D0D0D1"/>
<stop offset="0.3592" stop-color="#E5E5E5"/>
<stop offset="0.5166" stop-color="#F4F4F4"/>
<stop offset="0.7042" stop-color="#FCFCFC"/>
<stop offset="1" stop-color="white"/>
</linearGradient>
<linearGradient id="paint6_linear_4_4991" x1="11.9951" y1="4.0942" x2="11.9951" y2="5.43692" gradientUnits="userSpaceOnUse">
<stop stop-color="#9E9E9F"/>
<stop offset="0.0899" stop-color="#B6B6B6"/>
<stop offset="0.2184" stop-color="#D0D0D1"/>
<stop offset="0.3592" stop-color="#E5E5E5"/>
<stop offset="0.5166" stop-color="#F4F4F4"/>
<stop offset="0.7042" stop-color="#FCFCFC"/>
<stop offset="1" stop-color="white"/>
</linearGradient>
<linearGradient id="paint7_linear_4_4991" x1="11.9951" y1="1252.46" x2="11.9951" y2="1253.27" gradientUnits="userSpaceOnUse">
<stop stop-color="#9E9E9F"/>
<stop offset="0.0899" stop-color="#B6B6B6"/>
<stop offset="0.2184" stop-color="#D0D0D1"/>
<stop offset="0.3592" stop-color="#E5E5E5"/>
<stop offset="0.5166" stop-color="#F4F4F4"/>
<stop offset="0.7042" stop-color="#FCFCFC"/>
<stop offset="1" stop-color="white"/>
</linearGradient>
<linearGradient id="paint8_linear_4_4991" x1="17.0318" y1="4.11067" x2="17.0318" y2="5.41643" gradientUnits="userSpaceOnUse">
<stop stop-color="#9E9E9F"/>
<stop offset="0.0899" stop-color="#B6B6B6"/>
<stop offset="0.2184" stop-color="#D0D0D1"/>
<stop offset="0.3592" stop-color="#E5E5E5"/>
<stop offset="0.5166" stop-color="#F4F4F4"/>
<stop offset="0.7042" stop-color="#FCFCFC"/>
<stop offset="1" stop-color="white"/>
</linearGradient>
<linearGradient id="paint9_linear_4_4991" x1="17.0318" y1="1218.12" x2="17.0318" y2="1218.91" gradientUnits="userSpaceOnUse">
<stop stop-color="#9E9E9F"/>
<stop offset="0.0899" stop-color="#B6B6B6"/>
<stop offset="0.2184" stop-color="#D0D0D1"/>
<stop offset="0.3592" stop-color="#E5E5E5"/>
<stop offset="0.5166" stop-color="#F4F4F4"/>
<stop offset="0.7042" stop-color="#FCFCFC"/>
<stop offset="1" stop-color="white"/>
</linearGradient>
<linearGradient id="paint10_linear_4_4991" x1="7.39581" y1="12.6612" x2="8.6721" y2="13.5246" gradientUnits="userSpaceOnUse">
<stop stop-color="#9E9E9F"/>
<stop offset="0.0899" stop-color="#B6B6B6"/>
<stop offset="0.2184" stop-color="#D0D0D1"/>
<stop offset="0.3592" stop-color="#E5E5E5"/>
<stop offset="0.5166" stop-color="#F4F4F4"/>
<stop offset="0.7042" stop-color="#FCFCFC"/>
<stop offset="1" stop-color="white"/>
</linearGradient>
<linearGradient id="paint11_linear_4_4991" x1="3.68865" y1="13.1345" x2="5.69048" y2="13.1345" gradientUnits="userSpaceOnUse">
<stop stop-color="#9E9E9F"/>
<stop offset="0.0899" stop-color="#B6B6B6"/>
<stop offset="0.2184" stop-color="#D0D0D1"/>
<stop offset="0.3592" stop-color="#E5E5E5"/>
<stop offset="0.5166" stop-color="#F4F4F4"/>
<stop offset="0.7042" stop-color="#FCFCFC"/>
<stop offset="1" stop-color="white"/>
</linearGradient>
<linearGradient id="paint12_linear_4_4991" x1="20.5295" y1="13.4883" x2="15.1567" y2="14.7214" gradientUnits="userSpaceOnUse">
<stop offset="0.0314" stop-color="#9E9E9F"/>
<stop offset="0.0867" stop-color="#B6B6B6"/>
<stop offset="0.1656" stop-color="#D0D0D1"/>
<stop offset="0.2522" stop-color="#E5E5E5"/>
<stop offset="0.3489" stop-color="#F4F4F4"/>
<stop offset="0.4642" stop-color="#FCFCFC"/>
<stop offset="0.646" stop-color="white"/>
</linearGradient>
</defs>
</svg>
