<svg width="24" height="24" viewBox="0 0 24 24" fill="none" xmlns="http://www.w3.org/2000/svg">
<path d="M11.6511 20.3373C11.4443 20.3354 11.2382 20.3126 11.0361 20.2691C10.8128 20.223 10.5952 20.1531 10.387 20.0604C10.1683 19.9616 9.96188 19.8376 9.77198 19.6909C9.56875 19.533 9.3904 19.3454 9.24288 19.1345C9.08342 18.9039 8.9606 18.65 8.87879 18.3818C8.78441 18.0726 8.73841 17.7506 8.74243 17.4273V12.2836C8.74445 12.0769 8.76683 11.8709 8.80925 11.6686C8.85603 11.4454 8.92643 11.2278 9.01925 11.0195C9.11815 10.7996 9.24363 10.5926 9.39288 10.4032C9.55301 10.2004 9.74234 10.0226 9.9547 9.87545C10.1849 9.71741 10.4372 9.59426 10.7033 9.50999C11.0125 9.41533 11.3346 9.36932 11.6579 9.37363H19.6242V11.7573H11.6511C11.5794 11.751 11.5072 11.759 11.4386 11.7808C11.3701 11.8025 11.3065 11.8376 11.2515 11.8841C11.1583 11.9991 11.1129 12.1456 11.1247 12.2932V17.4232C11.1141 17.4947 11.1204 17.5677 11.1431 17.6363C11.1658 17.705 11.2043 17.7673 11.2555 17.8184C11.3067 17.8695 11.3692 17.9078 11.4379 17.9303C11.5065 17.9529 11.5796 17.959 11.6511 17.9482H17.3183V16.0541H12.2647V13.6568H18.5061C18.6701 13.6558 18.8326 13.6888 18.9833 13.7536C19.1253 13.8158 19.254 13.9047 19.3624 14.0154C19.4682 14.1244 19.5528 14.252 19.612 14.3918C19.6739 14.5385 19.7054 14.6962 19.7047 14.8554V19.1386C19.7056 19.3004 19.6746 19.4607 19.6133 19.6104C19.5551 19.7533 19.4688 19.8831 19.3597 19.9923C19.2506 20.1014 19.1208 20.1876 18.9779 20.2459C18.8282 20.3072 18.6678 20.3382 18.5061 20.3373H11.6511Z" fill="url(#paint0_linear_4_4972)"/>
<path d="M5.90471 4.78364L5.28835 3.68182H11.227L10.7156 4.78364H10.1961L9.54562 6.76092H10.1865L13.3352 3.68182H17.6061L11.512 6.76092H13.4565L13.7293 11.1477H14.8406L14.1588 12.3041H9.6588L8.97698 11.1477H10.4579V8.31001H9.03562C8.18198 10.3268 6.78426 12.6818 2.20244 14.1927C1.88335 14.3386 1.64471 13.9664 1.9188 13.7836C5.92926 11.1409 5.78744 8.02228 6.59198 4.78364H5.91016" fill="white"/>
<defs>
<linearGradient id="paint0_linear_4_4972" x1="11.2692" y1="20.5882" x2="18.2115" y2="8.56363" gradientUnits="userSpaceOnUse">
<stop stop-color="#004F93"/>
<stop offset="1" stop-color="#47C1F1"/>
</linearGradient>
</defs>
</svg>
