<svg width="24" height="24" viewBox="0 0 24 24" fill="none" xmlns="http://www.w3.org/2000/svg">
<path d="M5.98468 10.2473C6.54096 10.1464 7.12947 10.3506 7.53358 10.7388C7.86045 11.0439 8.04833 11.4806 8.07706 11.9239C8.10656 12.4705 7.86782 13.0206 7.4606 13.3843C7.19818 13.6223 6.85812 13.7647 6.50952 13.8164C5.81775 13.9076 5.08794 13.552 4.74012 12.946C4.50099 12.5648 4.45441 12.0908 4.52816 11.6541C4.66442 10.9449 5.27505 10.3669 5.98468 10.2473Z" fill="#FE7A1C"/>
<path d="M4.09662 15.0912C5.00228 15.0765 5.90833 15.0843 6.814 15.0866C6.99218 15.0881 7.18123 15.0695 7.34505 15.1545C7.61019 15.2764 7.80273 15.5773 7.73596 15.8727C7.40289 17.3878 7.06206 18.9018 6.72394 20.4161C6.60942 20.9309 6.0904 21.2962 5.57254 21.2876C4.61525 21.2853 3.65757 21.2888 2.70028 21.2857C2.35245 21.2865 1.97668 21.0206 2.00113 20.6432V20.5613C2.01783 20.3043 2.08615 20.0559 2.14127 19.8055C2.42466 18.5481 2.70688 17.2908 2.98754 16.033C3.0679 15.5066 3.56906 15.094 4.09662 15.0912ZM18.0857 2.7427C18.1827 2.71786 18.2829 2.70893 18.3827 2.71009C19.366 2.71747 20.3489 2.70543 21.3318 2.7163C21.6975 2.71242 22.0232 3.05636 21.9987 3.42127C21.9863 3.53423 21.9548 3.64409 21.9315 3.75512C21.6513 5.02724 21.3621 6.29781 21.0779 7.56915C20.9125 8.31488 20.4824 8.99034 19.9063 9.48762C19.0659 10.1903 18.0593 10.6681 17.0166 10.9872C16.1726 11.25 15.3054 11.4271 14.4393 11.5979C14.357 11.6177 14.2682 11.6409 14.2091 11.7058C14.1696 11.7819 14.232 11.8704 14.3112 11.8828C14.5504 11.9449 14.7988 11.9554 15.0418 11.9934C15.8159 12.1169 16.5787 12.349 17.2658 12.731C17.6513 12.9496 18.0255 13.2019 18.3174 13.5392C18.8698 14.165 19.1761 15.0272 19.0542 15.8618C18.8182 17.3882 18.4118 18.8812 18.0985 20.3925C18.0205 20.7671 17.732 21.0815 17.378 21.2174C17.1556 21.3109 16.9106 21.2841 16.6757 21.2869C15.7829 21.2857 14.8897 21.2896 13.9964 21.2845C13.6012 21.2973 13.2491 20.8921 13.3373 20.5019C13.5465 19.5151 13.7821 18.5338 13.9941 17.5478C14.1067 17 14.1991 16.4375 14.1408 15.8773C14.0519 15.3797 13.9064 14.8502 13.5185 14.4992C13.0481 14.1052 12.5054 13.7838 11.9087 13.625C11.3602 13.467 10.7775 13.4247 10.2538 13.1852C10.036 13.0808 9.81592 12.9562 9.67074 12.757C9.35552 12.3315 9.33572 11.7155 9.60552 11.2625C9.74255 11.0226 9.98362 10.8677 10.227 10.7524C10.6781 10.5447 11.1769 10.4865 11.6622 10.4053C12.6179 10.2566 13.602 10.1309 14.4774 9.69181C15.0659 9.4158 15.6412 9.04741 16.0026 8.49345C16.1233 8.30634 16.2161 8.1002 16.2689 7.88359C16.6008 6.44881 16.9126 5.00977 17.2406 3.57422C17.3334 3.16506 17.6843 2.84285 18.0857 2.7427ZM6.71345 2.74542C6.88659 2.70194 7.06633 2.71242 7.24295 2.71126C8.16026 2.71786 9.07757 2.70466 9.99527 2.71747C10.3827 2.71553 10.7115 3.11925 10.6273 3.49852C10.2922 5.01482 9.9483 6.52917 9.61251 8.04508C9.491 8.54586 8.98829 8.903 8.48091 8.90416C7.5376 8.90688 6.59467 8.903 5.65135 8.9061C5.39048 8.90765 5.10904 8.8009 4.97006 8.56876C4.85982 8.40067 4.8637 8.18716 4.90601 7.99772C5.22394 6.58352 5.53955 5.16893 5.85554 3.75434C5.88621 3.61925 5.90911 3.48066 5.97122 3.35527C6.11602 3.05792 6.39746 2.83587 6.71345 2.74542Z" fill="white"/>
</svg>
