<svg width="24" height="24" viewBox="0 0 24 24" fill="none" xmlns="http://www.w3.org/2000/svg">
<path d="M9.65825 4.28198H13.1392C10.6075 9.41682 8.04425 14.5517 5.51275 19.6862H2C4.53175 14.5194 7.095 9.38507 9.65825 4.28198Z" fill="white"/>
<path d="M13.9302 4.25H17.443C14.9112 9.38483 12.38 14.5197 9.78496 19.6545H6.30371C8.83546 14.5197 11.367 9.38483 13.9302 4.25ZM14.8797 11.8406C17.2532 10.5967 19.6265 9.3211 22 8.0772V11.6491C20.2912 12.3828 18.519 13.0205 16.81 13.818C18.3607 14.9022 20.2912 15.2531 22 16.0185V19.75C19.6265 18.5381 17.2532 17.2942 14.8797 16.0503C14.1835 15.6996 13.4557 15.4126 12.8545 14.9024C13.424 13.8497 13.677 12.3508 14.8797 11.8406Z" fill="white"/>
</svg>
