<svg width="24" height="24" viewBox="0 0 24 24" fill="none" xmlns="http://www.w3.org/2000/svg">
<path d="M11.8485 1H12.1135C12.291 1.0775 12.4611 1.1675 12.6298 1.26375C15.5048 2.93249 18.3885 4.58625 21.2623 6.25499C21.596 6.4075 21.6286 6.79874 21.6135 7.11877C21.6035 10.4538 21.6173 13.79 21.6073 17.125C21.6186 17.3787 21.496 17.6288 21.2636 17.745C18.571 19.3062 15.8735 20.8588 13.1785 22.4175C12.8285 22.6175 12.486 22.835 12.1173 23H11.8623C8.90479 21.3575 5.99979 19.6175 3.0573 17.9462C2.79229 17.795 2.48979 17.6475 2.38354 17.3375V6.68377C2.4623 6.39 2.72979 6.235 2.97855 6.09875C5.94105 4.41002 8.87481 2.67127 11.8485 1ZM3.62729 7.16501C3.62605 10.3888 3.62354 13.6125 3.62979 16.8363C6.41856 18.4425 9.20479 20.0562 11.9935 21.6638C14.7823 20.0538 17.5698 18.4425 20.3598 16.8337C20.3598 13.61 20.361 10.3875 20.3586 7.16501C17.5686 5.55874 14.7823 3.94499 11.9923 2.33876C9.20354 3.94748 6.41604 5.55749 3.62729 7.16501Z" fill="#FF0000"/>
<path d="M6.505 12.4826C7.08376 11.5676 7.665 10.6539 8.24628 9.74139C9.49628 10.4601 10.7438 11.1826 11.9938 11.9014C13.2438 11.1826 14.4913 10.4601 15.7413 9.74139C16.3225 10.6539 16.9025 11.5676 17.4825 12.4826C16.8713 13.4251 16.2675 14.3739 15.6513 15.3139C15.925 16.0089 16.2175 16.6976 16.4975 17.3901C15.875 17.7514 15.2513 18.1101 14.6275 18.4689C13.9525 18.0576 13.2463 17.6939 12.5925 17.2489C13.12 16.9164 13.6763 16.6289 14.2038 16.2939C14.4363 16.2214 14.3738 15.8226 14.1313 15.8476C12.7125 15.8264 11.2913 15.8326 9.87376 15.8451C9.6575 15.8126 9.54 16.1664 9.74252 16.2639C10.2875 16.6189 10.8663 16.9201 11.4213 17.2589C10.735 17.6651 10.0463 18.0664 9.35875 18.4701C8.73628 18.1076 8.10875 17.7539 7.48877 17.3864C7.77375 16.7064 8.04127 16.0176 8.33753 15.3414C7.74376 14.3789 7.11378 13.4376 6.505 12.4826ZM7.07625 12.2976C7.8825 12.8026 8.69128 13.3026 9.50002 13.8039C9.50126 13.4226 9.50126 13.0414 9.50002 12.6614C9.28376 12.5389 9.0775 12.3964 8.84627 12.3064C8.25752 12.2789 7.66628 12.3064 7.07625 12.2976ZM14.4875 12.6614C14.485 13.0426 14.485 13.4226 14.4863 13.8026C15.295 13.3026 16.105 12.8026 16.91 12.2976C16.32 12.3064 15.7288 12.2789 15.1388 12.3076C14.9063 12.3939 14.7025 12.5414 14.4875 12.6614Z" fill="#FF0000"/>
<path d="M9.94592 18.8125C10.6259 18.4075 11.3109 18.0112 11.9947 17.61C12.6784 18.0087 13.3597 18.41 14.0434 18.8075C13.3634 19.2088 12.6772 19.6 11.9934 19.9963C11.3109 19.6012 10.6284 19.205 9.94592 18.8125Z" fill="#FF0000"/>
</svg>
