<svg width="24" height="24" viewBox="0 0 24 24" fill="none" xmlns="http://www.w3.org/2000/svg">
<path d="M2.0697 4.125C2.0697 3.29657 2.74128 2.625 3.5697 2.625H19.8197C20.6481 2.625 21.3197 3.29657 21.3197 4.125V19.875C21.3197 20.7034 20.6481 21.375 19.8197 21.375H3.5697C2.74127 21.375 2.0697 20.7034 2.0697 19.875V4.125Z" fill="url(#paint0_linear_4_5747)"/>
<path fill-rule="evenodd" clip-rule="evenodd" d="M3.5697 2.375H19.8197C20.7862 2.375 21.5697 3.1585 21.5697 4.125V19.875C21.5697 20.8415 20.7862 21.625 19.8197 21.625H3.5697C2.6032 21.625 1.8197 20.8415 1.8197 19.875V4.125C1.8197 3.1585 2.6032 2.375 3.5697 2.375ZM3.5697 2.625C2.74128 2.625 2.0697 3.29657 2.0697 4.125V19.875C2.0697 20.7034 2.74127 21.375 3.5697 21.375H19.8197C20.6481 21.375 21.3197 20.7034 21.3197 19.875V4.125C21.3197 3.29657 20.6481 2.625 19.8197 2.625H3.5697Z" fill="#08087A"/>
<path fill-rule="evenodd" clip-rule="evenodd" d="M3.5697 2.375H19.8197C20.7862 2.375 21.5697 3.1585 21.5697 4.125V19.875C21.5697 20.8415 20.7862 21.625 19.8197 21.625H3.5697C2.6032 21.625 1.8197 20.8415 1.8197 19.875V4.125C1.8197 3.1585 2.6032 2.375 3.5697 2.375ZM3.5697 2.625C2.74128 2.625 2.0697 3.29657 2.0697 4.125V19.875C2.0697 20.7034 2.74127 21.375 3.5697 21.375H19.8197C20.6481 21.375 21.3197 20.7034 21.3197 19.875V4.125C21.3197 3.29657 20.6481 2.625 19.8197 2.625H3.5697Z" fill="#0026D0"/>
<path fill-rule="evenodd" clip-rule="evenodd" d="M19.8197 3.125H3.5697C3.01742 3.125 2.5697 3.57272 2.5697 4.125V19.875C2.5697 20.4273 3.01742 20.875 3.5697 20.875H19.8197C20.372 20.875 20.8197 20.4273 20.8197 19.875V4.125C20.8197 3.57272 20.372 3.125 19.8197 3.125ZM3.5697 2.625C2.74128 2.625 2.0697 3.29657 2.0697 4.125V19.875C2.0697 20.7034 2.74127 21.375 3.5697 21.375H19.8197C20.6481 21.375 21.3197 20.7034 21.3197 19.875V4.125C21.3197 3.29657 20.6481 2.625 19.8197 2.625H3.5697Z" fill="#0026D0"/>
<path fill-rule="evenodd" clip-rule="evenodd" d="M3.5697 2.375H19.8197C20.7862 2.375 21.5697 3.1585 21.5697 4.125V19.875C21.5697 20.8415 20.7862 21.625 19.8197 21.625H3.5697C2.6032 21.625 1.8197 20.8415 1.8197 19.875V4.125C1.8197 3.1585 2.6032 2.375 3.5697 2.375ZM3.5697 2.625C2.74128 2.625 2.0697 3.29657 2.0697 4.125V19.875C2.0697 20.7034 2.74127 21.375 3.5697 21.375H19.8197C20.6481 21.375 21.3197 20.7034 21.3197 19.875V4.125C21.3197 3.29657 20.6481 2.625 19.8197 2.625H3.5697Z" fill="#08087A"/>
<path d="M22.0687 1.125V4.125L15.5687 9.625L16.9437 10.75L12.0687 15H13.5687L14.8187 16L5.69373 22.875H3.69373L13.5687 15H12.0687H9.94373L15.5687 9.625H12.5687L22.0687 1.125Z" fill="url(#paint1_linear_4_5747)"/>
<path fill-rule="evenodd" clip-rule="evenodd" d="M22.1207 1.01089C22.1657 1.03101 22.1947 1.0757 22.1947 1.125V4.125C22.1947 4.16177 22.1785 4.19668 22.1505 4.22043L15.7651 9.62339L17.0239 10.6533C17.0524 10.6766 17.0691 10.7112 17.0697 10.748C17.0703 10.7849 17.0546 10.82 17.0269 10.8442L12.4033 14.875H13.5697C13.5981 14.875 13.6256 14.8847 13.6478 14.9024L14.8978 15.9024C14.9279 15.9265 14.9453 15.9632 14.9447 16.0018C14.9441 16.0404 14.9258 16.0766 14.8949 16.0998L5.76993 22.9748C5.74825 22.9912 5.72185 23 5.69471 23H3.69471C3.64159 23 3.59427 22.9664 3.57672 22.9163C3.55918 22.8662 3.57524 22.8104 3.61677 22.7773L13.2125 15.125H9.94471C9.89364 15.125 9.8477 15.0939 9.82869 15.0465C9.80968 14.9991 9.82143 14.9449 9.85835 14.9096L15.258 9.75H12.5697C12.5179 9.75 12.4714 9.71803 12.4529 9.66962C12.4344 9.62121 12.4477 9.5664 12.4864 9.53185L21.9864 1.03185C22.0231 0.998976 22.0757 0.990767 22.1207 1.01089ZM15.5761 9.79176L16.751 10.753L12.0229 14.875H10.2565L15.5761 9.79176ZM15.5239 9.5L21.9447 4.06703V1.40458L12.8969 9.5H15.5239ZM13.5696 15.16L4.05194 22.75H5.65289L14.6159 15.997L13.5696 15.16Z" fill="black"/>
<path d="M8.0697 11.625L6.1947 9.875H9.0697L8.0697 11.625Z" fill="black"/>
<path d="M7.1947 17.375L5.3197 15.625H8.1947L7.1947 17.375Z" fill="black"/>
<path d="M13.6947 14.875L3.9447 22.5L7.5697 15.75H5.4447L9.0697 9.875H6.1947L10.5697 1.125H21.9447L12.8197 9.5H15.8197L10.1947 14.875H13.6947Z" fill="#FFFF00"/>
<path fill-rule="evenodd" clip-rule="evenodd" d="M10.4579 1.0691C10.4791 1.02675 10.5224 1 10.5697 1H21.9447C21.9962 1 22.0425 1.03163 22.0612 1.07965C22.0799 1.12767 22.0672 1.18225 22.0292 1.21709L13.1408 9.375H15.8197C15.8708 9.375 15.9167 9.40607 15.9357 9.45348C15.9547 9.50089 15.943 9.55509 15.9061 9.59037L10.5065 14.75H13.6947C13.7481 14.75 13.7955 14.7838 13.8129 14.8343C13.8303 14.8847 13.8137 14.9406 13.7717 14.9735L4.02171 22.5985C3.97514 22.6349 3.90941 22.6337 3.86418 22.5956C3.81896 22.5575 3.80661 22.493 3.83458 22.4409L7.3607 15.875H5.44471C5.3994 15.875 5.35763 15.8505 5.33555 15.8109C5.31347 15.7713 5.31454 15.7229 5.33833 15.6844L8.8457 10H6.19471C6.15139 10 6.11115 9.97757 6.08838 9.94072C6.0656 9.90386 6.06353 9.85785 6.08291 9.8191L10.4579 1.0691ZM10.647 1.25L6.39696 9.75H9.06971C9.11502 9.75 9.15679 9.77452 9.17887 9.81409C9.20095 9.85366 9.19988 9.90208 9.17609 9.94064L5.66872 15.625H7.56971C7.61368 15.625 7.65442 15.6481 7.67699 15.6858C7.69956 15.7236 7.70064 15.7704 7.67983 15.8091L4.33626 22.0351L13.332 15H10.1947C10.1436 15 10.0977 14.9689 10.0787 14.9215C10.0597 14.8741 10.0714 14.8199 10.1084 14.7846L15.508 9.625H12.8197C12.7682 9.625 12.7219 9.59338 12.7032 9.54535C12.6845 9.49733 12.6972 9.44276 12.7352 9.40791L21.6237 1.25H10.647Z" fill="black"/>
<defs>
<linearGradient id="paint0_linear_4_5747" x1="-22.9303" y1="12.125" x2="21.3197" y2="12.125" gradientUnits="userSpaceOnUse">
<stop stop-color="#03037C"/>
<stop offset="0.696147" stop-color="#003CF4"/>
<stop offset="1" stop-color="#0622A9"/>
</linearGradient>
<linearGradient id="paint1_linear_4_5747" x1="12.8812" y1="1.125" x2="12.8812" y2="22.875" gradientUnits="userSpaceOnUse">
<stop stop-color="#5B3007"/>
<stop offset="1" stop-color="#1C0D02"/>
</linearGradient>
</defs>
</svg>
