<svg width="24" height="24" viewBox="0 0 24 24" fill="none" xmlns="http://www.w3.org/2000/svg">
<path d="M18.1016 11.9008H13.9136C12.9064 11.9008 12.0584 11.0528 12.0584 10.0456V5.88401C12.0584 4.87681 12.9064 4.02881 13.9136 4.02881H18.1016C19.1088 4.02881 19.9568 4.87681 19.9568 5.88401V10.072C19.9568 11.0792 19.1088 11.9008 18.1016 11.9008Z" fill="#88C983"/>
<path d="M9.88479 11.9008H6.01519C4.90159 11.9008 4.00079 10.9992 4.00079 9.88639V6.01679C4.00079 4.24079 6.14799 3.33999 7.41999 4.61199L11.3168 8.50879C12.5624 9.75439 11.6616 11.9016 9.88559 11.9016L9.88479 11.9008Z" fill="#88C983"/>
<path d="M7.9496 19.9848C5.776 19.9848 4 18.2088 4 16.0352V14.2064C4 13.04 4.9544 12.0856 6.1208 12.0856H9.752C10.9184 12.0856 11.8728 13.04 11.8728 14.2064V16.0352C11.8992 18.2088 10.1232 19.9848 7.9496 19.9848Z" fill="#88C983"/>
<path d="M18.1808 19.9848H13.86C12.8528 19.9848 12.0312 19.1632 12.0312 18.156V13.9152C12.0312 12.908 12.8528 12.0864 13.86 12.0864H18.2072C19.824 12.0864 20.6192 14.0744 19.4264 15.188C18.9496 15.6384 18.9496 16.4072 19.4264 16.8848C20.5928 17.9984 19.824 19.9864 18.1808 19.9864V19.9848Z" fill="#88C983"/>
</svg>
