<svg width="24" height="24" viewBox="0 0 24 24" fill="none" xmlns="http://www.w3.org/2000/svg">
<g clip-path="url(#clip0_85_964)">
<path d="M11.5667 13.1333C11.5667 14.0667 10.9 14.6 10 14.6C9.5 14.6 9.13333 14.5 8.86667 14.2333C8.66667 14.0667 8.5 13.7667 8.5 13.4667C8.5 13.3333 8.53333 13.2 8.6 13.1333C8.66667 13.0333 8.8 13 8.93333 13C9.06667 13 9.13333 13.0333 9.23333 13.1C9.33333 13.1667 9.33333 13.2333 9.4 13.4C9.5 13.6667 9.63333 13.8 10.0333 13.8C10.4 13.8 10.7 13.5667 10.7 13.1333C10.7 12.7333 10.4667 12.4667 10.0333 12.4667C9.93333 12.4667 9.86667 12.4667 9.76667 12.4C9.66667 12.3333 9.56667 12.2333 9.56667 12.0667C9.56667 11.9 9.63333 11.8 9.76667 11.7333C9.83333 11.7 9.93333 11.6667 10.0333 11.6667C10.4 11.6667 10.6667 11.4333 10.6667 11.0333C10.6667 10.6333 10.4 10.4 10.0667 10.4C9.76667 10.4 9.6 10.5 9.5 10.7667C9.43333 10.9333 9.4 10.9667 9.33333 11.0333C9.26667 11.1 9.2 11.1333 9.06667 11.1333C8.83333 11.1333 8.63333 10.9667 8.63333 10.7C8.63333 10.6 8.66667 10.4667 8.7 10.3667C8.76667 10.2 8.86667 10.0333 9 9.93333C9.3 9.7 9.63333 9.6 10.0667 9.6C10.9333 9.6 11.5667 10.1 11.5667 11C11.5667 11.5667 11.3 11.8667 10.9667 12.0333C11.2667 12.1667 11.5667 12.5 11.5667 13.1333ZM12.7 11.2C12.8667 11.2 13.0333 11.1333 13.1 10.9667C13.1667 10.8667 13.1667 10.8 13.1667 10.5667V10.4H14.4667L13.1667 13.8333C13.1 14 13.0667 14.1 13.1 14.2C13.1333 14.4 13.3333 14.5333 13.5333 14.5333C13.6333 14.5333 13.7333 14.5 13.7667 14.4333C13.8333 14.3667 13.8667 14.2667 13.9333 14.1L15.3333 10.4C15.4 10.2333 15.4333 10.1 15.4333 10.0333C15.4333 9.9 15.4 9.8 15.3 9.7C15.2 9.6 15.0667 9.56667 14.8 9.56667H12.8C12.6667 9.56667 12.5 9.56667 12.3667 9.7C12.2333 9.83333 12.2333 10 12.2333 10.1333V10.6C12.2333 10.8333 12.2333 10.9 12.3 11C12.3667 11.1333 12.5 11.2 12.7 11.2ZM22 12C22 17.5 17.5 22 12 22C6.5 22 2 17.5 2 12C2 6.5 6.5 2 12 2C17.5 2 22 6.5 22 12ZM20.7 15.7C21.1667 14.5667 21.4333 13.3333 21.4333 12C21.4333 10.6333 21.1333 9.33333 20.6333 8.16667C19.8333 9.13333 19.3667 10.4333 19.3667 11.8667C19.4 13.3667 19.9 14.7333 20.7 15.7ZM12 2.53333C10.4667 2.53333 9 2.9 7.7 3.56667C8.63333 4.43333 10.1667 5 11.9333 5C13.7 5 15.2667 4.43333 16.2 3.53333C14.9667 2.9 13.5 2.53333 12 2.53333ZM11.9333 6.66667C9.03333 6.66667 6.7 9 6.7 11.9C6.7 14.8 9.03333 17.1333 11.9333 17.1333C14.8333 17.1333 17.1667 14.8 17.1667 11.9C17.1667 9 14.8333 6.66667 11.9333 6.66667ZM2.53333 12C2.53333 13.3 2.8 14.5333 3.26667 15.6333C4 14.6667 4.46667 13.3667 4.46667 11.8667C4.46667 10.4333 4.03333 9.13333 3.33333 8.2C2.8 9.4 2.53333 10.6667 2.53333 12ZM12 21.4667C13.4667 21.4667 14.8333 21.1333 16.0667 20.5667C15.1 19.9667 13.6 19.5333 11.9667 19.5333C10.3333 19.5333 8.83333 19.9333 7.9 20.5C9.1 21.1333 10.5333 21.4667 12 21.4667Z" fill="url(#paint0_linear_85_964)"/>
</g>
<defs>
<linearGradient id="paint0_linear_85_964" x1="12" y1="2" x2="12" y2="22" gradientUnits="userSpaceOnUse">
<stop stop-color="#EAEAEA"/>
<stop offset="1" stop-color="#999999"/>
</linearGradient>
<clipPath id="clip0_85_964">
<rect width="20" height="20" fill="white" transform="translate(2 2)"/>
</clipPath>
</defs>
</svg>
