<svg width="24" height="24" viewBox="0 0 24 24" fill="none" xmlns="http://www.w3.org/2000/svg">
<path fill-rule="evenodd" clip-rule="evenodd" d="M20.6501 9.52799C20.1271 9.5272 19.6192 9.70157 19.2069 10.0233L19.1931 10.0281C18.7871 10.3353 18.2925 10.5025 17.7834 10.5047C17.2746 10.5068 16.7784 10.3437 16.3705 10.0399L16.3551 10.0346C16.0086 9.76076 15.592 9.59001 15.1529 9.54201C14.7142 9.49396 14.2704 9.57056 13.8731 9.76304C13.4754 9.95548 13.1403 10.256 12.9056 10.6302C12.6713 11.0044 12.5469 11.437 12.5469 11.8786C12.5469 12.3203 12.6713 12.7529 12.9056 13.1271C13.1403 13.5013 13.4754 13.8018 13.8731 13.9942C14.2704 14.1867 14.7142 14.2633 15.1529 14.2153C15.592 14.1672 16.0086 13.9965 16.3551 13.7227L16.3701 13.7174C16.7784 13.4136 17.2746 13.2505 17.7834 13.2526C18.2925 13.2548 18.7867 13.422 19.1927 13.7292L19.2069 13.734C19.5022 13.9637 19.8479 14.1197 20.2157 14.1888C20.5835 14.2579 20.9623 14.2382 21.3211 14.1314C21.6798 14.0245 22.0078 13.8336 22.2776 13.5745C22.5477 13.3154 22.7517 12.9955 22.8733 12.6416C22.9946 12.2876 23.0301 11.9098 22.9761 11.5395C22.9218 11.1692 22.7804 10.8172 22.563 10.5126C22.3453 10.2081 22.0582 9.95985 21.7259 9.7886C21.3931 9.61734 21.0242 9.52799 20.6501 9.52799Z" fill="#FDCB00"/>
<path fill-rule="evenodd" clip-rule="evenodd" d="M17.7632 4.60002C17.2403 4.59923 16.7323 4.77359 16.32 5.09529L16.3062 5.1H16.3058C15.8979 5.41 15.3993 5.57747 14.887 5.57668C14.3814 5.57746 13.8888 5.41439 13.4836 5.11188L13.4682 5.10657C13.1221 4.83271 12.7055 4.66198 12.2664 4.61395C11.8274 4.56592 11.3836 4.64252 10.9862 4.83499C10.5889 5.02745 10.2536 5.32798 10.0191 5.70216C9.78455 6.07633 9.66016 6.50901 9.66016 6.95062C9.66016 7.39223 9.78455 7.82491 10.0191 8.19907C10.2536 8.57325 10.5889 8.87379 10.9862 9.06627C11.3836 9.25871 11.8274 9.33531 12.2664 9.2873C12.7055 9.23926 13.1221 9.06855 13.4682 8.79468L13.4836 8.78936C13.8919 8.48555 14.3877 8.32245 14.8969 8.32461C15.4056 8.32674 15.9002 8.49398 16.3058 8.80117H16.3062L16.32 8.80598C16.6153 9.03575 16.9615 9.19169 17.3292 9.2608C17.697 9.32995 18.0759 9.31026 18.4346 9.20343C18.7929 9.09659 19.1209 8.90568 19.3911 8.64653C19.6608 8.38742 19.8652 8.06758 19.9865 7.71363C20.1081 7.35968 20.1432 6.98184 20.0892 6.61155C20.0353 6.24125 19.8939 5.88919 19.6762 5.58465C19.4588 5.28011 19.1717 5.03189 18.839 4.86063C18.5063 4.68937 18.1377 4.60002 17.7632 4.60002Z" fill="#FDCB00"/>
<path fill-rule="evenodd" clip-rule="evenodd" d="M17.7632 14.7034C17.2403 14.7026 16.7323 14.877 16.32 15.1986L16.3062 15.2034H16.3058C15.9002 15.5106 15.4056 15.6779 14.8969 15.68C14.3877 15.6821 13.8919 15.5191 13.4836 15.2153L13.4682 15.21C13.1217 14.9361 12.7055 14.7654 12.2664 14.7173C11.8274 14.6693 11.3836 14.7459 10.9862 14.9384C10.5889 15.1308 10.2536 15.4314 10.0191 15.8055C9.78455 16.1797 9.66016 16.6124 9.66016 17.054C9.66016 17.4956 9.78455 17.9283 10.0191 18.3025C10.2536 18.6766 10.5889 18.9771 10.9862 19.1696C11.3836 19.3621 11.8274 19.4387 12.2664 19.3907C12.7055 19.3426 13.1217 19.1719 13.4682 18.898L13.4836 18.8928C13.8919 18.5889 14.3877 18.4259 14.8969 18.428C15.4056 18.4301 15.9002 18.5974 16.3058 18.9046H16.3062L16.32 18.9094C16.6153 19.1391 16.9615 19.2951 17.3292 19.3642C17.697 19.4333 18.0759 19.4137 18.4346 19.3068C18.7929 19.2 19.1209 19.0091 19.3911 18.75C19.6608 18.4908 19.8652 18.171 19.9865 17.817C20.1081 17.4631 20.1432 17.0852 20.0892 16.715C20.0353 16.3446 19.8935 15.9926 19.6762 15.688C19.4588 15.3835 19.1717 15.1353 18.839 14.964C18.5063 14.7928 18.1377 14.7034 17.7632 14.7034Z" fill="#FDCB00"/>
<path fill-rule="evenodd" clip-rule="evenodd" d="M9.10324 9.52814C8.58034 9.52735 8.07224 9.70172 7.65996 10.0234L7.64613 10.0282C7.24034 10.3354 6.74564 10.5026 6.23672 10.5048C5.72776 10.5069 5.23187 10.3438 4.82352 10.04L4.80828 10.0347C4.46188 9.76087 4.0453 9.59012 3.60631 9.54212C3.16733 9.49408 2.72369 9.57067 2.32625 9.76315C1.92881 9.9556 1.59359 10.2561 1.35905 10.6303C1.12452 11.0044 1.00012 11.4371 1.00012 11.8787C1.00012 12.3204 1.12452 12.753 1.35905 13.1272C1.59359 13.5014 1.92881 13.8019 2.32625 13.9944C2.72369 14.1868 3.16733 14.2634 3.60631 14.2154C4.0453 14.1673 4.46188 13.9966 4.80828 13.7228L4.82348 13.7175C5.23183 13.4137 5.72776 13.2506 6.23672 13.2527C6.74564 13.2549 7.24015 13.4221 7.64594 13.7293L7.65996 13.7341C7.95533 13.9638 8.30126 14.1198 8.66901 14.1889C9.03681 14.258 9.41574 14.2383 9.77435 14.1315C10.133 14.0246 10.4608 13.8337 10.7309 13.5746C11.0011 13.3155 11.205 12.9956 11.3267 12.6417C11.448 12.2878 11.483 11.9099 11.4291 11.5396C11.3751 11.1693 11.2338 10.8173 11.016 10.5127C10.7987 10.2082 10.5116 9.95997 10.179 9.78871C9.84626 9.61745 9.47744 9.52814 9.10324 9.52814Z" fill="#FDCB00"/>
<path fill-rule="evenodd" clip-rule="evenodd" d="M6.22737 4.60007C5.76248 4.60007 5.30802 4.73793 4.92148 4.99622C4.53495 5.2545 4.23367 5.62162 4.05576 6.05113C3.87785 6.48065 3.8313 6.95328 3.92199 7.40926C4.01268 7.86523 4.23654 8.28407 4.56527 8.61281C4.894 8.94154 5.31286 9.16541 5.76882 9.25614C6.22477 9.34683 6.69739 9.30028 7.12688 9.12237C7.55642 8.94445 7.9235 8.64317 8.18182 8.25659C8.4401 7.87005 8.57792 7.41558 8.57792 6.95067C8.57792 6.32725 8.33031 5.72937 7.88948 5.28854C7.44868 4.84772 6.8508 4.60007 6.22737 4.60007Z" fill="#FDCB00"/>
<path fill-rule="evenodd" clip-rule="evenodd" d="M6.22734 14.7035C5.76244 14.7035 5.30798 14.8414 4.92145 15.0997C4.53491 15.358 4.23363 15.7251 4.05572 16.1546C3.87785 16.5841 3.83131 17.0567 3.92199 17.5127C4.01268 17.9686 4.23654 18.3875 4.56527 18.7162C4.894 19.0449 5.31282 19.2688 5.76878 19.3595C6.22473 19.4502 6.69735 19.4037 7.12684 19.2258C7.55634 19.0479 7.92346 18.7466 8.18174 18.36C8.44002 17.9735 8.57788 17.519 8.57788 17.0541C8.57788 16.7454 8.51708 16.4398 8.39895 16.1546C8.28086 15.8694 8.10771 15.6103 7.88944 15.392C7.67116 15.1737 7.41202 15.0006 7.12684 14.8825C6.84167 14.7643 6.53602 14.7035 6.22734 14.7035Z" fill="#FDCB00"/>
</svg>
