<svg width="24" height="24" viewBox="0 0 24 24" fill="none" xmlns="http://www.w3.org/2000/svg">
<path d="M16.7095 20.2852C16.4465 21.4079 15.4962 22.6169 14.3247 22.8534C13.6285 22.9948 12.6008 22.8357 11.9731 22.4976C10.2182 21.5538 10.6205 18.1567 10.8945 16.5168C11.1465 14.9917 11.5731 13.4976 12.0483 12.0323C13.4407 12.2666 14.822 12.6445 16.1371 13.1529C18.1373 13.922 20.6791 15.2481 20.8404 17.6661C21.0216 20.3581 18.8976 20.7648 16.7073 20.2874L16.7095 20.2852Z" fill="#FC5827"/>
<path d="M20.5268 7.31342C22.4563 7.92343 23.5437 9.43079 22.7237 11.4443C21.8175 13.6677 18.7785 13.2323 16.8667 12.8477C15.3196 12.5361 13.7813 12.0079 12.3181 11.4354C12.4839 10.1115 12.8154 8.7191 13.2773 7.4615C14.2034 4.93304 15.7373 2.35595 18.8713 3.33286C20.7876 3.92961 21.0086 5.56295 20.529 7.31342H20.5268Z" fill="white"/>
<path d="M8.3135 20.0022C7.52889 20.7714 6.75973 20.9592 5.69221 20.6719C3.80692 20.1636 3.17038 18.433 3.56159 16.6361C1.26299 16.0747 0.35459 14.3861 1.484 12.2069C2.71287 9.83532 6.03479 10.3304 8.1831 10.8807C8.57872 10.9824 11.1514 11.7781 11.273 11.977C11.3459 12.0941 11.0519 13.4667 10.9967 13.7142C10.59 15.5818 9.69045 18.6518 8.31129 20.0044L8.3135 20.0022Z" fill="#FC5827"/>
<path d="M11.5113 11.6034C9.86248 11.1371 8.21588 10.6022 6.63781 9.93474C4.48508 9.02414 2.80533 8.15553 3.3203 5.46131C3.69162 3.51855 5.24538 3.05883 7.00912 3.53623C7.61471 1.61115 9.01376 0.510472 11.0781 1.21331C13.6397 2.08413 12.8772 5.9807 12.4418 8.00303C12.181 9.21201 11.8207 10.4055 11.5113 11.6012V11.6034Z" fill="#FC5827"/>
</svg>
