<svg width="24" height="24" viewBox="0 0 24 24" fill="none" xmlns="http://www.w3.org/2000/svg">
<path d="M11.421 13.0526C11.421 13.0526 11.4056 12.9268 11.2951 12.8137C11.1844 12.6999 11.0387 12.6597 11.0387 12.6597C10.2778 12.4698 6.48397 11.7627 3.57601 13.4224C3.30349 13.5779 2.15093 14.3062 2.04158 15.4682C1.88738 16.4686 2.04628 17.8588 4.56665 19.3486C5.96825 21.7851 7.37434 22.1034 8.37865 21.9761C9.54269 21.8982 10.3011 20.7647 10.4642 20.4964C12.2008 17.6342 11.5905 13.818 11.421 13.0526ZM9.66862 14.322C8.4544 17.9399 5.50741 18.5513 5.50741 18.5513C7.7248 17.1452 9.66862 14.322 9.66862 14.322Z" fill="#A28556"/>
<path d="M13.5361 3.50392C11.7989 6.36608 12.41 10.1822 12.5794 10.9478C12.5794 10.9478 12.5947 11.0726 12.7051 11.1863C12.8156 11.3005 12.9616 11.3406 12.9616 11.3406C13.7223 11.5295 17.5158 12.2376 20.4243 10.5767C20.6963 10.4212 21.8488 9.69336 21.9585 8.53161C22.1123 7.53085 21.9542 6.14052 19.4331 4.65096C18.0314 2.21479 16.626 1.89605 15.6217 2.02375C14.4575 2.10179 13.6992 3.23453 13.5361 3.50392ZM14.3313 9.67719C15.5456 6.05966 18.4924 5.44816 18.4924 5.44816C16.2753 6.85467 14.3313 9.67719 14.3313 9.67719Z" fill="#A28556"/>
<path d="M12.8135 12.7052C12.7003 12.8156 12.6598 12.9619 12.6598 12.9619C12.4702 13.7223 11.7627 17.5161 13.4227 20.4234C13.5785 20.6967 14.3065 21.849 15.4685 21.9583C16.4687 22.1127 17.8593 21.9541 19.3484 19.4331C21.7851 18.0313 22.1038 16.626 21.976 15.6218C21.8979 14.4578 20.765 13.6987 20.4969 13.5361C17.6345 11.7991 13.8178 12.4095 13.0529 12.5794C13.0529 12.5794 12.9271 12.5944 12.8135 12.7052ZM18.5514 18.4924C17.145 16.2756 14.3223 14.3312 14.3223 14.3312C17.9405 15.5458 18.5514 18.4924 18.5514 18.4924Z" fill="#A28556"/>
<path d="M11.1868 11.2952C11.3004 11.1853 11.3402 11.0391 11.3402 11.0391C11.5302 10.2777 12.2376 6.48451 10.5778 3.57655C10.422 3.30351 9.69382 2.15105 8.5327 2.04129C7.53152 1.88782 6.1415 2.04567 4.65173 4.56708C2.21525 5.96848 1.89662 7.37436 2.02359 8.37909C2.10236 9.54313 3.2351 10.3007 3.50365 10.4642C6.36634 12.2015 10.1824 11.591 10.9476 11.4213C10.9476 11.4213 11.0735 11.4056 11.1868 11.2952ZM5.44904 5.50785C6.85503 7.72471 9.67807 9.66958 9.67807 9.66958C6.06033 8.45463 5.44904 5.50785 5.44904 5.50785Z" fill="#A28556"/>
</svg>
