<svg width="24" height="24" viewBox="0 0 24 24" fill="none" xmlns="http://www.w3.org/2000/svg">
<path d="M7.23965 2.36198C9.60814 1.83803 12.1151 1.89229 14.4715 2.46371C16.3379 2.93679 18.1264 3.82361 19.4803 5.1835C19.9634 5.68371 20.4291 6.2314 20.6525 6.89439C20.7581 7.22842 20.9468 7.52516 21.1597 7.80324C22.7941 10.0669 23.2841 13.0665 22.4981 15.7252C21.7311 18.4382 19.6431 20.7239 17.0062 21.8295C17.4425 20.902 17.6797 19.8964 17.6988 18.8757C15.8705 19.4641 13.8326 19.3013 12.1255 18.4348C13.1193 19.9677 14.5875 21.175 16.2548 21.9549C13.9279 22.2924 11.4434 22.0465 9.38826 20.8647C7.55821 19.8201 6.10041 18.1856 5.24339 16.2932C7.26908 18.9639 10.2366 21.292 13.7634 21.4327C11.7412 20.0168 10.1847 17.9957 9.24455 15.7489C8.42736 13.7837 8.29231 11.4794 9.22205 9.52769C9.98038 7.94737 11.2339 6.50778 12.9168 5.8431C14.8282 5.1072 17.0305 5.39715 18.8449 6.26022C17.6434 6.00079 16.4349 5.62267 15.1866 5.79562C13.3808 5.90414 11.7568 6.91304 10.6452 8.27463C11.1993 8.21358 11.8087 8.04402 12.3368 8.30854C12.8111 8.62393 13.1713 9.10379 13.7218 9.31065C14.778 9.76508 15.9449 9.49378 17.0287 9.29878C15.886 9.79391 14.5477 9.91938 13.3652 9.49039C12.8458 9.31065 12.4943 8.85792 11.9974 8.64427C11.407 8.53914 10.8201 8.75618 10.247 8.86979L9.92844 9.36491C10.5119 9.22248 11.1629 8.96135 11.755 9.21231C12.3021 9.53278 12.7765 10.0093 13.4327 10.1161C14.3157 10.3484 15.1918 9.9906 16.073 9.96347C15.0307 10.3653 13.8482 10.5637 12.7557 10.2382C12.2502 10.0873 11.8693 9.67182 11.3533 9.55143C10.7578 9.55143 10.2037 9.7973 9.64969 9.98212C9.56486 10.2246 9.47829 10.4654 9.39345 10.7078C9.96307 10.4603 10.5535 10.1347 11.1993 10.211C11.7152 10.3484 12.1273 10.7231 12.6484 10.852C13.7963 11.1758 15.0152 10.6604 16.0488 10.2449C15.0567 10.9418 13.7911 11.3047 12.5757 11.1589C12.013 11.0995 11.5576 10.7078 11.0019 10.6332C10.3665 10.6994 9.8159 11.0555 9.25494 11.3251C9.21859 11.7642 9.20473 12.2051 9.19608 12.6476C9.39691 12.3713 9.57697 12.0508 9.90766 11.9033C10.5708 11.5726 11.3308 11.7541 12.0407 11.7388C13.6232 11.732 15.0983 11.0402 16.3968 10.2093C15.6783 11.047 14.7122 11.8575 14.5356 12.9902C15.1277 13.5141 15.893 13.8482 16.4176 14.4603C18.1108 16.1593 18.4848 18.7434 17.9325 20.985C20.0638 19.6981 21.7068 17.5904 22.1968 15.1657C22.7751 12.4967 21.9787 9.68369 20.4256 7.46581C19.3782 7.7032 18.4554 8.27971 17.6122 8.91218C17.7143 8.7104 17.9186 8.30515 18.0191 8.10337C17.1672 8.79349 16.1025 9.1767 15.0065 9.26487C15.8566 9.01731 16.769 8.70871 17.3248 7.98807C17.5429 7.75576 17.5222 7.37594 17.2711 7.17586C16.7396 6.70448 16.009 6.56204 15.3458 6.35348C16.5647 6.05505 17.8321 6.19579 19.0336 6.49083L19.07 6.27209C19.1947 6.36366 19.3193 6.45691 19.444 6.55017C19.605 6.61291 19.9287 6.73669 20.0898 6.79774C18.4294 5.30219 16.2842 4.34925 14.0439 4.0966C10.524 3.67609 6.84836 4.85794 4.25652 7.22503C2.8749 8.46454 1.83955 10.0364 1.13489 11.7303C1.46038 7.88972 3.77174 4.21699 7.23965 2.36198ZM13.7115 13.5904C13.0328 14.1262 12.5324 14.8435 12.0909 15.5726C11.7827 16.1288 11.4659 16.746 11.5507 17.3988C11.684 17.5989 11.9195 17.6989 12.1221 17.821C13.8084 18.7112 15.8358 18.8265 17.6763 18.384C17.4581 16.3916 16.4002 14.3992 14.5667 13.4073C14.2811 13.1886 13.9504 13.4175 13.7115 13.5904Z" fill="white"/>
</svg>
