<svg width="24" height="24" viewBox="0 0 24 24" fill="none" xmlns="http://www.w3.org/2000/svg">
<g clip-path="url(#clip0_4_4300)">
<mask id="mask0_4_4300" style="mask-type:luminance" maskUnits="userSpaceOnUse" x="2" y="2" width="20" height="20">
<path d="M22 2H2V22H22V2Z" fill="white"/>
</mask>
<g mask="url(#mask0_4_4300)">
<path d="M19.1097 16.2663C16.5509 16.13 15.0084 14.5328 14.9692 12.0008C15.0079 9.44928 16.5317 7.87127 19.1097 7.73527C20.8089 7.63777 22.0197 6.39102 21.9807 4.79402C21.9224 3.25527 20.6724 2.02827 19.1292 2.00877C17.5472 2.00877 16.1799 3.17727 16.2387 4.81377C16.3169 6.80002 15.4377 7.96878 13.6802 8.63128C11.8639 9.31278 10.2234 8.92302 8.75865 7.73527C8.0359 7.15077 7.7624 6.37177 7.7429 5.45627C7.7624 4.91077 7.68415 4.36552 7.5279 3.83952C7.0399 2.47627 5.5949 1.73602 4.18865 2.08652C2.68465 2.45677 1.7274 3.99552 2.0789 5.51502C2.3719 6.78077 3.48515 7.67702 4.7744 7.71602C6.5124 7.81327 7.89915 8.49477 8.6999 10.0923C8.9984 10.6808 9.15395 11.3314 9.15395 11.9913C9.15395 12.6511 8.9984 13.3018 8.6999 13.8903C7.89915 15.4878 6.4929 16.1498 4.7744 16.2665C3.19215 16.3443 1.9619 17.6495 2.0009 19.227C2.0399 20.5125 2.9579 21.623 4.2079 21.915C5.6139 22.2655 7.05915 21.5058 7.5474 20.162C7.70365 19.6363 7.7624 19.0908 7.7624 18.5453C7.7819 17.63 8.0554 16.8313 8.77815 16.2665C10.2432 15.0783 11.8834 14.689 13.6997 15.3705C15.4574 16.0328 16.3362 17.2013 16.2579 19.188C16.1799 20.8243 17.5472 21.993 19.1292 21.993C20.6722 21.9735 21.9222 20.7465 21.9804 19.2075C22.0197 17.61 20.7892 16.3635 19.1097 16.2663Z" fill="url(#paint0_linear_4_4300)"/>
<path d="M11.9811 16.2659C10.3993 16.2854 9.12985 17.5901 9.14935 19.1679C9.16885 20.7454 10.4578 22.0116 12.0398 21.9921C13.6218 21.9729 14.8911 20.6679 14.8718 19.0901C14.8718 17.5124 13.5631 16.2464 11.9811 16.2659ZM4.8916 9.09836C3.28985 9.09836 2.0011 10.4031 2.0011 12.0004C2.0011 13.5979 3.2901 14.8829 4.8916 14.8829C6.4536 14.8829 7.72335 13.6169 7.72335 12.0394V11.9614C7.74285 10.4031 6.49285 9.11761 4.91085 9.09836H4.8916ZM22.0001 11.8836C21.9413 10.3256 20.6326 9.07861 19.0508 9.09836C17.4493 9.15686 16.1996 10.5009 16.2578 12.0979C16.2851 12.8291 16.5884 13.5229 17.1066 14.0397C17.6248 14.5564 18.3195 14.8577 19.0508 14.8829C19.8051 14.8943 20.5343 14.6122 21.0845 14.0963C21.6348 13.5803 21.963 12.8708 22.0001 12.1174V11.8836ZM11.9808 7.71536C13.5628 7.69586 14.8323 6.41036 14.8128 4.83261C14.7933 3.31361 13.5826 2.06686 12.0591 2.00836C10.4771 1.94986 9.1491 3.19661 9.0901 4.77411C9.0316 6.35211 10.2621 7.65686 11.8441 7.71536H11.9808Z" fill="white"/>
</g>
</g>
<defs>
<linearGradient id="paint0_linear_4_4300" x1="2.83365" y1="2.87027" x2="21.1024" y2="21.1885" gradientUnits="userSpaceOnUse">
<stop stop-color="#D6D6D6"/>
<stop offset="1" stop-color="white"/>
</linearGradient>
<clipPath id="clip0_4_4300">
<rect width="20" height="20" fill="white" transform="translate(2 2)"/>
</clipPath>
</defs>
</svg>
