<svg width="24" height="24" viewBox="0 0 24 24" fill="none" xmlns="http://www.w3.org/2000/svg">
<g clip-path="url(#clip0_4_4925)">
<path d="M12.3659 8.70199C12.3672 9.11666 12.431 9.52866 12.5546 9.92399C12.8362 9.45633 13.1984 9.04257 13.6242 8.70199C13.6239 8.12726 13.7984 7.56613 14.1242 7.09348C14.45 6.62082 14.9118 6.25913 15.4478 6.05666C15.5499 6.2725 15.7262 6.44415 15.9442 6.54015C16.1623 6.63615 16.4075 6.65006 16.6349 6.57932C16.9737 6.47466 17.2308 6.19266 17.3052 5.84332C17.5552 5.76337 17.7635 5.58733 17.8845 5.35372C18.0055 5.1201 18.0294 4.84791 17.951 4.59666C17.9127 4.47234 17.8503 4.35684 17.7674 4.25677C17.6845 4.1567 17.5827 4.07405 17.4679 4.01353C17.3531 3.95302 17.2275 3.91585 17.0984 3.90414C16.9692 3.89244 16.8391 3.90643 16.7153 3.94532C16.5894 3.82437 16.4327 3.74049 16.2625 3.70287C16.0922 3.66524 15.9149 3.67532 15.75 3.73199C15.5227 3.80548 15.3293 3.95844 15.2049 4.16302C15.0805 4.36761 15.0335 4.61021 15.0724 4.84666C14.2795 5.12979 13.5935 5.65249 13.1087 6.34288C12.6239 7.03326 12.3648 7.85742 12.3659 8.70199Z" fill="white"/>
<path d="M4.86177 8.702V3.25867H19.2101V8.702C19.2108 9.24298 19.0569 9.77282 18.7665 10.2286C18.4761 10.6844 18.0615 11.047 17.5718 11.2733C17.0832 11.4985 16.5402 11.5772 16.0081 11.5C15.4759 11.4227 14.9774 11.1929 14.5724 10.838C14.3034 11.1932 14.1368 11.6156 14.0907 12.0593C14.6964 12.4856 15.4073 12.7364 16.1455 12.7841C16.8838 12.8318 17.6209 12.6747 18.276 12.33C18.9328 11.9836 19.4828 11.4636 19.8665 10.8263C20.2502 10.189 20.453 9.45859 20.4531 8.714V2H3.60352V8.702C3.60617 9.11667 3.66995 9.52867 3.79152 9.924C4.0734 9.45652 4.43552 9.04281 4.8611 8.702H4.86177Z" fill="white"/>
<path d="M15.7403 17.2667C16.0765 17.382 16.4478 17.3 16.7056 17.054C16.8293 17.0929 16.9595 17.1069 17.0886 17.0952C17.2178 17.0835 17.3434 17.0463 17.4582 16.9858C17.573 16.9253 17.6747 16.8426 17.7576 16.7425C17.8405 16.6425 17.9029 16.527 17.9412 16.4027C18.0197 16.1514 17.9958 15.8792 17.8748 15.6456C17.7537 15.412 17.5455 15.2359 17.2955 15.156C17.259 14.9841 17.1771 14.8252 17.0585 14.6958C16.9399 14.5665 16.7889 14.4714 16.6212 14.4207C16.3938 14.3494 16.1485 14.3628 15.9302 14.4586C15.712 14.5544 15.5356 14.7261 15.4334 14.942C14.9191 14.7475 14.473 14.406 14.1501 13.9598C13.8271 13.5136 13.6416 12.9822 13.6164 12.4313C13.59 11.8802 13.7249 11.3333 14.0046 10.8583C14.2842 10.3832 14.6964 10.0007 15.1902 9.75799C15.683 9.51664 16.2357 9.4265 16.7793 9.49883C17.3229 9.57117 17.8331 9.80277 18.2462 10.1647C18.5155 9.80939 18.6824 9.38665 18.7285 8.94265C18.1228 8.51591 17.4117 8.26479 16.6732 8.21681C15.9347 8.16883 15.1973 8.32585 14.5418 8.67065C13.885 9.01726 13.335 9.53747 12.9514 10.175C12.5678 10.8126 12.3652 11.5432 12.3655 12.288C12.3673 13.1313 12.6263 13.9539 13.1078 14.6452C13.5893 15.3364 14.2701 15.8632 15.0587 16.1547C15.0207 16.3912 15.0686 16.6336 15.1937 16.8377C15.3188 17.0418 15.5128 17.194 15.7403 17.2667ZM11.7065 12.2847C11.7054 11.8704 11.642 11.4586 11.5184 11.0633C11.237 11.531 10.8748 11.9445 10.4489 12.2847C10.4488 12.8591 10.2742 13.4198 9.94837 13.8921C9.62256 14.3643 9.161 14.7257 8.62526 14.928C8.52321 14.7121 8.3469 14.5405 8.12876 14.4447C7.91063 14.3489 7.66536 14.3354 7.43809 14.4067C7.27063 14.4576 7.11979 14.5526 7.00123 14.6818C6.88267 14.811 6.80069 14.9696 6.76379 15.1413C6.51369 15.2211 6.30528 15.3971 6.18414 15.6307C6.063 15.8644 6.039 16.1366 6.1174 16.388C6.15564 16.5124 6.21801 16.6281 6.30092 16.7283C6.38384 16.8285 6.48566 16.9112 6.60054 16.9718C6.71542 17.0324 6.8411 17.0696 6.97035 17.0813C7.09961 17.093 7.22989 17.079 7.35372 17.04C7.61082 17.2867 7.98285 17.3693 8.31834 17.2533C8.54625 17.1808 8.74056 17.0284 8.86581 16.824C8.99106 16.6196 9.03891 16.3768 9.00061 16.14C9.79242 15.8553 10.4773 15.3322 10.9616 14.6421C11.4459 13.952 11.7061 13.1287 11.7065 12.2847ZM9.00061 4.84665C9.04234 4.6092 8.99597 4.36463 8.87027 4.15914C8.74456 3.95364 8.54823 3.80146 8.31834 3.73132C8.15283 3.68081 7.97714 3.6739 7.8082 3.71126C7.63926 3.74862 7.48274 3.829 7.35372 3.94465C7.18852 3.89261 7.01254 3.88529 6.84361 3.92346C6.67468 3.96162 6.51881 4.04391 6.39177 4.16199C6.26462 4.28047 6.17057 4.43027 6.11897 4.59652C6.06737 4.76276 6.06001 4.93966 6.09762 5.10964C6.13523 5.27963 6.21651 5.43678 6.33337 5.56548C6.45024 5.69419 6.59862 5.78997 6.76379 5.84332C6.80846 6.04448 6.9145 6.22668 7.06715 6.36455C7.21981 6.50243 7.41149 6.58913 7.61553 6.6126C7.81957 6.63607 8.02583 6.59513 8.20561 6.49549C8.38539 6.39585 8.52975 6.24246 8.61862 6.05665C9.1331 6.25113 9.57951 6.59264 9.90267 7.03897C10.2258 7.4853 10.4116 8.01687 10.4369 8.56799C10.4635 9.11908 10.3288 9.66594 10.0494 10.1411C9.76996 10.6163 9.35803 10.999 8.86442 11.242C8.37189 11.4836 7.8193 11.5741 7.27576 11.5023C6.73222 11.4304 6.22186 11.1994 5.80848 10.838C5.52933 11.1874 5.36129 11.6129 5.32617 12.0593C5.95981 12.5034 6.70714 12.7557 7.47941 12.7861C8.25168 12.8166 9.01644 12.6241 9.68288 12.2313C10.3511 11.8366 10.8933 11.259 11.2463 10.5662C11.5993 9.87337 11.7483 9.09401 11.6759 8.31932C11.6055 7.54494 11.3163 6.8068 10.8425 6.19157C10.3686 5.57633 9.72963 5.1102 9.00061 4.84665Z" fill="white"/>
<path fill-rule="evenodd" clip-rule="evenodd" d="M20.2801 11.0747C19.9982 11.542 19.6361 11.9555 19.2105 12.296V17.7394H4.86219V12.296C4.86144 11.755 5.01539 11.2252 5.30579 10.7694C5.59618 10.3136 6.01081 9.95104 6.50045 9.72469C6.98918 9.49971 7.53228 9.42123 8.06442 9.4987C8.59655 9.57617 9.09504 9.80628 9.49992 10.1614C9.76894 9.80622 9.93555 9.38373 9.98156 8.94003C9.37585 8.51235 8.66441 8.26046 7.92537 8.212C7.18633 8.16355 6.44828 8.32041 5.79226 8.66536C5.13487 9.01209 4.58451 9.53267 4.20078 10.1708C3.81705 10.8088 3.61456 11.5401 3.61524 12.2854V22H20.4674V12.296C20.4651 11.8818 20.4024 11.4703 20.2801 11.0747ZM6.68513 20.9207L6.67317 19.698L6.02677 20.9327H5.89723L5.23954 19.71L5.22625 20.9207H4.86219L4.92132 18.7734H5.0894L5.96499 20.3267L6.82331 18.7734H6.99205L7.05052 20.92H6.68513V20.9207ZM9.27205 20.9207H9.63611L9.63744 19.698C9.63744 19.046 9.29597 18.7494 8.7552 18.7494C8.20181 18.7494 7.88492 19.046 7.88492 19.698V20.9207H8.26027V20.41H9.27205V20.9207ZM11.0126 20.956C10.7673 20.9529 10.5274 20.8831 10.3184 20.754L10.4479 20.414C10.6187 20.53 10.8186 20.594 11.0246 20.6C11.2717 20.6 11.39 20.4814 11.39 20.3387C11.39 20.196 11.3049 20.1134 10.9309 19.9714C10.519 19.8174 10.3775 19.6147 10.3775 19.366C10.3775 19.046 10.6366 18.7494 11.0837 18.7494C11.2893 18.7455 11.4924 18.7946 11.6736 18.892L11.5554 19.224C11.4127 19.1385 11.2511 19.0897 11.085 19.082C10.8618 19.082 10.7562 19.2 10.7562 19.3547C10.7562 19.4967 10.8738 19.58 11.1681 19.6867C11.6384 19.876 11.7793 20.0547 11.7793 20.3387C11.7773 20.7187 11.4943 20.956 11.0126 20.956ZM12.3645 19.8507C12.3645 20.482 12.8349 20.956 13.5524 20.956H13.5537C13.8018 20.9613 14.0468 20.8991 14.2625 20.776L14.1443 20.456C13.9523 20.5494 13.7417 20.5974 13.5285 20.596C13.429 20.5997 13.3298 20.583 13.237 20.5471C13.1441 20.5111 13.0595 20.4565 12.9883 20.3867C12.9169 20.3166 12.8603 20.2328 12.8219 20.1402C12.7836 20.0477 12.7643 19.9483 12.7651 19.848C12.7651 19.4094 13.0701 19.1014 13.5643 19.1014C13.7563 19.1114 13.9443 19.1594 14.1171 19.2434L14.2466 18.9227C14.0189 18.8001 13.7635 18.7387 13.5052 18.7447C12.8821 18.7447 12.3645 19.234 12.3645 19.8507ZM15.8922 20.956C15.2451 20.956 14.7641 20.4814 14.7641 19.8507C14.7641 19.5514 14.8837 19.2654 15.0963 19.0574C15.3089 18.8487 15.5959 18.736 15.8922 18.7447C16.5518 18.7447 17.0215 19.2074 17.0215 19.8507C17.0215 20.4934 16.5399 20.956 15.8922 20.956ZM18.5156 19.1294H19.2092V18.7847H17.4328V19.1294H18.1389V20.9207H18.5156V19.1294Z" fill="white"/>
<path d="M8.75427 19.106C8.45997 19.094 8.24805 19.2714 8.24805 19.7014V20.116H9.25983V19.7134C9.25917 19.26 9.04724 19.106 8.75427 19.106ZM15.8919 19.082C15.6933 19.0854 15.5046 19.1687 15.3671 19.3134C15.2993 19.3853 15.2463 19.47 15.2113 19.5625C15.1763 19.6551 15.1599 19.7537 15.1631 19.8527C15.1538 20.1214 15.2907 20.3734 15.5205 20.5107C15.7497 20.6474 16.0347 20.6474 16.2639 20.5107C16.4931 20.3734 16.63 20.1214 16.6213 19.8527C16.6213 19.414 16.3157 19.082 15.8919 19.082Z" fill="white"/>
</g>
<defs>
<clipPath id="clip0_4_4925">
<rect width="17.7273" height="20" fill="white" transform="translate(3.15039 2)"/>
</clipPath>
</defs>
</svg>
