<svg width="24" height="24" viewBox="0 0 24 24" fill="none" xmlns="http://www.w3.org/2000/svg">
<g clip-path="url(#clip0_4_4320)">
<mask id="mask0_4_4320" style="mask-type:luminance" maskUnits="userSpaceOnUse" x="1" y="1" width="22" height="22">
<path d="M23 1H1V23H23V1Z" fill="white"/>
</mask>
<g mask="url(#mask0_4_4320)">
<path fill-rule="evenodd" clip-rule="evenodd" d="M17.8538 12.2274C17.8538 13.8126 17.303 15.1704 16.2005 16.2854C15.0983 17.4003 13.7725 17.9691 12.216 17.9691C10.6595 17.9691 9.32631 17.4079 8.22411 16.2854C7.34548 15.3903 6.81666 14.3361 6.63791 13.1377C6.59259 12.8339 6.57015 12.5271 6.57081 12.2199C6.57081 10.8243 6.99541 9.60824 7.84433 8.57168C7.96368 8.42744 8.09018 8.29104 8.21668 8.1544C9.31888 7.03187 10.6496 6.4706 12.2086 6.4706C13.7651 6.4706 15.0983 7.03187 16.1931 8.1544C17.3027 9.28476 17.8538 10.6347 17.8538 12.2274ZM18.3007 12.9405L23.0001 9.92919L17.8167 9.70177L21.101 5.30243L16.0069 7.61581L17.0868 3.14869L14.3088 5.68193L14.0483 1.27502L11.4413 6.03846L8.61873 1.94999L8.94653 6.80445L4.64938 3.77046L6.67503 8.43501L2.44499 7.47941L6.34723 11.0063L1.00757 11.9544L5.69933 13.6079L1.66289 15.8605L6.71216 15.4057L3.56204 19.5395L8.44768 17.097L7.71013 22.4139L10.4656 18.834L11.7691 22.4595L13.0875 18.9096L16.1856 22.725L15.6123 16.9225L20.0211 20.0249L17.9506 14.9506L22.4265 14.7912L18.3007 12.9405Z" fill="#FEE379"/>
<path fill-rule="evenodd" clip-rule="evenodd" d="M12.1342 13.9494C10.9405 13.9474 9.75104 13.8048 8.58947 13.5245C9.37872 14.8974 10.4339 15.6914 11.7544 15.9062C13.2889 15.9365 14.5548 15.1604 15.5527 13.5777C14.6293 13.8659 13.4894 13.995 12.1342 13.9494ZM14.7409 10.7714C14.6823 10.8149 14.6318 10.8688 14.5919 10.9305C14.4807 11.094 14.4162 11.2856 14.4057 11.4842C14.3982 11.532 14.3982 11.5807 14.4057 11.6284C14.4448 11.641 14.4846 11.6514 14.5251 11.6587H14.6219C14.6145 11.6058 14.6145 11.5522 14.6219 11.4993C14.6356 11.3016 14.7 11.1109 14.808 10.9456C14.8317 10.9101 14.8592 10.877 14.8897 10.847C14.8515 10.8033 14.7983 10.7762 14.7409 10.7714ZM8.64144 10.6348C8.66537 10.5992 8.69287 10.5661 8.72339 10.5362C8.68327 10.4949 8.63085 10.4683 8.57434 10.4605C8.51593 10.5011 8.46547 10.5524 8.42557 10.6118C8.3143 10.7753 8.24987 10.9671 8.23939 11.1658V11.31C8.27817 11.3226 8.31804 11.3327 8.35847 11.3402H8.45527V11.1884C8.46077 10.989 8.52567 10.7958 8.64144 10.6348ZM10.3841 11.4464C10.2947 11.0672 10.3841 10.7107 10.6371 10.3768C11.0991 9.89143 11.5905 9.62622 12.0971 9.58057C11.2033 9.89143 10.6819 10.339 10.5406 10.9229C10.4289 11.3251 10.5257 11.6511 10.8458 11.8864C11.0213 12.0032 11.2248 12.0688 11.4343 12.076H12.1342C12.1939 12.076 12.2236 12.0984 12.231 12.1516V12.4476H12.1342V12.2883C12.1342 12.2199 12.0897 12.167 12.0003 12.1519H11.3224C11.2982 12.158 11.2731 12.1604 11.2482 12.1592C11.1305 12.1546 11.0145 12.129 10.9055 12.0835C10.6223 11.9091 10.4435 11.6968 10.3841 11.4464ZM8.51494 9.45146C8.86474 9.36827 9.15542 9.4439 9.37872 9.68672C9.58744 9.89899 9.69167 10.2102 9.69167 10.6196C9.58717 9.91412 9.24479 9.58057 8.65657 9.61838C8.22427 9.67916 7.91132 9.89899 7.73284 10.2709C7.86704 9.83852 8.12747 9.56517 8.51494 9.45146ZM15.5604 10.0278C15.7689 10.2404 15.8728 10.5516 15.8728 10.961C15.7686 10.2555 15.4262 9.92196 14.8377 9.95977C14.406 10.0205 14.093 10.2326 13.9069 10.6121C14.0408 10.1796 14.3015 9.90656 14.6887 9.79284C15.0462 9.70185 15.3366 9.78501 15.5604 10.0278ZM8.97639 10.635C9.06054 10.8224 9.09134 11.0299 9.06577 11.2344C9.05185 11.4382 8.99058 11.6358 8.88702 11.8108C8.84192 11.8948 8.77152 11.9612 8.68572 12.0004C8.65739 12.0206 8.62351 12.0312 8.58892 12.0306C8.586 12.0335 8.58248 12.0356 8.57863 12.037C8.57478 12.0382 8.57068 12.0387 8.56664 12.0382C8.55383 12.0393 8.54093 12.0367 8.52952 12.0306C8.40302 12.0155 8.29852 11.932 8.22427 11.7651C8.19127 11.687 8.16652 11.6055 8.14974 11.5226C8.13324 11.4045 8.12818 11.2851 8.13462 11.166C8.14768 10.9609 8.21175 10.7624 8.32079 10.5894C8.36067 10.5278 8.41127 10.4737 8.46984 10.4303C8.52979 10.3911 8.59964 10.3698 8.67087 10.3695C8.68599 10.3771 8.69342 10.3771 8.70827 10.3846C8.74429 10.3931 8.77949 10.4057 8.81249 10.4227C8.83147 10.4359 8.84879 10.451 8.86474 10.4681C8.91039 10.5174 8.94807 10.5737 8.97639 10.635ZM14.3086 11.4696C14.3227 11.2646 14.3867 11.0663 14.4948 10.8927C14.5328 10.8316 14.5836 10.7795 14.6439 10.7412C14.7022 10.6986 14.7731 10.6773 14.8449 10.6807C14.8564 10.6868 14.8694 10.6894 14.8823 10.6882C14.9183 10.6961 14.9535 10.709 14.9862 10.7261C15.0014 10.7412 15.0236 10.7563 15.0385 10.7717C15.0874 10.821 15.1257 10.8807 15.1504 10.9459C15.2346 11.1336 15.2654 11.3408 15.2395 11.5453C15.2243 11.7488 15.1631 11.9461 15.0608 12.1216C15.0098 12.1985 14.9408 12.2611 14.86 12.3037C14.8316 12.324 14.7976 12.3346 14.7629 12.3339C14.7601 12.3368 14.7565 12.339 14.7527 12.3404C14.7488 12.3418 14.7447 12.3422 14.7407 12.3418C14.7302 12.3429 14.7196 12.3401 14.711 12.3339C14.5845 12.3266 14.48 12.2353 14.398 12.0687C14.3654 11.9905 14.3405 11.9091 14.3238 11.8259C14.3074 11.7078 14.3023 11.5887 14.3086 11.4696ZM15.7312 13.4413C15.7384 13.4582 15.7485 13.4737 15.7609 13.487C15.8717 13.673 15.9988 13.848 16.1407 14.0104C15.9606 13.9106 15.8073 13.7673 15.6941 13.5931C14.5248 15.3755 13.199 16.2149 11.717 16.1112C10.4212 15.9522 9.31134 15.0722 8.39532 13.4567C8.22284 13.6177 8.02024 13.7415 7.79967 13.8208C7.99563 13.6825 8.17774 13.5249 8.34334 13.3503L8.36562 13.3279C8.52184 13.1509 8.65918 12.9575 8.77537 12.751C8.7287 12.9707 8.63162 13.1761 8.49212 13.3503C9.84017 13.5931 10.9946 13.7298 11.9626 13.7525C13.0351 13.8205 14.2567 13.7222 15.6193 13.4567C15.5256 13.2549 15.4749 13.0352 15.4705 12.812C15.5291 13.0327 15.6168 13.2442 15.7312 13.4413ZM16.2004 16.2857C17.3026 15.1632 17.8537 13.8105 17.8537 12.2278C17.8537 10.6454 17.3026 9.28984 16.2004 8.16229C15.0982 7.03976 13.7699 6.47852 12.2159 6.47852C10.6619 6.47852 9.33114 7.03976 8.22399 8.16229C8.09392 8.29561 7.96962 8.43481 7.85164 8.5796C7.00272 9.61866 6.57839 10.8347 6.57839 12.2278C6.57757 12.535 6.60039 12.842 6.64522 13.1456C6.81654 14.3443 7.34537 15.3931 8.23169 16.2936C9.33362 17.4158 10.6643 17.9771 12.2233 17.9771C13.7727 17.9695 15.0982 17.406 16.2004 16.2857Z" fill="white"/>
<path fill-rule="evenodd" clip-rule="evenodd" d="M8.58853 13.5242C9.75007 13.805 10.9397 13.9476 12.1336 13.9491C13.4893 13.9869 14.6286 13.8656 15.5595 13.5774C14.5613 15.1551 13.2954 15.9365 11.7612 15.9059C10.4357 15.6934 9.38548 14.8971 8.58853 13.5242ZM15.7531 13.4864C15.7457 13.4713 15.7308 13.4559 15.7234 13.441C15.6134 13.2444 15.526 13.0358 15.4627 12.819C15.4671 13.0422 15.5177 13.2618 15.6118 13.4637C14.2489 13.7368 13.0273 13.8354 11.9548 13.7595C10.9868 13.7368 9.82493 13.6001 8.4843 13.3576C8.62381 13.1834 8.72089 12.978 8.76755 12.7582C8.65062 12.9641 8.51332 13.1572 8.3578 13.3346L8.33525 13.3573C8.16778 13.5298 7.98598 13.6872 7.79185 13.8278C8.0124 13.7485 8.215 13.6246 8.3875 13.4637C9.30353 15.0716 10.4107 15.9564 11.7092 16.1185C13.1915 16.2246 14.517 15.3853 15.686 13.6001C15.7993 13.7743 15.9527 13.9176 16.1329 14.0174C15.9984 13.8464 15.8717 13.6692 15.7531 13.4864ZM14.5912 10.9302C14.6292 10.8669 14.6798 10.8126 14.7403 10.7711C14.7995 10.7771 14.8548 10.8038 14.8968 10.8467C14.8742 10.8697 14.8445 10.9075 14.8148 10.9453C14.7036 11.1088 14.6391 11.3005 14.6286 11.499C14.6212 11.5523 14.6212 11.6055 14.6286 11.6587H14.5318C14.4912 11.6521 14.4513 11.6418 14.4125 11.6282C14.405 11.5804 14.405 11.5317 14.4125 11.4839C14.4171 11.2854 14.4793 11.0928 14.5912 10.9302ZM14.4944 10.8848C14.3895 11.0598 14.3258 11.257 14.3083 11.4612C14.3017 11.5828 14.3069 11.7049 14.3231 11.8253C14.3369 11.9093 14.3616 11.9911 14.3976 12.0681C14.4796 12.2348 14.5764 12.3258 14.7106 12.3336C14.7193 12.3397 14.7298 12.3424 14.7403 12.3412C14.7443 12.3417 14.7484 12.3413 14.7523 12.34C14.7561 12.3387 14.7596 12.3365 14.7626 12.3336C14.797 12.333 14.8306 12.3223 14.8594 12.3028C14.9405 12.2605 15.0095 12.1981 15.0604 12.1211C15.1695 11.9487 15.2312 11.7496 15.2391 11.5447C15.2649 11.3403 15.2341 11.1327 15.15 10.9453C15.1233 10.8809 15.0854 10.8219 15.0381 10.7711C15.0192 10.7578 15.0016 10.7425 14.9859 10.7255C14.9544 10.7051 14.9189 10.6922 14.8819 10.6877C14.8696 10.6844 14.8571 10.6819 14.8445 10.6801C14.7723 10.6731 14.7003 10.6947 14.6435 10.7406C14.5852 10.7784 14.5346 10.8274 14.4944 10.8848ZM8.7153 10.5283C8.69303 10.551 8.66305 10.5891 8.63335 10.6269C8.52206 10.7903 8.4576 10.982 8.44718 11.1806V11.3324H8.35038C8.30984 11.3258 8.27 11.3155 8.2313 11.3016V11.1579C8.24522 10.96 8.30938 10.7692 8.41748 10.6042C8.45515 10.5426 8.50603 10.4911 8.56625 10.4524C8.6218 10.4636 8.6735 10.4899 8.7153 10.5283ZM9.05795 11.2262C9.08353 11.0218 9.05245 10.8145 8.96858 10.6269C8.94193 10.5623 8.90401 10.5032 8.85665 10.4524C8.8418 10.4373 8.81953 10.4222 8.8044 10.407C8.77297 10.3866 8.73744 10.3736 8.70045 10.369C8.69303 10.3614 8.67818 10.3614 8.66305 10.3538C8.59133 10.3505 8.5206 10.372 8.4623 10.4146C8.40348 10.4581 8.35288 10.5121 8.31298 10.574C8.20804 10.7489 8.14429 10.9462 8.1268 11.1503C8.12031 11.2694 8.12529 11.3888 8.14165 11.5069C8.1587 11.5901 8.18373 11.6713 8.21618 11.7494C8.2907 11.9163 8.39493 12.0071 8.52143 12.0149C8.5327 12.0219 8.54618 12.0245 8.55883 12.0225C8.5629 12.023 8.56702 12.0225 8.5709 12.0212C8.57481 12.0199 8.57838 12.0178 8.58138 12.0149C8.61581 12.0144 8.64939 12.0039 8.67818 11.9847C8.76068 11.9413 8.83025 11.8755 8.87893 11.7951C8.99113 11.627 9.05328 11.4293 9.05768 11.226L9.05795 11.2262ZM15.865 10.9607C15.865 10.551 15.7605 10.2398 15.5521 10.0278C15.3288 9.78499 15.0381 9.70909 14.688 9.79256C14.3008 9.90654 14.0401 10.1793 13.9062 10.6118C14.0924 10.2401 14.3976 10.0203 14.8371 9.95948C15.4182 9.92167 15.768 10.2552 15.865 10.9607ZM9.37805 9.68643C9.15475 9.44361 8.86435 9.36798 8.51428 9.45117C8.1169 9.56516 7.8562 9.83821 7.73218 10.2704C7.91093 9.89871 8.2236 9.67887 8.65563 9.6181C9.2367 9.58028 9.58678 9.91383 9.691 10.6193C9.691 10.2096 9.5865 9.89871 9.37805 9.68643ZM10.6367 10.3768C10.3837 10.7101 10.2941 11.0669 10.3837 11.4461C10.4431 11.6965 10.6219 11.9085 10.9197 12.0757C11.0276 12.1247 11.1442 12.1505 11.2624 12.1513C11.2873 12.1526 11.3123 12.15 11.3366 12.1438H12.0145C12.0484 12.1486 12.0798 12.1645 12.104 12.1892C12.1281 12.2138 12.1438 12.2459 12.1484 12.2804V12.4398H12.2455V12.1438C12.2381 12.0984 12.2081 12.0757 12.1487 12.0681H11.4485C11.2388 12.062 11.035 11.9964 10.86 11.8785C10.5399 11.6433 10.4357 11.3173 10.5548 10.9151C10.6964 10.3311 11.2101 9.88358 12.1113 9.57272C11.5899 9.6335 11.1059 9.89898 10.6367 10.3768Z" fill="black"/>
<path d="M6.66775 8.43501L2.43715 7.47941L6.3394 11.0063L1 11.9544L5.69205 13.6079L1.65532 15.8605L6.70488 15.4054L3.5619 19.5392L8.44755 17.097L7.71027 22.4139L10.4658 18.834L11.7693 22.4595L13.0873 18.9096L16.1855 22.7248L15.6121 16.9225L20.0209 20.0246L17.9507 14.9503L22.4264 14.7912L18.3005 12.9254L23 9.92919L17.8163 9.70177L21.1011 5.30243L16.0068 7.61581L17.0867 3.14813L14.3086 5.68165L14.0479 1.27502L11.4418 6.03816L8.61888 1.94999L8.94667 6.80417L4.64925 3.77046L6.66775 8.43501ZM17.8537 12.2274C17.8537 13.8126 17.3025 15.1704 16.2003 16.2854C15.0981 17.4001 13.7727 17.9691 12.2159 17.9691C10.6594 17.9691 9.32645 17.4079 8.22397 16.2854C7.34535 15.3903 6.81652 14.3361 6.63777 13.1377C6.59237 12.8339 6.56993 12.5271 6.57068 12.2199C6.57068 10.8243 6.99528 9.60824 7.8442 8.57168C7.96355 8.42744 8.09005 8.29104 8.21655 8.1544C9.31875 7.03187 10.6495 6.4706 12.2085 6.4706C13.765 6.4706 15.0982 7.03215 16.1932 8.1544C17.3026 9.28476 17.8537 10.6347 17.8537 12.2274Z" stroke="black" stroke-width="0.275" stroke-linecap="round" stroke-linejoin="round"/>
</g>
</g>
<defs>
<clipPath id="clip0_4_4320">
<rect width="22" height="22" fill="white" transform="translate(1 1)"/>
</clipPath>
</defs>
</svg>
