<svg width="24" height="24" viewBox="0 0 24 24" fill="none" xmlns="http://www.w3.org/2000/svg">
<path d="M11.985 1.20001C6.02706 1.20001 1.20117 6.04908 1.20117 12.0309C1.20117 13.1041 1.36005 14.1574 1.6778 15.1709C1.8764 14.8927 2.075 14.6145 2.25373 14.3164C3.0084 13.2035 3.7432 12.0906 4.47801 10.9578L5.01422 10.1032C5.19296 9.825 5.3717 9.5269 5.53057 9.24868C5.88805 8.67235 6.22566 8.09603 6.54341 7.5197C6.70229 7.22161 6.86117 6.94338 7.0399 6.64528C7.21864 6.34718 7.35766 6.06896 7.51654 5.77086C7.67541 5.47276 7.83429 5.17466 7.97331 4.89644L8.41022 4.00214L8.44994 3.94252C8.68825 3.46556 9.26418 3.26683 9.76067 3.48544C10.1181 3.68417 10.3366 4.06176 10.3167 4.4791C10.3167 4.9958 10.2174 5.53238 10.1777 6.02921C10.138 6.52604 10.1181 7.08249 10.0784 7.61907C10.0387 8.67235 10.0188 9.74551 10.0188 10.7988C10.0188 11.8521 10.0784 12.9054 10.1777 13.9189C10.2373 14.4157 10.3167 14.9126 10.416 15.4094C10.4955 15.8466 10.6345 16.2838 10.8331 16.6813C10.8927 16.8005 10.9721 16.9198 11.0714 17.0191C11.131 17.0589 11.0913 17.039 11.131 17.039H11.1707L11.2104 17.0191H11.2303L11.2899 16.9992C11.3097 16.9794 11.3494 16.9595 11.3693 16.9396C11.5282 16.8204 11.6672 16.6813 11.8062 16.5223C12.124 16.1447 12.4219 15.7671 12.68 15.3498C12.9581 14.9324 13.2163 14.4753 13.4744 14.0183C13.9908 13.1041 14.4674 12.17 14.9242 11.2161C15.1426 10.7392 15.3809 10.2622 15.5994 9.76538C15.8179 9.28842 16.0363 8.79159 16.2349 8.31463C16.4335 7.8178 17.0094 7.57932 17.5059 7.77806C17.8237 7.8973 18.0421 8.17552 18.1017 8.51337C18.1017 8.63261 18.1216 8.79159 18.1414 8.95058L18.201 9.40766C18.2407 9.70576 18.2805 10.0039 18.34 10.302C18.4393 10.8982 18.5585 11.4944 18.7174 12.0707C18.8762 12.647 19.0748 13.2233 19.3132 13.7798C19.5515 14.3362 19.8494 14.8529 20.2267 15.3299C20.3061 15.4491 20.2863 15.6081 20.187 15.6876C20.0877 15.7671 19.9487 15.7671 19.8692 15.6876C19.3727 15.2504 18.9358 14.7536 18.5585 14.217C18.1812 13.6804 17.8634 13.1041 17.5655 12.5278C17.3669 12.1303 17.208 11.7328 17.0293 11.3354C16.9101 11.5738 16.8108 11.8123 16.6917 12.0309C16.2151 13.0047 15.7384 13.9785 15.1824 14.9523C14.9043 15.469 14.6263 15.946 14.3085 16.4229C13.9908 16.9198 13.6333 17.3967 13.256 17.8339C13.0375 18.0923 12.7793 18.3109 12.5212 18.5295C12.4417 18.5891 12.3623 18.6487 12.263 18.6885L12.0843 18.7878L11.985 18.8276H11.9651L11.9055 18.8475H11.8658L11.7864 18.8673C11.7268 18.8872 11.6871 18.9071 11.6275 18.9071C11.5083 18.9269 11.3892 18.9468 11.27 18.9667C11.0118 18.9866 10.7338 18.9468 10.4955 18.8673C10.2572 18.7878 10.0387 18.6487 9.84011 18.4897C9.54222 18.2314 9.28404 17.9134 9.10531 17.5557C8.82727 16.9992 8.62867 16.403 8.50952 15.787C8.39036 15.2305 8.31092 14.6542 8.25134 14.0978C8.13218 12.9848 8.09247 11.8918 8.07261 10.7789V9.2288C7.87401 9.6064 7.67541 9.98399 7.47682 10.3417C7.31794 10.6398 7.15906 10.9379 6.98033 11.236L6.48383 12.1303C5.80861 13.3227 5.11352 14.4952 4.37871 15.6677C3.92194 16.4229 3.44531 17.1781 2.96868 17.9134C6.22566 22.9215 12.9382 24.2927 17.923 21.0335C22.9077 17.7743 24.2979 11.0571 21.0409 6.06896C19.0351 3.02835 15.659 1.20001 11.985 1.20001Z" fill="url(#paint0_linear_4_4909)"/>
<defs>
<linearGradient id="paint0_linear_4_4909" x1="-0.48781" y1="14.9925" x2="86.7392" y2="-6.0069" gradientUnits="userSpaceOnUse">
<stop stop-color="#21E418"/>
<stop offset="0.3" stop-color="#31B6E9"/>
<stop offset="0.976" stop-color="#21E418"/>
</linearGradient>
</defs>
</svg>
