<svg width="24" height="24" viewBox="0 0 24 24" fill="none" xmlns="http://www.w3.org/2000/svg">
<g clip-path="url(#clip0_4_4899)">
<path d="M4.4707 5.09485C4.4707 2.7278 7.02582 1.23808 9.08496 2.40637L19.4336 8.27747C21.5208 9.46099 21.5208 12.468 19.4336 13.6515L18.3906 14.2423V10.8195C18.3904 8.0221 15.4365 8.00989 15.4365 8.00989C13.9017 8.01011 12.8278 9.12413 12.8193 9.13293C12.8193 9.13293 12.1205 8.00989 10.54 8.00989C8.97385 8.00991 8.30774 8.87712 8.2959 8.8927V8.17102H6.28711V16.0314H8.45215V11.2267C8.45204 11.2009 8.45404 9.93782 9.88867 9.93762C11.3384 9.93762 11.3389 11.0607 11.3389 11.0607V16.0314H13.5059L13.501 10.9825C13.501 9.90647 14.8623 9.93762 14.8623 9.93762C16.2877 9.93777 16.3105 11.1407 16.3105 11.1407V15.423L9.08496 19.5216C7.02502 20.6899 4.4707 19.202 4.4707 16.8341V5.09485Z" fill="white"/>
<path d="M11.6992 20.2094C10.3054 21.6666 8.01491 21.3811 6.94531 19.8637C7.63659 20.0069 8.38896 19.9166 9.08496 19.5219L16.2402 15.4623L11.6992 20.2094ZM4.62988 4.1059C4.52749 4.41247 4.4707 4.74421 4.4707 5.09515V12.1723L3.13379 7.71722C2.6836 6.21721 3.41509 4.7649 4.62988 4.1059ZM18.3799 6.46527C19.9988 6.83498 20.9097 8.32754 20.7686 9.78656C20.5219 9.18153 20.0774 8.64286 19.4336 8.27777L14.7959 5.64691L18.3799 6.46527Z" fill="white" fill-opacity="0.6"/>
</g>
<defs>
<clipPath id="clip0_4_4899">
<rect width="17.9994" height="19.1646" fill="white" transform="translate(3 2.00012)"/>
</clipPath>
</defs>
</svg>
