<svg width="24" height="24" viewBox="0 0 24 24" fill="none" xmlns="http://www.w3.org/2000/svg">
<path d="M2.00189 5.31159C2.79382 5.31159 3.58574 5.31023 4.37699 5.31159C5.34444 6.81584 6.31189 8.32009 7.27867 9.82501C8.02977 11.0315 8.77815 12.2394 9.52926 13.4459C9.52926 10.7345 9.52858 8.02303 9.52994 5.31091C10.4198 5.31091 11.3097 5.31023 12.1996 5.31091V18.5981C11.4002 18.6015 10.6001 18.5941 9.80071 18.6022C8.05766 15.8975 6.32822 13.1834 4.64028 10.4448C4.63824 13.1624 4.64096 15.8806 4.63892 18.5988C3.75991 18.5988 2.8809 18.5995 2.00189 18.5988L2.00189 5.31159Z" fill="white"/>
<path d="M13.4619 1.17419C13.6708 1.17419 13.8803 1.17419 14.0899 1.17419C14.0933 2.55258 14.0899 3.93164 14.0919 5.31003C16.7283 5.31003 19.3639 5.30936 22.0003 5.31003C22.0009 6.15723 22.0003 7.00375 22.0003 7.85028C19.9722 7.85231 17.944 7.85028 15.9159 7.85163C15.9159 8.78341 15.9159 9.71452 15.9159 10.6463C17.6501 10.6477 19.385 10.6456 21.1199 10.6477C21.1199 11.4928 21.1199 12.338 21.1199 13.1838C19.385 13.1852 17.6501 13.1832 15.9152 13.1852C15.9152 14.1488 15.9152 15.1124 15.9152 16.0759C17.9434 16.0793 19.9722 16.0753 22.0003 16.078C22.0009 16.9177 22.0003 17.7575 22.0003 18.5972C19.3646 18.5986 16.7283 18.5972 14.0919 18.5972C14.0892 19.9756 14.0933 21.3547 14.0899 22.7331C13.8817 22.7331 13.6735 22.7331 13.4653 22.7351C13.4565 15.5475 13.4639 8.36049 13.4619 1.17284V1.17419Z" fill="#4EB300"/>
</svg>
