<svg width="24" height="24" viewBox="0 0 24 24" fill="none" xmlns="http://www.w3.org/2000/svg">
<path d="M17.6321 11.6194L21.9986 16.0401L17.6321 20.4607L13.2656 16.0401L17.6321 11.6194Z" fill="#39FF68"/>
<path d="M17.6321 16.0401H21.9986L17.6321 20.4608L13.2656 16.0401H17.6321Z" fill="#00CC6A"/>
<path d="M17.6321 11.6194V16.0401V20.4607L13.2656 16.0401L17.6321 11.6194Z" fill="#00CC6A"/>
<path d="M15.5836 16.0401H17.6321V20.4608L13.2656 16.0401H15.5836Z" fill="#009950"/>
<path d="M16.5566 16.0401C16.5566 16.0401 16.8799 15.9322 17.2036 15.6089C17.5269 15.2856 17.6348 14.9619 17.6348 14.9619C17.6348 14.9619 17.7561 15.2986 18.066 15.6089C18.3758 15.9187 18.713 16.0401 18.713 16.0401C18.713 16.0401 18.3897 16.1219 18.066 16.4712C17.7427 16.821 17.6348 17.1182 17.6348 17.1182C17.6348 17.1182 17.5806 16.9024 17.2573 16.5254C16.934 16.148 16.5566 16.0401 16.5566 16.0401Z" fill="white"/>
<path d="M17.6343 13.1284L20.546 16.0401L17.6343 18.9517L14.7227 16.0401L17.6343 13.1284ZM17.6343 14.2082L15.8025 16.0401L17.6343 17.8719L19.4662 16.0401L17.6343 14.2082Z" fill="black"/>
<path d="M6.36649 11.6194L10.733 16.0401L6.36649 20.4607L2 16.0401L6.36649 11.6194Z" fill="#39FF68"/>
<path d="M6.36649 16.0401H10.733L6.36649 20.4608L2 16.0401H6.36649Z" fill="#00CC6A"/>
<path d="M6.36649 11.6194V16.0401V20.4607L2 16.0401L6.36649 11.6194Z" fill="#00CC6A"/>
<path d="M4.31802 16.0401H6.36649V20.4608L2 16.0401H4.31802Z" fill="#009950"/>
<path d="M5.28906 16.0401C5.28906 16.0401 5.61235 15.9322 5.93605 15.6089C6.25976 15.2856 6.36725 14.9619 6.36725 14.9619C6.36725 14.9619 6.48858 15.2986 6.79844 15.6089C7.1083 15.9187 7.44543 16.0401 7.44543 16.0401C7.44543 16.0401 7.12214 16.1219 6.79844 16.4713C6.47515 16.821 6.36725 17.1183 6.36725 17.1183C6.36725 17.1183 6.31309 16.9025 5.9898 16.5254C5.66651 16.148 5.28906 16.0401 5.28906 16.0401Z" fill="white"/>
<path d="M6.36675 13.1284L9.27842 16.0401L6.36675 18.9517L3.45508 16.0401L6.36675 13.1284ZM6.36675 14.2082L4.53489 16.0401L6.36675 17.8719L8.19861 16.0401L6.36675 14.2082Z" fill="black"/>
<path d="M11.9998 17.2539L15.2531 20.5475H11.9998H8.74609L11.9998 17.2539Z" fill="#39FF68"/>
<path d="M11.9998 17.2539V20.5475H8.74609L11.9998 17.2539Z" fill="#009950"/>
<path d="M12.0017 3.44998L17.7066 9.22528L12.0017 15.0002L6.29688 9.22487L12.0017 3.44998Z" fill="#39FF68"/>
<path d="M12.0017 9.22482H17.7066L12.0017 15.0001L6.29688 9.22482H12.0017Z" fill="#00CC6A"/>
<path d="M12.0017 3.44998V9.22528V15.0006L6.29688 9.22487L12.0017 3.44998Z" fill="#00CC6A"/>
<path d="M9.3254 9.22482H12.0017V15.0001L6.29688 9.22482H9.3254Z" fill="#009950"/>
<path d="M10.5918 9.22488C10.5918 9.22488 11.0144 9.084 11.4371 8.66135C11.8597 8.23871 12.0006 7.81607 12.0006 7.81607C12.0006 7.81607 12.159 8.25622 12.5641 8.66135C12.9689 9.06649 13.4094 9.22488 13.4094 9.22488C13.4094 9.22488 12.9868 9.33156 12.5641 9.7884C12.1415 10.2452 12.0006 10.6337 12.0006 10.6337C12.0006 10.6337 11.9302 10.3519 11.5075 9.85884C11.0849 9.36576 10.5918 9.22488 10.5918 9.22488Z" fill="white"/>
<path d="M11.9998 5.58633L15.6383 9.22481L11.9998 12.8633L8.36133 9.22481L11.9998 5.58633ZM11.9998 6.66615L9.44114 9.22481L11.9998 11.7835L14.5585 9.22481L11.9998 6.66615Z" fill="black"/>
</svg>
