<svg width="24" height="24" viewBox="0 0 24 24" fill="none" xmlns="http://www.w3.org/2000/svg">
<path d="M21.999 16.0403L17.6318 20.4603L13.2656 16.0403L17.6318 11.6194L21.999 16.0403ZM14.7227 16.0403L17.6348 18.9515L20.5459 16.0403L17.6348 13.1282L14.7227 16.0403ZM19.4658 16.0403L17.6348 17.8724L15.8027 16.0403L17.6348 14.2083L19.4658 16.0403ZM17.6348 14.9622C17.631 14.9732 17.5215 15.2911 17.2041 15.6087C16.8804 15.932 16.5566 16.0403 16.5566 16.0403C16.5623 16.042 16.937 16.1511 17.2578 16.5257C17.5808 16.9025 17.6348 17.1185 17.6348 17.1185C17.6348 17.1185 17.7431 16.8208 18.0664 16.471C18.3857 16.1266 18.7044 16.0425 18.7129 16.0403C18.7093 16.039 18.3746 15.9168 18.0664 15.6087C17.7614 15.3033 17.6385 14.9726 17.6348 14.9622Z" fill="white"/>
<path d="M10.7334 16.0403L6.36621 20.4603L2 16.0403L6.36621 11.6194L10.7334 16.0403ZM3.45508 16.0403L6.36719 18.9515L9.27832 16.0403L6.36719 13.1282L3.45508 16.0403ZM8.19824 16.0403L6.36719 17.8724L4.53516 16.0403L6.36719 14.2083L8.19824 16.0403ZM6.36719 14.9622C6.36348 14.9732 6.25433 15.2911 5.93652 15.6087C5.61282 15.932 5.28906 16.0403 5.28906 16.0403C5.29473 16.042 5.6694 16.1511 5.99023 16.5257C6.31325 16.9025 6.36719 17.1185 6.36719 17.1185C6.36719 17.1185 6.47554 16.8208 6.79883 16.471C7.11808 16.1266 7.43682 16.0425 7.44531 16.0403C7.44169 16.039 7.10698 15.9168 6.79883 15.6087C6.49386 15.3033 6.37097 14.9726 6.36719 14.9622Z" fill="white"/>
<path d="M11.9998 17.2539L15.2531 20.5475H11.9998H8.74609L11.9998 17.2539Z" fill="white"/>
<path d="M17.707 9.22539L12.002 14.9998L6.29688 9.22441L12.002 3.45L17.707 9.22539ZM8.36133 9.22441L12 12.8631L15.6387 9.22441L12 5.58672L8.36133 9.22441ZM14.5586 9.22441L12 11.783L9.44141 9.22441L12 6.66582L14.5586 9.22441ZM12.001 7.81621C12.001 7.81621 11.8598 8.23843 11.4375 8.66093C11.0194 9.07904 10.6007 9.2214 10.5918 9.22441C10.5918 9.22441 11.0852 9.36609 11.5078 9.85918C11.9284 10.3499 12.0004 10.6312 12.001 10.6336C12.0048 10.6231 12.1477 10.2394 12.5645 9.78886C12.9833 9.33611 13.4017 9.22632 13.4092 9.22441C13.395 9.21923 12.9625 9.05937 12.5645 8.66093C12.1647 8.26115 12.0051 7.82756 12.001 7.81621Z" fill="white"/>
</svg>
