<svg width="24" height="24" viewBox="0 0 24 24" fill="none" xmlns="http://www.w3.org/2000/svg">
<path d="M21.2576 3.58387C20.6358 2.60899 19.3922 1.92582 17.441 1.50398C15.9421 1.17226 14.0631 1 11.9945 1C9.92586 1 8.04576 1.17226 6.5542 1.50398C4.60986 1.93489 3.35944 2.61112 2.74449 3.58387C1.7231 5.1838 1.96528 7.50955 2.2338 10.2086C2.28644 10.7057 2.33909 11.2166 2.37753 11.7136C2.46282 12.7082 2.6592 14.6713 3.01932 16.5614C3.54266 19.3132 4.10601 20.2812 4.48561 20.7718C6.10247 22.8411 10.6456 23 12.0008 23C13.356 23 17.8975 22.84 19.5165 20.7718C19.8961 20.2812 20.4642 19.3196 20.9828 16.5614C21.3429 14.6644 21.5393 12.7082 21.6245 11.7136C21.6635 11.2166 21.7162 10.7057 21.7683 10.2086C22.0368 7.50955 22.2727 5.17526 21.2576 3.58387ZM21.0154 10.1286C20.9627 10.6262 20.9101 11.1419 20.8717 11.6475C20.7864 12.6288 20.5963 14.5583 20.243 16.4217C19.7518 19.0146 19.2543 19.877 18.9205 20.3009C17.4805 22.1515 12.8979 22.2443 11.9945 22.2443C11.091 22.2443 6.5084 22.1515 5.06686 20.3009C4.73253 19.8743 4.23552 19.0082 3.74431 16.4217C3.3905 14.5583 3.20096 12.6352 3.11567 11.6475C3.06987 11.1435 3.02406 10.6262 2.97194 10.1286C2.70869 7.56875 2.48757 5.36086 3.3647 3.98812C3.8754 3.19243 4.9684 2.61592 6.71004 2.23781C8.15685 1.91782 9.98325 1.75356 11.9929 1.75356C14.0025 1.75356 15.8289 1.91942 17.2757 2.23781C19.0174 2.62232 20.1104 3.19243 20.6211 3.98812C21.4982 5.36779 21.276 7.57568 21.0138 10.1286M12.0008 2.84098C15.8831 2.84098 19.0321 3.49108 19.7323 4.58543C20.5505 5.87176 20.053 8.74522 19.8108 11.5611C19.5686 14.377 18.9863 18.4776 18.0891 19.638C17.3036 20.646 14.4953 21.1633 12.0008 21.1633C9.50625 21.1633 6.69899 20.6396 5.91293 19.638C5.00947 18.484 4.42664 14.3796 4.19077 11.5611C3.9549 8.74256 3.45105 5.87176 4.26975 4.58543C4.96998 3.49108 8.12052 2.84098 12.0008 2.84098ZM6.27305 6.75332C6.16776 6.81305 6.12248 7.00558 6.12248 7.00558L6.01086 7.50315C5.98917 7.59695 6.00072 7.69549 6.0435 7.78154C6.12248 7.93406 6.61317 8.02686 6.61317 8.02686C6.61317 8.02686 7.47083 8.15965 7.81779 8.59057C8.16474 9.02148 8.02838 9.61185 8.02838 9.61185L7.09228 14.2602C7.09228 14.2602 7.00067 14.7108 6.7648 14.93C6.52893 15.1492 6.15617 15.1556 6.15617 15.1556C6.0308 15.1593 5.90664 15.1816 5.78763 15.2217C5.66337 15.275 5.62441 15.4804 5.62441 15.4804L5.56545 15.7854C5.54752 15.867 5.56148 15.9524 5.60441 16.0238C5.67654 16.1369 5.87924 16.1635 5.87924 16.1635L10.6124 16.1966C10.6938 16.1923 10.7717 16.162 10.8351 16.1102C10.9136 16.0307 10.9336 15.8649 10.9336 15.8649L11.012 15.427C11.012 15.427 11.0447 15.2948 10.9794 15.2137C10.9004 15.1209 10.8351 15.1278 10.6193 15.0745C10.4034 15.0212 10.2655 14.9556 10.0496 14.7764C9.78108 14.5508 9.87269 14.1199 9.87269 14.1199L10.2855 11.792C10.2855 11.792 10.3381 11.6198 10.4492 11.6267C10.4966 11.6294 10.5422 11.646 10.5805 11.6743C10.6188 11.7027 10.6482 11.7417 10.6651 11.7867L12.9237 15.8782C12.9756 15.9663 13.0421 16.0448 13.1201 16.1102C13.2375 16.203 13.506 16.2099 13.506 16.2099L17.3163 16.1763C17.3163 16.1763 17.5063 16.1833 17.6106 16.0969C17.6892 16.0245 17.7443 15.9297 17.7685 15.8249L17.8406 15.4868C17.8702 15.3838 17.8631 15.2735 17.8206 15.1753C17.7359 14.9961 17.4084 14.9567 17.0351 14.8436C16.7603 14.7572 16.4002 14.5583 16.2759 14.3727C16.1906 14.2404 16.2759 13.9684 16.2759 13.9684L17.5448 8.67643C17.5884 8.50759 17.6767 8.354 17.8001 8.23218C17.9965 8.02686 18.5335 7.9122 18.5335 7.9122C18.615 7.89538 18.6912 7.85878 18.7557 7.80554C18.798 7.75122 18.8272 7.68768 18.841 7.61995L18.9852 7.04984C18.9852 7.04984 19.0242 6.90371 18.9394 6.80452C18.8673 6.71812 18.6641 6.71812 18.6641 6.71812H14.3121C14.209 6.72047 14.1097 6.75806 14.0304 6.82478C13.961 6.87841 13.9104 6.95319 13.8861 7.03811L13.7809 7.51808C13.7626 7.58835 13.765 7.66249 13.7877 7.73141C13.8026 7.76576 13.8261 7.79553 13.856 7.81772C13.8858 7.83991 13.9209 7.85374 13.9578 7.8578L14.141 7.89087C14.141 7.89087 14.4816 7.957 14.6585 8.13619C14.8354 8.31538 14.7507 8.77616 14.7507 8.77616L14.1157 11.8597L11.8112 7.40982C11.8112 7.40982 11.7454 7.2045 11.4906 6.95224C11.2358 6.69999 10.8551 6.72026 10.8551 6.72026H6.5542C6.56105 6.68719 6.3773 6.69412 6.27305 6.75332Z" fill="#00285A"/>
<path d="M21.2576 3.58387C20.6358 2.60899 19.3922 1.92582 17.441 1.50398C15.9421 1.17226 14.0631 1 11.9945 1C9.92586 1 8.04576 1.17226 6.5542 1.50398C4.60986 1.93489 3.35944 2.61112 2.74449 3.58387C1.7231 5.1838 1.96528 7.50955 2.2338 10.2086C2.28644 10.7057 2.33909 11.2166 2.37753 11.7136C2.46282 12.7082 2.6592 14.6713 3.01932 16.5614C3.54266 19.3132 4.10601 20.2812 4.48561 20.7718C6.10247 22.8411 10.6456 23 12.0008 23C13.356 23 17.8975 22.84 19.5165 20.7718C19.8961 20.2812 20.4642 19.3196 20.9828 16.5614C21.3429 14.6644 21.5393 12.7082 21.6245 11.7136C21.6635 11.2166 21.7162 10.7057 21.7683 10.2086C22.0368 7.50955 22.2727 5.17526 21.2576 3.58387ZM21.0154 10.1286C20.9627 10.6262 20.9101 11.1419 20.8717 11.6475C20.7864 12.6288 20.5963 14.5583 20.243 16.4217C19.7518 19.0146 19.2543 19.877 18.9205 20.3009C17.4805 22.1515 12.8979 22.2443 11.9945 22.2443C11.091 22.2443 6.5084 22.1515 5.06686 20.3009C4.73253 19.8743 4.23552 19.0082 3.74431 16.4217C3.3905 14.5583 3.20096 12.6352 3.11567 11.6475C3.06987 11.1435 3.02406 10.6262 2.97194 10.1286C2.70869 7.56875 2.48757 5.36086 3.3647 3.98812C3.8754 3.19243 4.9684 2.61592 6.71004 2.23781C8.15685 1.91782 9.98325 1.75356 11.9929 1.75356C14.0025 1.75356 15.8289 1.91942 17.2757 2.23781C19.0174 2.62232 20.1104 3.19243 20.6211 3.98812C21.4982 5.36779 21.276 7.57568 21.0138 10.1286M12.0008 2.84098C15.8831 2.84098 19.0321 3.49108 19.7323 4.58543C20.5505 5.87176 20.053 8.74522 19.8108 11.5611C19.5686 14.377 18.9863 18.4776 18.0891 19.638C17.3036 20.646 14.4953 21.1633 12.0008 21.1633C9.50625 21.1633 6.69899 20.6396 5.91293 19.638C5.00947 18.484 4.42664 14.3796 4.19077 11.5611C3.9549 8.74256 3.45105 5.87176 4.26975 4.58543C4.96998 3.49108 8.12052 2.84098 12.0008 2.84098ZM6.27305 6.75332C6.16776 6.81305 6.12248 7.00558 6.12248 7.00558L6.01086 7.50315C5.98917 7.59695 6.00072 7.69549 6.0435 7.78154C6.12248 7.93406 6.61317 8.02686 6.61317 8.02686C6.61317 8.02686 7.47083 8.15965 7.81779 8.59057C8.16474 9.02148 8.02838 9.61185 8.02838 9.61185L7.09228 14.2602C7.09228 14.2602 7.00067 14.7108 6.7648 14.93C6.52893 15.1492 6.15617 15.1556 6.15617 15.1556C6.0308 15.1593 5.90664 15.1816 5.78763 15.2217C5.66337 15.275 5.62441 15.4804 5.62441 15.4804L5.56545 15.7854C5.54752 15.867 5.56148 15.9524 5.60441 16.0238C5.67654 16.1369 5.87924 16.1635 5.87924 16.1635L10.6124 16.1966C10.6938 16.1923 10.7717 16.162 10.8351 16.1102C10.9136 16.0307 10.9336 15.8649 10.9336 15.8649L11.012 15.427C11.012 15.427 11.0447 15.2948 10.9794 15.2137C10.9004 15.1209 10.8351 15.1278 10.6193 15.0745C10.4034 15.0212 10.2655 14.9556 10.0496 14.7764C9.78108 14.5508 9.87269 14.1199 9.87269 14.1199L10.2855 11.792C10.2855 11.792 10.3381 11.6198 10.4492 11.6267C10.4966 11.6294 10.5422 11.646 10.5805 11.6743C10.6188 11.7027 10.6482 11.7417 10.6651 11.7867L12.9237 15.8782C12.9756 15.9663 13.0421 16.0448 13.1201 16.1102C13.2375 16.203 13.506 16.2099 13.506 16.2099L17.3163 16.1763C17.3163 16.1763 17.5063 16.1833 17.6106 16.0969C17.6892 16.0245 17.7443 15.9297 17.7685 15.8249L17.8406 15.4868C17.8702 15.3838 17.8631 15.2735 17.8206 15.1753C17.7359 14.9961 17.4084 14.9567 17.0351 14.8436C16.7603 14.7572 16.4002 14.5583 16.2759 14.3727C16.1906 14.2404 16.2759 13.9684 16.2759 13.9684L17.5448 8.67643C17.5884 8.50759 17.6767 8.354 17.8001 8.23218C17.9965 8.02686 18.5335 7.9122 18.5335 7.9122C18.615 7.89538 18.6912 7.85878 18.7557 7.80554C18.798 7.75122 18.8272 7.68768 18.841 7.61995L18.9852 7.04984C18.9852 7.04984 19.0242 6.90371 18.9394 6.80452C18.8673 6.71812 18.6641 6.71812 18.6641 6.71812H14.3121C14.209 6.72047 14.1097 6.75806 14.0304 6.82478C13.961 6.87841 13.9104 6.95319 13.8861 7.03811L13.7809 7.51808C13.7626 7.58835 13.765 7.66249 13.7877 7.73141C13.8026 7.76576 13.8261 7.79553 13.856 7.81772C13.8858 7.83991 13.9209 7.85374 13.9578 7.8578L14.141 7.89087C14.141 7.89087 14.4816 7.957 14.6585 8.13619C14.8354 8.31538 14.7507 8.77616 14.7507 8.77616L14.1157 11.8597L11.8112 7.40982C11.8112 7.40982 11.7454 7.2045 11.4906 6.95224C11.2358 6.69999 10.8551 6.72026 10.8551 6.72026H6.5542C6.56105 6.68719 6.3773 6.69412 6.27305 6.75332Z" fill="white"/>
</svg>
