<svg width="24" height="24" viewBox="0 0 24 24" fill="none" xmlns="http://www.w3.org/2000/svg">
<path d="M20.8112 8.53578C20.6119 7.58779 19.9738 5.67003 17.2571 4.49928C14.5404 3.32853 11.6964 3.51611 11.6964 3.51611C11.1095 3.51512 10.5231 3.5526 9.94113 3.62833C8.73918 3.78116 7.56837 4.1202 6.47074 4.63327C6.15301 4.78482 5.84531 4.95657 5.54955 5.14746C3.70716 6.31989 2.99198 8.24435 3.06568 10.0465C3.06568 10.1554 3.0774 10.2659 3.08745 10.3815C3.24489 12.1284 4.07396 14.2622 5.64837 16.1448C6.88787 17.6502 8.41425 18.8942 10.1388 19.8045C10.4553 19.972 10.735 20.1076 10.9628 20.2065C11.1667 20.3053 11.3778 20.3888 11.5942 20.456C11.8093 20.5035 12.031 20.5126 12.2491 20.4828C12.631 20.4208 13.4685 20.0122 13.4685 20.0122L13.6996 19.8932H13.7113C14.651 19.4153 15.536 18.8369 16.351 18.1681C17.1097 17.5534 18.9956 15.8232 20.0575 13.4784C21.1194 11.1335 21.0105 9.49047 20.8112 8.53578ZM12.162 7.53921C12.9148 7.54153 13.65 7.76688 14.2748 8.18679C14.8996 8.6067 15.386 9.20235 15.6725 9.8985C15.9589 10.5947 16.0327 11.3601 15.8844 12.0981C15.7361 12.8362 15.3725 13.5137 14.8393 14.0452C14.3062 14.5767 13.6276 14.9383 12.8891 15.0843C12.1506 15.2303 11.3854 15.1542 10.6901 14.8656C9.99482 14.577 9.40067 14.0888 8.98268 13.4627C8.56469 12.8366 8.3416 12.1007 8.3416 11.3479C8.34382 10.3364 8.74741 9.3672 9.46374 8.65307C10.1801 7.93894 11.1506 7.53832 12.162 7.53921Z" fill="url(#paint0_radial_4_4836)"/>
<path d="M16.0169 11.0497C16.0169 11.0363 16.0169 11.0212 16.0169 11.0078C15.9315 9.99071 15.4668 9.04287 14.715 8.3525C13.9632 7.66213 12.9793 7.27972 11.9586 7.28119C11.759 7.28122 11.5598 7.29578 11.3623 7.32474C10.4441 7.49389 9.61443 7.98012 9.01812 8.69856C8.42181 9.41701 8.09674 10.3221 8.09963 11.2557C8.10889 12.3166 8.53616 13.3311 9.28872 14.079C10.0413 14.8268 11.0584 15.2477 12.1194 15.2503C13.0516 15.2601 13.9558 14.9314 14.6642 14.3253C15.3726 13.7192 15.8371 12.8767 15.9716 11.9542C16.0033 11.7075 16.0201 11.4592 16.0219 11.2105C16.0219 11.1435 16.0202 11.0966 16.0169 11.0497ZM12.1646 15.1566C11.4118 15.1542 10.6766 14.9289 10.0518 14.509C9.427 14.0891 8.94065 13.4934 8.65418 12.7973C8.3677 12.1011 8.29395 11.3357 8.44223 10.5976C8.59051 9.85959 8.95418 9.18204 9.4873 8.65056C10.0204 8.11907 10.6991 7.75749 11.4376 7.61148C12.1761 7.46546 12.9413 7.54157 13.6366 7.83018C14.3318 8.1188 14.926 8.60697 15.344 9.23306C15.762 9.85914 15.985 10.595 15.985 11.3478C15.9844 11.8489 15.885 12.345 15.6925 12.8077C15.5 13.2704 15.2182 13.6906 14.8633 14.0443C14.5083 14.398 14.0871 14.6783 13.6238 14.8691C13.1604 15.06 12.664 15.1577 12.1629 15.1566H12.1646Z" fill="url(#paint1_linear_4_4836)"/>
<path d="M15.9702 11.9542C15.9702 11.9977 15.9585 12.0429 15.9518 12.0898C15.9451 12.1367 15.9333 12.2054 15.9216 12.2573C15.8517 12.5568 15.7477 12.8474 15.6118 13.1233L15.5833 13.1785L15.5464 13.2489L15.518 13.2991C15.4627 13.3963 15.4041 13.4934 15.3404 13.5889C15.3349 13.5987 15.3287 13.6083 15.322 13.6174C14.9443 14.179 14.4324 14.6375 13.8326 14.9512C13.2329 15.265 12.5644 15.4241 11.8876 15.4141C11.2108 15.4041 10.5473 15.2254 9.95704 14.8941C9.36682 14.5628 8.86862 14.0895 8.50762 13.5169C8.14661 12.9444 7.93421 12.2908 7.88967 11.6155C7.84514 10.9401 7.96988 10.2643 8.25258 9.64933C8.53528 9.03436 8.96701 8.49968 9.50861 8.09376C10.0502 7.68784 10.6846 7.42352 11.3542 7.32477C10.4372 7.49531 9.60907 7.98214 9.0141 8.70045C8.41912 9.41876 8.095 10.323 8.09817 11.2557C8.10743 12.3167 8.5347 13.3311 9.28727 14.079C10.0398 14.8269 11.057 15.2478 12.1179 15.2504C13.0502 15.2601 13.9544 14.9315 14.6627 14.3253C15.3711 13.7192 15.8357 12.8767 15.9702 11.9542Z" fill="url(#paint2_linear_4_4836)"/>
<path d="M16.0142 11.0079C15.9289 9.99104 15.4644 9.04344 14.713 8.35311C13.9615 7.66278 12.978 7.28018 11.9576 7.28123C11.758 7.28126 11.5588 7.29581 11.3613 7.32478C11.9137 7.22596 12.4808 7.24564 13.025 7.38251C13.5692 7.51938 14.0782 7.77032 14.5181 8.11871C14.958 8.4671 15.3189 8.90498 15.5768 9.40335C15.8347 9.90172 15.9838 10.4492 16.0142 11.0096V11.0079Z" fill="url(#paint3_linear_4_4836)"/>
<path d="M20.0628 13.4767C19.0009 15.8215 17.115 17.5484 16.3563 18.1664C15.5413 18.8351 14.6563 19.4136 13.7166 19.8915C15.2843 19.0599 16.6811 17.9399 17.8335 16.5903C18.4298 15.9204 20.0779 13.6894 20.4313 11.2641C20.7847 8.83889 20.1499 7.91435 19.7061 7.19582C19.2622 6.47729 18.1785 4.86939 14.9845 4.05036C13.3363 3.64435 11.6342 3.50189 9.94141 3.62829C10.5233 3.55088 11.1097 3.51172 11.6967 3.51105C11.6967 3.51105 14.544 3.32346 17.2574 4.49421C19.9707 5.66496 20.6071 7.58272 20.8115 8.53071C21.0158 9.4787 21.1264 11.1268 20.0628 13.4767Z" fill="#CD4639"/>
<path d="M20.4331 11.2642C20.0797 13.6894 18.4232 15.9154 17.8353 16.5903C16.6826 17.9387 15.2859 19.0575 13.7185 19.8882H13.7067L13.4756 20.0071C13.4756 20.0071 12.6381 20.4158 12.2563 20.4778C12.0381 20.5075 11.8164 20.4985 11.6014 20.451C11.388 20.386 11.1798 20.3054 10.9783 20.2098C10.7505 20.111 10.4759 19.9803 10.1543 19.8078C8.42375 18.8972 6.89208 17.6508 5.64881 16.1415C4.0744 14.2589 3.24533 12.1251 3.08789 10.3781C3.65066 12.1251 4.9487 14.2773 6.37236 15.2956C8.23987 16.6356 9.91812 16.8483 11.7605 16.2587C13.0753 15.8383 14.5107 14.8384 15.323 13.6274C15.3297 13.6183 15.3359 13.6088 15.3414 13.599C15.4051 13.5052 15.4654 13.408 15.519 13.3092L15.5474 13.259L15.5843 13.1886L15.6128 13.1334C15.7534 12.8595 15.8575 12.5684 15.9226 12.2674C15.9927 11.9654 16.0281 11.6563 16.0281 11.3462C16.0281 11.2742 16.0281 11.2022 16.0281 11.1302C16.003 9.82543 15.5374 8.92434 15.1002 8.12876C14.3065 6.78287 13.1241 5.70856 11.7086 5.04695C10.0923 4.32842 8.46598 4.23965 7.61178 4.3435C7.22128 4.39082 6.83849 4.4882 6.47286 4.63325C7.57048 4.12019 8.7413 3.78115 9.94324 3.62832C11.636 3.50192 13.3381 3.64437 14.9864 4.05039C18.1804 4.86941 19.2657 6.47564 19.7079 7.19584C20.1501 7.91605 20.7882 8.84059 20.4331 11.2642Z" fill="url(#paint4_linear_4_4836)"/>
<path d="M16.0207 11.1217C16.0223 11.0977 16.0223 11.0736 16.0207 11.0496C16.0207 11.0362 16.0207 11.0212 16.0207 11.0078C15.9903 10.4474 15.8412 9.89994 15.5833 9.40157C15.3254 8.9032 14.9645 8.46532 14.5246 8.11693C14.0846 7.76854 13.5757 7.5176 13.0315 7.38073C12.4873 7.24386 11.9202 7.22418 11.3678 7.323C10.701 7.42256 10.0694 7.68663 9.53019 8.09136C8.99095 8.49609 8.56099 9.02875 8.27914 9.64124C7.99729 10.2537 7.87241 10.9268 7.91579 11.5996C7.95916 12.2725 8.16942 12.9239 8.52758 13.4951C8.88574 14.0664 9.38053 14.5394 9.96727 14.8716C10.554 15.2037 11.2142 15.3845 11.8883 15.3976C12.5624 15.4107 13.2292 15.2558 13.8284 14.9467C14.4276 14.6376 14.9405 14.1842 15.3206 13.6273C14.5082 14.8383 13.0729 15.8382 11.7581 16.2586C9.91568 16.8481 8.24079 16.6321 6.36993 15.2955C4.94627 14.2772 3.64822 12.1249 3.08546 10.378C3.07541 10.2658 3.06871 10.1552 3.06368 10.043C2.98999 8.24419 3.71187 6.32644 5.54755 5.14731C5.84332 4.95641 6.15101 4.78466 6.46875 4.63312C6.83439 4.48807 7.21717 4.39068 7.60768 4.34336C8.46522 4.23952 10.0882 4.32829 11.7045 5.04682C13.12 5.70842 14.3024 6.78273 15.0961 8.12862C15.535 8.9242 16.0006 9.82529 16.0207 11.1217Z" fill="url(#paint5_linear_4_4836)"/>
<defs>
<radialGradient id="paint0_radial_4_4836" cx="0" cy="0" r="1" gradientUnits="userSpaceOnUse" gradientTransform="translate(21.4175 5.94136) scale(7.03456 7.03456)">
<stop stop-color="#EC8582"/>
<stop offset="0.21" stop-color="#ED8986" stop-opacity="0.72"/>
<stop offset="0.52" stop-color="#EE908D" stop-opacity="0.34"/>
<stop offset="0.74" stop-color="#EF9390" stop-opacity="0.09"/>
<stop offset="0.85" stop-color="#EF9592" stop-opacity="0"/>
</radialGradient>
<linearGradient id="paint1_linear_4_4836" x1="12.6369" y1="6.36" x2="11.3741" y2="17.1229" gradientUnits="userSpaceOnUse">
<stop stop-color="#931B1D"/>
<stop offset="0.08" stop-color="#9F2120"/>
<stop offset="0.26" stop-color="#B52C26"/>
<stop offset="0.46" stop-color="#C5332B"/>
<stop offset="0.68" stop-color="#CE382D"/>
<stop offset="1" stop-color="#D1392E"/>
</linearGradient>
<linearGradient id="paint2_linear_4_4836" x1="13.1195" y1="7.71334" x2="10.6842" y2="15.309" gradientUnits="userSpaceOnUse">
<stop stop-color="#931B1D"/>
<stop offset="0.08" stop-color="#9F2120"/>
<stop offset="0.26" stop-color="#B52C26"/>
<stop offset="0.46" stop-color="#C5332B"/>
<stop offset="0.68" stop-color="#CE382D"/>
<stop offset="1" stop-color="#D1392E"/>
</linearGradient>
<linearGradient id="paint3_linear_4_4836" x1="13.8887" y1="7.4504" x2="13.5052" y2="10.7131" gradientUnits="userSpaceOnUse">
<stop stop-color="#931B1D"/>
<stop offset="0.08" stop-color="#9F2120"/>
<stop offset="0.26" stop-color="#B52C26"/>
<stop offset="0.46" stop-color="#C5332B"/>
<stop offset="0.68" stop-color="#CE382D"/>
<stop offset="1" stop-color="#D1392E"/>
</linearGradient>
<linearGradient id="paint4_linear_4_4836" x1="25.9452" y1="13.8921" x2="7.47612" y2="11.4333" gradientUnits="userSpaceOnUse">
<stop stop-color="#BD2D27"/>
<stop offset="0.1" stop-color="#A12320"/>
<stop offset="0.2" stop-color="#8A1B1A"/>
<stop offset="0.27" stop-color="#821818"/>
<stop offset="0.75" stop-color="#B12924"/>
<stop offset="1" stop-color="#CA322A"/>
</linearGradient>
<linearGradient id="paint5_linear_4_4836" x1="12.9874" y1="5.96466" x2="5.41356" y2="15.4647" gradientUnits="userSpaceOnUse">
<stop offset="0.17" stop-color="#821818"/>
<stop offset="0.28" stop-color="#98201E"/>
<stop offset="0.42" stop-color="#AE2823"/>
<stop offset="0.57" stop-color="#BE2E27"/>
<stop offset="0.75" stop-color="#C73129"/>
<stop offset="1" stop-color="#CA322A"/>
</linearGradient>
</defs>
</svg>
