<svg width="24" height="24" viewBox="0 0 24 24" fill="none" xmlns="http://www.w3.org/2000/svg">
<path d="M6.98277 5.10767C7.1901 5.28682 7.41621 5.43708 7.65171 5.56928C7.77379 5.63502 7.8966 5.69136 8.02807 5.74843C8.15016 5.80478 8.29175 5.89941 8.36688 5.73904C8.4514 5.55989 8.49835 5.37207 8.58359 5.18352C8.63055 5.08022 8.6869 4.97619 8.75336 4.87289C8.79092 4.81655 8.92312 4.67496 8.86605 4.60922C8.83787 4.57166 8.69629 4.54348 8.65872 4.5247C8.59298 4.49653 8.53664 4.46835 8.47018 4.44957C8.23468 4.35566 8.06492 4.14834 7.99918 3.90344C7.97101 3.78136 7.96162 3.64916 7.9804 3.52708C7.98979 3.46134 7.99918 3.38549 8.02735 3.32914C8.3192 2.72667 9.14778 2.87693 9.6 3.17816C10.1931 3.57331 10.7298 3.32914 11.1163 2.8018C11.5114 2.25567 11.4457 1.60624 10.9278 1.20098C10.862 1.14463 10.7963 1.09768 10.7204 1.05939C10.5225 0.965481 10.2776 0.984263 10.0898 1.10635C9.94819 1.20965 9.68452 1.58674 9.85428 1.76517C10.0053 1.92554 10.2119 1.70882 10.3628 1.7276C10.6453 1.76517 10.7869 2.17043 10.542 2.4341C10.1938 2.82925 9.43096 2.31202 9.08277 2.13286C8.99825 2.07652 8.90361 2.02956 8.80031 1.99128L8.76275 1.97249C8.5742 1.90676 8.37699 1.8598 8.16027 1.8598C7.17132 1.8598 6.37091 2.68838 6.37091 3.70551C6.3803 4.25164 6.58763 4.7602 6.98277 5.10839V5.10767Z" fill="url(#paint0_linear_85_966)"/>
<path d="M14.4027 3.18685C14.8549 2.88561 15.6835 2.73463 15.9753 3.33783C16.0035 3.39417 16.0129 3.4693 16.0223 3.53576C16.0411 3.65784 16.0317 3.79004 16.0035 3.91213C15.9378 4.15702 15.768 4.36434 15.5325 4.45825C15.4668 4.48643 15.401 4.5146 15.344 4.53338C15.297 4.55216 15.1554 4.58034 15.1366 4.6179C15.0897 4.68364 15.2212 4.82523 15.2493 4.88157C15.3057 4.98488 15.362 5.0889 15.4191 5.1922C15.5036 5.37136 15.5607 5.55918 15.6358 5.74772C15.7109 5.90809 15.8525 5.80407 15.9746 5.75711C16.0967 5.70077 16.2289 5.64442 16.351 5.57796C16.5865 5.44648 16.8126 5.2955 17.0199 5.11635C17.4252 4.76816 17.6318 4.2596 17.6318 3.74164C17.6318 2.72452 16.8314 1.89593 15.8424 1.89593C15.6351 1.89593 15.4278 1.9335 15.2399 2.00863L15.2024 2.02741C15.1085 2.06497 15.0138 2.11193 14.9199 2.169C14.5717 2.34815 13.8089 2.85671 13.4607 2.47023C13.2252 2.19717 13.3574 1.8013 13.6399 1.76374C13.7908 1.74495 13.9974 1.97106 14.1484 1.8013C14.3088 1.62215 14.0545 1.24578 13.9129 1.14248C13.7338 1.0204 13.4889 1.00089 13.2823 1.09552C13.2071 1.13309 13.1407 1.18004 13.0749 1.23711C12.5664 1.64237 12.4913 2.2918 12.8864 2.83793C13.2722 3.3371 13.8183 3.58199 14.4027 3.18612V3.18685Z" fill="url(#paint1_linear_85_966)"/>
<path d="M22.7182 14.0913C22.6525 13.8089 22.5391 13.5264 22.3888 13.2909C22.2472 13.0742 22.0125 12.9145 21.777 12.8199C21.3435 12.6407 20.8639 12.6032 20.4023 12.6501C20.1761 12.6783 19.95 12.6971 19.7239 12.7534C19.5823 12.791 19.4509 12.8286 19.3093 12.8661C19.0362 12.9413 18.7538 13.0171 18.4713 13.0547C18.3297 13.0735 18.1795 13.0829 18.0285 13.0829C17.5387 13.0547 17.0489 12.9131 16.6632 12.6119C16.5974 12.5649 16.5505 12.4804 16.5028 12.4139C16.4089 12.2629 16.3901 12.0657 16.4277 11.8866C16.4558 11.7168 16.5216 11.5759 16.6162 11.4531C16.6256 11.4437 16.635 11.4344 16.6444 11.4156C16.7665 11.2552 16.9268 11.1143 17.059 10.9446C17.1342 10.8601 17.2006 10.7466 17.2664 10.6433C17.4173 10.4078 17.5394 10.1629 17.6239 9.89928C17.7937 9.38132 17.8313 8.81641 17.7272 8.27968C17.6521 7.88453 17.5669 7.37597 18.0473 7.09351C18.2358 6.99021 18.4236 6.96204 18.6309 6.95192C18.9134 6.92375 19.1959 7.01766 19.4126 7.15925C19.8366 7.42292 20.1754 7.74294 20.2224 8.2515C20.2412 8.487 20.1848 8.73189 20.062 8.93922C19.9305 9.16533 19.6856 9.30619 19.4501 9.41961C18.8383 9.70206 18.2351 10.0315 17.8963 10.6253C17.689 10.9829 17.7265 11.4539 17.8681 11.8208C18.0191 12.2066 18.3673 12.6119 18.8007 12.6588C19.1771 12.7058 19.5823 12.5555 19.8554 12.2918C20.1097 12.0469 20.2412 11.6894 20.0158 11.3787C19.9313 11.2566 19.6958 11.162 19.5542 11.1996C19.5354 11.1996 19.526 11.209 19.5166 11.2278C19.5072 11.2465 19.5166 11.2841 19.5354 11.3029C19.6105 11.3968 19.7051 11.4914 19.6958 11.6135C19.6864 11.7551 19.526 11.8302 19.3851 11.8396C19.1121 11.8584 18.519 11.5478 18.7545 11.2371C18.9806 10.9265 19.6676 10.7568 20.0165 10.6347C20.4593 10.4837 20.9108 10.3334 21.2785 10.051C21.7119 9.72157 22.0789 9.42972 22.2299 8.91177C22.3426 8.50651 22.3715 8.09258 22.305 7.69671C22.2487 7.33912 22.1165 6.9996 21.9193 6.69836C21.3731 5.87917 20.3748 5.47391 19.4241 5.37061C19.1229 5.34244 18.8123 5.33304 18.511 5.37061C17.9555 5.42696 17.3906 5.54976 16.9666 5.92613C16.6278 6.22736 16.3923 6.64202 16.2882 7.09351C16.2413 7.31962 16.2225 7.55512 16.2319 7.79062C16.2413 8.03551 16.2131 8.27101 16.1849 8.5159C16.0816 9.39144 15.7045 10.22 15.1302 10.889C15.0082 11.0305 14.8854 11.1714 14.7539 11.3036C14.6694 11.3881 14.5747 11.464 14.4714 11.5297C14.4339 11.5579 14.1984 11.737 14.1044 11.737C14.0763 11.737 14.0575 11.7276 14.0575 11.6995C14.0481 11.6431 14.0951 11.5962 14.1326 11.5579C14.4432 11.2285 14.5473 10.7199 14.5567 10.2865C14.5567 10.155 14.5754 10.0228 14.6036 9.90072C14.5003 9.99463 14.3775 10.0799 14.2366 10.1456C14.1709 10.1738 14.0951 10.202 14.0199 10.2207C14.0325 10.1957 14.0481 10.1769 14.0669 10.1644C14.2366 10.0517 14.3963 9.91011 14.5191 9.74035C14.5942 9.63705 14.6318 9.54242 14.6701 9.42033C14.6983 9.31703 14.6983 9.26935 14.6983 9.16605C14.595 9.2224 14.3876 9.2224 14.3125 9.31703C14.3031 9.33581 14.2937 9.35459 14.2937 9.37338C14.2562 9.64644 13.9549 9.91011 13.6819 9.79742C13.5785 9.75046 13.5027 9.63705 13.4745 9.53375C13.4557 9.65583 13.437 9.76925 13.4276 9.89133C13.3994 10.1174 13.4464 10.3529 13.5215 10.5603C13.559 10.673 13.6436 10.7582 13.7006 10.8709C13.5692 10.8333 13.4276 10.6823 13.3524 10.579C13.2015 10.3623 13.1357 10.1174 13.1545 9.84438C13.1733 9.59948 13.2961 9.40155 13.4651 9.23251C13.7006 9.01579 13.9925 8.91249 14.3031 8.84675C14.5574 8.79041 14.9338 8.80919 15.1035 8.57369C15.2545 8.36636 15.2827 8.08391 15.3108 7.83902C15.3484 7.49083 15.3484 7.13252 15.3108 6.78433C15.2733 6.39857 15.2075 6.01209 15.0941 5.64512C15.019 5.40962 14.915 5.15534 14.7835 4.94801C14.6419 4.73129 14.4729 4.54275 14.3031 4.36432C14.1052 4.1476 13.8509 3.95906 13.606 3.79941C13.1538 3.47939 12.6452 3.18754 12.0803 3.16876H12.0615C12.0334 3.16876 12.0146 3.16876 11.9864 3.17815C11.9582 3.17815 11.9394 3.17815 11.9113 3.16876H11.8925C11.3276 3.19694 10.819 3.48878 10.3668 3.79941C10.1313 3.96917 9.86763 4.15699 9.66969 4.36432C9.49993 4.55286 9.3215 4.74068 9.1893 4.94801C9.04771 5.16473 8.94441 5.40962 8.87867 5.64512C8.76598 6.01209 8.69952 6.39857 8.66196 6.78433C8.63378 7.13252 8.63378 7.49083 8.66196 7.83902C8.69013 8.08391 8.7183 8.36636 8.86928 8.57369C9.03904 8.80919 9.41541 8.79041 9.66969 8.84675C9.98032 8.91249 10.2722 9.01652 10.5077 9.23251C10.6868 9.39288 10.7995 9.59009 10.8183 9.84438C10.8371 10.1174 10.7807 10.3529 10.6204 10.579C10.5452 10.6917 10.4036 10.8427 10.2722 10.8709C10.3285 10.7676 10.4138 10.6823 10.4513 10.5603C10.5264 10.3529 10.5734 10.108 10.5452 9.89133C10.5264 9.76925 10.5171 9.65583 10.4983 9.53375C10.4701 9.64644 10.395 9.75046 10.2909 9.79742C10.0179 9.91011 9.70726 9.64644 9.67908 9.37338C9.67908 9.35459 9.67908 9.32642 9.6603 9.31703C9.58517 9.22312 9.37785 9.22312 9.27454 9.16605C9.27454 9.26935 9.26515 9.32642 9.30272 9.42033C9.34028 9.53302 9.37785 9.63705 9.4537 9.74035C9.57578 9.91011 9.73615 10.051 9.90591 10.1644C9.9247 10.1769 9.94035 10.1957 9.95287 10.2207C9.87774 10.202 9.80189 10.1738 9.73615 10.1456C9.59456 10.0799 9.47248 10.004 9.36918 9.90072C9.39735 10.0228 9.41613 10.155 9.41613 10.2865C9.41613 10.7199 9.52883 11.2379 9.84018 11.5579C9.87774 11.5955 9.9247 11.6424 9.9153 11.6995C9.90591 11.8028 9.76432 11.6995 9.72676 11.6807C9.65163 11.6337 9.57578 11.5774 9.51004 11.5297C9.40674 11.464 9.31211 11.3881 9.22759 11.3036C9.09611 11.1721 8.97331 11.0305 8.85122 10.889C8.27692 10.22 7.89983 9.38204 7.79653 8.5159C7.76836 8.27101 7.74019 8.03551 7.74958 7.79062C7.75897 7.55512 7.74958 7.31962 7.69323 7.09351C7.59932 6.64129 7.36382 6.22736 7.01491 5.92613C6.59086 5.54976 6.01656 5.42696 5.47043 5.37061C5.1692 5.34244 4.85857 5.34244 4.55733 5.37061C3.60594 5.47391 2.60832 5.86978 2.06219 6.69836C1.86426 6.9996 1.73278 7.3384 1.67644 7.69671C1.6107 8.09185 1.63887 8.50651 1.75157 8.91177C1.90255 9.42972 2.27891 9.72157 2.70295 10.051C3.06993 10.3334 3.52215 10.4844 3.96497 10.6347C4.31316 10.7568 5.00088 10.9359 5.22699 11.2371C5.46249 11.5478 4.8694 11.8678 4.59634 11.8396C4.45475 11.8302 4.3045 11.7551 4.28571 11.6135C4.27632 11.5008 4.37023 11.3968 4.44608 11.3029C4.46487 11.2841 4.48365 11.2559 4.46487 11.2278C4.45547 11.2184 4.44608 11.209 4.4273 11.1996C4.28571 11.1526 4.05094 11.2559 3.96569 11.3787C3.73959 11.6894 3.87178 12.0477 4.12606 12.2918C4.39913 12.5555 4.80439 12.6971 5.18076 12.6588C5.61419 12.6119 5.96238 12.2066 6.11336 11.8208C6.26434 11.4539 6.29251 10.9829 6.08519 10.6253C5.74639 10.0322 5.14319 9.71218 4.54072 9.41961C4.30522 9.30692 4.06033 9.16533 3.92885 8.93922C3.80677 8.73189 3.75909 8.487 3.77787 8.26089C3.82483 7.74294 4.17302 7.43231 4.58767 7.16864C4.80439 7.02705 5.08684 6.93314 5.3693 6.96131C5.57663 6.9801 5.76445 6.99888 5.95299 7.1029C6.43338 7.38536 6.35825 7.88453 6.27301 8.28907C6.16971 8.8258 6.20727 9.39071 6.37631 9.90867C6.46083 10.1723 6.58364 10.4266 6.7339 10.6527C6.79963 10.7466 6.86537 10.8601 6.94122 10.954C7.08281 11.1237 7.23307 11.2646 7.35587 11.425C7.36526 11.4344 7.37466 11.4437 7.38405 11.4625C7.46857 11.5846 7.54442 11.7262 7.57259 11.896C7.60076 12.0751 7.59137 12.2629 7.49746 12.4233C7.4599 12.489 7.40355 12.5743 7.33709 12.6212C6.80035 13.0453 6.0469 13.158 5.37869 13.0641C4.75743 12.9796 4.18313 12.7253 3.56116 12.6588C2.90233 12.5837 2.16766 12.7058 1.71545 13.1862C1.47995 13.4404 1.33908 13.7605 1.25384 14.0993C1.02773 14.9842 1.21627 15.9731 1.75301 16.7172C2.28036 17.4519 3.13711 17.9417 4.04154 18.0262C4.82317 18.1013 5.61419 17.8658 6.35825 17.6209C7.1211 17.3666 7.88394 17.0748 8.68435 16.9715C8.94802 16.9339 9.22109 16.9245 9.48476 16.9527C9.76721 16.9809 10.0497 17.056 10.2476 17.2727C10.5394 17.6021 10.6529 18.1576 10.408 18.5441C10.21 18.8548 9.85246 19.0339 9.53244 19.1842C9.51365 19.1936 9.49487 19.2029 9.48548 19.2217C9.48548 19.2405 9.49487 19.2593 9.50426 19.2687C9.76794 19.6451 10.1443 19.9376 10.5683 20.1067C10.8132 20.0221 11.0393 19.8805 11.2178 19.692C11.8961 18.9855 11.9431 17.7712 11.5284 16.9332C11.4627 16.8017 11.3868 16.6695 11.2929 16.5568C11.2835 16.5474 11.2741 16.538 11.2741 16.5287C11.2459 16.4911 11.2084 16.4441 11.1708 16.4066C11.0957 16.3221 11.0198 16.2462 10.9353 16.1805C10.6998 15.9825 10.4361 15.8698 10.1537 15.747C9.86185 15.6156 9.56061 15.5397 9.24059 15.5021C8.0826 15.3801 6.99034 15.747 5.95444 16.218C5.25733 16.538 4.38179 16.7548 3.76053 16.3119C3.26136 15.9637 2.91317 15.2948 3.30832 14.7205C3.70347 14.1462 4.7112 14.1838 5.30428 14.2871C5.78467 14.3716 6.22678 14.5883 6.68838 14.7675C7.21573 14.9654 7.72429 15.0499 8.27981 15.0499C8.83533 15.0499 9.4378 15.0593 10.0027 15.172C10.304 15.2377 10.6052 15.3418 10.8783 15.5108C11.0003 15.5859 11.1513 15.6806 11.2546 15.7933C11.3204 15.8684 11.3767 16.0663 11.4713 15.9348C11.5371 15.8409 11.6129 15.7557 11.6787 15.6618C11.782 15.5303 11.9235 15.3793 12.0933 15.4075C12.1872 15.4263 12.2631 15.5108 12.3288 15.5867C12.7052 16.0295 13.1668 16.4528 13.572 16.8862C14.0055 17.3572 14.3537 17.8658 14.6925 18.4119C14.7958 18.5817 14.8622 18.7695 14.8904 18.9674C14.8904 19.005 14.8904 19.0426 14.881 19.0801C14.8716 19.1459 14.8528 19.2116 14.8341 19.2687V19.2781C14.7589 19.4666 14.6267 19.6263 14.4859 19.7679C14.3161 19.9376 14.1095 20.0409 13.9116 20.1731C13.7512 20.267 13.6009 20.3804 13.4594 20.5119C13.1957 20.7662 12.979 21.0674 12.9226 21.425C12.8569 21.792 12.9508 22.1879 13.2051 22.4703C13.4406 22.7246 13.7888 22.8756 14.1471 22.9507C14.392 22.9977 14.665 23.0258 14.8911 22.8944C15.0421 22.8005 15.1736 22.6776 15.2581 22.518C15.3614 22.3295 15.2487 22.0188 14.9757 22.2074C14.8817 22.2731 14.8247 22.3771 14.7214 22.4429C14.2316 22.7629 14.2316 22.0759 14.392 21.8498C14.6087 21.5298 15.032 21.3506 15.3809 21.1527C16.1344 20.738 16.6899 20.0229 16.7744 19.1567C16.8026 18.9682 16.8026 18.771 16.7838 18.573C16.7838 18.5448 16.7744 18.5261 16.7744 18.4979C16.7744 18.4791 16.765 18.4697 16.765 18.4509C16.765 18.4322 16.7556 18.404 16.7556 18.3852C16.7462 18.3476 16.7368 18.3101 16.7274 18.2819C16.7274 18.2725 16.7275 18.2631 16.7181 18.2537C16.596 17.7921 16.3417 17.3876 16.0874 16.9823C15.9083 16.6999 15.7204 16.4268 15.5037 16.1725C15.334 15.9746 15.1086 15.7203 15.1367 15.4378C15.1555 15.2681 15.2682 15.1272 15.4286 15.0803C15.5601 15.0427 15.6923 15.0333 15.8237 15.0239C16.3605 15.0521 16.8596 14.9206 17.3588 14.7415C17.8204 14.5717 18.2625 14.3557 18.7429 14.2611C18.9502 14.2235 19.2045 14.1953 19.4682 14.1953C19.9486 14.2047 20.4572 14.3268 20.7114 14.6945C21.1066 15.2688 20.7584 15.9377 20.2592 16.2859C20.2404 16.2953 20.2217 16.3141 20.2029 16.3235C20.1935 16.3329 20.1841 16.3329 20.1747 16.3423C20.1559 16.3517 20.1277 16.3705 20.109 16.3798C20.0996 16.3892 20.0902 16.3892 20.0808 16.3986C20.0338 16.4174 19.9869 16.4362 19.9392 16.455C19.9329 16.455 19.9298 16.4581 19.9298 16.4644C19.9016 16.4738 19.8735 16.4831 19.8453 16.4925C19.7608 16.5113 19.6661 16.5301 19.5722 16.5395C19.0731 16.5771 18.5363 16.4174 18.0747 16.2007C17.6983 16.0309 17.3119 15.8713 16.9073 15.7485C16.7 15.6827 16.5021 15.6069 16.2955 15.5599C16.2109 15.5411 15.8526 15.4472 15.8151 15.5599C15.7963 15.5975 15.862 15.6632 15.8808 15.7015C15.9278 15.786 15.9841 15.8619 16.0506 15.937C16.182 16.1162 16.3049 16.2946 16.4269 16.4831C16.5208 16.6247 16.6061 16.775 16.6906 16.926C16.7376 17.0011 16.7845 17.077 16.8322 17.1521C16.9738 17.3406 17.1898 17.4909 17.4159 17.5761C17.7077 17.6794 18.0184 17.7647 18.3196 17.8398C18.6302 17.9243 18.9409 17.9908 19.2616 18.0283C19.4877 18.0565 19.7232 18.0565 19.9587 18.0377C20.8718 17.9626 21.7481 17.4728 22.2754 16.7288C22.313 16.6724 22.3599 16.6067 22.3975 16.5496C22.4221 16.5106 22.4452 16.4709 22.4676 16.4304C22.7977 15.8402 22.8974 15.1496 22.7984 14.4814C22.7789 14.3492 22.7565 14.2199 22.7269 14.092L22.7182 14.0913Z" fill="url(#paint2_linear_85_966)"/>
<path d="M10.4959 20.5134C10.3543 20.3819 10.204 20.2685 10.0437 20.1746C9.84572 20.0525 9.629 19.9391 9.46935 19.7693C9.28081 19.5714 9.11177 19.3547 9.07421 19.0816C9.03664 18.7616 9.15873 18.4698 9.32849 18.2155C9.4224 18.0739 9.51703 17.9424 9.61094 17.8102C9.67668 17.7257 9.79949 17.6217 9.78071 17.509C9.76192 17.3392 9.52642 17.3392 9.40434 17.3204C9.14067 17.3017 8.8676 17.311 8.60393 17.3392C8.34965 17.3674 7.9545 17.3956 7.73778 17.5372C7.57741 17.6405 7.41776 17.8196 7.33252 17.9988C7.248 18.1873 7.20105 18.3845 7.18154 18.5825C7.09702 19.2608 7.34191 19.8726 7.72767 20.4188C7.935 20.7106 8.2738 20.9931 8.58443 21.1628C8.92323 21.3514 9.35666 21.5392 9.57338 21.8599C9.73375 22.0861 9.73375 22.773 9.24397 22.453C9.14067 22.3873 9.0836 22.2833 8.98969 22.2175C8.71662 22.029 8.60393 22.3396 8.70723 22.5282C8.79175 22.6885 8.92395 22.8106 9.07421 22.9045C9.30032 23.036 9.57338 23.0078 9.81827 22.9609C10.1759 22.8857 10.5248 22.7348 10.7603 22.4805C11.0239 22.198 11.1085 21.8022 11.0427 21.4352C10.977 21.0682 10.7697 20.7569 10.4966 20.5127L10.4959 20.5134Z" fill="url(#paint3_linear_85_966)"/>
<path d="M7.80184 21.1448C7.71732 21.0697 7.65086 20.9656 7.57574 20.8717C7.57574 20.8623 7.56635 20.8623 7.56635 20.8529C7.51939 20.7966 7.48183 20.7309 7.44426 20.6738C7.37852 20.5893 7.32218 20.5423 7.20876 20.5423C7.07729 20.5423 6.95448 20.5987 6.82301 20.6268C6.57811 20.6738 6.28627 20.6644 6.08833 20.4954C5.89979 20.335 5.84344 20.0056 5.99442 19.8077C6.06016 19.7137 6.17358 19.6567 6.28627 19.6762C6.39896 19.695 6.4936 19.7983 6.4936 19.9117C6.4936 19.968 6.46542 20.015 6.43725 20.0533C6.41847 20.0814 6.3809 20.1096 6.39029 20.1472C6.39029 20.1566 6.39968 20.1753 6.40908 20.1847C6.58823 20.3733 6.79483 20.1472 6.87068 19.9868C6.97399 19.7795 6.97399 19.5158 6.8519 19.3085C6.83312 19.2709 6.80495 19.2333 6.76738 19.1958C6.72982 19.1488 6.68286 19.1113 6.63591 19.0737C6.48493 18.961 6.2971 18.9133 6.10856 18.9133C5.91063 18.9133 5.7228 18.9603 5.55304 19.0737C5.47791 19.1207 5.40206 19.1864 5.33632 19.2435C5.20485 19.3749 5.10083 19.5353 5.04448 19.7145C5.04448 19.7239 5.03509 19.7426 5.03509 19.752V19.7614C4.9224 20.2418 5.14778 20.8443 5.46852 21.1643C5.81671 21.5125 6.542 21.7104 7.03178 21.6635C7.25788 21.6353 7.48399 21.579 7.6906 21.4749C7.75633 21.4374 7.88853 21.4092 7.90731 21.3052C7.91671 21.2488 7.85097 21.1831 7.80401 21.1448H7.80184Z" fill="url(#paint4_linear_85_966)"/>
<path d="M16.1268 21.1635C16.2113 21.0884 16.2778 20.9844 16.3529 20.8905C16.3529 20.8811 16.3623 20.8811 16.3623 20.8717C16.4092 20.8153 16.4468 20.7496 16.4844 20.6925C16.5501 20.608 16.6065 20.5611 16.7199 20.5611C16.8514 20.5611 16.9742 20.6174 17.1056 20.6456C17.3505 20.6925 17.6424 20.6831 17.8403 20.5141C18.0289 20.3537 18.0852 20.0243 17.9342 19.8264C17.8685 19.7325 17.7551 19.6754 17.6424 19.6949C17.5297 19.7144 17.435 19.817 17.435 19.9304C17.435 19.9868 17.4538 20.0337 17.4914 20.072C17.5102 20.1002 17.5477 20.1283 17.5383 20.1659C17.5383 20.1753 17.529 20.1941 17.5196 20.2035C17.3404 20.392 17.1338 20.1659 17.058 20.0055C16.9547 19.7982 16.9547 19.5345 17.0767 19.3272C17.0955 19.2897 17.1237 19.2521 17.1613 19.2145C17.1988 19.1676 17.2458 19.13 17.2927 19.0924C17.4437 18.9797 17.6315 18.9321 17.8201 18.9321C18.018 18.9321 18.2058 18.979 18.3756 19.0924C18.4507 19.1394 18.5266 19.2051 18.5923 19.2622C18.7238 19.3937 18.8278 19.554 18.8842 19.7332C18.8842 19.7426 18.8936 19.7614 18.8936 19.7708V19.7802C19.0062 20.2605 18.7809 20.863 18.4601 21.183C18.1119 21.5312 17.3866 21.7292 16.8969 21.6822C16.6708 21.654 16.4446 21.5977 16.238 21.4937C16.1723 21.4561 16.0401 21.4279 16.0213 21.3239C16.0025 21.2676 16.0777 21.2112 16.1246 21.1635H16.1268Z" fill="url(#paint5_linear_85_966)"/>
<path d="M13.311 20.1089C13.4237 20.1089 13.5183 20.0056 13.6122 19.9485C13.8289 19.8069 14.102 19.6942 14.2429 19.4681C14.3274 19.346 14.0167 19.1012 13.9322 19.0065C13.7155 18.7241 13.4988 18.404 13.4518 18.0457C13.4331 17.876 13.48 17.7351 13.4988 17.5747C13.5082 17.4527 13.3861 17.3205 13.3009 17.2359C13.1311 17.0568 12.9621 16.8877 12.7923 16.7086C12.7453 16.6616 12.6702 16.5771 12.5944 16.6053C12.538 16.6241 12.5192 16.718 12.4911 16.7751C12.4441 16.8784 12.3971 16.9918 12.3596 17.1045C12.2845 17.3212 12.2469 17.5473 12.2469 17.7828C12.2469 18.1974 12.322 18.5832 12.473 18.9596C12.5857 19.242 12.7461 19.4963 12.9252 19.7412C12.991 19.8257 13.0473 19.9016 13.1231 19.9767C13.1513 20.0143 13.1983 20.0706 13.2358 20.0988C13.2546 20.0988 13.2828 20.1082 13.311 20.1082V20.1089Z" fill="url(#paint6_linear_85_966)"/>
<defs>
<linearGradient id="paint0_linear_85_966" x1="5.77494" y1="-0.465575" x2="23.2149" y2="19.3424" gradientUnits="userSpaceOnUse">
<stop stop-color="#8A83FE"/>
<stop offset="0.33" stop-color="#5D4CF8"/>
<stop offset="0.89" stop-color="#FA616E"/>
</linearGradient>
<linearGradient id="paint1_linear_85_966" x1="9.42976" y1="-3.68453" x2="26.8697" y2="16.1234" gradientUnits="userSpaceOnUse">
<stop stop-color="#8A83FE"/>
<stop offset="0.33" stop-color="#5D4CF8"/>
<stop offset="0.89" stop-color="#FA616E"/>
</linearGradient>
<linearGradient id="paint2_linear_85_966" x1="3.15084" y1="1.8439" x2="20.5915" y2="21.6519" gradientUnits="userSpaceOnUse">
<stop stop-color="#8A83FE"/>
<stop offset="0.33" stop-color="#5D4CF8"/>
<stop offset="0.89" stop-color="#FA616E"/>
</linearGradient>
<linearGradient id="paint3_linear_85_966" x1="-2.42915" y1="6.75764" x2="15.0108" y2="26.5656" gradientUnits="userSpaceOnUse">
<stop stop-color="#8A83FE"/>
<stop offset="0.33" stop-color="#5D4CF8"/>
<stop offset="0.89" stop-color="#FA616E"/>
</linearGradient>
<linearGradient id="paint4_linear_85_966" x1="-4.27364" y1="8.38087" x2="13.167" y2="28.1888" gradientUnits="userSpaceOnUse">
<stop stop-color="#8A83FE"/>
<stop offset="0.33" stop-color="#5D4CF8"/>
<stop offset="0.89" stop-color="#FA616E"/>
</linearGradient>
<linearGradient id="paint5_linear_85_966" x1="1.9701" y1="2.88417" x2="19.4108" y2="22.6921" gradientUnits="userSpaceOnUse">
<stop stop-color="#8A83FE"/>
<stop offset="0.33" stop-color="#5D4CF8"/>
<stop offset="0.89" stop-color="#FA616E"/>
</linearGradient>
<linearGradient id="paint6_linear_85_966" x1="0.505146" y1="4.17439" x2="17.9458" y2="23.9823" gradientUnits="userSpaceOnUse">
<stop stop-color="#8A83FE"/>
<stop offset="0.33" stop-color="#5D4CF8"/>
<stop offset="0.89" stop-color="#FA616E"/>
</linearGradient>
</defs>
</svg>
