<svg width="24" height="24" viewBox="0 0 24 24" fill="none" xmlns="http://www.w3.org/2000/svg">
<path d="M22.8044 14.3806C22.7804 14.2193 22.7579 14.096 22.7304 13.9791C22.6564 13.6627 22.5331 13.3626 22.3725 13.1125C22.2154 12.8715 21.9575 12.6707 21.6461 12.546C21.3206 12.4115 20.9514 12.3431 20.5512 12.3431C20.4286 12.3431 20.3025 12.3495 20.1757 12.3628H20.1729L20.1701 12.3635C20.1271 12.3692 20.0834 12.3741 20.0397 12.379C20.0116 12.3826 19.9827 12.3854 19.9545 12.3889C20.2638 12.0282 20.3046 11.5878 20.0517 11.2377C19.9791 11.1348 19.8594 11.0482 19.7262 10.9953C19.7953 10.9728 19.8608 10.9516 19.9186 10.9319L19.9418 10.9242C20.3828 10.7741 20.8387 10.6191 21.2255 10.3211C21.6412 10.0047 22.0723 9.67642 22.2492 9.06911C22.3732 8.62384 22.3999 8.18561 22.3295 7.76289C22.2689 7.3768 22.128 7.01326 21.9117 6.68353C21.3946 5.90854 20.4357 5.39211 19.2781 5.2667C19.0914 5.24909 18.9273 5.24063 18.7716 5.24063C18.6159 5.24063 18.4658 5.24909 18.327 5.2667C17.905 5.30968 17.3893 5.39704 16.9433 5.67322L16.913 5.64152C16.9736 5.59572 17.0321 5.54852 17.0877 5.50061C17.5273 5.12227 17.7796 4.55793 17.7796 3.95203C17.7796 2.80785 16.8735 1.87715 15.7596 1.87715C15.5208 1.87715 15.282 1.92224 15.0699 2.00679L15.0593 2.01102L15.0488 2.01595L15.022 2.02933C14.9234 2.06949 14.824 2.11952 14.7261 2.17729C14.681 2.20054 14.6296 2.22872 14.5739 2.25972C14.4837 2.30974 14.3752 2.36892 14.2632 2.42317L14.2174 2.32383C14.2519 2.30129 14.2843 2.27522 14.3139 2.24281C14.3773 2.17165 14.4499 2.04624 14.4302 1.85531C14.4013 1.57772 14.1815 1.29732 14.0413 1.19516L14.0378 1.19234L14.0342 1.18952C13.8891 1.09018 13.7151 1.03734 13.5326 1.03734C13.4008 1.03734 13.2684 1.06623 13.1493 1.11977L13.1444 1.12189L13.1402 1.124C13.0528 1.16768 12.9725 1.22193 12.8858 1.29591C12.2849 1.77781 12.1855 2.55915 12.6392 3.20733C12.4666 3.1559 12.2856 3.12137 12.0974 3.11503H12.0932H12.0883H12.07C12.0467 3.11503 12.0178 3.11503 11.9833 3.11996L11.9678 3.11503H11.891C11.7078 3.12419 11.5324 3.15871 11.3633 3.20944C11.3668 3.20451 11.3704 3.20028 11.3739 3.19535C11.8509 2.5366 11.755 1.74188 11.1428 1.25857C11.0568 1.18529 10.9765 1.13105 10.8892 1.08736L10.887 1.08595L10.8849 1.08455C10.7687 1.02889 10.6369 1 10.5038 1C10.3241 1 10.1501 1.05143 10.0007 1.14866L9.99439 1.15289L9.98805 1.15711C9.8401 1.26561 9.62028 1.54461 9.59492 1.82431C9.58153 1.97368 9.62662 2.11106 9.72173 2.21111C9.75132 2.24211 9.78373 2.26677 9.81825 2.2879L9.77105 2.38936C9.65973 2.33511 9.55194 2.27592 9.46246 2.2259C9.40751 2.1949 9.35467 2.16602 9.30746 2.14136C9.21446 2.08077 9.1123 2.03004 9.0024 1.98847L8.97915 1.9772L8.96365 1.96945L8.94744 1.96381C8.70226 1.87786 8.48667 1.8384 8.26897 1.8384C7.15509 1.8384 6.24905 2.7691 6.24905 3.91328V3.91821C6.25962 4.54807 6.5048 5.10536 6.9395 5.48793C7.00361 5.54288 7.07054 5.59572 7.13959 5.64786L7.0945 5.69436C6.64218 5.40127 6.10673 5.30897 5.67133 5.26388C5.51421 5.24909 5.35569 5.24204 5.19787 5.24204C5.04006 5.24204 4.88153 5.24909 4.72654 5.26388C4.0389 5.33856 2.78764 5.62179 2.08944 6.68071C1.87314 7.01044 1.73224 7.37469 1.67094 7.76219C1.60119 8.1828 1.62796 8.62102 1.75126 9.06347C1.92387 9.65599 2.33532 9.97585 2.77143 10.3154L2.77496 10.319C3.16175 10.617 3.61829 10.772 4.05863 10.9221L4.08399 10.9305C4.13683 10.9488 4.20095 10.97 4.26999 10.9925C4.13895 11.0468 4.01988 11.1334 3.94802 11.2356C3.69086 11.5921 3.73806 12.0423 4.06286 12.4065C3.97831 12.3917 3.89306 12.379 3.8064 12.3699C3.68241 12.3558 3.55488 12.348 3.42948 12.348C2.74043 12.348 2.15355 12.5686 1.77733 12.9687C1.53708 13.228 1.36447 13.5676 1.2609 13.9812C1.01924 14.9267 1.21792 15.9666 1.79142 16.7613C2.35082 17.5412 3.25898 18.0605 4.21997 18.1506C4.32424 18.1605 4.43274 18.1661 4.54195 18.1661C5.2479 18.1661 5.94116 17.9576 6.59075 17.7434C6.70982 17.704 6.82748 17.6638 6.94584 17.6236C7.04941 17.5884 7.15368 17.5532 7.25795 17.518L7.30868 17.5624C7.27134 17.618 7.23752 17.6744 7.21075 17.7314L7.20934 17.7336L7.20793 17.7357C7.11775 17.9358 7.06068 18.1549 7.03813 18.3881C7.02334 18.505 7.01841 18.622 7.02052 18.7382C6.99657 18.7171 6.97261 18.6981 6.95148 18.6805L6.94795 18.6776L6.94443 18.6748C6.76055 18.5367 6.52523 18.4635 6.26525 18.4635C6.00528 18.4635 5.77489 18.5311 5.5741 18.6635C5.48955 18.7171 5.41276 18.7826 5.34583 18.8404L5.33315 18.851L5.3254 18.858L5.31765 18.8658C5.15278 19.0306 5.0309 19.2279 4.96537 19.4364L4.95269 19.4766V19.4822C4.94917 19.4956 4.94635 19.5111 4.94494 19.5287C4.81813 20.1227 5.09853 20.7793 5.44658 21.1273C5.84112 21.5219 6.53791 21.7015 7.01911 21.7015C7.079 21.7015 7.13677 21.6987 7.19173 21.6938H7.19595L7.20018 21.6931C7.44395 21.6628 7.66377 21.6015 7.85822 21.5148L7.8547 21.5191L8.56981 21.1865C8.61913 21.214 8.67126 21.2415 8.72481 21.2696C8.94955 21.3887 9.17994 21.512 9.33071 21.6656L9.26026 21.7565C9.2511 21.7494 9.24264 21.7424 9.23349 21.7361C9.12992 21.6649 9.02635 21.629 8.92419 21.629C8.77412 21.629 8.63815 21.7079 8.55994 21.8403C8.46483 22.001 8.46413 22.225 8.55924 22.3969C8.65576 22.5787 8.80865 22.7379 9.01296 22.8647L9.01649 22.8668L9.02001 22.869C9.17078 22.957 9.34269 23 9.54489 23C9.69214 23 9.83164 22.9767 9.93591 22.957H9.93803L9.94014 22.9563C10.3903 22.8619 10.7574 22.671 11.0033 22.4054C11.302 22.0848 11.4309 21.6156 11.3478 21.1506C11.2809 20.7786 11.0815 20.4291 10.7722 20.1367C11.0272 20.0367 11.2576 19.8838 11.4415 19.6901C11.7579 19.3603 11.9417 18.9468 12.0242 18.5149H12.0925C12.1263 18.6396 12.1672 18.7636 12.2165 18.8869C12.3215 19.1483 12.4716 19.4097 12.6907 19.7091L12.6928 19.7126L12.6956 19.7161L12.7146 19.7401C12.7696 19.8105 12.8259 19.8838 12.8978 19.9578C12.9323 20.0029 12.9901 20.0705 13.0507 20.1163L13.1543 20.1854L13.1683 20.1713C12.8633 20.4862 12.6871 20.8039 12.6329 21.1449C12.5519 21.5994 12.6801 22.0658 12.9753 22.3941C13.224 22.6625 13.5918 22.8527 14.0413 22.9479H14.0434L14.0455 22.9486C14.1505 22.969 14.2893 22.9915 14.4365 22.9915C14.6387 22.9915 14.8106 22.9486 14.9614 22.8605L14.9649 22.8584L14.9685 22.8563C15.1721 22.7288 15.3257 22.5702 15.4243 22.3842C15.5166 22.2158 15.5166 21.9925 15.4215 21.8312C15.3433 21.6987 15.2073 21.6198 15.0572 21.6198C14.9614 21.6198 14.8649 21.6522 14.7698 21.7128L14.705 21.605C14.848 21.481 15.0417 21.3767 15.2305 21.2753C15.2784 21.2492 15.3257 21.2239 15.3722 21.1978L15.9224 21.4535C15.9442 21.4648 15.9654 21.474 15.9809 21.481C15.9844 21.4824 15.9865 21.4838 15.99 21.4852L16.0112 21.4951L16.0154 21.4972L16.021 21.5C16.0288 21.5043 16.0372 21.5071 16.045 21.5106L16.0612 21.5176C16.2634 21.6121 16.4952 21.6776 16.7531 21.71H16.7573L16.7615 21.7107C16.8165 21.7163 16.8749 21.7184 16.9341 21.7184C17.4153 21.7184 18.1121 21.5388 18.5067 21.1442C18.8547 20.7962 19.1351 20.1389 19.0083 19.5456C19.0069 19.528 19.0034 19.5118 19.0005 19.4991V19.4935L18.9879 19.4533C18.9216 19.2448 18.7997 19.0468 18.6356 18.8827L18.6278 18.8749L18.6201 18.8679L18.6074 18.8573C18.5398 18.7995 18.4637 18.734 18.3791 18.6805C18.1783 18.548 17.9458 18.4804 17.688 18.4804C17.4301 18.4804 17.1927 18.5536 17.0088 18.6917L17.0053 18.6945L17.0018 18.6974C16.987 18.7086 16.9715 18.722 16.9553 18.7354C16.9581 18.6248 16.9553 18.51 16.944 18.3909C16.9426 18.3592 16.9376 18.3338 16.9348 18.319C16.9334 18.2908 16.9292 18.2676 16.9236 18.2479C16.9214 18.2317 16.9193 18.2176 16.9165 18.2063V18.1901L16.9081 18.157C16.9003 18.1267 16.8926 18.0957 16.8841 18.0668C16.8792 18.0379 16.8707 18.0118 16.8608 17.9893C16.8165 17.8308 16.7573 17.68 16.6896 17.5342L16.7714 17.4623C16.8961 17.5574 17.0377 17.637 17.187 17.6927H17.1892L17.1913 17.6941C17.5118 17.8075 17.8423 17.8949 18.0952 17.9583C18.4355 18.0513 18.7483 18.1133 19.0506 18.1492C19.1767 18.1647 19.3127 18.1732 19.4536 18.1732C19.5592 18.1732 19.6706 18.1683 19.784 18.1598C20.7654 18.0788 21.6848 17.5588 22.245 16.7683L22.2471 16.7648L22.2492 16.7613C22.2668 16.7352 22.2865 16.7063 22.3062 16.6782C22.3281 16.6472 22.3492 16.6154 22.3689 16.5866L22.3718 16.583L22.3739 16.5788C22.4 16.5372 22.4253 16.4943 22.4486 16.452C22.786 15.8482 22.9121 15.1113 22.8029 14.3771L22.8044 14.3806ZM13.0613 1.50938C13.1254 1.45443 13.1895 1.40863 13.2635 1.372C13.3494 1.33325 13.4417 1.31423 13.5326 1.31423C13.6566 1.31423 13.7785 1.34945 13.8785 1.4185C14.0159 1.51925 14.2639 1.88702 14.1082 2.06104C14.0673 2.10683 14.023 2.12304 13.9765 2.12304C13.8609 2.12304 13.7341 2.0237 13.6305 2.0237C13.6242 2.0237 13.6186 2.0237 13.6122 2.02511C13.3367 2.06174 13.2085 2.44713 13.4375 2.71344C13.527 2.81278 13.6439 2.85083 13.775 2.85083C14.1406 2.85083 14.6105 2.54788 14.8607 2.41965C14.9522 2.3647 15.0445 2.3189 15.1361 2.28227L15.1728 2.26395C15.3567 2.19067 15.5582 2.15404 15.7604 2.15404C16.7242 2.15404 17.5048 2.96215 17.5048 3.95344C17.5048 4.45859 17.3026 4.95388 16.9081 5.29418C16.7058 5.4689 16.486 5.61545 16.2564 5.74438C16.1373 5.80849 16.0084 5.86345 15.8893 5.91911C15.8181 5.94658 15.7399 5.99379 15.673 5.99379C15.6279 5.99379 15.5884 5.97265 15.5589 5.90995C15.4856 5.72606 15.4306 5.54288 15.3475 5.36816C15.2925 5.26741 15.2376 5.16595 15.1819 5.0652C15.1544 5.01025 15.0255 4.87216 15.072 4.80804C15.0903 4.77141 15.2284 4.74393 15.2742 4.72561C15.3292 4.70729 15.3933 4.67982 15.4581 4.65234C15.6878 4.56075 15.8526 4.35855 15.9175 4.11971C15.9449 4.00064 15.9541 3.87171 15.9358 3.75264C15.9266 3.68853 15.9175 3.61526 15.89 3.5596C15.7477 3.2658 15.4743 3.1559 15.1819 3.1559C14.8895 3.1559 14.5774 3.2658 14.3569 3.41305C14.161 3.54621 13.9687 3.60469 13.7862 3.60469C13.4389 3.60469 13.1254 3.39192 12.8788 3.07346C12.4934 2.54083 12.5667 1.90745 13.0627 1.51291L13.0613 1.50938ZM6.52452 3.91469C6.52452 2.9234 7.30516 2.11529 8.26897 2.11529C8.48033 2.11529 8.67267 2.16108 8.85656 2.2252L8.89319 2.24352C8.99394 2.28015 9.08624 2.32595 9.16867 2.3809C9.41878 2.50913 9.8873 2.81631 10.2523 2.81631C10.3833 2.81631 10.5017 2.77685 10.5918 2.67469C10.8307 2.41754 10.6926 2.02299 10.4171 1.98636C10.4108 1.98565 10.4044 1.98495 10.3981 1.98495C10.2945 1.98495 10.167 2.08077 10.0515 2.08077C10.0057 2.08077 9.96128 2.06527 9.92112 2.02299C9.75555 1.84827 10.0127 1.4812 10.1508 1.38045C10.2565 1.31141 10.3805 1.27618 10.5038 1.27618C10.5947 1.27618 10.6841 1.2952 10.7659 1.33395C10.8391 1.37059 10.9032 1.41638 10.9681 1.47134C11.4732 1.86588 11.5373 2.49926 11.1519 3.0319C10.904 3.37078 10.5925 3.58989 10.2431 3.58989C10.062 3.58989 9.87109 3.53071 9.67382 3.39967C9.4533 3.25242 9.14119 3.14251 8.84881 3.14251C8.55642 3.14251 8.28306 3.25242 8.14074 3.54621C8.11326 3.60117 8.1041 3.67444 8.09495 3.73926C8.07663 3.85832 8.08579 3.98725 8.11327 4.10632C8.17738 4.34516 8.34295 4.54666 8.57263 4.63895C8.63674 4.65727 8.69169 4.68475 8.75651 4.71223C8.79315 4.73055 8.93124 4.75802 8.95871 4.79466C9.01367 4.85877 8.88544 4.99686 8.84881 5.05182C8.78469 5.15257 8.72974 5.25402 8.68324 5.35477C8.60081 5.53865 8.55501 5.72183 8.47188 5.89656C8.44158 5.96067 8.40001 5.98322 8.35422 5.98322C8.28799 5.98322 8.2119 5.93813 8.14145 5.90572C8.01322 5.85077 7.89345 5.79581 7.77438 5.73099C7.5447 5.60277 7.32418 5.45552 7.12268 5.28079C6.7373 4.9412 6.53509 4.44521 6.52593 3.91257L6.52452 3.91469ZM7.16707 21.4225C7.12057 21.4268 7.07125 21.4296 7.02052 21.4296C6.55482 21.4296 5.94962 21.2429 5.64314 20.9364C5.33667 20.6299 5.11051 20.0367 5.22112 19.5682V19.559C5.22112 19.5499 5.23028 19.5315 5.23028 19.5224C5.28524 19.3477 5.38669 19.192 5.51492 19.063C5.57903 19.0081 5.6523 18.944 5.72628 18.8975C5.89185 18.7875 6.07503 18.741 6.26807 18.741C6.46112 18.741 6.63514 18.7868 6.78239 18.8975C6.82818 18.9341 6.87398 18.9707 6.91061 19.0165C6.94725 19.0532 6.97473 19.0898 6.99304 19.1264C7.11211 19.3286 7.11211 19.5858 7.01136 19.7873C6.95782 19.9014 6.83523 20.0494 6.70559 20.0494C6.65768 20.0494 6.60836 20.0289 6.56186 19.9796C6.55271 19.9705 6.54355 19.9522 6.54355 19.943C6.53439 19.9064 6.57102 19.8789 6.58934 19.8514C6.61682 19.8148 6.6443 19.769 6.6443 19.714C6.6443 19.6041 6.55271 19.5027 6.44209 19.4843C6.428 19.4822 6.41391 19.4808 6.39982 19.4808C6.30471 19.4808 6.21382 19.533 6.15816 19.6126C6.01091 19.8056 6.06657 20.1269 6.24975 20.2826C6.3808 20.3946 6.55341 20.4348 6.72602 20.4348C6.80775 20.4348 6.88948 20.4256 6.96627 20.4108C7.0945 20.3833 7.21427 20.3284 7.3425 20.3284C7.4524 20.3284 7.50806 20.3742 7.57218 20.4566C7.60881 20.5116 7.64545 20.5757 7.69124 20.6313C7.69124 20.6405 7.7004 20.6405 7.7004 20.6497C7.77368 20.7412 7.83779 20.8427 7.92093 20.916C7.96672 20.9526 8.03083 21.0167 8.02167 21.0724C8.00336 21.1731 7.87513 21.2006 7.81031 21.2379C7.60811 21.3387 7.38759 21.3951 7.16707 21.4225ZM11.078 21.202C11.1421 21.5599 11.0597 21.946 10.8025 22.2208C10.5728 22.4688 10.2332 22.6153 9.88448 22.6893C9.77457 22.7104 9.65973 22.7273 9.5456 22.7273C9.41103 22.7273 9.27857 22.7034 9.15951 22.6336C9.01226 22.542 8.88403 22.4223 8.8016 22.2666C8.72269 22.1228 8.77272 21.9066 8.9256 21.9066C8.96858 21.9066 9.0193 21.9235 9.07708 21.9636C9.16867 22.0277 9.22433 22.1292 9.32508 22.1933C9.41244 22.2504 9.4843 22.275 9.54137 22.275C9.79712 22.275 9.77387 21.7952 9.64635 21.6149C9.43498 21.3028 9.01296 21.1189 8.68253 20.9357C8.37958 20.7701 8.04915 20.4954 7.84695 20.2107C7.47072 19.6781 7.23188 19.0813 7.31432 18.4205C7.33263 18.2274 7.37843 18.0351 7.46156 17.8512C7.544 17.6765 7.7004 17.5025 7.85611 17.401C8.06747 17.2636 8.45285 17.2354 8.70085 17.208C8.86712 17.1904 9.03692 17.1798 9.2053 17.1798C9.2976 17.1798 9.38989 17.1826 9.48148 17.1896C9.60055 17.208 9.83023 17.208 9.84855 17.3735C9.86687 17.4834 9.7478 17.5849 9.68298 17.6673C9.59139 17.7956 9.4991 17.9245 9.40751 18.0619C9.24194 18.3099 9.12287 18.5945 9.15951 18.9066C9.19614 19.1729 9.36171 19.3843 9.54489 19.5766C9.7013 19.7422 9.91196 19.8521 10.105 19.9712C10.2614 20.0628 10.408 20.1734 10.5453 20.3016C10.8117 20.5404 11.0139 20.8441 11.078 21.202ZM13.1071 19.7788C13.0338 19.7056 12.9788 19.6323 12.914 19.5492C12.7393 19.3103 12.5836 19.0623 12.4737 18.7868C12.3271 18.4198 12.2531 18.0436 12.2531 17.6391C12.2531 17.4095 12.2898 17.1889 12.3631 16.9783C12.3997 16.8684 12.4455 16.7578 12.4913 16.657C12.5188 16.6021 12.5371 16.5105 12.592 16.4914C12.6019 16.4879 12.6125 16.4858 12.6223 16.4858C12.685 16.4858 12.7456 16.5527 12.7851 16.5922C12.9506 16.7669 13.1155 16.9318 13.2811 17.1065C13.3635 17.1889 13.4833 17.3179 13.4741 17.4369C13.4558 17.5934 13.41 17.7307 13.4283 17.8963C13.4741 18.2451 13.6855 18.5572 13.8968 18.8326C13.9793 18.9242 14.2822 19.1631 14.1998 19.2828C14.0624 19.5034 13.7961 19.6133 13.5847 19.7514C13.4931 19.8063 13.4008 19.9078 13.2909 19.9078C13.2635 19.9078 13.236 19.8986 13.2177 19.8986C13.181 19.8711 13.1345 19.8155 13.1071 19.7788ZM17.0454 19.0355C17.0821 18.9898 17.1279 18.9531 17.1737 18.9165C17.3202 18.8066 17.5041 18.7601 17.688 18.7601C17.881 18.7601 18.0642 18.8059 18.2298 18.9165C18.303 18.9623 18.3763 19.0264 18.4411 19.082C18.5694 19.2103 18.6708 19.3667 18.7258 19.5414C18.7258 19.5506 18.7349 19.5689 18.7349 19.578V19.5872C18.8448 20.0557 18.625 20.6433 18.3129 20.9554C18.0064 21.2619 17.4012 21.4486 16.9355 21.4486C16.8848 21.4486 16.8362 21.4465 16.789 21.4416C16.5685 21.4141 16.3486 21.3591 16.1464 21.2577C16.0823 21.221 15.9534 21.1936 15.9351 21.0921C15.9168 21.0371 15.99 20.9822 16.0358 20.9357C16.1183 20.8624 16.1831 20.761 16.2564 20.6694C16.2564 20.6602 16.2655 20.6602 16.2655 20.6511C16.3113 20.5961 16.3479 20.532 16.3846 20.4763C16.4487 20.3939 16.5036 20.3481 16.6143 20.3481C16.7425 20.3481 16.8623 20.4031 16.9905 20.4305C17.0673 20.4453 17.149 20.4545 17.2307 20.4545C17.4026 20.4545 17.576 20.4143 17.707 20.3023C17.8909 20.1459 17.9458 19.8246 17.7986 19.6323C17.7429 19.5527 17.652 19.5005 17.5569 19.5005C17.5428 19.5005 17.5288 19.502 17.5147 19.5041C17.4048 19.5224 17.3125 19.6231 17.3125 19.7337C17.3125 19.7887 17.3308 19.8345 17.3674 19.8711C17.3857 19.8986 17.4224 19.9261 17.4132 19.9627C17.4132 19.9719 17.404 19.9902 17.3949 19.9994C17.3477 20.0487 17.2991 20.0691 17.2512 20.0691C17.1208 20.0691 16.9989 19.9205 16.9454 19.807C16.8446 19.6048 16.8446 19.3477 16.9637 19.1462C16.982 19.1095 17.0088 19.0722 17.0454 19.0355ZM22.209 16.3209C22.1872 16.3604 22.1639 16.3992 22.1407 16.4372C22.104 16.4922 22.0582 16.5563 22.0216 16.6119C21.5073 17.3369 20.6534 17.8146 19.7629 17.8878C19.66 17.8963 19.5564 17.9005 19.4543 17.9005C19.3289 17.9005 19.2049 17.8935 19.0837 17.8787C18.7716 17.8421 18.4686 17.7779 18.1657 17.6948C17.8719 17.6215 17.5689 17.5384 17.2843 17.4376C17.0638 17.3552 16.8531 17.208 16.715 17.0248C16.6692 16.9515 16.6234 16.8775 16.5776 16.8043C16.4952 16.657 16.4121 16.5105 16.3205 16.3731C16.2014 16.1892 16.0816 16.0152 15.9534 15.8405C15.8893 15.7672 15.8343 15.6932 15.7878 15.6108C15.7695 15.5741 15.7054 15.51 15.7237 15.4734C15.7371 15.4332 15.7914 15.4198 15.859 15.4198C15.9781 15.4198 16.1394 15.4614 16.1922 15.4734C16.3944 15.5192 16.5868 15.5925 16.789 15.6573C17.1835 15.7763 17.5605 15.9327 17.9275 16.0976C18.3326 16.2878 18.7983 16.4337 19.2422 16.4337C19.2908 16.4337 19.3394 16.4323 19.3873 16.428C19.4789 16.4189 19.5712 16.4006 19.6536 16.3822C19.6811 16.3731 19.7086 16.3639 19.7361 16.3548C19.7361 16.3487 19.7391 16.3456 19.7452 16.3456C19.791 16.3273 19.8368 16.309 19.8826 16.2907C19.8918 16.2815 19.9009 16.2815 19.9101 16.2723C19.9284 16.2632 19.9559 16.2449 19.9742 16.2357C19.9834 16.2265 19.9925 16.2265 20.0017 16.2174C20.02 16.2082 20.0383 16.1899 20.0566 16.1807C20.5435 15.8412 20.8831 15.1895 20.497 14.6293C20.249 14.2714 19.753 14.1517 19.2852 14.1425C19.028 14.1425 18.78 14.17 18.5785 14.2066C18.11 14.2982 17.6788 14.5096 17.2286 14.6751C16.7862 14.8337 16.3444 14.9541 15.8745 14.9541C15.8273 14.9541 15.7801 14.9527 15.7322 14.9506C15.6039 14.9598 15.475 14.9689 15.3468 15.0056C15.1904 15.0514 15.0805 15.1895 15.0622 15.3543C15.0347 15.6298 15.2552 15.8778 15.4201 16.0701C15.6314 16.3181 15.8146 16.5844 15.9893 16.8599C16.2373 17.2545 16.4853 17.6497 16.6044 18.0992C16.6136 18.1084 16.6136 18.1175 16.6136 18.1267C16.6227 18.1542 16.6319 18.1908 16.641 18.2274C16.641 18.2458 16.6502 18.2732 16.6502 18.2916C16.6502 18.3099 16.6593 18.319 16.6593 18.3373C16.6593 18.3648 16.6685 18.3831 16.6685 18.4106C16.6868 18.6037 16.6868 18.796 16.6593 18.9799C16.5769 19.8246 16.0351 20.5221 15.3003 20.9265C14.9607 21.1196 14.5471 21.2936 14.3365 21.6057C14.209 21.7854 14.1857 22.2659 14.4415 22.2659C14.4985 22.2659 14.5704 22.2419 14.6577 22.1841C14.7585 22.12 14.8142 22.0186 14.9057 21.9545C14.9642 21.9143 15.0142 21.8974 15.0572 21.8974C15.2101 21.8974 15.2601 22.1137 15.1812 22.2574C15.0988 22.4138 14.9699 22.5329 14.8233 22.6245C14.7042 22.6942 14.5718 22.7182 14.4372 22.7182C14.3231 22.7182 14.2075 22.7013 14.0983 22.6801C13.7496 22.6069 13.41 22.4596 13.1803 22.2116C12.9323 21.9361 12.8407 21.5508 12.9048 21.1929C12.9598 20.8441 13.1712 20.5503 13.4283 20.3023C13.5657 20.1741 13.713 20.0635 13.8687 19.9719C14.0617 19.8437 14.2632 19.7422 14.4288 19.5773C14.5662 19.44 14.6951 19.2835 14.7684 19.0997V19.0905C14.7867 19.0355 14.805 18.9714 14.8142 18.9066C14.8233 18.87 14.8233 18.8333 14.8233 18.7967C14.7958 18.6037 14.7317 18.4205 14.6303 18.2549C14.2998 17.7223 13.9603 17.227 13.5375 16.7676C13.143 16.3456 12.6928 15.932 12.3257 15.5009C12.2616 15.4276 12.1883 15.3445 12.096 15.3261C12.0826 15.324 12.0686 15.3226 12.0559 15.3226C11.9086 15.3226 11.7853 15.4558 11.6923 15.5741C11.6282 15.6657 11.5549 15.7489 11.4901 15.8405C11.4683 15.8715 11.4486 15.8834 11.4302 15.8834C11.3718 15.8834 11.3281 15.7587 11.2795 15.7024C11.1787 15.5925 11.0315 15.5002 10.9124 15.4269C10.6461 15.2613 10.3523 15.1606 10.0585 15.0965C9.50755 14.9865 8.93828 14.9774 8.37817 14.9774C7.81806 14.9774 7.34038 14.895 6.82677 14.7019C6.37657 14.5272 5.94539 14.3165 5.47687 14.2334C5.28524 14.2003 5.04922 14.1735 4.80544 14.1735C4.31297 14.1735 3.78809 14.2813 3.53022 14.6554C3.14484 15.2155 3.48443 15.8672 3.97056 16.2068C4.21574 16.3815 4.50179 16.4506 4.79981 16.4506C5.23874 16.4506 5.70514 16.3005 6.10955 16.1145C6.986 15.7157 7.90472 15.3938 8.87065 15.3938C9.01719 15.3938 9.16514 15.4015 9.3138 15.417C9.62591 15.4537 9.91971 15.5269 10.2043 15.6559C10.4798 15.7749 10.737 15.8855 10.9667 16.0779C11.0491 16.142 11.1231 16.2153 11.1963 16.2984C11.233 16.335 11.2696 16.3808 11.2971 16.4175C11.2971 16.4266 11.3062 16.4358 11.3154 16.445C11.407 16.5549 11.481 16.6838 11.5451 16.812C11.9488 17.6293 11.903 18.8136 11.2421 19.502C11.0674 19.6858 10.8476 19.8232 10.6087 19.9057C10.1959 19.7401 9.82812 19.4555 9.57096 19.0884C9.5618 19.0792 9.55264 19.0609 9.55264 19.0426C9.5618 19.0243 9.58012 19.0151 9.59844 19.006C9.91055 18.8587 10.2593 18.6847 10.4523 18.3817C10.6912 18.0055 10.5806 17.4637 10.2959 17.1424C10.1029 16.9311 9.82741 16.8578 9.55264 16.8303C9.45119 16.8198 9.34833 16.8141 9.24546 16.8141C9.08694 16.8141 8.92842 16.8261 8.77272 16.8486C7.99208 16.9494 7.24879 17.234 6.5048 17.482C5.87353 17.6899 5.20703 17.8907 4.54265 17.8907C4.44401 17.8907 4.34538 17.8864 4.24674 17.8766C3.36536 17.7941 2.52978 17.3165 2.01546 16.6007C1.49199 15.8757 1.30881 14.9112 1.52862 14.0481C1.61105 13.7177 1.74914 13.4056 1.97883 13.1576C2.34096 12.7729 2.8898 12.6235 3.43088 12.6235C3.54784 12.6235 3.66409 12.6306 3.77822 12.6432C4.38413 12.7074 4.94424 12.9554 5.55014 13.0378C5.69105 13.0575 5.83478 13.0681 5.98062 13.0681C6.50902 13.0681 7.04941 12.9307 7.46016 12.6066C7.52427 12.5608 7.57922 12.4784 7.61656 12.4136C7.70815 12.2572 7.71731 12.074 7.68984 11.8993C7.66236 11.7337 7.58909 11.5963 7.50595 11.4772C7.49679 11.4589 7.48763 11.4498 7.47847 11.4406C7.35941 11.2842 7.21216 11.1468 7.07477 10.9812C7.0015 10.8896 6.93739 10.779 6.87257 10.6874C6.72602 10.4669 6.60625 10.2189 6.52382 9.96247C6.35825 9.45731 6.32162 8.90636 6.42307 8.38359C6.5055 7.98905 6.57948 7.50221 6.11096 7.22673C5.92707 7.12598 5.74389 7.10767 5.54169 7.08935C5.50858 7.08583 5.47546 7.08442 5.44305 7.08442C5.2014 7.08442 4.96608 7.17037 4.78008 7.29155C4.37638 7.54871 4.03609 7.85166 3.99029 8.35682C3.97197 8.57734 4.01777 8.81618 4.13754 9.01768C4.26577 9.2382 4.5046 9.37558 4.73429 9.4862C5.32187 9.77083 5.90946 10.0829 6.23989 10.6614C6.44209 11.0101 6.41462 11.4695 6.26737 11.8274C6.12012 12.2036 5.78053 12.5989 5.35851 12.6447C5.31905 12.6489 5.2796 12.6503 5.24015 12.6503C4.90831 12.6503 4.56801 12.5157 4.33058 12.286C4.08259 12.0472 3.95436 11.6985 4.17418 11.3955C4.24252 11.2962 4.41301 11.2095 4.54758 11.2095C4.57506 11.2095 4.60042 11.213 4.62367 11.2208C4.64199 11.2299 4.65115 11.2391 4.66031 11.2483C4.67863 11.2757 4.66031 11.3032 4.64199 11.3215C4.56872 11.4131 4.47642 11.5146 4.48558 11.6245C4.5039 11.7619 4.65115 11.8358 4.78854 11.845C4.79981 11.8464 4.81108 11.8464 4.82306 11.8464C5.10135 11.8464 5.62342 11.5477 5.4036 11.2574C5.18308 10.9636 4.51306 10.7889 4.17347 10.6698C3.74229 10.5226 3.30125 10.376 2.94334 10.1006C2.53048 9.77929 2.16271 9.49465 2.01617 8.9895C1.90626 8.59495 1.87878 8.19055 1.94289 7.80516C1.99785 7.45641 2.12678 7.12599 2.31912 6.83219C2.85175 6.02408 3.82472 5.6387 4.7519 5.53795C4.89915 5.52386 5.04781 5.51752 5.19717 5.51752C5.34653 5.51752 5.49589 5.52456 5.64244 5.53795C6.17507 5.5929 6.73518 5.71268 7.14804 6.07974C7.48763 6.37353 7.71731 6.77724 7.8089 7.21828C7.86386 7.4388 7.87302 7.66848 7.86386 7.89746C7.8547 8.1363 7.88218 8.36598 7.90965 8.60411C8.0104 9.44886 8.37817 10.2661 8.93758 10.9178C9.05665 11.0552 9.17642 11.1933 9.30464 11.3215C9.38708 11.404 9.47937 11.4779 9.58012 11.542C9.64423 11.5878 9.7175 11.6428 9.79148 11.6893C9.81614 11.702 9.8873 11.752 9.9338 11.752C9.95564 11.752 9.97255 11.7407 9.97537 11.7076C9.98453 11.6527 9.93873 11.6069 9.90209 11.5702C9.59914 11.2581 9.48923 10.753 9.48923 10.3309C9.48923 10.2027 9.47092 10.0738 9.44344 9.95472C9.54419 10.0555 9.66396 10.1294 9.80134 10.1936C9.86546 10.221 9.93873 10.2485 10.0127 10.2668C10.0005 10.2424 9.98523 10.2241 9.96691 10.2119C9.80134 10.102 9.64564 9.96388 9.52657 9.79901C9.4533 9.69827 9.41667 9.59681 9.37932 9.4869C9.34269 9.39531 9.35185 9.33965 9.35185 9.2389C9.4526 9.29386 9.6548 9.29386 9.72807 9.38615C9.74639 9.39531 9.74639 9.42279 9.74639 9.44111C9.76964 9.66374 9.98523 9.88074 10.2114 9.88074C10.2551 9.88074 10.2995 9.87229 10.3431 9.85467C10.4439 9.80888 10.5179 9.70742 10.5453 9.59752C10.5637 9.71658 10.5728 9.8272 10.5911 9.94626C10.6186 10.1576 10.5728 10.3965 10.4995 10.598C10.4629 10.717 10.3805 10.8002 10.3248 10.9009C10.453 10.8734 10.5911 10.7262 10.6644 10.6163C10.8208 10.3958 10.8758 10.1661 10.8575 9.90047C10.8391 9.65247 10.7292 9.46013 10.5545 9.30372C10.3248 9.09236 10.0402 8.99161 9.73723 8.9275C9.48923 8.87254 9.12217 8.89086 8.9566 8.66118C8.81006 8.45898 8.78187 8.1835 8.7544 7.94537C8.72692 7.60578 8.72692 7.25703 8.7544 6.91744C8.79103 6.54122 8.85515 6.16429 8.96576 5.80638C9.02987 5.5767 9.13133 5.33786 9.26871 5.1272C9.39694 4.925 9.57167 4.74182 9.73723 4.55793C9.93028 4.35573 10.1874 4.17255 10.4164 4.00698C10.8567 3.70403 11.3527 3.41939 11.9037 3.39192H11.922C11.9495 3.40108 11.9678 3.40108 11.9953 3.40108C12.0228 3.39192 12.0411 3.39192 12.0686 3.39192H12.0869C12.6378 3.41024 13.1338 3.69487 13.5742 4.00698C13.813 4.16339 14.061 4.34657 14.2533 4.55793C14.4189 4.73266 14.5838 4.91584 14.7219 5.1272C14.8501 5.32941 14.9515 5.5774 15.0248 5.80638C15.1347 6.16429 15.1995 6.54051 15.2362 6.91744C15.2728 7.25703 15.2728 7.60578 15.2362 7.94537C15.2087 8.18421 15.1812 8.45968 15.034 8.66118C14.8684 8.89086 14.5013 8.87254 14.2533 8.9275C13.9504 8.99161 13.6658 9.09306 13.4361 9.30372C13.2705 9.46929 13.1514 9.66163 13.1331 9.90047C13.1148 10.1668 13.1789 10.4056 13.3262 10.6163C13.3994 10.717 13.5375 10.8643 13.6658 10.9009C13.6108 10.791 13.5284 10.7079 13.491 10.598C13.4178 10.3958 13.372 10.1668 13.3994 9.94626C13.4086 9.8272 13.4269 9.71658 13.4452 9.59752C13.4727 9.69826 13.546 9.80888 13.6474 9.85467C13.6911 9.87229 13.7348 9.88074 13.7785 9.88074C14.0025 9.88074 14.2132 9.66445 14.2442 9.44111C14.2442 9.42279 14.2533 9.40447 14.2625 9.38615C14.3358 9.29456 14.538 9.29456 14.6387 9.2389C14.6387 9.33965 14.6387 9.38615 14.6112 9.4869C14.5746 9.60597 14.538 9.69827 14.4647 9.79901C14.3456 9.96458 14.1892 10.102 14.0244 10.2119C14.006 10.2241 13.9908 10.2424 13.9786 10.2668C14.0518 10.2485 14.1251 10.221 14.1899 10.1936C14.3273 10.1294 14.4471 10.0463 14.5478 9.95472C14.5204 10.0738 14.502 10.2027 14.502 10.3309C14.4929 10.753 14.3921 11.249 14.0892 11.5702C14.0525 11.6069 14.0068 11.6527 14.0159 11.7076C14.0159 11.7351 14.0342 11.7443 14.0617 11.7443C14.1533 11.7443 14.383 11.5695 14.4196 11.542C14.5204 11.4779 14.6127 11.4047 14.6951 11.3215C14.8233 11.1933 14.9431 11.0552 15.0622 10.9178C15.6223 10.2661 15.9893 9.45802 16.0901 8.60411C16.1176 8.36527 16.145 8.13559 16.1359 7.89746C16.1267 7.66778 16.145 7.4381 16.1908 7.21828C16.2916 6.77794 16.5213 6.37353 16.8517 6.07974C17.2645 5.71268 17.8155 5.5929 18.3573 5.53795C18.494 5.52104 18.6321 5.51399 18.7709 5.51399C18.9308 5.51399 19.0907 5.52315 19.2478 5.53795C20.175 5.6387 21.148 6.03395 21.6806 6.83219C21.8737 7.12599 22.0019 7.45641 22.0568 7.80516C22.121 8.19055 22.0935 8.59495 21.9836 8.9895C21.8363 9.49465 21.4784 9.77929 21.0564 10.1006C20.6985 10.376 20.2574 10.5226 19.8263 10.6698C19.4867 10.7889 18.8167 10.9545 18.5961 11.2574C18.3735 11.5519 18.9125 11.8457 19.1872 11.8457C19.1957 11.8457 19.2034 11.8457 19.2112 11.845C19.3486 11.8358 19.505 11.7626 19.5141 11.6245C19.5233 11.5054 19.4317 11.4131 19.3577 11.3215C19.3394 11.3032 19.3303 11.2666 19.3394 11.2483C19.3486 11.2299 19.3577 11.2208 19.3761 11.2208C19.3972 11.2151 19.4197 11.2123 19.4444 11.2123C19.5804 11.2123 19.7558 11.2941 19.8263 11.3948C20.0468 11.6978 19.9179 12.0465 19.6699 12.2853C19.4359 12.5108 19.1034 12.6517 18.7772 12.6517C18.7321 12.6517 18.6863 12.6489 18.6412 12.6432C18.2192 12.5975 17.8789 12.2029 17.7324 11.826C17.595 11.4681 17.5576 11.0087 17.7598 10.66C18.0903 10.0815 18.6779 9.76026 19.2746 9.48479C19.5043 9.37488 19.7431 9.23679 19.8714 9.01627C19.9904 8.81407 20.0461 8.57593 20.0278 8.34625C19.982 7.85025 19.6515 7.53814 19.238 7.28098C19.052 7.1598 18.8167 7.07385 18.575 7.07385C18.5419 7.07385 18.5095 7.07526 18.4764 7.07878C18.2742 7.08794 18.091 7.11542 17.9071 7.21617C17.4386 7.49164 17.5217 7.98764 17.595 8.37302C17.6957 8.8965 17.6591 9.44745 17.4942 9.9519C17.4118 10.2091 17.292 10.4479 17.1455 10.6769C17.0814 10.7776 17.0173 10.8882 16.9433 10.9707C16.8151 11.1362 16.6586 11.2736 16.5396 11.43C16.5304 11.4483 16.5213 11.4575 16.5121 11.4667C16.4205 11.5857 16.3557 11.7238 16.3282 11.8887C16.2916 12.0634 16.3099 12.2557 16.4015 12.403C16.4473 12.4671 16.4931 12.5502 16.5579 12.596C16.9341 12.8898 17.4118 13.0272 17.8888 13.0554C18.036 13.0554 18.1826 13.0462 18.32 13.0279C18.5954 12.9913 18.8709 12.918 19.1372 12.844C19.2746 12.8074 19.4035 12.7708 19.5409 12.7341C19.7614 12.6792 19.9813 12.6609 20.2018 12.6334C20.3166 12.6214 20.4336 12.6151 20.5498 12.6151C20.8887 12.6151 21.2283 12.6686 21.5425 12.7982C21.7722 12.8898 22.0019 13.0462 22.1393 13.2576C22.2865 13.4873 22.3964 13.7628 22.4605 14.0382C22.4894 14.1622 22.5113 14.2891 22.5303 14.418C22.6268 15.0697 22.5296 15.7432 22.2076 16.3188L22.209 16.3209Z" fill="white"/>
</svg>
