<svg width="24" height="24" viewBox="0 0 24 24" fill="none" xmlns="http://www.w3.org/2000/svg">
<path d="M12 23C18.0751 23 23 18.0751 23 12C23 5.92487 18.0751 1 12 1C5.92487 1 1 5.92487 1 12C1 18.0751 5.92487 23 12 23Z" fill="#F7B636"/>
<path d="M11.9997 21.6C17.3017 21.6 21.5997 17.3019 21.5997 12C21.5997 6.69803 17.3017 2.39996 11.9997 2.39996C6.69779 2.39996 2.39972 6.69803 2.39972 12C2.39972 17.3019 6.69779 21.6 11.9997 21.6Z" fill="url(#paint0_linear_85_968)"/>
<path d="M13.4676 19.2184C13.086 19.1492 12.7055 19.0367 12.3411 18.8854C12.3287 18.88 12.3249 18.8746 12.3033 18.8854C12.2817 18.8962 12.1898 18.9411 12.1574 18.9573C12.1249 18.9735 12.0963 19.0049 12.153 19.0384C12.5157 19.274 12.8784 19.5908 13.0806 19.7951C13.1093 19.8249 13.1471 19.8384 13.1849 19.8384C13.2228 19.8384 13.2795 19.8151 13.3065 19.7719C13.3352 19.727 13.4433 19.5362 13.5433 19.4497L13.5444 19.4486C13.6109 19.3903 13.5784 19.2384 13.4676 19.2184Z" fill="#F7B636"/>
<path d="M11.1617 18.6091C11.2969 18.6296 11.4385 18.682 11.5806 18.7415C11.6266 18.7647 11.6628 18.7728 11.6817 18.7647C11.7006 18.7566 11.7655 18.728 11.8006 18.7118C11.8358 18.6955 11.8374 18.6469 11.8033 18.628C11.6736 18.5577 11.5466 18.4826 11.4228 18.4031C11.299 18.3236 11.1785 18.2393 11.0617 18.1501C10.9925 18.0961 10.8287 17.9874 10.7325 17.9377C10.6028 17.8674 10.3574 17.8064 10.1871 17.7945C9.94334 17.7766 9.60118 17.9285 9.39253 18.0896C9.07848 18.3577 8.68442 18.5226 8.29199 18.5701L8.29361 18.5728C8.63902 18.8555 9.06226 19.0128 9.49686 19.0399C9.72821 19.0534 9.96118 19.0291 10.186 18.968L10.2552 18.9474C10.2785 18.9404 10.3012 18.9323 10.3228 18.9242C10.4579 18.8766 10.5909 18.8172 10.7152 18.7426C10.8169 18.6831 11.0309 18.588 11.1617 18.6085V18.6091Z" fill="#F7B636"/>
<path d="M9.2039 17.2417C9.08336 16.9304 8.98984 16.5634 8.72336 16.3061C8.46606 16.0569 8.15471 15.8553 7.84876 15.7634C7.76876 16.1088 7.84876 16.5974 8.04228 17.0131C8.19687 17.3434 8.42552 17.5288 8.70011 17.6574C8.93687 17.7682 9.23363 17.8185 9.49903 17.6699C9.53471 17.652 9.57633 17.6293 9.57633 17.6012C9.57633 17.5828 9.55795 17.5617 9.50714 17.5385C9.38011 17.4801 9.32444 17.5536 9.2039 17.2423V17.2417Z" fill="#F7B636"/>
<path d="M8.62364 18.0496C8.52094 17.9901 8.42742 17.909 8.36094 17.8101C8.1685 17.488 7.82742 17.2972 7.46634 17.2442C7.0658 17.1858 6.6404 17.2982 6.3631 17.5869C6.58094 17.9809 6.92904 18.2447 7.3204 18.4355H7.32202C7.59823 18.5642 7.9204 18.5318 8.16688 18.3393C8.18202 18.3269 8.19553 18.315 8.21013 18.3026C8.30202 18.2296 8.37661 18.1955 8.51607 18.1955C8.59715 18.1955 8.71769 18.109 8.62418 18.0496H8.62364Z" fill="#F7B636"/>
<path d="M7.11616 16.9033C7.16643 16.9184 7.19075 16.8395 7.14211 16.8006C7.09346 16.7611 7.03778 16.7141 6.97832 16.66C6.91886 16.606 6.83616 16.4919 6.81184 16.4395C6.43832 15.6206 5.84643 15.0033 4.90859 14.9341C4.80967 15.6487 5.28643 16.9389 6.10373 16.92C6.30967 16.9157 6.48156 16.8779 6.69238 16.8714C6.81562 16.8671 7.06589 16.8892 7.11616 16.9038V16.9033Z" fill="#F7B636"/>
<path d="M7.60876 16.5369C7.50444 16.3731 7.52498 16.1444 7.53579 16.0493C7.6493 15.2915 7.43146 14.625 6.86011 14.0974C6.65687 14.5769 6.59471 15.172 6.76281 15.6488C6.89795 16.0331 7.14336 16.3342 7.49795 16.6293L7.49903 16.6304C7.57363 16.7023 7.71309 16.7007 7.60876 16.5369Z" fill="#F7B636"/>
<path d="M6.44744 14.4449C6.53123 14.3124 6.51555 14.4168 6.6469 13.9227C6.77825 13.4287 6.75393 12.8454 6.51177 12.3616C6.0869 12.7703 5.86474 13.3946 5.89015 13.9876C5.90528 14.3141 5.99447 14.6319 6.16636 14.8984C6.19231 14.9389 6.23285 15.0308 6.25555 15.0838C6.27879 15.1368 6.44258 15.1514 6.38798 15.0119C6.33393 14.8724 6.33501 14.6222 6.44636 14.446L6.44744 14.4443V14.4449Z" fill="#F7B636"/>
<path d="M5.36103 14.613C5.45292 14.7849 5.68751 14.7211 5.64643 14.5859C5.54103 14.154 5.58805 13.6113 5.76157 13.0903C5.83995 12.8546 5.94427 12.6232 6.07292 12.4081L6.07508 12.4038C6.18049 12.2265 6.4994 11.8746 6.54805 11.7654C6.5967 11.6557 6.63886 11.5394 6.64697 11.4162C6.66049 11.2022 6.59562 10.9789 6.43724 10.8113C6.0513 10.96 5.72535 11.2335 5.49238 11.5719C5.19886 12.0011 5.054 12.5357 5.13238 13.053C5.08643 12.7459 4.9713 12.4508 4.79778 12.1919C4.66373 11.9903 4.49454 11.8103 4.2967 11.6654C4.09508 12.0351 4.00589 12.5751 4.05995 13.054C4.11562 13.5373 4.33346 13.954 4.80319 14.0935C5.17022 14.2032 5.23508 14.3789 5.36103 14.6135V14.613Z" fill="#F7B636"/>
<path d="M4.60273 11.5222C4.73679 11.633 4.99679 12 5.06273 11.8352C5.08706 11.7741 5.1076 11.6065 5.16706 11.513C5.22652 11.4195 5.3103 11.2897 5.41733 11.1827C5.5103 11.0735 5.56435 10.9762 5.59679 10.8752C5.62868 10.7741 5.63895 10.6692 5.64219 10.5454C5.65841 9.98218 5.50543 9.22164 5.12381 8.5838C4.74868 8.97786 4.393 9.51245 4.24273 10.0633C4.14652 10.4168 4.12922 10.7822 4.26868 11.107C4.33787 11.2654 4.46922 11.4114 4.60327 11.5227L4.60273 11.5222Z" fill="#F7B636"/>
<path d="M6.05567 10.4108C6.15891 10.4887 6.25621 10.3525 6.44 10.2768C6.59783 10.193 6.73567 10.1103 6.8627 9.99894C6.98972 9.88759 7.10486 9.74759 7.21729 9.54867C7.41513 9.19678 7.52324 8.97354 7.54918 8.54273C7.55351 8.46705 7.55351 8.38705 7.54918 8.30975C7.34216 8.3357 7.1281 8.40165 6.92756 8.50057C6.70162 8.61138 6.49189 8.76597 6.3281 8.95137C6.20918 9.08543 6.11297 9.23678 6.05189 9.40219C5.98702 9.57678 5.96108 9.76759 5.98973 9.96813C6.01027 10.0762 6.01675 10.1887 6.00864 10.2984C6.00594 10.3298 5.98216 10.3552 6.05621 10.4108H6.05567Z" fill="#F7B636"/>
<path d="M5.62467 9.07068C5.66143 9.15446 5.77872 9.16527 5.82791 9.08852C5.99872 8.73933 6.29764 8.58473 6.37224 8.37122C6.4144 8.25122 6.4398 8.16095 6.45872 8.06581C6.47818 7.97014 6.49116 7.8696 6.50899 7.7296C6.56467 7.2923 6.52251 6.84419 6.40359 6.41663C5.98791 6.66582 5.69007 7.05446 5.5317 7.49014C5.42629 7.78095 5.38143 8.0923 5.40467 8.39716C5.42251 8.62852 5.52791 8.85879 5.62521 9.07122L5.62467 9.07068Z" fill="#F7B636"/>
<path d="M6.90556 8.10171C7.02178 8.05955 7.03692 8.05577 7.35746 7.99469C7.67854 7.93361 7.96124 7.73901 8.14827 7.46658C8.32016 7.21469 8.39854 6.92225 8.37692 6.60441C8.35637 6.28604 8.32935 6.10874 8.34556 5.86387C8.3661 5.5509 8.42935 5.23847 8.53637 4.93793C7.51043 5.19793 6.94178 5.71901 6.78719 6.93036C6.73043 7.37415 6.81962 7.63955 6.71962 7.97955C6.68016 8.08766 6.78881 8.14333 6.90502 8.10117L6.90556 8.10171Z" fill="#F7B636"/>
<path d="M9.032 6.84377C9.31902 6.93026 9.60173 6.84107 9.84984 6.63404C10.1461 6.38485 10.379 6.10756 10.4752 5.66323C10.3579 5.64161 10.2401 5.6308 10.1228 5.6308C9.892 5.6308 9.66443 5.6735 9.44875 5.76323C9.22119 5.85783 9.01038 6.00161 8.83578 6.19242C8.65957 6.36323 8.58929 6.62431 8.65686 6.85458C8.72335 7.01729 8.74497 6.75729 9.032 6.84377Z" fill="#F7B636"/>
<path d="M8.93489 5.60109C9.06462 5.51569 9.32138 5.52974 9.483 5.52271C9.84462 5.49839 10.2073 5.32758 10.4808 5.08433C10.6176 4.96271 10.7316 4.8346 10.823 4.68596C10.9143 4.53731 10.9825 4.36758 11.0279 4.16271C10.6933 4.12055 9.65002 4.27352 9.15813 4.62433C8.86192 4.83568 8.65056 5.13623 8.70894 5.60596C8.72354 5.6692 8.80516 5.68704 8.93489 5.60163V5.60109Z" fill="#F7B636"/>
<path d="M13.5044 5.08378C13.7779 5.32756 14.1406 5.49783 14.5023 5.52215C14.666 5.52215 14.9206 5.51513 15.0504 5.60053C15.1801 5.68594 15.2574 5.66702 15.2763 5.60486C15.3347 5.13513 15.1233 4.83459 14.8271 4.62324C14.3358 4.27243 13.292 4.11945 12.9574 4.16161C13.0482 4.57188 13.2309 4.83999 13.5044 5.08324V5.08378Z" fill="#F7B636"/>
<path d="M14.5367 5.7638C14.2118 5.62867 13.8599 5.60002 13.5107 5.6638C13.5589 5.88597 13.641 6.0665 13.7486 6.22218C13.8561 6.37786 13.988 6.50975 14.1367 6.63461C14.3843 6.84164 14.6675 6.93083 14.9545 6.84434C15.2416 6.75786 15.2632 7.01786 15.3297 6.85515C15.3972 6.62488 15.327 6.3638 15.1507 6.19299C14.9761 6.00218 14.7648 5.8584 14.5378 5.7638H14.5367Z" fill="#F7B636"/>
<path d="M15.6073 6.60442C15.5857 6.9228 15.6641 7.21469 15.836 7.46659C16.023 7.73848 16.3057 7.93361 16.6268 7.9947C16.9479 8.05578 16.9625 8.05956 17.0787 8.10172C17.1949 8.14388 17.3035 8.08821 17.2641 7.9801C17.1641 7.6401 17.2533 7.37523 17.1965 6.93091C17.0419 5.71956 16.4738 5.19794 15.4473 4.93848C15.5544 5.23902 15.6181 5.55145 15.6381 5.86442C15.6544 6.10929 15.6273 6.28659 15.6068 6.60496L15.6073 6.60442Z" fill="#F7B636"/>
<path d="M17.6131 8.37066C17.6877 8.58472 17.9866 8.73877 18.1574 9.08796C18.206 9.16526 18.3239 9.15445 18.3606 9.07012C18.4579 8.85769 18.5639 8.62742 18.5812 8.39607C18.6044 8.09174 18.5595 7.78039 18.4541 7.48904C18.2958 7.05336 17.9979 6.66472 17.5823 6.41553C17.4633 6.84309 17.4212 7.2912 17.4768 7.7285C17.512 8.0085 17.5298 8.13066 17.6136 8.37012L17.6131 8.37066Z" fill="#F7B636"/>
<path d="M17.9336 9.40219C17.8725 9.23678 17.7763 9.08543 17.6574 8.95137C17.4936 8.76597 17.2839 8.61138 17.0579 8.50057C16.8574 8.40165 16.6439 8.33516 16.4363 8.30975C16.432 8.38705 16.432 8.46705 16.4363 8.54273C16.4622 8.973 16.5703 9.19678 16.7682 9.54867C16.993 9.94651 17.2298 10.1092 17.5455 10.2768C17.6909 10.3368 17.7822 10.4346 17.8649 10.4346C17.8871 10.4346 17.9087 10.4281 17.9303 10.4108C17.992 10.3622 17.9806 10.3298 17.9779 10.2984C17.9698 10.1887 17.9763 10.0762 17.9968 9.96813C18.0255 9.76759 17.9995 9.57678 17.9347 9.40219H17.9336Z" fill="#F7B636"/>
<path d="M18.3431 10.5449C18.3502 10.7924 18.3826 10.9643 18.568 11.1827C18.6215 11.2362 18.6691 11.2957 18.7107 11.353C18.7523 11.4108 18.7886 11.4665 18.8183 11.513C18.8777 11.6065 18.8983 11.7741 18.9226 11.8351C18.9891 12.0006 19.2491 11.6335 19.3826 11.5222C19.5167 11.4114 19.648 11.2649 19.7172 11.1065C19.8567 10.7816 19.8388 10.4162 19.7431 10.0627C19.5929 9.5119 19.2367 8.97677 18.8621 8.58325C18.4804 9.22109 18.3275 9.98163 18.3437 10.5449H18.3431Z" fill="#F7B636"/>
<path d="M19.6886 11.6643C19.4907 11.8092 19.3215 11.9892 19.1875 12.1908C19.014 12.4492 18.8994 12.7443 18.8529 13.0519C18.9313 12.5346 18.7864 12 18.4929 11.5708C18.2599 11.2324 17.934 10.9589 17.548 10.8102C17.3896 10.9783 17.3248 11.2016 17.3383 11.4151C17.3464 11.5383 17.3886 11.6546 17.4372 11.7643C17.4859 11.874 17.808 12.2302 17.914 12.4075L17.9156 12.4097C18.0442 12.6248 18.1459 12.8546 18.2242 13.0897C18.3977 13.6108 18.4448 14.1535 18.3394 14.5854C18.2988 14.7205 18.5329 14.7843 18.6248 14.6124C18.7507 14.3784 18.8156 14.2021 19.1826 14.0924C19.6523 13.9529 19.8702 13.5362 19.9259 13.0529C19.9799 12.5735 19.8907 12.0335 19.6891 11.6643H19.6886Z" fill="#F7B636"/>
<path d="M17.7304 15.0838C17.7537 15.0308 17.7942 14.9389 17.8196 14.8984C17.9915 14.6319 18.0807 14.3135 18.0958 13.9876C18.1218 13.3946 17.8996 12.7708 17.4742 12.3616C17.2321 12.8449 17.2077 13.4281 17.3391 13.9227C17.4704 14.4168 17.4542 14.3141 17.538 14.4465L17.5396 14.4487C17.6504 14.6249 17.6515 14.873 17.5975 15.0119C17.5434 15.1514 17.7072 15.1362 17.7299 15.0838H17.7304Z" fill="#F7B636"/>
<path d="M17.1728 16.4389C17.1485 16.4919 17.0658 16.6054 17.0063 16.6595C16.9469 16.7135 16.8912 16.7611 16.8425 16.8C16.7939 16.8395 16.8182 16.9178 16.8685 16.9027C16.9187 16.8876 17.169 16.866 17.2923 16.8703C17.3977 16.8735 17.4939 16.8849 17.5885 16.8957C17.6836 16.9065 17.7782 16.9173 17.8809 16.9189C18.6987 16.9378 19.175 15.6476 19.076 14.933C18.1377 15.0022 17.5463 15.6195 17.1728 16.4384V16.4389Z" fill="#F7B636"/>
<path d="M17.2225 15.6488C17.3907 15.172 17.328 14.5769 17.1253 14.0974C16.5539 14.6255 16.3361 15.2915 16.4496 16.0493C16.4604 16.1439 16.4809 16.3731 16.3766 16.5369C16.2723 16.7007 16.4117 16.7023 16.4863 16.6304L16.4874 16.6293C16.5917 16.5423 16.6869 16.4553 16.7723 16.3655C16.9771 16.1498 17.1274 15.9201 17.2231 15.6488H17.2225Z" fill="#F7B636"/>
<path d="M16.5187 17.2442C16.1571 17.2972 15.816 17.488 15.6241 17.8101C15.5576 17.9091 15.4641 17.9901 15.3614 18.0496C15.2679 18.1091 15.3884 18.1956 15.4695 18.1956C15.6089 18.1956 15.6835 18.2296 15.7754 18.3026C15.7906 18.315 15.8041 18.3269 15.8187 18.3393C16.0652 18.5318 16.3873 18.5642 16.6635 18.4356L16.6657 18.4345C17.0571 18.2437 17.4041 17.9804 17.6219 17.5869C17.3446 17.2988 16.9192 17.1864 16.5187 17.2442Z" fill="#F7B636"/>
<path d="M14.7808 17.2417C14.6602 17.5531 14.6046 17.4801 14.4775 17.538C14.3505 17.5963 14.4262 17.6396 14.4856 17.6693C14.6029 17.7353 14.7262 17.7623 14.8478 17.7623C15.0013 17.7623 15.1521 17.7196 15.2846 17.6574C15.5592 17.5288 15.7883 17.3434 15.9424 17.0131C16.1359 16.5974 16.2159 16.1088 16.1359 15.7634C15.83 15.8553 15.5186 16.0569 15.2613 16.3061C14.9948 16.5634 14.9013 16.9304 14.7808 17.2417Z" fill="#F7B636"/>
<path d="M13.7974 17.7939C13.6266 17.8064 13.3817 17.8669 13.252 17.9372C13.1558 17.9874 12.992 18.0955 12.9228 18.1496C12.632 18.3718 12.318 18.5636 11.9888 18.7264C11.9185 18.7615 11.8466 18.7939 11.7747 18.8264C11.3698 19.0064 10.945 19.1393 10.5169 19.2161C10.4061 19.2366 10.3747 19.3907 10.4412 19.4491C10.5412 19.5355 10.6498 19.7264 10.678 19.7712C10.705 19.8145 10.7617 19.8377 10.7996 19.8377C10.8374 19.8377 10.8753 19.8242 10.9039 19.7945C11.1758 19.5182 11.7407 19.0404 12.2023 18.828C12.2942 18.7777 12.6298 18.6382 12.8223 18.6085C12.9536 18.588 13.1677 18.6831 13.2688 18.7426C13.3931 18.8172 13.5261 18.8766 13.6612 18.9242C13.6828 18.9323 13.7061 18.9404 13.7288 18.9474C13.752 18.9545 13.7747 18.9609 13.798 18.968C14.0228 19.0291 14.2553 19.0534 14.4871 19.0399C14.9217 19.0128 15.3466 18.8555 15.692 18.5728V18.5712L15.6936 18.5701C15.2996 18.5226 14.9055 18.3577 14.5915 18.0896C14.3828 17.9285 14.0407 17.7766 13.7969 17.7945L13.7974 17.7939Z" fill="#F7B636"/>
<defs>
<linearGradient id="paint0_linear_85_968" x1="11.9997" y1="2.39996" x2="11.9997" y2="21.6" gradientUnits="userSpaceOnUse">
<stop offset="0.156932" stop-color="#C90203"/>
<stop offset="0.529374" stop-color="#AE0203"/>
<stop offset="0.697086" stop-color="#970203"/>
<stop offset="1" stop-color="#630202"/>
</linearGradient>
</defs>
</svg>
