<svg width="24" height="24" viewBox="0 0 24 24" fill="none" xmlns="http://www.w3.org/2000/svg">
<path d="M11.9949 1C5.91026 1 1 5.94848 1 12C1 18.0515 5.91026 23 11.9949 23C18.0796 23 23 18.0414 23 12C23 5.9586 18.0492 1 11.9949 1ZM19.0009 15.9871C17.9379 16.5842 17.0976 15.7544 16.9963 15.7139C16.804 16.0074 16.5812 16.2502 16.3686 16.4729C16.7837 16.6247 17.1381 16.8776 17.3912 17.2116L17.9075 17.8997C18.0695 18.1021 18.0391 18.4057 17.8468 18.5879C17.1786 19.2153 16.5407 19.7516 15.6599 19.7516C14.7285 19.7516 14.0097 19.104 13.8072 18.1831L13.7464 17.8491C13.1896 18.0212 12.6125 18.1021 12.0051 18.1021C11.3976 18.1021 10.8104 18.0212 10.2536 17.8491L10.1928 18.1831C9.99034 19.104 9.27151 19.7516 8.34008 19.7516C7.45927 19.7516 6.82144 19.2153 6.15324 18.5879C5.95076 18.4057 5.93051 18.1021 6.08238 17.8997L6.60883 17.2116C6.86194 16.8776 7.21629 16.6247 7.63138 16.4729C7.41878 16.2502 7.19604 16.0074 7.00368 15.7139C6.90244 15.7544 6.06213 16.5842 4.99908 15.9871C4.43212 15.6937 4.02715 15.0359 3.88541 14.2769C3.79429 13.9328 3.74367 13.5281 3.70318 13.0322C3.68293 12.7387 3.88541 12.4959 4.17901 12.4756L4.96871 12.4048C5.33318 12.3744 5.64703 12.4554 6.01151 12.6375C6.00138 12.5262 6.00138 12.425 6.00138 12.3137C6.00138 12.0708 6.02163 11.8482 6.052 11.6155L5.73815 11.5143C4.35113 11.1601 3.97653 9.4195 4.68523 8.13431C4.86746 7.78013 5.10032 7.43606 5.3433 7.11224C5.52554 6.86937 5.89001 6.82889 6.11275 7.05152L6.7202 7.62833C6.98343 7.89144 7.19604 8.24563 7.32766 8.65041C7.52002 8.42778 7.7225 8.21527 7.93511 8.023L7.74275 7.64857C7.41878 7.07176 7.37828 6.37351 7.64151 5.78657C8.08698 4.67341 9.11965 4.35971 10.3042 4.24839C10.5978 4.21803 10.8509 4.43054 10.8711 4.72401C10.8408 5.28059 11.2052 6.06992 10.5067 7.25391C10.1928 7.77001 9.83847 8.10396 9.42338 8.28611C7.82375 9.11592 7.0543 10.7654 7.03405 12.3036V12.3542C7.03405 12.4959 7.04418 12.6477 7.0543 12.7893C7.24666 14.6007 8.5122 16.1187 10.2131 16.7562C10.2232 16.7562 10.2536 16.7663 10.2738 16.7663C10.4763 16.8574 10.6889 16.908 10.9015 16.9586C11.2559 17.0396 11.6203 17.08 12.0051 17.08C12.3898 17.08 12.7543 17.0396 13.0985 16.9586H13.1086C13.3617 16.908 13.6047 16.8372 13.8376 16.7461H13.8477C15.5182 16.0883 16.7533 14.5906 16.9457 12.7893C16.9558 12.6477 16.9659 12.4959 16.9659 12.3542V12.3036C16.9457 10.7654 16.1763 9.11592 14.5766 8.28611C14.1615 8.10396 13.8072 7.77001 13.4933 7.25391C12.7948 6.06992 13.1592 5.28059 13.1289 4.72401C13.1491 4.43054 13.4022 4.21803 13.6958 4.24839C14.8803 4.35971 15.913 4.67341 16.3585 5.78657C16.6217 6.37351 16.5812 7.07176 16.2572 7.64857L16.0649 8.023C16.2775 8.21527 16.48 8.42778 16.6723 8.65041C16.804 8.24563 17.0166 7.89144 17.2798 7.62833L17.8873 7.05152C18.11 6.82889 18.4745 6.86937 18.6567 7.11224C18.8997 7.43606 19.1325 7.78013 19.3148 8.13431C20.0235 9.4195 19.6489 11.1601 18.2619 11.5143L17.948 11.6155C17.9784 11.8482 17.9986 12.0708 17.9986 12.3036C17.9986 12.425 17.9986 12.5262 17.9885 12.6375C18.353 12.4554 18.6668 12.3744 19.0313 12.4048L19.821 12.4756C20.1146 12.4959 20.3171 12.7387 20.2968 13.0322C20.2563 13.5281 20.2057 13.9328 20.1247 14.2769C19.9728 15.0359 19.5679 15.6937 19.0009 15.9871Z" fill="white" fill-opacity="0.9"/>
</svg>
