<svg width="24" height="24" viewBox="0 0 24 24" fill="none" xmlns="http://www.w3.org/2000/svg">
<path d="M12 23C18.0751 23 23 18.0751 23 12C23 5.92487 18.0751 1 12 1C5.92487 1 1 5.92487 1 12C1 18.0751 5.92487 23 12 23Z" fill="#F7B636"/>
<path d="M11.9997 21.6C17.3016 21.6 21.5997 17.3019 21.5997 12C21.5997 6.69803 17.3016 2.39996 11.9997 2.39996C6.69773 2.39996 2.39966 6.69803 2.39966 12C2.39966 17.3019 6.69773 21.6 11.9997 21.6Z" fill="url(#paint0_linear_85_983)"/>
<path d="M13.4676 19.2184C13.0859 19.1492 12.7054 19.0368 12.3411 18.8855C12.3286 18.88 12.3249 18.8746 12.3032 18.8855C12.2816 18.8963 12.1897 18.9411 12.1573 18.9573C12.1249 18.9736 12.0962 19.0049 12.153 19.0384C12.5157 19.2741 12.8784 19.5909 13.0805 19.7952C13.1092 19.8249 13.147 19.8384 13.1849 19.8384C13.2227 19.8384 13.2795 19.8152 13.3065 19.7719C13.3351 19.7271 13.4432 19.5363 13.5432 19.4498L13.5443 19.4487C13.6108 19.3903 13.5784 19.2384 13.4676 19.2184Z" fill="#F7B636"/>
<path d="M11.1618 18.6093C11.297 18.6298 11.4386 18.6823 11.5808 18.7417C11.6267 18.765 11.6629 18.7731 11.6818 18.765C11.7008 18.7569 11.7656 18.7282 11.8008 18.712C11.8359 18.6958 11.8375 18.6471 11.8035 18.6282C11.6737 18.5579 11.5467 18.4828 11.4229 18.4034C11.2991 18.3239 11.1786 18.2396 11.0618 18.1504C10.9927 18.0963 10.8289 17.9877 10.7327 17.9379C10.6029 17.8677 10.3575 17.8066 10.1872 17.7947C9.94347 17.7769 9.6013 17.9288 9.39265 18.0898C9.0786 18.3579 8.68455 18.5228 8.29211 18.5704L8.29374 18.5731C8.63914 18.8558 9.06239 19.0131 9.49698 19.0401C9.72833 19.0536 9.9613 19.0293 10.1862 18.9682L10.2554 18.9477C10.2786 18.9407 10.3013 18.9325 10.3229 18.9244C10.4581 18.8769 10.591 18.8174 10.7154 18.7428C10.817 18.6834 11.031 18.5882 11.1618 18.6088V18.6093Z" fill="#F7B636"/>
<path d="M9.20426 17.2417C9.08372 16.9303 8.99021 16.5633 8.72372 16.306C8.46643 16.0568 8.15507 15.8552 7.84913 15.7633C7.76913 16.1087 7.84913 16.5974 8.04264 17.013C8.19724 17.3433 8.42589 17.5287 8.70048 17.6574C8.93724 17.7682 9.23399 17.8184 9.4994 17.6698C9.53507 17.652 9.5767 17.6293 9.5767 17.6011C9.5767 17.5828 9.55832 17.5617 9.50751 17.5384C9.38048 17.4801 9.3248 17.5536 9.20426 17.2422V17.2417Z" fill="#F7B636"/>
<path d="M8.62443 18.0498C8.52173 17.9904 8.42822 17.9093 8.36173 17.8104C8.1693 17.4882 7.82822 17.2974 7.46714 17.2444C7.06659 17.1861 6.64119 17.2985 6.36389 17.5871C6.58173 17.9812 6.92984 18.245 7.32119 18.4358H7.32281C7.59903 18.5644 7.92119 18.532 8.16768 18.3396C8.18281 18.3271 8.19632 18.3152 8.21092 18.3028C8.30281 18.2298 8.37741 18.1958 8.51687 18.1958C8.59795 18.1958 8.71849 18.1093 8.62497 18.0498H8.62443Z" fill="#F7B636"/>
<path d="M7.11695 16.9033C7.16722 16.9184 7.19155 16.8395 7.1429 16.8006C7.09425 16.7611 7.03857 16.7141 6.97912 16.66C6.91966 16.606 6.83695 16.4919 6.81263 16.4395C6.43912 15.6206 5.84722 15.0033 4.90939 14.9341C4.81047 15.6487 5.28722 16.9389 6.10452 16.92C6.31047 16.9157 6.48236 16.8779 6.69317 16.8714C6.81641 16.8671 7.06668 16.8892 7.11695 16.9038V16.9033Z" fill="#F7B636"/>
<path d="M7.60864 16.5368C7.50431 16.373 7.52485 16.1444 7.53567 16.0492C7.64918 15.2914 7.43134 14.6249 6.85999 14.0974C6.65675 14.5768 6.59458 15.1719 6.76269 15.6487C6.89783 16.033 7.14323 16.3341 7.49783 16.6292L7.49891 16.6303C7.5735 16.7022 7.71296 16.7006 7.60864 16.5368Z" fill="#F7B636"/>
<path d="M6.44622 14.445C6.53001 14.3126 6.51433 14.4169 6.64568 13.9228C6.77703 13.4288 6.75271 12.8455 6.51055 12.3618C6.08568 12.7704 5.86352 13.3947 5.88892 13.9877C5.90406 14.3142 5.99325 14.632 6.16514 14.8985C6.19109 14.9391 6.23163 15.0309 6.25433 15.0839C6.27757 15.1369 6.44136 15.1515 6.38676 15.012C6.33271 14.8726 6.33379 14.6223 6.44514 14.4461L6.44622 14.4445V14.445Z" fill="#F7B636"/>
<path d="M5.36127 14.6131C5.45316 14.785 5.68776 14.7213 5.64668 14.5861C5.54127 14.1542 5.5883 13.6115 5.76181 13.0904C5.84019 12.8548 5.94451 12.6234 6.07316 12.4083L6.07532 12.404C6.18073 12.2267 6.49965 11.8748 6.5483 11.7656C6.59695 11.6558 6.63911 11.5396 6.64722 11.4164C6.66073 11.2023 6.59587 10.9791 6.43749 10.8115C6.05154 10.9602 5.7256 11.2337 5.49262 11.5721C5.19911 12.0013 5.05424 12.5358 5.13262 13.0531C5.08668 12.7461 4.97154 12.451 4.79803 12.1921C4.66397 11.9904 4.49478 11.8104 4.29695 11.6656C4.09532 12.0353 4.00614 12.5753 4.06019 13.0542C4.11587 13.5375 4.3337 13.9542 4.80343 14.0937C5.17046 14.2034 5.23532 14.3791 5.36127 14.6137V14.6131Z" fill="#F7B636"/>
<path d="M4.60255 11.5222C4.7366 11.6331 4.9966 12.0001 5.06255 11.8352C5.08687 11.7741 5.10741 11.6066 5.16687 11.5131C5.22633 11.4195 5.31012 11.2898 5.41714 11.1828C5.51012 11.0736 5.56417 10.9763 5.5966 10.8752C5.6285 10.7741 5.63877 10.6693 5.64201 10.5455C5.65823 9.98224 5.50525 9.2217 5.12363 8.58386C4.74849 8.97792 4.39282 9.51251 4.24255 10.0633C4.14633 10.4168 4.12904 10.7822 4.2685 11.1071C4.33768 11.2655 4.46904 11.4114 4.60309 11.5228L4.60255 11.5222Z" fill="#F7B636"/>
<path d="M6.05579 10.4109C6.15904 10.4887 6.25633 10.3525 6.44012 10.2768C6.59796 10.1931 6.73579 10.1104 6.86282 9.999C6.98985 9.88765 7.10498 9.74765 7.21741 9.54874C7.41525 9.19684 7.52336 8.9736 7.54931 8.54279C7.55363 8.46711 7.55363 8.38711 7.54931 8.30981C7.34228 8.33576 7.12823 8.40171 6.92768 8.50063C6.70174 8.61144 6.49201 8.76603 6.32823 8.95144C6.20931 9.08549 6.11309 9.23684 6.05201 9.40225C5.98714 9.57684 5.9612 9.76765 5.98985 9.96819C6.01039 10.0763 6.01687 10.1887 6.00877 10.2985C6.00606 10.3298 5.98228 10.3552 6.05633 10.4109H6.05579Z" fill="#F7B636"/>
<path d="M5.62528 9.07098C5.66204 9.15477 5.77933 9.16558 5.82852 9.08882C5.99933 8.73963 6.29825 8.58504 6.37285 8.37152C6.41501 8.25152 6.44041 8.16125 6.45933 8.06612C6.47879 7.97044 6.49177 7.8699 6.5096 7.7299C6.56528 7.29261 6.52312 6.8445 6.4042 6.41693C5.98852 6.66612 5.69069 7.05477 5.53231 7.49044C5.4269 7.78125 5.38204 8.0926 5.40528 8.39747C5.42312 8.62882 5.52852 8.85909 5.62582 9.07153L5.62528 9.07098Z" fill="#F7B636"/>
<path d="M6.90611 8.10171C7.02233 8.05955 7.03746 8.05577 7.35801 7.99469C7.67909 7.93361 7.96179 7.73901 8.14882 7.46658C8.32071 7.21469 8.39909 6.92225 8.37746 6.60442C8.35692 6.28604 8.3299 6.10874 8.34611 5.86387C8.36665 5.5509 8.4299 5.23847 8.53692 4.93793C7.51098 5.19793 6.94233 5.71901 6.78773 6.93036C6.73098 7.37415 6.82017 7.63955 6.72017 7.97955C6.68071 8.08766 6.78936 8.14333 6.90557 8.10117L6.90611 8.10171Z" fill="#F7B636"/>
<path d="M9.02986 6.84377C9.31689 6.93026 9.59959 6.84107 9.8477 6.63404C10.1439 6.38485 10.3769 6.10756 10.4731 5.66323C10.3558 5.64161 10.238 5.6308 10.1207 5.6308C9.88986 5.6308 9.66229 5.6735 9.44662 5.76323C9.21905 5.85783 9.00824 6.00161 8.83365 6.19242C8.65743 6.36323 8.58716 6.62431 8.65473 6.85458C8.72121 7.01729 8.74283 6.75729 9.02986 6.84377Z" fill="#F7B636"/>
<path d="M8.93599 5.60109C9.06572 5.51569 9.32247 5.52974 9.4841 5.52271C9.84572 5.49839 10.2084 5.32758 10.4819 5.08433C10.6187 4.96271 10.7327 4.8346 10.8241 4.68596C10.9154 4.53731 10.9836 4.36758 11.029 4.16271C10.6944 4.12055 9.65112 4.27352 9.15923 4.62433C8.86301 4.83568 8.65166 5.13623 8.71004 5.60596C8.72464 5.6692 8.80626 5.68704 8.93599 5.60163V5.60109Z" fill="#F7B636"/>
<path d="M13.5045 5.08396C13.7781 5.32774 14.1408 5.49801 14.5024 5.52234C14.6662 5.52234 14.9208 5.51531 15.0505 5.60072C15.1802 5.68612 15.2575 5.6672 15.2764 5.60504C15.3348 5.13531 15.1235 4.83477 14.8273 4.62342C14.3359 4.27261 13.2921 4.11963 12.9575 4.1618C13.0483 4.57207 13.231 4.84018 13.5045 5.08342V5.08396Z" fill="#F7B636"/>
<path d="M14.5377 5.76386C14.2128 5.62873 13.8609 5.60008 13.5117 5.66386C13.5598 5.88603 13.642 6.06656 13.7496 6.22224C13.8571 6.37792 13.989 6.50981 14.1377 6.63467C14.3852 6.8417 14.6685 6.93089 14.9555 6.8444C15.2425 6.75792 15.2642 7.01792 15.3306 6.85521C15.3982 6.62494 15.3279 6.36386 15.1517 6.19305C14.9771 6.00224 14.7658 5.85846 14.5387 5.76386H14.5377Z" fill="#F7B636"/>
<path d="M15.6086 6.60442C15.587 6.9228 15.6654 7.21469 15.8373 7.46659C16.0243 7.73848 16.307 7.93361 16.6281 7.9947C16.9491 8.05578 16.9637 8.05956 17.08 8.10172C17.1962 8.14388 17.3048 8.08821 17.2654 7.9801C17.1654 7.6401 17.2546 7.37523 17.1978 6.93091C17.0432 5.71956 16.4751 5.19794 15.4486 4.93848C15.5556 5.23902 15.6194 5.55145 15.6394 5.86442C15.6556 6.10929 15.6286 6.28659 15.6081 6.60496L15.6086 6.60442Z" fill="#F7B636"/>
<path d="M17.6125 8.37084C17.6871 8.5849 17.986 8.73895 18.1568 9.08814C18.2055 9.16544 18.3233 9.15463 18.3601 9.0703C18.4574 8.85787 18.5633 8.6276 18.5806 8.39625C18.6039 8.09193 18.559 7.78057 18.4536 7.48922C18.2952 7.05355 17.9974 6.6649 17.5817 6.41571C17.4628 6.84328 17.4206 7.29138 17.4763 7.72868C17.5114 8.00868 17.5293 8.13084 17.6131 8.3703L17.6125 8.37084Z" fill="#F7B636"/>
<path d="M17.9332 9.40225C17.8721 9.23684 17.7759 9.08549 17.6569 8.95144C17.4932 8.76603 17.2834 8.61144 17.0575 8.50063C16.8569 8.40171 16.6434 8.33522 16.4359 8.30981C16.4315 8.38711 16.4315 8.46711 16.4359 8.54279C16.4618 8.97306 16.5699 9.19684 16.7678 9.54874C16.9926 9.94657 17.2294 10.1093 17.545 10.2768C17.6905 10.3368 17.7818 10.4347 17.8645 10.4347C17.8867 10.4347 17.9083 10.4282 17.9299 10.4109C17.9915 10.3622 17.9802 10.3298 17.9775 10.2985C17.9694 10.1887 17.9759 10.0763 17.9964 9.96819C18.025 9.76765 17.9991 9.57684 17.9342 9.40225H17.9332Z" fill="#F7B636"/>
<path d="M18.3431 10.5449C18.3502 10.7925 18.3826 10.9644 18.568 11.1828C18.6215 11.2363 18.6691 11.2957 18.7107 11.353C18.7523 11.4109 18.7886 11.4666 18.8183 11.513C18.8777 11.6066 18.8983 11.7741 18.9226 11.8352C18.9891 12.0006 19.2491 11.6336 19.3826 11.5222C19.5167 11.4114 19.648 11.2649 19.7172 11.1066C19.8567 10.7817 19.8388 10.4163 19.7431 10.0628C19.5929 9.51196 19.2367 8.97683 18.8621 8.58331C18.4804 9.22115 18.3275 9.98169 18.3437 10.5449H18.3431Z" fill="#F7B636"/>
<path d="M19.689 11.6645C19.4912 11.8093 19.322 11.9893 19.188 12.191C19.0144 12.4493 18.8999 12.7445 18.8534 13.052C18.9317 12.5348 18.7869 12.0002 18.4934 11.571C18.2604 11.2326 17.9344 10.9591 17.5485 10.8104C17.3901 10.9785 17.3253 11.2018 17.3388 11.4153C17.3469 11.5385 17.389 11.6548 17.4377 11.7645C17.4863 11.8742 17.8085 12.2304 17.9144 12.4077L17.9161 12.4099C18.0447 12.625 18.1463 12.8547 18.2247 13.0899C18.3982 13.611 18.4453 14.1537 18.3399 14.5856C18.2993 14.7207 18.5334 14.7845 18.6253 14.6126C18.7512 14.3785 18.8161 14.2023 19.1831 14.0926C19.6528 13.9531 19.8707 13.5364 19.9263 13.0531C19.9804 12.5737 19.8912 12.0337 19.6896 11.6645H19.689Z" fill="#F7B636"/>
<path d="M17.7301 15.0839C17.7533 15.0309 17.7939 14.9391 17.8193 14.8985C17.9912 14.632 18.0803 14.3136 18.0955 13.9877C18.1214 13.3947 17.8993 12.7709 17.4739 12.3618C17.2317 12.845 17.2074 13.4282 17.3387 13.9228C17.4701 14.4169 17.4539 14.3142 17.5376 14.4466L17.5393 14.4488C17.6501 14.625 17.6512 14.8731 17.5971 15.012C17.5431 15.1515 17.7068 15.1363 17.7295 15.0839H17.7301Z" fill="#F7B636"/>
<path d="M17.1727 16.4391C17.1484 16.4921 17.0657 16.6056 17.0063 16.6597C16.9468 16.7137 16.8911 16.7613 16.8425 16.8002C16.7938 16.8397 16.8181 16.918 16.8684 16.9029C16.9187 16.8878 17.169 16.8661 17.2922 16.8705C17.3976 16.8737 17.4938 16.8851 17.5884 16.8959C17.6835 16.9067 17.7781 16.9175 17.8808 16.9191C18.6987 16.938 19.1749 15.6478 19.076 14.9332C18.1376 15.0024 17.5463 15.6197 17.1727 16.4386V16.4391Z" fill="#F7B636"/>
<path d="M17.2224 15.6487C17.3905 15.1719 17.3278 14.5768 17.1251 14.0974C16.5538 14.6255 16.3359 15.2914 16.4495 16.0492C16.4603 16.1438 16.4808 16.373 16.3765 16.5368C16.2722 16.7006 16.4116 16.7022 16.4862 16.6303L16.4873 16.6292C16.5916 16.5422 16.6868 16.4552 16.7722 16.3655C16.977 16.1498 17.1273 15.9201 17.223 15.6487H17.2224Z" fill="#F7B636"/>
<path d="M16.5184 17.2444C16.1568 17.2974 15.8157 17.4882 15.6238 17.8104C15.5574 17.9093 15.4638 17.9904 15.3611 18.0498C15.2676 18.1093 15.3882 18.1958 15.4692 18.1958C15.6087 18.1958 15.6833 18.2298 15.7752 18.3028C15.7903 18.3153 15.8038 18.3271 15.8184 18.3396C16.0649 18.532 16.3871 18.5644 16.6633 18.4358L16.6655 18.4347C17.0568 18.2439 17.4038 17.9807 17.6217 17.5871C17.3444 17.299 16.919 17.1866 16.5184 17.2444Z" fill="#F7B636"/>
<path d="M14.7801 17.2417C14.6596 17.553 14.6039 17.4801 14.4769 17.5379C14.3498 17.5963 14.4255 17.6395 14.485 17.6693C14.6023 17.7352 14.7255 17.7622 14.8471 17.7622C15.0006 17.7622 15.1515 17.7195 15.2839 17.6574C15.5585 17.5287 15.7877 17.3433 15.9417 17.013C16.1352 16.5974 16.2152 16.1087 16.1352 15.7633C15.8293 15.8552 15.5179 16.0568 15.2606 16.306C14.9942 16.5633 14.9006 16.9303 14.7801 17.2417Z" fill="#F7B636"/>
<path d="M13.7981 17.7942C13.6273 17.8066 13.3824 17.8671 13.2527 17.9374C13.1565 17.9877 12.9927 18.0958 12.9235 18.1498C12.6327 18.372 12.3186 18.5639 11.9894 18.7266C11.9192 18.7617 11.8473 18.7942 11.7754 18.8266C11.3705 19.0066 10.9457 19.1396 10.5175 19.2163C10.4067 19.2369 10.3754 19.3909 10.4419 19.4493C10.5419 19.5358 10.6505 19.7266 10.6786 19.7715C10.7057 19.8147 10.7624 19.8379 10.8002 19.8379C10.8381 19.8379 10.8759 19.8244 10.9046 19.7947C11.1765 19.5185 11.7413 19.0407 12.203 18.8282C12.2948 18.7779 12.6305 18.6385 12.823 18.6088C12.9543 18.5882 13.1684 18.6834 13.2694 18.7428C13.3938 18.8174 13.5267 18.8769 13.6619 18.9244C13.6835 18.9325 13.7067 18.9407 13.7294 18.9477C13.7527 18.9547 13.7754 18.9612 13.7986 18.9682C14.0235 19.0293 14.2559 19.0536 14.4878 19.0401C14.9224 19.0131 15.3473 18.8558 15.6927 18.5731V18.5715L15.6943 18.5704C15.3002 18.5228 14.9062 18.3579 14.5921 18.0898C14.3835 17.9288 14.0413 17.7769 13.7975 17.7947L13.7981 17.7942Z" fill="#F7B636"/>
<defs>
<linearGradient id="paint0_linear_85_983" x1="11.9997" y1="2.16213" x2="11.9997" y2="21.5675" gradientUnits="userSpaceOnUse">
<stop stop-color="#1930AD"/>
<stop offset="1" stop-color="#131F60"/>
</linearGradient>
</defs>
</svg>
