<svg width="24" height="24" viewBox="0 0 24 24" fill="none" xmlns="http://www.w3.org/2000/svg">
<path d="M14.3625 14.7705C14.0702 15.014 14.0299 15.449 14.2734 15.7413C14.517 16.0335 14.952 16.0738 15.2442 15.8303C16.3947 14.8713 17.0565 13.4638 17.0565 11.9672C17.0565 9.19593 14.8025 6.94193 12.0312 6.94193C9.25987 6.94193 7.00586 9.19593 7.00586 11.9672C7.00586 13.4974 7.69113 14.9267 8.88364 15.8857C9.18092 16.1242 9.61426 16.0772 9.85276 15.7799C10.0913 15.4826 10.0442 15.0493 9.74695 14.8108C7.0764 12.6643 8.58971 8.31919 12.0295 8.31919C15.4391 8.31919 16.9725 12.5988 14.3625 14.7705Z" fill="white"/>
<path d="M16.4575 18.1365C18.3655 16.7609 19.6067 14.5136 19.6067 11.9875C19.6067 11.6062 19.2976 11.2989 18.9181 11.2989C18.5385 11.2989 18.2294 11.6079 18.2294 11.9875C18.2294 14.0651 17.2066 15.8992 15.6513 17.0195C15.3422 17.2429 15.2733 17.6729 15.4951 17.9819C15.7184 18.2893 16.1484 18.3582 16.4575 18.1365Z" fill="white"/>
<path d="M9.15471 2.3516C8.79024 2.46077 8.58197 2.84372 8.69115 3.20819C8.80032 3.57266 9.18327 3.78093 9.54774 3.67176C15.0685 2.02576 20.6213 6.18106 20.6213 11.9252C20.6213 12.3065 20.9303 12.6139 21.3099 12.6139C21.6912 12.6139 21.9985 12.3048 21.9985 11.9252C22.0002 5.27072 15.5657 0.440231 9.15471 2.3516Z" fill="white"/>
<path d="M16.8188 6.11053C11.9026 2.10303 4.45703 5.59993 4.45703 11.9857C4.45703 16.1645 7.85652 19.5623 12.0336 19.5623C12.4149 19.5623 12.7223 19.2533 12.7223 18.8737C12.7223 18.4924 12.4132 18.1851 12.0336 18.1851C8.61569 18.1851 5.83429 15.4037 5.83429 11.9857C5.83429 6.75381 11.9329 3.90523 15.9471 7.17874C16.2427 7.41893 16.676 7.37526 16.9162 7.07965C17.1581 6.78404 17.1127 6.35071 16.8188 6.11053Z" fill="white"/>
<path d="M2.69058 11.3492C2.311 11.3492 2.00195 11.6583 2.00195 12.0378C2.00195 17.5687 6.50157 22.0683 12.0324 22.0683C14.3839 22.0683 16.6715 21.2369 18.4703 19.7304C18.7626 19.4851 18.8012 19.0518 18.556 18.7595C18.3107 18.4673 17.8774 18.4287 17.5852 18.6739C16.0332 19.9739 14.0614 20.6911 12.0324 20.6911C7.26242 20.6911 3.38089 16.8095 3.38089 12.0395C3.37921 11.6583 3.07185 11.3492 2.69058 11.3492Z" fill="white"/>
</svg>
