<svg width="24" height="24" viewBox="0 0 24 24" fill="none" xmlns="http://www.w3.org/2000/svg">
<path d="M11.9875 20.9304C7.02639 20.9304 3 16.9275 3 11.9952C3 7.06298 7.02639 3.06 11.9875 3.06C16.9486 3.06 20.975 7.06298 20.975 11.9952C20.975 16.9275 16.9486 20.9304 11.9875 20.9304ZM11.9875 5.44272C8.34456 5.44272 5.39666 8.37348 5.39666 11.9952C5.39666 15.617 8.34456 18.5477 11.9875 18.5477C15.6304 18.5477 18.5783 15.617 18.5783 11.9952C18.5783 8.37348 15.6304 5.44272 11.9875 5.44272Z" fill="url(#paint0_linear_4_4825)"/>
<path d="M11.988 14.9736C13.6426 14.9736 14.9838 13.6401 14.9838 11.9952C14.9838 10.3503 13.6426 9.01678 11.988 9.01678C10.3335 9.01678 8.99219 10.3503 8.99219 11.9952C8.99219 13.6401 10.3335 14.9736 11.988 14.9736Z" fill="url(#paint1_linear_4_4825)"/>
<defs>
<linearGradient id="paint0_linear_4_4825" x1="11.9862" y1="3.06762" x2="11.9862" y2="20.9382" gradientUnits="userSpaceOnUse">
<stop stop-color="#F79F2D"/>
<stop offset="1" stop-color="#FF4D4D"/>
</linearGradient>
<linearGradient id="paint1_linear_4_4825" x1="11.9868" y1="9.02446" x2="11.9868" y2="14.9813" gradientUnits="userSpaceOnUse">
<stop stop-color="#F79F2D"/>
<stop offset="1" stop-color="#FF4D4D"/>
</linearGradient>
</defs>
</svg>
