<svg width="24" height="24" viewBox="0 0 24 24" fill="none" xmlns="http://www.w3.org/2000/svg">
<path d="M19.0563 7.14865V7.14702L17.1601 8.08944C17.1601 8.08944 17.1528 8.09188 17.1504 8.09432C13.3335 9.99053 9.62648 12.1843 6.12759 14.618C6.12433 14.6205 6.1219 14.6221 6.11864 14.6253L4.38017 15.8353L1 18.1877L1.25532 18.6186L2.73928 17.8811C3.82318 17.3436 5.11768 17.5298 6.0357 18.3592C7.39607 19.5854 9.15486 20.3701 10.9885 20.5685C12.8839 20.7734 14.7541 20.3685 16.3958 19.3968C18.0375 18.4251 19.2921 16.9818 20.0248 15.2206C20.733 13.5187 20.8924 11.5989 20.4712 9.81652C20.1874 8.61309 20.646 7.38852 21.6388 6.69736V6.69574L23 5.74926L22.7447 5.3183L19.0563 7.14865ZM17.8261 13.635C17.3748 15.1132 16.3958 16.3622 15.0663 17.1485C13.7377 17.9348 12.1708 18.1942 10.6575 17.8762C9.25081 17.5811 8.00185 16.8143 7.11147 15.7084C10.7486 13.8854 14.2841 11.7932 17.6309 9.48314C18.1733 10.7972 18.2432 12.26 17.8253 13.635H17.8261Z" fill="white"/>
<path d="M3.95547 14.9075L5.5427 13.8016C5.61344 13.7528 5.68337 13.704 5.75411 13.6569C4.93854 10.9012 6.06147 7.83166 8.64478 6.30217C11.2289 4.77268 14.4595 5.26543 16.4825 7.30638C16.559 7.26654 16.6354 7.22914 16.7118 7.19092L18.4446 6.33063C15.8101 3.2009 11.2102 2.33573 7.57227 4.48808C3.93596 6.64043 2.47964 11.0891 3.95547 14.9075Z" fill="white"/>
<path d="M2.37419 6.18509C2.37419 5.38823 2.98973 4.7426 3.74919 4.7426C2.99054 4.74342 2.37419 4.09698 2.37419 3.30011C2.37419 4.09698 1.75865 4.74342 1 4.74342C1.75946 4.74342 2.37419 5.38985 2.37419 6.18591V6.18509Z" fill="white"/>
</svg>
