<svg width="24" height="24" viewBox="0 0 24 24" fill="none" xmlns="http://www.w3.org/2000/svg">
<path d="M9.29927 5.13769C10.2885 4.41322 11.6417 4.63597 12.766 4.91494C11.4494 5.29124 10.2152 6.02652 9.59007 7.22244L9.55572 7.25488C9.08861 6.66665 8.62149 5.75187 9.29927 5.13769Z" fill="#3A484A"/>
<path d="M2.54955 9.55355C2.93652 9.08427 3.57079 9.2616 4.05623 9.4584C3.33037 11.0479 3.32121 12.9402 4.05623 14.5297C3.62346 14.6876 3.04872 14.9341 2.66633 14.5513C2.00687 13.8615 2.0229 12.8558 2 11.9886C2.02519 11.1669 2.00916 10.2413 2.54955 9.55355Z" fill="#3A484A"/>
<path d="M18.2476 10.944C18.3025 10.2329 19.1813 10.2524 19.6528 10.5939C19.472 10.6176 19.1104 10.6695 18.9273 10.6933C18.9685 10.8014 19.0509 11.0132 19.0898 11.1191C19.2523 11.0759 19.5773 10.9873 19.742 10.944C19.678 11.8454 18.1629 11.8757 18.2476 10.944Z" fill="#3A484A"/>
<path d="M9.56992 16.7314L9.60198 16.7942C10.2225 17.9641 11.4407 18.7427 12.7642 19.0584C11.6582 19.3828 10.3004 19.5688 9.30888 18.8746C8.60134 18.2691 9.09593 17.3175 9.56992 16.7314Z" fill="#3A484A"/>
<path d="M9.5918 7.22244C10.2169 6.02652 11.4511 5.29124 12.7677 4.91495C13.6699 5.23501 14.5103 5.71078 15.1949 6.35524C14.1004 6.33794 12.999 6.32496 11.9205 6.5196C11.1214 6.67747 10.3543 6.94995 9.5918 7.22244Z" fill="#E0712F"/>
<path d="M4.0576 9.45831C4.60486 9.85407 5.10404 10.3039 5.56428 10.7883C5.31928 11.2511 4.90482 11.8069 5.21394 12.3281C6.15734 13.8462 7.59074 15.0811 9.25771 15.8704C9.27374 15.9202 9.30808 16.0196 9.32411 16.0694C9.38365 16.2273 9.50042 16.5452 9.55767 16.703C7.88613 15.9656 6.52599 14.694 5.55512 13.2277C5.09488 13.6992 4.60028 14.1403 4.0576 14.5296C3.32258 12.9401 3.33174 11.0478 4.0576 9.45831Z" fill="#E0712F"/>
<path d="M11.5704 16.8481C12.7016 16.7832 13.8305 16.9346 14.9593 16.9303C15.0257 17.086 15.1585 17.3996 15.2226 17.5574L15.2753 17.6807C15.2387 17.6807 15.1654 17.6764 15.1288 17.6764C14.0503 17.5964 12.9214 17.7434 11.891 17.3628L11.5704 16.8481Z" fill="#E0712F"/>
<path d="M11.9184 6.51974C12.9969 6.3251 14.0982 6.33808 15.1928 6.35538H15.2935L15.2431 6.46567C13.5533 9.67065 13.4182 13.5785 14.9317 16.8678L14.9569 16.9305C13.828 16.9348 12.6992 16.7834 11.568 16.8483C11.5131 16.751 11.4581 16.6537 11.4077 16.5564C9.81863 13.4033 10.0201 9.5171 11.9184 6.51974Z" fill="#FA9F6A"/>
<path d="M17.0012 6.83751C18.5308 7.4279 20.026 8.35133 20.7518 9.80676C21.2235 10.8794 21.7136 11.9542 21.9998 13.0874C21.6792 13.2583 21.3609 13.4313 21.0427 13.6086C20.3649 15.3279 18.7277 16.5346 16.9485 17.1553C16.8546 16.9542 16.763 16.753 16.6692 16.5497C15.1602 13.5026 15.2724 9.78297 17.0012 6.83751ZM18.0064 9.8565C17.0172 10.2717 16.7745 11.645 17.5965 12.3219C18.4735 13.2042 20.2687 12.5619 20.3031 11.3487C20.4702 10.2328 19.046 9.33964 18.0064 9.8565Z" fill="#FA9F6A"/>
<path d="M5.5618 10.7886C6.49603 9.26831 7.92943 8.08753 9.55518 7.25493L9.58953 7.22249C8.42861 9.95601 8.28206 13.068 9.25522 15.8707C7.58826 15.0814 6.15485 13.8465 5.21146 12.3284C4.90234 11.8072 5.31679 11.2514 5.5618 10.7886Z" fill="#FA9F6A"/>
<path d="M9.60144 16.7943C10.3479 17.0365 11.0852 17.3674 11.8889 17.3631C12.9193 17.7437 14.0482 17.5966 15.1267 17.6767C14.4672 18.3038 13.6498 18.7774 12.7636 19.0586C11.4401 18.7428 10.222 17.9643 9.60144 16.7943Z" fill="#FA9F6A"/>
<path d="M9.58719 7.22233C10.3497 6.94984 11.1168 6.67736 11.9159 6.51949C10.0177 9.51685 9.81617 13.403 11.4053 16.5561C10.7069 16.4091 10.0131 16.2425 9.31929 16.0695C9.30326 16.0198 9.26891 15.9203 9.25288 15.8706C8.27972 13.0678 8.42627 9.95586 9.58719 7.22233Z" fill="#EFEDEE"/>
<path d="M15.24 6.46539C15.8354 6.53676 16.4215 6.673 16.9963 6.83952C15.2675 9.78498 15.1553 13.5047 16.6643 16.5518C16.0872 16.6685 15.5079 16.7702 14.9286 16.8675C13.4151 13.5782 13.5502 9.67037 15.24 6.46539Z" fill="#EFEDEE"/>
<path d="M18.0019 9.85873C19.0415 9.34186 20.4657 10.235 20.2986 11.3509C20.2642 12.5641 18.469 13.2064 17.592 12.3241C16.77 11.6472 17.0127 10.2739 18.0019 9.85873ZM18.2446 10.9444C18.1599 11.8764 19.6757 11.8462 19.7399 10.9444C19.575 10.9876 19.2498 11.0763 19.0873 11.1195C19.0483 11.0136 18.9659 10.8016 18.9247 10.6935C19.1079 10.6697 19.4697 10.6178 19.6506 10.594C19.1789 10.2523 18.2996 10.2329 18.2446 10.9444Z" fill="#EFEDEE"/>
<path d="M9.32239 16.0699C10.0162 16.2429 10.71 16.4094 11.4084 16.5565C11.4588 16.6538 11.5137 16.7511 11.5687 16.8484L11.8892 17.3631C11.0855 17.3675 10.3482 17.0366 9.60174 16.7944L9.56969 16.7317L9.55595 16.7035C9.4987 16.5457 9.38192 16.2278 9.32239 16.0699Z" fill="#D2D2D2"/>
<path d="M14.9316 16.8676C15.511 16.7703 16.0903 16.6686 16.6673 16.5518C16.7612 16.7551 16.8528 16.9563 16.9467 17.1574C16.3834 17.3282 15.804 17.4558 15.2202 17.5575C15.156 17.3996 15.0232 17.086 14.9568 16.9303L14.9316 16.8676Z" fill="#D4D1D0"/>
</svg>
