<svg width="24" height="24" viewBox="0 0 24 24" fill="none" xmlns="http://www.w3.org/2000/svg">
<path d="M10.8342 9.58038C8.23773 9.48359 5.00241 10.7903 5.02661 10.8411C5.69983 12.3058 6.47613 13.7209 7.34965 15.0757C6.80761 15.7533 5.71142 16.1743 5.66786 16.1114C2.53901 11.5719 1 5.02148 1 5.02148C1 5.02148 6.18813 2.76381 10.8342 3.02031C10.9092 4.03663 10.9358 9.57312 10.8342 9.58522M8.85963 5.25136C8.84269 4.97067 4.93465 5.63611 3.6473 6.56289C3.71928 7.34288 3.91194 8.10696 4.21838 8.82782C6.72049 7.88652 7.79006 7.6881 8.9419 7.54049C8.9419 7.11461 8.86931 5.50786 8.85479 5.25136" fill="#FFC33E"/>
<path d="M12.5434 3.02025C12.4756 3.209 10.7648 13.3286 17.3564 15.8936C18.7914 14.628 21.066 10.0861 21.066 10.0861L17.775 8.56401L16.9402 10.3861L18.4405 11.1266C18.0824 11.8695 17.5282 13.0092 17.0563 13.5899C15.7327 12.3365 14.1525 10.0256 14.4405 5.15452C18.1066 5.33358 20.1344 6.74432 20.1344 6.74432C20.0009 7.11174 19.8466 7.47126 19.6722 7.82113C19.6722 7.82113 21.5427 8.71404 21.5451 8.71888C21.9541 7.87195 22.997 5.74253 22.997 5.74253C19.8414 3.86159 16.2156 2.91741 12.5434 3.02025Z" fill="#FFC33E"/>
<path d="M13.6204 15.4219C12.0887 13.774 11.5829 12.3705 11.5249 12.2011C11.4692 12.3705 10.9635 13.774 9.4317 15.4219C7.79589 17.1811 6.52789 17.6481 6.52789 17.6481C6.52789 17.6481 8.1274 19.0443 8.86787 19.7001C9.70272 20.426 11.5297 21.7666 11.5297 21.7666C11.5297 21.7666 13.3615 20.4357 14.1915 19.7001C14.932 19.0443 16.5315 17.6481 16.5315 17.6481C16.5315 17.6481 15.2562 17.1811 13.6277 15.4219M11.5321 19.6541C11.5103 19.6541 9.96648 18.6499 9.33732 17.8126C10.2228 17.2674 10.9732 16.5286 11.5321 15.6517C12.0939 16.5275 12.8468 17.2646 13.7342 17.8078C13.105 18.645 11.5563 19.6468 11.537 19.6492" fill="#FFC33E"/>
</svg>
