<svg width="24" height="24" viewBox="0 0 24 24" fill="none" xmlns="http://www.w3.org/2000/svg">
<path d="M16.3484 5.97957C15.5776 4.07757 13.3188 4.15837 13.1704 4.16597C13.1652 4.16597 13.1604 4.16557 13.1556 4.16357C13.0004 4.10397 10.4024 3.13157 10.4204 5.03637C10.4372 6.80837 9.00478 7.05197 8.72518 7.08277C8.70118 7.08557 8.68558 7.10957 8.69358 7.13277C8.69598 7.13997 8.69838 7.14717 8.70078 7.15437C8.69558 7.15637 8.69038 7.15797 8.68518 7.15997C6.04278 8.16397 4.91438 8.53877 4.74878 8.59277C4.73518 8.59717 4.72558 8.60877 4.72318 8.62277L4.35158 10.9244C4.35118 10.9272 4.35078 10.9296 4.35118 10.9324C4.36158 11.1028 4.74198 16.758 9.70678 20.158C9.70958 20.16 9.71278 20.1616 9.71598 20.1628C9.86998 20.2164 13.6536 21.5232 13.796 20.2852C13.796 20.2844 13.796 20.2832 13.796 20.2824C13.8012 20.2108 13.9968 17.4284 12.2028 14.626C10.448 11.8852 13.052 11.0288 13.2344 10.9728C13.2412 10.9708 13.2468 10.9672 13.2516 10.9616C13.2856 10.9224 13.432 10.7432 13.5264 10.464C13.5316 10.4488 13.5456 10.4384 13.5612 10.438C13.7232 10.4332 13.8764 10.4228 14.0176 10.4096C14.038 10.4076 14.056 10.4224 14.0588 10.4428L14.0952 10.7476C14.0984 10.7752 14.1296 10.79 14.1532 10.7752L15.326 10.0356C15.358 10.0156 15.344 9.96597 15.3064 9.96557C15.2748 9.96517 15.2576 9.92917 15.2768 9.90437C15.8348 9.19237 16.9596 7.48957 16.3484 5.98077V5.97957Z" fill="white"/>
<path d="M13.4952 15.6004C13.42 15.4092 13.3664 15.212 13.33 15.0116C13.3296 15.0088 13.3284 15.006 13.3272 15.0032C13.2668 14.8792 13.3 14.7432 13.2436 14.6212C13.2132 14.5552 13.2272 14.4924 13.262 14.4456C13.2672 14.4384 13.2704 14.4304 13.27 14.4216C13.254 13.8896 13.33 13.3484 13.4312 12.838C13.6112 11.9312 13.9116 11.0564 14.146 10.1636C14.1528 10.138 14.1636 10.1176 14.1772 10.1008C14.192 10.0828 14.1896 10.0556 14.1696 10.0432C13.7636 9.78918 13.2992 9.64398 12.8052 9.64398C11.2156 9.64398 9.92719 11.1372 9.92719 12.9792C9.92719 14.8212 11.2156 16.3144 12.8052 16.3144C13.1276 16.3144 13.4368 16.252 13.726 16.1388C13.7484 16.13 13.7568 16.1028 13.7436 16.0824C13.6456 15.9328 13.5624 15.7724 13.4948 15.6004H13.4952Z" fill="#FF9900"/>
<path d="M14.3188 4.00039L15.984 1.12599C16.0024 1.09439 16.0508 1.10439 16.0548 1.14079L16.3436 3.71999C16.346 3.74279 16.368 3.75799 16.3904 3.75279L18.7688 3.17079L18.7964 3.16519C18.8272 3.15919 18.8516 3.19039 18.838 3.21879L17.8364 5.31879C17.8268 5.33879 17.8364 5.36279 17.8572 5.37079L20.2308 6.26439C20.2652 6.27759 20.2628 6.32719 20.2272 6.33679L16.7188 7.28759C16.6996 7.29279 16.6796 7.28239 16.6728 7.26359L16.0244 5.42599C16.022 5.41919 16.018 5.41359 16.0124 5.40919L14.3272 4.04919C14.3128 4.03759 14.3088 4.01679 14.318 4.00039H14.3188Z" fill="#FF9900"/>
<path d="M14.1532 7.02039C14.1828 7.02839 14.1936 7.06559 14.1704 7.08559C14.0808 7.16319 13.816 7.27799 13.0732 7.09599C12.0452 6.84399 11.344 5.97959 11.344 5.97959C11.344 5.97959 10.9424 5.48239 10.7176 4.97879C10.5028 4.49719 10.456 3.86599 10.4524 3.81159C10.4524 3.80879 10.452 3.80679 10.4512 3.80399C10.4256 3.71679 9.9664 2.18079 9.4108 1.95599C9.4108 1.95599 9.1452 1.81319 9.622 1.76519C10.0988 1.71719 11.206 1.79239 11.7756 2.84079C12.3452 3.88919 13.4484 6.17679 13.4484 6.17679C13.4484 6.17679 13.768 6.91599 14.154 7.02039H14.1532Z" fill="#FF9900"/>
<path d="M15.996 6.03521C15.99 6.04321 15.988 6.05321 15.9896 6.06321C16 6.12601 16.038 6.37921 16.0224 6.67281C16.0316 6.37241 16.0208 6.55761 16.0068 6.84121C16.0068 6.84241 16.0068 6.84361 16.0068 6.84481C15.9992 6.90281 15.9892 6.96121 15.976 7.01921C15.9312 7.19761 15.8616 7.32961 15.7988 7.42081C15.6216 7.65761 15.4004 7.77641 15.234 7.83481C15.0956 7.87801 14.9148 7.91281 14.684 7.91961C14.6052 7.92201 14.536 7.93241 14.4744 7.94841L14.472 7.94921C14.4596 7.95241 14.4476 7.95601 14.4356 7.95961C14.4332 7.96041 14.4308 7.96081 14.428 7.96161C14.426 7.96241 14.424 7.96321 14.422 7.96361C14.4152 7.96601 14.408 7.96841 14.4016 7.97081C14.1308 8.06801 14.0408 8.25681 14.0132 8.39841C14.0052 8.43361 14.0004 8.47361 14.0012 8.51841C14 8.53361 14 8.54241 14 8.54241C14 8.54241 14.0012 8.54721 14.0032 8.55561C14.0036 8.56001 14.004 8.56481 14.0048 8.56921C14.0052 8.57441 14.006 8.57761 14.006 8.57761C14.0196 8.68121 14.0648 8.80481 14.17 8.94441H14.1704C14.19 8.97481 14.2112 9.00441 14.2352 9.03201C14.4028 9.22881 14.7028 9.67281 14.7244 9.70441C14.7252 9.70561 14.726 9.70681 14.7268 9.70841L14.7688 9.79161C14.7788 9.81121 14.8028 9.81841 14.8216 9.80721C15.054 9.67081 16.3668 8.82281 16.3492 7.08801C16.3492 7.08681 16.3492 7.08561 16.3492 7.08401C16.3436 7.02881 16.208 5.75161 15.9972 6.03441L15.996 6.03521Z" fill="#FF9900"/>
<path d="M13.1836 9.52598C13.0872 9.35798 12.0136 7.65038 8.42998 8.14358C8.40318 8.14718 8.38078 8.12318 8.38758 8.09678C8.45438 7.83718 8.82118 6.74278 10.244 6.91678C10.246 6.91678 10.2472 6.91718 10.2492 6.91758C10.334 6.93958 12.6508 7.54558 13.3592 8.66838C14.0236 9.72118 13.3224 9.57358 13.2064 9.54318C13.1964 9.54078 13.1884 9.53438 13.1836 9.52558V9.52598Z" fill="#FF9900"/>
<path d="M18.578 23.0372C18.5764 23.0156 18.5712 22.994 18.5648 22.9732C18.4996 22.7504 18.3216 22.5432 18.1896 22.3544C18.0432 22.1448 17.894 21.9372 17.744 21.7304C17.584 21.5096 17.41 21.2948 17.2588 21.0676L15.3264 18.3116C14.8168 17.6504 13.994 15.9416 13.6396 15.1836C13.6396 15.1836 13.6396 15.1572 13.6636 15.1724C14.0108 15.788 14.4128 16.3764 14.8892 16.8996C15.208 17.2496 15.5616 17.5716 15.9556 17.8356C16.2608 18.04 16.5928 18.2292 16.9588 18.294C17.094 18.318 17.2712 18.3332 17.3868 18.238C17.6552 18.0172 17.3204 17.49 17.1988 17.2868C16.8368 16.6812 16.6196 16.2552 16.4716 15.9292C16.3012 15.53 15.9392 14.5336 15.534 12.5196C15.4992 12.3392 15.464 12.1584 15.4284 11.9792C15.422 11.9476 15.4156 11.9164 15.4088 11.8848V11.8828C15.4088 11.8828 15.0152 9.43279 12.8268 7.99119L12.8236 7.98919C12.4596 7.72359 12.038 7.47119 11.5576 7.26519C11.3064 7.15319 11.0836 7.07719 10.8952 7.02519C10.4872 6.91319 10.2468 6.91719 10.2468 6.91719C10.1412 6.94999 10.5532 7.05999 10.5792 7.06679C10.58 7.06679 10.5808 7.06719 10.5816 7.06759C11.9424 7.51039 12.7864 8.55839 12.7864 8.55839C12.7864 8.55839 12.8072 8.58159 12.8396 8.62159C13.03 8.86119 13.6164 9.73079 12.6536 10.4492C11.4644 11.3364 10.7532 12.394 10.876 13.7852C10.9976 15.2996 13.0924 18.2624 12.706 19.398C12.4188 20.242 11.3436 20.138 11.0892 20.1184C10.8448 20.0968 10.618 20.048 10.4216 19.9776C9.51197 19.6872 8.05277 18.3756 8.05277 18.3756C8.05277 18.3756 7.04157 17.4176 6.05597 15.8324C4.89997 13.9284 4.39837 11.3976 4.39837 11.3976C4.39077 11.3836 4.38397 11.3804 4.37837 11.3828C4.35837 11.3764 4.35157 11.4096 4.35237 11.4608C4.35157 11.4676 4.35077 11.4724 4.35077 11.4724C4.35157 11.4776 4.35237 11.4832 4.35317 11.4884C4.36037 11.6228 4.40357 11.8356 4.40357 11.8356C4.43277 12.04 4.74997 14.2408 5.91677 16.2724C7.06917 18.28 8.71637 19.5448 8.94197 19.7128C8.94677 19.7168 8.96437 19.7328 8.94437 19.7504C8.28597 20.3104 6.22797 20.6232 6.09357 20.6368C6.07557 20.6384 6.05837 20.6412 6.04157 20.6444C5.94437 20.6604 5.88677 20.6848 5.85317 20.7092C5.85037 20.7108 5.84877 20.7116 5.84877 20.7116C5.84877 20.7116 5.84557 20.714 5.84077 20.7188C5.80237 20.7516 5.80437 20.7808 5.80437 20.7808C5.78677 20.8492 5.82557 20.9596 6.14837 21.0728C6.67277 21.2568 7.46917 21.2568 8.57917 21.0864C8.95797 21.0284 9.36237 20.9988 9.73037 20.9852C9.73117 20.9852 9.73157 20.9852 9.73237 20.9852C10.1496 20.9416 10.5752 20.9188 11.0072 20.9188C11.7948 20.9188 12.5604 20.994 13.2952 21.1352C13.9984 21.2496 14.6908 21.4324 15.3544 21.692C15.8412 21.8824 16.312 22.1132 16.7576 22.3864C17.0528 22.5672 17.3304 22.7724 17.6116 22.9748C17.6964 23.0356 17.7816 23.0968 17.8736 23.146C18.058 23.2444 18.3068 23.3116 18.496 23.1864C18.5288 23.1648 18.5592 23.136 18.572 23.0988C18.5788 23.0792 18.58 23.0588 18.5784 23.0384L18.578 23.0372Z" fill="#005CA1"/>
<path d="M8.49361 7.0896C5.66761 7.1728 3.55161 9.084 3.55161 9.084C3.55161 9.084 3.25041 9.3288 3.12121 9.5208L3.11961 9.5232C3.09921 9.554 3.08281 9.5832 3.07321 9.61C2.83681 10.1564 3.66201 10.6796 3.66201 10.6796C3.77361 10.7568 3.91601 10.8384 4.09761 10.9172C4.74601 11.198 5.08841 11.428 5.39481 11.6116C5.70121 11.7956 5.77281 11.5656 5.77281 11.5656C6.12081 10.4456 5.35961 9.2568 5.07681 8.868C5.04201 8.82 5.09721 8.7592 5.14881 8.788C5.32201 8.8844 5.48201 9.0924 5.55601 9.198C5.57761 9.2288 5.62241 9.2288 5.64481 9.1984C6.33601 8.262 7.91441 7.4728 8.51881 7.1944C8.57321 7.1692 8.55361 7.0876 8.49361 7.0892V7.0896Z" fill="#005CA1"/>
<path d="M20.6024 6.16918L20.5844 6.15998L19.272 5.66518C19.2288 5.64878 19.2064 5.60118 19.222 5.55758C19.2844 5.38118 19.4332 4.96198 19.4596 4.88718C19.4936 4.79198 19.4596 4.72718 19.4596 4.72718C19.4436 4.69078 19.4112 4.66598 19.3748 4.64918C19.32 4.62398 18.8144 4.53878 18.5832 4.50078C18.5264 4.49158 18.4956 4.42998 18.5216 4.37878C18.6708 4.08638 19.0892 3.26678 19.1532 3.14398C19.2316 2.99438 19.1804 2.92958 19.1804 2.92958C19.1056 2.82078 18.9864 2.85118 18.9864 2.85118L18.646 2.93638L17.5196 3.22278C17.466 3.23638 17.4136 3.19598 17.4132 3.14038L17.41 2.39158V2.38558C17.4132 2.36718 17.4252 2.26318 17.3724 2.20118C17.3144 2.13318 17.1648 2.19078 17.1648 2.19078L16.5348 2.38038C16.4832 2.39598 16.43 2.35998 16.4252 2.30638L16.2864 0.761179C16.2864 0.761179 16.2864 0.588379 16.1384 0.588379C16.0928 0.588379 16.0584 0.603179 16.0444 0.611179C16.0392 0.613979 16.024 0.623179 16.0076 0.638779C15.9764 0.668779 15.9312 0.766379 15.9192 0.787179C15.3384 1.80398 14.7576 2.82118 14.1768 3.83798C14.1688 3.85238 14.152 3.85958 14.136 3.85598C13.8872 3.80198 13.6288 3.77318 13.3636 3.77318C13.2796 3.77318 13.1964 3.77678 13.1136 3.78278C13.1064 3.78318 13.0508 3.63118 13.0448 3.61798C13.0108 3.53998 12.9744 3.46318 12.9368 3.38678C12.8364 3.18438 12.724 2.98798 12.5988 2.79998C12.4484 2.57358 12.2796 2.35918 12.0896 2.16478C11.8844 1.95478 11.6544 1.76838 11.3992 1.62278C11.2324 1.52758 11.0576 1.44478 10.8692 1.40358C10.6912 1.36438 10.51 1.34158 10.3276 1.34358C10.0492 1.34678 9.76918 1.40838 9.52278 1.54038C9.41238 1.59958 9.31758 1.65758 9.21958 1.73958C9.18278 1.76998 9.14758 1.80998 9.14078 1.85878C9.13318 1.91438 9.16278 1.93918 9.20398 1.96678C9.24118 1.99158 9.27718 2.01838 9.31278 2.04598C9.38278 2.09998 9.44958 2.15798 9.51278 2.21958C9.63758 2.34038 9.74878 2.47478 9.84598 2.61838C9.94318 2.76198 10.026 2.91358 10.0964 3.07078C10.1668 3.22798 10.2248 3.39158 10.2716 3.55798C10.3184 3.72438 10.3532 3.89118 10.3788 4.06078C10.4044 4.23038 10.4192 4.39318 10.4256 4.56038C10.432 4.72758 10.43 4.87878 10.4196 5.03758C10.41 5.18358 10.3936 5.32918 10.3684 5.47318C10.3464 5.59998 10.3176 5.72558 10.2792 5.84878C10.252 5.93598 10.2204 6.02158 10.1808 6.10358C10.146 6.21518 10.0208 6.36318 10.1436 6.33398C10.4524 6.14518 10.5912 5.65838 10.6476 5.36918C10.6596 5.30878 10.7412 5.29878 10.7684 5.35398C10.7976 5.41318 10.8252 5.46518 10.85 5.51038C10.9824 5.74998 11.2264 5.97398 11.2688 6.00078C11.3184 6.03518 11.3688 6.03358 11.3812 6.01598C11.3928 5.99918 11.3792 5.95718 11.3384 5.92358L11.3292 5.91438C10.848 5.34558 10.7868 4.76118 10.7032 4.23758C10.5976 3.66238 10.5056 3.20798 10.2284 2.72358C10.0724 2.43758 9.85638 2.15398 9.57878 1.97598C9.56838 1.96918 9.55758 1.96238 9.55118 1.95158C9.52358 1.90438 9.75318 1.87438 9.77638 1.87118C9.90558 1.85358 10.0316 1.86398 10.1588 1.89358C10.4752 1.96718 10.7568 2.15198 10.9852 2.37918C11.1424 2.53558 11.2776 2.71478 11.3868 2.90798C11.4548 3.02798 11.5084 3.15278 11.5628 3.27918C11.852 3.95078 11.956 4.61718 12.1552 5.10198C12.3544 5.58718 12.5832 5.92918 12.5832 5.92918C13.2716 6.90958 13.9984 7.07318 13.9984 7.07318C13.9984 7.07318 14.4068 7.15478 14.1568 6.74118C13.9064 6.32758 13.6156 5.59238 13.6156 5.59238C13.6156 5.59238 13.0608 4.26158 13.9176 4.40878C13.9384 4.40998 13.9592 4.41238 13.98 4.41558C13.9916 4.41798 14.0036 4.41958 14.0152 4.42198C14.0172 4.42238 14.0196 4.42278 14.0216 4.42318C15.3092 4.68758 16.2776 5.82718 16.2776 7.19278C16.2776 8.24318 15.704 9.15798 14.854 9.64518C14.8532 9.64558 14.852 9.64638 14.8512 9.64678L14.7584 9.69158C14.7392 9.70078 14.7316 9.72358 14.7408 9.74278L14.9712 10.2092C14.9812 10.2292 15.0056 10.2364 15.0248 10.2252C15.0736 10.196 15.1552 10.1472 15.1548 10.1472C16.106 9.59838 16.7692 8.62678 16.8692 7.49798C16.8708 7.48198 16.882 7.46838 16.8976 7.46478L17.1104 7.41118C17.1104 7.41118 20.392 6.52598 20.542 6.48878C20.6916 6.45118 20.6916 6.33558 20.6916 6.33558C20.7056 6.25118 20.6292 6.18998 20.602 6.17118L20.6024 6.16918ZM20.0008 6.29958L18.714 6.64358L17.7944 6.88198C17.7508 6.89318 17.706 6.86878 17.692 6.82598C17.4792 6.17838 17.3148 5.93518 17.3148 5.93518C17.3148 5.93518 17.2568 5.82278 17.1684 5.87038C17.08 5.91798 17.1512 6.06118 17.1512 6.06118C17.3488 6.53438 17.392 6.99038 17.392 6.99038L17.376 6.99398L16.9284 7.11478C16.9048 7.12118 16.8816 7.10358 16.8808 7.07918C16.83 5.63798 15.8652 4.42278 14.5328 3.96638C14.5104 3.95878 14.5 3.93278 14.512 3.91198L15.0544 2.95678L15.8624 1.53038C15.9036 1.45758 16.014 1.48158 16.0216 1.56478L16.2052 3.63758C16.2052 3.63758 16.2052 3.76678 16.2732 3.82478C16.3412 3.88278 16.498 3.83518 16.498 3.83518L18.542 3.29438C18.6128 3.27558 18.6728 3.34918 18.64 3.41478L17.77 5.15758L17.7648 5.16638C17.752 5.18518 17.702 5.26638 17.72 5.35278C17.7404 5.45158 17.822 5.47878 17.822 5.47878L20.0212 6.28918L20.0008 6.29958Z" fill="#005CA1"/>
<path d="M15.2996 6.43558C15.3472 6.50518 15.378 6.53438 15.378 6.53438C15.4544 6.57518 15.4308 6.45958 15.4308 6.45958C15.23 5.79918 14.7228 5.54398 14.5576 5.45518C14.4856 5.41678 14.3248 5.37718 14.3032 5.49798C14.294 5.54838 14.3304 5.60038 14.3724 5.62558C14.958 5.89798 15.2524 6.36598 15.3 6.43598L15.2996 6.43558Z" fill="#005CA1"/>
<path d="M10.7408 1.6492C10.7824 1.6524 10.8452 1.6756 10.8584 1.6804C10.9292 1.7052 10.9984 1.7344 11.0668 1.7664C11.1632 1.8116 11.2568 1.8632 11.3472 1.92C11.4604 1.9908 11.5688 2.07 11.672 2.156C11.7936 2.2576 11.908 2.3696 12.0136 2.4896C12.1352 2.628 12.2456 2.7776 12.344 2.9356C12.4568 3.1172 12.5536 3.31 12.6352 3.5092C12.6608 3.5716 12.6852 3.6344 12.7072 3.698C12.7072 3.698 12.7496 3.8216 12.6864 3.91C12.684 3.9132 12.6812 3.9164 12.678 3.9188C12.6592 3.9332 12.5924 3.9736 12.506 3.894C12.5036 3.892 12.5016 3.89 12.5 3.8876C12.4072 3.7576 12.2508 2.5576 10.7332 1.6996C10.724 1.6944 10.7076 1.6836 10.7048 1.6724C10.7 1.6524 10.7168 1.6472 10.7408 1.6492Z" fill="white"/>
</svg>
