<svg width="24" height="24" viewBox="0 0 24 24" fill="none" xmlns="http://www.w3.org/2000/svg">
<path d="M16.4336 6.03837C16.4228 6.06877 16.4216 6.10837 16.4256 6.13437C16.4916 6.88677 16.4132 7.16957 16.2256 7.42077C16.0484 7.65757 15.8272 7.77637 15.6608 7.83477C15.5224 7.87797 15.3416 7.91277 15.1108 7.91957C15.032 7.92197 14.9628 7.93237 14.9012 7.94837L14.8988 7.94917C14.8864 7.95237 14.8744 7.95597 14.8624 7.95957C14.86 7.96037 14.8576 7.96077 14.8548 7.96157C14.8528 7.96237 14.8508 7.96317 14.8488 7.96357C14.842 7.96597 14.8348 7.96837 14.8284 7.97077C14.5576 8.06797 14.4676 8.25677 14.44 8.39837C14.432 8.43357 14.4272 8.47357 14.428 8.51837C14.4268 8.53357 14.4268 8.54237 14.4268 8.54237C14.4268 8.54237 14.428 8.54717 14.43 8.55557C14.4304 8.55997 14.4308 8.56477 14.4316 8.56917C14.432 8.57437 14.4328 8.57757 14.4328 8.57757C14.4464 8.68117 14.4916 8.80477 14.5976 8.94517C14.6172 8.97517 14.6384 9.00437 14.6624 9.03237C14.83 9.22917 15.13 9.67317 15.1516 9.70477C15.1524 9.70597 15.1532 9.70717 15.154 9.70877L15.196 9.79197C15.206 9.81157 15.23 9.81877 15.2488 9.80757C15.4812 9.67117 16.794 8.82317 16.7764 7.08837C16.7764 7.08717 16.7764 7.08597 16.7764 7.08437C16.7444 6.77517 16.71 6.44477 16.602 6.15157C16.5856 6.10717 16.5624 6.03117 16.5176 6.00557C16.4724 5.97997 16.4476 6.00277 16.4352 6.03797L16.4336 6.03837Z" fill="white"/>
<path d="M13.6108 9.52598C13.5144 9.35798 12.4408 7.65038 8.85717 8.14358C8.83037 8.14718 8.80797 8.12318 8.81477 8.09678C8.88157 7.83718 9.24837 6.74278 10.6712 6.91678C10.6732 6.91678 10.6744 6.91718 10.6764 6.91758C10.7612 6.93958 13.078 7.54558 13.7864 8.66838C14.4508 9.72118 13.7496 9.57358 13.6336 9.54318C13.6236 9.54078 13.6156 9.53438 13.6108 9.52558V9.52598Z" fill="white"/>
<path d="M19.0048 23.0372C19.0032 23.0156 18.998 22.994 18.9916 22.9732C18.9264 22.7504 18.7484 22.5432 18.6164 22.3544C18.47 22.1448 18.3208 21.9372 18.1708 21.7304C18.0108 21.5096 17.8368 21.2948 17.6856 21.0676L15.7532 18.3116C15.2436 17.6504 14.4208 15.9416 14.0664 15.1836C14.0664 15.1836 14.0664 15.1572 14.0904 15.1724C14.4376 15.788 14.8396 16.3764 15.316 16.8996C15.6348 17.2496 15.9884 17.5716 16.3824 17.8356C16.6876 18.04 17.0196 18.2292 17.3856 18.294C17.5208 18.318 17.698 18.3332 17.8136 18.238C18.082 18.0172 17.7472 17.49 17.6256 17.2868C17.2636 16.6812 17.0464 16.2552 16.8984 15.9292C16.728 15.53 16.366 14.5336 15.9608 12.5196C15.926 12.3392 15.8908 12.1584 15.8552 11.9792C15.8488 11.9476 15.8424 11.9164 15.8356 11.8848V11.8828C15.8356 11.8828 15.442 9.43279 13.2536 7.99119L13.2504 7.98919C12.8864 7.72359 12.4648 7.47119 11.9844 7.26519C11.7332 7.15319 11.5104 7.07719 11.322 7.02519C10.914 6.91319 10.6736 6.91719 10.6736 6.91719C10.568 6.94999 10.98 7.05999 11.006 7.06679C11.0068 7.06679 11.0076 7.06719 11.0084 7.06759C12.3692 7.51039 13.2132 8.55839 13.2132 8.55839C13.2132 8.55839 13.234 8.58159 13.2664 8.62159C13.4568 8.86119 14.0432 9.73079 13.0804 10.4492C11.8912 11.3364 11.18 12.394 11.3028 13.7852C11.4244 15.2996 13.5192 18.2624 13.1328 19.398C12.8456 20.242 11.7704 20.138 11.516 20.1184C11.2716 20.0968 11.0448 20.048 10.8484 19.9776C9.93879 19.6872 8.47959 18.3756 8.47959 18.3756C8.47959 18.3756 7.46839 17.4176 6.48279 15.8324C5.32679 13.9284 4.82519 11.3976 4.82519 11.3976C4.81759 11.3836 4.81079 11.3804 4.80519 11.3828C4.78519 11.3764 4.77839 11.4096 4.77919 11.4608C4.77839 11.4676 4.77759 11.4724 4.77759 11.4724C4.77839 11.4776 4.77919 11.4832 4.77999 11.4884C4.78719 11.6228 4.83039 11.8356 4.83039 11.8356C4.85959 12.04 5.17679 14.2408 6.34359 16.2724C7.49599 18.28 9.14319 19.5448 9.36879 19.7128C9.37359 19.7168 9.39119 19.7328 9.37119 19.7504C8.71279 20.3104 6.65479 20.6232 6.52039 20.6368C6.50239 20.6384 6.48519 20.6412 6.46839 20.6444C6.37119 20.6604 6.31359 20.6848 6.27999 20.7092C6.27719 20.7108 6.27559 20.7116 6.27559 20.7116C6.27559 20.7116 6.27239 20.714 6.26759 20.7188C6.22919 20.7516 6.23119 20.7808 6.23119 20.7808C6.21359 20.8492 6.25239 20.9596 6.57519 21.0728C7.09959 21.2568 7.89599 21.2568 9.00599 21.0864C9.38479 21.0284 9.78919 20.9988 10.1572 20.9852C10.158 20.9852 10.1584 20.9852 10.1592 20.9852C10.5764 20.9416 11.002 20.9188 11.434 20.9188C12.2216 20.9188 12.9872 20.994 13.722 21.1352C14.4252 21.2496 15.1176 21.4324 15.7812 21.692C16.268 21.8824 16.7388 22.1132 17.1844 22.3864C17.4796 22.5672 17.7572 22.7724 18.0384 22.9748C18.1232 23.0356 18.2084 23.0968 18.3004 23.146C18.4848 23.2444 18.7336 23.3116 18.9228 23.1864C18.9556 23.1648 18.986 23.136 18.9988 23.0988C19.0056 23.0792 19.0068 23.0588 19.0052 23.0384L19.0048 23.0372Z" fill="white"/>
<path d="M8.92037 7.0896C6.09437 7.1728 3.97837 9.084 3.97837 9.084C3.97837 9.084 3.67717 9.3288 3.54797 9.5208L3.54637 9.5232C3.52597 9.554 3.50957 9.5832 3.49997 9.61C3.26357 10.1564 4.08877 10.6796 4.08877 10.6796C4.20037 10.7568 4.34277 10.8384 4.52437 10.9172C5.17277 11.198 5.51517 11.428 5.82157 11.6116C6.12797 11.7956 6.19957 11.5656 6.19957 11.5656C6.54757 10.4456 5.78637 9.2568 5.50357 8.868C5.46877 8.82 5.52397 8.7592 5.57557 8.788C5.74877 8.8844 5.90877 9.0924 5.98277 9.198C6.00437 9.2288 6.04917 9.2288 6.07157 9.1984C6.76277 8.262 8.34117 7.4728 8.94557 7.1944C8.99997 7.1692 8.98037 7.0876 8.92037 7.0892V7.0896Z" fill="white"/>
<path d="M15.7268 6.43558C15.7744 6.50518 15.8052 6.53438 15.8052 6.53438C15.8816 6.57518 15.858 6.45958 15.858 6.45958C15.6572 5.79918 15.15 5.54398 14.9848 5.45518C14.9128 5.41678 14.752 5.37718 14.7304 5.49798C14.7212 5.54838 14.7576 5.60038 14.7996 5.62558C15.3852 5.89798 15.6796 6.36598 15.7272 6.43598L15.7268 6.43558Z" fill="white"/>
<path d="M21.0296 6.16918L21.0116 6.15998L19.6992 5.66518C19.656 5.64878 19.6336 5.60118 19.6492 5.55758C19.7116 5.38118 19.8604 4.96198 19.8868 4.88718C19.9208 4.79198 19.8868 4.72718 19.8868 4.72718C19.8708 4.69078 19.8384 4.66598 19.802 4.64918C19.7472 4.62398 19.2416 4.53878 19.0104 4.50078C18.9536 4.49158 18.9228 4.42998 18.9488 4.37878C19.098 4.08638 19.5164 3.26678 19.5804 3.14398C19.6588 2.99438 19.6076 2.92958 19.6076 2.92958C19.5328 2.82078 19.4136 2.85118 19.4136 2.85118L19.0732 2.93638L17.9468 3.22278C17.8932 3.23638 17.8408 3.19598 17.8404 3.14038L17.8372 2.39158V2.38558C17.8404 2.36718 17.8524 2.26318 17.7996 2.20118C17.7416 2.13318 17.592 2.19078 17.592 2.19078L16.962 2.38038C16.9104 2.39598 16.8572 2.35998 16.8524 2.30638L16.7136 0.761179C16.7136 0.761179 16.7136 0.588379 16.5656 0.588379C16.52 0.588379 16.4856 0.603179 16.4716 0.611179C16.4664 0.613979 16.4512 0.623179 16.4348 0.638779C16.4036 0.668779 16.3584 0.766379 16.3464 0.787179C15.7656 1.80398 15.1848 2.82118 14.604 3.83798C14.596 3.85238 14.5792 3.85958 14.5632 3.85598C14.3144 3.80198 14.056 3.77318 13.7908 3.77318C13.7068 3.77318 13.6236 3.77678 13.5408 3.78278C13.5336 3.78318 13.478 3.63118 13.472 3.61798C13.438 3.53998 13.4016 3.46318 13.364 3.38678C13.2636 3.18438 13.1512 2.98798 13.026 2.79998C12.8756 2.57358 12.7068 2.35918 12.5168 2.16478C12.3116 1.95478 12.0816 1.76838 11.8264 1.62278C11.6596 1.52758 11.4848 1.44478 11.2964 1.40358C11.1184 1.36438 10.9372 1.34158 10.7548 1.34358C10.4764 1.34678 10.1964 1.40838 9.94997 1.54038C9.83957 1.59958 9.74477 1.65758 9.64677 1.73958C9.60997 1.76998 9.57477 1.80998 9.56797 1.85878C9.56037 1.91438 9.58997 1.93918 9.63117 1.96678C9.66837 1.99158 9.70437 2.01838 9.73997 2.04598C9.80997 2.09998 9.87677 2.15798 9.93997 2.21958C10.0648 2.34038 10.176 2.47478 10.2732 2.61838C10.37 2.76118 10.4532 2.91358 10.5236 3.07078C10.594 3.22838 10.652 3.39158 10.6988 3.55798C10.7452 3.72318 10.7804 3.89118 10.806 4.06078C10.8308 4.22638 10.8464 4.39318 10.8528 4.56038C10.8592 4.71918 10.8572 4.87878 10.8468 5.03758C10.8372 5.18358 10.8208 5.32918 10.7956 5.47318C10.7736 5.59998 10.7448 5.72558 10.7064 5.84878C10.6792 5.93598 10.6476 6.02158 10.608 6.10358C10.5732 6.21518 10.448 6.36318 10.5708 6.33398C10.8796 6.14518 11.0184 5.65838 11.0748 5.36918C11.0868 5.30878 11.1684 5.29878 11.1956 5.35398C11.2248 5.41318 11.2524 5.46518 11.2772 5.51038C11.4096 5.74998 11.6536 5.97398 11.696 6.00078C11.7456 6.03518 11.796 6.03358 11.8084 6.01598C11.82 5.99918 11.8064 5.95718 11.7656 5.92358L11.7564 5.91438C11.2752 5.34558 11.214 4.76118 11.1304 4.23758C11.0248 3.66238 10.9328 3.20798 10.6556 2.72358C10.4996 2.43758 10.2836 2.15398 10.006 1.97598C9.99557 1.96918 9.98477 1.96238 9.97837 1.95158C9.95077 1.90438 10.1804 1.87438 10.2036 1.87118C10.3328 1.85358 10.4588 1.86398 10.586 1.89358C10.9024 1.96718 11.184 2.15198 11.4124 2.37918C11.5696 2.53558 11.7048 2.71478 11.814 2.90798C11.882 3.02798 11.9356 3.15278 11.99 3.27918C12.2792 3.95078 12.3832 4.61718 12.5824 5.10198C12.7816 5.58718 13.0104 5.92918 13.0104 5.92918C13.6988 6.90958 14.4256 7.07318 14.4256 7.07318C14.4256 7.07318 14.834 7.15478 14.584 6.74118C14.3336 6.32758 14.0428 5.59238 14.0428 5.59238C14.0428 5.59238 13.488 4.26158 14.3448 4.40878C14.3656 4.40998 14.3864 4.41238 14.4072 4.41558C14.4188 4.41798 14.4308 4.41958 14.4424 4.42198C14.4444 4.42238 14.4468 4.42278 14.4488 4.42318C15.7364 4.68758 16.7048 5.82718 16.7048 7.19278C16.7048 8.24318 16.1312 9.15798 15.2812 9.64518C15.2804 9.64558 15.2792 9.64638 15.2784 9.64678L15.1856 9.69158C15.1664 9.70078 15.1588 9.72358 15.168 9.74278L15.3984 10.2092C15.4084 10.2292 15.4328 10.2364 15.452 10.2252C15.5008 10.196 15.5824 10.1472 15.582 10.1472C16.5332 9.59838 17.1964 8.62678 17.2964 7.49798C17.298 7.48198 17.3092 7.46838 17.3248 7.46478L17.5376 7.41118C17.5376 7.41118 20.8192 6.52598 20.9692 6.48878C21.1188 6.45118 21.1188 6.33558 21.1188 6.33558C21.1328 6.25118 21.0564 6.18998 21.0292 6.17118L21.0296 6.16918ZM13.1132 3.91078C13.1108 3.91398 13.108 3.91718 13.1048 3.91958C13.086 3.93398 13.0192 3.97438 12.9328 3.89478C12.9304 3.89278 12.9284 3.89078 12.9268 3.88838C12.834 3.75838 12.6776 2.55838 11.16 1.70038C11.1508 1.69518 11.1344 1.68438 11.1316 1.67318C11.1268 1.65318 11.1436 1.64798 11.1676 1.64998C11.2092 1.65318 11.272 1.67638 11.2852 1.68118C11.356 1.70598 11.4252 1.73518 11.4936 1.76718C11.59 1.81238 11.6836 1.86398 11.774 1.92078C11.8872 1.99158 11.9956 2.07078 12.0988 2.15678C12.2204 2.25838 12.3348 2.37038 12.4404 2.49038C12.562 2.62878 12.6724 2.77838 12.7708 2.93638C12.8836 3.11798 12.9804 3.31078 13.062 3.50998C13.0876 3.57238 13.112 3.63518 13.134 3.69878C13.134 3.69878 13.1764 3.82238 13.1132 3.91078ZM20.428 6.29958L19.1412 6.64358L18.2216 6.88198C18.178 6.89318 18.1332 6.86878 18.1192 6.82598C17.9064 6.17838 17.742 5.93518 17.742 5.93518C17.742 5.93518 17.684 5.82278 17.5956 5.87038C17.5072 5.91798 17.5784 6.06118 17.5784 6.06118C17.776 6.53438 17.8192 6.99038 17.8192 6.99038L17.8032 6.99398L17.3556 7.11478C17.332 7.12118 17.3088 7.10358 17.308 7.07918C17.2572 5.63798 16.2924 4.42278 14.96 3.96638C14.9376 3.95878 14.9272 3.93278 14.9392 3.91198L15.4816 2.95678L16.2896 1.53038C16.3308 1.45758 16.4412 1.48158 16.4488 1.56478L16.6324 3.63758C16.6324 3.63758 16.6324 3.76678 16.7004 3.82478C16.7684 3.88278 16.9252 3.83518 16.9252 3.83518L18.9692 3.29438C19.04 3.27558 19.1 3.34918 19.0672 3.41478L18.1972 5.15758L18.192 5.16638C18.1792 5.18518 18.1292 5.26638 18.1472 5.35278C18.1676 5.45158 18.2492 5.47878 18.2492 5.47878L20.4484 6.28918L20.428 6.29958Z" fill="white"/>
</svg>
