<svg width="24" height="24" viewBox="0 0 24 24" fill="none" xmlns="http://www.w3.org/2000/svg">
<path opacity="0.957" fill-rule="evenodd" clip-rule="evenodd" d="M5.95081 2.00933C7.32567 1.95561 8.66837 2.13543 9.97885 2.5488C10.5763 3.1335 11.1037 3.76887 11.5613 4.45492C11.8931 4.39891 12.2288 4.36295 12.5683 4.34703C12.9417 3.70953 13.3972 3.13409 13.935 2.62073C14.7649 2.29046 15.6281 2.09864 16.5244 2.04529C17.0279 1.99734 17.5314 1.99734 18.0349 2.04529C19.5808 2.8722 21.0073 3.86723 22.3147 5.03036C22.8788 6.64192 23.0946 8.2963 22.9621 9.99347C22.4192 11.0873 21.7358 12.0824 20.9121 12.9785C20.0426 13.2674 19.1554 13.3993 18.2507 13.3741C18.7687 12.5783 19.2122 11.7391 19.5814 10.8566C19.7469 9.92859 19.675 9.01747 19.3656 8.12331C19.2849 7.97055 19.177 7.83868 19.0419 7.7277C18.2591 7.29876 17.4439 6.93911 16.5963 6.64876C16.3518 6.60949 16.1121 6.63347 15.877 6.72069C16.2191 6.79423 16.5548 6.89014 16.8841 7.00841C17.4181 7.54229 17.8378 8.15369 18.1428 8.84261C18.1291 9.67828 17.9853 10.4935 17.7112 11.2882C17.5418 11.6854 17.2421 11.9252 16.8121 12.0075C17.2422 12.6986 17.5299 13.4419 17.6753 14.2373C16.9728 14.143 16.3134 13.9272 15.6972 13.5899C15.6798 13.1307 15.6319 12.6751 15.5534 12.2233C15.4558 12.2866 15.3479 12.3106 15.2297 12.2952C15.2136 13.6151 15.1657 14.9339 15.0858 16.2513C15.1098 16.3712 15.1338 16.4911 15.1578 16.611C15.6852 16.9226 16.2127 17.2344 16.7402 17.546C17.0284 17.1136 17.2802 16.6581 17.4955 16.1794C17.5582 16.0274 17.6661 15.9315 17.8191 15.8917C18.4489 16.0255 19.0244 16.2772 19.5454 16.6469C19.709 16.7739 19.8289 16.9298 19.9051 17.1145C19.3727 18.5315 18.3897 19.023 16.956 18.589C16.3286 18.2845 15.7292 17.9368 15.1578 17.546C15.1338 17.8217 15.1098 18.0975 15.0858 18.3732C15.1649 19.4399 15.2369 20.5069 15.3016 21.5741C14.3029 21.7619 13.2959 21.8218 12.2806 21.7539C11.4 21.3439 10.5728 20.8524 9.79902 20.2794C9.55432 19.8051 9.38651 19.3016 9.29552 18.7688C8.88466 16.6556 8.70484 14.5217 8.75605 12.3671C8.63614 12.3671 8.51631 12.3671 8.3964 12.3671C8.40532 12.8052 8.35742 13.2368 8.25254 13.6619C7.63113 13.941 6.98376 14.1327 6.31046 14.2373C6.44972 13.4479 6.73744 12.7166 7.17361 12.0435C6.75402 11.9116 6.47829 11.6358 6.34642 11.2163C6.1499 10.7226 5.98206 10.2191 5.84292 9.70576C5.79496 9.41804 5.79496 9.13032 5.84292 8.84261C6.20297 8.17082 6.64654 7.55942 7.17361 7.00841C7.4458 6.86837 7.7335 6.77247 8.03676 6.72069C7.8514 6.63075 7.65961 6.60678 7.46132 6.64876C6.59711 6.94898 5.75793 7.30862 4.9438 7.7277C4.79155 7.85221 4.68366 8.00805 4.62012 8.19524C4.11105 9.49213 4.20695 10.7389 4.90784 11.9356C5.19793 12.4058 5.47367 12.8853 5.73502 13.3741C4.83268 13.3837 3.94554 13.2518 3.07364 12.9785C2.219 12.0757 1.53567 11.0567 1.02366 9.92155C0.923585 8.24844 1.13937 6.61804 1.67102 5.03036C3.02041 3.90679 4.44701 2.89978 5.95081 2.00933ZM11.7771 5.31807C12.3534 5.34828 12.9049 5.48015 13.4314 5.71368C13.7684 6.041 14.0801 6.38866 14.3665 6.75666C13.8343 6.9806 13.3428 7.26831 12.892 7.61981C12.5714 8.23387 12.3436 8.88123 12.2087 9.5619C12.3686 10.2215 12.6204 10.8449 12.9639 11.4321C13.3877 11.7578 13.8553 11.9976 14.3665 12.1514C14.2677 13.4437 14.2078 14.7384 14.1867 16.0355C13.6676 15.6493 13.1042 15.3376 12.4964 15.1005C12.4126 14.6709 12.4007 14.2393 12.4604 13.8057C12.7721 13.4941 13.0838 13.1823 13.3955 12.8706C13.5306 12.7248 13.6146 12.557 13.6472 12.3671C12.5691 12.2738 11.4902 12.2738 10.4104 12.3671C10.4098 12.4972 10.4457 12.6171 10.5183 12.7268C10.8516 13.1321 11.2112 13.5157 11.5973 13.8777C11.6452 14.2853 11.6452 14.6928 11.5973 15.1005C10.9502 15.3877 10.3507 15.7474 9.79902 16.1794C9.78111 14.8933 9.7212 13.6106 9.6192 12.3312C10.2012 11.9654 10.7647 11.5698 11.3095 11.1443C11.6327 10.5593 11.7766 9.93586 11.7411 9.27418C11.5778 8.73649 11.3861 8.20901 11.1657 7.69174C10.7309 7.26452 10.2394 6.91686 9.69113 6.64876C10.1946 5.89159 10.8899 5.44803 11.7771 5.31807ZM9.04377 7.47595C10.2063 7.69928 10.8057 8.40659 10.842 9.59786C10.8199 9.93787 10.736 10.2616 10.5902 10.5689C10.1643 10.9826 9.67279 11.2943 9.1157 11.504C8.54774 11.404 7.99626 11.2481 7.46132 11.0364C7.30038 10.8904 7.19249 10.7106 7.13764 10.497C7.01836 10.0917 6.91047 9.68411 6.81396 9.27418C7.02764 8.7374 7.31536 8.24589 7.67711 7.79963C8.13027 7.64476 8.58579 7.53687 9.04377 7.47595ZM14.5823 7.47595C15.1416 7.5069 15.693 7.59081 16.2367 7.7277C16.674 8.17702 17.0097 8.6925 17.2437 9.27418C17.1336 9.90471 16.9178 10.4922 16.5963 11.0364C16.06 11.2432 15.5085 11.399 14.942 11.504C13.3899 11.0375 12.8985 10.0304 13.4674 8.48296C13.5964 8.2819 13.7523 8.10207 13.935 7.94349C14.181 7.82132 14.3968 7.66547 14.5823 7.47595ZM11.9209 15.7478C12.6898 16.0243 13.4091 16.396 14.0788 16.8627C13.5001 17.296 12.8767 17.6557 12.2087 17.9417C11.8254 17.955 11.4658 17.8591 11.1297 17.6539C10.7505 17.4424 10.3909 17.2027 10.0508 16.9346C10.6423 16.4834 11.2657 16.0878 11.9209 15.7478Z" fill="black"/>
<path opacity="0.875" fill-rule="evenodd" clip-rule="evenodd" d="M15.733 8.19531C16.0073 8.27659 16.2231 8.44443 16.3804 8.69882C16.205 8.98233 15.9893 9.23411 15.733 9.45407C15.9368 9.65785 16.1407 9.8617 16.3444 10.0655C16.2415 10.3261 16.0617 10.5419 15.805 10.7128C15.5633 10.5191 15.3475 10.3033 15.1576 10.0655C14.9658 10.2813 14.774 10.497 14.5822 10.7128C14.3787 10.6231 14.1869 10.5152 14.0067 10.3892C13.9336 10.3137 13.9216 10.2298 13.9708 10.1374C14.1912 9.95312 14.3711 9.73733 14.5102 9.49004C14.2911 9.27101 14.0993 9.03127 13.9348 8.77075C14.0296 8.54417 14.1854 8.37634 14.4024 8.26724C14.6413 8.45806 14.8811 8.64987 15.1216 8.84268C15.3402 8.63628 15.5439 8.42049 15.733 8.19531Z" fill="black"/>
</svg>
