<svg width="24" height="24" viewBox="0 0 24 24" fill="none" xmlns="http://www.w3.org/2000/svg">
<path opacity="0.971" fill-rule="evenodd" clip-rule="evenodd" d="M6.08572 2.00708C7.35959 2.02216 8.60878 2.20233 9.83331 2.5476C10.4877 3.07295 11.0162 3.70956 11.4188 4.45742C10.8678 4.63697 10.3393 4.86519 9.83331 5.14208C9.397 5.58307 9.01259 6.06353 8.6802 6.58345C8.31907 6.71244 7.95872 6.70042 7.59917 6.54742C6.94204 6.77846 6.29342 7.03071 5.65331 7.30414C5.30979 7.47985 4.98548 7.68404 4.68038 7.91673C4.25548 8.97547 4.18341 10.0565 4.46418 11.1598C4.80567 11.9153 5.20204 12.6359 5.65331 13.3219C4.76438 13.37 3.89955 13.2379 3.05883 12.9255C2.18237 11.9769 1.49772 10.9079 1.00487 9.71845C0.972641 8.50326 1.09276 7.30212 1.36521 6.11501C1.42998 5.73564 1.5501 5.3753 1.72556 5.03397C3.08945 3.89012 4.54285 2.88116 6.08572 2.00708Z" fill="#FEFFFE"/>
<path opacity="0.971" fill-rule="evenodd" clip-rule="evenodd" d="M17.04 2.00718C17.4075 1.98373 17.7679 2.01976 18.1211 2.11528C19.6265 2.97225 21.0319 3.96921 22.3371 5.10614C22.8428 6.65238 23.059 8.23789 22.9857 9.86268C22.4727 11 21.7881 12.021 20.9318 12.9256C20.0923 13.2257 19.2275 13.3698 18.3373 13.358C18.8683 12.5242 19.3127 11.6474 19.6706 10.7275C19.8097 9.76013 19.6895 8.82323 19.3102 7.91682C18.98 7.62533 18.6076 7.39711 18.1931 7.23217C17.6159 6.97568 17.0274 6.74746 16.4275 6.54752C16.0864 6.66375 15.738 6.69978 15.3825 6.65562C15.1265 6.15963 14.8142 5.70319 14.4456 5.28631C13.8454 4.94225 13.2208 4.65398 12.5718 4.42148C12.9701 3.75852 13.4505 3.15795 14.0132 2.61976C14.1997 2.53353 14.3919 2.46146 14.5897 2.40356C15.4112 2.23518 16.228 2.10306 17.04 2.00718Z" fill="#FEFFFE"/>
<path opacity="0.935" fill-rule="evenodd" clip-rule="evenodd" d="M11.5629 5.32238C12.2132 5.28669 12.8377 5.39479 13.4367 5.64669C13.79 6.01755 14.1263 6.40193 14.4457 6.79979C13.924 7.0304 13.4316 7.30667 12.9682 7.62858C12.618 8.23485 12.3898 8.88347 12.2836 9.57444C12.4358 10.2392 12.688 10.8638 13.0403 11.4482C13.5009 11.7566 13.9933 11.9968 14.5177 12.1689C14.432 13.4887 14.3719 14.81 14.3375 16.1327C13.7483 15.7177 13.1237 15.3574 12.4638 15.0517C12.4157 14.6193 12.4157 14.1868 12.4638 13.7544C12.776 13.4422 13.0884 13.1298 13.4007 12.8175C13.513 12.6938 13.573 12.5497 13.5808 12.3851C12.5469 12.2826 11.5139 12.2946 10.4819 12.4212C10.4257 12.4985 10.4377 12.5826 10.5179 12.6734C10.8518 13.0795 11.2121 13.4639 11.5989 13.8265C11.6587 14.2609 11.6468 14.6933 11.5629 15.1237C10.9265 15.4297 10.3259 15.79 9.76118 16.2048C9.70705 16.1416 9.67102 16.0696 9.65307 15.9886C9.61243 14.8342 9.55232 13.6811 9.4729 12.5293C9.4969 12.4332 9.52097 12.3371 9.54497 12.241C10.2012 11.9552 10.7898 11.5709 11.3107 11.0879C11.5101 10.6095 11.6663 10.117 11.7791 9.61048C11.6221 8.94816 11.3939 8.31155 11.0945 7.70065C10.645 7.32272 10.1765 6.97438 9.68911 6.65565C9.92838 6.36819 10.1686 6.07992 10.4098 5.79083C10.7745 5.56956 11.159 5.41341 11.5629 5.32238Z" fill="#FEFFFE"/>
<path opacity="0.956" fill-rule="evenodd" clip-rule="evenodd" d="M8.75229 7.4845C10.075 7.53358 10.7957 8.23025 10.9144 9.57449C10.8728 9.95127 10.7766 10.3116 10.6261 10.6555C10.2426 10.9674 9.83418 11.2438 9.40091 11.4843C8.69917 11.5132 8.02655 11.381 7.38298 11.0879C6.94772 10.3965 6.79157 9.65182 6.91453 8.85381C7.10232 8.49813 7.31853 8.16181 7.56315 7.84484C7.64755 7.74444 7.75565 7.68438 7.88746 7.66467C8.18763 7.61383 8.4759 7.55378 8.75229 7.4845Z" fill="#FEFFFE"/>
<path opacity="0.891" fill-rule="evenodd" clip-rule="evenodd" d="M14.5176 7.48433C15.0785 7.46901 15.631 7.52906 16.1752 7.6645C16.6766 8.09442 17.037 8.62292 17.2562 9.25002C17.1531 9.8786 16.9609 10.4792 16.6797 11.0517C16.1277 11.2979 15.5511 11.454 14.95 11.5202C14.3722 11.3815 13.8557 11.1172 13.4005 10.7274C13.1443 9.9261 13.1683 9.13334 13.4726 8.34916C13.7738 8.00086 14.1222 7.71258 14.5176 7.48433ZM15.8148 8.20502C16.0055 8.34764 16.1737 8.51579 16.3193 8.7095C16.0896 8.95113 15.8734 9.20339 15.6707 9.46622C15.8749 9.6704 16.0791 9.87464 16.2833 10.0788C16.2065 10.3027 16.0624 10.4949 15.8509 10.6554C15.6373 10.43 15.4092 10.2138 15.1662 10.0067C14.9866 10.1987 14.8184 10.4028 14.6617 10.6193C14.3869 10.6013 14.1707 10.4691 14.0131 10.2229C14.2327 10.0035 14.4249 9.76329 14.5897 9.50226C14.4502 9.25449 14.2701 9.03828 14.0492 8.85364C14.0683 8.61438 14.1883 8.4222 14.4095 8.27709C14.6282 8.51997 14.8684 8.73618 15.1302 8.92571C15.3731 8.69491 15.6014 8.45467 15.8148 8.20502Z" fill="#FEFFFE"/>
<path opacity="0.901" fill-rule="evenodd" clip-rule="evenodd" d="M16.3193 12.025C16.4931 11.9988 16.6012 12.0709 16.6437 12.2412C16.978 12.8611 17.2302 13.5098 17.4004 14.1871C16.7448 14.1167 16.1203 13.9366 15.5266 13.6466C15.4384 13.1855 15.3904 12.717 15.3824 12.2412C15.7134 12.2137 16.0257 12.1416 16.3193 12.025Z" fill="#FEFFFE"/>
<path opacity="0.899" fill-rule="evenodd" clip-rule="evenodd" d="M7.45491 12.0973C7.83176 12.2063 8.21611 12.2783 8.60802 12.3135C8.63324 12.7787 8.58517 13.2352 8.46388 13.6828C7.86117 13.9647 7.23658 14.1089 6.59009 14.1152C6.80088 13.4058 7.08916 12.7332 7.45491 12.0973Z" fill="#FEFFFE"/>
<path opacity="0.94" fill-rule="evenodd" clip-rule="evenodd" d="M11.923 15.7004C12.2979 15.8156 12.6582 15.9718 13.0041 16.1689C14.2186 16.9085 15.4678 17.5931 16.7517 18.2228C17.0702 17.706 17.3704 17.1776 17.6525 16.6373C18.4551 16.6414 19.1518 16.9297 19.7425 17.5022C19.8415 17.6604 19.8655 17.8286 19.8146 18.0066C19.0822 19.2916 18.0372 19.64 16.6796 19.0516C16.07 18.7418 15.4693 18.4175 14.8779 18.0787C14.8539 18.2349 14.8298 18.391 14.8058 18.5472C14.8974 19.5468 14.9815 20.5438 15.058 21.538C14.1959 21.748 13.3192 21.832 12.4275 21.7903C11.4759 21.3928 10.5991 20.8764 9.79701 20.2408C9.42031 19.3664 9.22817 18.4535 9.22046 17.5022C10.02 18.2444 10.9449 18.773 11.9951 19.0877C12.8219 18.8008 13.5906 18.4045 14.3013 17.8985C14.3974 17.8505 14.3974 17.8025 14.3013 17.7544C14.0495 17.6406 13.8093 17.5084 13.5806 17.358C13.0957 17.6666 12.5793 17.9068 12.0311 18.0787C11.3438 17.8852 10.7072 17.5849 10.1213 17.1779C10.0439 17.1246 9.99585 17.0525 9.97718 16.9616C10.5792 16.4685 11.2279 16.0481 11.923 15.7004Z" fill="#FEFFFE"/>
</svg>
