<svg width="24" height="24" viewBox="0 0 24 24" fill="none" xmlns="http://www.w3.org/2000/svg">
<path d="M2.04706 7.01304C2.34094 7.01304 2.63421 7.0118 2.92809 7.01428C2.92562 7.30772 2.92624 7.60115 2.92624 7.89459C2.63359 7.89459 2.34032 7.89459 2.04706 7.89583V7.01304Z" fill="white"/>
<path d="M3.05072 7.01429C3.34584 7.01366 3.64096 7.0118 3.93608 7.01429C3.93669 7.3071 3.93669 7.59992 3.93731 7.89336C3.64158 7.89584 3.34646 7.89336 3.05134 7.89522C3.05195 7.60178 3.05195 7.30772 3.05134 7.01366L3.05072 7.01429Z" fill="white"/>
<path d="M6.07617 7.01365C6.37376 7.01365 6.67135 7.01179 6.96894 7.01551C6.96894 7.30895 6.96894 7.60239 6.96832 7.89583C6.67073 7.8952 6.37376 7.89583 6.07679 7.89583C6.07617 7.60177 6.07741 7.30771 6.07617 7.01365Z" fill="white"/>
<path d="M16.0227 7.01303C16.3154 7.01427 16.608 7.01427 16.9013 7.01303C16.8982 7.30647 16.8994 7.60053 16.9001 7.89459C16.6074 7.89583 16.3141 7.89645 16.0215 7.89521C16.0209 7.60115 16.0227 7.30709 16.0227 7.01303Z" fill="white"/>
<path d="M3.04883 8.01996C3.34456 8.01996 3.64092 8.01872 3.93665 8.0212C3.92925 8.31774 3.94345 8.61366 3.94962 8.9102C3.64956 8.91827 3.3495 8.91269 3.04945 8.91455C3.05192 8.61615 3.04883 8.31836 3.04883 8.01996Z" fill="white"/>
<path d="M7.09747 8.02174C7.39012 8.01678 7.68277 8.02174 7.97542 8.01802C7.9748 8.31642 7.97666 8.61544 7.97295 8.91385H7.09747C7.09747 8.61668 7.09747 8.31952 7.09747 8.02174Z" fill="white"/>
<path d="M8.09766 8.01993C8.39463 8.01993 8.69222 8.02179 8.98919 8.01807C8.98919 8.31709 8.98919 8.61549 8.98857 8.91451C8.69222 8.91327 8.39586 8.91327 8.09951 8.91451C8.09951 8.61611 8.10074 8.31771 8.09766 8.01931V8.01993Z" fill="white"/>
<path d="M16.0117 8.01929C16.3087 8.02115 16.6063 8.02115 16.9032 8.02115C16.8977 8.31831 16.8989 8.61609 16.9002 8.91387C16.6038 8.91263 16.3081 8.91387 16.0117 8.91449C16.0123 8.61609 16.013 8.31769 16.0117 8.01929Z" fill="white"/>
<path d="M18.0324 8.01866C18.33 8.01928 18.6276 8.01866 18.9258 8.0199C18.924 8.31768 18.9246 8.61484 18.9246 8.91263C18.627 8.91325 18.3288 8.91387 18.0312 8.91387C18.0318 8.61546 18.0306 8.31706 18.0324 8.01866Z" fill="white"/>
<path d="M19.0454 8.0199C19.3399 8.02114 19.6344 8.0199 19.9295 8.02176C19.9277 8.31892 19.9258 8.61608 19.9301 8.91324C19.6356 8.91324 19.3411 8.91386 19.0472 8.91262C19.0435 8.61484 19.0454 8.31768 19.0454 8.0199Z" fill="white"/>
<path d="M1.02601 9.04043C1.32421 9.0398 1.62242 9.04043 1.92063 9.03918C1.92063 9.33635 1.92063 9.63351 1.92063 9.93067C1.62242 9.93067 1.32421 9.93067 1.02539 9.93067C1.02539 9.63413 1.02539 9.33759 1.02539 9.04105L1.02601 9.04043Z" fill="white"/>
<path d="M8.10043 9.9307C8.10043 9.63292 8.09858 9.33513 8.10043 9.03797C8.39617 9.03859 8.69191 9.03921 8.98764 9.03735C8.98764 9.33513 8.98764 9.63292 8.98764 9.93008C8.69191 9.93132 8.39555 9.93132 8.09982 9.93008L8.10043 9.9307Z" fill="white"/>
<path d="M10.1275 9.03917C10.4189 9.03917 10.7103 9.03917 11.0017 9.03917C11.0017 9.33633 11.0005 9.63349 11.0011 9.93065C10.7103 9.93127 10.4189 9.93065 10.1281 9.92941C10.1262 9.63287 10.1262 9.33571 10.1281 9.03917H10.1275Z" fill="white"/>
<path d="M13.998 9.03915C14.2931 9.03605 14.5883 9.03915 14.884 9.03791C14.8821 9.33569 14.8821 9.63285 14.8834 9.93063C14.5913 9.93063 14.2999 9.92939 14.0085 9.93125C13.9881 9.63409 13.9993 9.33631 13.998 9.03915Z" fill="white"/>
<path d="M15.0081 9.03984C15.3038 9.03798 15.5995 9.03922 15.8953 9.03922C15.8977 9.337 15.8953 9.63479 15.8959 9.93257C15.6002 9.92946 15.3044 9.93009 15.0087 9.93195C15.0081 9.63479 15.0075 9.33762 15.0081 9.03984Z" fill="white"/>
<path d="M20.0639 9.03858C20.3565 9.03858 20.6498 9.03858 20.9424 9.03796C20.9443 9.33574 20.9437 9.63353 20.9424 9.93069C20.6485 9.93193 20.3553 9.93131 20.0614 9.93193C20.0422 9.63477 20.041 9.33575 20.0639 9.03858Z" fill="white"/>
<path d="M9.11275 10.0578C9.40849 10.059 9.70423 10.0535 9.99996 10.059C9.99873 10.3556 9.99873 10.6521 9.99811 10.9487C9.70299 10.9487 9.40787 10.9505 9.11275 10.9487C9.11028 10.6515 9.11152 10.3543 9.11275 10.0572V10.0578Z" fill="white"/>
<path d="M9.11204 11.0752C9.40839 11.0752 9.70413 11.0752 9.99987 11.0752C9.99925 11.368 9.99987 11.6615 10.0005 11.9549C9.70413 11.9555 9.40839 11.9555 9.11204 11.9549C9.11142 11.6615 9.11081 11.368 9.11204 11.0746V11.0752Z" fill="white"/>
<path d="M12.983 11.9562C12.9867 11.6621 12.9843 11.3687 12.983 11.0746C13.2788 11.0758 13.5745 11.0758 13.8702 11.074C13.8702 11.3674 13.8696 11.6615 13.8702 11.9555C13.5745 11.9586 13.2788 11.9568 12.9824 11.9562H12.983Z" fill="white"/>
<path d="M13.9961 11.0766C14.2918 11.0747 14.5876 11.0753 14.8839 11.0759C14.8845 11.3688 14.8852 11.6622 14.8839 11.955C14.5882 11.9575 14.2924 11.9594 13.9967 11.9532C13.9979 11.661 13.9967 11.3688 13.9967 11.0766H13.9961Z" fill="white"/>
<path d="M1.02638 12.084C1.3252 12.0846 1.62403 12.084 1.92285 12.084C1.92223 12.3812 1.92223 12.6783 1.92285 12.9755C1.62403 12.9755 1.32459 12.9761 1.02515 12.9755C1.02762 12.6783 1.027 12.3818 1.02638 12.0846V12.084Z" fill="white"/>
<path d="M2.04508 12.0846C2.33834 12.0828 2.63099 12.0853 2.92426 12.0822C2.92549 12.3799 2.92735 12.6783 2.92426 12.9761C2.63161 12.9761 2.33958 12.9767 2.04755 12.9743C2.04322 12.6777 2.04569 12.3812 2.04508 12.0846Z" fill="white"/>
<path d="M12.99 12.0896C13.2826 12.0759 13.5759 12.0877 13.8686 12.084C13.8704 12.3811 13.8723 12.6777 13.8655 12.9748C13.5722 12.9748 13.2789 12.9748 12.9857 12.9767C12.9869 12.6808 12.9752 12.3849 12.99 12.0896Z" fill="white"/>
<path d="M13.9976 12.0828C14.2928 12.0852 14.5885 12.0834 14.8836 12.0846C14.8855 12.3812 14.8848 12.6783 14.883 12.9755C14.5873 12.9742 14.2921 12.9755 13.9964 12.9755C13.9964 12.6777 13.9952 12.3805 13.9976 12.0828Z" fill="white"/>
<path d="M19.0469 12.0821C19.3408 12.084 19.6347 12.084 19.9292 12.0833C19.9292 12.3805 19.9304 12.6777 19.9286 12.9748C19.6347 12.9748 19.3414 12.9748 19.0481 12.9748C19.0463 12.677 19.0469 12.3799 19.0469 12.0821Z" fill="white"/>
<path d="M20.0486 12.0846C20.3474 12.0828 20.6468 12.0846 20.9457 12.0815C20.9469 12.3793 20.9457 12.6777 20.9444 12.9755C20.6456 12.9755 20.3474 12.9767 20.0486 12.9736C20.0504 12.6771 20.0492 12.3805 20.0486 12.0846Z" fill="white"/>
<path d="M21.0622 12.0833C21.3567 12.0877 21.6512 12.0747 21.9457 12.0896C21.9574 12.3842 21.9457 12.6802 21.9494 12.9755C21.6531 12.9755 21.3573 12.9755 21.061 12.9755C21.0604 12.6783 21.0597 12.3811 21.0622 12.084V12.0833Z" fill="white"/>
<path d="M22.0723 12.0814C22.3649 12.0827 22.6569 12.0827 22.949 12.082C22.9496 12.3798 22.9749 12.6776 22.9465 12.9754C22.6551 12.9754 22.3637 12.9754 22.0729 12.9754C22.0735 12.6776 22.0729 12.3798 22.0723 12.082V12.0814Z" fill="white"/>
<path d="M1.02344 13.1015C1.32288 13.0996 1.62232 13.0996 1.92238 13.1002C1.92176 13.398 1.92361 13.6964 1.92114 13.9948C1.62232 13.9942 1.32411 13.9967 1.02529 13.9923C1.02529 13.6952 1.02652 13.398 1.02344 13.1015Z" fill="white"/>
<path d="M2.04492 13.1008C2.33881 13.0995 2.63331 13.0989 2.92781 13.1008C2.92596 13.3986 2.92534 13.6963 2.92657 13.9935C2.63269 13.996 2.33942 13.9954 2.04616 13.9935C2.04924 13.6957 2.04863 13.3979 2.04492 13.1002V13.1008Z" fill="white"/>
<path d="M3.04883 13.1008C3.3495 13.1008 3.65018 13.0964 3.95085 13.1045C3.94098 13.4004 3.93233 13.697 3.93851 13.9935C3.64277 13.996 3.34703 13.9954 3.0513 13.9935C3.05006 13.6957 3.05253 13.398 3.04883 13.1002V13.1008Z" fill="white"/>
<path d="M4.06826 13.1001C4.36214 13.1007 4.65664 13.1026 4.95053 13.0989C4.94991 13.3973 4.94991 13.6951 4.94929 13.9928C4.65479 13.9953 4.36091 13.9953 4.06641 13.9947C4.06826 13.6963 4.06826 13.3985 4.06826 13.1001Z" fill="white"/>
<path d="M5.07031 13.1015C5.36543 13.1008 5.66055 13.1002 5.95567 13.1002C5.95443 13.3986 5.95567 13.6964 5.95567 13.9942C5.66055 13.9948 5.36605 13.9954 5.07093 13.9942C5.07278 13.6964 5.0734 13.3986 5.07031 13.1015Z" fill="white"/>
<path d="M6.07816 13.102C6.37575 13.0996 6.67334 13.1008 6.97093 13.1014C6.97031 13.3986 6.97216 13.6957 6.96908 13.9935C6.67272 13.996 6.37575 13.9948 6.0794 13.9954C6.07755 13.6976 6.07816 13.3998 6.07816 13.102Z" fill="white"/>
<path d="M7.0957 13.1008C7.38897 13.1002 7.68224 13.1008 7.97612 13.1002C7.97489 13.398 7.97674 13.6958 7.97427 13.9936C7.68162 13.9936 7.38959 13.9948 7.09756 13.9917C7.09817 13.6945 7.09941 13.3974 7.0957 13.1008Z" fill="white"/>
<path d="M9.11108 13.1014C9.40744 13.1002 9.70441 13.0989 10.0008 13.102C9.99891 13.3986 10.0008 13.6951 9.99953 13.9916C9.70441 13.9935 9.40867 13.9941 9.11294 13.9929C9.11047 13.6957 9.11294 13.3986 9.11108 13.1014Z" fill="white"/>
<path d="M2.04688 14.1195C2.34138 14.1195 2.63588 14.1189 2.93038 14.1207C2.92421 14.4142 2.92668 14.7076 2.92729 15.001C2.63464 15.0004 2.34199 15.0017 2.04934 15.001C2.04626 14.707 2.04934 14.4135 2.04688 14.1195Z" fill="white"/>
<path d="M3.04883 14.1201C3.34827 14.1189 3.64771 14.1189 3.94715 14.1183C3.94468 14.4111 3.94592 14.7039 3.94653 14.9974C3.64771 15.0036 3.34889 15.0011 3.05006 15.0011C3.05006 14.7076 3.05006 14.4136 3.04883 14.1201Z" fill="white"/>
<path d="M4.06312 14.1206C4.35885 14.1181 4.65459 14.1206 4.95094 14.1194C4.94909 14.4128 4.94909 14.7063 4.95094 14.9991C4.65644 15.0003 4.36194 15.0003 4.06744 15.0009C4.06559 14.7075 4.07053 14.4141 4.0625 14.1206H4.06312Z" fill="white"/>
<path d="M5.06836 14.12C5.36348 14.1175 5.65921 14.1194 5.95433 14.1182C5.95372 14.4122 5.95433 14.7069 5.95372 15.001C5.65921 14.9991 5.36471 15.0003 5.07021 15.0003C5.07021 14.7069 5.07268 14.4135 5.06836 14.12Z" fill="white"/>
<path d="M6.07617 14.1194C6.37438 14.1188 6.67258 14.1188 6.97079 14.1176C6.96894 14.4116 6.96832 14.7051 6.97017 14.9991C6.67258 15.0004 6.375 15.001 6.07741 15.001C6.07679 14.7069 6.07864 14.4135 6.07617 14.1194Z" fill="white"/>
<path d="M13.9941 14.1182C14.2911 14.1188 14.5887 14.1182 14.8863 14.1194C14.8826 14.4128 14.8838 14.7063 14.8826 14.9997C14.5875 14.9997 14.2923 14.9997 13.9972 14.9985C13.9948 14.705 13.9972 14.4116 13.9941 14.1182Z" fill="white"/>
<path d="M20.0498 14.1207C20.3486 14.117 20.6475 14.1195 20.9469 14.1188C20.9444 14.4129 20.9475 14.707 20.9438 15.001C20.645 15.0004 20.3468 15.0035 20.0486 14.9985C20.0504 14.7057 20.048 14.4129 20.0498 14.1207Z" fill="white"/>
<path d="M1.02515 15.1294C1.32459 15.1294 1.62403 15.1301 1.92347 15.1288C1.92285 15.4272 1.92409 15.7262 1.92223 16.0253C1.62341 16.0246 1.32459 16.0253 1.02576 16.0246C1.02762 15.7262 1.02762 15.4278 1.02515 15.1294Z" fill="white"/>
<path d="M15.0088 15.1332C15.3052 15.1263 15.6009 15.1294 15.8973 15.1294C15.901 15.4278 15.8967 15.7256 15.8997 16.024C15.6021 16.0246 15.3039 16.0246 15.0057 16.0259C15.0101 15.7281 15.0088 15.4303 15.0088 15.1332Z" fill="white"/>
<path d="M16.0104 15.127C16.3067 15.1294 16.6031 15.1294 16.8994 15.1282C16.8994 15.4272 16.8964 15.7262 16.9007 16.0253C16.6037 16.0246 16.3067 16.0253 16.0098 16.024C16.0141 15.725 16.0116 15.426 16.0104 15.127Z" fill="white"/>
<path d="M17.0266 15.127C17.3217 15.1294 17.6169 15.1288 17.912 15.1282C17.912 15.4272 17.9095 15.7262 17.912 16.0246H17.0254C17.0266 15.7256 17.0254 15.426 17.0266 15.127Z" fill="white"/>
<path d="M18.0342 15.1282C18.3306 15.1282 18.6276 15.1294 18.9239 15.127C18.927 15.4266 18.9239 15.7262 18.9258 16.0253C18.6269 16.0246 18.3281 16.0246 18.0293 16.0253C18.0355 15.7262 18.0305 15.4272 18.0342 15.1282Z" fill="white"/>
<path d="M19.0462 15.1288C19.3394 15.1276 19.6333 15.1288 19.9272 15.1276C19.9278 15.4266 19.9253 15.7256 19.929 16.0246C19.6345 16.0252 19.3394 16.024 19.0449 16.0259C19.0462 15.7268 19.0443 15.4278 19.0462 15.1288Z" fill="white"/>
<path d="M20.0469 15.1369C20.3457 15.122 20.6451 15.1307 20.944 15.1282C20.9452 15.4273 20.9433 15.7263 20.9458 16.0253C20.647 16.0253 20.3482 16.0253 20.0493 16.0247C20.0475 15.7288 20.0493 15.4328 20.0469 15.1369Z" fill="white"/>
<path d="M1.02344 16.1418C1.3235 16.1394 1.62294 16.1394 1.92299 16.1412C1.90509 16.4347 1.95819 16.7523 1.89706 17.0315C1.60688 17.0463 1.31609 17.0321 1.02591 17.0364C1.02405 16.738 1.02529 16.4402 1.02344 16.1418Z" fill="white"/>
<path d="M15.0059 16.1388C15.3034 16.1419 15.6017 16.1388 15.8992 16.1419C15.8968 16.4397 15.8962 16.7381 15.8968 17.0359C15.5998 17.0371 15.3034 17.0359 15.0065 17.0359C15.0102 16.7362 15.0083 16.4372 15.0059 16.1382V16.1388Z" fill="white"/>
<path d="M18.0312 16.1394C18.3294 16.1394 18.6276 16.1394 18.9264 16.14C18.9246 16.4384 18.9252 16.7368 18.9252 17.0352C18.627 17.0383 18.3288 17.0365 18.0312 17.0365C18.0349 16.7374 18.0324 16.4384 18.0312 16.1394Z" fill="white"/>
<path d="M4.06445 7.01368C4.36019 7.01306 4.65593 7.01368 4.95166 7.01306C4.94981 7.3065 4.95043 7.60056 4.94981 7.89462C4.65593 7.89586 4.36204 7.89462 4.06877 7.89462C4.06692 7.60118 4.07001 7.30774 4.06445 7.01368Z" fill="white"/>
<path d="M5.07227 7.01433C5.36738 7.01309 5.66189 7.01309 5.957 7.01371C5.95639 7.30777 5.95639 7.60183 5.95824 7.89589C5.66312 7.89527 5.368 7.89527 5.07288 7.89527C5.07288 7.60183 5.07412 7.30839 5.07288 7.01433H5.07227Z" fill="white"/>
<path d="M7.09766 7.0137C7.39031 7.0137 7.68295 7.01432 7.9756 7.01184C7.97684 7.30652 7.97684 7.60058 7.97622 7.89526C7.68357 7.89526 7.39092 7.89774 7.09827 7.89464C7.09704 7.6012 7.09889 7.30776 7.09827 7.0137H7.09766Z" fill="white"/>
<path d="M8.10146 7.01434C8.39782 7.01247 8.69417 7.01247 8.99052 7.01434C8.99052 7.30839 8.9899 7.60307 8.99052 7.89713C8.69355 7.89403 8.39658 7.89341 8.09961 7.89713C8.10146 7.60307 8.09961 7.30839 8.10146 7.01434Z" fill="white"/>
<path d="M17.0276 7.01565C17.3227 7.01378 17.6185 7.0144 17.9142 7.01502C17.9142 7.30846 17.9142 7.6019 17.9142 7.89534C17.6185 7.89534 17.3234 7.89596 17.0276 7.89472C17.0276 7.60128 17.027 7.30846 17.0276 7.01565Z" fill="white"/>
<path d="M18.0338 7.01245C18.332 7.01245 18.6295 7.01307 18.9278 7.01307C18.9253 7.30713 18.9253 7.60119 18.9259 7.89525C18.6283 7.89401 18.3313 7.89463 18.0338 7.89587C18.0338 7.60119 18.0325 7.30713 18.0338 7.01245Z" fill="white"/>
<path d="M19.0449 7.01497C19.3394 7.01311 19.6339 7.01373 19.929 7.01497C19.9297 7.30841 19.929 7.60247 19.929 7.8959C19.6352 7.89714 19.3407 7.89528 19.0468 7.89777C19.0462 7.60371 19.0468 7.30965 19.0449 7.01559V7.01497Z" fill="white"/>
<path d="M4.06836 8.01941C4.36224 8.02003 4.65613 8.01941 4.95001 8.02003C4.9531 8.31781 4.95248 8.61497 4.95001 8.91275C4.65613 8.91461 4.36224 8.91275 4.06898 8.91461C4.06959 8.61621 4.06959 8.31781 4.06836 8.01941Z" fill="white"/>
<path d="M5.07031 8.01996C5.36543 8.01934 5.66117 8.01872 5.95629 8.0212C5.95629 8.31899 5.9569 8.61615 5.9569 8.91393C5.66179 8.91393 5.36667 8.91517 5.07216 8.91331C5.0697 8.61553 5.07216 8.31775 5.07031 8.01996Z" fill="white"/>
<path d="M6.07806 8.01935C6.37627 8.01997 6.67448 8.01811 6.97268 8.02183C6.97206 8.31899 6.97083 8.61615 6.97083 8.91393C6.67386 8.91331 6.37627 8.91393 6.0793 8.91145C6.07868 8.61429 6.07992 8.31651 6.07806 8.01935Z" fill="white"/>
<path d="M13.998 8.02115C14.2944 8.02115 14.5908 8.02053 14.8877 8.02177C14.8834 8.31893 14.8846 8.61609 14.8853 8.91325C14.5895 8.91387 14.2944 8.91698 13.9987 8.91201C13.9987 8.61485 13.9987 8.31831 13.9987 8.02115H13.998Z" fill="white"/>
<path d="M15.0059 8.02127C15.3028 8.02251 15.6004 8.02065 15.8974 8.01941C15.8999 8.31719 15.8999 8.61559 15.898 8.91337C15.6017 8.91523 15.3053 8.91275 15.0089 8.91461C15.0083 8.61683 15.0096 8.31905 15.0059 8.02127Z" fill="white"/>
<path d="M17.0273 8.01997C17.3225 8.01873 17.6176 8.01873 17.9133 8.01997C17.9133 8.31837 17.9121 8.61678 17.9139 8.91518C17.6188 8.91518 17.3237 8.9158 17.0292 8.91394C17.0273 8.61554 17.0292 8.31775 17.0273 8.01997Z" fill="white"/>
<path d="M20.0486 8.02304C20.348 8.01932 20.6475 8.02304 20.9469 8.01932C20.9457 8.31772 20.9469 8.61612 20.9457 8.91452C20.6468 8.91204 20.348 8.91452 20.0498 8.91204C20.0511 8.6155 20.0517 8.31958 20.0486 8.02304Z" fill="white"/>
<path d="M21.0604 8.0224C21.3568 8.0193 21.6537 8.02178 21.9501 8.02054C21.9501 8.31894 21.9513 8.61672 21.952 8.91512C21.655 8.91512 21.3586 8.91574 21.0617 8.91388C21.0604 8.61672 21.0617 8.31956 21.0604 8.0224Z" fill="white"/>
<path d="M9.11538 9.03859C9.41111 9.03859 9.70685 9.03859 10.0026 9.03859C10.0026 9.33575 10.0026 9.6323 10.002 9.92946C9.70561 9.92946 9.40988 9.93132 9.11352 9.92946C9.11414 9.6323 9.11167 9.33451 9.11538 9.03735V9.03859Z" fill="white"/>
<path d="M21.0616 9.03982C21.3573 9.03857 21.6536 9.03981 21.95 9.03857C21.9506 9.33573 21.9512 9.6329 21.9488 9.93006C21.653 9.9313 21.3573 9.9313 21.0622 9.93006C21.0597 9.6329 21.0603 9.33636 21.0622 9.03919L21.0616 9.03982Z" fill="white"/>
<path d="M1.02724 10.0604C1.32545 10.0561 1.62427 10.0561 1.92248 10.0567C1.9231 10.3539 1.92248 10.651 1.92495 10.9482C1.62489 10.9494 1.32483 10.9488 1.02539 10.9482C1.02724 10.6523 1.02724 10.3563 1.02724 10.0604Z" fill="white"/>
<path d="M10.1265 10.056C10.4179 10.0591 10.7099 10.0567 11.002 10.0579C11.002 10.3544 11.0013 10.6516 11.0044 10.9488H10.1252C10.1246 10.6516 10.1252 10.3538 10.1265 10.056Z" fill="white"/>
<path d="M12.9844 10.0573C13.2801 10.0585 13.5765 10.0585 13.8728 10.0573C13.8703 10.3538 13.8703 10.651 13.8728 10.9475C13.5765 10.9506 13.2807 10.9494 12.9844 10.9506C12.9881 10.6528 12.9862 10.355 12.9844 10.0573Z" fill="white"/>
<path d="M13.998 10.0585C14.2944 10.056 14.5908 10.0585 14.8871 10.0573C14.8853 10.3544 14.8865 10.651 14.8865 10.9481C14.5908 10.9512 14.295 10.95 13.9993 10.9487C13.998 10.6522 13.9993 10.355 13.998 10.0585Z" fill="white"/>
<path d="M1.02734 11.0766C1.32617 11.0741 1.62499 11.0748 1.92381 11.0754C1.92381 11.3688 1.92505 11.6623 1.92196 11.9557C1.62376 11.9563 1.32555 11.9576 1.02734 11.9545C1.02796 11.6616 1.02796 11.3688 1.02734 11.0766Z" fill="white"/>
<path d="M18.0332 11.9563C18.0332 11.6622 18.0332 11.3688 18.0332 11.0747C18.3308 11.0766 18.6284 11.0759 18.926 11.0759C18.926 11.3694 18.926 11.6634 18.9272 11.9575C18.629 11.9563 18.3314 11.9575 18.0332 11.9563Z" fill="white"/>
<path d="M19.046 11.0741C19.3411 11.0747 19.6356 11.0741 19.9307 11.0753C19.9295 11.3688 19.9295 11.6628 19.9295 11.9563C19.635 11.9569 19.3411 11.9563 19.0466 11.9575C19.0442 11.6628 19.0448 11.3688 19.046 11.0741Z" fill="white"/>
<path d="M20.0508 11.0766C20.3496 11.0747 20.649 11.0772 20.9479 11.0741C20.946 11.3682 20.9479 11.6622 20.9454 11.9569C20.6478 11.9563 20.3496 11.9594 20.052 11.9532C20.0508 11.661 20.0508 11.3688 20.0508 11.0766Z" fill="white"/>
<path d="M21.0605 11.9569C21.0612 11.6634 21.0605 11.37 21.0605 11.0766C21.3569 11.0759 21.6526 11.0759 21.949 11.0753C21.9502 11.3688 21.9502 11.6628 21.9502 11.9563C21.6533 11.9575 21.3569 11.9569 21.0605 11.9569Z" fill="white"/>
<path d="M8.10194 12.9749C8.10194 12.6777 8.10071 12.3806 8.10441 12.0834C8.39953 12.0834 8.69465 12.0847 8.98977 12.0822C8.98977 12.3806 8.98977 12.6784 8.99039 12.9768C8.69465 12.9743 8.3983 12.9743 8.10194 12.9749Z" fill="white"/>
<path d="M9.11369 12.0828C9.40942 12.0815 9.70516 12.0834 10.0009 12.0822C9.99904 12.3799 10.0071 12.6777 9.99102 12.9755C9.69837 12.9761 9.40634 12.9743 9.1143 12.9755C9.11307 12.6783 9.11307 12.3806 9.11369 12.0834V12.0828Z" fill="white"/>
<path d="M10.1277 12.0847C10.4191 12.0834 10.7106 12.0828 11.002 12.0828C11.002 12.3806 11.0038 12.6777 11.0014 12.9749C10.7099 12.9749 10.4185 12.9768 10.1271 12.9743C10.1265 12.6777 10.1265 12.3812 10.1277 12.0847Z" fill="white"/>
<path d="M18.0334 12.0834H18.9256C18.9256 12.3805 18.9268 12.6777 18.9244 12.9749H18.0353C18.0316 12.6777 18.0341 12.3805 18.0334 12.0834Z" fill="white"/>
<path d="M8.09961 13.0996C8.39658 13.1002 8.69417 13.1009 8.99176 13.0996C8.98929 13.3974 8.98991 13.6952 8.98929 13.993C8.69232 13.9936 8.39596 13.9923 8.09961 13.993V13.0996Z" fill="white"/>
<path d="M12.9844 13.1002C13.2801 13.0984 13.5758 13.1027 13.8722 13.0984C13.8697 13.3962 13.871 13.6946 13.871 13.9936C13.5758 13.9936 13.2801 13.9936 12.985 13.9936C12.985 13.6958 12.9856 13.398 12.9844 13.1002Z" fill="white"/>
<path d="M13.9987 13.1002C14.2944 13.1002 14.5901 13.1002 14.8859 13.1015C14.8846 13.3986 14.8846 13.6958 14.8871 13.9929C14.5908 13.9936 14.2944 13.9948 13.998 13.9936C13.998 13.6958 13.998 13.398 13.9987 13.1002Z" fill="white"/>
<path d="M1.02601 14.1195C1.32545 14.1195 1.62551 14.1195 1.92556 14.1177C1.92248 14.4117 1.92556 14.7058 1.92371 14.9999C1.62427 15.0023 1.32483 15.003 1.02539 14.9986C1.02601 14.7052 1.02848 14.4124 1.02601 14.1195Z" fill="white"/>
<path d="M12.9844 14.1189C13.2801 14.1189 13.5758 14.1183 13.8716 14.1189C13.8716 14.4124 13.8691 14.7058 13.8728 14.9992C13.5771 15.0005 13.2813 14.9992 12.9856 15.0011C12.9856 14.707 12.9875 14.413 12.9844 14.1189Z" fill="white"/>
<path d="M15.0059 14.1195C15.3041 14.1189 15.6017 14.1183 15.8999 14.1201C15.8962 14.4142 15.8974 14.7076 15.898 15.0017C15.6017 14.9998 15.3059 14.9992 15.0102 15.0017C15.0083 14.7076 15.0139 14.4136 15.0059 14.1195Z" fill="white"/>
<path d="M21.0605 14.1195C21.3575 14.1183 21.6545 14.1189 21.9515 14.1189C21.9484 14.4136 21.9515 14.7077 21.9502 15.0023C21.6545 14.9992 21.3581 15.0023 21.0624 15.0005C21.0599 14.707 21.0624 14.413 21.0605 14.1195Z" fill="white"/>
<path d="M2.04853 15.1294C2.34117 15.1288 2.63382 15.1307 2.92647 15.1282C2.92709 15.4272 2.92586 15.7262 2.92586 16.0252C2.63197 16.024 2.33747 16.0252 2.04297 16.0234C2.05099 15.7256 2.04482 15.4272 2.04853 15.1294Z" fill="white"/>
<path d="M21.0629 15.1283C21.3587 15.1283 21.6544 15.1283 21.9501 15.1277C21.9495 15.4267 21.9507 15.7257 21.9507 16.0248C21.6532 16.0235 21.3556 16.0254 21.0586 16.0241C21.0642 15.7257 21.0586 15.4267 21.0629 15.1283Z" fill="white"/>
<path d="M16.0214 16.1395C16.3152 16.1401 16.6091 16.1407 16.9024 16.1401C16.8987 16.4391 16.9018 16.7375 16.9012 17.0365C16.6079 17.0372 16.3152 17.039 16.0232 17.0365C16.0232 16.7375 16.0238 16.4385 16.0214 16.1401V16.1395Z" fill="white"/>
<path d="M17.0281 16.1413C17.3233 16.1395 17.6184 16.1407 17.9141 16.1401C17.9123 16.4391 17.9116 16.7381 17.9147 17.0372C17.619 17.0372 17.3233 17.0378 17.0275 17.0366C17.0275 16.7381 17.0275 16.4397 17.0281 16.1413Z" fill="white"/>
<path d="M19.0468 16.14C19.3419 16.1406 19.6364 16.1394 19.9309 16.1406C19.9266 16.439 19.926 16.7368 19.9315 17.0346C19.6358 17.0383 19.34 17.0358 19.0449 17.0371C19.0468 16.7381 19.0449 16.439 19.0468 16.14Z" fill="white"/>
<path d="M9.10352 7.02731C9.40419 7.01552 9.7061 6.97644 10.0062 7.02483C10.0086 7.3164 10.0123 7.60798 9.99443 7.89894C9.69808 7.9008 9.40172 7.90018 9.10537 7.89894C9.10413 7.6086 9.10599 7.31827 9.10352 7.02793V7.02731Z" fill="#FC6E03"/>
<path d="M15.0148 7.02606C15.3093 7.01055 15.6045 6.98077 15.899 7.01737C15.8971 7.31143 15.899 7.60611 15.8946 7.90079C15.602 7.90265 15.3093 7.90327 15.0173 7.90079C15.013 7.60921 15.013 7.31764 15.0148 7.02606Z" fill="#FBBA1D"/>
<path d="M1.02405 8.02172C1.32411 8.01924 1.62417 8.01986 1.92423 8.02234C1.92361 8.3195 1.92238 8.61666 1.92423 8.91382C1.62417 8.91258 1.3235 8.91506 1.02344 8.91444C1.02405 8.61666 1.02405 8.3195 1.02405 8.02172Z" fill="#6215E5"/>
<path d="M2.04616 8.01929C2.34004 8.01929 2.63331 8.01991 2.92657 8.01991C2.92657 8.31831 2.92719 8.61609 2.92657 8.91449C2.63269 8.91263 2.33881 8.91263 2.04492 8.91387C2.04986 8.61547 2.04677 8.31769 2.04616 8.01929Z" fill="white"/>
<path d="M9.11133 8.02055C9.4083 8.01807 9.70527 8.01931 10.0022 8.02117C9.99977 8.31834 10.001 8.61488 10.0004 8.91142C9.70465 8.91638 9.40892 8.91328 9.11318 8.9139C9.11195 8.61612 9.11442 8.31834 9.11133 8.02055Z" fill="white"/>
<path d="M2.04843 9.9307C2.04287 9.63354 2.04472 9.33638 2.04843 9.03921C2.33984 9.03797 2.63064 9.03984 2.92205 9.03735C2.92576 9.33513 2.92329 9.63292 2.92391 9.9307C2.63188 9.93132 2.33984 9.93132 2.04843 9.9307Z" fill="white"/>
<path d="M12.9846 9.03552C13.2785 9.03738 13.573 9.03738 13.8675 9.03552C13.8675 9.33516 13.8706 9.63481 13.8682 9.93445C13.5737 9.93569 13.2792 9.93383 12.9846 9.93631C12.984 9.63605 12.9846 9.33579 12.9846 9.03552Z" fill="#E4186E"/>
<path d="M2.04739 10.0566C2.34004 10.0566 2.63207 10.0559 2.92472 10.0566C2.92719 10.3543 2.92472 10.6515 2.92657 10.9487C2.63269 10.948 2.33881 10.9487 2.04492 10.9474C2.04863 10.6503 2.04677 10.3537 2.04739 10.0566Z" fill="white"/>
<path d="M2.04533 11.9562C2.04533 11.6627 2.04409 11.3693 2.04594 11.0758C2.33921 11.0734 2.63248 11.0746 2.92574 11.074C2.92574 11.368 2.92698 11.6621 2.92451 11.9568C2.63186 11.9568 2.33859 11.9568 2.04533 11.9562Z" fill="white"/>
<path d="M10.1254 11.0747C10.4174 11.0735 10.71 11.0741 11.0021 11.0747C10.9996 11.3687 11.0021 11.6628 11.0008 11.9569C10.7088 11.9569 10.4168 11.955 10.1254 11.9569C10.1266 11.6628 10.1241 11.3687 10.1254 11.0741V11.0747Z" fill="white"/>
<path d="M21.0592 13.1008C21.3562 13.0995 21.6538 13.0995 21.9514 13.1008C21.9483 13.3986 21.9514 13.6963 21.9514 13.9947C21.6538 13.9935 21.3562 13.9947 21.0586 13.9941C21.0611 13.6963 21.0617 13.3986 21.0592 13.1008Z" fill="white"/>
<path d="M22.0729 13.1002C22.3661 13.1002 22.6594 13.0995 22.9527 13.0995C22.949 13.3973 22.9502 13.6945 22.9539 13.9923C22.66 13.9935 22.3661 13.9929 22.0723 13.9947C22.0747 13.6963 22.0735 13.3979 22.0729 13.1002Z" fill="white"/>
<path d="M22.0719 11.0747C22.362 11.0685 22.6528 11.0679 22.943 11.0741C22.9794 11.3638 22.9764 11.6566 22.9671 11.9482C22.6683 11.9538 22.3694 11.9525 22.0706 11.9475C22.0706 11.6566 22.0694 11.3656 22.0719 11.0747Z" fill="#16E493"/>
<path d="M7.1027 14.112C7.39535 14.1108 7.68799 14.1102 7.98064 14.112C7.98188 14.4067 7.98126 14.7014 7.97941 14.9967C7.68676 15.032 7.39226 15.0165 7.09961 14.9917C7.10455 14.6989 7.10393 14.4055 7.1027 14.112Z" fill="#E41AD6"/>
<path d="M22.0729 14.1121C22.3711 14.1127 22.6693 14.1114 22.9682 14.1145C22.9725 14.4092 22.9453 14.7027 22.9416 14.9973C22.6514 14.9961 22.3613 14.9973 22.0711 14.9961C22.0698 14.7014 22.0698 14.4067 22.0729 14.1121Z" fill="#FB1A2B"/>
<path d="M13.9902 15.1214C14.2897 15.1202 14.5891 15.1233 14.8892 15.1214C14.8669 15.4173 14.8651 15.7139 14.8657 16.0104C14.5799 16.0129 14.294 16.0129 14.0088 16.0123C14.0143 15.7151 14.0112 15.4186 13.9902 15.122V15.1214ZM14.0903 15.2163C14.0878 15.4545 14.0878 15.6928 14.0896 15.931C14.3205 15.9508 14.5521 15.9521 14.7836 15.9347C14.7892 15.6965 14.791 15.4589 14.7885 15.2213C14.5558 15.2169 14.323 15.2151 14.0903 15.2163Z" fill="#3282BB"/>
<path d="M14.0898 15.2163C14.3226 15.215 14.5554 15.2163 14.7881 15.2212C14.7906 15.4588 14.7881 15.6964 14.7832 15.9347C14.5516 15.952 14.3201 15.9508 14.0892 15.9309C14.0874 15.6927 14.0874 15.4545 14.0898 15.2163Z" fill="#1B86E5"/>
<path d="M2.05232 16.1418C2.34312 16.14 2.63454 16.1431 2.92595 16.1437C2.92657 16.4402 2.9278 16.7368 2.92595 17.0333C2.63454 17.0376 2.3425 17.0376 2.05109 17.0352C2.05109 16.7374 2.04986 16.4396 2.05232 16.1418Z" fill="#1DBDE3"/>
<path d="M20.0418 16.1431C20.3456 16.1239 20.6506 16.1152 20.9543 16.1369C20.9568 16.4384 20.9543 16.7405 20.9531 17.042C20.6487 17.0445 20.3443 17.047 20.0399 17.0364C20.0356 16.7387 20.0362 16.4409 20.0418 16.1431ZM20.1468 16.2194C20.14 16.4688 20.14 16.7188 20.1474 16.9688C20.3777 16.9707 20.6086 16.9713 20.8395 16.9738C20.8778 16.7306 20.9204 16.4812 20.8697 16.2368C20.6314 16.1884 20.3875 16.2089 20.1468 16.2194Z" fill="#CD6532"/>
<path d="M20.1456 16.2194C20.3864 16.2088 20.6303 16.1883 20.8686 16.2367C20.9192 16.4812 20.8766 16.7306 20.8384 16.9737C20.6075 16.9713 20.3766 16.9706 20.1463 16.9688C20.1389 16.7188 20.1389 16.4688 20.1456 16.2194Z" fill="#FE4900"/>
</svg>
