<svg width="24" height="24" viewBox="0 0 24 24" fill="none" xmlns="http://www.w3.org/2000/svg">
<path d="M21.3048 21.0732C21.3048 22.1202 20.4678 22.9998 19.379 23H4.58508C3.49614 23 2.65833 22.1203 2.65833 21.0732V7.19824C2.65853 6.15136 3.49627 5.31348 4.58508 5.31348H16.9493L20.9279 1H21.3048V21.0732ZM7.75208 9.11133V19.707H10.6837V16.7754H12.2755C14.5371 16.7753 16.212 15.1416 16.212 12.9219C16.2119 10.7023 14.537 9.11138 12.2755 9.11133H7.75208ZM11.9406 11.666C12.6942 11.6661 13.1963 12.1682 13.1964 12.9219C13.1964 13.6757 12.6943 14.2206 11.9406 14.2207H10.6837V11.666H11.9406Z" fill="#EB5149"/>
</svg>
