<svg width="24" height="24" viewBox="0 0 24 24" fill="none" xmlns="http://www.w3.org/2000/svg">
<path d="M10.1272 15.8575C12.7329 14.5553 15.2308 13.308 17.8486 12.0003C13.2886 9.7209 8.832 7.49421 4.28299 5.22031C4.26979 5.51896 4.25108 5.74404 4.25108 5.96913C4.24888 10.9078 4.25108 15.8465 4.24778 20.7852C4.24778 21.0399 4.24558 21.299 4.20487 21.5505C4.08162 22.3191 3.4346 22.8274 2.64452 22.7989C1.87755 22.7714 1.27013 22.1862 1.20631 21.4099C1.19751 21.3012 1.19971 21.1903 1.19971 21.0805C1.19971 15.0263 1.19861 8.97099 1.19971 2.91676C1.19971 1.80231 1.87535 1.1051 2.86349 1.21051C3.10998 1.23686 3.36087 1.33567 3.58645 1.44767C9.66389 4.47698 15.738 7.51397 21.8144 10.5466C22.4218 10.8496 22.7981 11.2943 22.7992 11.9992C22.7992 12.7063 22.4207 13.1499 21.8144 13.4529C17.6857 15.5105 13.5626 17.5769 9.43171 19.629C8.17617 20.2527 7.07468 19.5577 7.07248 18.1599C7.06918 16.166 7.07028 14.1721 7.07248 12.1782C7.07248 11.1582 7.68869 10.4675 8.59321 10.4631C9.48893 10.4598 10.1228 11.1614 10.125 12.1727C10.1283 13.3607 10.125 14.5476 10.125 15.8564L10.1272 15.8575Z" fill="#FF002A"/>
</svg>
