<svg width="24" height="24" viewBox="0 0 24 24" fill="none" xmlns="http://www.w3.org/2000/svg">
<path d="M13.1017 6.57915C13.0123 6.48469 12.9353 6.49058 12.8605 6.49058C11.2624 6.49058 9.6642 6.49129 8.06603 6.49084C7.50758 6.49058 7.00279 6.67253 6.53319 6.95619C5.59517 7.52305 4.96225 8.30861 4.64837 9.38462C4.17009 11.024 3.63923 12.6488 3.10277 14.2704C2.59155 15.8157 3.54685 17.0513 5.05499 16.9446C5.86507 16.8872 6.68266 16.9389 7.49672 16.9318C7.75016 16.9295 8.00134 16.9263 8.25478 16.8514C9.56178 16.4652 10.3713 15.5748 10.8064 14.3254C11.1266 13.4059 11.405 12.4714 11.6855 11.5386C11.7921 11.184 11.9436 10.8397 11.9949 10.472C11.8401 10.3722 11.6858 10.4176 11.5403 10.4166C10.7413 10.4116 9.94216 10.4083 9.14312 10.4175C8.86001 10.4207 8.52703 10.306 8.30608 10.4741C8.08901 10.6392 8.09354 10.9852 8.00677 11.2536C7.82363 11.8203 7.64701 12.3891 7.46243 12.9736C7.9057 13.0658 8.32716 12.9472 8.74537 13.0577C8.62114 13.4483 8.50161 13.8026 8.3981 14.1617C8.36073 14.2911 8.32182 14.379 8.16574 14.3782C7.3696 14.3745 6.57336 14.3766 5.72447 14.3766C5.89575 13.8263 6.04947 13.328 6.2061 12.8306C6.56621 11.6871 6.92687 10.5439 7.28898 9.40099C7.40045 9.04911 7.40299 9.04902 7.78554 9.04766C8.13236 9.0464 8.47908 9.04739 8.82589 9.0473C9.89629 9.0473 10.9668 9.04965 12.0373 9.04404C12.1558 9.04341 12.3051 9.10892 12.3668 8.90696C12.6067 8.12122 12.8603 7.33983 13.1017 6.57915ZM14.5841 16.9218C15.1714 16.9292 15.7771 17.024 16.3421 16.8846C17.8099 16.5227 18.8599 15.6426 19.3373 14.1724C19.8462 12.6053 20.3345 11.0314 20.8261 9.45863C20.9509 9.05924 21.0568 8.66022 21.0764 8.23098C21.131 7.03925 20.1288 6.29522 19.1885 6.31965C18.315 6.34227 17.4406 6.32309 16.5667 6.32571C16.402 6.32616 16.2384 6.32626 16.0741 6.36987C14.5824 6.76581 13.5609 7.66656 13.0797 9.14801C12.8762 9.7745 12.6809 10.4038 12.4859 11.033C12.1354 12.1632 11.7626 13.2873 11.4454 14.4269C11.0307 15.9176 12.054 16.9597 13.2287 16.9241C13.6801 16.9104 14.1323 16.9218 14.5841 16.9218ZM3.83295 8.21659C4.52351 6.86706 5.57517 5.94433 7.02812 5.47971C7.17642 5.4323 7.36652 5.49627 7.47637 5.33331H19.6913C19.7183 5.40009 19.7795 5.39927 19.8374 5.41248C21.0126 5.67913 21.7608 6.39385 22.0917 7.55264C22.1538 7.7697 22.1135 8.00523 22.2237 8.21125C22.1686 8.79187 22.0759 9.36127 21.8827 9.91837C21.6385 10.6231 21.4548 11.3486 21.2205 12.0571C20.8646 13.1329 20.597 14.2379 20.1594 15.2867C19.4779 16.4969 18.5145 17.38 17.1923 17.8483C16.7352 18.0102 16.2684 18.0945 15.7804 18.0939C12.1198 18.0889 8.45908 18.0769 4.79857 18.0989C3.5141 18.1067 2.05228 17.212 1.84942 15.5983C1.83639 15.4946 1.80309 15.3934 1.7793 15.291C1.79595 14.58 1.99971 13.9116 2.21849 13.2417C2.76464 11.5693 3.24283 9.87493 3.83295 8.21659Z" fill="white"/>
<path d="M18.2542 9.06253C17.5446 9.06253 16.8992 9.06108 16.2539 9.06307C15.8381 9.06434 15.8398 9.06705 15.7209 9.44843C15.4537 10.3055 15.1829 11.1613 14.9167 12.0187C14.6776 12.7893 14.4427 13.5611 14.1921 14.3772C14.7269 14.3772 15.2214 14.3833 15.7158 14.3749C15.9997 14.3701 16.3328 14.481 16.5543 14.325C16.7764 14.1686 16.767 13.8149 16.852 13.5465C17.3169 12.0789 17.7719 10.6083 18.2542 9.06253ZM14.5842 16.9218C14.1324 16.9218 13.6802 16.9103 13.2288 16.924C12.0541 16.9596 11.0308 15.9176 11.4456 14.4269C11.7627 13.2873 12.1355 12.1632 12.486 11.0329C12.6811 10.4037 12.8763 9.77453 13.0798 9.14803C13.561 7.66658 14.5826 6.76584 16.0742 6.36989C16.2385 6.32619 16.4021 6.32619 16.5668 6.32565C17.4408 6.32311 18.3152 6.3423 19.1886 6.31968C20.129 6.29525 21.1311 7.03927 21.0766 8.231C21.057 8.66025 20.951 9.05927 20.8261 9.45856C20.3346 11.0314 19.8463 12.6052 19.3374 14.1725C18.86 15.6426 17.8099 16.5227 16.3422 16.8846C15.7773 17.024 15.1716 16.9292 14.5842 16.9218Z" fill="#E62727"/>
<path d="M13.1007 6.57918C12.8593 7.33985 12.6057 8.12125 12.3659 8.90699C12.3041 9.10895 12.1549 9.04344 12.0363 9.04407C10.9658 9.04968 9.89535 9.04733 8.82495 9.04733C8.47814 9.04742 8.13142 9.04642 7.7846 9.04769C7.40204 9.04905 7.39951 9.04914 7.28804 9.40102C6.92593 10.5439 6.56527 11.6871 6.20516 12.8306C6.04853 13.328 5.89481 13.8264 5.72353 14.3766C6.57242 14.3766 7.36866 14.3745 8.1648 14.3782C8.32088 14.379 8.35979 14.2911 8.39716 14.1617C8.50067 13.8027 8.6202 13.4483 8.74443 13.0577C8.32622 12.9473 7.90476 13.0658 7.46149 12.9736C7.64607 12.3892 7.82269 11.8203 8.00583 11.2536C8.0926 10.9853 8.08808 10.6393 8.30514 10.4741C8.5261 10.306 8.85907 10.4207 9.14218 10.4175C9.94122 10.4083 10.7404 10.4116 11.5394 10.4167C11.6849 10.4176 11.8392 10.3722 11.994 10.472C11.9427 10.8398 11.7912 11.184 11.6845 11.5386C11.404 12.4714 11.1256 13.4059 10.8055 14.3255C10.3704 15.5748 9.56084 16.4653 8.25384 16.8514C8.0004 16.9264 7.74922 16.9295 7.49578 16.9318C6.68172 16.9389 5.86413 16.8873 5.05405 16.9446C3.54591 17.0513 2.59061 15.8157 3.10183 14.2705C3.63829 12.6488 4.16915 11.0241 4.64743 9.38464C4.96131 8.30864 5.59423 7.52308 6.53225 6.95621C7.00185 6.67255 7.50664 6.49061 8.06509 6.49087C9.66327 6.49132 11.2614 6.49061 12.8596 6.49061C12.9343 6.49061 13.0113 6.48472 13.1007 6.57918Z" fill="#E62727"/>
<path d="M18.2535 9.06252C17.7712 10.6083 17.3162 12.0789 16.8513 13.5465C16.7662 13.8149 16.7756 14.1686 16.5536 14.325C16.3321 14.481 15.999 14.3701 15.7151 14.3749C15.2207 14.3833 14.7262 14.3772 14.1914 14.3772C14.4419 13.5611 14.6768 12.7893 14.916 12.0187C15.1822 11.1613 15.453 10.3055 15.7202 9.44842C15.8391 9.06704 15.8374 9.06433 16.2532 9.06306C16.8985 9.06107 17.5439 9.06252 18.2535 9.06252Z" fill="white"/>
</svg>
