<svg width="24" height="24" viewBox="0 0 24 24" fill="none" xmlns="http://www.w3.org/2000/svg">
<path d="M19.6914 5.33331C19.7183 5.39989 19.7792 5.39931 19.8369 5.41241C21.0121 5.67906 21.7609 6.39424 22.0918 7.55304C22.1537 7.76998 22.1135 8.00535 22.2236 8.21124C22.1685 8.79182 22.076 9.36122 21.8828 9.91827C21.6386 10.623 21.455 11.3485 21.2207 12.0569C20.8649 13.1327 20.5967 14.2376 20.1592 15.2864C19.4777 16.4966 18.5145 17.3796 17.1924 17.848C16.7354 18.0098 16.2683 18.0947 15.7803 18.0941C12.1198 18.0891 8.45922 18.0769 4.79883 18.0989C3.51435 18.1067 2.05247 17.2116 1.84961 15.598C1.83656 15.4944 1.80306 15.3935 1.7793 15.2913C1.79595 14.5803 1.99997 13.9113 2.21875 13.2415C2.76486 11.5692 3.24292 9.87437 3.83301 8.21613C4.52356 6.86681 5.57551 5.94437 7.02832 5.4798C7.1766 5.43248 7.36676 5.49621 7.47656 5.33331H19.6914ZM19.1885 6.31964C18.3151 6.34226 17.4403 6.32297 16.5664 6.3255C16.4019 6.32595 16.2384 6.32592 16.0742 6.36945C14.5827 6.76536 13.5613 7.66651 13.0801 9.14777C12.8766 9.77407 12.6813 10.4035 12.4863 11.0325C12.1359 12.1627 11.7625 13.2875 11.4453 14.4271C11.4195 14.52 11.3988 14.6112 11.3838 14.7005C11.3688 14.79 11.3592 14.8777 11.3545 14.9632C11.3356 15.3054 11.3969 15.6147 11.5176 15.8812C11.5779 16.0144 11.6535 16.1367 11.7412 16.2474C11.9606 16.5241 12.2574 16.726 12.5928 16.8343C12.7938 16.8992 13.0084 16.9308 13.2285 16.9241C13.6799 16.9105 14.1323 16.9222 14.584 16.9222C15.1712 16.9296 15.7769 17.0243 16.3418 16.8851C17.8096 16.5231 18.8595 15.6423 19.3369 14.1722C19.8458 12.6051 20.3346 11.031 20.8262 9.45831C20.9197 9.159 21.003 8.85994 21.0469 8.54816C21.0615 8.44402 21.0713 8.33822 21.0762 8.23077C21.0898 7.93287 21.0375 7.66302 20.9365 7.42609C20.9113 7.36682 20.8836 7.30927 20.8525 7.25421C20.5421 6.70394 19.955 6.36752 19.3652 6.32355L19.1885 6.31964ZM8.06543 6.49054C7.50698 6.49028 7.00182 6.6727 6.53223 6.95636C5.59425 7.52322 4.96133 8.3091 4.64746 9.38507C4.16921 11.0244 3.63798 12.6493 3.10156 14.2708C2.60663 15.7675 3.48765 16.9724 4.91406 16.9495C4.96037 16.9488 5.00726 16.948 5.05469 16.9446C5.2573 16.9303 5.46068 16.9226 5.66406 16.9193C6.27352 16.9093 6.88595 16.9373 7.49609 16.9319V16.931L7.49707 16.9319C7.75038 16.9297 8.00157 16.9267 8.25488 16.8519C9.56189 16.4657 10.3715 15.5749 10.8066 14.3255C11.1268 13.4059 11.4051 12.4712 11.6855 11.5384C11.7922 11.1839 11.9438 10.8396 11.9951 10.472C11.9176 10.422 11.8399 10.4087 11.7637 10.4075C11.6874 10.4062 11.612 10.4158 11.5391 10.4153C11.14 10.4128 10.7409 10.4117 10.3418 10.4114C9.94205 10.4111 9.5423 10.4118 9.14258 10.4163C8.96589 10.4183 8.76985 10.3755 8.59375 10.3831C8.48743 10.3876 8.38789 10.4106 8.30469 10.4739C8.08792 10.6391 8.09248 10.985 8.00586 11.2532C7.82273 11.8199 7.6465 12.3895 7.46191 12.9739C7.57252 12.9969 7.68186 13.0055 7.79004 13.0091C7.89845 13.0127 8.00576 13.0112 8.1123 13.0091C8.3253 13.0048 8.53509 13.0027 8.74414 13.0579C8.61998 13.4483 8.50093 13.8026 8.39746 14.1614C8.36011 14.2908 8.32093 14.378 8.16504 14.3773C7.36917 14.3736 6.5732 14.3763 5.72461 14.3763C5.89585 13.8262 6.04946 13.3277 6.20605 12.8304C6.56615 11.6869 6.92698 10.5435 7.28906 9.4007C7.3736 9.13383 7.39548 9.06915 7.56836 9.05304C7.62302 9.04801 7.69275 9.04848 7.78418 9.04816L8.8252 9.04718H8.82617C9.8961 9.04718 10.9661 9.04985 12.0361 9.04425C12.0657 9.04409 12.0973 9.04819 12.1289 9.05109H12.2236C12.2834 9.04208 12.3364 9.00738 12.3672 8.90656C12.607 8.12107 12.8602 7.33984 13.1016 6.57941C13.0122 6.48494 12.9351 6.49054 12.8604 6.49054H8.06543Z" fill="white"/>
<path d="M18.2535 9.06252C17.7712 10.6083 17.3162 12.0789 16.8513 13.5465C16.7662 13.8149 16.7756 14.1686 16.5536 14.325C16.3321 14.481 15.999 14.3701 15.7151 14.3749C15.2207 14.3833 14.7262 14.3772 14.1914 14.3772C14.4419 13.5611 14.6768 12.7893 14.916 12.0187C15.1822 11.1613 15.453 10.3055 15.7202 9.44842C15.8391 9.06704 15.8374 9.06433 16.2532 9.06306C16.8985 9.06107 17.5439 9.06252 18.2535 9.06252Z" fill="white"/>
</svg>
