<svg width="24" height="24" viewBox="0 0 24 24" fill="none" xmlns="http://www.w3.org/2000/svg">
<path fill-rule="evenodd" clip-rule="evenodd" d="M8.79454 8.53727C10.6096 8.6471 12.2224 9.44481 13.39 10.6645L16.9681 7.08637C15.6155 5.87826 12.6559 6.26555 8.79454 8.53727ZM2.99672 21.0578C0.823268 19.3641 2.72504 14.7917 4.3667 12.7801L1.9967 10.4217C5.92742 3.71058 13.9103 0.513978 21.3902 2.66431L19.2572 4.79731C18.5867 4.0285 17.3554 3.88399 15.2976 3.91868C12.5114 3.9707 6.11818 6.40428 6.21067 9.624C6.28581 12.3177 7.00259 14.3409 8.34944 15.6993L7.60954 16.4392C6.69045 15.5374 5.80603 14.5952 4.96208 13.6183C4.99099 15.1154 5.6095 16.4681 6.59218 17.4565L2.99672 21.0578Z" fill="#5EBCF2"/>
<path fill-rule="evenodd" clip-rule="evenodd" d="M16.9677 7.08643L13.3896 10.6703L13.4416 10.7281C14.6209 11.9883 15.3319 13.6877 15.3087 15.5433C18.014 11.3293 18.3493 8.43328 17.0429 7.16157C17.0198 7.13267 16.9909 7.10955 16.9677 7.08643ZM13.6324 22L11.5861 19.9653C9.58608 21.2312 7.40106 21.8093 5.03106 21.6995C4.13509 21.659 3.47612 21.4278 3.0079 21.0636L2.99634 21.052L6.59757 17.4508L6.62647 17.4797C7.63806 18.4855 9.03693 19.1098 10.5745 19.1156C9.56295 18.2716 8.58605 17.3872 7.64962 16.4681L7.62071 16.4392L8.36062 15.6993L8.3953 15.734C9.78261 17.1098 11.8405 17.7919 14.5573 17.7745C17.8232 17.7572 19.7944 10.8669 19.91 8.22518C19.9851 6.57197 19.8349 5.5257 19.332 4.88407C19.3088 4.85517 19.2857 4.82626 19.2626 4.79736L21.3956 2.66437C21.4071 2.71061 21.4187 2.75685 21.4303 2.8031C23.2106 10.2079 20.0834 17.9306 13.6324 22Z" fill="#00A3E7"/>
</svg>
