<svg width="24" height="24" viewBox="0 0 24 24" fill="none" xmlns="http://www.w3.org/2000/svg">
<path d="M3.46155 7.02747L21.4762 7.98059C22.4811 8.03392 23.2531 8.89045 23.1998 9.89368L22.9381 14.8966C22.8848 15.9014 22.0265 16.6734 21.025 16.6202L2.92834 15.6613C1.9251 15.6079 1.15138 14.7514 1.20471 13.7482L1.46643 8.74524C1.51654 7.78057 2.31129 7.02917 3.26428 7.02063C3.32928 7.02063 3.39655 7.02413 3.46155 7.02747ZM3.02991 13.9689H3.95178V12.4884H5.10706C5.37711 12.4884 5.62265 12.4247 5.84436 12.298C6.06439 12.1746 6.24949 11.9964 6.37952 11.7814C6.51114 11.5631 6.57574 11.3115 6.57581 11.0499C6.57581 10.7883 6.51295 10.5512 6.38635 10.3429C6.26134 10.1362 6.08304 9.96573 5.86975 9.85071C5.65637 9.72735 5.41761 9.66614 5.15588 9.66614H3.02991V13.9689ZM7.84338 13.9689H11.0602V13.1388H8.76624V9.66614H7.84338V13.9689ZM12.0475 13.9689H13.0065L13.3844 13.088H15.3678L15.7457 13.9689H16.7037L14.8561 9.66614H13.8951L12.0475 13.9689ZM16.9098 9.66614L18.8024 12.1876V13.9689H19.7311V12.1564L21.4996 9.66614L20.4498 9.66711L19.2731 11.379L18.0211 9.66614H16.9098ZM15.0494 12.3478H13.7018L14.3756 10.7775L15.0494 12.3478ZM4.99377 10.4962C5.10045 10.4962 5.20443 10.5211 5.29944 10.5695C5.39434 10.6111 5.47452 10.6792 5.53284 10.7657C5.59116 10.8474 5.61975 10.9398 5.61975 11.0548C5.6197 11.1697 5.58946 11.2715 5.53284 11.3615C5.47451 11.4514 5.39439 11.5263 5.29944 11.5763C5.20447 11.6296 5.10094 11.6563 4.98596 11.6564H3.94104V10.4962H4.99377Z" fill="#FFA919"/>
</svg>
