<svg width="24" height="24" viewBox="0 0 24 24" fill="none" xmlns="http://www.w3.org/2000/svg">
<path d="M21.2802 7.12123C20.7406 6.31696 19.8496 5.84997 18.9585 5.59053C17.6784 5.22731 16.3356 5.24028 15.0179 5.37C13.8257 5.5127 12.6334 5.81105 11.4914 6.20022C10.8388 5.78511 10.1737 5.39595 9.52111 4.98084C9.15717 4.7214 8.59243 4.73437 8.27869 5.07165C8.07789 5.26623 8.00259 5.55161 8.01514 5.81105C8.01514 6.47263 8.01514 7.1342 8.01514 7.7828C7.27471 8.23683 6.55937 8.71679 5.88168 9.26162C4.70201 10.2215 3.62273 11.3631 2.93249 12.7511C2.5058 13.6332 2.24226 14.671 2.5058 15.6568C2.7317 16.5778 3.45958 17.3043 4.27532 17.6934C5.60559 18.342 7.11156 18.4329 8.55478 18.342C10.111 18.2253 11.6546 17.8491 13.1229 17.2913C15.3442 16.4481 17.4526 15.2417 19.197 13.5813C20.2637 12.5306 21.2551 11.2982 21.6567 9.80644C21.9077 8.92435 21.8073 7.89955 21.2802 7.12123ZM9.67171 6.43371C9.9227 6.3948 10.111 6.5764 10.3117 6.69315C11.8679 7.65308 13.4115 8.62599 14.9677 9.58592C15.1559 9.6897 15.3316 9.89725 15.3191 10.1437C15.3442 10.4161 15.1434 10.6367 14.9175 10.7404C13.286 11.7133 11.6671 12.6992 10.0357 13.6591C9.73446 13.8797 9.35796 13.6981 9.14462 13.4256C9.10697 13.2051 9.08187 12.9716 9.09442 12.7511C9.05677 10.9091 9.08187 9.06704 9.06932 7.22501C9.03167 6.84882 9.29522 6.45966 9.67171 6.43371ZM12.7213 16.4481C11.3408 17.1356 9.87251 17.6545 8.34144 17.7843C7.81435 17.8621 7.27471 17.7843 6.76017 17.6934C6.13268 17.5508 5.49264 17.2524 5.09105 16.7076C4.57651 15.9941 4.53886 15.0082 4.82751 14.191C4.85261 14.8007 5.0785 15.3974 5.51774 15.8125C6.28328 16.5649 7.3751 16.7984 8.40418 16.8762C10.1737 16.967 11.9432 16.5389 13.5872 15.8644C13.7002 15.8255 13.8257 15.7866 13.9386 15.7476C13.5496 16.0201 13.1354 16.2406 12.7213 16.4481ZM18.1177 9.8713C17.8541 11.0907 17.1012 12.1025 16.2854 12.9846C14.8799 14.4115 13.1354 15.4882 11.253 16.0719C10.3619 16.3444 9.42071 16.513 8.49203 16.4092C7.90219 16.3184 7.27471 16.0979 6.91076 15.592C6.53427 15.0861 6.49662 14.3856 6.65977 13.7759C6.89821 12.8678 7.4002 12.0506 8.01514 11.3631C8.02769 12.3619 8.01514 13.3608 8.01514 14.3596C8.01514 14.658 8.05279 14.9823 8.25359 15.2028C8.50458 15.4493 8.89362 15.566 9.21992 15.4233C9.42071 15.3455 9.60896 15.2158 9.79721 15.099C11.9934 13.7889 14.1896 12.4787 16.3858 11.1555C16.6619 10.9869 16.9882 10.8442 17.1137 10.5069C17.2894 10.1178 17.1012 9.62484 16.7372 9.41728C15.7458 8.84651 14.7418 8.28871 13.7504 7.71794C14.4657 7.4585 15.2312 7.3677 15.9968 7.40662C16.687 7.43256 17.44 7.67903 17.8541 8.27574C18.1679 8.72976 18.2055 9.32648 18.1177 9.8713ZM19.6613 8.62599C19.4605 8.26277 19.2346 7.91253 18.8958 7.66606C18.0298 6.97854 16.9004 6.82287 15.8462 6.77099C14.9552 6.78396 14.0767 6.90071 13.2107 7.10826C12.9472 7.19906 12.7464 6.93962 12.5205 6.82287C13.5245 6.35588 14.6038 6.07049 15.6956 5.91483C16.687 5.837 17.7537 5.86294 18.6322 6.42074C19.3476 6.87476 19.7617 7.76983 19.6613 8.62599Z" fill="white"/>
</svg>
