<svg width="24" height="24" viewBox="0 0 24 24" fill="none" xmlns="http://www.w3.org/2000/svg">
<g clip-path="url(#clip0_85_987)">
<path d="M16.6336 15.9863L8.40239 20.746C8.23509 20.838 8.05942 20.93 7.88376 21.0053C6.06855 20.2273 4.88908 18.4456 4.89744 16.4631V6.95206C4.88908 4.97791 6.06855 3.1878 7.88376 2.40985C8.05942 2.48514 8.23509 2.57715 8.40239 2.66917L16.6336 7.4205C19.921 9.32772 19.921 14.0791 16.6336 15.9863Z" fill="#293A8C"/>
<path d="M13.7397 8.6418C13.0203 8.07298 12.2758 7.79694 11.5146 7.79694H8.729C8.17691 7.79694 7.83395 7.91405 7.71684 8.15663C7.65828 8.26538 7.61646 8.38249 7.59136 8.50796C7.57463 8.65853 7.56627 8.8091 7.57463 8.96804V16.3125C7.56627 16.5467 7.59136 16.781 7.64992 16.9985C7.7503 17.3247 8.10999 17.492 8.72064 17.492C9.27273 17.492 9.6157 17.3749 9.73281 17.1323C9.79136 17.0236 9.83319 16.9064 9.85828 16.781C9.87501 16.6304 9.88338 16.4798 9.87501 16.3293V14.8319H11.4978C12.2674 14.8319 13.0119 14.5475 13.7313 13.9871C14.1077 13.6943 14.4005 13.3095 14.6012 12.8829C14.8355 12.3977 14.9442 11.8623 14.9358 11.327C14.9442 10.7916 14.8271 10.2563 14.6012 9.76272C14.4089 9.31937 14.1077 8.94294 13.7397 8.6418ZM11.5146 12.4813H9.87501V10.1391H11.4978C11.7822 10.1475 12.0583 10.2479 12.2758 10.4403C12.5267 10.641 12.6522 10.9338 12.6522 11.3186C12.6522 11.7034 12.5267 11.9962 12.2758 12.1886C12.0666 12.3726 11.799 12.473 11.5146 12.4813Z" fill="white"/>
<path d="M4.89798 16.4633V6.95224C4.88961 4.97809 6.06908 3.18798 7.88429 2.41003C8.05995 2.48532 8.23562 2.57733 8.40292 2.66935C5.11547 0.770488 0.999878 3.14615 0.999878 6.95224V16.4633C0.999878 20.2693 5.1071 22.645 8.40292 20.7462C8.23562 20.8382 8.05995 20.9302 7.88429 21.0055C6.06908 20.2275 4.88961 18.4458 4.89798 16.4633Z" fill="#ED1B68"/>
<path d="M20.5323 7.42047L12.3011 2.66914C10.8456 1.83264 9.23117 1.82427 7.8844 2.40983C8.06006 2.48511 8.23573 2.57713 8.40303 2.66914L16.6342 7.42047C19.9217 9.3277 19.9217 14.079 16.6342 15.9863L8.40303 20.7459C8.23573 20.838 8.06006 20.93 7.8844 21.0053C9.23117 21.5908 10.8456 21.5824 12.3011 20.7459L20.5323 15.9863C23.8281 14.079 23.8281 9.3277 20.5323 7.42047Z" fill="#3E8CCB"/>
</g>
<defs>
<clipPath id="clip0_85_987">
<rect width="22" height="19.4152" fill="white" transform="translate(1 2)"/>
</clipPath>
</defs>
</svg>
