<svg width="24" height="24" viewBox="0 0 24 24" fill="none" xmlns="http://www.w3.org/2000/svg">
<path d="M11.0626 1.02918C2.80796 1.60609 -1.75549 11.1439 2.80658 18.0409C7.32149 24.868 17.592 24.5246 21.5735 17.3641C25.8878 9.60506 19.8488 0.415301 11.0626 1.02918ZM14.3076 19.3902C8.25526 21.2194 2.64432 15.5479 4.62558 9.52278C4.67596 9.36931 5.46597 7.51102 5.61713 7.62612L8.02089 12.1558L5.70958 12.1096C5.79741 17.5439 12.491 20.3078 16.3652 16.4558L17.0798 17.8842C16.232 18.5249 15.3343 19.08 14.3076 19.3902ZM18.5605 16.1313L15.926 12.0634H18.2373C18.3649 6.57401 11.609 3.61277 7.65247 7.46525L7.53736 7.43937L6.91562 6.12793C10.4746 3.05343 15.9325 3.82772 18.4874 7.7685C20.1326 10.3049 20.1358 13.562 18.5605 16.1313Z" fill="#FEBF03"/>
</svg>
