<svg width="24" height="24" viewBox="0 0 24 24" fill="none" xmlns="http://www.w3.org/2000/svg">
<path d="M16.8192 17.2422H16.067V15.5571L14.8918 13.3572H15.7145L16.4666 14.7614L17.2187 13.3572H18.0179L16.8427 15.5805L16.8192 17.2422ZM14.6568 17.2422L14.3512 16.4465H12.7294L12.4003 17.2422H11.6012L13.129 13.3338H13.9046L15.4324 17.2422H14.6568ZM13.5286 14.3635L12.988 15.6976H14.0456L13.5286 14.3635ZM9.29778 13.3338H10.0499V16.5167H11.1546V17.2188H9.29778V13.3338ZM8.00505 15.5337C7.7465 15.5805 7.46445 15.6039 7.2059 15.6039V17.2656H6.45377V13.3338H7.25291C7.58197 13.3104 7.88753 13.3572 8.19309 13.4508C8.38112 13.521 8.54565 13.6614 8.66317 13.8253C8.78069 14.0125 8.8277 14.2465 8.8277 14.4572C8.8277 14.7146 8.75719 14.9486 8.61616 15.1359C8.42813 15.3465 8.24009 15.4869 8.00505 15.5337ZM7.88753 14.1295C7.7465 14.0593 7.55847 14.0359 7.39394 14.0593H7.1824V14.8784H7.41744C7.55847 14.8784 7.67599 14.8784 7.81701 14.8316C7.88753 14.8082 7.95805 14.7614 7.98155 14.6912C8.02856 14.621 8.05206 14.5508 8.05206 14.4572C8.07556 14.3401 8.00505 14.1997 7.88753 14.1295ZM12.0713 22.9995C7.81701 23.0463 4.33838 19.6294 4.29137 15.3933C4.24436 11.1572 7.67599 7.69347 11.9303 7.64667C16.1845 7.59986 19.6632 11.0168 19.7102 15.2529C19.7102 15.2763 19.7102 15.2997 19.7102 15.3231C19.7337 19.5358 16.3021 22.9761 12.0713 22.9995ZM12.0713 8.4658C8.26359 8.4892 5.20804 11.6019 5.23154 15.3933C5.25505 19.1379 8.3106 22.1804 12.0713 22.2038C15.879 22.2038 18.958 19.1379 18.958 15.3465C18.958 11.5317 15.879 8.4658 12.0713 8.4658ZM14.3747 12.6551C11.7422 12.8189 10.6845 9.7296 13.0585 9.56577C15.5969 9.40195 16.9367 12.4912 14.3747 12.6551ZM11.5777 6.85094C10.2615 6.89775 8.96872 7.29561 7.84052 7.97432C7.67599 7.45944 6.94735 5.49352 5.06701 4.39354C6.40676 4.46376 7.62898 5.23608 8.2636 6.42967C8.2636 6.42967 7.53496 3.34038 7.723 1C9.20377 2.82549 10.332 5.79777 10.332 5.79777C10.1909 4.46376 10.7551 3.12974 11.8362 2.31061C10.8726 4.29993 11.4132 6.35946 11.5777 6.85094Z" fill="white"/>
<path d="M12.0713 22.9995C7.81701 23.0463 4.33838 19.6294 4.29137 15.3933C4.24436 11.1572 7.67599 7.69347 11.9303 7.64667C16.1845 7.59986 19.6632 11.0168 19.7102 15.2529C19.7102 15.2763 19.7102 15.2997 19.7102 15.3231C19.7337 19.5358 16.3021 22.9761 12.0713 22.9995ZM12.0713 8.4658C8.2636 8.4892 5.20804 11.6019 5.23155 15.3933C5.25505 19.1379 8.3106 22.1804 12.0713 22.2038C15.879 22.2038 18.958 19.1379 18.958 15.3465C18.958 11.5317 15.879 8.4658 12.0713 8.4658ZM14.3747 12.6551C11.7422 12.8189 10.6845 9.7296 13.0585 9.56577C15.5969 9.40195 16.9367 12.4912 14.3747 12.6551ZM11.5777 6.85094C10.2615 6.89775 8.96872 7.29561 7.84052 7.97432C7.67599 7.45944 6.94736 5.49352 5.06701 4.39354C6.40676 4.46376 7.62898 5.23608 8.2636 6.42967C8.2636 6.42967 7.53497 3.34038 7.723 1C9.20377 2.82549 10.332 5.79777 10.332 5.79777C10.1909 4.46376 10.7551 3.12974 11.8362 2.31061C10.8726 4.29993 11.4132 6.35946 11.5777 6.85094Z" fill="#F18F20"/>
</svg>
