<svg width="24" height="24" viewBox="0 0 24 24" fill="none" xmlns="http://www.w3.org/2000/svg">
<path d="M22.7961 1.20001C22.8423 4.04645 22.3716 6.81052 21.5132 9.51967C21.4117 9.84001 21.2087 9.8034 20.9871 9.8034C17.5076 9.8034 14.0374 9.8034 10.5579 9.8034C9.56109 9.8034 8.55509 9.79425 7.55831 9.81256C7.29065 9.81256 7.13375 9.74849 7.05069 9.48306C6.8661 8.90645 6.65382 8.339 6.41385 7.68001C6.66305 7.68001 6.83841 7.68001 7.01377 7.68001C11.1209 7.68001 15.228 7.67086 19.3351 7.68917C19.7319 7.68917 19.9073 7.58849 19.9719 7.18578C20.1565 6.06001 20.3688 4.93425 20.5626 3.80849C20.581 3.68035 20.5626 3.54306 20.5626 3.38747C14.8403 3.38747 9.14577 3.38747 3.40506 3.38747C4.09726 10.078 6.96762 15.6061 11.97 20.0543C13.3821 19.1024 16.4463 15.4963 17.0093 14.1051C16.8247 14.1051 16.6678 14.1051 16.5016 14.1051C14.3143 14.1051 12.1361 14.0959 9.94873 14.1143C9.63493 14.1143 9.44111 14.0319 9.28421 13.7573C8.96118 13.1898 8.60123 12.6407 8.22283 12.0183C12.3668 12.0183 16.4278 12.0183 20.5441 12.0183C20.4703 12.2014 20.4057 12.357 20.3319 12.5217C18.4952 16.4665 15.8463 19.7797 12.4222 22.4888C12.3022 22.5804 12.2099 22.6902 12.0992 22.8C12.0346 22.8 11.9792 22.8 11.9146 22.8C11.7854 22.6719 11.6746 22.5346 11.5362 22.4248C6.08159 18.0407 2.73131 12.4302 1.5684 5.55662C1.40227 4.59561 1.3192 3.62544 1.19922 2.66442C1.19922 2.17933 1.19922 1.6851 1.19922 1.20001C8.39818 1.20001 15.5971 1.20001 22.7961 1.20001Z" fill="white"/>
</svg>
