<svg width="24" height="24" viewBox="0 0 24 24" fill="none" xmlns="http://www.w3.org/2000/svg">
<path d="M17.5455 2.00001H6.45419C6.10167 2.00001 5.76358 2.14004 5.51431 2.38932C5.26504 2.63859 5.125 2.97667 5.125 3.32919V20.6708C5.125 20.8454 5.15938 21.0182 5.22618 21.1795C5.29298 21.3408 5.39088 21.4873 5.51431 21.6107C5.63774 21.7341 5.78427 21.832 5.94553 21.8988C6.1068 21.9656 6.27964 22 6.45419 22H17.5455C17.7204 22.0005 17.8936 21.9665 18.0553 21.8999C18.217 21.8333 18.364 21.7355 18.4878 21.612C18.6117 21.4886 18.7099 21.3419 18.7769 21.1804C18.844 21.0189 18.8785 20.8457 18.8785 20.6708V3.32919C18.8785 3.15433 18.844 2.98117 18.7769 2.81966C18.7099 2.65815 18.6117 2.51146 18.4878 2.38798C18.364 2.26451 18.217 2.16668 18.0553 2.1001C17.8936 2.03352 17.7204 1.99951 17.5455 2.00001ZM16.5442 12.6693C16.5444 13.3888 16.3133 14.0893 15.8847 14.6673L14.1053 17.0657L16.1683 18.9743C16.2117 19.0149 16.2419 19.0676 16.255 19.1255C16.2681 19.1835 16.2635 19.2441 16.2417 19.2994C16.22 19.3547 16.1822 19.4022 16.1332 19.4358C16.0841 19.4694 16.0261 19.4874 15.9667 19.4877H13.3677C13.219 19.4885 13.0754 19.4333 12.9654 19.3332L12.6461 19.0374L12.3899 18.8L12.0017 18.4373L11.0286 17.5433C10.9754 17.4936 10.9422 17.426 10.9354 17.3534C10.9287 17.2809 10.9487 17.2083 10.9919 17.1496L13.7482 13.4333C14.0514 13.0246 14.2149 12.5291 14.2145 12.0203V8.89559C14.2145 7.89234 13.8293 7.46278 13.6842 7.34879C13.5165 7.21879 13.1614 6.90793 12.0017 6.90793C10.8421 6.90793 10.4851 7.21879 10.3174 7.34879C10.1705 7.46372 9.78517 7.89234 9.78517 8.89559V12.2058C9.78519 12.4778 9.84143 12.7468 9.95037 12.9959C10.0593 13.2451 10.2186 13.4691 10.4182 13.6537L11.3423 14.5091C11.3965 14.5588 11.4303 14.6269 11.4373 14.7001C11.4442 14.7734 11.4238 14.8466 11.38 14.9057L10.2741 16.3931C10.2494 16.4265 10.2179 16.4542 10.1818 16.4746C10.1456 16.495 10.1056 16.5076 10.0643 16.5115C10.023 16.5154 9.98131 16.5106 9.94199 16.4973C9.90266 16.4841 9.86656 16.4627 9.83604 16.4346L8.53134 15.2269C8.1921 14.9129 7.92142 14.5321 7.7363 14.1085C7.55117 13.685 7.45559 13.2277 7.45556 12.7654V7.89328C7.45556 6.49155 7.88135 5.85852 8.3712 5.42801C8.92605 4.94005 9.918 4.51143 11.9999 4.51143C14.0817 4.51143 15.0737 4.94005 15.6285 5.42801C16.1184 5.85852 16.5442 6.49155 16.5442 7.89328V12.6693Z" fill="#FF7800"/>
</svg>
