<svg width="24" height="24" viewBox="0 0 24 24" fill="none" xmlns="http://www.w3.org/2000/svg">
<path d="M16.6811 16.0049H7.25232V17.1857H16.6811V16.0049Z" fill="#E6C87F"/>
<path d="M12.0031 6.80484L5.99023 8.32302L7.26219 14.9712H16.7372L18.0092 8.32302L12.0031 6.80484ZM11.4032 13.7876H8.20221L7.32612 9.16237L11.4073 8.14617L11.4032 13.7876ZM15.789 13.7876H12.5881V8.14617L16.6692 9.16237L15.789 13.7876Z" fill="#E6C87F"/>
<path d="M12.0014 1C9.82571 0.999731 7.69884 1.64464 5.88972 2.85317C4.0806 4.0617 2.67049 5.77957 1.83772 7.78953C1.00495 9.79949 0.786918 12.0113 1.2112 14.1451C1.63549 16.279 2.68303 18.2392 4.22135 19.7777C5.75967 21.3162 7.71968 22.364 9.85351 22.7885C11.9873 23.2131 14.1991 22.9953 16.2092 22.1628C18.2193 21.3303 19.9373 19.9204 21.1461 18.1114C22.3548 16.3024 23 14.1756 23 12C23 9.08284 21.8413 6.28516 19.7787 4.2223C17.7161 2.15944 14.9185 1.00036 12.0014 1ZM12.0014 2.28011C13.9238 2.28011 15.803 2.85017 17.4014 3.91821C18.9999 4.98624 20.2457 6.50428 20.9814 8.28035C21.717 10.0564 21.9095 12.0108 21.5345 13.8962C21.1594 15.7817 20.2337 17.5136 18.8744 18.873C17.515 20.2323 15.7831 21.158 13.8976 21.5331C12.0121 21.9081 10.0578 21.7156 8.28172 20.98C6.50565 20.2443 4.98761 18.9985 3.91957 17.4001C2.85154 15.8016 2.28148 13.9224 2.28148 12C2.28328 9.42229 3.30778 6.95063 5.13011 5.12754C6.95243 3.30445 9.42367 2.27891 12.0014 2.27603" fill="white"/>
</svg>
