<svg width="24" height="24" viewBox="0 0 24 24" fill="none" xmlns="http://www.w3.org/2000/svg">
<path d="M5.0679 2.16672C5.06591 1.65127 5.49578 1.17961 6.02516 1.20548C7.71279 1.19354 9.40043 1.20548 11.0881 1.2015C10.4253 4.14889 9.17355 7.12415 6.80728 9.10433C6.08685 9.71729 5.25696 10.2029 4.35742 10.4994C4.5644 7.7192 4.82908 4.94296 5.0679 2.16672Z" fill="white"/>
<path d="M11.3672 1.2015C13.0508 1.20548 14.7325 1.19354 16.4162 1.20548C16.9455 1.15175 17.3237 1.68112 17.2281 2.17667C16.9674 4.95092 16.7704 7.73114 16.4779 10.5034C14.5275 9.81282 13.1444 8.08339 12.3881 6.21465C11.7294 4.62652 11.4786 2.90705 11.3672 1.2015Z" fill="white"/>
<path d="M16.3667 18.9237C16.8344 13.5961 17.2802 8.2645 17.7677 2.9369C18.2314 3.16975 18.526 3.67127 18.4364 4.19268C17.9608 9.63172 17.4931 15.0708 17.0115 20.5098C17.0393 20.9556 16.6851 21.4571 16.1995 21.4014C12.7566 21.3954 9.31364 21.4173 5.87071 21.3894C5.42293 21.4292 5.25775 20.9596 5.15625 20.6232C8.30862 20.5834 11.461 20.6133 14.6134 20.6073C15.101 20.5795 15.6662 20.7227 16.0702 20.3665C16.3826 19.9546 16.295 19.4053 16.3667 18.9237Z" fill="white"/>
<path d="M19.0056 4.28406C19.3638 4.54079 19.7161 4.89702 19.6782 5.37465C19.2225 10.6863 18.7469 15.998 18.2931 21.3097C18.2473 21.7535 18.2832 22.2669 17.9409 22.6092C17.6702 22.8242 17.3219 22.8003 16.9995 22.7983C13.7556 22.7844 10.5097 22.8063 7.26577 22.7883C6.77022 22.8321 6.42792 22.4102 6.41797 21.9505C9.88678 21.9386 13.3556 21.9624 16.8244 21.9386C17.2463 21.9246 17.511 21.5246 17.515 21.1325C18.0244 15.5184 18.4662 9.89624 19.0056 4.28406Z" fill="white"/>
<path d="M4.33491 10.762C6.4544 11.5302 7.89725 13.4845 8.61768 15.5542C9.12914 17.001 9.35602 18.5315 9.44159 20.0599C7.66639 20.042 5.8892 20.0897 4.11599 20.038C3.52094 19.8907 3.58462 19.2081 3.62244 18.7344C3.86722 16.0776 4.06226 13.4168 4.33491 10.762Z" fill="white"/>
<path d="M14.274 11.9541C14.9367 11.4546 15.6631 11.0267 16.4611 10.7859C16.2482 13.5741 15.9875 16.3603 15.7427 19.1445C15.7308 19.638 15.3188 20.1017 14.8054 20.0579C13.1137 20.0579 11.4201 20.0679 9.72852 20.05C10.4231 17.0051 11.7525 13.9223 14.274 11.9541Z" fill="white"/>
</svg>
