<svg width="24" height="24" viewBox="0 0 24 24" fill="none" xmlns="http://www.w3.org/2000/svg">
<path d="M12.3445 15.0168C12.3243 15.3269 12.3454 15.6383 12.4072 15.9428L15.0204 20.3059C15.1204 20.4742 15.2667 20.6103 15.4419 20.6978C15.6171 20.7854 15.8137 20.8207 16.0084 20.7996C16.4056 20.7955 16.7898 20.6578 17.0992 20.4086C17.255 20.2993 17.3828 20.1547 17.4722 19.9866C17.5616 19.8185 17.61 19.6316 17.6135 19.4413C17.6002 19.1542 17.5076 18.8764 17.346 18.6387L14.7146 14.2142C14.6062 14.0516 14.4541 13.9229 14.2758 13.8428C14.0975 13.7626 13.9002 13.7344 13.7066 13.7613C13.0688 13.7613 12.6778 14.0081 12.5744 14.5225L12.3445 15.0168ZM11.8715 7.19845C11.9968 7.40395 12.0977 7.5894 12.201 7.77485L12.5099 8.33058C12.6127 8.51853 12.7361 8.70085 12.8395 8.90697C12.9278 8.74201 12.9771 8.55895 12.9836 8.37193C12.983 8.21834 12.9518 8.0664 12.8918 7.92504C12.8318 7.78367 12.7441 7.65571 12.634 7.54868C12.5372 7.44172 12.4197 7.35552 12.2887 7.29532C12.1576 7.23512 12.0157 7.20216 11.8715 7.19845ZM9.99882 10.2634C10.7672 10.3005 11.5369 10.2243 12.2831 10.0372C12.0776 9.64627 11.7481 9.04919 11.2544 8.24662C10.9245 7.7864 10.6805 7.27045 10.5339 6.72355C10.53 6.61373 10.5651 6.50608 10.6328 6.41956C10.7005 6.33303 10.7966 6.27318 10.9041 6.25053C11.1455 6.15146 11.4045 6.10244 11.6654 6.10643C12.2421 6.10183 12.8023 6.29834 13.2498 6.66215C13.483 6.84848 13.6681 7.08788 13.7899 7.36036C13.9116 7.63283 13.9664 7.93048 13.9497 8.22845C13.9499 8.4941 13.9076 8.75808 13.8244 9.01035C13.7624 9.32271 13.6276 9.61603 13.4309 9.86643C13.2341 10.1168 12.9811 10.3172 12.6922 10.4513C12.0288 10.7019 11.3229 10.8206 10.6141 10.8009H8.24958C7.86928 10.783 7.48832 10.8176 7.11746 10.9037C7.00705 10.9239 6.90295 10.9698 6.81358 11.0377C6.72422 11.1057 6.65211 11.1937 6.60308 11.2946C6.484 11.5735 6.43455 11.8771 6.45898 12.1793V19.3592C6.44934 19.5374 6.47733 19.7156 6.54113 19.8823C6.60492 20.049 6.7031 20.2003 6.82926 20.3266C7.06932 20.5508 7.38542 20.6757 7.7139 20.6762C8.0919 20.6737 8.45936 20.5513 8.76333 20.3266C8.90622 20.2234 9.02204 20.0871 9.10091 19.9295C9.17978 19.7719 9.21937 19.5975 9.2163 19.4212L9.15365 14.9761C9.1358 14.7905 9.15992 14.6032 9.22424 14.4282C9.28855 14.2531 9.3914 14.0948 9.52517 13.9649C9.79254 13.7623 10.1159 13.6472 10.4512 13.6353C10.8008 13.6146 11.1096 13.594 11.3358 13.594C12.4309 13.5105 13.4898 13.165 14.4233 12.5865C15.1892 12.0828 15.8015 11.3779 16.1932 10.5491C16.5611 9.78521 16.7511 8.94788 16.749 8.10002C16.8093 7.09319 16.5021 6.0987 15.8844 5.30135C15.3989 4.70445 14.8142 4.19577 14.1558 3.7977C13.4955 3.44861 12.7599 3.26622 12.0131 3.26641H8.6612C8.08093 3.23892 7.51271 3.43821 7.07673 3.82214C6.88317 3.99047 6.72925 4.19956 6.62602 4.43439C6.52279 4.66923 6.47281 4.924 6.47966 5.18043C6.47984 5.57208 6.58661 5.95629 6.78853 6.29188L9.11418 10.3047H9.99882V10.2634ZM7.38498 9.60492L5.53299 6.45603C5.25392 5.99773 5.11114 5.46944 5.12136 4.93296C5.11943 4.16648 5.41449 3.42906 5.94461 2.87546C6.27257 2.56632 6.66187 2.32958 7.08724 2.18063C7.51261 2.03168 7.96455 1.97384 8.41373 2.01086H12.4059C13.4779 1.99226 14.5311 2.29324 15.4314 2.87546C16.2882 3.44561 16.9773 4.2342 17.4275 5.15976C17.8871 6.10112 18.1197 7.1371 18.1066 8.1846C18.1106 9.16495 17.8999 10.1343 17.4895 11.0246C17.0728 11.9292 16.4273 12.7094 15.6168 13.2882L18.2482 17.5486C18.6267 18.125 18.8402 18.7941 18.8653 19.4833C18.8745 19.8328 18.8031 20.1797 18.6568 20.4973C18.5104 20.8148 18.2931 21.0944 18.0214 21.3146C17.4735 21.77 16.779 22.0113 16.0667 21.9937C15.6396 22.0255 15.2121 21.9361 14.8336 21.7358C14.455 21.5356 14.1406 21.2326 13.9265 20.8616C11.9304 17.5279 10.7983 15.6139 10.5101 15.1202V19.2771C10.529 19.6437 10.4651 20.0099 10.3232 20.3484C10.1812 20.6869 9.96475 20.9891 9.68995 21.2325C9.13135 21.6857 8.43382 21.9328 7.71453 21.9323C7.06236 21.952 6.42549 21.7325 5.92393 21.3152C5.67404 21.1036 5.47563 20.8378 5.34373 20.5381C5.21184 20.2384 5.14994 19.9126 5.16271 19.5854V12.074C5.14548 11.4513 5.32551 10.8391 5.67709 10.3248C5.87879 10.0714 6.14082 9.87272 6.4392 9.74684C6.73757 9.62097 7.06276 9.57258 7.38498 9.60492Z" fill="white"/>
<path d="M12.5703 14.4203C13.0026 15.1408 13.4963 16.0254 14.0934 17.0955C14.4917 17.8591 14.9305 18.6009 15.4078 19.3178C15.696 19.7294 15.9428 19.9349 16.169 19.9349C16.2366 19.9336 16.3022 19.9118 16.357 19.8723C16.4823 19.8723 16.5625 19.9136 16.5625 20.0164C16.5586 20.0603 16.5433 20.1024 16.518 20.1384C16.4927 20.1745 16.4583 20.2033 16.4184 20.2219C16.3092 20.2775 16.1907 20.3124 16.0688 20.3246C15.9101 20.314 15.7563 20.2655 15.6203 20.1832C15.4843 20.1009 15.3699 19.9872 15.2869 19.8516C15.0607 19.5427 14.6698 18.8435 14.0934 17.7935C13.517 16.7434 12.9412 15.7974 12.3648 14.9534M9.48279 10.1794L7.17782 6.10697C7.15592 6.03329 7.14206 5.95746 7.13647 5.88079C7.13647 5.77805 7.15715 5.73669 7.21855 5.73669C7.27989 5.74427 7.33837 5.76703 7.38869 5.80292C7.43902 5.8388 7.47959 5.88667 7.50675 5.94219L9.99654 10.2025" fill="white"/>
<path d="M7.7992 19.8121C8.27222 19.6066 8.5197 19.3591 8.5197 19.0916V14.1327C8.50965 13.9183 8.55561 13.705 8.65305 13.5137C8.75049 13.3224 8.89606 13.1598 9.07542 13.0419C9.437 12.7876 9.86824 12.6511 10.3103 12.651C11.3847 12.6905 12.4542 12.4864 13.4385 12.0539C14.1935 11.709 14.8252 11.1417 15.2492 10.4281C15.676 9.67491 15.9686 8.85319 16.1137 7.9997C16.1344 7.7942 16.2165 7.67015 16.3192 7.67015C16.422 7.67015 16.4633 7.75222 16.4633 7.93767C16.4818 8.66168 16.3358 9.38045 16.0364 10.0399C15.737 10.6994 15.292 11.2824 14.7348 11.745C13.4758 12.7312 11.9024 13.2284 10.3053 13.1447C9.96866 13.1483 9.64012 13.2483 9.35861 13.4329C9.22446 13.4935 9.1084 13.588 9.02184 13.7071C8.93528 13.8262 8.8812 13.9657 8.86491 14.112V19.2363C8.86491 19.5452 8.55603 19.8741 7.95959 20.2444C7.77163 20.1818 7.67139 20.1003 7.67139 19.9769C7.67266 19.9398 7.68539 19.9041 7.70784 19.8746C7.73028 19.8451 7.76132 19.8232 7.79669 19.8121M10.0603 5.5713C10.5416 5.27346 11.0997 5.12317 11.6655 5.139C12.1674 5.11506 12.6671 5.21966 13.1173 5.44289C13.5675 5.66612 13.9532 6.00058 14.2379 6.4146C14.2773 6.47604 14.299 6.54714 14.3006 6.6201C14.3026 6.67432 14.2845 6.72736 14.2498 6.76909C14.2151 6.81081 14.1663 6.83829 14.1126 6.84627C14.05 6.84627 13.9685 6.8256 13.9479 6.7642C13.6644 6.4174 13.3147 6.13051 12.9191 5.92027C12.5227 5.69537 12.0783 5.56842 11.6229 5.55C11.2214 5.54268 10.8273 5.65809 10.4932 5.8808C10.4046 5.92958 10.3061 5.95764 10.205 5.96288C10.0609 5.9422 9.99954 5.8808 9.99954 5.7981C9.97886 5.6728 9.99954 5.61015 10.0622 5.57193" fill="white"/>
</svg>
