<svg width="24" height="24" viewBox="0 0 24 24" fill="none" xmlns="http://www.w3.org/2000/svg">
<g clip-path="url(#clip0_4_4570)">
<path d="M13.5285 21.9892C13.5285 21.9892 13.5434 22.0338 13.5434 22.0487C14.0488 21.9 14.2866 21.3649 14.4947 20.9189H14.4798C14.465 20.9041 14.4501 20.9041 14.4353 20.8892C14.4055 20.8595 14.3609 20.8149 14.3163 20.7852C14.242 20.7406 14.1677 20.696 14.0785 20.6811C14.019 20.6662 13.9596 20.6365 13.8852 20.6216C13.8555 20.6216 13.8109 20.6068 13.7663 20.6068C13.5434 20.6068 13.3055 20.6514 13.0974 20.7554C13.2609 21.1716 13.3947 21.5879 13.4839 22.0189C13.4839 22.0189 13.5136 22.0041 13.5285 22.0041V21.9892Z" fill="#DC1F32"/>
<path d="M8.55049 14.8689C8.60995 14.527 8.65455 14.1851 8.714 13.8284C8.80319 13.2338 8.89238 12.6392 8.99644 12.0446C9.02617 12.1784 9.0559 12.2973 9.07076 12.4311C9.18968 12.9959 9.29373 13.5608 9.41265 14.1257C9.45725 14.3784 9.51671 14.6162 9.5613 14.8689H11.5978C11.5086 14.6162 11.4194 14.3635 11.3302 14.1108C11.1816 13.6797 11.0478 13.2784 10.914 12.8622C10.8397 12.5946 10.7505 12.327 10.6613 12.0595C11.241 11.8068 11.6572 11.3311 11.8654 10.7662C12.0289 10.3649 12.0735 9.91892 12.014 9.48784C12.014 9.32432 11.9545 9.16081 11.8951 8.9973C11.6721 8.4473 11.0924 8.16486 10.5424 8.07567C10.4829 8.06081 10.4235 8.06081 10.364 8.06081C9.72482 7.97162 9.07076 7.98648 8.41671 8.00135H7.73292V8.03108C7.614 8.77432 7.49509 9.53243 7.37617 10.2757C7.37617 10.3351 7.37617 10.4095 7.34644 10.4689C7.22752 11.1527 7.12346 11.8513 7.01941 12.5351C6.94509 13.0405 6.87076 13.5311 6.8113 14.0365C6.76671 14.3189 6.72211 14.6013 6.69238 14.8838C6.90049 14.8838 7.09373 14.8838 7.30184 14.8838C7.71806 14.8838 8.13427 14.8838 8.55049 14.8838V14.8689ZM9.21941 10.6176C9.27887 10.2162 9.33833 9.81486 9.39779 9.41351C9.47211 9.45811 9.5613 9.48784 9.66536 9.53243C9.8586 9.59189 10.0518 9.66621 10.0816 9.84459C10.1113 9.87432 10.1113 9.90405 10.1113 9.94865C10.1856 10.2459 10.1113 10.5432 9.93292 10.7662C9.75454 11.0189 9.45725 11.1973 9.13022 11.227C9.15995 11.0189 9.18968 10.8257 9.21941 10.6176Z" fill="#DC1F32"/>
<path d="M9.88908 15.6569H9.82963C9.48773 15.9988 9.22017 16.415 8.96746 16.8312C8.86341 16.9947 8.77422 17.1434 8.67017 17.3069C8.68503 17.3217 8.71476 17.3366 8.72963 17.3515C8.9526 17.515 9.16071 17.6785 9.38368 17.8569C9.38368 17.8569 9.39854 17.8569 9.39854 17.8271C9.87422 17.1731 10.3202 16.5042 10.7661 15.8352L10.885 15.6569L10.9148 15.6123H10.6621C10.6621 15.6123 10.4985 15.6123 10.4242 15.6123C10.2458 15.6123 10.0675 15.6123 9.88908 15.642V15.6569Z" fill="#DC1F32"/>
<path d="M11.1937 19.3283C11.1937 19.3283 11.045 19.2243 10.9707 19.1648C10.8815 19.0905 10.7923 19.0311 10.7031 18.9567C10.0639 18.4811 9.4396 18.0054 8.80041 17.5297C8.78555 17.5148 8.75582 17.5 8.74095 17.4851C7.98285 17.3067 7.22474 17.0689 6.48149 16.8311C5.76798 16.5932 5.06933 16.3702 4.34095 16.1919C4.32609 16.1919 4.29636 16.1919 4.28149 16.1919C4.35582 16.3405 4.40041 16.5189 4.44501 16.6824C4.50447 16.8756 4.56393 17.054 4.66798 17.2175C4.68285 17.277 4.71258 17.3216 4.7423 17.3662C4.7869 17.4554 4.84636 17.5446 4.92068 17.6189C4.98014 17.6784 5.0396 17.7229 5.11393 17.7527C6.03555 18.2284 6.95717 18.704 7.86393 19.1797C7.87879 19.1946 7.90852 19.2094 7.92339 19.2243C7.95312 19.2392 7.98285 19.2392 8.01257 19.2689C8.05717 19.2838 8.0869 19.2986 8.11663 19.3135C8.13149 19.3283 8.16122 19.3284 8.17609 19.3432C9.02339 19.7743 9.84095 20.2351 10.6883 20.6662C10.718 20.6662 10.7328 20.6811 10.7477 20.6959C11.6545 21.1716 12.5612 21.6324 13.468 22.0784C13.4531 22.0635 13.4531 22.0486 13.4531 22.0338C13.3491 21.7365 13.2896 21.4243 13.1707 21.127C13.0518 20.8446 12.8883 20.5919 12.6207 20.4283C12.6058 20.4135 12.5761 20.3986 12.5612 20.3838C12.1004 20.0419 11.6396 19.7 11.1937 19.3432V19.3283Z" fill="#DC1F32"/>
<path d="M4.87841 16.2365C4.87841 16.2365 4.92301 16.2811 4.95274 16.296C4.98247 16.3108 5.0122 16.3257 5.05679 16.3406C5.10139 16.3406 5.14598 16.3554 5.19058 16.3554C5.29463 16.3554 5.38382 16.3554 5.47301 16.3554C5.5176 16.3554 5.5622 16.3406 5.59193 16.3257C5.59193 16.2514 5.57706 16.1919 5.54733 16.1473C5.5176 16.1176 5.50274 16.0879 5.45814 16.0581C5.39868 16.0135 5.33922 15.9838 5.2649 15.9689C5.16085 15.9392 5.05679 15.9392 4.95274 15.9541C4.87841 15.9689 4.80409 15.9838 4.7595 16.0284C4.74463 16.1176 4.80409 16.2068 4.87841 16.2365Z" fill="#DC1F32"/>
<path d="M20.0689 2.50139C20.0689 2.50139 19.9649 2.39733 19.9203 2.33787C19.8311 2.24868 19.7419 2.17436 19.623 2.10004C19.5635 2.05544 19.5041 2.02571 19.4297 1.99598C19.2811 1.90679 19.1027 1.84733 18.9392 1.83247C18.8203 1.8176 18.7162 1.8176 18.6122 1.83247C18.5378 1.83247 18.4635 1.84733 18.4041 1.87706C18.3595 1.89193 18.3149 1.89193 18.2851 1.92166C18.0027 2.01085 17.7797 2.24868 17.6906 2.62031H17.7649C17.7649 2.62031 17.75 2.65004 17.75 2.6649C18.1068 2.69463 18.4784 2.65004 18.85 2.7095C18.9243 2.73922 18.9987 2.78382 19.073 2.85814C19.1324 2.90274 19.2068 2.94733 19.2662 3.02166C19.4 3.15544 19.5189 3.30409 19.6527 3.45274C19.6973 3.5122 19.7568 3.57166 19.8014 3.63112V3.61625C19.8162 3.63112 19.8311 3.66085 19.846 3.67571C20.0095 3.43787 20.2622 3.20004 20.2473 2.88787C20.2473 2.84328 20.2473 2.78382 20.2176 2.73922C20.173 2.65004 20.1135 2.56085 20.0541 2.50139H20.0689Z" fill="#DC1F32"/>
<path d="M19.3853 3.28925C19.3853 3.28925 19.2961 3.18519 19.2515 3.15546C19.2515 3.15546 19.2416 3.1406 19.2218 3.11087C19.2218 3.11087 19.1921 3.08114 19.1624 3.06627C19.1178 3.02168 19.0732 2.97708 19.0137 2.94735C18.984 2.90276 18.9394 2.87303 18.8948 2.85817C18.8502 2.82844 18.8056 2.81357 18.7461 2.79871C18.4786 2.70952 18.1664 2.73925 17.8691 2.75411C17.7799 2.75411 17.6907 2.75411 17.6015 2.76898H17.5421C17.3488 3.05141 17.1556 3.34871 16.9624 3.63114C16.4867 4.32979 16.011 5.02844 15.5651 5.74195H15.6543C15.6543 5.74195 15.6394 5.77168 15.6245 5.78654C16.0705 5.78654 16.5164 5.90546 16.888 6.1433C16.9029 6.1433 16.9178 6.1433 16.9178 6.1433C16.9772 6.17303 17.0367 6.21762 17.0813 6.26222C17.1407 6.30681 17.2002 6.35141 17.2448 6.41087C17.3191 6.47033 17.3786 6.54465 17.4232 6.61898C17.5124 6.70817 17.5718 6.79735 17.6313 6.90141C17.6313 6.90141 17.6313 6.88654 17.6461 6.88654C17.6461 6.88654 17.661 6.88654 17.661 6.85681C17.7056 6.78249 17.7651 6.6933 17.8245 6.61898H17.9137C18.4488 5.77168 19.0732 4.93925 19.5934 4.07708C19.638 4.01762 19.6678 3.95817 19.6678 3.89871C19.7124 3.80952 19.7124 3.72033 19.6678 3.646C19.638 3.58654 19.5934 3.54195 19.5488 3.49735C19.5043 3.42303 19.4448 3.34871 19.3853 3.27438V3.28925Z" fill="#DC1F32"/>
<path d="M17.3069 6.63375C17.3069 6.63375 17.2326 6.51483 17.1583 6.47023C17.1285 6.41077 17.0691 6.36618 17.0096 6.33645C16.9502 6.27699 16.8758 6.21753 16.7867 6.17293C16.5488 6.02429 16.2664 5.9351 16.0137 5.90537C15.9691 5.90537 15.9394 5.8905 15.9096 5.8905C15.4191 5.86077 15.1515 6.26212 14.9137 6.66348C14.8988 6.70807 14.8691 6.7378 14.8542 6.76753C14.7353 6.96077 14.6312 7.13915 14.5123 7.2878H14.6015C14.884 7.27293 15.1812 7.2878 15.4637 7.30266C15.9542 7.31753 16.4596 7.34726 16.9353 7.30266C17.0988 7.2878 17.2772 7.25807 17.4407 7.21348C17.4556 7.00537 17.3961 6.81212 17.2772 6.63375H17.3069Z" fill="#DC1F32"/>
<path d="M16.6372 8.32839C16.3399 8.19461 16.0129 8.10542 15.6859 8.04596H15.6264C15.0913 7.97163 14.5264 7.9865 13.9764 8.00136C13.6642 8.00136 13.3669 8.00136 13.0696 8.00136C13.0548 8.17974 13.0251 8.37299 12.9953 8.55136C12.8615 9.6365 12.6832 10.7068 12.5196 11.777C12.4007 12.5351 12.2669 13.3081 12.1629 14.0811C12.1183 14.3338 12.0886 14.5716 12.0588 14.8243C12.148 14.8392 12.2224 14.8541 12.3115 14.8392C12.6534 14.8838 13.0102 14.8689 13.3521 14.8689C13.5453 14.8689 13.7237 14.8689 13.9021 14.8689C13.9318 14.6906 13.9615 14.5122 13.9764 14.3338C14.0061 14.1851 14.021 14.0514 14.0359 13.9027C14.1399 13.2784 14.244 12.6541 14.3778 12.0446C14.3926 12.1635 14.4224 12.2824 14.4372 12.4014C14.5264 12.9216 14.6156 13.427 14.7196 13.9324C14.7791 14.2297 14.8386 14.5122 14.9129 14.7797C15.0467 14.8243 15.1805 14.8541 15.3291 14.8689C15.5967 14.8987 15.8791 14.8987 16.1764 14.8689C16.3548 14.8689 16.548 14.8689 16.7264 14.8689H16.9345C16.8305 14.4973 16.6967 14.1257 16.5778 13.7541C16.3845 13.1892 16.1913 12.6392 16.0724 12.0743C16.1467 12 16.2359 11.9406 16.3251 11.8662C16.6818 11.5987 17.0386 11.3311 17.1724 10.8851C17.2021 10.796 17.2467 10.7068 17.2615 10.6176C17.2764 10.6176 17.2764 10.5879 17.2764 10.573C17.3656 10.2906 17.4102 9.97839 17.3953 9.68109C17.3953 9.68109 17.3953 9.65136 17.3805 9.6365C17.3656 9.10136 17.1575 8.59596 16.6372 8.32839ZM15.2102 10.8703C15.0169 11.0784 14.7642 11.2122 14.4818 11.2419C14.5561 10.6176 14.6602 10.0081 14.7642 9.39866C14.8386 9.44326 14.9278 9.47299 15.0021 9.51758C15.1359 9.56218 15.2845 9.62164 15.3737 9.71082C15.4332 9.77028 15.4778 9.84461 15.4926 9.9338C15.5669 10.2906 15.448 10.6324 15.2102 10.8703Z" fill="#434344"/>
<path d="M14.9064 9.50274C14.9064 9.50274 14.7429 9.42841 14.6685 9.38382C14.5645 9.99328 14.4604 10.6027 14.3861 11.2271C14.6685 11.1973 14.9212 11.0635 15.1145 10.8554C15.3523 10.6176 15.4712 10.2757 15.3969 9.91895C15.3821 9.82977 15.3375 9.75544 15.278 9.69598C15.1888 9.60679 15.0402 9.54733 14.9064 9.50274Z" fill="white"/>
<path d="M10.0168 9.93376C10.0168 9.93376 10.0168 9.85943 9.98712 9.8297C9.95739 9.65132 9.76414 9.577 9.5709 9.51754C9.46685 9.47294 9.37766 9.44322 9.30333 9.39862C9.24387 9.79997 9.18442 10.2013 9.12496 10.6027C9.09523 10.8108 9.0655 11.004 9.03577 11.2121C9.36279 11.1824 9.66009 11.004 9.83847 10.7513C10.0168 10.5284 10.0912 10.2311 10.0168 9.93376Z" fill="white"/>
<path d="M20.2445 1.59458C19.4567 0.955393 18.0891 0.687826 17.3607 1.54999C16.2012 3.24458 15.0864 4.96891 13.9121 6.64864H13.7337L6.39043 6.73783C6.39043 6.73783 6.33098 6.73783 6.31611 6.75269C6.27152 6.75269 6.21206 6.76756 6.16746 6.79729C5.97422 6.87161 5.81071 7.06485 5.76611 7.33242L5.61746 8.12026L5.37962 9.32431L4.96341 11.4351L4.85935 12.0594V12.1338L4.69584 12.9365L4.57692 13.5013L4.56206 13.5905L4.48773 13.9919L4.30935 14.8986V15.0027L4.29449 15.0324V14.8986C4.29449 14.8986 3.64043 14.9878 2.95665 16.0581C2.70395 16.4594 3.55125 17.277 3.81881 17.5149L3.64043 18.4067C3.58098 18.7189 3.69989 19.0311 3.89314 19.1946C3.99719 19.2689 4.11611 19.3135 4.24989 19.3135H6.24179C6.58368 19.4473 6.91071 19.6554 7.23773 19.8189C9.09584 20.7554 10.9391 21.7216 12.7823 22.7027C13.1837 22.8811 13.6594 23.1784 14.0756 22.8513C14.6107 22.3608 14.9377 21.677 15.2945 21.0676C15.1607 20.6811 15.0121 20.25 14.6256 20.0419C14.2094 19.7297 13.6594 19.8338 13.1688 19.8189C12.931 19.6703 12.708 19.4919 12.485 19.3135H17.3904C17.3904 19.3135 17.435 19.3135 17.4648 19.2986C17.5688 19.2838 17.658 19.254 17.7323 19.1797C17.881 19.0905 17.985 18.9121 18.0296 18.6892L19.5607 7.48107C19.5756 7.33242 19.5607 7.19864 19.5161 7.04999C19.4864 6.94593 19.4269 6.87161 19.3675 6.81215C19.3675 6.81215 19.3576 6.8072 19.3377 6.79729C19.2188 6.6635 19.085 6.60404 18.9364 6.60404H18.8175C19.4864 5.5635 20.2296 4.58242 20.8837 3.52701C21.2999 2.84323 20.8242 2.02566 20.2594 1.59458H20.2445ZM6.71746 14.0216C6.77692 13.5162 6.85125 13.0257 6.92557 12.5203C7.02962 11.8365 7.13368 11.1378 7.2526 10.454C7.26746 10.3946 7.26746 10.3203 7.28233 10.2608C7.40125 9.51756 7.52016 8.75945 7.63908 8.0162V7.98647H8.32287C8.97692 7.97161 9.63098 7.95674 10.2702 8.04593C10.3296 8.04593 10.3891 8.04593 10.4485 8.0608C10.9985 8.14999 11.5783 8.43242 11.8012 8.98242C11.8607 9.14593 11.9053 9.30945 11.9202 9.47296C11.9796 9.90404 11.935 10.35 11.7715 10.7513C11.5634 11.3162 11.1472 11.7919 10.5675 12.0446C10.6567 12.3121 10.7458 12.5797 10.8202 12.8473C10.9539 13.2635 11.0877 13.6649 11.2364 14.0811C11.3256 14.3486 11.4148 14.6013 11.5039 14.854H9.46746C9.42287 14.6013 9.36341 14.3635 9.31881 14.1108C9.19989 13.5459 9.09584 12.9811 8.97692 12.4162C8.96206 12.2824 8.93233 12.1635 8.9026 12.0297C8.79854 12.6243 8.70935 13.2189 8.62016 13.8135C8.56071 14.1703 8.51611 14.5121 8.45665 14.854C8.04044 14.854 7.62422 14.854 7.208 14.854C6.99989 14.854 6.80665 14.854 6.59854 14.854C6.62827 14.5716 6.67287 14.2892 6.71746 14.0067V14.0216ZM10.8202 15.5973L10.7904 15.6419L10.6715 15.8203C10.2256 16.4892 9.77962 17.1581 9.30395 17.8121C9.30395 17.827 9.28908 17.827 9.28908 17.8419C9.06611 17.6635 8.858 17.5 8.63503 17.3365C8.62016 17.3216 8.59044 17.3067 8.57557 17.2919C8.67962 17.1284 8.76881 16.9797 8.87287 16.8311C9.12557 16.4 9.39314 15.9838 9.73503 15.6419H9.79449C9.97287 15.6121 10.1512 15.6121 10.3296 15.6121C10.4039 15.6121 10.4931 15.6121 10.5675 15.6121H10.8202V15.5973ZM4.85935 15.9392C4.96341 15.9243 5.06746 15.9243 5.17152 15.954C5.24584 15.9689 5.3053 15.9986 5.36476 16.0432C5.40935 16.073 5.42422 16.1027 5.45395 16.1324C5.48368 16.177 5.51341 16.2365 5.49854 16.3108C5.46881 16.3257 5.42422 16.3405 5.37962 16.3405C5.29044 16.3405 5.20125 16.3405 5.09719 16.3405C5.0526 16.3405 5.008 16.3257 4.96341 16.3257C4.91881 16.3108 4.88908 16.2959 4.85935 16.2811C4.82962 16.2662 4.79989 16.2513 4.78503 16.2216C4.71071 16.1919 4.65125 16.1027 4.66611 16.0135C4.71071 15.9689 4.78503 15.954 4.85935 15.9392ZM13.6742 20.577C13.6742 20.577 13.7634 20.5919 13.7931 20.5919C13.8675 20.6067 13.9269 20.6365 13.9864 20.6513C14.0756 20.6662 14.1499 20.7108 14.2242 20.7554C14.2688 20.7851 14.3134 20.8297 14.3431 20.8594C14.358 20.8743 14.3729 20.8743 14.3877 20.8892H14.4026C14.1945 21.3351 13.9567 21.8703 13.4512 22.0189C13.4512 22.004 13.4364 21.9743 13.4364 21.9594C13.4215 21.9594 13.4067 21.9743 13.3918 21.9743C13.3026 21.5432 13.1688 21.127 13.0053 20.7108C13.2134 20.6067 13.4512 20.5621 13.6742 20.5621V20.577ZM12.5296 20.3986C12.7972 20.5621 12.9607 20.8149 13.0796 21.0973C13.1985 21.3946 13.258 21.7067 13.3621 21.9892C13.3621 21.9892 13.3621 22.0338 13.3769 22.0486C12.4702 21.6027 11.5634 21.1419 10.6567 20.6662C10.6418 20.6513 10.6269 20.6365 10.5972 20.6365C9.74989 20.2054 8.93233 19.7446 8.08503 19.3135C8.07017 19.2986 8.04044 19.2986 8.02557 19.2838C7.99584 19.2689 7.96611 19.254 7.92152 19.2392C7.89179 19.2094 7.86206 19.2094 7.83233 19.1946C7.83233 19.1797 7.78773 19.1649 7.77287 19.15C6.86611 18.6743 5.94449 18.1986 5.02287 17.723C4.94854 17.6932 4.88908 17.6486 4.82962 17.5892C4.7553 17.5149 4.69584 17.4257 4.65125 17.3365C4.62152 17.2919 4.59179 17.2473 4.57692 17.1878C4.47287 17.0243 4.41341 16.8459 4.35395 16.6527C4.30935 16.4892 4.26476 16.3108 4.19044 16.1621C4.19044 16.1621 4.23503 16.1621 4.24989 16.1621C4.97827 16.3405 5.67692 16.5635 6.39043 16.8013C7.13368 17.0392 7.89179 17.277 8.64989 17.4554C8.64989 17.4703 8.69449 17.4851 8.70935 17.5C9.34854 17.9757 9.97287 18.4513 10.6121 18.927C10.7012 19.0013 10.7904 19.0608 10.8796 19.1351C10.9539 19.1946 11.0283 19.254 11.1026 19.2986C11.5485 19.6554 12.0094 19.9973 12.4702 20.3392C12.4702 20.354 12.5148 20.3689 12.5296 20.3838V20.3986ZM17.1823 10.5581C17.1823 10.5581 17.1823 10.5878 17.1675 10.6027C17.1526 10.6919 17.108 10.7811 17.0783 10.8703C16.9445 11.3162 16.5877 11.5838 16.231 11.8513C16.1418 11.9257 16.0526 11.9851 15.9783 12.0594C16.0972 12.6243 16.2904 13.1743 16.4837 13.7392C16.6026 14.1108 16.7364 14.4824 16.8404 14.854H16.6323C16.4539 14.854 16.2607 14.854 16.0823 14.854C15.785 14.8689 15.5026 14.8689 15.235 14.854C15.0864 14.8392 14.9526 14.8094 14.8188 14.7649C14.7445 14.4973 14.685 14.2149 14.6256 13.9324C14.5215 13.4121 14.4323 12.9067 14.3431 12.3865C14.3431 12.2676 14.2985 12.1486 14.2837 12.0297C14.1499 12.6392 14.0458 13.2635 13.9418 13.8878C13.9269 14.0365 13.9121 14.1703 13.8823 14.3189C13.8675 14.4973 13.8377 14.6757 13.808 14.854C13.6296 14.854 13.4512 14.854 13.258 14.854C12.9161 14.854 12.5594 14.8689 12.2175 14.8243C12.1283 14.8392 12.0539 14.8243 11.9648 14.8094C11.9945 14.5567 12.0242 14.3189 12.0688 14.0662C12.1729 13.2932 12.3067 12.5203 12.4256 11.7621C12.5891 10.6919 12.7675 9.62161 12.9012 8.53647C12.931 8.3581 12.9607 8.16485 12.9756 7.98647C13.2729 7.98647 13.5702 7.98647 13.8823 7.98647C14.4323 7.97161 14.9972 7.95674 15.5323 8.03107H15.5918C15.9188 8.09053 16.2458 8.17972 16.5431 8.3135C17.0634 8.58107 17.2715 9.08647 17.2864 9.62161C17.3012 9.63647 17.3012 9.65134 17.3012 9.6662C17.3012 9.9635 17.2715 10.2757 17.1823 10.5581ZM16.8404 7.28783C16.3648 7.33242 15.8594 7.30269 15.3688 7.28783C15.0864 7.27296 14.7891 7.2581 14.5067 7.27296H14.4175C14.5364 7.12431 14.6404 6.94593 14.7594 6.75269C14.7742 6.72296 14.804 6.69323 14.8188 6.64864C15.0567 6.24728 15.3242 5.84593 15.8148 5.87566C15.8445 5.87566 15.8742 5.89053 15.9188 5.89053C16.1715 5.92026 16.4539 6.00945 16.6918 6.1581C16.781 6.20269 16.8553 6.26215 16.9148 6.32161C16.9742 6.35134 17.0337 6.39593 17.0634 6.45539C17.1377 6.49999 17.1823 6.55945 17.2121 6.61891H17.1823C17.3012 6.79729 17.3607 6.99053 17.3458 7.19864C17.1823 7.24323 17.004 7.27296 16.8404 7.28783ZM19.5756 3.89864C19.5756 3.89864 19.5458 4.01756 19.5012 4.07701C18.981 4.93918 18.3567 5.77161 17.8215 6.61891H17.7323C17.7323 6.61891 17.6134 6.78242 17.5688 6.85674C17.5688 6.87161 17.5539 6.87161 17.5539 6.88647C17.5391 6.88647 17.5391 6.90134 17.5391 6.90134C17.4796 6.79729 17.4202 6.7081 17.331 6.61891C17.2864 6.54458 17.2269 6.47026 17.1526 6.4108C17.108 6.35134 17.0485 6.30674 16.9891 6.26215C16.9445 6.21756 16.885 6.17296 16.8256 6.14323C16.8256 6.14323 16.8107 6.14323 16.7958 6.14323C16.4242 5.90539 15.9783 5.78647 15.5323 5.78647C15.5323 5.78647 15.5323 5.75674 15.5621 5.74188H15.4729C15.9188 5.02837 16.3945 4.32972 16.8702 3.63107C17.0634 3.34864 17.2567 3.05134 17.4499 2.76891H17.5094C17.5985 2.75404 17.6877 2.75404 17.7769 2.75404C18.0742 2.73918 18.3864 2.70945 18.6539 2.79864C18.7134 2.79864 18.758 2.82837 18.8026 2.8581C18.8472 2.87296 18.8918 2.90269 18.9215 2.94728C18.981 2.97701 19.0256 3.02161 19.0702 3.0662C19.0999 3.0662 19.1148 3.09593 19.1296 3.1108C19.1445 3.12566 19.1445 3.12566 19.1594 3.15539C19.2039 3.18512 19.2634 3.24458 19.2931 3.28918C19.3526 3.3635 19.4121 3.43783 19.4567 3.51215C19.5012 3.55674 19.5458 3.6162 19.5756 3.6608C19.6202 3.73512 19.6202 3.82431 19.5756 3.9135V3.89864ZM19.7688 3.6608C19.7688 3.6608 19.7391 3.6162 19.7242 3.60134V3.6162C19.6796 3.55674 19.6202 3.49728 19.5756 3.43783C19.4418 3.28918 19.3229 3.14053 19.1891 3.00674C19.1296 2.93242 19.0553 2.88783 18.9958 2.84323C18.9215 2.76891 18.8472 2.72431 18.7729 2.69458C18.4012 2.63512 18.0296 2.69458 17.6729 2.64999C17.6729 2.63512 17.6877 2.62026 17.6877 2.60539H17.6134C17.7026 2.23377 17.9256 1.99593 18.208 1.90674C18.2377 1.87701 18.2823 1.87701 18.3269 1.86215C18.3864 1.83242 18.4607 1.81756 18.535 1.81756C18.6391 1.80269 18.7431 1.80269 18.8621 1.81756C19.0256 1.83242 19.2039 1.89188 19.3526 1.98107C19.4269 2.0108 19.4864 2.04053 19.5458 2.08512C19.6648 2.15945 19.7539 2.23377 19.8431 2.32296C19.8877 2.38242 19.9472 2.42701 19.9918 2.48647C20.0512 2.54593 20.1107 2.63512 20.1553 2.72431C20.185 2.76891 20.185 2.82837 20.185 2.87296C20.185 3.18512 19.9472 3.42296 19.7837 3.6608H19.7688Z" fill="white"/>
</g>
<defs>
<clipPath id="clip0_4_4570">
<rect width="18.1351" height="22" fill="white" transform="translate(2.90002 1)"/>
</clipPath>
</defs>
</svg>
