<svg width="24" height="24" viewBox="0 0 24 24" fill="none" xmlns="http://www.w3.org/2000/svg">
<g clip-path="url(#clip0_4_4551)">
<path d="M14.9124 9.50274C14.9124 9.50274 14.7488 9.42841 14.6745 9.38382C14.5705 9.99328 14.4664 10.6027 14.3921 11.2271C14.6745 11.1973 14.9272 11.0635 15.1205 10.8554C15.3583 10.6176 15.4772 10.2757 15.4029 9.91895C15.388 9.82977 15.3434 9.75544 15.284 9.69598C15.1948 9.60679 15.0461 9.54733 14.9124 9.50274Z" fill="white"/>
<path d="M10.0227 9.93382C10.0227 9.93382 10.0227 9.85949 9.99298 9.82976C9.96325 9.65138 9.77 9.57706 9.57676 9.5176C9.47271 9.47301 9.38352 9.44328 9.30919 9.39868C9.24973 9.80003 9.19027 10.2014 9.13082 10.6027C9.10109 10.8108 9.07136 11.0041 9.04163 11.2122C9.36865 11.1825 9.66595 11.0041 9.84433 10.7514C10.0227 10.5284 10.097 10.2311 10.0227 9.93382Z" fill="white"/>
<path d="M20.2474 1.59467C19.4596 0.955485 18.092 0.687917 17.3636 1.55008C16.2042 3.24467 15.0893 4.969 13.915 6.64873H13.7366L6.39336 6.73792C6.39336 6.73792 6.33391 6.73792 6.31904 6.75278C6.27445 6.75278 6.21499 6.76765 6.17039 6.79738C5.97715 6.8717 5.81363 7.06494 5.76904 7.33251L5.62039 8.12035L5.38255 9.3244L4.96634 11.4352L4.86228 12.0595V12.1339L4.69877 12.9366L4.57985 13.5014L4.56499 13.5906L4.49066 13.992L4.31228 14.8987V15.0028L4.29742 15.0325V14.8987C4.29742 14.8987 3.64336 14.9879 2.95958 16.0582C2.70688 16.4595 3.55418 17.2771 3.82174 17.5149L3.64336 18.4068C3.58391 18.719 3.70282 19.0312 3.89607 19.1947C4.00012 19.269 4.11904 19.3136 4.25282 19.3136H6.24472C6.58661 19.4474 6.91364 19.6555 7.24066 19.819C9.09877 20.7555 10.942 21.7217 12.7853 22.7028C13.1866 22.8812 13.6623 23.1785 14.0785 22.8514C14.6136 22.3609 14.9407 21.6771 15.2974 21.0676C15.1636 20.6812 15.015 20.2501 14.6285 20.042C14.2123 19.7298 13.6623 19.8339 13.1717 19.819C12.9339 19.6703 12.7109 19.492 12.488 19.3136H17.3934C17.3934 19.3136 17.438 19.3136 17.4677 19.2987C17.5717 19.2839 17.6609 19.2541 17.7353 19.1798C17.8839 19.0906 17.988 18.9122 18.0326 18.6893L19.5636 7.48116C19.5785 7.33251 19.5636 7.19873 19.519 7.05008C19.4893 6.94603 19.4299 6.8717 19.3704 6.81224C19.3704 6.81224 19.3605 6.80729 19.3407 6.79738C19.2217 6.66359 19.088 6.60413 18.9393 6.60413H18.8204C19.4893 5.56359 20.2326 4.58251 20.8866 3.52711C21.3028 2.84332 20.8272 2.02575 20.2623 1.59467H20.2474ZM6.72039 14.0217C6.77985 13.5163 6.85418 13.0258 6.9285 12.5204C7.03255 11.8366 7.13661 11.1379 7.25553 10.4541C7.27039 10.3947 7.27039 10.3203 7.28526 10.2609C7.40418 9.51765 7.52309 8.75954 7.64201 8.0163V7.98657H8.3258C8.97985 7.9717 9.63391 7.95684 10.2731 8.04603C10.3326 8.04603 10.392 8.04603 10.4515 8.06089C11.0015 8.15008 11.5812 8.43251 11.8042 8.98251C11.8636 9.14603 11.9082 9.30954 11.9231 9.47305C11.9826 9.90413 11.938 10.3501 11.7744 10.7514C11.5663 11.3163 11.1501 11.792 10.5704 12.0447C10.6596 12.3122 10.7488 12.5798 10.8231 12.8474C10.9569 13.2636 11.0907 13.6649 11.2393 14.0812C11.3285 14.3487 11.4177 14.6014 11.5069 14.8541H9.47039C9.4258 14.6014 9.36634 14.3636 9.32174 14.1109C9.20282 13.546 9.09877 12.9812 8.97985 12.4163C8.96499 12.2825 8.93526 12.1636 8.90553 12.0298C8.80147 12.6244 8.71228 13.219 8.62309 13.8136C8.56363 14.1703 8.51904 14.5122 8.45958 14.8541C8.04337 14.8541 7.62715 14.8541 7.21093 14.8541C7.00282 14.8541 6.80958 14.8541 6.60147 14.8541C6.6312 14.5717 6.6758 14.2893 6.72039 14.0068V14.0217ZM10.8231 15.5974L10.7934 15.642L10.6744 15.8203C10.2285 16.4893 9.78255 17.1582 9.30688 17.8122C9.30688 17.8271 9.29201 17.8271 9.29201 17.842C9.06904 17.6636 8.86093 17.5001 8.63796 17.3366C8.62309 17.3217 8.59336 17.3068 8.5785 17.292C8.68255 17.1285 8.77174 16.9798 8.8758 16.8312C9.1285 16.4001 9.39607 15.9839 9.73796 15.642H9.79742C9.9758 15.6122 10.1542 15.6122 10.3326 15.6122C10.4069 15.6122 10.4961 15.6122 10.5704 15.6122H10.8231V15.5974ZM4.86228 15.9393C4.96634 15.9244 5.07039 15.9244 5.17445 15.9541C5.24877 15.969 5.30823 15.9987 5.36769 16.0433C5.41228 16.0731 5.42715 16.1028 5.45688 16.1325C5.48661 16.1771 5.51634 16.2366 5.50147 16.3109C5.47174 16.3258 5.42715 16.3406 5.38255 16.3406C5.29336 16.3406 5.20418 16.3406 5.10012 16.3406C5.05553 16.3406 5.01093 16.3258 4.96634 16.3258C4.92174 16.3109 4.89201 16.296 4.86228 16.2812C4.83255 16.2663 4.80282 16.2514 4.78796 16.2217C4.71363 16.192 4.65418 16.1028 4.66904 16.0136C4.71364 15.969 4.78796 15.9541 4.86228 15.9393ZM13.6771 20.5771C13.6771 20.5771 13.7663 20.592 13.7961 20.592C13.8704 20.6068 13.9299 20.6366 13.9893 20.6514C14.0785 20.6663 14.1528 20.7109 14.2271 20.7555C14.2717 20.7852 14.3163 20.8298 14.3461 20.8595C14.3609 20.8744 14.3758 20.8744 14.3907 20.8893H14.4055C14.1974 21.3352 13.9596 21.8703 13.4542 22.019C13.4542 22.0041 13.4393 21.9744 13.4393 21.9595C13.4244 21.9595 13.4096 21.9744 13.3947 21.9744C13.3055 21.5433 13.1717 21.1271 13.0082 20.7109C13.2163 20.6068 13.4542 20.5622 13.6771 20.5622V20.5771ZM12.5326 20.3987C12.8001 20.5622 12.9636 20.8149 13.0826 21.0974C13.2015 21.3947 13.2609 21.7068 13.365 21.9893C13.365 21.9893 13.365 22.0339 13.3799 22.0487C12.4731 21.6028 11.5663 21.142 10.6596 20.6663C10.6447 20.6514 10.6299 20.6366 10.6001 20.6366C9.75282 20.2055 8.93526 19.7447 8.08796 19.3136C8.07309 19.2987 8.04337 19.2987 8.0285 19.2839C7.99877 19.269 7.96904 19.2541 7.92445 19.2393C7.89472 19.2095 7.86499 19.2095 7.83526 19.1947C7.83526 19.1798 7.79066 19.1649 7.7758 19.1501C6.86904 18.6744 5.94742 18.1987 5.0258 17.7231C4.95147 17.6933 4.89201 17.6487 4.83255 17.5893C4.75823 17.5149 4.69877 17.4258 4.65418 17.3366C4.62445 17.292 4.59472 17.2474 4.57985 17.1879C4.4758 17.0244 4.41634 16.846 4.35688 16.6528C4.31228 16.4893 4.26769 16.3109 4.19336 16.1622C4.19336 16.1622 4.23796 16.1622 4.25282 16.1622C4.9812 16.3406 5.67985 16.5636 6.39336 16.8014C7.13661 17.0393 7.89472 17.2771 8.65282 17.4555C8.65282 17.4703 8.69742 17.4852 8.71228 17.5001C9.35147 17.9758 9.9758 18.4514 10.615 18.9271C10.7042 19.0014 10.7934 19.0609 10.8826 19.1352C10.9569 19.1947 11.0312 19.2541 11.1055 19.2987C11.5515 19.6555 12.0123 19.9974 12.4731 20.3393C12.4731 20.3541 12.5177 20.369 12.5326 20.3839V20.3987ZM17.1853 10.5582C17.1853 10.5582 17.1853 10.5879 17.1704 10.6028C17.1555 10.692 17.1109 10.7812 17.0812 10.8703C16.9474 11.3163 16.5907 11.5839 16.2339 11.8514C16.1447 11.9258 16.0555 11.9852 15.9812 12.0595C16.1001 12.6244 16.2934 13.1744 16.4866 13.7393C16.6055 14.1109 16.7393 14.4825 16.8434 14.8541H16.6353C16.4569 14.8541 16.2636 14.8541 16.0853 14.8541C15.788 14.869 15.5055 14.869 15.238 14.8541C15.0893 14.8393 14.9555 14.8095 14.8217 14.7649C14.7474 14.4974 14.688 14.2149 14.6285 13.9325C14.5244 13.4122 14.4353 12.9068 14.3461 12.3866C14.3461 12.2676 14.3015 12.1487 14.2866 12.0298C14.1528 12.6393 14.0488 13.2636 13.9447 13.8879C13.9299 14.0366 13.915 14.1704 13.8853 14.319C13.8704 14.4974 13.8407 14.6758 13.8109 14.8541C13.6326 14.8541 13.4542 14.8541 13.2609 14.8541C12.919 14.8541 12.5623 14.869 12.2204 14.8244C12.1312 14.8393 12.0569 14.8244 11.9677 14.8095C11.9974 14.5568 12.0271 14.319 12.0717 14.0663C12.1758 13.2933 12.3096 12.5203 12.4285 11.7622C12.592 10.692 12.7704 9.6217 12.9042 8.53657C12.9339 8.35819 12.9636 8.16494 12.9785 7.98657C13.2758 7.98657 13.5731 7.98657 13.8853 7.98657C14.4353 7.9717 15.0001 7.95684 15.5353 8.03116H15.5947C15.9217 8.09062 16.2488 8.17981 16.5461 8.31359C17.0663 8.58116 17.2744 9.08657 17.2893 9.6217C17.3042 9.63657 17.3042 9.65143 17.3042 9.6663C17.3042 9.96359 17.2744 10.2758 17.1853 10.5582ZM16.8434 7.28792C16.3677 7.33251 15.8623 7.30278 15.3717 7.28792C15.0893 7.27305 14.792 7.25819 14.5096 7.27305H14.4204C14.5393 7.1244 14.6434 6.94603 14.7623 6.75278C14.7771 6.72305 14.8069 6.69332 14.8217 6.64873C15.0596 6.24738 15.3271 5.84603 15.8177 5.87576C15.8474 5.87576 15.8771 5.89062 15.9217 5.89062C16.1744 5.92035 16.4569 6.00954 16.6947 6.15819C16.7839 6.20278 16.8582 6.26224 16.9177 6.3217C16.9771 6.35143 17.0366 6.39603 17.0663 6.45549C17.1407 6.50008 17.1853 6.55954 17.215 6.619H17.1853C17.3042 6.79738 17.3636 6.99062 17.3488 7.19873C17.1853 7.24332 17.0069 7.27305 16.8434 7.28792ZM19.5785 3.89873C19.5785 3.89873 19.5488 4.01765 19.5042 4.07711C18.9839 4.93927 18.3596 5.7717 17.8244 6.619H17.7353C17.7353 6.619 17.6163 6.78251 17.5717 6.85684C17.5717 6.8717 17.5569 6.8717 17.5569 6.88657C17.542 6.88657 17.542 6.90143 17.542 6.90143C17.4826 6.79738 17.4231 6.70819 17.3339 6.619C17.2893 6.54467 17.2299 6.47035 17.1555 6.41089C17.1109 6.35143 17.0515 6.30684 16.992 6.26224C16.9474 6.21765 16.888 6.17305 16.8285 6.14332C16.8285 6.14332 16.8136 6.14332 16.7988 6.14332C16.4271 5.90549 15.9812 5.78657 15.5353 5.78657C15.5353 5.78657 15.5353 5.75684 15.565 5.74197H15.4758C15.9217 5.02846 16.3974 4.32981 16.8731 3.63116C17.0663 3.34873 17.2596 3.05143 17.4528 2.769H17.5123C17.6015 2.75413 17.6907 2.75413 17.7799 2.75413C18.0771 2.73927 18.3893 2.70954 18.6569 2.79873C18.7163 2.79873 18.7609 2.82846 18.8055 2.85819C18.8501 2.87305 18.8947 2.90278 18.9244 2.94738C18.9839 2.97711 19.0285 3.0217 19.0731 3.0663C19.1028 3.0663 19.1177 3.09603 19.1326 3.11089C19.1474 3.12576 19.1474 3.12576 19.1623 3.15548C19.2069 3.18521 19.2663 3.24467 19.2961 3.28927C19.3555 3.36359 19.415 3.43792 19.4596 3.51224C19.5042 3.55684 19.5488 3.6163 19.5785 3.66089C19.6231 3.73521 19.6231 3.8244 19.5785 3.91359V3.89873ZM19.7717 3.66089C19.7717 3.66089 19.742 3.6163 19.7271 3.60143V3.6163C19.6826 3.55684 19.6231 3.49738 19.5785 3.43792C19.4447 3.28927 19.3258 3.14062 19.192 3.00684C19.1326 2.93251 19.0582 2.88792 18.9988 2.84332C18.9244 2.769 18.8501 2.7244 18.7758 2.69467C18.4042 2.63521 18.0326 2.69467 17.6758 2.65008C17.6758 2.63521 17.6907 2.62035 17.6907 2.60548H17.6163C17.7055 2.23386 17.9285 1.99603 18.2109 1.90684C18.2407 1.87711 18.2853 1.87711 18.3299 1.86224C18.3893 1.83251 18.4636 1.81765 18.538 1.81765C18.642 1.80278 18.7461 1.80278 18.865 1.81765C19.0285 1.83251 19.2069 1.89197 19.3555 1.98116C19.4299 2.01089 19.4893 2.04062 19.5488 2.08521C19.6677 2.15954 19.7569 2.23386 19.8461 2.32305C19.8907 2.38251 19.9501 2.42711 19.9947 2.48657C20.0542 2.54603 20.1136 2.63521 20.1582 2.7244C20.188 2.769 20.188 2.82846 20.188 2.87305C20.188 3.18521 19.9501 3.42305 19.7866 3.66089H19.7717Z" fill="white"/>
</g>
<defs>
<clipPath id="clip0_4_4551">
<rect width="18.1351" height="22" fill="white" transform="translate(2.90002 1)"/>
</clipPath>
</defs>
</svg>
