<svg width="24" height="24" viewBox="0 0 24 24" fill="none" xmlns="http://www.w3.org/2000/svg">
<path fill-rule="evenodd" clip-rule="evenodd" d="M16.1698 9.08359C16.1698 9.36558 16.1698 9.69457 15.7474 9.83556C15.4658 9.92955 15.1373 9.55357 15.1373 9.31858C15.2781 9.13059 15.4658 8.9896 15.6535 8.9426C16.0759 8.75461 16.1698 8.70761 16.1698 9.08359ZM8.3319 9.83556C7.86256 9.69457 7.9095 9.36558 7.9095 9.08359C7.9095 8.70761 8.00336 8.75461 8.42577 8.9426C8.66043 9.0366 8.80123 9.17759 8.94203 9.31858C8.94203 9.55357 8.6135 9.92955 8.3319 9.83556ZM18.7042 18.3891C18.9858 18.2482 19.2205 18.0602 19.4552 17.8722C20.5346 16.7442 20.7224 15.4283 20.8632 13.8774C20.9101 13.5014 20.9101 13.0784 20.9101 12.6554C20.9101 12.6084 20.9101 12.3264 20.957 12.3264C21.0509 12.4204 21.0978 12.5144 21.1448 12.6554C21.2856 13.0314 21.3794 13.3604 21.3794 13.7364C21.5202 14.4883 21.5202 15.2403 21.4264 15.9923C21.3794 16.2742 21.2856 16.5092 21.1917 16.7442C20.5346 17.8722 19.7837 18.9061 19.0797 19.9871C19.0328 20.0811 18.9858 19.8931 18.9389 19.8931L18.892 19.8461C18.7512 19.7521 18.6573 19.7521 18.6104 19.7991C18.5634 19.8461 18.5634 19.8931 18.5634 19.9401C18.3757 20.3161 18.0941 20.88 17.9064 21.256C17.8594 21.303 17.8125 21.35 17.7186 21.303C17.6717 21.303 17.6717 21.256 17.6717 21.209C17.6717 20.786 17.6717 20.3631 17.6717 19.9401C17.6717 19.6581 17.6717 19.3761 17.2962 19.3761C16.9208 19.3761 16.9208 19.7051 16.9208 19.9401C16.9208 20.1751 16.9208 20.41 16.9208 20.692C16.9208 20.739 16.8738 20.833 16.7799 20.833C16.733 20.833 16.733 20.833 16.733 20.833C16.4514 20.598 16.1229 20.41 15.7474 20.3161C15.1842 20.0811 14.5271 20.1751 14.0578 20.504L14.1517 20.457C14.5741 20.0811 15.1842 19.8931 15.7474 20.0341C15.8882 20.0811 16.0759 20.0811 16.2167 20.0811C16.2637 20.0811 16.3575 20.0341 16.3106 19.9401V19.8931C16.0759 19.3291 15.4189 17.1672 16.8269 16.4622C16.8738 16.4622 16.8738 16.4152 16.8738 16.3682C16.9208 15.9923 17.6248 14.3003 15.7005 13.1724C15.4189 13.4544 15.0434 14.0654 14.5271 14.4883C15.3719 14.6763 15.8413 14.1593 16.2167 13.8304C16.029 14.8173 15.2781 14.8643 14.6679 15.2403C15.1842 15.0053 15.7005 15.3343 16.3575 15.0053C15.8882 15.8513 14.9965 15.4283 14.4802 15.8983C14.9965 16.2272 15.5127 16.0393 15.9821 15.9923C16.1229 15.9923 16.2637 15.9923 16.4045 15.9923C16.3106 16.1803 16.1698 16.3212 16.029 16.4622C15.8413 16.6032 15.6066 16.6972 15.4189 16.7912C15.1842 16.8852 14.9495 16.8852 14.7149 16.7912C14.0109 16.5562 13.3538 16.3212 12.6498 16.0393C12.509 15.9923 12.4151 15.8513 12.3682 15.7103C12.3213 15.4753 12.3682 15.2403 12.3682 15.0053C12.3213 14.7233 12.509 14.4413 12.7906 14.3943C13.4477 14.2063 13.9639 13.8304 14.3863 13.3134C14.5271 13.1254 14.621 12.8904 14.6679 12.7024C14.6679 12.5144 14.621 12.2794 14.5741 12.0914C14.5271 11.9505 14.5271 11.7625 14.5741 11.6215V11.5745L14.7149 10.9635C14.7618 10.7755 14.8557 10.6345 15.0434 10.4935L15.0903 10.4465L15.1373 10.3995C15.4189 10.2585 15.6535 10.1645 15.9351 10.0705C16.9208 9.69457 17.6717 8.84861 18.0002 7.86165C18.141 7.53267 18.141 7.15669 18.0941 6.8277C18.0002 7.0157 17.8594 7.39168 17.7656 7.57967C17.6717 7.90865 17.3432 8.09664 17.0146 8.04964C16.1229 8.04964 15.2311 8.19064 14.7618 9.13059C14.5741 9.64757 14.1517 10.0236 13.6823 10.3055C13.6823 10.0236 13.7293 9.74156 13.8231 9.50658C13.4007 9.31858 13.5885 9.08359 13.7762 8.84861C14.0578 8.51962 14.3863 8.19064 14.7149 7.86165C14.4333 7.81466 14.1986 7.67366 14.0109 7.43867H15.7474V7.39168C15.2311 7.29768 14.7149 7.10969 14.1986 6.8277C14.9965 6.31073 16.733 6.59272 17.0146 6.49872C17.0146 6.45172 16.7799 6.35773 16.5453 6.31073C15.9821 6.16974 15.7474 6.12274 15.2311 5.98175C14.6679 5.84075 14.1517 5.60577 13.6354 5.32378H15.9351C15.1373 4.8538 14.2925 4.57181 13.4007 4.47782C12.8845 4.43082 12.509 4.43082 12.2274 4.43082V4.28983V4.43082C11.8989 4.43082 11.5703 4.43082 11.054 4.47782C10.1623 4.57181 9.27057 4.8538 8.51963 5.32378H10.8194C10.3031 5.60577 9.78684 5.84075 9.22364 5.98175C8.66043 6.12274 8.4727 6.16974 7.9095 6.31073C7.67483 6.40473 7.44016 6.45172 7.44016 6.49872C7.72176 6.59272 9.41137 6.35773 10.2562 6.8277C9.78684 7.10969 9.27057 7.29768 8.70737 7.39168V7.43867H10.4439C10.2562 7.62667 9.97457 7.76766 9.7399 7.86165C10.0684 8.19064 10.35 8.51962 10.6786 8.84861C10.9132 9.08359 11.054 9.31858 10.6316 9.50658C10.7255 9.74156 10.7724 10.0236 10.7724 10.3055C10.3031 10.0705 9.92764 9.64757 9.69297 9.13059C9.22364 8.19064 8.3319 8.04964 7.44016 8.04964C7.11163 8.09664 6.83002 7.90865 6.68922 7.57967C6.59535 7.39168 6.45455 7.0157 6.36069 6.8277C6.31375 7.15669 6.31375 7.53267 6.45455 7.86165C6.78309 8.8956 7.53403 9.69457 8.51963 10.0705C8.80123 10.1645 9.08284 10.2585 9.31751 10.3995C9.31751 10.3995 9.36444 10.3995 9.36444 10.4465C9.36444 10.4465 9.41137 10.4465 9.41137 10.4935C9.55217 10.5875 9.69297 10.7755 9.7399 10.9635L9.88071 11.5745V11.6215C9.92764 11.7625 9.92764 11.9505 9.88071 12.0914C9.78684 12.2794 9.78684 12.5144 9.78684 12.7024C9.83378 12.9374 9.92764 13.1254 10.0684 13.3134C10.4439 13.8304 11.0071 14.2533 11.6642 14.3943C11.9458 14.4413 12.1335 14.7233 12.0866 15.0053C12.0866 15.2403 12.1335 15.4753 12.0866 15.7103C12.0397 15.8513 11.9458 15.9453 11.805 16.0393C11.1479 16.3212 10.4439 16.5562 9.7399 16.7912C9.50524 16.8382 9.27057 16.8382 9.0359 16.7912C8.80123 16.7442 8.6135 16.6032 8.42577 16.4622C8.28497 16.3212 8.14416 16.1803 8.0503 15.9923C8.1911 15.9453 8.3319 15.9453 8.4727 15.9923C8.94203 16.0393 9.4583 16.2272 9.97457 15.8983C9.41137 15.4283 8.51963 15.8513 8.09723 15.0053C8.70737 15.3343 9.27057 15.0053 9.78684 15.2403C9.1767 14.8643 8.42577 14.8173 8.23803 13.8304C8.66043 14.1593 9.08284 14.6763 9.92764 14.4883C9.4583 14.0654 9.08284 13.4544 8.7543 13.1724C6.83002 14.3003 7.53403 15.9923 7.58096 16.3682C7.58096 16.4152 7.62789 16.4622 7.62789 16.4622C9.0359 17.1672 8.3319 19.3291 8.14416 19.8931C8.14416 19.9401 8.14416 19.9871 8.14416 19.9871C8.14416 20.0341 8.1911 20.0341 8.23803 20.0341C8.37883 20.0341 8.56657 20.0341 8.70737 19.9871C9.27057 19.8461 9.88071 20.0341 10.3031 20.41L10.397 20.457C9.88071 20.1281 9.27057 20.0341 8.70737 20.2691C8.37883 20.41 8.0503 20.598 7.72176 20.786C7.67483 20.833 7.58096 20.786 7.53403 20.739V20.692C7.53403 20.41 7.53403 20.1751 7.53403 19.9401C7.53403 19.6581 7.53402 19.3761 7.15856 19.3761C6.78309 19.3761 6.78309 19.7051 6.78309 19.9401C6.78309 20.3631 6.78309 20.786 6.78309 21.209C6.78309 21.256 6.73615 21.35 6.64229 21.35C6.59535 21.35 6.54842 21.35 6.54842 21.303C6.36069 20.927 6.03215 20.363 5.89135 19.9871C5.89135 19.9401 5.84442 19.8931 5.84442 19.8461C5.75055 19.7991 5.70362 19.7991 5.56282 19.8931L5.51588 19.9401C5.46895 19.9871 5.42201 20.1281 5.37508 20.0341C4.67108 18.9531 3.92014 17.9192 3.26307 16.7912C3.12227 16.5562 3.0284 16.3212 3.0284 16.0393C2.93453 15.2873 2.98147 14.5353 3.07533 13.7834C3.12227 13.4074 3.1692 13.0314 3.31 12.7024C3.35693 12.6084 3.40387 12.4674 3.49774 12.3734C3.54467 12.3734 3.54467 12.6554 3.54467 12.7024C3.54467 13.1254 3.54467 13.5014 3.5916 13.9244C3.7324 15.4283 3.92014 16.7442 4.99961 17.9192C5.23428 18.1542 5.46895 18.3421 5.75055 18.4361C5.79748 18.4831 5.89135 18.4361 5.89135 18.3891C5.89135 18.3421 5.89135 18.3421 5.89135 18.2951C5.56281 17.6372 5.23428 16.9792 4.95268 16.2742C4.67108 15.5693 4.48334 14.8173 4.29561 14.1124C4.29561 14.0654 4.29561 13.9714 4.38948 13.9714C4.43641 13.9714 4.43641 13.9714 4.48334 13.9714C4.62414 14.0184 4.85881 14.1124 4.99961 14.1593C5.04654 14.2063 5.14041 14.1593 5.14041 14.0654C5.14041 14.0184 5.14041 14.0184 5.14041 13.9714C4.95268 13.2664 4.29561 11.2455 4.29561 11.2455C4.34254 11.2925 4.71801 11.8565 4.76494 11.9035C5.09348 12.4204 5.32815 12.9374 5.56282 13.4544C5.65668 13.7364 5.75055 13.9244 5.79748 14.0654C5.79748 14.1124 5.84442 14.1593 5.79748 14.2063C5.23428 14.6763 5.70361 15.5693 5.93828 15.8513C6.26682 16.2272 6.50149 16.6972 6.59535 17.1672C6.64229 17.2612 6.68922 17.4022 6.73616 17.5432C6.73616 17.5902 6.83002 17.6372 6.87696 17.6372C6.92389 17.6372 6.97082 17.5902 6.97082 17.5432C6.92389 16.9322 6.83002 16.0863 6.59535 15.8513C6.26682 15.5693 6.36068 14.5353 6.68922 14.3473C7.01776 14.1593 7.11162 13.9714 6.92389 13.6894C6.87695 13.6424 6.92389 13.5484 6.97082 13.5014L8.51963 12.6084C8.56657 12.5614 8.6135 12.5144 8.56656 12.4204C8.56656 12.3734 8.51963 12.3734 8.4727 12.3734C7.95643 12.3264 7.39323 12.4674 7.01776 12.7964C6.68922 12.9844 6.26682 12.8904 6.07908 12.5614C6.03215 12.5144 6.03215 12.4674 6.03215 12.4204C5.98522 12.3264 5.98522 12.2794 5.93828 12.1854C5.93828 12.1384 5.98522 12.0445 6.03215 12.0445C6.78309 11.8565 6.87695 11.8095 6.92389 11.5745C6.92389 11.5275 6.87696 11.4335 6.83002 11.4335C6.54842 11.4805 6.31375 11.4335 6.07908 11.3395C5.93828 11.1985 5.84442 11.0105 5.79748 10.7755C5.79748 10.7285 5.79748 10.6345 5.89135 10.6345C5.93828 10.6345 5.93828 10.6345 5.98522 10.6345C6.26682 10.7285 6.31375 10.7285 6.45455 10.6345C6.50149 10.5875 6.50149 10.4935 6.45455 10.4465C6.40762 10.3995 6.40762 10.3525 6.36069 10.3525C5.79748 9.92955 4.95268 7.53267 4.99961 6.8277C4.76494 7.0157 4.62414 7.25068 4.53027 7.53267C3.96707 7.29768 3.49773 7.20369 3.5916 6.40472L4.24867 6.73371C4.24867 6.73371 4.29561 6.49872 3.92014 6.21673C3.1692 5.60576 3.07533 4.7598 3.0284 3.86685C2.98147 3.44387 3.31 3.06789 3.7324 3.02089C3.92014 3.02089 4.06094 3.06789 4.20174 3.11488C5.65668 3.77285 7.62789 4.47782 9.27057 4.24283H9.31751C10.35 4.05484 11.3826 3.91385 12.4151 3.91385C13.4477 3.91385 14.4802 4.05484 15.5127 4.24283H15.5597C17.2024 4.43082 19.1736 3.77285 20.6285 3.11488C21.004 2.87989 21.4733 3.02089 21.708 3.39687C21.8018 3.53786 21.8488 3.72585 21.8018 3.86685C21.8018 4.7598 21.661 5.60576 20.9101 6.21673C20.5816 6.49872 20.5816 6.73371 20.5816 6.73371L21.2386 6.40472C21.3325 7.20369 20.8632 7.29768 20.3 7.53267C20.2061 7.25068 20.0653 7.0157 19.8306 6.8277C19.8776 7.53267 19.0328 9.88256 18.4696 10.3525C18.4226 10.3995 18.3757 10.4465 18.3757 10.4465C18.3757 10.4935 18.3288 10.4935 18.3288 10.5405C18.3288 10.5875 18.3288 10.5875 18.3757 10.6345C18.5165 10.7285 18.6104 10.7285 18.845 10.6345C18.892 10.5875 18.9858 10.6345 18.9858 10.6815C18.9858 10.7285 18.9858 10.7285 18.9858 10.7755C18.9389 10.9635 18.845 11.1515 18.7042 11.3395C18.4696 11.4335 18.188 11.4805 17.9533 11.4335C17.9064 11.4335 17.8125 11.4805 17.8125 11.5745C17.8594 11.8095 17.9533 11.8565 18.7042 12.0445C18.7512 12.0445 18.845 12.1384 18.7981 12.1854C18.7981 12.2794 18.7512 12.3264 18.7042 12.4204C18.6104 12.7964 18.2349 12.9844 17.8594 12.8434C17.8125 12.8434 17.7656 12.7964 17.7186 12.7964C17.2962 12.4674 16.7799 12.3264 16.2637 12.3734C16.2167 12.3734 16.1698 12.4674 16.1698 12.5144C16.1698 12.5614 16.2167 12.5614 16.2167 12.6084L17.7656 13.5014C17.8125 13.5484 17.8594 13.5954 17.8125 13.6894C17.6248 13.9714 17.7186 14.1593 18.0472 14.3473C18.4226 14.5353 18.4696 15.5693 18.141 15.8513C17.9533 16.0393 17.8125 16.8852 17.7656 17.5432C17.7656 17.5902 17.8125 17.6842 17.9064 17.6842C17.9533 17.6842 18.0002 17.6372 18.0002 17.5902C18.0472 17.4492 18.0941 17.3082 18.141 17.2142C18.2818 16.7442 18.5165 16.2742 18.7981 15.8983C19.0328 15.6163 19.4552 14.7233 18.9389 14.2533C18.892 14.2063 18.892 14.1593 18.9389 14.1124C18.9858 14.0184 19.0797 13.7834 19.1736 13.5014C19.4082 12.9374 19.6898 12.4204 19.9714 11.9505C20.0184 11.9035 20.3938 11.3395 20.4408 11.2925C20.4408 11.2925 19.7837 13.3604 19.596 14.0184C19.596 14.0654 19.596 14.1593 19.6898 14.1593C19.7368 14.1593 19.7368 14.1593 19.7837 14.1593C19.9245 14.1124 20.1592 14.0184 20.3 13.9714C20.3469 13.9714 20.4408 13.9714 20.4408 14.0654C20.4408 14.1124 20.4408 14.1124 20.4408 14.1593C20.253 14.8643 20.0653 15.6163 19.7837 16.3212C19.5021 17.0262 19.1736 17.6842 18.845 18.3421C18.7981 18.3891 18.845 18.4831 18.892 18.4831C18.6104 18.4361 18.6573 18.4361 18.7042 18.3891ZM8.66043 12.9844L8.6135 13.0314C8.6135 13.0314 8.66043 13.0314 8.66043 12.9844ZM5.89135 4.05484C6.03215 4.10184 6.12602 4.10184 6.26682 4.14884C6.17295 4.10184 6.03215 4.05484 5.89135 4.05484ZM5.75055 4.24283C4.06094 4.10184 4.38947 5.37077 4.71801 6.12274L4.99961 6.59272L5.04654 6.63971C5.46895 7.62666 5.79748 9.74156 7.86256 10.5875C7.76869 10.5405 7.72176 10.4935 7.62789 10.4465C7.06469 9.92955 6.54842 9.31858 6.21988 8.66062C5.32814 6.8277 5.56281 5.69976 5.42201 5.22978C5.60975 5.27678 6.21989 5.41777 6.36069 5.46477C6.36069 5.41777 5.28121 4.94779 4.95268 4.8068C5.09348 4.71281 5.23428 4.66581 5.42201 4.61881C6.12602 4.52482 6.40762 4.75981 6.87696 4.8538C7.20549 4.9008 7.48709 4.8538 7.81563 4.7598L5.75055 4.24283ZM15.4189 12.9844C15.4189 12.9844 15.4658 12.9844 15.4658 13.0314L15.4189 12.9844ZM17.8125 4.14884C17.9064 4.10184 18.0472 4.10184 18.188 4.05484C18.0472 4.05484 17.9533 4.10184 17.8125 4.14884ZM19.0797 6.59272C19.0797 6.54572 19.1266 6.54572 19.1266 6.49872L19.4082 6.02874C19.7368 5.27678 20.0653 4.05484 18.3757 4.14884L16.3575 4.61881C16.6391 4.71281 16.9677 4.71281 17.2962 4.71281C17.7656 4.66581 18.0472 4.43082 18.7512 4.47782C18.892 4.47782 19.0797 4.57181 19.2205 4.66581C18.892 4.8538 17.8125 5.32378 17.8125 5.32378C17.9533 5.27678 18.5634 5.13579 18.7512 5.08879C18.6573 5.55877 18.892 6.68671 17.9533 8.51962C17.6248 9.22459 17.1085 9.83556 16.5453 10.3055C16.4514 10.3525 16.4045 10.3995 16.3106 10.4465C18.2818 9.74156 18.6573 7.62667 19.0797 6.59272ZM12.0397 13.1254C11.805 13.1254 11.5234 13.1254 11.1948 13.1254C10.8663 13.1254 10.5847 13.0784 10.3031 12.9374C10.1623 12.8434 10.0684 12.6554 10.1154 12.4204C10.1154 12.1854 10.4439 11.9975 10.4439 11.9975C10.4439 12.6084 10.9602 12.7494 12.0397 12.7494C13.1191 12.7494 13.6354 12.5614 13.6354 11.9975C13.6354 11.9975 13.9639 12.1854 13.9639 12.4204C14.0109 12.6084 13.917 12.7964 13.7762 12.9374C13.4946 13.0784 13.1661 13.1254 12.8845 13.1254C12.5559 13.1254 12.2743 13.1254 12.0397 13.1254ZM12.0397 19.5171C12.0866 20.3161 10.7255 20.3631 9.55217 19.7051C9.50524 19.4701 9.5991 19.0471 9.4583 18.9531C9.27057 18.8121 8.94203 19.0001 8.7543 19.1411C8.56657 19.2821 8.42577 19.5171 8.23803 19.6581C8.3319 18.4361 9.55217 17.3082 11.4295 17.2142C11.6173 17.2142 11.8519 17.1672 12.0397 17.1672C12.2274 17.1672 12.4621 17.1672 12.6498 17.2142C14.5271 17.3082 15.7474 18.4361 15.8413 19.6581C15.6535 19.5171 15.5127 19.2821 15.325 19.1411C15.1373 19.0001 14.8087 18.8121 14.621 18.9531C14.4802 19.0471 14.621 19.4701 14.5271 19.7051C13.3538 20.41 11.9927 20.3161 12.0397 19.5171Z" fill="#D71920"/>
</svg>
