<svg width="24" height="24" viewBox="0 0 24 24" fill="none" xmlns="http://www.w3.org/2000/svg">
<path d="M4.94226 3.32057C6.35197 2.94608 7.9092 4.11368 7.96022 5.60033C8.03675 6.48621 7.62637 7.39471 6.89212 7.88234C6.26324 8.35187 5.41253 8.4322 4.68049 8.19461C3.75104 7.87669 3.06559 6.9546 3.00792 5.95785C2.90699 4.75065 3.78321 3.56835 4.94226 3.32057Z" fill="white"/>
<path d="M17.6862 3.41017C18.3239 3.20312 19.0493 3.23028 19.6482 3.55046C20.4091 3.93513 20.9337 4.7486 20.9914 5.61186C21.0624 6.45361 20.6931 7.31573 20.0309 7.82712C19.0859 8.58855 17.6085 8.50256 16.7645 7.62007C16.1944 7.05325 15.9293 6.19792 16.0569 5.40028C16.1877 4.49743 16.8421 3.70659 17.6862 3.41017Z" fill="white"/>
<path d="M11.3468 9.59209C12.5092 9.20968 13.8889 9.86137 14.3437 11.0176C14.6609 11.7915 14.5899 12.7294 14.1296 13.4286C13.666 14.1878 12.7631 14.6143 11.8958 14.551C11.0784 14.5103 10.2942 14.0249 9.89824 13.2917C9.53999 12.6401 9.45902 11.8187 9.7363 11.1217C9.98808 10.3829 10.6125 9.8048 11.3468 9.59209Z" fill="white"/>
<path d="M4.94419 15.758C5.49544 15.6472 6.09216 15.6958 6.59681 15.9639C7.43089 16.386 8.0154 17.3227 7.96327 18.281C7.97769 19.0402 7.58617 19.7665 7.01496 20.2361C6.23967 20.8629 5.08284 20.9489 4.23656 20.4182C3.35702 19.917 2.85347 18.8184 3.04091 17.8081C3.18843 16.8114 3.98368 15.9753 4.94419 15.758Z" fill="white"/>
<path d="M17.9244 15.7671C18.6077 15.6064 19.3696 15.7275 19.9409 16.1574C20.5808 16.5986 20.9823 17.3646 21.0001 18.1509C21.0234 18.9282 20.6873 19.7145 20.0884 20.201C19.3408 20.83 18.2172 20.9522 17.361 20.4827C16.3195 19.9657 15.7849 18.6272 16.1299 17.506C16.3561 16.645 17.0815 15.9752 17.9244 15.7671Z" fill="white"/>
</svg>
