<svg width="24" height="24" viewBox="0 0 24 24" fill="none" xmlns="http://www.w3.org/2000/svg">
<path d="M4.1582 13.7617H8.0644V7.46317H4.1582V13.7617ZM5.00604 9.51813C5.00604 9.45679 5.05424 9.40859 5.11558 9.40859H6.83974C6.90108 9.40859 6.94928 9.45679 6.94928 9.51813V10.0067C6.94928 10.0242 6.9449 10.0417 6.93614 10.0593L5.92837 11.9346C5.89989 11.9872 5.83416 12.0069 5.78158 11.9806L5.52526 11.847C5.47049 11.8185 5.45077 11.7506 5.48145 11.6958L6.27013 10.309C6.2789 10.2915 6.28547 10.274 6.28547 10.2542V10.0242L5.11558 10.0286C5.05424 10.0286 5.00604 9.98039 5.00604 9.91905V9.52252V9.51813Z" fill="#F15B24"/>
<path d="M9.47852 13.7441H13.3847V7.44553H9.47852V13.7441ZM10.3285 9.4983C10.3285 9.43696 10.3767 9.38876 10.4381 9.38876H12.1622C12.2236 9.38876 12.2718 9.43696 12.2718 9.4983V9.98685C12.2718 10.0044 12.2674 10.0219 12.2586 10.0394L11.2509 11.9148C11.2224 11.9673 11.1567 11.9871 11.1041 11.9608L10.8478 11.8271C10.793 11.7986 10.7733 11.7307 10.8039 11.676L11.5926 10.2892C11.6014 10.2717 11.608 10.2541 11.608 10.2344V10.0044L10.4381 10.0088C10.3767 10.0088 10.3285 9.96056 10.3285 9.89922V9.50269V9.4983Z" fill="#F15B24"/>
<path d="M21.2452 3.68399H1V20.3165H23V5.43663C23 4.4683 22.2157 3.68399 21.2474 3.68399H21.2452ZM19.7686 18.3448H3.36168C2.93448 18.3448 2.58833 17.9987 2.58833 17.5715C2.58833 17.1443 2.93448 16.7981 3.36168 16.7981H19.7686C20.1958 16.7981 20.5419 17.1443 20.5419 17.5715C20.5419 17.9987 20.1958 18.3448 19.7686 18.3448ZM20.5419 14.5219C20.5419 14.9491 20.1958 15.2952 19.7686 15.2952H3.36168C2.93448 15.2952 2.58833 14.9491 2.58833 14.5219V6.66567C2.58833 6.23846 2.93448 5.89232 3.36168 5.89232H19.7686C20.1958 5.89232 20.5419 6.23846 20.5419 6.66567V14.5219Z" fill="#F15B24"/>
<path d="M14.8945 13.7441H18.8007V7.44553H14.8945V13.7441ZM15.7424 9.4983C15.7424 9.43696 15.7906 9.38876 15.8519 9.38876H17.5761C17.6374 9.38876 17.6856 9.43696 17.6856 9.4983V9.98685C17.6856 10.0044 17.6812 10.0219 17.6725 10.0394L16.6647 11.9148C16.6362 11.9673 16.5705 11.9871 16.5179 11.9608L16.2616 11.8271C16.2068 11.7986 16.1871 11.7307 16.2178 11.676L17.0065 10.2892C17.0152 10.2717 17.0218 10.2541 17.0218 10.2344V10.0044L15.8519 10.0088C15.7906 10.0088 15.7424 9.96056 15.7424 9.89922V9.50269V9.4983Z" fill="#F15B24"/>
</svg>
