<svg width="24" height="24" viewBox="0 0 24 24" fill="none" xmlns="http://www.w3.org/2000/svg">
<path d="M22 11.2026C21.8467 10.0014 21.4769 8.83792 20.9085 7.76862C19.4668 7.45962 18.1101 6.83896 16.9336 5.95016C15.7571 5.06135 14.7893 3.92593 14.098 2.62352C13.4055 2.47514 12.6992 2.40021 11.9909 2.39999C11.2536 2.40052 10.5185 2.48117 9.79869 2.64052C9.11329 3.92535 8.15845 5.04697 6.99949 5.92866C5.84053 6.81035 4.50479 7.43129 3.08366 7.74901C2.53202 8.78057 2.16527 9.90076 2 11.0588C3.87623 12.947 4.92812 15.5015 4.92549 18.1634C4.92504 18.6445 4.89053 19.125 4.82222 19.6013C5.64898 20.4337 6.61467 21.1154 7.67582 21.6157C9.02604 20.977 10.5011 20.6457 11.9948 20.6457C13.4884 20.6457 14.9635 20.977 16.3137 21.6157C17.4323 21.0845 18.4438 20.3526 19.298 19.4562C19.2425 19.0275 19.2142 18.5957 19.2131 18.1634C19.2109 15.5708 20.2092 13.0774 22 11.2026ZM12 19.8719C10.5371 19.8721 9.10705 19.4386 7.8906 18.6261C6.67415 17.8135 5.72597 16.6585 5.16598 15.3071C4.60599 13.9556 4.45934 12.4685 4.74457 11.0337C5.0298 9.59892 5.73411 8.28095 6.76841 7.24646C7.80272 6.21197 9.12057 5.50743 10.5553 5.22194C11.99 4.93646 13.4772 5.08285 14.8287 5.6426C16.1803 6.20235 17.3355 7.15033 18.1482 8.36663C18.961 9.58294 19.3948 11.0129 19.3948 12.4758C19.3948 14.4369 18.6159 16.3177 17.2294 17.7047C15.843 19.0917 13.9624 19.8712 12.0013 19.8719H12Z" fill="url(#paint0_linear_4_4527)"/>
<path d="M10.569 16.1778L9.33761 12.702V12.0262H10.4317V9.65624H9.02388V16.1778H7.91016V8.70853H10.8722C11.3219 8.70853 11.5468 8.93641 11.5468 9.39219V12.1111C11.5468 12.5538 11.325 12.7817 10.8814 12.7948H10.4971L11.7285 16.1386V16.1778H10.569Z" fill="url(#paint1_linear_4_4527)"/>
<path d="M15.4272 16.1778H13.0742C12.6315 16.1778 12.4102 15.9499 12.4102 15.4942V9.39219C12.4102 8.93554 12.635 8.70766 13.0847 8.70853H15.4206C15.8764 8.70853 16.1047 8.93424 16.1056 9.38565V10.9765H14.9814V9.65624H13.5304V15.2301H14.9879V13.1281H14.1566V12.1791H16.1173V15.4942C16.1173 15.9508 15.8873 16.1787 15.4272 16.1778Z" fill="url(#paint2_linear_4_4527)"/>
<defs>
<linearGradient id="paint0_linear_4_4527" x1="12.0013" y1="21.6209" x2="12.0013" y2="2.39999" gradientUnits="userSpaceOnUse">
<stop stop-color="#D0D0D0"/>
<stop offset="1" stop-color="white"/>
</linearGradient>
<linearGradient id="paint1_linear_4_4527" x1="9.82127" y1="16.1778" x2="9.82127" y2="8.70853" gradientUnits="userSpaceOnUse">
<stop stop-color="#D0D0D0"/>
<stop offset="1" stop-color="white"/>
</linearGradient>
<linearGradient id="paint2_linear_4_4527" x1="14.2638" y1="16.1778" x2="14.2638" y2="8.70853" gradientUnits="userSpaceOnUse">
<stop stop-color="#D0D0D0"/>
<stop offset="1" stop-color="white"/>
</linearGradient>
</defs>
</svg>
