<svg width="24" height="24" viewBox="0 0 24 24" fill="none" xmlns="http://www.w3.org/2000/svg">
<path d="M11.8111 16.0447C11.7212 16.196 11.6388 16.3524 11.5393 16.4974C11.3334 16.7977 11.1275 17.0991 10.9034 17.3858C10.7408 17.5939 10.5588 17.7913 10.3671 17.9727C9.96278 18.3554 9.51122 18.6733 8.99141 18.8809C8.65018 19.0174 8.29872 19.1095 7.92905 19.1471C7.221 19.2199 6.55162 19.0953 5.90443 18.8161C5.42272 18.6079 4.99164 18.3236 4.59411 17.9818C4.05383 17.5171 3.62047 16.9717 3.32189 16.3245C3.17118 15.9981 3.07279 15.6535 3.04777 15.2912C3.03355 15.0847 2.99488 14.8777 3.00057 14.6724C3.02047 13.9689 3.16777 13.2944 3.46521 12.6512C3.71999 12.1013 4.04359 11.5962 4.43373 11.1396C4.7778 10.7375 5.14917 10.3564 5.53192 9.9902C5.90556 9.63247 6.30992 9.30774 6.69778 8.9648C6.97304 8.72082 7.25569 8.4831 7.51161 8.22036C7.88412 7.83818 8.22137 7.42529 8.53189 6.98909C8.94478 6.409 9.30819 5.80047 9.61359 5.15839C9.94003 4.47252 10.2119 3.76504 10.403 3.02856C10.4177 2.97112 10.4377 2.91424 10.4513 2.85623C10.465 2.79766 10.4746 2.73851 10.4911 2.65036C10.5264 2.70098 10.5577 2.73339 10.5741 2.77207C10.7658 3.23386 10.9558 3.69623 11.1451 4.15859C11.3271 4.60276 11.5074 5.04749 11.6911 5.49109C11.8447 5.86133 12.0039 6.22928 12.158 6.59952C12.3258 7.00217 12.4896 7.40709 12.6568 7.81031C12.8285 8.22434 13.0026 8.63779 13.1743 9.05182C13.3415 9.45504 13.5053 9.85939 13.6725 10.2626C13.8443 10.6766 14.0189 11.0901 14.19 11.5041C14.3572 11.9073 14.521 12.3117 14.6877 12.7149C14.8406 13.0851 14.997 13.4542 15.1506 13.8245C15.2945 14.1725 15.4355 14.5223 15.5794 14.8703C15.733 15.2406 15.8894 15.6097 16.0429 15.9799C16.2277 16.4269 16.4097 16.8756 16.5951 17.3226C16.7487 17.6929 16.9051 18.062 17.0592 18.4322C17.1127 18.5602 17.1593 18.6915 17.2162 18.8178C17.2469 18.8855 17.2321 18.9008 17.1616 18.9224C16.8516 19.0185 16.5428 19.0953 16.2147 19.1243C15.6073 19.1778 15.0528 19.0259 14.5244 18.7598C14.1883 18.5903 13.8841 18.3668 13.598 18.1177C13.089 17.6747 12.6647 17.1611 12.2894 16.6049C12.1665 16.4224 12.0568 16.2313 11.9408 16.0436C11.9311 16.0464 11.9214 16.0499 11.9112 16.0527C11.9703 16.3501 12.0119 16.6527 12.0932 16.9439C12.2268 17.4222 12.3889 17.8919 12.6255 18.3315C12.853 18.7535 13.1169 19.1471 13.445 19.5008C13.8443 19.9313 14.3038 20.2726 14.8361 20.5154C15.1927 20.6781 15.5629 20.7986 15.9525 20.8504C16.209 20.8845 16.4666 20.9146 16.739 20.9482C16.8061 21.0642 16.8857 21.2007 16.9722 21.3497H6.81153C6.89285 21.2036 6.96906 21.0676 7.04584 20.93C7.56109 20.9203 8.06952 20.8384 8.55748 20.6684C9.10459 20.4779 9.5988 20.1935 10.0339 19.8005C10.5628 19.3228 10.9495 18.7495 11.2481 18.1103C11.5 17.5712 11.6638 17.0025 11.7861 16.4218C11.8117 16.3001 11.8196 16.1744 11.8361 16.0504C11.8276 16.0482 11.8191 16.0453 11.8105 16.043L11.8111 16.0447Z" fill="white"/>
<path d="M17.5325 18.7996C17.4506 18.6062 17.3682 18.414 17.288 18.22C17.1361 17.8538 16.986 17.4864 16.8342 17.1196C16.6886 16.7675 16.5418 16.4161 16.3962 16.064C16.2444 15.6972 16.0931 15.331 15.9424 14.9636C15.7718 14.549 15.6023 14.1333 15.4306 13.7192C15.3026 13.411 15.1701 13.105 15.0427 12.7968C14.8311 12.2832 14.6236 11.7674 14.4109 11.2539C14.2437 10.8506 14.0691 10.4503 13.9024 10.0465C13.6738 9.49255 13.4509 8.93634 13.2217 8.38298C12.9942 7.83303 12.7627 7.28479 12.5324 6.73541C12.4033 6.42774 12.2759 6.12006 12.144 5.8141C12.0911 5.69125 12.1781 5.60253 12.2185 5.50926C12.3788 5.13732 12.5551 4.77164 12.7212 4.40198C12.9572 3.87648 13.1898 3.34985 13.4241 2.82379C13.4361 2.79649 13.452 2.7709 13.4702 2.73792C13.5811 3.09222 13.6766 3.43857 13.7984 3.77582C14.0526 4.47989 14.3574 5.16064 14.7316 5.81125C15.0239 6.31911 15.343 6.80821 15.7212 7.25238C16.0533 7.64252 16.4213 8.00137 16.7813 8.36706C16.9678 8.55644 17.1748 8.72535 17.3653 8.91018C17.8385 9.3697 18.3174 9.82297 18.7752 10.2973C19.3547 10.8984 19.8927 11.5348 20.3192 12.2582C20.582 12.7029 20.7947 13.1727 20.8948 13.6783C20.9585 13.9985 20.9767 14.3334 20.971 14.6605C20.9659 14.971 20.8754 15.2735 20.7827 15.5732C20.6047 16.1505 20.317 16.6618 19.9365 17.127C19.3638 17.8265 18.6484 18.3292 17.8192 18.6773C17.7748 18.6961 17.7356 18.7251 17.6918 18.7444C17.6486 18.7632 17.6025 18.7751 17.5331 18.7984L17.5325 18.7996Z" fill="white"/>
</svg>
