<svg width="24" height="24" viewBox="0 0 24 24" fill="none" xmlns="http://www.w3.org/2000/svg">
<path d="M22.9071 21.4903C22.9185 20.978 22.3417 21.0653 22.2431 21.0653C22.0518 21.0577 21.8612 21.0375 21.6726 21.0046L21.6423 20.9982C21.2628 20.9236 20.2598 20.7238 18.8975 19.3122C17.5858 17.9347 16.0946 16.0539 14.2074 13.6721L13.575 12.8803C13.5382 12.8342 13.5208 12.7755 13.5265 12.7167C13.5322 12.658 13.5604 12.6037 13.6053 12.5654C15.8163 10.6858 16.7586 8.98583 16.7586 6.88363C16.7586 4.93069 15.5456 3.59499 14.9018 3.15608C13.4219 2.14419 11.603 2.00506 10.0182 2.00506C9.62227 2.00506 8.96327 2.02277 8.2638 2.04301C7.56434 2.06324 6.81933 2.08222 6.3741 2.08222C6.17172 2.08222 5.8163 2.07083 5.35462 2.05692H5.33944C4.60329 2.03415 3.68121 2 2.83881 2C2.13808 2 2.04321 2.23273 2.04321 2.46041C2.04321 2.76524 2.26709 2.92082 2.7098 2.92082C3.03178 2.91476 3.35362 2.9389 3.67109 2.99292C4.36044 3.13838 4.55649 3.39894 4.60203 4.25778C4.65262 5.07867 4.65262 5.78826 4.65262 9.72325V14.2768C4.65262 16.6408 4.65262 18.6823 4.52614 19.7498C4.42115 20.5087 4.30352 20.9097 3.95189 20.9805C3.66129 21.0457 3.36432 21.0784 3.06649 21.0779C2.50868 21.0779 2.4252 21.3499 2.4252 21.513C2.4252 21.914 2.82996 21.9987 3.17021 21.9987C3.78746 21.9987 4.61468 21.9709 5.27999 21.9494H5.32427C5.75811 21.9342 6.13251 21.9228 6.32351 21.9228C6.44999 21.9228 6.76115 21.9317 7.15452 21.9431C7.93494 21.9658 9.11632 22 10.1219 22C10.4621 22 10.8669 21.9153 10.8669 21.5143C10.8669 21.3132 10.7252 21.0792 10.3281 21.0792C9.91466 21.0669 9.50218 21.0331 9.09229 20.978C8.5016 20.8996 8.35993 20.5201 8.28025 19.7561C8.15376 18.6835 8.15376 16.6294 8.15376 14.2515V14.1427C8.15383 14.1123 8.15989 14.0823 8.17162 14.0543C8.18334 14.0263 8.20048 14.0009 8.22206 13.9795C8.26472 13.938 8.32192 13.9148 8.38144 13.915L10.3812 13.9605C10.4431 13.957 10.5052 13.9643 10.5646 13.982C10.5924 13.992 10.6181 14.007 10.6405 14.0263C10.653 14.0374 10.6644 14.0497 10.6746 14.063C10.8606 14.2768 11.3387 14.9572 11.8952 15.7491L11.9091 15.768C12.3202 16.3524 12.7857 17.0152 13.2208 17.6135C14.7488 19.7081 15.7265 20.8831 16.8421 21.4789C17.5707 21.8722 18.2689 21.9975 19.7146 21.9975C19.7146 21.9975 21.942 21.9975 22.1697 21.9975C22.3974 21.9975 22.8957 22.0013 22.9071 21.4903ZM11.8282 11.8659C11.4108 12.1682 11.1211 12.2618 10.1269 12.2618C9.51777 12.2704 8.91023 12.1968 8.32072 12.043C8.27509 12.0291 8.23495 12.0012 8.20593 11.9633C8.1769 11.9255 8.16043 11.8795 8.15882 11.8318C8.15882 11.8141 8.15882 11.7926 8.15882 11.766V3.96433C8.1588 3.91151 8.17725 3.86034 8.21097 3.81969C8.2447 3.77904 8.29158 3.75145 8.34349 3.74172C8.73781 3.68758 9.13583 3.66517 9.53373 3.67468C10.9175 3.67468 13.26 4.62332 13.26 8.17632C13.2587 10.4746 12.362 11.4763 11.8282 11.8659Z" fill="url(#paint0_linear_85_969)"/>
<path d="M4.96025 9.67265C4.96025 5.74399 4.96025 5.02049 4.90966 4.19327C4.8578 3.30787 4.65668 2.90185 3.79784 2.72097C3.46384 2.66246 3.12498 2.6362 2.78595 2.64255C2.50136 2.64255 2.34705 2.59195 2.34705 2.40981C2.34705 2.22767 2.52792 2.17834 2.91497 2.17834C4.28481 2.17834 5.91269 2.2555 6.45658 2.2555C7.34199 2.2555 9.29999 2.17834 10.1007 2.17834C11.7285 2.17834 13.4601 2.33266 14.8565 3.28889C15.58 3.77966 16.6134 5.09765 16.6134 6.83051C16.6134 8.74298 15.8128 10.4986 13.1983 12.6198C15.5054 15.5125 17.2876 17.8108 18.813 19.4146C20.26 20.9147 21.32 21.0956 21.707 21.1728C21.9454 21.2201 22.1875 21.2459 22.4305 21.2499C22.638 21.2499 22.7404 21.3271 22.7404 21.4574C22.7404 21.6635 22.5595 21.7103 22.2497 21.7103H19.7946C18.3476 21.7103 17.7012 21.5839 17.0296 21.2196C15.9178 20.6251 14.9362 19.4096 13.488 17.425C12.4546 16.0046 11.2656 14.2464 10.9291 13.8593C10.872 13.7938 10.7998 13.7431 10.7187 13.7116C10.6376 13.6801 10.5501 13.6687 10.4637 13.6785L8.21601 13.6266C8.08952 13.6266 8.00857 13.6785 8.00857 13.8328V14.1945C8.00857 16.5978 8.00857 18.6405 8.13506 19.7258C8.21221 20.4746 8.36653 21.0438 9.14694 21.1462C9.56641 21.2033 9.98864 21.238 10.4118 21.2499C10.6192 21.2499 10.723 21.3271 10.723 21.4574C10.723 21.6382 10.5421 21.7103 10.2056 21.7103C8.70677 21.7103 6.79051 21.6332 6.41105 21.6332C5.91902 21.6332 4.29114 21.7103 3.25775 21.7103C2.92129 21.7103 2.74042 21.6332 2.74042 21.4574C2.74042 21.3309 2.84414 21.2499 3.15403 21.2499C3.46723 21.2501 3.77948 21.2153 4.08497 21.1462C4.60103 21.0438 4.73131 20.4746 4.83376 19.7258C4.96025 18.6405 4.96025 16.5978 4.96025 14.2211V9.67265ZM8.00983 11.7141C8.00983 11.9975 8.06169 12.1012 8.24257 12.1796C8.78519 12.3605 9.56055 12.4326 10.2069 12.4326C11.2403 12.4326 11.5767 12.3289 12.0422 11.9924C12.8176 11.4245 13.56 10.2355 13.56 8.11687C13.56 4.44877 11.1315 3.38755 9.60609 3.38755C8.95974 3.38755 8.49554 3.41285 8.23624 3.49127C8.05537 3.54187 8.00351 3.64558 8.00351 3.85302L8.00983 11.7141Z" fill="url(#paint1_linear_85_969)"/>
<path d="M19.7944 21.2601C18.3157 21.2601 17.7946 21.1197 17.2457 20.8237C16.2464 20.2887 15.3206 19.1693 13.8571 17.1556C13.4207 16.5561 12.9515 15.8907 12.5379 15.3C11.9484 14.4614 11.483 13.7999 11.273 13.5596C11.1728 13.4452 11.0478 13.3553 10.9074 13.2968C10.7671 13.2382 10.6152 13.2126 10.4635 13.2219L8.22594 13.17C8.13714 13.1646 8.04818 13.1779 7.96489 13.2092C7.8816 13.2405 7.80584 13.289 7.74257 13.3515C7.6793 13.4141 7.62994 13.4893 7.59772 13.5722C7.56549 13.6551 7.55113 13.7439 7.55557 13.8328V14.1946C7.55557 16.5978 7.55557 18.6671 7.68838 19.7789C7.72632 20.1508 7.79463 20.811 8.25124 21.231L7.25959 21.2032C6.84598 21.1905 6.54621 21.1829 6.4096 21.1829C6.2009 21.1829 5.80373 21.1956 5.34332 21.2107L4.80576 21.2285C5.13842 20.8389 5.2219 20.2343 5.28388 19.7878C5.41036 18.6671 5.41036 16.6066 5.41036 14.2224V9.66887C5.41036 5.71492 5.41036 5.0028 5.3585 4.16166C5.32056 3.52923 5.18901 3.00938 4.77161 2.66154L5.40404 2.68051C5.87077 2.69569 6.23885 2.70707 6.45514 2.70707C6.91175 2.70707 7.6517 2.68684 8.36761 2.6666C9.06455 2.65142 9.71848 2.63245 10.103 2.63245C11.5829 2.63245 13.2753 2.75893 14.6008 3.66331C15.2333 4.08957 16.1604 5.28233 16.1604 6.82546C16.1604 8.7898 15.1903 10.4151 12.9173 12.2644C12.8252 12.3397 12.7663 12.4481 12.7533 12.5664C12.7402 12.6846 12.7742 12.8033 12.8478 12.8968L13.7521 14.0352C15.6494 16.4308 17.1495 18.3218 18.4827 19.7271C19.272 20.5442 19.9639 20.9982 20.5065 21.2575L19.7944 21.2601ZM9.61223 2.93728C8.84699 2.93728 8.39797 2.97396 8.11211 3.06376C7.85913 3.1346 7.5543 3.33318 7.5543 3.86189V11.7142C7.5543 12.043 7.61502 12.406 8.06025 12.5996L8.09566 12.6122C8.78308 12.8108 9.49635 12.9055 10.2118 12.893C11.2907 12.893 11.7423 12.7792 12.314 12.3668C12.9553 11.8963 14.0266 10.7225 14.0266 8.12195C14.0266 4.02 11.1427 2.93601 9.61729 2.93601L9.61223 2.93728Z" fill="url(#paint2_linear_85_969)"/>
<defs>
<linearGradient id="paint0_linear_85_969" x1="12.4745" y1="24.068" x2="12.4745" y2="-10.9383" gradientUnits="userSpaceOnUse">
<stop stop-color="#424242"/>
<stop offset="0.35" stop-color="#737373"/>
<stop offset="0.56" stop-color="#BBBCBF"/>
<stop offset="0.79" stop-color="#737476"/>
<stop offset="1" stop-color="#989A9C"/>
</linearGradient>
<linearGradient id="paint1_linear_85_969" x1="12.5456" y1="2.13281" x2="12.5456" y2="21.5535" gradientUnits="userSpaceOnUse">
<stop stop-color="#808183"/>
<stop offset="0.27" stop-color="white"/>
<stop offset="0.49" stop-color="#E7E8E8"/>
<stop offset="0.55" stop-color="#9C9EA0"/>
<stop offset="0.76" stop-color="#BBBCBF"/>
<stop offset="0.99" stop-color="#A4A6A8"/>
</linearGradient>
<linearGradient id="paint2_linear_85_969" x1="12.6416" y1="21.6117" x2="12.6416" y2="1.7091" gradientUnits="userSpaceOnUse">
<stop stop-color="#808183"/>
<stop offset="0.27" stop-color="white"/>
<stop offset="0.49" stop-color="#E7E8E8"/>
<stop offset="0.55" stop-color="#9C9EA0"/>
<stop offset="0.74" stop-color="#BBBCBF"/>
<stop offset="0.99" stop-color="#E8E9EA"/>
</linearGradient>
</defs>
</svg>
