<svg width="24" height="24" viewBox="0 0 24 24" fill="none" xmlns="http://www.w3.org/2000/svg">
<path d="M5.88516 2.81773C5.89537 2.38058 6.25087 1.97625 6.69991 2.00908C9.87898 1.99699 13.0597 2.0039 16.2405 2.00563C16.6879 1.94515 17.0553 2.38231 16.977 2.82464C16.7117 6.32015 16.3358 9.80702 16.1095 13.306C15.4734 12.4213 14.4494 11.8027 13.3523 11.82C11.9456 11.744 10.5781 12.7064 10.1069 14.0473C9.68677 15.1375 9.90279 16.4352 10.624 17.3441C11.4455 18.4205 12.9288 18.9147 14.2147 18.519C14.7845 18.3739 15.2659 18.0162 15.7132 17.643C15.6214 18.2702 15.7744 19.3017 14.9546 19.4659C13.1346 19.5177 11.3112 19.4469 9.48946 19.5005C9.96062 19.1825 10.3978 18.8162 10.755 18.3687C9.3721 17.2248 8.88392 15.1445 9.66806 13.5064C8.62708 12.9466 7.31566 12.8516 6.27298 13.458C5.61641 13.7863 5.18267 14.4015 4.78125 14.9993C5.24221 10.9492 5.48884 6.8748 5.88516 2.81773ZM8.74955 6.391C9.99974 5.54606 11.2431 4.68558 12.4576 3.79226C10.9029 4.04107 9.58812 5.06571 8.74955 6.391ZM8.98428 7.30159C11.1734 7.20483 12.8811 5.51842 13.934 3.69895C12.1531 4.69767 10.4624 5.87954 8.98428 7.30159ZM6.02634 7.81477C6.02294 8.09987 6.02124 8.38325 6.01954 8.66835C8.17463 8.60096 10.3076 9.7621 11.3724 11.6783C11.6412 11.5608 11.9116 11.4468 12.1821 11.3362C10.954 9.13315 8.52673 7.71283 6.02634 7.81477ZM6.94995 9.30075C7.64054 10.1958 8.06747 11.2792 8.18144 12.4109C8.58116 12.4904 8.97748 12.582 9.36869 12.696C9.26324 11.7336 9.13737 10.7159 8.62538 9.88132C8.1202 9.55821 7.51467 9.4649 6.94995 9.30075Z" fill="#D83737"/>
<path d="M17.5177 3.65747C17.8137 3.93566 18.1522 4.26914 18.0807 4.72185C17.6708 9.79491 17.2064 14.8663 16.7812 19.9393C16.7761 20.3281 16.4869 20.7601 16.0702 20.7393C12.9507 20.7514 9.83285 20.748 6.71502 20.7411C6.29489 20.7739 6.06356 20.3765 5.92578 20.0378C9.07593 20.0205 12.2244 20.043 15.3728 20.0274C15.7981 20.0603 16.1689 19.6888 16.1621 19.2585C16.6213 14.0593 17.0465 8.85667 17.5177 3.65747Z" fill="#D83737"/>
<path d="M18.6156 4.91882C18.9183 5.17973 19.2653 5.50112 19.2075 5.94864C18.784 11.02 18.3383 16.0913 17.9046 21.1609C17.9148 21.6067 17.5729 22.0733 17.0966 21.9903C13.9754 21.9817 10.8542 22.0041 7.73462 21.9782C7.34511 21.9938 7.18692 21.5946 7.06445 21.2923C10.2316 21.2802 13.3988 21.3061 16.5659 21.2819C16.9656 21.2974 17.2803 20.9208 17.2871 20.5303C17.7192 15.3259 18.2022 10.1249 18.6156 4.91882Z" fill="#D83737"/>
</svg>
