<svg width="24" height="24" viewBox="0 0 24 24" fill="none" xmlns="http://www.w3.org/2000/svg">
<path d="M15.1729 12.0169C14.2539 13.1877 13.102 14.2012 11.7297 14.9943C10.3638 15.7811 8.90343 16.2784 7.43677 16.4861C5.75608 18.0032 4.50974 20.4203 4.05652 22.3339C7.45565 21.8429 10.817 20.7099 13.9706 18.8844C17.1243 17.059 19.7869 14.711 21.9082 12.0169C19.9443 12.6401 17.0739 12.6904 15.1729 12.0169Z" fill="#990E19"/>
<path d="M13.9706 5.1495C10.817 3.33034 7.44935 2.19729 4.05652 1.70001C5.78756 3.44993 6.93949 5.3887 7.43677 7.54777C8.90972 7.76179 10.3638 8.25278 11.7297 9.03962C13.0957 9.82645 14.2539 10.8462 15.1729 12.017C17.0802 12.6905 19.9443 12.6402 21.9082 12.017C19.7869 9.31658 17.1243 6.96866 13.9706 5.1495Z" fill="#BF1220"/>
<path d="M6.58072 12.017C6.58072 10.437 6.88286 8.92631 7.43679 7.54777C6.93951 5.39499 5.78759 3.45623 4.05655 1.70001C2.77873 4.89142 2.08002 8.37238 2.08002 12.017C2.08002 15.6616 2.78502 19.1426 4.05655 22.334C4.50977 20.4204 5.75611 18.0032 7.43679 16.4862C6.88286 15.1077 6.58072 13.597 6.58072 12.017Z" fill="#E61626"/>
</svg>
