<svg width="24" height="24" viewBox="0 0 24 24" fill="none" xmlns="http://www.w3.org/2000/svg">
<path d="M5.89113 4.09321C8.31892 2.20643 11.5999 1.55724 14.5727 2.29407C14.5425 3.06666 14.5816 3.84104 14.5442 4.61364C13.8229 4.2184 12.9643 4.2023 12.161 4.17011C9.71895 4.09857 7.30541 5.30039 5.81453 7.23187C4.47328 8.92729 3.9122 11.2111 4.2916 13.3393C4.58372 15.1778 5.59366 16.8714 7.00795 18.0625C8.44716 19.2697 10.3103 19.8938 12.1752 19.926C14.0972 19.8545 16.0244 19.157 17.4316 17.8157C18.1797 17.1146 18.8993 16.3045 19.2235 15.3137C16.6959 15.3101 14.1595 15.3817 11.6373 15.2797C12.1895 14.6878 12.649 14.0135 13.1264 13.359C16.0939 13.3679 19.0632 13.3876 22.0307 13.3518C21.6584 16.2133 19.9627 18.8852 17.5206 20.4107C15.9852 21.3979 14.1755 21.9702 12.3516 21.9952C9.3253 22.115 6.27052 20.7576 4.34682 18.4059C2.40352 16.1507 1.59129 12.9655 2.1969 10.0486C2.64932 7.69865 4.01195 5.55434 5.89113 4.09321Z" fill="white"/>
<path d="M9.49542 5.80644C11.1341 5.13937 13.0115 5.21806 14.636 5.88871C14.6342 6.41093 14.6324 6.93314 14.6324 7.45536C12.6286 7.46609 10.6247 7.45178 8.62085 7.46609C9.79466 8.8539 10.9792 10.2346 12.1245 11.6438C10.7815 13.1765 9.56133 14.8129 8.24323 16.367C10.4697 16.4225 12.6998 16.3849 14.9281 16.3849C14.9121 16.8714 14.9121 17.3578 14.9245 17.8442C13.7222 18.3647 12.3934 18.6329 11.0843 18.4487C8.9379 18.2091 6.97145 16.8105 6.00781 14.8737C6.82895 13.8775 7.62337 12.8599 8.45876 11.8763C8.62441 11.7225 8.56385 11.4525 8.42491 11.3058C7.6679 10.4116 6.79867 9.5943 6.15743 8.61425C6.98748 7.39455 8.10073 6.33581 9.49542 5.80644Z" fill="#3D6AF6"/>
</svg>
