<svg width="24" height="24" viewBox="0 0 24 24" fill="none" xmlns="http://www.w3.org/2000/svg">
<path d="M12.0078 7.47974C15.5002 5.19595 19.4475 7.10618 21.0092 11.3427C20.726 7.42031 17.963 4.89031 15.8092 3.92245C14.9854 4.09225 14.0072 4.34695 13.1748 4.51675C12.8916 5.1535 12.291 6.85148 12.0078 7.47974Z" fill="#A41E23"/>
<path d="M19.1149 6.52036C16.3004 3.59133 13.7776 6.04493 12.0872 7.68349C9.39278 10.0607 5.51421 6.47791 9.29839 3.89697C11.5637 2.36029 16.7037 3.17533 19.1149 6.52036Z" fill="#EC2027"/>
<path d="M19.1149 6.52036C16.3004 3.59133 13.7776 6.04493 12.0872 7.68349C9.39278 10.0607 5.51421 6.47791 9.29839 3.89697C11.5637 2.36029 16.7037 3.17533 19.1149 6.52036Z" fill="url(#paint0_linear_4_4498)"/>
<path d="M16.1109 14.3565C16.2739 18.4487 12.5327 20.7919 8.00195 19.9259C11.7346 21.6494 15.3129 20.6985 17.2178 19.3571C17.5182 18.5845 17.7928 17.6337 18.0845 16.8526C17.6812 16.2922 16.5142 14.9254 16.1109 14.3565Z" fill="#659A41"/>
<path d="M13.3984 20.7835C17.4486 19.9175 16.5648 16.2499 15.9041 14.3651C14.4367 10.2475 20.3146 9.48338 20.5721 13.9746C20.5549 16.4961 17.8433 20.2741 13.3984 20.7835Z" fill="#A7CF38"/>
<path d="M13.3984 20.7835C17.4486 19.9175 16.5648 16.2499 15.9041 14.3651C14.4367 10.2475 20.3146 9.48338 20.5721 13.9746C20.5549 16.4961 17.8433 20.2741 13.3984 20.7835Z" fill="url(#paint1_linear_4_4498)"/>
<path d="M8.1203 14.2122C4.31896 12.5057 4.11302 8.30321 7.00478 4.76291C3.47803 7.19952 2.74007 10.6549 3.07473 12.9132C3.64107 13.5245 4.37045 14.1867 4.93679 14.8065C5.63184 14.6961 7.41667 14.3056 8.1203 14.2122Z" fill="#126D9B"/>
<path d="M3.59912 8.90596C2.50076 12.8028 6.20771 13.7707 8.22423 14.0424C12.6348 14.6367 10.4381 20.1551 6.23346 18.3553C3.74499 17.2855 2.0374 12.4802 3.59912 8.90596Z" fill="#2BABE2"/>
<path d="M3.59912 8.90596C2.50076 12.8028 6.20771 13.7707 8.22423 14.0424C12.6348 14.6367 10.4381 20.1551 6.23346 18.3553C3.74499 17.2855 2.0374 12.4802 3.59912 8.90596Z" fill="url(#paint2_linear_4_4498)"/>
<defs>
<linearGradient id="paint0_linear_4_4498" x1="12.2725" y1="10.7933" x2="14.8318" y2="0.499989" gradientUnits="userSpaceOnUse">
<stop offset="0.16" stop-color="#9D0A19"/>
<stop offset="0.27" stop-color="#AF1524" stop-opacity="0.59"/>
<stop offset="0.37" stop-color="#BB1C2B" stop-opacity="0.22"/>
<stop offset="0.43" stop-color="#BE1E2D" stop-opacity="0"/>
</linearGradient>
<linearGradient id="paint1_linear_4_4498" x1="14.8984" y1="15.0256" x2="23.5476" y2="21.4658" gradientUnits="userSpaceOnUse">
<stop offset="0.02" stop-color="#4C7423"/>
<stop offset="0.07" stop-color="#527C27" stop-opacity="0.83"/>
<stop offset="0.15" stop-color="#609130" stop-opacity="0.53"/>
<stop offset="0.27" stop-color="#73B43E" stop-opacity="0.11"/>
<stop offset="0.3" stop-color="#79C143" stop-opacity="0"/>
</linearGradient>
<linearGradient id="paint2_linear_4_4498" x1="8.37096" y1="11.9004" x2="1.54783" y2="18.3913" gradientUnits="userSpaceOnUse">
<stop offset="0.09" stop-color="#0B5883"/>
<stop offset="0.13" stop-color="#005B86" stop-opacity="0.89"/>
<stop offset="0.19" stop-color="#00648F" stop-opacity="0.73"/>
<stop offset="0.26" stop-color="#00719E" stop-opacity="0.54"/>
<stop offset="0.34" stop-color="#0085B6" stop-opacity="0.32"/>
<stop offset="0.42" stop-color="#00A0DA" stop-opacity="0.1"/>
<stop offset="0.46" stop-color="#00AEEF" stop-opacity="0"/>
</linearGradient>
</defs>
</svg>
