<svg width="24" height="24" viewBox="0 0 24 24" fill="none" xmlns="http://www.w3.org/2000/svg">
<path d="M19.3181 13.3702C19.2697 15.392 15.0528 20.5907 13.211 21.7459C12.4839 22.131 11.563 22.1792 10.8359 21.7941C10.2059 21.409 9.72116 20.9276 9.23647 20.3981C8.84871 20.0131 8.89718 19.4354 9.28493 19.0503C9.96351 18.4246 10.5936 17.7988 11.1752 17.1248C12.2416 15.8733 13.211 14.5255 13.9865 13.0814C14.7135 11.9261 14.1804 10.2413 12.9686 9.66364C13.6956 9.95246 14.4711 10.1932 15.1982 10.4339C17.0401 10.9634 19.2697 10.9634 19.3181 13.3702Z" fill="url(#paint0_linear_4_4493)"/>
<path d="M14.3259 11.8787C14.3259 12.3119 14.2289 12.697 14.035 13.0339C14.035 13.0339 14.035 13.0821 13.9866 13.0821C13.6957 13.6597 13.3565 14.2374 12.9687 14.7669C12.581 14.6225 12.1447 14.5262 11.7569 14.3818C11.1753 14.1892 10.6421 13.9486 10.0605 13.7079C8.60644 13.0339 7.15235 12.2638 5.84368 11.301C5.7952 11.2529 5.74674 11.2529 5.74674 11.2048L5.69827 11.1566C5.11663 10.6753 4.77734 10.0014 4.77734 9.23117C4.82582 8.6054 5.11663 7.97962 5.94061 7.73894C6.71613 7.54639 7.54011 7.35384 8.36409 7.25757C8.70338 7.49826 9.04266 7.73894 9.43042 7.93148C10.3998 8.50912 11.4176 9.03862 12.484 9.51998C12.6294 9.56815 12.8233 9.6644 12.9687 9.71256C13.7927 10.0976 14.3259 10.916 14.3259 11.8787Z" fill="#981B1E"/>
<path d="M21.5 5.62107C21.5 5.66921 21.5 5.71734 21.5 5.81361C21.5 5.81361 21.5 5.81361 21.5 5.86175C21.4515 6.43939 21.4031 7.06517 21.3062 7.64281C21.2092 8.22044 20.5791 8.60554 20.0459 8.36486C18.8342 7.93162 17.5256 7.59467 16.2653 7.35399C13.7934 6.92075 11.273 6.82448 8.75256 7.20958C8.65562 7.20958 8.51022 7.25772 8.41327 7.25772C7.58929 7.40212 6.76532 7.54654 5.9898 7.73908C5.16582 7.97976 4.87501 8.60554 4.82653 9.23132C4.82653 10.0015 5.16582 10.7236 5.74746 11.1568L5.79592 11.2049C5.55357 11.0124 5.26276 10.8198 4.97194 10.5791C3.56633 9.37575 2.64541 7.69094 2.5 5.86175C2.5 5.86175 2.5 5.66921 2.5 5.62107C2.5 4.6102 3.1301 3.6956 4.00255 3.31051C4.05102 3.31051 4.09949 3.26237 4.14796 3.26237H4.19643C8.36481 1.81827 12.727 1.57759 16.847 2.44405C17.8163 2.6366 18.7373 2.92542 19.6582 3.21424C19.7552 3.26237 19.8521 3.26237 19.949 3.31051C20.87 3.6956 21.5 4.56206 21.5 5.62107Z" fill="url(#paint1_linear_4_4493)"/>
<defs>
<linearGradient id="paint0_linear_4_4493" x1="15.4529" y1="13.3262" x2="9.91964" y2="27.8904" gradientUnits="userSpaceOnUse">
<stop stop-color="#EA1D25"/>
<stop offset="1" stop-color="#981B1E"/>
</linearGradient>
<linearGradient id="paint1_linear_4_4493" x1="14.258" y1="10.969" x2="-1.91354" y2="-25.4853" gradientUnits="userSpaceOnUse">
<stop stop-color="#EA1D25"/>
<stop offset="1" stop-color="#981B1E"/>
</linearGradient>
</defs>
</svg>
