<svg width="24" height="24" viewBox="0 0 24 24" fill="none" xmlns="http://www.w3.org/2000/svg">
<path d="M12 1C5.92519 1 1 5.92519 1 12C1 18.0748 5.92519 23 12 23C18.0748 23 23 18.0748 23 12C23 5.92519 18.0748 1 12 1ZM8.58746 20.9186C6.89329 21.7536 4.24312 19.8295 2.65787 16.6106C1.08471 13.3916 1.16942 10.1122 2.85149 9.28933C4.54565 8.45435 7.19582 10.3784 8.78108 13.5974C10.3663 16.8042 10.2816 20.0836 8.58746 20.9186ZM5.42904 5.27173C5.42904 3.20242 8.36964 1.53245 12 1.53245C15.6304 1.53245 18.571 3.20242 18.571 5.27173C18.571 7.34103 15.6304 9.011 12 9.011C8.36964 9.011 5.42904 7.34103 5.42904 5.27173ZM13.6095 20.9791C11.8064 19.7085 12.0121 16.3201 14.0693 13.3916C16.1265 10.4631 19.2486 9.11991 21.0517 10.3905C22.8548 11.6612 22.6491 15.0495 20.5919 17.978C18.5347 20.8944 15.4125 22.2497 13.6095 20.9791Z" fill="#7B3A8E"/>
<path d="M12.5815 4.43695C12.3516 4.34014 12.1096 4.23122 11.916 4.08601C11.6739 3.90449 11.5166 3.69877 11.4319 3.45675C11.7344 3.21472 12.0612 3.009 12.2669 2.88799L11.8434 2.64597C11.6013 2.79118 11.202 3.0332 10.839 3.34784C10.2581 3.37204 9.19319 3.49305 8.50342 3.91659C7.52322 4.52165 7.69264 5.53816 7.69264 5.53816C7.69264 5.53816 9.18109 5.56236 10.1855 5.10251C10.2339 5.30823 10.3065 5.51395 10.4033 5.71967C10.3428 5.74388 10.2823 5.78018 10.2339 5.80438C9.37471 6.30053 9.3747 7.09921 10.2218 7.59536C11.081 8.09151 12.4605 8.09151 13.3197 7.59536C14.1789 7.09921 14.1789 6.30053 13.3318 5.80438C12.6783 5.42924 11.7223 5.34454 10.9237 5.53816C10.8026 5.27193 10.7421 4.9936 10.7179 4.75158C10.9479 4.53375 11.081 4.30383 11.1657 4.07391C11.2383 4.15862 11.3351 4.23122 11.4319 4.30383C11.6739 4.48535 11.9523 4.61846 12.2064 4.72737C12.0612 4.87259 11.9644 5.04201 11.9281 5.21142C12.5452 5.23563 13.1503 5.36874 13.6101 5.64707C14.0821 5.91329 14.3241 6.26423 14.3604 6.61516C14.8323 6.57886 15.2922 6.45785 15.6552 6.25213C16.5144 5.75598 16.5144 4.9573 15.6673 4.46115C14.8323 3.9529 13.4407 3.9529 12.5815 4.43695ZM13.0535 6.21582C13.2471 6.31263 13.3681 6.54256 13.356 6.73618C13.3439 6.9298 13.1866 7.15972 12.993 7.24443C12.8356 7.31703 12.7267 7.26863 12.763 7.18392C12.7872 7.11131 12.9083 6.90559 12.9204 6.72407C12.9325 6.54256 12.8478 6.33684 12.8235 6.26423C12.7872 6.19162 12.9083 6.14322 13.0535 6.21582ZM15.6915 5.39294C15.6794 5.58656 15.5221 5.81648 15.3285 5.90119C15.1712 5.9738 15.0623 5.92539 15.0986 5.84069C15.1228 5.76808 15.2438 5.56236 15.2559 5.38084C15.268 5.19932 15.1833 4.9936 15.1591 4.90889C15.1349 4.82418 15.2559 4.78788 15.4011 4.86049C15.5826 4.9694 15.7036 5.19932 15.6915 5.39294Z" fill="#7B3A8E"/>
</svg>
