<svg width="24" height="24" viewBox="0 0 24 24" fill="none" xmlns="http://www.w3.org/2000/svg">
<path d="M11.6465 1C12.5563 1.79115 13.4154 2.81139 13.8223 3.97266C13.8815 3.95007 13.9379 3.91917 14 3.89941C15.5596 3.35696 17.1955 3.56541 18.5234 4.32812C18.1448 5.27464 17.501 6.10864 16.6562 6.72461H16.6592C19.1427 7.88878 20.2871 10.1356 20.2871 12.1699C20.2869 14.6591 18.5091 16.9898 16.3193 19.5186C14.4206 21.7083 13.8983 23 11.6436 23C9.38874 23 8.86276 21.7084 6.9668 19.5186C4.77722 16.9899 3.00018 14.659 3 12.1699C3 10.1355 4.1443 7.88876 6.62793 6.72461C5.78312 6.11146 5.13936 5.27466 4.76074 4.32812C6.08868 3.56544 7.72465 3.35697 9.28418 3.89941C9.34622 3.92199 9.40268 3.95008 9.46191 3.97266C9.8688 2.81134 10.7366 1.78834 11.6465 1ZM7.83789 10.2734C6.39402 11.7173 6.68259 13.4863 7.74219 14.5459C8.60968 15.4132 10.2393 15.7433 11.6406 14.876V19.7842L15.4443 15.2324C16.891 13.7886 16.5996 12.0195 15.54 10.96C14.6725 10.0927 13.042 9.76252 11.6406 10.6299V5.72168L7.83789 10.2734Z" fill="white"/>
</svg>
