<svg width="24" height="24" viewBox="0 0 24 24" fill="none" xmlns="http://www.w3.org/2000/svg">
<path d="M16.656 6.72463C17.5009 6.10866 18.1451 5.27511 18.5238 4.32854C17.1957 3.56563 15.5597 3.35654 14 3.89905C13.9378 3.91883 13.8813 3.94991 13.822 3.97251C13.4151 2.8112 12.5561 1.79116 11.6463 1C10.7364 1.78834 9.86899 2.8112 9.46211 3.97251C9.40277 3.94991 9.34626 3.92165 9.2841 3.89905C7.72438 3.35654 6.08836 3.56563 4.76034 4.32854C5.13897 5.27511 5.7832 6.11148 6.62805 6.72463C4.14436 7.88877 3 10.1351 3 12.1695C3 14.6589 4.77729 16.99 6.96712 19.5189C8.86309 21.7087 9.38865 23 11.6435 23C13.8983 23 14.421 21.7087 16.3198 19.5189C18.5096 16.99 20.2869 14.6589 20.2869 12.1695C20.2869 10.1351 19.1426 7.88877 16.6589 6.72463H16.656Z" fill="#FF3F13"/>
<path d="M15.5404 10.9602C14.6729 10.0927 13.0425 9.76214 11.6411 10.6296V5.72156L7.83782 10.2736C6.39395 11.7174 6.68216 13.4863 7.74175 14.5459C8.60921 15.4133 10.2396 15.7439 11.6411 14.8765V19.7845L15.4443 15.2325C16.891 13.7886 16.6 12.0198 15.5404 10.9602Z" fill="white"/>
</svg>
