<svg width="24" height="24" viewBox="0 0 24 24" fill="none" xmlns="http://www.w3.org/2000/svg">
<path d="M21.5168 11.3328C21.5093 10.9756 21.4035 10.4629 21.3261 10.1588C21.2787 9.97039 21.381 10.0542 21.4891 10.3733C21.3844 9.88773 21.218 9.36808 21.1815 9.36808C21.1428 9.36808 21.1648 9.44322 21.1578 9.47443C21.1301 9.40681 21.0919 9.2438 21.0463 9.12646C20.9896 8.98542 20.9289 8.90276 20.9711 9.03108C21.0498 9.26345 21.3555 10.4947 21.3885 10.7126C21.3555 10.5952 21.3191 10.4617 21.2931 10.3704C20.9706 9.24033 20.5844 8.34669 20.081 7.41605C20.1197 7.449 20.1376 7.46345 20.1613 7.48542C20.1665 7.43224 20.1706 7.39004 20.1781 7.32241C20.2804 7.47097 20.3706 7.59698 20.4584 7.7253C20.2769 7.23975 19.955 6.83166 19.6891 6.41027C19.6781 6.42877 19.6688 6.44322 19.6544 6.46519C19.3486 6.04207 18.9382 5.68889 18.7717 5.18889C18.7642 5.21085 18.759 5.22357 18.7532 5.24033C18.7313 4.99293 18.4087 5.13802 18.4417 4.88311C18.6284 4.98022 18.9399 5.23455 19.0902 5.37212C19.2388 5.50738 19.3047 5.5097 19.3578 5.5149C19.4035 5.5201 19.3047 5.43455 19.3359 5.40681C19.3763 5.37212 19.7752 5.90103 19.9787 6.1305C19.4162 4.87386 17.9185 4.41605 16.8654 3.61201C14.1029 1.81837 10.3891 1.35709 7.43299 3.0727C7.3012 3.14958 7.12143 3.26345 7.04455 3.31432C6.96594 3.36403 7.13588 3.31085 7.1434 3.31779C7.06305 3.3727 6.99137 3.42241 6.90525 3.48253C6.81739 3.54322 7.00236 3.49929 6.96016 3.52819C6.91623 3.55941 6.75322 3.78484 6.97288 3.63975C7.19253 3.49524 7.44166 3.33051 7.57345 3.33051C7.70525 3.33051 7.04802 3.70045 6.80583 3.85767C6.42663 4.10507 6.08964 4.32472 5.87346 4.47675C5.69195 4.60507 5.50525 4.73513 5.46479 4.70565C5.39311 4.65247 5.64802 4.4438 5.67924 4.3964C5.72895 4.32126 5.40467 4.52993 5.47981 4.45131C5.55496 4.3727 5.96305 3.986 6.23068 3.78484C6.41392 3.64553 6.52721 3.56345 6.52374 3.50449C6.51796 3.44611 6.3353 3.54091 6.13704 3.649C4.70467 4.43629 4.20872 6.09929 3.56016 7.47675C3.61854 7.47328 3.66652 7.46923 3.73935 7.46403C3.58559 7.79178 3.38964 8.08311 3.36016 8.4386C3.43357 8.38542 3.47346 8.31201 3.5619 8.28484C3.59658 8.40045 3.53068 8.50623 3.50525 8.61605C3.5145 8.61779 3.52201 8.62126 3.52895 8.62357C3.57288 8.50623 3.61681 8.38889 3.65901 8.27386C3.69542 8.27733 3.7249 8.27906 3.76132 8.28311C3.64051 9.16056 3.54687 10.0305 3.30872 10.8895L3.3197 10.8785C3.1145 11.5103 3.38386 12.1351 3.30294 12.8068H3.27924C3.22259 12.4773 3.10525 12.1548 3.17692 11.8085C3.16594 11.823 3.15496 11.838 3.12721 11.871C3.11796 11.7773 3.10698 11.6895 3.09773 11.6056C3.09022 11.5415 3.0064 11.5415 3.01161 11.5981C3.04282 11.9496 2.96016 12.2958 3.06825 12.653C3.0827 12.6033 3.096 12.5525 3.10294 12.5288C3.2145 13.0582 3.49831 14.3311 3.42143 14.1698C3.34455 14.0085 3.29889 13.7814 3.23646 13.5872C3.31507 14.2773 3.56247 14.9293 3.81161 15.5727C3.79138 15.5744 3.73473 15.527 3.6908 15.4241C3.66536 15.3617 3.59947 15.3635 3.61045 15.4022C3.65438 15.5415 3.77519 15.7629 3.83762 15.8929C3.80294 15.7831 3.76421 15.6513 3.77519 15.6328C3.93068 15.8161 4.09773 16.1767 4.20178 16.3692C4.30583 16.5617 4.67635 17.2189 4.43068 16.8744C4.18502 16.5299 3.66305 15.834 3.41218 15.2426C3.33704 15.0687 3.29311 14.8085 3.25669 14.8068C3.22028 14.8051 3.22721 14.8854 3.22201 14.9149C3.19831 14.8819 3.19427 14.7207 3.16536 14.7317C3.11392 14.7502 3.31161 15.4588 3.25323 15.3617C3.19658 15.2646 3.08849 14.8213 3.06479 14.6895C3.08502 14.9733 3.1671 15.2317 3.16016 15.301C2.92201 14.9236 3.0301 14.5172 3.0301 14.3155C3.03588 14.4398 3.05958 14.5721 3.096 14.6525C3.06652 14.4328 3.11045 14.1999 3.1012 14.1322C3.09369 14.0646 2.99889 14.1195 3.00409 14.1999C2.98559 14.1577 2.98039 14.0843 2.95669 14.09C2.93473 14.0935 2.93473 14.1727 2.93126 14.2201C2.91854 14.2016 2.91681 14.1687 2.90178 14.1796C2.88502 14.1889 2.89658 14.3831 2.85033 14.3519C2.8249 14.3374 2.8486 14.1762 2.85033 14.0351C2.85207 13.9051 2.83357 13.7935 2.80814 13.8028C2.75323 13.8213 2.79889 13.8872 2.7827 14.0883C2.76825 14.2715 2.61045 14.0056 2.62317 14.127C2.62837 14.171 2.58097 14.3137 2.61739 14.4802C2.65207 14.6467 2.60987 14.8976 2.65207 14.8519C2.69427 14.808 2.6775 14.7785 2.70872 14.7548C2.71797 14.7675 2.71218 14.8062 2.73646 14.7935C2.76016 14.7791 2.75496 14.7276 2.76768 14.6819C3.47635 18.8172 7.31507 20.7126 10.9908 21.8392C10.9613 21.8519 10.9411 21.8611 10.9214 21.8704C15.3885 22.7311 19.9723 19.1542 21.1827 15.0426C21.2139 14.9346 21.2873 14.5155 21.3365 14.2132C21.1735 14.7554 21.0602 14.7403 21.0636 14.7022C21.1076 14.3398 21.1573 14.0924 21.2486 13.9236C21.5104 13.5132 21.3492 12.4675 21.2688 12.4143C21.2064 12.3739 21.1827 12.4658 21.1775 12.4658C21.185 12.3831 21.207 12.1103 21.1446 12.2421C21.0972 12.3392 21.2578 14.7496 20.4411 15.7802C20.4081 15.1282 20.7596 14.5039 20.9503 13.8698C20.9451 13.8681 20.9393 13.8663 20.9359 13.8646C20.8862 13.9432 20.8388 14.0241 20.7856 14.112C20.7798 14.0866 20.7746 14.0681 20.7711 14.0513C20.7052 14.09 20.7162 14.1999 20.6099 14.2051C20.6336 14.0715 20.6573 13.945 20.6792 13.8184C20.1498 14.7796 19.9665 15.9999 19.2526 16.886C19.1301 17.038 19.3498 16.5126 19.4781 16.1588C19.5937 15.8473 19.5717 15.7085 19.3573 16.0981C19.1064 16.5559 18.6411 17.1166 18.2584 17.4715C16.9029 18.7282 15.3318 19.8559 13.3977 19.9236V19.9363H13.5683C12.1948 20.0958 10.5995 19.971 9.3249 19.3814C9.32663 19.3756 9.33068 19.3721 9.33241 19.3687C9.51218 19.4328 9.89311 19.634 9.87808 19.5392C9.8723 19.4987 9.3908 19.3507 8.88559 19.1143C8.19542 18.79 7.41854 18.3542 7.3671 18.312C7.2775 18.2386 7.45843 18.4253 7.45149 18.4328C6.48097 17.7588 5.80525 16.6744 5.28675 15.5756C5.20814 15.4109 5.07635 15.29 4.99947 15.1051C4.94455 14.9733 4.91681 14.7276 4.93184 14.7056C4.99427 14.6033 4.84224 14.5004 4.85322 14.6652C4.85669 14.7328 4.95958 15.1525 5.02895 15.3484C5.05843 15.4311 4.96132 15.2623 4.92432 15.1635C4.67866 14.5062 4.65669 14.3889 4.60409 14.1525C4.60409 14.8207 5.10236 15.8796 5.17924 16.0646C5.07288 15.9912 4.91912 15.7808 4.84802 15.5663C4.9197 15.8189 4.99426 16.0299 4.98906 16.112C4.62663 15.4658 4.33877 14.0698 4.25091 14.0698C4.16479 14.075 4.25265 14.2912 4.26016 14.3958C4.04976 14.0791 3.91565 13.0756 3.99253 12.8189C4.04918 11.6727 4.22895 10.4987 4.63184 9.41779C4.63184 9.41605 4.63184 9.41201 4.63357 9.41027C4.63531 9.40276 4.63935 9.39582 4.64109 9.38831C4.98559 8.47097 5.4908 7.62068 6.21623 6.91779C6.21103 6.91432 6.20525 6.90854 6.19947 6.90507C6.07114 7.01837 5.94513 7.1305 5.81681 7.24207C5.96536 6.74785 6.50178 6.48946 6.69947 6.05189C6.69022 6.04611 6.6827 6.04091 6.67403 6.03513C6.78039 5.93802 6.88848 5.84091 7.01103 5.72761C6.79484 5.82646 6.68848 6.05363 6.44513 6.06808C7.06767 5.36287 7.98155 4.76056 8.67403 4.35189C8.60987 4.39062 8.61565 4.5149 8.74166 4.55883C8.85727 4.59929 8.94686 4.38657 9.09889 4.32646C10.044 3.949 11.0642 3.99524 11.9983 4.17444C10.9948 3.81548 9.70929 3.9253 9.43068 3.9912C9.73299 3.84091 10.1763 3.85941 10.3463 3.85016C13.2492 3.69987 16.007 5.60103 17.6902 7.90854C17.7839 8.03686 17.9775 8.34264 18.0526 8.56808C18.0839 8.66345 18.2578 8.96923 18.318 8.9253C18.3787 8.88137 18.2815 8.63802 18.1584 8.4912C17.9902 8.29178 17.8891 8.04785 17.6804 7.6727C17.8746 7.90334 18.0266 8.08311 18.1914 8.28079C17.8104 7.61779 16.8544 6.65825 16.7538 6.38542C17.3035 6.78657 17.7226 7.30681 18.0723 7.8727C18.3856 8.38195 18.7024 9.0542 18.8948 9.46056C18.9185 9.51201 18.9336 9.54091 18.9405 9.55016C18.9237 9.49178 18.655 8.86345 18.6509 8.86345C18.4879 8.34727 18.2024 7.85825 17.9625 7.35594C18.118 7.48946 18.0977 7.4912 18.144 7.44958C18.1896 7.40738 17.8856 7.03224 17.8289 6.78831C18.0266 7.09582 18.2243 7.40565 18.4336 7.7334C18.3862 7.61605 18.3474 7.51721 18.307 7.41837C18.3128 7.41663 18.318 7.41316 18.3237 7.41085C18.5711 7.71663 18.8162 8.02241 19.0619 8.32819C18.8347 7.85594 18.4573 7.46923 18.2324 7.01143C18.2469 7.00391 18.2602 6.99871 18.2729 6.9912C18.4833 7.33571 18.9469 7.77501 19.0492 7.90854C19.1515 8.04207 18.8313 7.48195 18.9648 7.63571C19.0983 7.78946 19.3035 8.08253 19.3474 8.14669C19.3914 8.21085 19.4261 8.21259 19.3694 8.12993C19.3128 8.04727 18.937 7.50912 18.7209 7.19756C18.7284 7.19235 18.7353 7.18657 18.7428 7.18079C19.296 7.90045 19.8214 8.65709 20.133 9.51432C19.807 8.21952 18.8619 7.19409 18.0966 6.12819C18.485 6.43571 18.7521 6.84785 19.0781 7.20681C19.0839 7.20103 19.0908 7.19756 19.0983 7.19235C19.0526 7.10796 19.007 7.02183 18.9607 6.93802C19.6879 7.56981 20.1804 9.33744 20.2284 9.45247C20.274 9.56576 20.1954 9.21259 20.1405 8.97097C20.0856 8.72935 20.1792 8.79524 20.1769 8.96345C20.1746 9.13166 20.4295 9.61721 20.2792 9.87559C20.2665 9.85536 20.2555 9.83513 20.2336 9.79698C20.3561 10.1687 20.3104 10.5536 20.455 10.8941C20.5243 11.4675 20.4862 12.0403 20.4532 12.6103C20.4584 12.6103 20.4659 12.6085 20.4717 12.6085C20.4937 12.4328 20.5174 12.2571 20.5393 12.0831H20.563V12.2866C20.596 11.9733 20.5411 11.6311 20.6544 11.3432C20.6746 11.5097 20.6948 11.6767 20.7168 11.8415C20.7295 11.8415 20.7422 11.8398 20.7555 11.838C20.8232 11.1386 20.748 10.4426 20.6769 9.74669C20.6879 9.74496 20.6971 9.74496 20.7064 9.74322C20.7208 9.8386 20.7359 9.93166 20.7521 10.0473C20.7706 10.0033 20.7798 9.97964 20.7925 9.95016C20.8769 10.1739 20.9058 10.4097 21.0544 10.6022C21.0104 10.3455 21.0711 10.1004 21.0729 9.8438C21.1885 10.1386 21.2434 10.7028 21.2671 10.7542C21.2908 10.8056 21.2925 10.7137 21.2856 10.6958C21.3659 10.934 21.4249 11.6426 21.4284 11.5328C21.4336 11.423 21.4359 11.2195 21.4047 10.8426C21.4284 10.9253 21.4763 11.064 21.5162 11.3317L21.5168 11.3328ZM19.0203 17.9461C18.8717 18.0559 18.8555 18.0577 19.0388 17.8288C19.222 17.5999 19.6232 16.9623 19.7752 16.6877C19.9272 16.4132 19.7474 17.0247 19.8867 16.7739C20.0243 16.523 20.1214 16.4056 20.2821 15.8033C20.2966 15.9941 20.0989 16.7646 19.8463 17.1987C19.5954 17.6346 19.1064 18.1455 18.9232 18.3582C18.7399 18.5727 19.2602 17.8785 19.4503 17.6421C19.6411 17.4056 19.7526 17.1987 19.7925 17.0999C19.5983 17.371 19.1659 17.8363 19.0197 17.9461H19.0203ZM5.39426 16.545C5.62663 17.1785 6.59369 18.1513 7.06074 18.3981C6.29311 18.0687 5.65322 17.6143 5.54629 17.4045C5.4775 17.2692 5.58906 17.2952 5.68848 17.4132C5.78791 17.5311 5.84398 17.5918 6.00814 17.6912C5.6197 17.1912 5.44744 16.8635 5.39426 16.545ZM8.42374 3.12068C8.19484 3.19235 7.98791 3.25594 8.25554 3.11143C8.49542 2.98311 9.02663 2.79467 9.12548 2.89525C9.22432 2.99409 8.65322 3.04727 8.42432 3.12068H8.42374ZM16.3336 5.58368C16.8024 5.66808 16.8775 6.20276 17.0347 6.35131C16.7417 6.08022 16.4469 5.77964 16.3336 5.58368ZM17.7659 6.28715C17.6688 6.20681 17.6307 6.06923 17.6307 6.06923C17.7041 6.12415 17.8723 6.33282 17.9018 6.3675C17.9313 6.40218 17.8613 6.3675 17.7665 6.28715H17.7659Z" fill="#BE1622"/>
<path d="M4.45129 10.286C4.51314 9.98774 4.57499 9.69005 4.63626 9.39178C4.64436 9.39352 4.65245 9.39525 4.66112 9.39699C4.60389 9.69872 4.54667 9.99988 4.48944 10.3016C4.47673 10.2964 4.46401 10.2912 4.45129 10.2866V10.286Z" fill="#BE1622"/>
<path d="M3.3106 10.8894C3.28921 10.6582 3.31349 10.4305 3.35858 10.2045C3.36667 10.205 3.37476 10.2062 3.38286 10.2068C3.35916 10.4345 3.33488 10.6617 3.31118 10.8894H3.3106Z" fill="#BE1622"/>
<path d="M19.6357 15.3675C19.5663 15.4964 19.4813 15.7398 19.6357 15.608C19.79 15.4762 19.7062 15.2363 19.6357 15.3675Z" fill="#BE1622"/>
<path d="M20.8317 13.6901C20.8872 13.5386 20.8416 13.227 20.9173 13.4149C20.993 13.6033 20.7433 13.9299 20.8317 13.6901Z" fill="#BE1622"/>
<path d="M2.6065 14.0484C2.65216 14.1403 2.61748 13.6328 2.54118 13.6363C2.46488 13.6397 2.4302 13.6935 2.4643 13.8421C2.49898 13.9906 2.5695 13.9739 2.6065 14.0478V14.0484Z" fill="#BE1622"/>
<path d="M2.739 13.5473C2.71357 13.4825 2.62166 13.2756 2.65288 13.2323C2.68409 13.1889 2.72455 13.2062 2.75288 13.301C2.7812 13.3958 2.76733 13.6213 2.73843 13.5473H2.739Z" fill="#BE1622"/>
<path d="M4.09864 13.6808C4.10847 13.6409 4.14778 13.5125 4.12119 13.4935C4.0946 13.4744 4.06859 13.4894 4.05992 13.5461C4.05124 13.6027 4.08766 13.7258 4.09864 13.6808Z" fill="#BE1622"/>
<path d="M2.80852 13.0276C2.88598 13.0224 2.83048 13.1189 2.78887 13.1565C2.7669 13.1767 2.71835 13.0334 2.80852 13.0276Z" fill="#BE1622"/>
<path d="M3.04601 13.9172C3.10728 13.9328 3.06567 13.9894 3.03387 14.0068C3.01711 14.016 2.97434 13.8987 3.04601 13.9172Z" fill="#BE1622"/>
<path d="M19.112 9.41547C19.0548 9.27559 19.2086 9.55651 19.3045 9.81952C19.3617 9.97501 19.4138 10.1051 19.3854 10.1843C19.3351 10.3265 19.2461 9.74264 19.112 9.41605V9.41547Z" fill="#BE1622"/>
<path d="M19.2462 8.63109C19.348 8.8178 19.4133 8.91722 19.4532 8.89988C19.4931 8.88254 19.5104 8.79699 19.4532 8.72242C19.3959 8.64786 19.189 8.52531 19.2462 8.63109Z" fill="#BE1622"/>
<path d="M19.6131 8.94613C19.6374 9.0207 19.7704 8.98659 19.7143 8.91087C19.6582 8.83515 19.5865 8.86463 19.6131 8.94613Z" fill="#BE1622"/>
<path d="M20.923 13.0438C20.9293 13.1114 20.8021 13.1085 20.8224 13.034C20.8426 12.9594 20.916 12.9704 20.923 13.0438Z" fill="#BE1622"/>
<path d="M21.2935 14.2022C21.323 14.101 21.2305 14.0843 21.2218 14.1779C21.2126 14.2802 21.264 14.3033 21.2935 14.2022Z" fill="#BE1622"/>
<path d="M20.6743 13.6553C20.7015 13.7906 20.5159 13.9027 20.5258 13.727C20.5356 13.5513 20.6443 13.5073 20.6743 13.6553Z" fill="#BE1622"/>
<path d="M6.52199 3.34208C6.60465 3.29295 6.77864 3.21145 6.75031 3.15769C6.72199 3.10393 6.58095 3.20914 6.52199 3.26809C6.46303 3.32705 6.43991 3.39179 6.52199 3.34266V3.34208Z" fill="#BE1622"/>
<path d="M4.83215 14.4831C4.78128 14.4565 4.82348 14.3947 4.85527 14.4143C4.88706 14.434 4.89805 14.5172 4.83215 14.4831Z" fill="#BE1622"/>
<path d="M18.5396 9.02585C18.4928 9.03567 18.5356 9.17093 18.5893 9.15186C18.6431 9.13278 18.5934 9.01429 18.5396 9.02585Z" fill="#BE1622"/>
<path d="M19.2462 8.33047C19.1993 8.3403 19.2161 8.41197 19.2693 8.3929C19.3225 8.37382 19.2993 8.31891 19.2462 8.33047Z" fill="#BE1622"/>
<path d="M19.091 9.17324C19.0737 9.10966 19.2581 9.27266 19.2124 9.3507C19.1667 9.42873 19.1193 9.2744 19.091 9.17324Z" fill="#BE1622"/>
<path d="M8.4556 4.6906C8.38335 4.72702 8.30416 4.78193 8.38682 4.80216C8.46948 4.8224 8.54404 4.77904 8.56138 4.71604C8.57872 4.65303 8.52901 4.65361 8.4556 4.69003V4.6906Z" fill="#BE1622"/>
</svg>
