<svg width="24" height="24" viewBox="0 0 24 24" fill="none" xmlns="http://www.w3.org/2000/svg">
<path d="M11.5146 10.9689C10.684 10.6203 10.0572 9.83479 10.0572 8.87496C10.0572 7.64286 11.0562 6.64386 12.2883 6.64386C12.5958 6.64386 12.8897 6.69871 13.1541 6.8182C14.9386 7.62719 20.202 10.2481 20.202 10.2481C21.1069 10.7711 21.6652 11.7368 21.6652 12.7828V16.4243C21.6652 17.2372 21.2323 17.9874 20.5271 18.3949L12.78 22.6769C12.0767 23.0823 11.209 23.0823 10.5058 22.6769L2.79582 18.1422C2.61169 18.0442 2.48828 17.8523 2.48828 17.629C2.48828 17.5036 2.52942 17.3861 2.59602 17.2901L2.58035 17.3136C3.16212 16.4321 4.2003 15.8934 5.32466 16.0071C5.76148 16.0501 6.17088 16.1814 6.51955 16.3969C7.25607 16.8533 9.37356 18.3694 11.591 18.3694C13.6516 18.3694 14.9778 17.2137 14.9778 17.2137C15.728 16.6319 16.2118 15.5134 16.2118 14.4909V14.4948C16.2118 13.5331 15.6222 12.7103 14.7838 12.3676L11.5146 10.967V10.9689Z" fill="white" fill-opacity="0.9"/>
<path d="M20.4867 5.50591C20.6571 5.61953 20.7687 5.81345 20.7687 6.03284C20.7687 6.11903 20.7511 6.2013 20.7198 6.27769C20.3496 7.23164 19.5406 7.65475 19.5171 7.6665C18.9353 7.96228 18.2419 7.99362 17.6327 7.78599C17.4348 7.71939 17.2252 7.61165 17.0568 7.48825C16.4495 7.04555 14.2792 5.5686 12.1225 5.5686C10.0951 5.5686 8.78856 6.6675 8.78856 6.6675C8.08339 7.19442 7.6211 8.18755 7.57997 9.12191L7.57605 9.31779C7.57605 10.2306 8.15782 11.0141 8.98249 11.3393L12.2381 12.6752C13.0549 13.0082 13.6739 13.7526 13.6739 14.6654C13.6739 15.8368 12.6905 16.7848 11.478 16.7848C11.1764 16.7848 10.8845 16.7319 10.6259 16.6203C8.86887 15.8524 3.68778 13.3608 3.68778 13.3608C2.79847 12.8672 2.25 11.9485 2.25 10.9554V7.55485C2.25 6.74193 2.6829 5.9917 3.38808 5.58427L11.1352 1.30423C11.8385 0.898753 12.7062 0.898753 13.4094 1.30423L20.4867 5.50787" fill="white" fill-opacity="0.9"/>
</svg>
