<svg width="24" height="24" viewBox="0 0 24 24" fill="none" xmlns="http://www.w3.org/2000/svg">
<path d="M13.6644 16.6434L13.6934 16.3838L13.9538 16.4559C13.9827 16.4559 16.6445 17.1626 17.9754 15.98C19.2629 14.8406 19.7259 12.1725 18.0767 9.48988C16.5143 6.92268 12.7386 4.26895 12.0008 3.76416C11.263 4.26895 7.48729 6.92268 5.92492 9.48988C4.27576 12.1725 4.75315 14.8406 6.02619 15.98C7.3571 17.1626 10.0189 16.4559 10.0478 16.4559L10.3082 16.3838L10.3372 16.6434C10.3372 16.7011 10.4674 18.2155 9.35346 19.4414C8.42761 20.451 6.95204 20.9557 4.98461 20.9557V21.8644C7.2269 21.8644 8.93393 21.2586 10.0334 20.0471C11.4077 18.5472 11.2775 16.7588 11.263 16.5569L11.1328 15.23L9.84531 15.5762C9.26666 15.7204 7.45836 16.0088 6.66271 15.3021C5.65006 14.4079 5.3318 12.2157 6.72057 9.9514C7.96468 7.91783 10.7712 5.76888 12.0297 4.86027C13.2883 5.75446 16.0803 7.90341 17.3389 9.9514C18.7277 12.2157 18.4094 14.4079 17.3968 15.3021C16.6011 16.0088 14.7928 15.7348 14.2142 15.5762L12.9122 15.23L12.7965 16.5713C12.782 16.7732 12.6518 18.5616 14.0261 20.0615C15.1255 21.2586 16.8326 21.8788 19.0749 21.8788V20.9702C17.093 20.9702 15.6319 20.451 14.706 19.4558C13.5342 18.2155 13.6644 16.7155 13.6644 16.6434Z" fill="#BA1218"/>
<path d="M18.8715 16.9896C20.6075 15.4464 21.2874 12.1292 19.2332 8.78317C17.3526 5.69677 12.8246 2.66805 12.6221 2.53825L12 2.12L11.3779 2.53825C11.1899 2.66805 6.64744 5.68234 4.76681 8.76875C2.71258 12.1148 3.3925 15.4319 5.12847 16.9751C6.15558 17.8982 7.58775 18.0568 8.70166 17.9991C8.61487 18.1866 8.48467 18.3597 8.32554 18.5328C7.67455 19.2395 6.54617 19.5856 4.9838 19.5856V20.4942C6.82103 20.4942 8.18087 20.0327 9.01992 19.1241C9.74324 18.3308 9.88791 17.379 9.90237 16.9319C9.13566 17.0905 6.99463 17.4078 5.75052 16.2829C4.28942 14.9848 3.76863 12.1436 5.56246 9.21585C7.34182 6.30251 11.7251 3.38917 11.8987 3.27379L12.0289 3.18726L12.1591 3.27379C12.3472 3.40359 16.716 6.30251 18.4954 9.21585C20.2892 12.1436 19.754 14.9848 18.3073 16.2829C17.0632 17.3934 14.9222 17.0905 14.1555 16.9319C14.17 17.379 14.3146 18.3308 15.0379 19.1241C15.877 20.0327 17.2224 20.4942 19.0741 20.4942V19.5856C17.5117 19.5856 16.3833 19.225 15.7323 18.5328C15.5732 18.3597 15.443 18.1722 15.3562 17.9991C16.4122 18.0712 17.8444 17.9126 18.8715 16.9896Z" fill="#BA1218"/>
</svg>
