<svg width="24" height="24" viewBox="0 0 24 24" fill="none" xmlns="http://www.w3.org/2000/svg">
<path d="M12.3153 1.65752L19.2105 19.2741L16.0683 22.395H8.5748L5.38043 19.2741L12.3153 1.65752ZM12.3153 0L4.66895 19.4297L8.32362 23H16.3231L19.9196 19.4229L12.3146 0H12.3153Z" fill="white"/>
<path d="M11.8126 14.9038C10.7774 14.2366 7.49457 15.7517 7.49457 15.7517L6.20752 18.9888L7.74948 20.52C8.13184 20.1733 13.4427 15.9623 11.8126 14.9031V14.9038Z" fill="white"/>
<path d="M12.6257 3.97217C12.6257 3.97217 11.8057 6.43594 11.0614 8.637C10.0194 11.6897 10.3326 12.554 11.7407 12.1234C13.7592 11.5116 15.2093 10.5015 15.6828 12.7482C16.1862 15.3443 13.7724 17.8276 11.6983 19.6722C10.7933 20.4718 9.75162 21.236 9.11438 21.6989H15.8272L18.5088 18.9829L12.6257 3.97217Z" fill="white"/>
</svg>
