<svg width="24" height="24" viewBox="0 0 24 24" fill="none" xmlns="http://www.w3.org/2000/svg">
<g clip-path="url(#clip0_4_4308)">
<mask id="mask0_4_4308" style="mask-type:luminance" maskUnits="userSpaceOnUse" x="2" y="2" width="20" height="20">
<path d="M22 2H2V22H22V2Z" fill="white"/>
</mask>
<g mask="url(#mask0_4_4308)">
<path d="M21.9736 7.054C22.0049 4.27862 19.8645 2.0324 17.1498 2H7.92501C7.55959 2 7.27246 2.29698 7.27246 2.67494C7.27246 2.67494 7.27246 6.15767 7.27246 6.24407C7.27246 6.91902 7.27246 7.71277 7.54391 8.1123C7.68489 8.3283 8.24871 8.97085 8.50451 9.26783C8.53584 9.30023 8.58281 9.33262 8.64546 9.33262C8.72376 9.33262 8.80731 9.28403 8.83861 9.20305C8.86994 9.10585 8.80731 9.01945 8.77599 8.93845C8.68201 8.75485 8.58281 8.5605 8.58281 8.3283C8.58281 7.58318 9.18841 7.0216 9.87751 7.0216H16.0743C16.3928 7.0216 16.6486 7.28617 16.6486 7.61557V9.30022C16.6486 9.5648 16.4398 9.7106 16.2518 9.7106H13.1404C13.0151 9.7106 12.9002 9.82397 12.9002 9.95897C12.9002 10.0076 12.9159 10.0562 12.9472 10.0886L20.9451 19.5702C21.2949 20.0022 21.9997 19.8672 21.9997 19.2733L21.9736 7.054Z" fill="#FED10A"/>
<path d="M2.01566 16.9301C1.98434 19.7055 4.12477 21.9679 6.83948 22.0003H16.0694C16.4349 22.0003 16.722 21.7034 16.722 21.3254C16.722 21.3254 16.722 17.8426 16.722 17.7563C16.722 17.0813 16.722 16.2875 16.4505 15.888C16.3096 15.672 15.7458 15.0295 15.49 14.7325C15.4586 14.7001 15.4116 14.6677 15.349 14.6677C15.2707 14.6677 15.1872 14.7163 15.1558 14.7973C15.1245 14.8945 15.1872 14.9809 15.2185 15.0619C15.3125 15.2455 15.4116 15.4398 15.4116 15.672C15.4116 16.4171 14.8061 17.0111 14.117 17.0111H7.92535C7.6069 17.0111 7.35108 16.7141 7.35108 16.3848V14.6839C7.35108 14.4193 7.5599 14.2736 7.74785 14.2736H10.8593C10.9846 14.2736 11.0995 14.1601 11.0995 14.0252C11.0995 13.9766 11.0838 13.9279 11.0525 13.8955L3.05456 4.4139C2.70478 3.98734 2 4.11693 2 4.71087L2.01566 16.9301Z" fill="#FED10A"/>
</g>
</g>
<defs>
<clipPath id="clip0_4_4308">
<rect width="20" height="20" fill="white" transform="translate(2 2)"/>
</clipPath>
</defs>
</svg>
