<svg width="24" height="24" viewBox="0 0 24 24" fill="none" xmlns="http://www.w3.org/2000/svg">
<path d="M19.5164 11.404C19.5045 11.5255 19.4847 11.6471 19.4582 11.7661C19.4437 11.8559 19.4027 11.9392 19.3393 12.0053C19.2917 12.0277 19.2468 12.0542 19.2032 12.0832C19.1437 12.0819 19.0842 12.0886 19.0261 12.1018H18.6138V12.1123H15.0891L15.5794 8.62207C15.6059 8.48859 15.6389 8.35642 15.6799 8.22823C15.6971 8.15028 15.7301 8.07627 15.7776 8.01148C15.8543 7.94543 15.9534 7.90973 16.0552 7.91371C16.1979 7.89389 16.3433 7.88727 16.4873 7.89519H20.012L19.5164 11.404ZM16.0142 5.1146C15.4896 5.10404 14.9636 5.12386 14.4403 5.17277C14.0636 5.17012 13.7028 5.31944 13.4372 5.58643C13.2653 5.85732 13.1504 6.15864 13.0975 6.47449C13.0592 6.70976 13.001 7.16303 12.9006 7.87407L12.8028 8.60225L11.9345 14.8717L11.583 17.655C11.5724 17.7647 11.5526 17.8731 11.5222 17.9775C11.501 18.0726 11.4548 18.1611 11.3874 18.2325C11.3213 18.3356 11.2407 18.4294 11.1482 18.5101C11.0715 18.5814 10.913 18.707 10.6777 18.9039H11.6068C11.8433 18.9026 12.0786 18.8907 12.3138 18.8656C12.5808 18.8457 12.8464 18.7995 13.1041 18.7268C13.2997 18.6633 13.4847 18.5709 13.6526 18.4519C13.8627 18.2907 14.0319 18.0805 14.1455 17.8413C14.2314 17.6431 14.2909 17.4343 14.3226 17.2202L14.7164 14.8836H19.2997C19.7992 14.8942 20.2988 14.8744 20.7957 14.8255C21.0785 14.7991 21.3467 14.6867 21.5622 14.503C21.7921 14.2599 21.9362 13.9493 21.9758 13.6176C22.034 13.3427 22.1146 12.8484 22.2111 12.0991C22.5454 9.7692 22.7436 8.36962 22.8005 7.89783C22.8917 7.45512 22.9512 7.00709 22.9776 6.55646C22.9921 6.43091 22.9987 6.30401 22.9974 6.17846C23.0119 5.98288 22.9789 5.78595 22.8996 5.60625C22.7648 5.33134 22.4067 5.19259 21.7974 5.15424C21.3467 5.1146 20.8921 5.1014 20.4402 5.11594H16.0142V5.1146Z" fill="white"/>
<path d="M8.2837 11.9853C8.23479 12.0342 8.17399 12.0672 8.1066 12.0831C8.04847 12.0831 7.89119 12.1016 7.65463 12.1016H1.18289C1.09303 12.6633 1.03356 13.2302 1.00448 13.7985C0.984659 14.0297 1.03091 14.2637 1.13664 14.4698C1.27937 14.6244 1.46307 14.7354 1.66527 14.7936C2.30887 14.8571 2.95512 14.8822 3.60005 14.8716H7.91496C8.56121 14.8835 9.20616 14.8571 9.84977 14.7936C10.1008 14.7368 10.3321 14.6139 10.5198 14.4381C10.6453 14.2518 10.7378 14.0456 10.7947 13.8275C10.9361 13.2632 11.0445 12.6897 11.1171 12.1121L11.2136 11.384C11.3141 10.5923 11.3722 10.0809 11.3722 9.84566V9.72673C11.4 9.45446 11.3299 9.18223 11.1753 8.95756C10.9427 8.74874 10.6414 8.63378 10.3295 8.63378C9.81935 8.58882 9.30657 8.57562 8.79514 8.5915H4.46832C4.49739 8.45534 4.5159 8.31659 4.52647 8.17783C4.53704 8.11309 4.56347 8.05228 4.60444 8.00073C4.65202 7.93997 4.7247 7.90296 4.80136 7.90296C4.98375 7.8831 5.16877 7.87652 5.35245 7.88444H9.222C9.66341 7.895 10.1035 7.87518 10.5409 7.82233C10.7564 7.80381 10.9691 7.75096 11.17 7.6677C11.4647 7.50384 11.6775 7.22499 11.7607 6.89853C11.9167 6.31044 12.0238 5.71046 12.0832 5.10519H4.78153C4.28991 5.09195 3.79828 5.10385 3.30666 5.14349C3.02649 5.1541 2.75424 5.24261 2.52032 5.39858C2.28509 5.61001 2.12518 5.89414 2.06571 6.20605C1.9428 6.75977 1.85029 7.32012 1.78818 7.8831L1.68774 8.59016C1.57143 9.37915 1.49082 9.89322 1.45249 10.1483V10.3835C1.43664 10.624 1.50668 10.862 1.64941 11.0562C1.87936 11.2254 2.15425 11.3218 2.43971 11.3311C2.67759 11.3509 3.07142 11.3734 3.60005 11.3734H8.42115C8.40925 11.4989 8.38943 11.6232 8.36299 11.7447C8.36165 11.832 8.3339 11.9152 8.2837 11.9853Z" fill="white"/>
</svg>
