<svg width="24" height="24" viewBox="0 0 24 24" fill="none" xmlns="http://www.w3.org/2000/svg">
<path d="M2.23874 4.57394C2.23874 4.18828 2.55044 3.87659 2.9361 3.87659C3.32176 3.87659 3.63345 4.18828 3.63345 4.57394C3.63345 4.95959 3.32176 5.27129 2.9361 5.27129C2.55308 5.27393 2.23874 4.95959 2.23874 4.57394ZM4.69005 2.91509C4.93307 2.91509 5.13119 2.71698 5.13119 2.47396C5.13119 2.23094 4.93307 2.03283 4.69005 2.03283C4.44703 2.03283 4.24893 2.23094 4.24893 2.47396C4.24629 2.71962 4.44439 2.91509 4.69005 2.91509ZM23.1964 11.9199C23.1938 12.0097 23.1938 12.0969 23.1911 12.1867C23.1885 12.3478 23.1753 12.5063 23.1673 12.6674C22.8134 17.3402 19.81 21.3262 15.1187 22.6126C13.2749 23.133 11.027 23.1066 9.0274 22.6681C4.44704 21.3526 1.08441 17.1738 0.999878 12.1867C1.0395 10.895 1.29045 9.48181 1.86101 7.9339C0.268185 13.9089 3.7444 20.4677 10.4221 20.1666C13.1402 20.1111 16.1832 19.0625 17.5806 17.3006C20.2485 13.9353 20.0345 10.4327 18.6451 8.13994C16.981 5.40072 12.9685 4.25168 9.81192 5.51959C5.5142 7.24183 4.45496 12.4772 8.06325 16.1014C6.76892 15.9719 5.75458 15.0368 5.07572 13.9353C5.8259 15.8768 7.65381 18.3255 11.418 18.5315C5.56703 19.2157 2.53723 14.3421 2.53723 10.4935C2.53723 4.62413 7.19156 0.992088 12.7836 1.00001C13.3119 1.00001 13.8349 1.04756 14.3527 1.12416C19.3768 2.16491 23.1568 6.59467 23.1964 11.9199ZM16.1859 4.26488C15.9851 3.95055 14.3289 2.40792 11.5659 2.40792C8.87947 2.40792 5.12062 4.16979 4.23043 8.63389C6.47835 4.06941 10.7259 2.02755 16.1859 4.26488ZM22.3485 10.4961C21.9787 6.41505 18.9911 2.87282 15.0236 1.85849C14.3262 1.72378 14.1255 1.67359 15.1187 2.08038C21.8255 5.0494 22.116 11.9886 21.0806 13.5154C21.0594 13.547 21.0251 13.555 20.996 13.555C20.9273 13.555 20.856 13.4889 20.7926 13.4229C20.6896 13.3172 20.6104 13.2116 20.576 13.378C19.6964 17.7523 16.8436 20.7741 10.2081 21.276C11.1617 21.7779 15.2534 22.116 18.196 19.6911C20.4757 17.813 21.947 15.367 22.3617 12.6172C22.4251 11.9173 22.4251 11.2093 22.3485 10.4961Z" fill="url(#paint0_linear_4_5660)"/>
<defs>
<linearGradient id="paint0_linear_4_5660" x1="12.099" y1="22.9985" x2="12.099" y2="1.00318" gradientUnits="userSpaceOnUse">
<stop stop-color="#F16522"/>
<stop offset="0.2072" stop-color="#F47D21"/>
<stop offset="0.7419" stop-color="#FCB520"/>
<stop offset="1" stop-color="#FFCB1F"/>
</linearGradient>
</defs>
</svg>
