<svg width="24" height="24" viewBox="0 0 24 24" fill="none" xmlns="http://www.w3.org/2000/svg">
<path d="M4.05657 3.74983L3.94939 3.85534L3.96279 12.2656L4.01697 12.5829C4.44694 13.7815 5.25202 14.3781 6.43121 14.3762L15.2189 14.3622L15.2207 15.4736L7.98688 15.4851C6.58461 15.4873 5.27999 15.0842 4.07334 14.2753L3.96599 14.2754C4.19906 14.8564 4.48579 15.4199 4.82616 15.9669C7.00087 18.8189 9.57522 20.2436 12.5498 20.2389L19.9447 20.2271L20.0512 20.1206L20.0378 11.7113L19.9843 11.394C19.5533 10.1961 18.7485 9.59719 17.5697 9.59907L8.78098 9.61307L8.77921 8.50266L16.0137 8.49113C17.4159 8.4889 18.7206 8.89207 19.9275 9.70166L20.0342 9.70149C19.8015 9.11914 19.5148 8.556 19.1744 8.0104C16.9997 5.15798 14.425 3.73364 11.451 3.73838L4.05657 3.74983Z" fill="black"/>
<path d="M4.05657 3.74983L3.94939 3.85534L3.96279 12.2656L4.01697 12.5829C4.44694 13.7815 5.25202 14.3781 6.43121 14.3762L15.2189 14.3622L15.2207 15.4736L7.98688 15.4851C6.58461 15.4873 5.27999 15.0842 4.07334 14.2753L3.96599 14.2754C4.19906 14.8564 4.48579 15.4199 4.82616 15.9669C7.00087 18.8189 9.57522 20.2436 12.5498 20.2389L19.9447 20.2271L20.0512 20.1206L20.0378 11.7113L19.9843 11.394C19.5533 10.1961 18.7485 9.59719 17.5697 9.59907L8.78098 9.61307L8.77921 8.50266L16.0137 8.49113C17.4159 8.4889 18.7206 8.89207 19.9275 9.70166L20.0342 9.70149C19.8015 9.11914 19.5148 8.556 19.1744 8.0104C16.9997 5.15798 14.425 3.73364 11.451 3.73838L4.05657 3.74983Z" fill="url(#paint0_linear_4_4427)"/>
<defs>
<linearGradient id="paint0_linear_4_4427" x1="3.96299" y1="12.0016" x2="20.0379" y2="11.976" gradientUnits="userSpaceOnUse">
<stop stop-color="#28BFD6"/>
<stop offset="0.9754" stop-color="#A24E9D"/>
<stop offset="1" stop-color="#A24E9D"/>
</linearGradient>
</defs>
</svg>
