<svg width="24" height="24" viewBox="0 0 24 24" fill="none" xmlns="http://www.w3.org/2000/svg">
<path d="M15.1146 1.76257L15.5775 1.97742C16.1113 2.2105 16.6097 2.72237 16.8588 3.2782C17.0188 3.62775 17.0278 4.01581 17.0189 11.9833C17.0189 18.1329 16.9837 20.3921 16.9125 20.6073C16.6901 21.2079 16.2623 21.6827 15.6752 21.9696L15.1058 22.2567L9.42126 22.2294C3.77204 22.2025 3.7273 22.203 3.37146 22.0057C2.95339 21.7817 2.43779 21.2526 2.20642 20.8134C2.04628 20.5175 2.03682 20.0958 2.01013 12.1708C1.98344 2.99146 1.96624 3.37671 2.53552 2.67761C2.87354 2.26529 3.45132 1.91496 3.95837 1.81628C4.17189 1.77146 6.77022 1.73603 9.73279 1.745L15.1146 1.76257ZM15.0795 2.453C14.608 2.30956 4.31443 2.31835 3.86072 2.46179C3.42479 2.60525 2.76663 3.29578 2.63318 3.74402C2.55311 4.02193 2.52673 6.06625 2.52673 12.0907V20.0604L2.7572 20.5262C2.91725 20.8398 3.12226 21.0908 3.39783 21.288L3.81677 21.5751H15.2308L15.6224 21.3065C15.8715 21.1272 16.0852 20.8673 16.2543 20.5536L16.4935 20.0604V11.9921C16.4935 4.336 16.4847 3.89639 16.3246 3.54675C16.1199 3.10751 15.5421 2.58748 15.0795 2.453ZM7.37439 2.61414C7.49002 2.61422 7.50818 3.71733 7.50818 12.0272C7.50818 20.3374 7.49002 21.4402 7.37439 21.4403C7.25875 21.4403 7.2406 20.3377 7.2406 12.0272C7.2406 3.717 7.25875 2.61414 7.37439 2.61414ZM11.6449 2.61414C11.7605 2.61414 11.7787 3.717 11.7787 12.0272C11.7787 20.3377 11.7605 21.4403 11.6449 21.4403C11.5295 21.438 11.5121 20.329 11.5121 12.0272C11.5121 3.72543 11.5295 2.61638 11.6449 2.61414ZM8.35388 3.50281C8.83424 3.4311 10.7557 3.41274 10.9252 3.47546C11.0497 3.52029 11.0677 3.87894 11.0677 6.52332V9.51746H10.3558V7.83289C10.3558 6.91075 10.3201 6.10457 10.2845 6.03992C10.1956 5.89648 9.75067 5.77928 9.48376 5.8241C9.09249 5.8869 8.97668 6.23679 9.0033 7.27625C9.03889 8.55824 9.21718 8.93534 10.267 9.98425L11.0677 10.7821V21.163L10.5609 21.2264C10.0182 21.2892 8.19359 21.2264 8.04236 21.1278C7.98904 21.0901 7.95349 19.8524 7.95349 17.577V14.0897H8.75427V16.1971C8.75427 18.187 8.76301 18.313 8.93201 18.4833C9.19006 18.7432 9.92892 18.7335 10.1869 18.4735C10.3646 18.2944 10.3739 18.2129 10.3383 16.9315C10.3027 15.2196 10.2487 15.1122 8.92322 13.8124L7.95349 12.8622L7.97107 8.20886L7.99841 3.55652L8.35388 3.50281ZM5.21423 13.5692L6.7533 13.5966L6.77966 17.1102C6.78854 19.0364 6.77096 20.617 6.74451 20.6337C6.55768 20.6337 5.55175 20.3201 5.25818 20.1766C4.71565 19.8898 4.17315 19.3341 3.94177 18.8143C3.73715 18.3661 3.72823 18.2491 3.70154 15.9452L3.67517 13.5516L5.21423 13.5692ZM12.4808 10.2255C12.5698 10.2793 13.2282 10.8983 13.931 11.5975C14.9452 12.6016 15.2841 12.9955 15.4799 13.4169L15.7377 13.955V18.079L15.4886 18.5897C15.204 19.1634 14.7324 19.6303 14.1097 19.953C13.6916 20.1682 12.7392 20.455 12.4545 20.455C12.33 20.4548 12.3119 19.9698 12.3119 15.2997C12.3119 10.292 12.321 10.1452 12.4808 10.2255ZM19.4564 14.1796C20.8784 14.1796 21.4662 14.2065 21.5472 14.287C21.6985 14.4393 21.6984 17.2353 21.5472 17.3885C21.396 17.5409 17.553 17.5409 17.4017 17.3885C17.2685 17.2509 17.2508 14.6093 17.3842 14.3495C17.4731 14.1885 17.5901 14.1796 19.4564 14.1796ZM19.0658 14.6278C18.2028 14.6278 17.7489 14.6639 17.7845 14.7177C17.8215 14.7713 18.3635 14.8075 19.1273 14.8075C19.9182 14.8075 20.4075 14.7713 20.4086 14.7177C20.4086 14.6639 19.9018 14.6278 19.0658 14.6278ZM21.0316 14.6278C20.8893 14.6278 20.765 14.6639 20.765 14.7177C20.7653 14.7624 20.8894 14.8075 21.0316 14.8075C21.1826 14.8075 21.2979 14.7624 21.2982 14.7177C21.2982 14.6639 21.1828 14.6278 21.0316 14.6278ZM20.5863 13.9999H19.0736V9.11414H20.5863V13.9999ZM6.68884 3.07117C6.76884 3.06303 6.79529 4.05039 6.79529 7.72449C6.79529 10.2884 6.76849 12.3866 6.724 12.3866C6.68521 12.3833 6.10875 11.8464 5.44373 11.1942C4.46512 10.2439 4.1707 9.90285 3.97498 9.47253C3.72595 8.94376 3.72595 8.91644 3.72595 7.1864C3.72595 5.49228 3.73504 5.42039 3.9574 4.9364C4.34879 4.1028 4.98939 3.59187 6.08337 3.23328C6.35028 3.14363 6.62659 3.07117 6.68884 3.07117ZM12.6058 2.83875C13.8602 3.08977 14.6965 3.62823 15.1146 4.453L15.3812 4.97253L15.4086 6.93542L15.4349 8.8905H12.3119V2.77625L12.6058 2.83875ZM19.0902 4.61414C19.8731 4.35416 20.6745 4.53273 21.2972 5.09753C21.8488 5.59955 22.044 6.08423 21.9906 6.86414C21.9461 7.60804 21.6082 8.19059 20.9945 8.57605C20.6388 8.79115 20.4429 8.84504 19.9183 8.87195C19.3756 8.89882 19.2148 8.87176 18.8412 8.68347C18.3076 8.4146 18.0765 8.16348 17.8363 7.63464C17.6051 7.11468 17.5963 6.28977 17.8187 5.79675C18.0147 5.36658 18.6811 4.73987 19.0902 4.61414ZM20.8881 5.44714C20.7279 5.28578 20.6026 5.26776 20.389 5.40222C20.0867 5.57261 20.2472 6.11121 20.5941 6.11121C20.7808 6.11111 21.0292 5.87815 21.0297 5.70789C21.0297 5.64517 20.9681 5.51888 20.8881 5.44714ZM19.9086 5.14246C19.8199 5.1158 19.7755 5.15175 19.8021 5.2323C19.8466 5.36663 20.0506 5.39358 20.0599 5.25964C20.0599 5.20585 19.9975 5.1514 19.9086 5.14246Z" fill="white"/>
</svg>
