<svg width="24" height="24" viewBox="0 0 24 24" fill="none" xmlns="http://www.w3.org/2000/svg">
<path fill-rule="evenodd" clip-rule="evenodd" d="M11.5187 18.6145C12.4558 19.4977 13.9233 19.9446 15.883 19.9446C17.7447 19.9446 19.238 19.5621 20.3237 18.8105C21.4339 18.0374 22.0802 16.9019 22.244 15.4376L22.2834 15.0967C22.4525 13.6096 22.1566 12.5036 21.3615 11.7185C20.606 10.9735 19.4223 10.5159 17.6493 10.2796C16.7423 10.1548 16.1558 9.98033 15.8585 9.74276C15.7551 9.66455 15.6781 9.55741 15.6377 9.43542C15.5996 9.29222 15.5905 9.14317 15.6102 8.99652L15.6307 8.80727C15.6379 8.7332 15.6526 8.66022 15.6744 8.5894C15.6963 8.51881 15.7253 8.45036 15.761 8.38512C15.8326 8.25441 15.9304 8.13916 16.0481 8.04625C16.3635 7.81842 16.7482 7.70292 17.1392 7.71877H17.3355C17.8443 7.71877 18.1866 7.83285 18.3898 8.07846C18.5931 8.32409 18.6802 8.72137 18.6543 9.29448C18.6501 9.41127 18.6698 9.52769 18.7119 9.63694C18.754 9.74619 18.8179 9.84605 18.8999 9.93067C18.9764 10.0101 19.0685 10.0733 19.1708 10.1165C19.2731 10.1596 19.3831 10.1818 19.4945 10.1817H22.1321C22.3276 10.1815 22.5162 10.1113 22.663 9.98405C22.8095 9.85679 22.904 9.68131 22.9285 9.49043C23.1563 7.71205 22.8412 6.3578 21.9603 5.4411C21.0791 4.52438 19.6404 4.06 17.6695 4.06C15.7589 4.06 14.2301 4.48949 13.1295 5.35386C12.743 5.6499 12.4129 5.99648 12.1423 6.38732H8.44878C8.39977 6.38765 8.35209 6.40086 8.31027 6.42556C8.26845 6.45027 8.23409 6.48558 8.21065 6.5278C8.18747 6.57004 8.17602 6.61763 8.17788 6.66564C8.17975 6.71364 8.19466 6.76029 8.22103 6.80073L9.01323 8.00868C9.02175 8.02176 9.03134 8.03403 9.042 8.04538C9.06224 8.06686 9.08568 8.08505 9.11178 8.09917C9.15201 8.12073 9.19676 8.13209 9.24257 8.13215H11.3951C11.353 8.32373 11.3205 8.52071 11.2979 8.72271L11.2582 9.06363C11.2063 9.50483 11.1983 9.91137 11.2348 10.285H6.26666C6.21871 10.2859 6.17183 10.2992 6.13054 10.3237C6.08952 10.3481 6.05569 10.3828 6.03278 10.4241C6.00961 10.4655 5.99788 10.5122 5.99922 10.5594C6.00028 10.6066 6.01387 10.6527 6.03891 10.693L6.8311 11.901C6.85587 11.9388 6.8897 11.9699 6.92966 11.9915C6.96988 12.013 7.01463 12.0244 7.06045 12.0245H11.8893C11.9684 12.1261 12.0544 12.2231 12.1474 12.3157C12.8839 13.0459 14.0828 13.5089 15.8148 13.7304C16.7218 13.8458 17.3547 14.035 17.6765 14.2914C17.7892 14.3758 17.8749 14.4905 17.9234 14.6216C17.9626 14.7521 17.9732 14.8893 17.9546 15.0242L17.9423 15.141H17.9343V15.2175C17.921 15.3627 17.8781 15.5038 17.8078 15.632C17.7372 15.7604 17.6413 15.8732 17.5252 15.9637C17.2372 16.1865 16.8185 16.2993 16.2825 16.2993H16.0862C15.591 16.2993 15.2517 16.2053 15.0223 15.9852C14.7933 15.7651 14.6843 15.4108 14.6843 14.8994C14.6824 14.6594 14.5844 14.4298 14.4115 14.2605C14.3356 14.1834 14.2451 14.1219 14.1449 14.0797C14.0903 14.0568 14.0338 14.0399 13.976 14.0291C13.9273 14.0199 13.8775 14.0152 13.8277 14.0149H11.0251C10.8728 14.0149 10.726 14.0694 10.6115 14.1682L10.6072 14.1719H4.08453C4.05736 14.1721 4.03045 14.1763 4.00488 14.1842C3.98437 14.1906 3.96466 14.1992 3.94601 14.2102C3.93136 14.2188 3.91778 14.2287 3.90526 14.2397C3.88155 14.2603 3.86157 14.2849 3.84639 14.3124C3.82322 14.3547 3.81176 14.4023 3.81363 14.4503C3.81549 14.4983 3.83041 14.5449 3.85678 14.5853L4.64897 15.7933C4.67375 15.8311 4.70757 15.8622 4.74753 15.8838C4.78775 15.9053 4.8325 15.9167 4.87832 15.9168H10.348C10.4194 17.0435 10.811 17.9453 11.5187 18.6145Z" fill="url(#paint0_linear_4_4412)"/>
<path d="M3.61598 10.312C3.57602 10.2907 3.53127 10.2796 3.48572 10.2796H1.27216C1.22342 10.2797 1.1752 10.2927 1.13338 10.3174C1.0913 10.342 1.05667 10.3773 1.03323 10.4195C1.00979 10.4618 0.998332 10.5095 1.0002 10.5576C1.00179 10.6057 1.01671 10.6525 1.04308 10.693L1.83687 11.901C1.86138 11.9386 1.89494 11.9696 1.9349 11.9912C1.97459 12.0127 2.01934 12.0242 2.06462 12.0245H4.27951C4.32853 12.0245 4.37674 12.0115 4.41909 11.9869C4.46145 11.9622 4.49607 11.9267 4.51952 11.8842C4.54296 11.8418 4.55441 11.7938 4.55255 11.7455C4.55041 11.6972 4.5355 11.6503 4.50859 11.6097L3.7148 10.4018C3.69003 10.3642 3.6562 10.3334 3.61598 10.312Z" fill="url(#paint1_linear_4_4412)"/>
<defs>
<linearGradient id="paint0_linear_4_4412" x1="1" y1="4.06" x2="10.9134" y2="25.5264" gradientUnits="userSpaceOnUse">
<stop stop-color="#FF7E36"/>
<stop offset="1" stop-color="#FF1D1D"/>
</linearGradient>
<linearGradient id="paint1_linear_4_4412" x1="1" y1="4.06" x2="10.9134" y2="25.5264" gradientUnits="userSpaceOnUse">
<stop stop-color="#FF7E36"/>
<stop offset="1" stop-color="#FF1D1D"/>
</linearGradient>
</defs>
</svg>
