<svg width="24" height="24" viewBox="0 0 24 24" fill="none" xmlns="http://www.w3.org/2000/svg">
<path fill-rule="evenodd" clip-rule="evenodd" d="M7.99609 14.8154V13.796H10.6865V14.9824C10.6865 16.0682 11.106 16.6114 11.9445 16.6114H11.9552C12.786 16.6114 13.202 16.07 13.202 14.9877C13.202 14.3692 13.0229 13.7895 12.6636 13.2481C12.305 12.7066 11.876 12.2116 11.3767 11.7631L10.0282 10.3715C9.47099 9.88477 9.00477 9.2816 8.62954 8.56261C8.25373 7.84303 8.06582 7.04644 8.06582 6.17284C8.06582 4.82834 8.42036 3.79718 9.12945 3.07819C9.83794 2.3592 10.8011 2 12.0178 2C13.2345 2 14.1687 2.3592 14.821 3.0776C15.4734 3.796 15.7996 4.82716 15.7996 6.17108V6.70429H13.3184V6.00941C13.3184 4.92005 12.8799 4.37507 12.0024 4.37507C11.1249 4.37507 10.6865 4.92064 10.6865 6.01058C10.6865 6.46678 10.7822 6.90182 10.9731 7.3157C11.1639 7.72957 11.4115 8.10229 11.7158 8.43504C12.0202 8.7672 12.3558 9.09583 12.7221 9.42034C13.0885 9.74544 13.4507 10.0858 13.8076 10.4415C14.1645 10.7972 14.4949 11.1775 14.798 11.5838C15.1005 11.9894 15.3469 12.4691 15.5372 13.0218C15.7275 13.575 15.8226 14.1758 15.8226 14.8254C15.8226 16.1664 15.4888 17.1952 14.821 17.9118C14.1533 18.6285 13.2108 18.9871 11.9936 18.9871C10.7763 18.9871 9.80544 18.6279 9.08159 17.9095C8.35773 17.1911 7.99609 16.1593 7.99609 14.8154Z" fill="white"/>
<path fill-rule="evenodd" clip-rule="evenodd" d="M7.92383 22.0001H16.072V19.7778H7.92383V22.0001Z" fill="white"/>
</svg>
