<svg width="24" height="24" viewBox="0 0 24 24" fill="none" xmlns="http://www.w3.org/2000/svg">
<path d="M12 2C14.9236 2 16.3859 2.00032 17.4531 2.6709C18.0093 3.02045 18.4796 3.49074 18.8291 4.04688C19.4997 5.1141 19.5 6.57639 19.5 9.5V14.5C19.5 17.4236 19.4997 18.8859 18.8291 19.9531C18.4796 20.5093 18.0093 20.9796 17.4531 21.3291C16.3859 21.9997 14.9236 22 12 22C9.07639 22 7.6141 21.9997 6.54688 21.3291C5.99074 20.9796 5.52045 20.5093 5.1709 19.9531C4.50032 18.8859 4.5 17.4236 4.5 14.5V9.5C4.5 6.57639 4.50032 5.1141 5.1709 4.04688C5.52045 3.49074 5.99074 3.02045 6.54688 2.6709C7.6141 2.00032 9.07639 2 12 2ZM12 5.125C9.55837 5.125 8.25408 6.06101 8.25391 8.10156C8.25391 9.84439 8.44239 10.781 9.80469 11.9248L12.0332 13.7881C12.7964 14.4172 12.9453 14.9233 12.9453 15.8955C12.9518 16.0175 12.9316 16.1395 12.8857 16.2529C12.8397 16.3665 12.7687 16.4688 12.6787 16.5527C12.5887 16.6366 12.4815 16.7006 12.3643 16.7393C12.2471 16.7779 12.1227 16.791 12 16.7773C11.8771 16.7911 11.7521 16.778 11.6348 16.7393C11.5176 16.7006 11.4102 16.6366 11.3203 16.5527C11.2304 16.4688 11.1602 16.3665 11.1143 16.2529C11.0683 16.1395 11.0473 16.0176 11.0537 15.8955V14.5645C11.0641 14.4611 11.0519 14.3566 11.0166 14.2588C10.9814 14.1612 10.9246 14.0724 10.8506 13.999C10.7764 13.9256 10.6857 13.8689 10.5869 13.834C10.4882 13.7992 10.3825 13.7866 10.2783 13.7969H9.0293C8.92507 13.7866 8.81937 13.7992 8.7207 13.834C8.62189 13.8689 8.53123 13.9256 8.45703 13.999C8.38301 14.0724 8.32626 14.1612 8.29102 14.2588C8.25574 14.3566 8.2435 14.4611 8.25391 14.5645V15.8955C8.25411 17.939 9.5584 18.875 12 18.875C14.4415 18.875 15.7459 17.939 15.7461 15.8955C15.7461 14.1557 15.5576 13.216 14.1953 12.0752L11.9814 10.2207C11.2062 9.58266 11.0546 9.07672 11.0576 8.10156C11.0516 7.97976 11.0721 7.8582 11.1182 7.74512C11.1644 7.63187 11.2352 7.52989 11.3252 7.44629C11.415 7.36283 11.5218 7.29925 11.6387 7.26074C11.7558 7.22222 11.8803 7.20899 12.0029 7.22266C12.1253 7.20902 12.2493 7.22234 12.3662 7.26074C12.4833 7.29925 12.5907 7.36272 12.6807 7.44629C12.7706 7.52989 12.8415 7.63187 12.8877 7.74512C12.9223 7.83002 12.9428 7.91974 12.9482 8.01074V9.43262C12.9378 9.53601 12.951 9.64043 12.9863 9.73828C13.0217 9.83623 13.0789 9.92557 13.1533 9.99902C13.2278 10.0725 13.3179 10.1293 13.417 10.1641C13.516 10.1987 13.6221 10.2109 13.7266 10.2002H14.9707C15.0752 10.2111 15.1812 10.1988 15.2803 10.1641C15.3793 10.1293 15.4687 10.0725 15.543 9.99902C15.6173 9.92546 15.6749 9.83636 15.71 9.73828C15.7449 9.64038 15.757 9.53589 15.7461 9.43262V8.10156C15.7459 6.06106 14.4415 5.12505 12 5.125Z" fill="#00D45C"/>
</svg>
