<svg width="24" height="24" viewBox="0 0 24 24" fill="none" xmlns="http://www.w3.org/2000/svg">
<path d="M23 4.84866V19.1485H12V4.84866H23ZM14.1992 5.94827V18.0489H21.459V15.3848H17.501V5.94827H14.1992Z" fill="#A62F6A"/>
<path d="M9.08514 8.71076C8.43545 8.16935 7.60529 7.80842 6.73904 7.80842C6.08936 7.80842 5.22304 8.18737 5.22304 8.94541C5.22304 9.73947 6.17956 10.0462 6.79315 10.2448L7.69549 10.5154C9.59045 11.0749 11.0523 12.0314 11.0523 14.2332C11.0523 15.5867 10.7274 16.9763 9.64463 17.8967C8.57983 18.7991 7.15409 19.1781 5.78253 19.1781C4.06804 19.1781 2.38964 18.6006 1 17.626L2.51601 14.7746C3.40027 15.5506 4.44706 16.1822 5.65616 16.1822C6.48639 16.1822 7.37065 15.7672 7.37065 14.8107C7.37065 13.8181 5.98101 13.4752 5.22304 13.2586C3.00324 12.627 1.54148 12.0495 1.54148 9.41463C1.54148 6.65335 3.50855 4.84866 6.23373 4.84866C7.60529 4.84866 9.28369 5.28179 10.4928 5.96757L9.08514 8.71076Z" fill="#A62F6A"/>
</svg>
