<svg width="24" height="24" viewBox="0 0 24 24" fill="none" xmlns="http://www.w3.org/2000/svg">
<path d="M16 4.80762C16.7477 5.73872 17.4938 6.66473 18.2383 7.58691C18.7635 6.81516 19.0427 6.02861 18.8467 5.30078C18.6678 4.63729 18.1414 4.20382 17.793 3.96875C19.1194 4.3197 19.5586 4.86139 19.7217 5.27344C20.3003 6.72941 18.4552 9.09928 15.8574 11.1768V11.1777C14.4708 12.2879 12.8694 13.314 11.3096 14.0732L11.3105 14.0723C12.8704 13.3131 14.4708 12.2859 15.8574 11.1758C15.8199 11.1256 15.779 11.0763 15.7402 11.0293C15.6148 10.8809 15.4914 10.7314 15.3672 10.583C14.973 10.0952 14.5781 9.60618 14.1826 9.11328C13.7731 8.60186 13.367 8.09384 12.9639 7.58496C11.829 9.03313 10.9517 10.0689 9.76074 11.5986C9.29397 12.1985 9.17812 12.99 9.43652 13.6357C9.50147 13.7803 9.61725 13.9943 9.82031 14.2031C9.97636 14.3675 10.1372 14.4762 10.2627 14.5469C8.01118 15.4914 6.00801 15.8575 4.68066 16.0205C4.63968 16.0231 0.52201 16.2799 2.37988 13.0986C2.13744 13.9159 2.29494 14.3349 2.43945 14.5527C2.71078 14.9635 3.25893 15.1428 3.92578 15.1816C3.66783 13.7753 4.02798 12.227 4.98145 11.001C7.95002 7.18725 10.136 4.60803 12.9639 1C13.9683 2.26683 14.9809 3.53569 16 4.80762Z" fill="#FE0807"/>
<path d="M19.8792 9.58566C20.2887 10.0774 20.736 10.6925 20.9456 11.0027C21.2692 11.4817 22.3116 13.0214 22.0442 14.948V14.947C21.992 15.3266 21.7134 16.9819 20.2317 18.071C19.1859 18.8404 18.1013 18.9146 17.7268 18.9343C15.781 19.0399 14.4096 17.9197 14.0696 17.6257C14.7307 19.7325 15.6479 21.5514 17.3293 22.9997H8.59888C10.2814 21.5521 11.1985 19.7325 11.8596 17.6257C11.5188 17.9232 10.135 19.0661 8.20142 18.9343C7.39525 18.8807 6.75619 18.6228 6.33716 18.405C6.01237 18.2318 5.56793 17.9456 5.1311 17.4929C4.90573 17.2592 4.72546 17.026 4.57837 16.8044C4.86758 16.817 5.06661 16.8048 5.07251 16.8044C6.60238 16.6165 9.03147 16.1564 11.7014 14.8571C11.9492 14.7361 12.1998 14.6087 12.4495 14.4743C13.8022 13.7502 15.1562 12.8475 16.344 11.8864C17.556 10.9056 18.5981 9.86473 19.2961 8.88644C19.4904 9.12018 19.6849 9.35193 19.8792 9.58566ZM16.345 11.8864C15.1572 12.8475 13.8032 13.7502 12.4504 14.4743C12.1906 15.229 11.829 15.8836 11.2131 16.4148H14.717C14.0413 15.8333 13.6734 15.104 13.4084 14.2575C13.5441 14.376 14.0947 14.825 14.8762 14.7829C15.0267 14.7746 15.4625 14.746 15.8821 14.4372C16.4757 13.9998 16.5883 13.3378 16.6096 13.1833C16.6835 12.6459 16.5055 12.1839 16.345 11.8864Z" fill="#FE0807"/>
</svg>
