<svg width="24" height="24" viewBox="0 0 24 24" fill="none" xmlns="http://www.w3.org/2000/svg">
<path d="M4.14062 7.86151C5.66686 4.80045 9.03948 2.81711 12.4184 3.01335C15.4566 3.14686 18.414 4.99347 19.7881 7.76178C19.17 7.86151 18.5471 7.90976 17.9227 7.91459C16.7531 6.15967 14.791 4.93717 12.699 4.78114C10.1521 4.48356 7.52592 5.7334 6.10112 7.89046C5.44815 7.89368 4.79359 7.88403 4.14062 7.86151Z" fill="#FCB326"/>
<path d="M8.75959 7.52051C9.83889 6.6905 11.2478 6.40096 12.5791 6.5023C12.5316 6.88192 12.4904 7.26153 12.4492 7.64115C11.419 7.58968 10.3254 7.76018 9.48705 8.41003C8.02104 9.41698 7.26822 11.3971 7.7421 13.1359C8.19062 14.9761 9.89595 16.4125 11.7677 16.4769C13.4049 16.5798 15.0167 15.6099 15.8075 14.1686C16.2735 13.2324 16.4605 12.1483 16.2275 11.1156C16.6016 11.0336 16.9772 10.9515 17.3544 10.8743C17.6983 12.6083 17.2308 14.5177 16.0231 15.8093C14.8614 17.1493 13.0324 17.7975 11.297 17.5643C8.80872 17.3487 6.74046 15.1273 6.49164 12.6341C6.27134 10.6829 7.18106 8.64971 8.75959 7.52051Z" fill="#6D6E71"/>
<path d="M14.2183 7.59266C15.0075 7.09723 16.1391 7.67952 16.2279 8.61087C16.4228 9.67412 15.1391 10.5749 14.2294 9.99583C13.3117 9.539 13.3054 8.05753 14.2183 7.59266Z" fill="#6D6E71"/>
<path d="M4.14076 7.86151C4.79373 7.88403 5.44828 7.89368 6.10125 7.89047C4.44664 10.2615 4.42128 13.6571 6.05054 16.0474C7.41511 18.161 9.93031 19.4382 12.4122 19.2854C15.3522 19.1229 18.0893 16.9594 18.869 14.0641C19.4839 12.0116 19.1305 9.67756 17.9228 7.9146C18.5473 7.90977 19.1701 7.86151 19.7882 7.76178L19.8231 7.75696C20.6948 9.39446 21.0149 11.3134 20.7772 13.1552C20.5506 15.3638 19.392 17.4307 17.7358 18.8623C15.8942 20.4709 13.3711 21.2333 10.9605 20.9374C8.1077 20.6108 5.47364 18.7835 4.16295 16.1873C2.81739 13.6458 2.8158 10.4143 4.14076 7.86151Z" fill="#F8972B"/>
</svg>
