<svg width="24" height="24" viewBox="0 0 24 24" fill="none" xmlns="http://www.w3.org/2000/svg">
<path fill-rule="evenodd" clip-rule="evenodd" d="M16.9066 9.1139L17.9438 7.76312C17.9438 7.76312 18.1194 6.90822 17.5542 6.41662C17.5542 6.41662 16.9011 5.61446 15.6087 6.41662C15.6087 6.41662 14.374 7.22452 12.884 10.5929L5.8788 6.15019C5.8788 6.15019 4.85395 5.2397 4.06233 6.28411C4.06233 6.28411 3.25424 7.35275 4.323 8.17062L7.69528 10.4618V10.5957C7.69528 10.5957 7.30563 10.5629 6.78704 11.1343C6.78704 11.1343 6.20533 11.9365 6.78704 12.7515C6.78704 12.7515 6.03932 12.7216 5.74983 13.8301C5.71362 14.0097 5.73145 14.1966 5.8009 14.3652C5.87035 14.534 5.98807 14.6765 6.1381 14.7734C5.86702 14.9235 5.65437 15.1665 5.53632 15.4611C5.41826 15.7557 5.40209 16.0836 5.49054 16.3891C5.49054 16.3891 5.9817 17.0588 6.3974 17.3324C6.3974 17.3324 9.30322 19.1719 10.1607 19.4882C10.1607 19.4882 11.1924 19.8544 11.8468 19.7575L16.1273 14.2334C16.1273 14.2334 15.7789 10.8622 16.9066 9.1139Z" fill="url(#paint0_linear_85_988)"/>
<path fill-rule="evenodd" clip-rule="evenodd" d="M20.0021 16.2097L17.8165 14.6338C17.6668 14.5308 17.4855 14.4894 17.308 14.5176C17.1305 14.5458 16.9694 14.6416 16.8561 14.7863L12.5784 20.3603C12.5232 20.4288 12.4824 20.5085 12.4587 20.5942C12.4349 20.68 12.4287 20.7701 12.4405 20.8585C12.4522 20.947 12.4817 21.0319 12.5269 21.1078C12.5722 21.1837 12.6322 21.2489 12.7032 21.2993L14.8901 22.8752C15.0399 22.9782 15.2211 23.0196 15.3987 22.9914C15.5762 22.9632 15.7372 22.8675 15.8505 22.7227L20.1255 17.1487C20.1808 17.0803 20.2217 17.0007 20.2455 16.915C20.2694 16.8292 20.2757 16.7392 20.2641 16.6508C20.2524 16.5624 20.2231 16.4774 20.178 16.4015C20.1329 16.3255 20.0729 16.2602 20.0021 16.2097Z" fill="#EF7E00"/>
<path fill-rule="evenodd" clip-rule="evenodd" d="M13.2341 5.44985C13.3327 5.48822 13.4419 5.48444 13.5379 5.43931C13.6338 5.39415 13.7086 5.31136 13.7458 5.20906L14.7665 2.38928C14.7847 2.33868 14.793 2.28485 14.791 2.23089C14.7891 2.17696 14.7768 2.12394 14.755 2.07493C14.7332 2.02591 14.7023 1.98185 14.664 1.94532C14.6257 1.90879 14.5808 1.8805 14.5319 1.86207C14.4333 1.8237 14.3241 1.82752 14.2282 1.87265C14.1322 1.91777 14.0574 2.00059 14.0202 2.10287L12.9995 4.92264C12.9813 4.97325 12.973 5.02707 12.975 5.08104C12.9769 5.13497 12.9892 5.18801 13.011 5.23703C13.0328 5.28604 13.0637 5.33007 13.102 5.36664C13.1403 5.40313 13.1852 5.43143 13.2341 5.44985Z" fill="#EDA823"/>
<path fill-rule="evenodd" clip-rule="evenodd" d="M8.4404 5.20912C8.47766 5.31139 8.55245 5.39418 8.64836 5.43934C8.7443 5.48446 8.85353 5.48828 8.95216 5.44991C9.00088 5.43135 9.04562 5.40295 9.08377 5.36638C9.12189 5.32978 9.15271 5.28568 9.17437 5.2367C9.19607 5.18769 9.20819 5.13471 9.21008 5.08085C9.21198 5.02695 9.20358 4.9732 9.18539 4.9227L8.16601 2.10293C8.12847 2.00051 8.05343 1.91772 7.95729 1.8726C7.86114 1.82748 7.7517 1.82373 7.6529 1.86213C7.60414 1.8807 7.55944 1.9091 7.52129 1.9457C7.48313 1.98226 7.45235 2.02633 7.43069 2.07534C7.40899 2.12432 7.39687 2.1773 7.39498 2.23119C7.39308 2.28509 7.40148 2.33881 7.41967 2.38934L8.4404 5.20912Z" fill="#EDA823"/>
<path fill-rule="evenodd" clip-rule="evenodd" d="M10.7092 4.42108C10.71 4.53032 10.7522 4.63482 10.8267 4.71191C10.9011 4.78901 11.0019 4.83247 11.1071 4.83286C11.1592 4.83364 11.2109 4.82356 11.2593 4.80337C11.3076 4.78314 11.3516 4.75311 11.3886 4.71503C11.4256 4.67697 11.455 4.63164 11.475 4.58163C11.495 4.53166 11.5052 4.47805 11.505 4.42391V1.41179C11.5043 1.30255 11.462 1.19805 11.3876 1.12094C11.3131 1.04384 11.2123 1.00038 11.1071 1.00001C11.0551 0.999635 11.0036 1.00992 10.9554 1.03029C10.9072 1.05065 10.8634 1.08069 10.8264 1.11869C10.7895 1.15668 10.7601 1.20187 10.74 1.25169C10.7199 1.30149 10.7094 1.35492 10.7092 1.40892V4.42108Z" fill="#EDA823"/>
<defs>
<linearGradient id="paint0_linear_85_988" x1="10.4419" y1="4.76235" x2="13.145" y2="19.5202" gradientUnits="userSpaceOnUse">
<stop stop-color="#F5B043"/>
<stop offset="1" stop-color="#ED6D20"/>
</linearGradient>
</defs>
</svg>
