<svg width="24" height="24" viewBox="0 0 24 24" fill="none" xmlns="http://www.w3.org/2000/svg">
<path d="M20.643 15.7667L21.2658 11.39L18.6481 5.89689L16.8671 6.50693L14.5435 4.01488L10.4372 1.77777L9.5385 5.09656L8.90114 3.35385L5.7508 6.435L3.98625 9.51705L3.90794 12.7111L2.66602 12.1202L3.51096 17.2381L5.43395 20.5341L9.96734 22.0875L13.6804 22.2222L20.0821 19.8822L21.9241 15.3297L20.643 15.7667ZM17.8732 13.3412L14.2431 13.4322L14.112 17.5158L13.9162 19.9332L10.754 19.9004V17.5832L10.4927 13.5324L6.69773 13.6954L6.56934 9.77563L12.1553 9.74286L17.9379 9.57987L18.0362 10.1025L17.8732 13.3412Z" fill="#FF9F00"/>
</svg>
