<svg width="24" height="24" viewBox="0 0 24 24" fill="none" xmlns="http://www.w3.org/2000/svg">
<path d="M12.0109 21.8916C11.589 21.8686 11.1684 21.8456 10.7478 21.8225C10.2531 21.797 9.75838 21.7714 9.26364 21.742C9.23168 21.7407 9.19717 21.7152 9.16777 21.6922C8.14378 20.842 7.12108 19.9906 6.09837 19.1405C5.65861 18.7736 5.21757 18.4067 4.7778 18.0385C4.74585 18.0117 4.71516 17.9657 4.69982 17.9184C4.39429 16.9992 4.08492 16.0813 3.78961 15.1545C3.67967 14.8093 3.60553 14.4437 3.5186 14.0845C3.34985 13.3865 3.18622 12.6872 3.01747 11.9892C3.00213 11.9253 3.00597 11.8755 3.02259 11.8154C3.13381 11.4383 3.24502 11.0611 3.35241 10.6815C3.78706 9.15379 4.22043 7.6274 4.65508 6.09974C4.66786 6.05244 4.68576 6.00642 4.69343 5.95784C4.71261 5.84406 4.77269 5.78909 4.84172 5.74051C4.86601 5.72389 4.88902 5.70216 4.91203 5.68171C5.62537 5.03996 6.33359 4.38671 7.05332 3.75647C7.34991 3.49568 7.66695 3.28219 7.97504 3.04697C8.37389 2.74527 8.77402 2.44613 9.17416 2.14826C9.20228 2.12653 9.2368 2.11502 9.26876 2.11502C11.0853 2.10991 12.9032 2.10608 14.7198 2.1048C14.7466 2.1048 14.7747 2.11503 14.7978 2.1342C15.5546 2.70052 16.3139 3.26173 17.0656 3.84084C17.3162 4.03387 17.5476 4.27421 17.7853 4.49537C18.2686 4.9428 18.7531 5.39152 19.235 5.84151C19.2644 5.86835 19.2913 5.91437 19.3053 5.9604C19.8525 7.86518 20.3983 9.77253 20.9442 11.6786C20.9468 11.6863 20.9468 11.6939 20.9493 11.7003C21.0363 11.8461 20.9966 11.9905 20.9583 12.1465C20.7192 13.1091 20.4929 14.0768 20.2475 15.0382C20.1593 15.3846 20.034 15.717 19.9241 16.0532C19.7182 16.6783 19.5099 17.3022 19.3053 17.9273C19.2849 17.9887 19.258 18.0296 19.2171 18.0641C17.802 19.2415 16.3855 20.4176 14.9716 21.6014C14.8502 21.7037 14.7313 21.7548 14.5907 21.7599C14.1765 21.7752 13.7635 21.8008 13.3493 21.8238C12.9492 21.8468 12.5491 21.8711 12.1477 21.8941C12.1029 21.8967 12.0595 21.8941 12.0147 21.8941C12.0109 21.8941 12.0109 21.8929 12.0109 21.8916ZM14.7249 16.0481C15.272 16.911 15.8153 17.7662 16.3599 18.624C16.3676 18.6138 16.3727 18.6074 16.3778 18.5985C16.5491 18.2674 16.7192 17.9363 16.8892 17.6052C16.8994 17.586 16.9071 17.5591 16.9084 17.5361C16.9173 17.3866 16.9237 17.2383 16.9314 17.0887C16.9557 16.6298 16.98 16.1683 17.0042 15.7081C17.017 15.4843 17.0273 15.2593 17.0388 15.028C17.0157 15.0343 16.9978 15.0369 16.98 15.042C16.4277 15.2172 15.8767 15.3923 15.3244 15.5674C15.3091 15.5725 15.2912 15.5764 15.2784 15.5892C15.0943 15.74 14.9141 15.8921 14.7249 16.0481ZM6.97406 15.0254C6.98685 15.2593 6.9958 15.4792 7.00858 15.6978C7.04054 16.2987 7.07122 16.9021 7.10446 17.5029C7.10701 17.5451 7.11852 17.5924 7.13642 17.6282C7.29494 17.9401 7.45473 18.2507 7.61581 18.5614C7.62732 18.5831 7.63882 18.6036 7.65288 18.6279C8.20003 17.7662 8.74334 16.9097 9.28921 16.0507C9.10001 15.8934 8.9172 15.7413 8.73439 15.5892C8.72161 15.5789 8.70371 15.5751 8.68709 15.57C8.27801 15.4396 7.86765 15.3079 7.45857 15.1788C7.29749 15.1264 7.13897 15.0778 6.97406 15.0254ZM6.34893 12.8215C6.36939 12.7946 6.38345 12.7742 6.39751 12.755C6.72094 12.2897 7.04437 11.8218 7.37036 11.3603C7.44834 11.2503 7.50715 11.134 7.54294 10.9895C7.58896 10.808 7.64266 10.6316 7.69507 10.445C6.80915 10.1151 5.92835 9.78787 5.04115 9.45805C5.07183 9.83645 5.10123 10.2021 5.13447 10.5664C5.13959 10.6252 5.16004 10.6878 5.18561 10.7351C5.45407 11.2222 5.72508 11.7054 5.99482 12.1912C6.11243 12.3983 6.23004 12.6067 6.34893 12.8215ZM17.6549 12.8266C17.669 12.8074 17.6728 12.8023 17.6754 12.7959C18.0666 12.0928 18.459 11.391 18.8502 10.6878C18.8617 10.6661 18.8694 10.6393 18.872 10.6137C18.886 10.4667 18.8988 10.3171 18.9103 10.1688C18.9308 9.93616 18.9487 9.70222 18.9691 9.45549C18.0806 9.78531 17.1998 10.1126 16.3152 10.4424C16.3868 10.6917 16.4533 10.9333 16.5223 11.1724C16.5287 11.1966 16.5453 11.2184 16.5594 11.2376C16.9122 11.7463 17.2663 12.2539 17.6191 12.7627C17.6306 12.7818 17.6422 12.8023 17.6549 12.8266ZM16.2155 18.734C15.6683 17.8711 15.1289 17.0197 14.5855 16.1644C14.39 16.3268 14.1969 16.4866 14.0052 16.6489C13.9924 16.6617 13.9809 16.6796 13.9706 16.6975C13.6613 17.2332 13.3506 17.7701 13.0413 18.307C13.0336 18.3198 13.0285 18.3338 13.0208 18.3517C13.0374 18.3581 13.0502 18.3645 13.063 18.3671C13.7572 18.5742 14.4513 18.7813 15.1468 18.9845C15.1736 18.9922 15.2017 18.9922 15.2286 18.9858C15.4625 18.9283 15.6965 18.8669 15.9304 18.8081C16.0237 18.7838 16.1158 18.7595 16.2155 18.734ZM10.9933 18.3517C10.9856 18.3351 10.9818 18.3275 10.978 18.3198C10.6635 17.7752 10.349 17.2306 10.0345 16.6873C10.0256 16.6719 10.0153 16.6553 10.0038 16.6464C9.81335 16.4866 9.62287 16.3281 9.42855 16.1657C8.88652 17.0209 8.34577 17.8736 7.80118 18.7327C7.82035 18.7404 7.8293 18.7455 7.83825 18.748C8.12333 18.8209 8.40841 18.8938 8.69348 18.9641C8.75485 18.9794 8.82004 18.9986 8.87757 18.982C9.46691 18.8132 10.055 18.6368 10.643 18.4617C10.7555 18.4233 10.8718 18.3888 10.9933 18.3517ZM14.4846 6.04093C14.4679 6.01664 14.4564 5.99875 14.4462 5.98341C13.9988 5.36084 13.5513 4.73698 13.1026 4.11441C13.0847 4.09012 13.0617 4.06967 13.0387 4.05816C12.7408 3.90859 12.4417 3.76158 12.1438 3.61201C12.1298 3.60434 12.1144 3.59923 12.0965 3.59411C12.0965 4.65261 12.0965 5.70344 12.0965 6.76066C12.1195 6.76066 12.14 6.76066 12.1592 6.76066C12.356 6.76066 12.5555 6.76194 12.7523 6.75939C12.7869 6.75939 12.8227 6.75171 12.8559 6.73765C13.1154 6.62771 13.3736 6.51649 13.6319 6.40655C13.9131 6.2851 14.1944 6.16494 14.4846 6.04093ZM11.9163 6.76066C11.9163 5.6996 11.9163 4.65005 11.9163 3.59283C11.8946 3.60178 11.8767 3.60945 11.86 3.61712C11.5711 3.7603 11.2848 3.90348 10.9971 4.04922C10.9601 4.06839 10.9204 4.10035 10.8923 4.13998C10.4589 4.73954 10.0268 5.34166 9.59474 5.94122C9.57301 5.9719 9.54361 5.9898 9.51676 6.01409C9.54872 6.04732 9.56534 6.05499 9.58068 6.06139C10.0754 6.27488 10.5701 6.48581 11.0649 6.6993C11.1135 6.72103 11.1633 6.75555 11.2132 6.75683C11.4458 6.76322 11.6798 6.76066 11.9163 6.76066ZM18.9116 9.242C18.8847 9.2126 18.8681 9.19726 18.8541 9.17936C18.6572 8.92496 18.4629 8.66928 18.2647 8.41872C18.2353 8.38037 18.197 8.34841 18.1586 8.33051C17.6422 8.09657 17.1244 7.86391 16.6079 7.62996C16.4469 7.55837 16.2858 7.4855 16.1209 7.41264C16.1183 7.44971 16.1158 7.47911 16.1145 7.50979C16.0915 8.11703 16.0685 8.72426 16.0429 9.33149C16.0391 9.42737 16.0493 9.51557 16.0761 9.60378C16.1285 9.77764 16.1759 9.95278 16.2257 10.1266C16.2359 10.1612 16.2462 10.1957 16.2564 10.2302C17.1397 9.90292 18.0154 9.57566 18.9116 9.242ZM7.75643 10.2315C7.82802 9.9809 7.89705 9.73801 7.96481 9.49512C7.97248 9.46827 7.96992 9.43631 7.96864 9.40563C7.94819 8.8751 7.92901 8.3433 7.90856 7.81149C7.90472 7.6811 7.89705 7.54942 7.89194 7.41647C7.87404 7.42286 7.86382 7.4267 7.85359 7.43181C7.17733 7.73607 6.49978 8.04032 5.8248 8.34585C5.80179 8.35608 5.77878 8.37781 5.76088 8.4021C5.55762 8.66417 5.35435 8.92752 5.15237 9.19086C5.13959 9.20748 5.12808 9.22538 5.11146 9.24967C5.99738 9.57693 6.87435 9.90292 7.75643 10.2315ZM12.0978 12.2475C12.0978 13.384 12.0978 14.5025 12.0978 15.6211C12.8099 15.6211 13.5194 15.6211 14.2378 15.6211C13.5232 14.4936 12.8137 13.3763 12.0978 12.2475ZM9.77372 15.6224C10.4947 15.6224 11.2042 15.6224 11.9124 15.6224C11.9124 14.5 11.9124 13.3814 11.9124 12.25C11.1966 13.3776 10.4883 14.4949 9.77372 15.6224ZM12.0953 7.42798C12.0953 8.82269 12.0953 10.2059 12.0953 11.607C12.6782 10.6891 13.2522 9.78403 13.83 8.87255C13.2496 8.3906 12.6756 7.9112 12.0953 7.42798ZM11.9188 11.6096C11.9188 10.2046 11.9188 8.82141 11.9188 7.4267C11.3372 7.9112 10.7619 8.38804 10.1815 8.87255C10.7593 9.78403 11.3346 10.6891 11.9188 11.6096ZM14.3938 15.5214C14.6162 14.7365 14.8348 13.9631 15.056 13.1871C14.1215 12.8406 13.1947 12.4942 12.2512 12.1426C12.9697 13.2778 13.6779 14.3926 14.3938 15.5214ZM9.61776 15.5214C10.3336 14.3939 11.0406 13.2791 11.7488 12.1618C11.7463 12.1567 11.745 12.1542 11.7437 12.149C10.8169 12.4942 9.88749 12.8394 8.95555 13.1871C9.17671 13.9656 9.39532 14.7365 9.61776 15.5214ZM8.30358 10.4347C9.45668 10.8643 10.5957 11.2874 11.7348 11.7118C11.7373 11.7054 11.7399 11.7016 11.7424 11.6952C11.1723 10.7965 10.6021 9.89653 10.0307 8.99783C9.45668 9.47594 8.88524 9.9515 8.30358 10.4347ZM13.9809 8.99655C13.4094 9.89781 12.8393 10.7952 12.2704 11.6939C12.273 11.7003 12.2755 11.7042 12.2781 11.7106C13.4171 11.2861 14.5561 10.863 15.708 10.4335C15.1263 9.9515 14.5561 9.47594 13.9809 8.99655ZM11.6632 11.9343C11.6632 11.9292 11.6644 11.9253 11.6644 11.9189C10.5241 11.4945 9.38509 11.0714 8.23327 10.6418C8.45571 11.4268 8.67303 12.1938 8.89163 12.9634C9.82102 12.6208 10.7427 12.2782 11.6632 11.9343ZM12.3471 11.9189C12.3471 11.924 12.3471 11.9279 12.3458 11.9343C13.2688 12.2782 14.1918 12.622 15.1173 12.9659C15.3372 12.1925 15.5546 11.4255 15.7757 10.6444C14.6239 11.0714 13.4861 11.4958 12.3471 11.9189ZM19.4447 9.99497C19.3104 10.2366 19.18 10.4692 19.0509 10.7045C19.0381 10.7275 19.0318 10.7594 19.0292 10.7876C19.0011 11.1123 18.9742 11.437 18.9487 11.7617C18.9103 12.227 18.8707 12.6924 18.8323 13.159C18.8055 13.4798 18.7786 13.802 18.7518 14.1331C18.7671 14.119 18.7786 14.1114 18.7889 14.1011C19.1826 13.6741 19.5776 13.2459 19.9701 12.8164C19.9841 12.7997 19.9957 12.7614 19.9944 12.7345C19.9893 12.5556 19.979 12.3753 19.9714 12.1963C19.9471 11.6927 19.9228 11.1903 19.8959 10.6866C19.8947 10.661 19.8908 10.629 19.878 10.6099C19.7361 10.4066 19.593 10.2059 19.4447 9.99497ZM5.26103 14.1408C5.24825 13.9874 5.23802 13.8518 5.22652 13.7163C5.14853 12.7882 5.07055 11.8601 4.99641 10.9307C4.9849 10.7952 4.9555 10.6815 4.89158 10.5741C4.78675 10.404 4.69343 10.2212 4.59372 10.0448C4.58477 10.0295 4.57582 10.0154 4.56431 9.9988C4.41858 10.2059 4.2754 10.4079 4.13478 10.6124C4.12327 10.6278 4.11944 10.6584 4.11816 10.6815C4.08364 11.3667 4.05041 12.0506 4.01972 12.7371C4.01845 12.7678 4.03506 12.8087 4.05296 12.8279C4.31375 13.1142 4.5771 13.398 4.83789 13.6831C4.97595 13.8314 5.11274 13.981 5.26103 14.1408ZM17.0336 18.4885C17.2625 18.4169 17.4824 18.3505 17.7035 18.2789C17.724 18.2725 17.7419 18.2482 17.7559 18.229C18.1292 17.7074 18.4987 17.1833 18.8732 16.663C18.9065 16.617 18.9116 16.5761 18.9026 16.5173C18.8349 16.1159 18.771 15.7119 18.7058 15.3092C18.6725 15.1059 18.6393 14.9014 18.6035 14.6866C18.592 14.7045 18.5869 14.7135 18.5818 14.725C18.087 15.685 17.5923 16.6451 17.0976 17.6052C17.0886 17.6231 17.0784 17.6448 17.0771 17.6665C17.0618 17.935 17.0477 18.206 17.0336 18.4885ZM5.41188 14.6879C5.40677 14.7096 5.40293 14.7224 5.40038 14.7365C5.30322 15.3424 5.2035 15.9471 5.10763 16.5531C5.10379 16.5825 5.11657 16.6259 5.13192 16.6489C5.5052 17.1769 5.87977 17.7036 6.25433 18.2277C6.27479 18.2571 6.30419 18.2789 6.33359 18.2891C6.44737 18.3287 6.55987 18.3607 6.67364 18.3952C6.77336 18.4259 6.87307 18.4566 6.9779 18.486C6.96384 18.2213 6.95105 17.9682 6.93571 17.7177C6.93188 17.6704 6.92165 17.618 6.9012 17.5796C6.41925 16.6387 5.93346 15.6991 5.45023 14.7595C5.44001 14.7378 5.42722 14.7173 5.41188 14.6879ZM16.3651 5.61651C16.3612 5.62546 16.3561 5.63441 16.3523 5.64208C16.3651 5.64975 16.3778 5.65486 16.3868 5.66637C17.0157 6.4807 17.6447 7.2963 18.2737 8.11063C18.2941 8.1362 18.321 8.15793 18.3491 8.16944C18.5536 8.26404 18.7582 8.3548 18.964 8.44813C18.9806 8.4558 18.9972 8.46091 19.0177 8.4673C19.0202 8.43406 19.0228 8.40977 19.0241 8.38421C19.033 8.17455 19.0433 7.96362 19.0484 7.75397C19.0497 7.71178 19.0381 7.65809 19.019 7.62485C18.7134 7.07514 18.4028 6.53055 18.0973 5.97829C18.0487 5.89008 17.995 5.85812 17.9196 5.8479C17.49 5.78653 17.0605 5.72006 16.631 5.65614C16.5427 5.6408 16.4533 5.62929 16.3651 5.61651ZM4.99257 8.46858C5.01814 8.45835 5.03859 8.45196 5.05521 8.44301C5.25464 8.35352 5.45535 8.26532 5.65477 8.17199C5.68801 8.15665 5.72253 8.12981 5.7481 8.09529C6.37322 7.28863 6.99452 6.4807 7.61837 5.67276C7.62987 5.65742 7.63882 5.6408 7.65416 5.62162C7.63115 5.62162 7.61453 5.62035 7.59791 5.62162C7.07122 5.70088 6.54453 5.78014 6.01783 5.86196C5.9961 5.86452 5.96925 5.88625 5.95519 5.91054C5.63048 6.48581 5.30578 7.06108 4.98362 7.63763C4.97084 7.66064 4.96189 7.69644 4.96317 7.72584C4.967 7.86774 4.9734 8.00836 4.97851 8.15026C4.98107 8.25637 4.98746 8.35864 4.99257 8.46858ZM12.7191 3.23233C12.714 3.24256 12.7089 3.25534 12.7038 3.26557C12.8482 3.45477 12.9927 3.64269 13.1384 3.83061C13.1653 3.86385 13.1959 3.89453 13.2292 3.91115C14.1049 4.34964 14.9831 4.78428 15.8601 5.22149C15.8767 5.22916 15.8933 5.23555 15.9176 5.24578C15.9087 5.22149 15.9048 5.20743 15.8997 5.19592C15.6734 4.65133 15.4472 4.10546 15.2183 3.5596C15.2056 3.52891 15.1723 3.50335 15.1455 3.49568C14.5651 3.31798 13.986 3.14284 13.4056 2.9677C13.3851 2.96131 13.3596 2.95364 13.3404 2.96259C13.132 3.04952 12.9262 3.14029 12.7191 3.23233ZM8.09137 5.24578C8.11566 5.233 8.12716 5.23044 8.13739 5.22405C9.02459 4.78301 9.91306 4.34196 10.799 3.89837C10.822 3.88558 10.845 3.86641 10.8616 3.84212C10.9958 3.65803 11.1288 3.47139 11.263 3.28474C11.2745 3.2694 11.2835 3.25278 11.2975 3.23105C11.0841 3.13773 10.877 3.04696 10.6699 2.95748C10.652 2.94981 10.629 2.95492 10.6098 2.96003C10.0268 3.13645 9.44262 3.31287 8.85967 3.48928C8.82388 3.49951 8.80343 3.52252 8.78553 3.56727C8.56565 4.10035 8.34449 4.63216 8.12205 5.16524C8.11438 5.18697 8.10671 5.20871 8.09137 5.24578ZM12.2819 19.9676C12.3036 19.983 12.3113 19.9894 12.319 19.9945C12.7843 20.2834 13.2496 20.5736 13.715 20.8612C13.738 20.8765 13.7725 20.8765 13.7981 20.8663C14.3618 20.6183 14.9256 20.369 15.4881 20.1159C15.5162 20.1031 15.5431 20.075 15.5609 20.0443C15.6632 19.8705 15.7617 19.694 15.8614 19.5176C15.8742 19.4985 15.8844 19.4767 15.8997 19.4473C15.7016 19.3885 15.5098 19.3399 15.3232 19.2735C15.2145 19.2351 15.111 19.2415 15.001 19.2709C14.2762 19.4601 13.5501 19.6416 12.8239 19.8257C12.6501 19.8743 12.4724 19.919 12.2819 19.9676ZM11.7309 19.9715C11.7015 19.9625 11.6875 19.9561 11.6734 19.9536C10.7798 19.7273 9.88749 19.4997 8.99518 19.2709C8.89036 19.2441 8.7932 19.2415 8.68965 19.2786C8.54647 19.3284 8.40073 19.3655 8.25756 19.4077C8.21026 19.4217 8.16296 19.4384 8.11054 19.455C8.22688 19.6608 8.3381 19.8564 8.45059 20.052C8.46849 20.0827 8.49661 20.1095 8.52474 20.1223C9.08339 20.3729 9.6446 20.6196 10.2033 20.8689C10.2416 20.8855 10.2723 20.8842 10.3081 20.8612C10.5996 20.6771 10.8923 20.4956 11.1838 20.3153C11.3615 20.2003 11.5404 20.0903 11.7309 19.9715ZM8.83411 7.11222C8.82388 7.14545 8.81621 7.16719 8.80982 7.1902C8.61806 7.86391 8.43014 8.54017 8.23455 9.21132C8.17318 9.4197 8.131 9.62424 8.15529 9.85051C8.16807 9.97196 8.16551 10.0985 8.16935 10.2212C8.16935 10.2353 8.17191 10.2506 8.17446 10.2762C8.75868 9.78915 9.33651 9.30848 9.91945 8.82269C9.55895 8.25253 9.19845 7.68493 8.83411 7.11222ZM15.8396 10.2788C15.8486 10.0231 15.8588 9.78403 15.8665 9.5437C15.8678 9.52197 15.8588 9.49895 15.8537 9.4785C15.6364 8.71147 15.419 7.94572 15.2017 7.18125C15.1966 7.16207 15.1889 7.14162 15.1787 7.11478C14.8144 7.68877 14.4551 8.25509 14.0934 8.82525C14.6738 9.3072 15.2503 9.78787 15.8396 10.2788ZM15.281 13.026C15.8678 13.2446 16.4507 13.4607 17.0413 13.6818C17.0311 13.6435 17.026 13.6179 17.0183 13.5923C16.8432 12.9749 16.6604 12.3612 16.4954 11.7374C16.4123 11.4204 16.2986 11.143 16.1145 10.9205C16.0557 10.8502 16.0058 10.7658 15.947 10.6815C15.7233 11.4677 15.5034 12.2424 15.281 13.026ZM6.96767 13.6818C7.56084 13.4607 8.1425 13.2433 8.73056 13.026C8.50812 12.2424 8.28824 11.4664 8.06452 10.6815C7.92518 10.8822 7.79223 11.0739 7.658 11.267C7.64521 11.2849 7.6401 11.3117 7.63371 11.3334C7.50076 11.8026 7.3678 12.2718 7.23485 12.7409C7.14664 13.0503 7.05971 13.3597 6.96767 13.6818ZM16.9697 13.8979C16.3817 13.6793 15.8026 13.4645 15.2196 13.2472C14.9997 14.0231 14.7811 14.7927 14.56 15.5738C14.5894 15.5674 14.6047 15.5649 14.6201 15.5585C14.7581 15.5163 14.8962 15.4677 15.0355 15.4294C15.1455 15.3987 15.2439 15.3412 15.3411 15.2606C15.8639 14.8209 16.3881 14.3875 16.9135 13.9503C16.9275 13.9375 16.9442 13.9209 16.9697 13.8979ZM7.04182 13.9004C7.06994 13.9247 7.08784 13.94 7.10446 13.9554C7.62859 14.3926 8.15273 14.826 8.67559 15.2657C8.77147 15.3463 8.8699 15.4064 8.98112 15.4332C9.0591 15.4524 9.1358 15.4818 9.21251 15.5061C9.28921 15.5304 9.36591 15.5534 9.45157 15.5789C9.44262 15.5444 9.43878 15.5227 9.43239 15.501C9.22657 14.7723 9.01819 14.0449 8.81365 13.3149C8.79959 13.2651 8.78425 13.251 8.7459 13.2663C8.38028 13.4044 8.01211 13.5399 7.64521 13.6767C7.44579 13.7496 7.24891 13.8224 7.04182 13.9004ZM12.0978 15.8551C12.0978 16.5556 12.0978 17.2511 12.0978 17.9529C12.1195 17.9363 12.1374 17.9235 12.1541 17.9094C12.645 17.5016 13.132 17.0849 13.6268 16.6873C13.8198 16.5326 13.9885 16.3524 14.1125 16.0954C14.1509 16.0149 14.2008 15.942 14.2506 15.8551C13.527 15.8551 12.815 15.8551 12.0978 15.8551ZM9.75965 15.8551C9.87087 16.0468 9.97315 16.2258 10.0767 16.4048C10.0933 16.4342 10.1138 16.4597 10.1381 16.4789C10.7146 16.9596 11.2924 17.4403 11.8703 17.9209C11.883 17.9312 11.8984 17.9401 11.9124 17.9516C11.9124 17.2485 11.9124 16.5531 11.9124 15.8563C11.1966 15.8551 10.4845 15.8551 9.75965 15.8551ZM13.94 8.69869C14.2979 8.13364 14.6533 7.57371 15.0189 6.99716C14.9818 6.99716 14.9601 6.99716 14.9397 6.99716C14.2826 6.99716 13.6268 6.99844 12.9709 6.99588C12.8572 6.99588 12.7485 7.01378 12.6398 7.0662C12.5005 7.13267 12.3573 7.18892 12.2052 7.25539C12.7869 7.73862 13.3596 8.21546 13.94 8.69869ZM8.99263 6.99716C9.35952 7.57499 9.71491 8.13492 10.0716 8.69869C10.6494 8.21802 11.2234 7.7399 11.8038 7.25667C11.7833 7.24645 11.7693 7.23878 11.7565 7.23238C11.5916 7.16079 11.4254 7.08921 11.2592 7.02145C11.226 7.00739 11.1902 6.99972 11.1556 6.99972C10.4589 6.99844 9.76221 6.99844 9.06422 6.99844C9.0476 6.99716 9.02714 6.99716 8.99263 6.99716ZM18.5792 14.1446C18.6649 13.127 18.748 12.1273 18.831 11.1289C18.8272 11.1276 18.8221 11.1263 18.8183 11.1225C18.4718 11.7438 18.1254 12.3638 17.7777 12.9889C18.0423 13.3724 18.3056 13.7508 18.5792 14.1446ZM5.43361 14.1446C5.70591 13.7534 5.96926 13.375 6.23516 12.9915C5.88744 12.3664 5.53972 11.7438 5.19328 11.1212C5.18944 11.1238 5.18561 11.1263 5.18049 11.1289C5.26487 12.1273 5.34796 13.1257 5.43361 14.1446ZM5.56401 14.578C6.01272 15.4498 6.45376 16.3051 6.8948 17.1616C6.89864 17.159 6.90375 17.1565 6.90759 17.1539C6.86923 16.4252 6.83088 15.6965 6.79253 14.9679C6.38345 14.8388 5.98076 14.7109 5.56401 14.578ZM17.104 17.1552C17.1078 17.1565 17.1142 17.1577 17.118 17.1603C17.5578 16.3051 17.9988 15.4498 18.4475 14.5792C18.0308 14.7122 17.6268 14.84 17.219 14.9691C17.1807 15.6978 17.1423 16.4278 17.104 17.1552ZM7.82802 5.72006C7.24764 6.47303 6.67748 7.21321 6.10604 7.95211C6.12138 7.96106 6.13033 7.95978 6.138 7.95723C6.7056 7.70155 7.27448 7.4446 7.84208 7.1902C7.8766 7.17486 7.88299 7.15185 7.88043 7.10838C7.86637 6.7581 7.85359 6.41039 7.8408 6.06011C7.83825 5.95145 7.83314 5.84406 7.82802 5.72006ZM17.8965 7.96745C17.8991 7.96234 17.9017 7.95723 17.9042 7.95211C17.3341 7.21321 16.7626 6.47303 16.1848 5.72262C16.181 5.76097 16.1797 5.78014 16.1784 5.8006C16.1618 6.23141 16.1477 6.66223 16.1285 7.09049C16.126 7.1544 16.1413 7.17741 16.1835 7.19531C16.6067 7.38451 17.0285 7.57371 17.4517 7.76419C17.6 7.83194 17.7483 7.8997 17.8965 7.96745ZM10.542 4.29211C10.5395 4.28572 10.5382 4.28188 10.5344 4.27549C9.74815 4.66667 8.96195 5.05786 8.16296 5.45416C8.54903 5.62034 8.91848 5.77631 9.28793 5.93866C9.32884 5.95656 9.35313 5.94889 9.38381 5.9067C9.6446 5.53981 9.90795 5.17675 10.1687 4.81113C10.294 4.63983 10.418 4.46597 10.542 4.29211ZM15.832 5.46183C15.832 5.45671 15.832 5.4516 15.832 5.44649C15.047 5.0553 14.2608 4.66539 13.4746 4.27421C13.4708 4.28188 13.4657 4.29083 13.4618 4.2985C13.4925 4.33685 13.5258 4.37265 13.5564 4.41355C13.9157 4.91212 14.2749 5.41453 14.6354 5.91182C14.6495 5.93099 14.6814 5.95017 14.6993 5.9425C15.079 5.78654 15.4548 5.62418 15.832 5.46183ZM12.2052 19.7567C13.0566 19.5394 13.8914 19.3271 14.7249 19.1149C14.7121 19.0983 14.6993 19.0919 14.6865 19.0894C14.1036 18.9155 13.5219 18.7442 12.939 18.5691C12.9045 18.5588 12.8853 18.5742 12.8648 18.6087C12.7012 18.8938 12.5376 19.1776 12.3739 19.4614C12.3215 19.5547 12.2678 19.6467 12.2052 19.7567ZM9.28538 19.1009C9.28538 19.106 9.28538 19.1098 9.28538 19.1149C10.1202 19.3284 10.9562 19.5406 11.8012 19.7554C11.7897 19.7324 11.7872 19.7234 11.7833 19.7158C11.5698 19.3463 11.3564 18.9781 11.1441 18.6061C11.1173 18.5601 11.093 18.5614 11.0585 18.5729C10.6545 18.6931 10.2506 18.8132 9.84658 18.9321C9.65994 18.9884 9.4733 19.0446 9.28538 19.1009ZM8.58866 3.58005C8.57204 3.58133 8.56181 3.58133 8.55414 3.58516C8.16679 3.70277 7.77816 3.81655 7.39337 3.94183C7.309 3.96868 7.23102 4.03899 7.14409 4.09268C7.39976 4.49409 7.64266 4.87633 7.89066 5.26751C8.12461 4.69991 8.35471 4.14509 8.58866 3.58005ZM15.4203 3.57622C15.6581 4.14637 15.8882 4.70375 16.1222 5.26879C16.3714 4.87505 16.6143 4.49281 16.8675 4.09396C16.7844 4.04027 16.7128 3.97379 16.6361 3.94822C16.3625 3.8549 16.0864 3.77692 15.8102 3.69255C15.6837 3.65292 15.5571 3.61712 15.4203 3.57622ZM18.7569 14.5639C18.8579 15.1801 18.9563 15.786 19.0586 16.4163C19.0816 16.3766 19.0931 16.3536 19.1072 16.3345C19.3488 15.9931 19.5904 15.6492 19.8359 15.313C19.8985 15.2274 19.9202 15.1213 19.9547 15.0101C19.5546 14.8605 19.1596 14.7122 18.7569 14.5639ZM4.93505 16.4086C4.94272 16.4009 4.95038 16.3933 4.95806 16.3856C5.05649 15.7809 5.15493 15.1762 5.25592 14.5626C4.84939 14.7135 4.45565 14.8605 4.06063 15.0075C4.09131 15.1353 4.12711 15.2427 4.19486 15.336C4.4352 15.6646 4.67042 16.0008 4.9082 16.3357C4.9197 16.3562 4.9261 16.3843 4.93505 16.4086ZM20.011 13.058C19.6121 13.4913 19.221 13.9145 18.8247 14.3453C19.2286 14.4961 19.6224 14.6419 20.0136 14.7876C20.0877 14.5716 20.0877 14.5716 20.0736 14.3479C20.0672 14.2417 20.0634 14.1369 20.0583 14.0295C20.043 13.7125 20.0276 13.3942 20.011 13.058ZM4.00183 13.0605C3.99927 13.0874 3.99799 13.1002 3.99799 13.1117C3.97754 13.5463 3.95836 13.981 3.93279 14.4156C3.92512 14.5524 3.95836 14.6662 3.99799 14.7902C4.39301 14.6432 4.78547 14.4961 5.18816 14.3453C4.78931 13.9132 4.40068 13.4926 4.00183 13.0605ZM17.8914 5.61395C17.6664 5.21382 17.4517 4.83542 17.2395 4.45318C17.1768 4.34069 17.0848 4.2985 17.0055 4.2218C16.7613 4.60659 16.5223 4.98371 16.2756 5.37362C16.815 5.45544 17.3456 5.53341 17.8914 5.61395ZM7.73853 5.37362C7.49053 4.98116 7.24891 4.60275 7.00346 4.21413C6.92932 4.28699 6.84495 4.34069 6.79253 4.4289C6.57393 4.79835 6.36555 5.1793 6.15334 5.55643C6.14567 5.57177 6.13928 5.58711 6.1265 5.61395C6.66597 5.53341 7.19522 5.45544 7.73853 5.37362ZM13.5219 20.9916C13.04 20.6899 12.5708 20.3984 12.0978 20.1031C12.0978 20.5812 12.0978 21.0517 12.0978 21.5157C12.1822 21.5157 12.2691 21.5413 12.3433 21.5106C12.7332 21.3483 13.1192 21.1719 13.5219 20.9916ZM11.915 20.1031C11.4394 20.3997 10.9703 20.6925 10.4922 20.9916C10.519 21.0044 10.5344 21.0108 10.5497 21.0184C10.9038 21.1757 11.2579 21.3304 11.612 21.4914C11.713 21.5375 11.8115 21.5183 11.915 21.5234C11.915 21.0504 11.915 20.5812 11.915 20.1031ZM20.7985 11.9176C20.5594 11.5789 20.3242 11.2452 20.0813 10.9001C20.1094 11.4792 20.1363 12.0353 20.1644 12.6067C20.3817 12.3702 20.5863 12.1465 20.7985 11.9176ZM3.92896 10.9218C3.92512 10.9205 3.92129 10.9167 3.91745 10.9154C3.68351 11.2465 3.44957 11.5802 3.21307 11.9164C3.42656 12.1478 3.63237 12.3715 3.84714 12.6041C3.87527 12.0327 3.90211 11.4779 3.92896 10.9218ZM4.94144 7.32059C5.21118 6.8412 5.47069 6.3797 5.74043 5.90031C5.44384 5.94505 5.16643 5.98724 4.88391 6.02943C4.90436 6.46024 4.92226 6.87955 4.94144 7.32059ZM19.1264 6.02943C18.8426 5.98724 18.5651 5.94633 18.2698 5.90159C18.5409 6.38098 18.8004 6.84376 19.0688 7.32187C19.0893 6.877 19.1085 6.45896 19.1264 6.02943ZM5.95903 18.174C5.96158 18.1689 5.96286 18.1638 5.96414 18.1587C5.66244 17.7343 5.36075 17.3111 5.05266 16.8778C4.99896 17.2076 4.94783 17.5233 4.89542 17.8455C5.25208 17.9554 5.60619 18.0641 5.95903 18.174ZM18.0448 18.16C18.0474 18.1651 18.0487 18.1689 18.0512 18.174C18.4053 18.0641 18.7595 17.9554 19.1148 17.8442C19.0612 17.5195 19.01 17.205 18.9576 16.8765C18.6482 17.315 18.3465 17.7368 18.0448 18.16ZM13.9847 21.0338C14.2302 21.1872 14.4603 21.3291 14.6904 21.4748C14.7262 21.4978 14.7441 21.4914 14.7684 21.4493C14.9486 21.1297 15.1289 20.8126 15.3091 20.4956C15.3181 20.4802 15.3244 20.4636 15.3398 20.4329C14.886 20.6324 14.4424 20.8292 13.9847 21.0338ZM10.0268 21.0312C9.56918 20.828 9.12558 20.6311 8.68198 20.4342C8.87118 20.7871 9.06422 21.1297 9.25981 21.4684C9.2662 21.4812 9.29049 21.4863 9.30072 21.4812C9.53977 21.338 9.77627 21.1885 10.0268 21.0312ZM10.317 2.81302C10.303 2.80024 10.2966 2.79512 10.2902 2.79129C9.96803 2.65067 9.64716 2.51132 9.32628 2.36942C9.2956 2.35536 9.28282 2.3707 9.27004 2.40266C9.20484 2.56374 9.13708 2.72353 9.07061 2.88461C9.02458 2.99583 8.97856 3.10833 8.92615 3.23361C9.39276 3.09299 9.85042 2.95492 10.317 2.81302ZM13.6894 2.81174C14.1611 2.95492 14.6175 3.09299 15.0841 3.23489C15.0713 3.20165 15.0637 3.18119 15.056 3.16202C14.9537 2.91529 14.8502 2.67112 14.7505 2.42311C14.73 2.37198 14.7121 2.3592 14.6699 2.37709C14.3644 2.5126 14.0589 2.64427 13.7533 2.7785C13.7341 2.78618 13.7175 2.7964 13.6894 2.81174ZM6.45121 13.0056C6.56498 13.2114 6.67748 13.4121 6.79509 13.6217C6.97278 12.9979 7.14409 12.3907 7.31667 11.7834C7.31283 11.7809 7.31028 11.777 7.30644 11.7745C7.02264 12.1836 6.73756 12.5926 6.45121 13.0056ZM17.5603 13.0056C17.2727 12.5914 16.9889 12.1836 16.7051 11.7745C16.7013 11.777 16.6987 11.7809 16.6949 11.7834C16.8675 12.3919 17.04 12.9992 17.2165 13.6205C17.3341 13.4082 17.4453 13.2101 17.5603 13.0056ZM8.65002 7.08282C8.63724 7.08154 8.63212 7.08026 8.62829 7.08154C8.44931 7.16207 8.27162 7.24261 8.09265 7.32187C8.06069 7.33593 8.06324 7.36406 8.06452 7.39858C8.07731 7.75269 8.09137 8.10552 8.10415 8.46091C8.10926 8.60792 8.11694 8.75622 8.12333 8.90323C8.12716 8.90323 8.131 8.90451 8.13483 8.90451C8.30486 8.29983 8.47616 7.69516 8.65002 7.08282ZM15.878 8.90451C15.8818 8.90451 15.8857 8.90323 15.8895 8.90323C15.892 8.87894 15.8933 8.85337 15.8946 8.82908C15.9138 8.34841 15.9317 7.86902 15.9496 7.38835C15.9521 7.3436 15.9368 7.3321 15.9112 7.32187C15.7412 7.24773 15.5712 7.16974 15.4024 7.09304C15.3909 7.08793 15.3794 7.08665 15.3615 7.08282C15.5354 7.69516 15.7067 8.29856 15.878 8.90451ZM10.4282 16.9979C10.4346 17.0197 10.4359 17.0248 10.4385 17.0286C10.675 17.4377 10.9115 17.8468 11.1467 18.2571C11.1672 18.2942 11.1889 18.2968 11.2183 18.2878C11.3448 18.2482 11.4701 18.2124 11.5967 18.174C11.6517 18.1574 11.7079 18.1408 11.7769 18.1204C11.3206 17.7407 10.8782 17.3738 10.4282 16.9979ZM13.582 17.0158C13.5795 17.0133 13.5782 17.0094 13.5756 17.0056C13.1333 17.3738 12.691 17.742 12.2461 18.1114C12.2525 18.1191 12.2551 18.1242 12.2589 18.1255C12.443 18.1804 12.6258 18.238 12.8099 18.2878C12.8278 18.2929 12.8572 18.2686 12.8712 18.2456C13.0847 17.8826 13.2944 17.5157 13.5053 17.1501C13.5296 17.1053 13.5564 17.0606 13.582 17.0158ZM6.96 14.7889C7.38826 14.9244 7.8114 15.0586 8.23455 15.1941C8.23582 15.1877 8.23838 15.1839 8.23838 15.1775C7.80245 14.8157 7.36653 14.4514 6.92165 14.082C6.93571 14.3274 6.94849 14.5537 6.96 14.7889ZM17.0886 14.0807C16.6412 14.4514 16.2078 14.8145 15.7732 15.1762C15.7757 15.1826 15.777 15.1865 15.7783 15.1929C16.2014 15.0586 16.6258 14.9231 17.0503 14.7902C17.0643 14.5562 17.0746 14.3287 17.0886 14.0807ZM10.6405 6.75939C10.6187 6.7466 10.6111 6.74276 10.6034 6.73765C10.2135 6.57018 9.82102 6.40144 9.42983 6.23653C9.41194 6.22886 9.37998 6.24547 9.36591 6.26593C9.25597 6.41294 9.14987 6.56379 9.04248 6.71464C9.03481 6.72487 9.02842 6.74021 9.01819 6.75939C9.55767 6.75939 10.0908 6.75939 10.6405 6.75939ZM14.9882 6.75939C14.9921 6.75044 14.9985 6.74149 15.0023 6.73382C14.8783 6.57146 14.7556 6.40655 14.629 6.24675C14.6175 6.23269 14.5881 6.23397 14.5702 6.24164C14.2762 6.36692 13.9821 6.4922 13.6868 6.61876C13.5858 6.66095 13.4849 6.70569 13.3839 6.74788C13.3851 6.75043 13.3851 6.75555 13.3864 6.75811C13.9208 6.75938 14.4551 6.75939 14.9882 6.75939ZM16.0097 5.81338C16.0058 5.8121 16.002 5.81082 15.9969 5.80827C15.7847 6.1432 15.5725 6.47942 15.3551 6.82202C15.561 6.91535 15.7565 7.00356 15.9598 7.09432C15.9764 6.65967 15.993 6.23653 16.0097 5.81338ZM8.01339 5.80827C8.00955 5.81082 8.00572 5.81338 8.00188 5.81594C8.0185 6.23908 8.03384 6.66222 8.05046 7.0956C8.25628 7.00227 8.45187 6.91407 8.65513 6.8233C8.43781 6.47686 8.2256 6.1432 8.01339 5.80827ZM12.0965 19.5879C12.31 19.2198 12.512 18.8669 12.7217 18.5051C12.5082 18.4412 12.3049 18.3824 12.0965 18.3198C12.0965 18.7416 12.0965 19.1546 12.0965 19.5879ZM11.915 19.5841C11.915 19.152 11.915 18.7378 11.915 18.3185C11.7066 18.3811 11.5034 18.4412 11.2912 18.5039C11.4995 18.8682 11.7028 19.2198 11.915 19.5841ZM9.21379 6.1432C8.86095 5.99236 8.51707 5.84534 8.17446 5.69705C8.17191 5.69961 8.17063 5.70472 8.16935 5.70728C8.38028 6.04093 8.59249 6.37203 8.79448 6.69163C8.93382 6.50754 9.07061 6.32985 9.21379 6.1432ZM14.8003 6.14065C14.9422 6.32729 15.079 6.50882 15.2171 6.69291C15.4216 6.37203 15.6325 6.03965 15.8422 5.70855C15.8396 5.706 15.8384 5.70088 15.8371 5.69833C15.4945 5.84406 15.1506 5.99236 14.8003 6.14065ZM17.6754 13.173C17.5603 13.3801 17.4478 13.5808 17.3315 13.7905C17.6779 13.9196 18.0167 14.0462 18.3555 14.1727C18.358 14.1676 18.3593 14.1638 18.3606 14.1599C18.1356 13.8314 17.9081 13.5041 17.6754 13.173ZM6.68003 13.7905C6.56242 13.5795 6.44993 13.3776 6.33487 13.173C6.10221 13.508 5.87593 13.8352 5.64966 14.1599C5.65222 14.165 5.6535 14.1689 5.65477 14.174C5.99482 14.0462 6.33231 13.9196 6.68003 13.7905ZM18.2788 14.399C18.2788 14.3939 18.2788 14.39 18.2788 14.3849C17.9451 14.2596 17.6102 14.1369 17.2701 14.0104C17.2574 14.2571 17.2446 14.4898 17.2331 14.7314C17.5859 14.6176 17.9323 14.5089 18.2788 14.399ZM6.77975 14.7301C6.76696 14.4834 6.75418 14.2507 6.7414 14.0091C6.40007 14.1356 6.06641 14.2596 5.73403 14.3836C5.73403 14.3888 5.73403 14.3926 5.73403 14.399C6.08047 14.5089 6.42564 14.6201 6.77975 14.7301ZM20.7192 12.3114C20.7167 12.3063 20.7141 12.3037 20.7115 12.2986C20.539 12.4853 20.3664 12.6719 20.1964 12.8598C20.1836 12.8739 20.1797 12.9148 20.181 12.9404C20.1925 13.205 20.2066 13.4709 20.2194 13.7368C20.2232 13.8186 20.227 13.903 20.2322 13.9848C20.236 13.9861 20.2398 13.9861 20.2449 13.9873C20.4022 13.43 20.5607 12.87 20.7192 12.3114ZM3.773 14.0027C3.77811 13.9758 3.78194 13.9656 3.78194 13.9567C3.79856 13.6115 3.81646 13.2638 3.83052 12.9186C3.8318 12.8931 3.81518 12.8573 3.79984 12.8406C3.64004 12.6642 3.47897 12.4904 3.31789 12.3152C3.31278 12.3088 3.30511 12.3063 3.28849 12.2961C3.45084 12.8713 3.60936 13.43 3.773 14.0027ZM19.7234 15.8231C19.7195 15.8218 19.717 15.818 19.7131 15.8167C19.5495 16.0468 19.391 16.2859 19.221 16.5032C19.1251 16.6246 19.097 16.7371 19.1366 16.9085C19.1813 17.1028 19.2056 17.306 19.2414 17.5272C19.405 16.9442 19.5636 16.383 19.7234 15.8231ZM4.77013 17.5195C4.7778 17.4863 4.78292 17.4658 4.78547 17.4479C4.82383 17.2101 4.8609 16.9736 4.90181 16.7371C4.90948 16.6898 4.90181 16.663 4.8788 16.631C4.69854 16.3779 4.51701 16.1248 4.33676 15.8704C4.32526 15.8551 4.31503 15.8436 4.30225 15.8282C4.29841 15.8308 4.29585 15.8346 4.29202 15.8372C4.45054 16.3933 4.60778 16.9494 4.77013 17.5195ZM9.00541 2.57396C9.00285 2.57141 9.0003 2.56757 8.99774 2.56502C8.59889 2.89867 8.19747 3.22977 7.79862 3.56343C8.09137 3.48928 8.38028 3.40235 8.66664 3.31287C8.68709 3.30648 8.71138 3.27963 8.72289 3.25151C8.80215 3.0687 8.87757 2.88333 8.953 2.69797C8.97217 2.6545 8.98879 2.61359 9.00541 2.57396ZM15.0151 2.56502C15.0125 2.56757 15.01 2.57013 15.0074 2.57269C15.0151 2.59186 15.0215 2.61231 15.0291 2.63021C15.1135 2.8322 15.1979 3.03546 15.2797 3.23872C15.2989 3.28602 15.3232 3.30775 15.359 3.31798C15.5085 3.36273 15.6581 3.40747 15.8077 3.45349C15.9406 3.49312 16.0736 3.53275 16.2078 3.57238C16.2091 3.56727 16.2104 3.56471 16.2116 3.5596C15.8128 3.22977 15.4127 2.89867 15.0151 2.56502ZM18.8247 5.75458C18.8259 5.74946 18.8272 5.74435 18.8272 5.73924C18.4296 5.40941 18.0333 5.07831 17.6358 4.74721C17.7904 5.04635 17.9502 5.33399 18.1126 5.61907C18.1228 5.63569 18.142 5.64847 18.1586 5.65103C18.3811 5.6881 18.6035 5.72134 18.8247 5.75458ZM6.38217 4.76255C6.37834 4.75744 6.37578 4.7536 6.37322 4.74977C5.97565 5.07959 5.57935 5.41197 5.18049 5.74179C5.40677 5.72262 5.62921 5.6881 5.85037 5.65358C5.86699 5.65103 5.88744 5.63824 5.89639 5.62162C6.0613 5.33399 6.2211 5.04891 6.38217 4.76255ZM4.24856 9.05152C4.36233 9.25734 4.47099 9.45165 4.56943 9.62679C4.66147 9.51302 4.75224 9.39796 4.843 9.28419C4.84812 9.27652 4.85451 9.26118 4.85323 9.25095C4.84812 9.1001 4.84172 8.94925 4.83533 8.78818C4.6359 8.87638 4.44543 8.96203 4.24856 9.05152ZM19.4434 9.62679C19.5418 9.45038 19.6505 9.25351 19.7643 9.05152C19.5661 8.96203 19.3744 8.87638 19.1775 8.78818C19.1711 8.94925 19.1634 9.09499 19.1596 9.24328C19.1596 9.25734 19.1634 9.27524 19.1711 9.28419C19.2606 9.39924 19.3513 9.51174 19.4434 9.62679ZM12.4008 3.13262C12.2627 2.94981 12.1298 2.77595 12.0096 2.61871C11.883 2.78362 11.7514 2.95492 11.6133 3.13517C11.745 3.1927 11.869 3.24767 11.9943 3.30136C12.0045 3.30648 12.016 3.30136 12.0262 3.29881C12.1464 3.24256 12.2678 3.19014 12.4008 3.13262ZM16.8419 18.7826C16.7038 18.8247 16.5721 18.8644 16.4418 18.9053C16.429 18.9104 16.4136 18.9206 16.4047 18.936C16.3369 19.0536 16.2704 19.1699 16.1989 19.2977C16.4047 19.3591 16.6041 19.4179 16.8061 19.4793C16.8176 19.2441 16.8291 19.0203 16.8419 18.7826ZM7.81396 19.299C7.74109 19.1699 7.67589 19.0536 7.60814 18.9398C7.60047 18.9257 7.58769 18.9142 7.57746 18.9104C7.44323 18.8682 7.309 18.8273 7.16965 18.7838C7.18244 19.0191 7.19394 19.2466 7.20673 19.4793C7.40999 19.4192 7.60686 19.3591 7.81396 19.299ZM9.66761 21.5055C9.66761 21.5106 9.66889 21.5157 9.66889 21.5208C10.1432 21.5208 10.62 21.5208 11.1032 21.5208C11.0917 21.5106 11.0892 21.5042 11.0841 21.503C10.8182 21.3841 10.551 21.2652 10.2838 21.1488C10.271 21.1425 10.2544 21.1424 10.2416 21.1501C10.0486 21.2677 9.85809 21.3866 9.66761 21.5055ZM14.3439 21.5196C14.3439 21.5157 14.3452 21.5106 14.3452 21.5042C14.1547 21.3853 13.9643 21.2652 13.7712 21.1476C13.7546 21.1373 13.7278 21.145 13.7086 21.154C13.5155 21.237 13.3225 21.324 13.1295 21.4109C13.0579 21.4429 12.9876 21.4748 12.916 21.5068C12.9173 21.5119 12.9173 21.5157 12.9185 21.5183C13.3928 21.5196 13.8684 21.5196 14.3439 21.5196ZM3.39587 11.3258C3.40866 11.3155 3.41505 11.3117 3.41761 11.3079C3.58763 11.0675 3.75766 10.8272 3.92512 10.5856C3.94046 10.5626 3.94813 10.5229 3.94941 10.4897C3.95964 10.3363 3.96603 10.1803 3.97242 10.0269C3.97754 9.9042 3.98265 9.77892 3.98776 9.65619C3.98393 9.65491 3.98009 9.65492 3.97498 9.65364C3.7845 10.2059 3.59274 10.7582 3.39587 11.3258ZM20.6016 11.3181C20.6054 11.3155 20.608 11.313 20.6106 11.3104C20.4175 10.7569 20.2258 10.2021 20.0327 9.64852C20.034 9.94255 20.0468 10.2315 20.0621 10.5191C20.0634 10.5408 20.0711 10.5651 20.0813 10.5805C20.2552 10.8259 20.429 11.0726 20.6016 11.3181ZM19.2849 6.62899C19.281 6.62899 19.2772 6.62899 19.2734 6.63027C19.2593 6.94219 19.244 7.25539 19.2325 7.56732C19.2312 7.59289 19.244 7.62485 19.2555 7.64786C19.3833 7.87797 19.5111 8.10552 19.6403 8.33435C19.6467 8.34713 19.653 8.35864 19.6607 8.37142C19.6646 8.36887 19.6658 8.36503 19.6697 8.3612C19.5418 7.78465 19.4127 7.20682 19.2849 6.62899ZM4.73817 6.63282C4.73434 6.63154 4.7305 6.63027 4.72667 6.62771C4.59755 7.20554 4.46971 7.78465 4.33932 8.36887C4.34827 8.36375 4.3521 8.36247 4.35338 8.35992C4.49145 8.11702 4.62951 7.87158 4.7663 7.62613C4.77525 7.60951 4.77908 7.58394 4.77908 7.56348C4.76758 7.25539 4.75351 6.94347 4.73817 6.63282ZM16.3459 19.9957C16.3293 19.997 16.3241 19.9957 16.3178 19.997C16.0953 20.0955 15.8716 20.1939 15.6504 20.2949C15.6313 20.3038 15.6134 20.3268 15.6006 20.3499C15.4702 20.5787 15.3385 20.8075 15.2081 21.0389C15.1992 21.0555 15.1915 21.0721 15.1825 21.0888C15.1851 21.0913 15.1864 21.0939 15.1889 21.0964C15.5725 20.7308 15.956 20.3665 16.3459 19.9957ZM8.8226 21.0951C8.82516 21.0926 8.82644 21.0875 8.83027 21.0849C8.73951 20.9238 8.63979 20.7717 8.55798 20.6017C8.45315 20.3793 8.31764 20.2348 8.12588 20.1913C8.09648 20.1849 8.07091 20.167 8.04151 20.153C7.92262 20.1018 7.80373 20.0482 7.68484 19.9957C7.68229 20.0009 7.68101 20.0047 7.67973 20.0111C8.06069 20.3716 8.44164 20.7334 8.8226 21.0951ZM18.5856 18.261C18.5856 18.2559 18.5843 18.2533 18.5843 18.2482C18.5792 18.2482 18.5728 18.2469 18.5677 18.2482C18.3286 18.3223 18.0896 18.3965 17.8505 18.4719C17.8275 18.4796 17.8045 18.5013 17.7866 18.523C17.6639 18.6931 17.5412 18.8669 17.4184 19.0395C17.3967 19.0702 17.3699 19.0958 17.3443 19.1226C17.3494 19.1303 17.3558 19.1392 17.3596 19.1469C17.7687 18.8529 18.1778 18.5576 18.5856 18.261ZM6.64935 19.1482C6.65319 19.1431 6.65447 19.1392 6.6583 19.1341C6.50745 18.9232 6.35661 18.7097 6.20576 18.5C6.19297 18.4834 6.1738 18.477 6.15718 18.4706C5.99482 18.4208 5.83375 18.3696 5.67139 18.3198C5.59085 18.2955 5.50904 18.2699 5.4285 18.2456C5.42722 18.2507 5.42594 18.2559 5.42467 18.261C5.83375 18.5563 6.24155 18.8529 6.64935 19.1482ZM14.0742 2.39883C14.0742 2.39371 14.0742 2.38988 14.0742 2.38349C13.6063 2.418 13.1384 2.45252 12.6705 2.48703C12.6833 2.50237 12.6974 2.51004 12.7114 2.5126C12.8661 2.5599 13.0234 2.5957 13.1755 2.65578C13.302 2.70436 13.4171 2.69669 13.5398 2.63405C13.715 2.5484 13.8952 2.47809 14.0742 2.39883ZM11.3448 2.5011C11.3448 2.49598 11.3436 2.49343 11.3436 2.48831C10.8757 2.4538 10.4078 2.41928 9.92201 2.38349C9.94246 2.39883 9.94886 2.40522 9.95525 2.40777C10.1777 2.50493 10.4014 2.60209 10.6238 2.69797C10.6417 2.70564 10.6635 2.70564 10.6826 2.69925C10.813 2.66089 10.9422 2.62254 11.0726 2.58419C11.162 2.55734 11.2528 2.52922 11.3448 2.5011ZM19.5405 9.82494C19.6543 9.96684 19.7681 10.1062 19.8716 10.2353C19.8589 9.95533 19.8422 9.64469 19.8282 9.33404C19.8244 9.33276 19.8205 9.33148 19.8154 9.32893C19.7272 9.49 19.6377 9.65108 19.5405 9.82494ZM4.19614 9.33149C4.19231 9.33277 4.18591 9.33404 4.18208 9.3366C4.16802 9.64597 4.15268 9.95406 4.13861 10.2315C4.24216 10.1036 4.35466 9.96301 4.46843 9.82239C4.37511 9.65108 4.28435 9.49128 4.19614 9.33149ZM19.2133 7.96362C19.2043 8.1656 19.1967 8.34457 19.1915 8.52227C19.1915 8.53505 19.2043 8.55295 19.212 8.55679C19.3565 8.62326 19.5009 8.68974 19.662 8.76133C19.5099 8.48903 19.3667 8.23591 19.2133 7.96362ZM4.79826 7.96362C4.64485 8.23591 4.50167 8.48903 4.34955 8.76133C4.51062 8.68846 4.65508 8.62454 4.79826 8.55679C4.80848 8.55168 4.81999 8.52738 4.81999 8.5146C4.81488 8.33818 4.80593 8.16305 4.79826 7.96362ZM16.9902 19.3067C17.1666 19.0587 17.3315 18.8273 17.4964 18.5959C17.3417 18.6292 17.1947 18.6739 17.0477 18.7225C17.0362 18.725 17.0209 18.7455 17.0196 18.7595C17.0094 18.9321 17.0004 19.1073 16.9902 19.3067ZM7.01881 19.2441C7.01114 19.1009 7.00219 18.9257 6.99196 18.7506C6.99068 18.7378 6.97662 18.7238 6.96639 18.7199C6.8181 18.6726 6.66853 18.6266 6.52024 18.5819C6.5164 18.5882 6.51512 18.5921 6.51129 18.5985C6.68259 18.8184 6.85517 19.037 7.01881 19.2441ZM16.5351 19.6544C16.5351 19.648 16.5338 19.6416 16.5338 19.6378C16.3906 19.5956 16.2474 19.5521 16.1043 19.5112C16.094 19.5087 16.0761 19.5138 16.071 19.5253C15.9879 19.6685 15.9061 19.8129 15.8243 19.9574C15.8269 19.9625 15.8281 19.9651 15.8307 19.9702C16.0646 19.8628 16.2999 19.7592 16.5351 19.6544ZM13.0195 2.86032C13.0195 2.85521 13.0195 2.85137 13.0195 2.84626C12.7728 2.77211 12.5286 2.69669 12.2819 2.62254C12.2781 2.63021 12.273 2.6366 12.2691 2.64427C12.3676 2.77339 12.466 2.90251 12.5644 3.03035C12.5734 3.04057 12.5925 3.04569 12.6028 3.04057C12.7434 2.98305 12.8815 2.92168 13.0195 2.86032ZM8.19875 19.9753C8.14378 19.8781 8.09776 19.7976 8.05174 19.7183C8.01211 19.648 7.98015 19.5457 7.92901 19.5202C7.87404 19.4946 7.80118 19.5419 7.73726 19.5598C7.65033 19.5841 7.56467 19.611 7.47775 19.6391C7.47775 19.6455 7.47775 19.6493 7.47775 19.6557C7.71297 19.7592 7.94947 19.8641 8.19875 19.9753ZM10.992 2.84882C10.992 2.85393 10.992 2.85776 10.992 2.86288C11.1301 2.92424 11.2681 2.9856 11.4075 3.04441C11.419 3.04952 11.4382 3.04441 11.4458 3.03418C11.5443 2.90634 11.6427 2.77723 11.7411 2.64811C11.7373 2.64172 11.7335 2.63405 11.7284 2.62893C11.4829 2.69925 11.2375 2.77339 10.992 2.84882ZM19.0739 10.2647C19.0778 10.266 19.0803 10.2698 19.0842 10.2711C19.166 10.1254 19.2478 9.97707 19.3322 9.82622C19.2631 9.73929 19.1992 9.65875 19.1327 9.5731C19.1123 9.80193 19.0931 10.0333 19.0739 10.2647ZM4.92738 10.2698C4.93121 10.2685 4.93377 10.2647 4.93888 10.2634C4.91843 10.032 4.90053 9.80065 4.88135 9.58077C4.81488 9.66259 4.74968 9.74313 4.68193 9.8275C4.76502 9.97835 4.84684 10.1241 4.92738 10.2698ZM7.14664 18.0526C7.14281 18.0539 7.13642 18.0552 7.13258 18.0577C7.14025 18.2098 7.1492 18.362 7.15815 18.5141C7.15943 18.5256 7.1671 18.5448 7.17477 18.5473C7.26042 18.5767 7.34607 18.6023 7.44706 18.633C7.33968 18.4272 7.2438 18.2392 7.14664 18.0526ZM16.879 18.059C16.8751 18.0577 16.8687 18.0564 16.8649 18.0539C16.7677 18.2431 16.6706 18.4297 16.5658 18.6355C16.6629 18.6049 16.746 18.5806 16.8278 18.5537C16.8393 18.5512 16.8534 18.5307 16.8547 18.5179C16.8636 18.3632 16.8713 18.2111 16.879 18.059ZM5.01686 9.04641C5.15109 8.87127 5.27509 8.71147 5.39782 8.55039C5.2687 8.5913 5.14726 8.64627 5.02453 8.7038C5.0143 8.70892 5.00408 8.73704 5.00408 8.75366C5.00791 8.84442 5.01303 8.93647 5.01686 9.04641ZM18.9934 9.04641C18.9972 8.9403 18.9998 8.85209 19.0062 8.76389C19.0087 8.72298 18.996 8.70636 18.9691 8.69357C18.8707 8.65139 18.7722 8.60537 18.6738 8.56062C18.6546 8.55167 18.6355 8.54528 18.6163 8.53633C18.615 8.54145 18.6137 8.54528 18.6124 8.55039C18.7364 8.71147 18.8592 8.87127 18.9934 9.04641ZM11.7488 3.4292C11.6555 3.38829 11.5775 3.3525 11.4995 3.32054C11.4919 3.31798 11.4778 3.32309 11.4701 3.33332C11.3845 3.44326 11.3001 3.55448 11.2145 3.66442C11.2183 3.67209 11.2234 3.67976 11.2272 3.68743C11.396 3.60562 11.5635 3.52252 11.7488 3.4292ZM12.783 3.68871C12.7869 3.67976 12.792 3.67209 12.7958 3.66314C12.7127 3.55448 12.6309 3.4471 12.5478 3.34099C12.5389 3.32821 12.5197 3.31926 12.5095 3.32437C12.4328 3.35506 12.356 3.38957 12.264 3.43048C12.4468 3.52252 12.6143 3.60434 12.783 3.68871ZM16.172 18.9781C15.9828 19.0267 15.8064 19.0715 15.63 19.1162C15.7514 19.1661 15.8729 19.2031 15.9943 19.2364C16.0071 19.2389 16.0263 19.2287 16.0352 19.2147C16.08 19.1418 16.1209 19.0676 16.172 18.9781ZM7.83953 18.9781C7.89066 19.0676 7.93413 19.1456 7.97887 19.221C7.98526 19.2313 8.00188 19.2389 8.01083 19.2377C8.13483 19.2031 8.25756 19.1661 8.38156 19.129C8.38156 19.1239 8.38156 19.1201 8.38028 19.1149C8.20514 19.0702 8.02873 19.0267 7.83953 18.9781ZM16.0825 10.2954C16.0621 10.2225 16.0442 10.1586 16.0263 10.096C16.0224 10.0972 16.0173 10.0985 16.0135 10.0985C16.0135 10.1714 16.0135 10.2443 16.0135 10.321C16.0352 10.312 16.0557 10.3043 16.0825 10.2954ZM7.99804 10.321C7.99804 10.2404 7.99804 10.1701 7.99804 10.0985C7.99421 10.0972 7.99038 10.0972 7.98526 10.096C7.96609 10.1612 7.94819 10.2264 7.92901 10.2954C7.95714 10.3056 7.97631 10.312 7.99804 10.321ZM7.86893 10.5063C7.84847 10.5754 7.83186 10.6367 7.81396 10.6994C7.81779 10.7019 7.81907 10.7045 7.82291 10.707C7.86126 10.6521 7.89833 10.5971 7.9418 10.5344C7.91495 10.5255 7.89578 10.5178 7.86893 10.5063ZM16.0697 10.5344C16.1145 10.5984 16.1516 10.6533 16.1899 10.7083C16.1925 10.707 16.195 10.7032 16.1976 10.7019C16.1797 10.638 16.1605 10.5741 16.1426 10.5089C16.117 10.5178 16.0991 10.5229 16.0697 10.5344ZM9.67784 16.0954C9.68167 16.0903 9.68295 16.0877 9.68679 16.0826C9.65483 16.0264 9.62159 15.9714 9.5858 15.9088C9.57046 15.9356 9.55767 15.9561 9.54361 15.9803C9.59219 16.0238 9.63437 16.0596 9.67784 16.0954ZM14.4257 15.9113C14.3887 15.974 14.3567 16.0302 14.3248 16.0852C14.3273 16.0903 14.3299 16.0928 14.3324 16.098C14.3784 16.0596 14.4219 16.0238 14.4769 15.9791C14.4551 15.9497 14.4424 15.933 14.4257 15.9113ZM9.43367 15.8052C9.38637 15.7911 9.34418 15.7784 9.29432 15.763C9.37742 15.8678 9.39915 15.873 9.43367 15.8052ZM14.7223 15.7605C14.6674 15.7771 14.6252 15.7911 14.5817 15.8052C14.6111 15.8768 14.6239 15.8717 14.7223 15.7605ZM12.0991 7.06364C12.1362 7.04702 12.1732 7.03168 12.2244 7.00867C12.1042 6.98438 12.0914 6.98949 12.0991 7.06364ZM11.915 7.06492C11.9163 6.99205 11.8856 6.97927 11.7961 7.01378C11.8396 7.03168 11.8754 7.04702 11.915 7.06492Z" fill="#FFA700"/>
</svg>
