<svg width="24" height="24" viewBox="0 0 24 24" fill="none" xmlns="http://www.w3.org/2000/svg">
<path d="M15.7787 19.8583L14.305 20.5015C13.914 20.751 13.1915 20.9817 12.8718 21.296C12.4853 21.6762 12.7754 22.4473 12.0376 22.4761C11.2998 22.5049 11.4953 21.9635 11.262 21.5366C11.0314 21.115 10.1252 20.7132 9.68467 20.5015L8.21094 19.8583H15.7778H15.7787Z" fill="#E62139"/>
<path d="M17.5804 14.4535H6.41028C6.59224 13.9437 7.48585 13.9122 8.00292 13.659C9.32171 13.0131 10.2135 11.7358 10.5126 10.3134C10.6063 9.86659 10.5892 9.35763 10.6828 8.95227C10.754 8.64509 11.1801 8.23882 11.1801 8.19288C11.1801 8.16405 10.8918 7.93615 10.8432 7.72355C10.6837 7.02182 10.9909 6.29847 11.045 5.63997C11.1197 4.73195 11.045 3.61674 11.2053 2.71953C11.3765 1.75926 12.6142 1.76106 12.7844 2.71953C12.9457 3.62845 12.9115 4.80852 12.9862 5.76068C13.0331 6.35522 13.2997 7.12902 13.1439 7.72085C13.1033 7.87489 12.8214 8.13342 12.8214 8.19378C12.8214 8.24242 13.2637 8.73517 13.3258 9.02343C13.4069 9.39907 13.388 9.88821 13.4772 10.3134C13.8519 12.0925 14.7978 13.1176 16.4373 13.8392C16.8255 14.0103 17.5065 13.9842 17.5795 14.4535H17.5804Z" fill="#E62139"/>
<path d="M2.69265 15.285L21.4494 15.3138C21.8305 15.5003 22.0214 15.8787 21.998 16.2966C21.9115 17.8262 19.2866 18.6766 18.0678 19.0396L6.00404 19.0477C4.80956 18.7036 2.3161 17.9154 2.03595 16.5299C1.91614 15.9381 2.08549 15.4607 2.69174 15.2841L2.69265 15.285Z" fill="#E62139"/>
</svg>
