<svg width="24" height="24" viewBox="0 0 24 24" fill="none" xmlns="http://www.w3.org/2000/svg">
<path d="M20.9392 10.892C20.1876 11.7331 19.3058 12.448 18.3274 13.0094C18.073 14.4988 17.3012 15.8507 16.1481 16.8271C14.995 17.8035 13.5344 18.3419 12.0235 18.3475C10.5125 18.353 9.04798 17.8254 7.88771 16.8575C6.72744 15.8896 5.94578 14.5434 5.68033 13.056C5.44996 12.924 5.22217 12.7971 5.00216 12.634C4.2842 12.1596 3.63003 11.595 3.05565 10.9542C3.01965 11.2773 3.0015 11.6022 3.00129 11.9274C2.98103 13.122 3.19882 14.3086 3.64195 15.4181C4.08508 16.5277 4.74469 17.5379 5.58231 18.3898C6.41992 19.2417 7.41878 19.9184 8.52063 20.3803C9.62248 20.8421 10.8053 21.08 12 21.08C13.1947 21.08 14.3775 20.8421 15.4794 20.3803C16.5812 19.9184 17.5801 19.2417 18.4177 18.3898C19.2553 17.5379 19.9149 16.5277 20.358 15.4181C20.8012 14.3086 21.019 13.122 20.9987 11.9274C20.9985 11.5814 20.9786 11.2358 20.9392 10.892Z" fill="#024391"/>
<path d="M12.0007 2.92999C9.95585 2.93007 7.97204 3.62667 6.37607 4.90504C4.78011 6.18341 3.6672 7.96729 3.2207 9.96278L3.32942 10.0793C3.99887 10.7576 4.75939 11.3395 5.58912 11.8083C5.63344 10.1379 6.32738 8.55061 7.52347 7.38371C8.71956 6.21681 10.3235 5.56231 11.9945 5.55928C13.6656 5.55625 15.2719 6.20492 16.4722 7.36747C17.6725 8.53001 18.3722 10.1148 18.4226 11.785C19.2193 11.3288 19.9522 10.7692 20.6021 10.1207C20.6642 10.0586 20.7211 9.99643 20.7807 9.93431C20.3281 7.94431 19.2127 6.16719 17.6174 4.89449C16.022 3.62179 14.0415 2.92908 12.0007 2.92999Z" fill="#028AC6"/>
<path d="M11.998 6.09296C15.2201 6.09296 17.8328 8.70489 17.833 11.9269C17.833 15.1492 15.2203 17.7619 11.998 17.7619C8.77599 17.7617 6.16406 15.149 6.16406 11.9269C6.16425 8.705 8.77611 6.09315 11.998 6.09296ZM11.7256 6.92596H11.7002L11.4883 6.94452H11.4336L11.25 6.97089H11.1768L11.0117 6.99921L10.9258 7.01678L10.7686 7.07147L10.6777 7.09686L10.5332 7.13885L10.4346 7.1701L10.2998 7.216L10.2012 7.25214L10.0049 7.33319L9.92188 7.36932L9.69141 7.48065L9.55176 7.5578L9.45898 7.60956L9.30273 7.70526L9.24609 7.74139C9.06539 7.8614 8.89252 7.99298 8.72852 8.13495L8.69727 8.15839L8.54004 8.30096C8.52823 8.31148 8.51638 8.32237 8.50586 8.33417C8.45414 8.38416 8.4023 8.43601 8.35059 8.48944C8.29883 8.54379 8.24971 8.59852 8.20312 8.65546C9.62233 8.21832 11.1311 8.15938 12.5801 8.48456C16.0742 9.3335 16.9104 12.9231 15.0732 13.5939C13.2355 14.2643 12.0103 12.6991 10.5479 13.6594C9.69937 14.216 9.73249 15.4943 9.89551 16.4699L10.0254 16.5324C11.0457 16.9695 12.1823 17.0557 13.2568 16.7775C14.3314 16.4993 15.283 15.8718 15.9629 14.9943V14.9787C16.0095 14.9218 16.0543 14.8621 16.0957 14.8L16.124 14.759C16.1601 14.7074 16.1959 14.653 16.2295 14.5988C16.2631 14.5445 16.2533 14.5593 16.2637 14.5412C16.2745 14.5223 16.3262 14.4373 16.3545 14.3859C16.368 14.3645 16.3802 14.3416 16.3906 14.3185C16.419 14.2695 16.4449 14.2178 16.4707 14.1662L16.5068 14.0939L16.5771 13.9406C16.5899 13.9149 16.6005 13.8868 16.6133 13.8586L16.667 13.7189C16.6825 13.6827 16.696 13.6487 16.709 13.6125L16.748 13.4982C16.7481 13.4543 16.7761 13.4103 16.7891 13.3664L16.8125 13.2814C16.828 13.2271 16.8435 13.1747 16.8564 13.1203C16.8693 13.0663 16.8565 13.0817 16.8564 13.0637C16.872 13.0016 16.8845 12.9369 16.8975 12.8723C16.8975 12.8723 16.8975 12.8562 16.8975 12.8459C16.9104 12.7735 16.9233 12.7011 16.9336 12.6262C17.0588 11.8028 16.9765 10.9612 16.6934 10.1779C16.3195 9.1777 15.6356 8.32225 14.7422 7.73749C13.8488 7.15287 12.7917 6.86831 11.7256 6.92596ZM12.8799 9.86444C11.4459 9.05426 9.2554 9.1185 7.7334 9.30487C7.6054 9.51191 7.49344 9.72864 7.39746 9.95233C6.91484 11.0753 6.85885 12.3363 7.24121 13.4973C7.6236 14.6581 8.41821 15.6387 9.47363 16.2551C8.98442 15.0696 8.56768 13.4881 9.47363 12.7814C10.998 11.5782 11.9788 12.4398 13.1436 12.3078C14.3083 12.1758 15.2919 11.2129 12.8799 9.86444Z" fill="#028AC6"/>
</svg>
