<svg width="24" height="24" viewBox="0 0 24 24" fill="none" xmlns="http://www.w3.org/2000/svg">
<path d="M13.693 7.23425H10.8035L12.1623 3.69742H8.88883C7.40022 3.69742 6.19141 2.49044 6.19141 1H16.0868L13.693 7.23425Z" fill="#B1CB43"/>
<path d="M11.998 8.46124C11.464 8.46124 10.3192 8.46124 10.3192 8.46124L9.28225 11.1587C9.28225 11.1587 11.4512 11.1587 11.998 11.1587C14.5198 11.1587 16.5699 13.2087 16.5699 15.7306C16.5699 18.2524 14.5198 20.3025 11.998 20.3025C9.47793 20.3025 7.42606 18.2524 7.42606 15.7306C7.42606 15.4892 7.44801 15.2551 7.48458 15.0247H4.76522C4.74144 15.2569 4.73047 15.4928 4.73047 15.7306C4.73047 19.7392 7.99115 22.9999 11.998 22.9999C16.0066 22.9999 19.2673 19.7392 19.2673 15.7306C19.2673 11.7219 16.0066 8.46124 11.998 8.46124Z" fill="#E13A5C"/>
</svg>
