<svg width="24" height="24" viewBox="0 0 24 24" fill="none" xmlns="http://www.w3.org/2000/svg">
<path d="M12 2C17.5228 2 22 6.47716 22 12C22 17.5228 17.5228 22 12 22C6.47716 22 2 17.5228 2 12C2 6.47716 6.47716 2 12 2ZM16.5889 4.43848C16.1889 4.03848 15.5602 4.03848 15.1602 4.43848L11.96 7.6377L8.75977 4.43848C8.35977 4.03848 7.73105 4.03848 7.33105 4.43848L4.49316 7.27637C4.09334 7.67638 4.09322 8.30514 4.49316 8.70508L7.69336 11.9053L4.49316 15.1045C4.09322 15.5044 4.09334 16.1332 4.49316 16.5332L7.33105 19.3711C7.73105 19.7711 8.35977 19.7711 8.75977 19.3711L11.96 16.1719L15.1602 19.3711C15.5602 19.7711 16.1889 19.7711 16.5889 19.3711L19.4268 16.5332C19.8266 16.1332 19.8267 15.5045 19.4268 15.1045L16.2266 11.9053L19.4268 8.70508C19.8267 8.30511 19.8267 7.67637 19.4268 7.27637L16.5889 4.43848Z" fill="#FF003A"/>
</svg>
