<svg width="24" height="24" viewBox="0 0 24 24" fill="none" xmlns="http://www.w3.org/2000/svg">
<path d="M11.4687 3.4427V10.0901C11.4687 11.2701 11.0917 12.1732 10.3356 12.7972C9.58161 13.4213 8.56778 13.7344 7.2941 13.7344C6.0119 13.7344 4.99167 13.4213 4.2313 12.7972C3.47092 12.1732 3.0918 11.2701 3.0918 10.0901V3.4427H5.45386V10.0901C5.45386 10.727 5.61147 11.1913 5.9267 11.4831C6.24193 11.7749 6.69772 11.9219 7.29197 11.9219C7.88195 11.9219 8.33136 11.777 8.6402 11.4873C8.94903 11.1977 9.10452 10.7312 9.10452 10.0901V3.4427H11.4687Z" fill="#00ABFF"/>
<path d="M20.9997 12.3265C20.6568 12.7078 20.1626 13.0379 19.5194 13.3169C18.8762 13.596 18.0476 13.7344 17.0359 13.7344C15.758 13.7344 14.7356 13.3553 13.9667 12.5992C13.1978 11.843 12.8145 10.8335 12.8145 9.5747V7.45758C12.8145 6.20732 13.1914 5.20201 13.9433 4.44163C14.6952 3.67913 15.6856 3.3 16.9103 3.3C18.2393 3.3 19.2212 3.59819 19.8602 4.19456C20.4991 4.79094 20.8761 5.63225 20.9933 6.72063H18.7228C18.644 6.1775 18.4736 5.77282 18.2138 5.50871C17.9539 5.2446 17.545 5.11255 16.9869 5.11255C16.4246 5.11255 15.9795 5.32554 15.6536 5.74939C15.3256 6.17537 15.1616 6.7398 15.1616 7.44693V9.57896C15.1616 10.2989 15.3235 10.8697 15.6451 11.2935C15.9688 11.7174 16.431 11.9282 17.0359 11.9282C17.4768 11.9282 17.8197 11.8942 18.0625 11.8281C18.3053 11.7621 18.5013 11.6663 18.644 11.5449V9.94317H17.0487V8.38195H20.9997V12.3265Z" fill="#00ABFF"/>
<path d="M20.9295 16.1518H3V17.5022H20.9295V16.1518Z" fill="#00ABFF"/>
<path d="M20.9295 19.285H3V20.6353H20.9295V19.285Z" fill="#00ABFF"/>
</svg>
