<svg width="24" height="24" viewBox="0 0 24 24" fill="none" xmlns="http://www.w3.org/2000/svg">
<path d="M16.7149 11.1803C16.7149 11.7028 17.0633 11.9491 17.4806 11.7269C17.7043 11.5775 17.8883 11.3758 18.0165 11.1393C18.1447 10.9027 18.2133 10.6385 18.2165 10.3695C18.2165 9.84398 17.871 9.60061 17.4537 9.82295C17.2295 9.97216 17.0451 10.1737 16.9164 10.4103C16.7877 10.6468 16.7185 10.9111 16.7149 11.1803ZM16.6939 15.4805C16.6939 16.0032 17.0392 16.2494 17.4567 16.0271C17.683 15.8794 17.8696 15.6784 18 15.4417C18.1303 15.205 18.2006 14.9399 18.2044 14.6697C18.2044 14.1442 17.859 13.901 17.4416 14.1231C17.2142 14.2701 17.0264 14.4708 16.895 14.7075C16.7635 14.9443 16.6923 15.2098 16.6878 15.4805H16.6939ZM15.0898 14.1533C15.0898 14.6758 15.435 14.9221 15.8554 14.6997C16.0815 14.5518 16.2678 14.3507 16.3982 14.1141C16.5285 13.8774 16.5989 13.6125 16.6031 13.3424C16.6031 12.817 16.2579 12.5736 15.8405 12.796C15.6131 12.9431 15.4251 13.1438 15.2932 13.3805C15.1612 13.6171 15.0893 13.8825 15.0837 14.1533H15.0898ZM13.411 12.8919C13.411 13.4144 13.7563 13.6607 14.1738 13.4385C14.3979 13.2893 14.5823 13.0877 14.711 12.8512C14.8397 12.6147 14.9089 12.3504 14.9125 12.0812C14.9125 11.5556 14.5642 11.3124 14.1467 11.5346C13.9227 11.6837 13.7387 11.8854 13.6105 12.1219C13.4824 12.3585 13.4141 12.6229 13.4116 12.8919H13.411ZM13.3869 17.1923C13.3869 17.7179 13.7324 17.9611 14.1497 17.7389C14.3787 17.5928 14.5681 17.3925 14.7011 17.1557C14.8342 16.919 14.9068 16.6531 14.9125 16.3815C14.9125 15.856 14.5673 15.6128 14.1467 15.835C13.9186 15.9817 13.7301 16.1822 13.5977 16.4189C13.4653 16.6556 13.3931 16.9212 13.3875 17.1923H13.3869ZM13.3869 17.1923C13.3869 17.7179 13.7324 17.9611 14.1497 17.7389C14.3787 17.5928 14.5681 17.3925 14.7011 17.1557C14.8342 16.919 14.9068 16.6531 14.9125 16.3815C14.9125 15.856 14.5673 15.6128 14.1467 15.835C13.9186 15.9817 13.7301 16.1822 13.5977 16.4189C13.4653 16.6556 13.3931 16.9212 13.3875 17.1923H13.3869ZM13.411 12.8919C13.411 13.4144 13.7563 13.6607 14.1738 13.4385C14.3979 13.2893 14.5823 13.0877 14.711 12.8512C14.8397 12.6147 14.9089 12.3504 14.9125 12.0812C14.9125 11.5556 14.5642 11.3124 14.1467 11.5346C13.9227 11.6837 13.7387 11.8854 13.6105 12.1219C13.4824 12.3585 13.4141 12.6229 13.4116 12.8919H13.411ZM15.0837 14.1533C15.0837 14.6758 15.4291 14.9221 15.8495 14.6997C16.0755 14.5518 16.2619 14.3507 16.3922 14.1141C16.5226 13.8774 16.5929 13.6125 16.5972 13.3424C16.5972 12.817 16.2519 12.5736 15.8344 12.796C15.6082 12.9439 15.4215 13.1449 15.2907 13.3815C15.16 13.6181 15.0891 13.8831 15.0842 14.1533H15.0837ZM16.6873 15.4805C16.6873 16.0032 17.0327 16.2494 17.4501 16.0271C17.6764 15.8795 17.863 15.6785 17.9934 15.4418C18.1238 15.2051 18.194 14.9399 18.1978 14.6697C18.1978 14.1442 17.8525 13.901 17.4352 14.1231C17.2089 14.2709 17.0224 14.4719 16.8921 14.7086C16.7618 14.9453 16.6916 15.2104 16.6878 15.4805H16.6873ZM16.7144 11.1803C16.7144 11.7028 17.0627 11.9491 17.4801 11.7269C17.7038 11.5775 17.8877 11.3758 18.016 11.1393C18.1442 10.9027 18.2128 10.6385 18.2159 10.3695C18.2159 9.84398 17.8705 9.60061 17.4531 9.82295C17.2291 9.97222 17.0448 10.1738 16.9162 10.4103C16.7875 10.6468 16.7185 10.9111 16.7149 11.1803H16.7144ZM16.7144 11.1803C16.7144 11.7028 17.0627 11.9491 17.4801 11.7269C17.7038 11.5775 17.8877 11.3758 18.016 11.1393C18.1442 10.9027 18.2128 10.6385 18.2159 10.3695C18.2159 9.84398 17.8705 9.60061 17.4531 9.82295C17.2291 9.97222 17.0448 10.1738 16.9162 10.4103C16.7875 10.6468 16.7185 10.9111 16.7149 11.1803H16.7144ZM16.6934 15.4805C16.6934 16.0032 17.0387 16.2494 17.4562 16.0271C17.6825 15.8794 17.869 15.6784 17.9994 15.4417C18.1298 15.205 18.2 14.9399 18.2039 14.6697C18.2039 14.1442 17.8584 13.901 17.4411 14.1231C17.2136 14.2701 17.0259 14.4708 16.8944 14.7075C16.7629 14.9443 16.6918 15.2098 16.6873 15.4805H16.6934ZM15.0898 14.1533C15.0898 14.6758 15.435 14.9221 15.8554 14.6997C16.0815 14.5518 16.2678 14.3507 16.3982 14.1141C16.5285 13.8774 16.5989 13.6125 16.6031 13.3424C16.6031 12.817 16.2579 12.5736 15.8405 12.796C15.6131 12.9431 15.4251 13.1438 15.2932 13.3805C15.1612 13.6171 15.0893 13.8825 15.0837 14.1533H15.0898ZM13.411 12.8919C13.411 13.4144 13.7563 13.6607 14.1738 13.4385C14.3979 13.2893 14.5823 13.0877 14.711 12.8512C14.8397 12.6147 14.9089 12.3504 14.9125 12.0812C14.9125 11.5556 14.5642 11.3124 14.1467 11.5346C13.9227 11.6837 13.7387 11.8854 13.6105 12.1219C13.4824 12.3585 13.4141 12.6229 13.4116 12.8919H13.411ZM13.3869 17.1923C13.3869 17.7179 13.7324 17.9611 14.1497 17.7389C14.3787 17.5928 14.5681 17.3925 14.7011 17.1557C14.8342 16.919 14.9068 16.6531 14.9125 16.3815C14.9125 15.856 14.5673 15.6128 14.1467 15.835C13.9186 15.9817 13.7301 16.1822 13.5977 16.4189C13.4653 16.6556 13.3931 16.9212 13.3875 17.1923H13.3869ZM8.97873 12.2914C8.99763 12.571 9.07761 12.8431 9.21304 13.0884C9.34847 13.3337 9.53605 13.5464 9.76256 13.7114C10.1889 13.981 10.5313 13.7804 10.5254 13.2608C10.5081 12.9787 10.4286 12.704 10.2926 12.4563C10.1565 12.2087 9.96729 11.9942 9.73848 11.8284C9.3125 11.5676 8.9701 11.7688 8.97873 12.2914ZM7.28921 13.2884C7.30697 13.5708 7.38667 13.8457 7.52263 14.0938C7.65859 14.3419 7.84749 14.557 8.07591 14.7238C8.50243 14.9934 8.84465 14.7928 8.83871 14.2703C8.82045 13.9885 8.74051 13.7142 8.60453 13.4667C8.46856 13.2192 8.27988 13.0046 8.05183 12.838C7.62477 12.5677 7.28238 12.7688 7.28921 13.2884ZM5.60436 14.2883C5.62089 14.5704 5.70002 14.8453 5.836 15.0931C5.97198 15.3408 6.1614 15.5552 6.39052 15.7206C6.81686 15.994 7.1562 15.7897 7.15027 15.2702C7.13358 14.9884 7.05463 14.7137 6.9191 14.466C6.78357 14.2183 6.59482 14.0037 6.36644 13.8377C5.93399 13.5678 5.60364 13.7689 5.60364 14.2883H5.60436ZM5.60436 14.2883C5.62089 14.5704 5.70002 14.8453 5.836 15.0931C5.97198 15.3408 6.1614 15.5552 6.39052 15.7206C6.81686 15.994 7.1562 15.7897 7.15027 15.2702C7.13358 14.9884 7.05463 14.7137 6.9191 14.466C6.78357 14.2183 6.59482 14.0037 6.36644 13.8377C5.93399 13.5678 5.60364 13.7689 5.60364 14.2883H5.60436ZM7.29208 13.2884C7.30993 13.5708 7.38968 13.8457 7.52567 14.0938C7.66165 14.3418 7.85055 14.5569 8.07897 14.7238C8.5053 14.9934 8.8477 14.7928 8.84177 14.2703C8.82351 13.9885 8.74356 13.7142 8.60759 13.4667C8.47162 13.2192 8.28293 13.0046 8.05488 12.838C7.62549 12.5684 7.2831 12.7688 7.28921 13.2884H7.29208ZM8.98286 12.2914C9.00134 12.5708 9.08083 12.8427 9.21572 13.088C9.35062 13.3333 9.53764 13.5461 9.76364 13.7114C10.19 13.981 10.5324 13.7804 10.5264 13.2608C10.5092 12.9787 10.4297 12.704 10.2937 12.4563C10.1576 12.2087 9.96837 11.9942 9.73955 11.8284C9.31322 11.5671 8.97082 11.7682 8.97981 12.2909L8.98286 12.2914ZM13.3882 17.1923C13.3882 17.7179 13.7337 17.9611 14.151 17.7389C14.3799 17.5928 14.5693 17.3925 14.7024 17.1557C14.8354 16.919 14.908 16.6531 14.9138 16.3815C14.9138 15.856 14.5685 15.6128 14.1479 15.835C13.9196 15.9815 13.7308 16.182 13.5982 16.4187C13.4656 16.6554 13.3932 16.9211 13.3875 17.1923H13.3882ZM14.9258 12.0878C14.9258 11.5623 14.5775 11.3189 14.16 11.5412C13.9345 11.6883 13.7484 11.8883 13.6181 12.1239C13.4878 12.3594 13.4171 12.6233 13.4123 12.8925C13.4123 13.415 13.7576 13.6612 14.1751 13.4391C14.3992 13.2898 14.5836 13.0882 14.7123 12.8517C14.841 12.6152 14.9102 12.3509 14.9138 12.0817L14.9258 12.0878ZM15.0849 14.1598C15.0849 14.6823 15.4304 14.9285 15.8508 14.7064C16.0768 14.5584 16.2631 14.3573 16.3935 14.1207C16.5238 13.8841 16.5942 13.6191 16.5985 13.349C16.5985 12.8235 16.2532 12.5803 15.8357 12.8024C15.6102 12.9498 15.4239 13.1498 15.2931 13.3853C15.1623 13.6208 15.0909 13.8846 15.0849 14.1539V14.1598ZM16.6885 15.4872C16.6885 16.0097 17.034 16.2559 17.4513 16.0337C17.6777 15.8861 17.8643 15.6851 17.9946 15.4484C18.125 15.2117 18.1952 14.9466 18.199 14.6764C18.199 14.1508 17.8538 13.9076 17.4364 14.1298C17.2109 14.2768 17.0248 14.4769 16.8945 14.7124C16.7641 14.948 16.6934 15.2119 16.6885 15.4811V15.4872ZM18.2231 10.3826C18.2231 9.85728 17.8778 9.61391 17.4603 9.83625C17.2367 9.98363 17.0522 10.183 16.9225 10.4173C16.7928 10.6516 16.7218 10.9138 16.7157 11.1816C16.7157 11.7041 17.064 11.9503 17.4813 11.7282C17.7051 11.5787 17.889 11.377 18.0172 11.1405C18.1454 10.904 18.2141 10.6398 18.2172 10.3708L18.2231 10.3826ZM5.60364 14.2883C5.62026 14.5705 5.6995 14.8454 5.83561 15.0932C5.97171 15.3409 6.16127 15.5553 6.39052 15.7206C6.81686 15.994 7.1562 15.7897 7.15027 15.2702C7.13358 14.9884 7.05463 14.7137 6.9191 14.466C6.78357 14.2183 6.59482 14.0037 6.36644 13.8377C5.93399 13.5678 5.60364 13.7689 5.60364 14.2883ZM7.29136 13.2884C7.30921 13.5708 7.38896 13.8457 7.52495 14.0938C7.66094 14.3418 7.84984 14.5569 8.07825 14.7238C8.50458 14.9934 8.84698 14.7928 8.84105 14.2703C8.82279 13.9885 8.74284 13.7142 8.60687 13.4667C8.4709 13.2192 8.28222 13.0046 8.05416 12.838C7.62477 12.5684 7.28238 12.7688 7.28849 13.2884H7.29136ZM8.98214 12.2914C9.00062 12.5708 9.08011 12.8427 9.215 13.088C9.3499 13.3333 9.53693 13.5461 9.76292 13.7114C10.1893 13.981 10.5317 13.7804 10.5257 13.2608C10.5085 12.9787 10.429 12.704 10.2929 12.4563C10.1569 12.2087 9.96765 11.9942 9.73883 11.8284C9.3125 11.5671 8.9701 11.7682 8.97909 12.2909L8.98214 12.2914ZM13.3875 17.1923C13.3875 17.7179 13.7329 17.9611 14.1503 17.7389C14.3792 17.5928 14.5686 17.3925 14.7017 17.1557C14.8347 16.919 14.9073 16.6531 14.9131 16.3815C14.9131 15.856 14.5678 15.6128 14.1472 15.835C13.919 15.9816 13.7304 16.1821 13.5979 16.4188C13.4654 16.6555 13.3932 16.9211 13.3875 17.1923ZM14.9251 12.0878C14.9251 11.5623 14.5768 11.3189 14.1593 11.5412C13.9338 11.6883 13.7477 11.8883 13.6174 12.1239C13.487 12.3594 13.4164 12.6233 13.4116 12.8925C13.4116 13.415 13.7568 13.6612 14.1744 13.4391C14.3985 13.2898 14.5828 13.0882 14.7116 12.8517C14.8403 12.6152 14.9094 12.3509 14.9131 12.0817L14.9251 12.0878ZM15.0842 14.1598C15.0842 14.6823 15.4296 14.9285 15.8501 14.7064C16.0761 14.5584 16.2624 14.3573 16.3928 14.1207C16.5231 13.8841 16.5935 13.6191 16.5978 13.349C16.5978 12.8235 16.2525 12.5803 15.835 12.8024C15.6094 12.9498 15.4232 13.1498 15.2924 13.3853C15.1616 13.6208 15.0901 13.8846 15.0842 14.1539V14.1598ZM16.6878 15.4872C16.6878 16.0097 17.0333 16.2559 17.4506 16.0337C17.677 15.8861 17.8635 15.6851 17.9939 15.4484C18.1243 15.2117 18.1945 14.9466 18.1983 14.6764C18.1983 14.1508 17.853 13.9076 17.4357 14.1298C17.2102 14.2768 17.0241 14.4769 16.8937 14.7124C16.7634 14.948 16.6927 15.2119 16.6878 15.4811V15.4872ZM18.2224 10.3826C18.2224 9.85728 17.8771 9.61391 17.4596 9.83625C17.236 9.98363 17.0515 10.183 16.9218 10.4173C16.7921 10.6516 16.7211 10.9138 16.7149 11.1816C16.7149 11.7041 17.0633 11.9503 17.4806 11.7282C17.7043 11.5787 17.8883 11.377 18.0165 11.1405C18.1447 10.904 18.2133 10.6398 18.2165 10.3708L18.2224 10.3826ZM16.7209 11.1936C16.7209 11.7161 17.0692 11.9624 17.4867 11.74C17.7111 11.5889 17.8949 11.385 18.0222 11.1463C18.1494 10.9076 18.2161 10.6413 18.2165 10.3708C18.2165 9.84523 17.871 9.60187 17.4537 9.8242C17.2295 9.97342 17.0451 10.175 16.9164 10.4115C16.7877 10.648 16.7185 10.9123 16.7149 11.1816L16.7209 11.1936ZM16.6998 15.4938C16.6998 16.0163 17.0453 16.2627 17.4627 16.0404C17.689 15.8928 17.8756 15.6918 18.006 15.4551C18.1363 15.2184 18.2065 14.9532 18.2104 14.683C18.2104 14.1575 17.8651 13.9143 17.4476 14.1364C17.2207 14.2816 17.0328 14.4801 16.9004 14.7146C16.768 14.9492 16.695 15.2125 16.6878 15.4818L16.6998 15.4938ZM15.0962 14.1665C15.0962 14.6891 15.4417 14.9354 15.8621 14.713C16.0881 14.565 16.2744 14.3639 16.4047 14.1273C16.535 13.8907 16.6055 13.6258 16.6098 13.3557C16.6098 12.8301 16.2643 12.5869 15.847 12.8091C15.6201 12.9545 15.432 13.153 15.2991 13.3874C15.1662 13.6219 15.0924 13.8852 15.0842 14.1546L15.0962 14.1665ZM13.4116 12.8932C13.4116 13.4157 13.7568 13.6619 14.1744 13.4398C14.3985 13.2905 14.5828 13.0889 14.7116 12.8524C14.8403 12.6159 14.9094 12.3516 14.9131 12.0824C14.9131 11.5569 14.5648 11.3137 14.1472 11.5358C13.9233 11.6848 13.7393 11.8862 13.6111 12.1226C13.4828 12.3589 13.4143 12.6231 13.4116 12.8919V12.8932ZM13.3875 17.1936C13.3875 17.7191 13.7329 17.9623 14.1503 17.7402C14.3792 17.5941 14.5686 17.3938 14.7017 17.157C14.8347 16.9202 14.9073 16.6543 14.9131 16.3828C14.9131 15.8572 14.5678 15.6141 14.1472 15.8362C13.9192 15.9827 13.7307 16.183 13.5982 16.4195C13.4657 16.656 13.3934 16.9213 13.3875 17.1923V17.1936ZM8.97873 12.2914C8.99763 12.571 9.07761 12.8431 9.21304 13.0884C9.34847 13.3337 9.53605 13.5464 9.76256 13.7114C10.1889 13.981 10.5313 13.7804 10.5254 13.2608C10.5081 12.9787 10.4286 12.704 10.2926 12.4563C10.1565 12.2087 9.96729 11.9942 9.73848 11.8284C9.3125 11.5676 8.9701 11.7688 8.97873 12.2914ZM7.28921 13.2884C7.30697 13.5708 7.38667 13.8457 7.52263 14.0938C7.65859 14.3419 7.84749 14.557 8.07591 14.7238C8.50243 14.9934 8.84465 14.7928 8.83871 14.2703C8.82045 13.9885 8.74051 13.7142 8.60453 13.4667C8.46856 13.2192 8.27988 13.0046 8.05183 12.838C7.62477 12.5677 7.28238 12.7688 7.28921 13.2884ZM5.60436 14.2883C5.62089 14.5704 5.70002 14.8453 5.836 15.0931C5.97198 15.3408 6.1614 15.5552 6.39052 15.7206C6.81686 15.994 7.1562 15.7897 7.15027 15.2702C7.13358 14.9884 7.05463 14.7137 6.9191 14.466C6.78357 14.2183 6.59482 14.0037 6.36644 13.8377C5.93399 13.5678 5.60364 13.7689 5.60364 14.2883H5.60436ZM5.60436 14.2883C5.62089 14.5704 5.70002 14.8453 5.836 15.0931C5.97198 15.3408 6.1614 15.5552 6.39052 15.7206C6.81686 15.994 7.1562 15.7897 7.15027 15.2702C7.13358 14.9884 7.05463 14.7137 6.9191 14.466C6.78357 14.2183 6.59482 14.0037 6.36644 13.8377C5.93399 13.5678 5.60364 13.7689 5.60364 14.2883H5.60436ZM7.29208 13.2884C7.30993 13.5708 7.38968 13.8457 7.52567 14.0938C7.66165 14.3418 7.85055 14.5569 8.07897 14.7238C8.5053 14.9934 8.8477 14.7928 8.84177 14.2703C8.82351 13.9885 8.74356 13.7142 8.60759 13.4667C8.47162 13.2192 8.28293 13.0046 8.05488 12.838C7.62549 12.5684 7.2831 12.7688 7.28921 13.2884H7.29208ZM8.98286 12.2914C9.00134 12.5708 9.08083 12.8427 9.21572 13.088C9.35062 13.3333 9.53764 13.5461 9.76364 13.7114C10.19 13.981 10.5324 13.7804 10.5264 13.2608C10.5092 12.9787 10.4297 12.704 10.2937 12.4563C10.1576 12.2087 9.96837 11.9942 9.73955 11.8284C9.31322 11.5671 8.97082 11.7682 8.97981 12.2909L8.98286 12.2914ZM13.3882 17.1923C13.3882 17.7179 13.7337 17.9611 14.151 17.7389C14.3799 17.5928 14.5693 17.3925 14.7024 17.1557C14.8354 16.919 14.908 16.6531 14.9138 16.3815C14.9138 15.856 14.5685 15.6128 14.1479 15.835C13.9196 15.9815 13.7308 16.182 13.5982 16.4187C13.4656 16.6554 13.3932 16.9211 13.3875 17.1923H13.3882ZM13.4123 12.8919C13.4123 13.4144 13.7576 13.6607 14.1751 13.4385C14.3992 13.2893 14.5836 13.0877 14.7123 12.8512C14.841 12.6147 14.9102 12.3504 14.9138 12.0812C14.9138 11.5556 14.5655 11.3124 14.1479 11.5346C13.9238 11.6836 13.7394 11.8851 13.6111 12.1218C13.4827 12.3584 13.4142 12.6228 13.4116 12.8919H13.4123ZM15.0849 14.1533C15.0849 14.6758 15.4304 14.9221 15.8508 14.6997C16.0768 14.5518 16.2631 14.3507 16.3935 14.1141C16.5238 13.8774 16.5942 13.6125 16.5985 13.3424C16.5985 12.817 16.2532 12.5736 15.8357 12.796C15.6092 12.9437 15.4223 13.1447 15.2913 13.3813C15.1603 13.6179 15.0892 13.8829 15.0842 14.1533H15.0849ZM16.6885 15.4805C16.6885 16.0032 17.034 16.2494 17.4513 16.0271C17.6777 15.8795 17.8643 15.6785 17.9946 15.4418C18.125 15.2051 18.1952 14.9399 18.199 14.6697C18.199 14.1442 17.8538 13.901 17.4364 14.1231C17.2099 14.2707 17.0232 14.4717 16.8927 14.7084C16.7621 14.9451 16.6918 15.2102 16.6878 15.4805H16.6885ZM16.7157 11.1803C16.7157 11.7028 17.064 11.9491 17.4813 11.7269C17.7051 11.5775 17.889 11.3758 18.0172 11.1393C18.1454 10.9027 18.2141 10.6385 18.2172 10.3695C18.2172 9.84398 17.8717 9.60061 17.4544 9.82295C17.2301 9.97208 17.0456 10.1736 16.9167 10.4101C16.7879 10.6467 16.7186 10.911 16.7149 11.1803H16.7157Z" fill="#0074FF"/>
<path d="M11.0097 7.79883C11.6373 8.05423 12.3399 8.05423 12.9675 7.79883C13.6013 7.49849 13.6013 7.02704 12.9675 6.73263C12.3399 6.47723 11.6373 6.47723 11.0097 6.73263C10.3874 7.02704 10.3874 7.50154 11.0097 7.79883Z" fill="#0074FF"/>
<path d="M2 12C1.99659 17.5195 6.46843 21.9968 11.988 22H12C17.5195 22.0034 21.9968 17.5316 22.0002 12.012V12C22.0034 6.48047 17.5316 2.00324 12.012 2H12C6.48047 1.99659 2.00324 6.46843 2 11.988V12ZM19.2367 15.8318L12.3304 19.8198V11.8228L19.2373 7.87091L19.2367 15.8318ZM12 11.2823L5.09309 7.28228L12 4.38133L18.9558 7.3033L12 11.2823ZM11.6997 19.8378L4.76273 15.8318V7.83173L11.7027 11.8438L11.6997 19.8378Z" fill="#0074FF"/>
</svg>
