<svg width="24" height="24" viewBox="0 0 24 24" fill="none" xmlns="http://www.w3.org/2000/svg">
<path d="M21.4283 10.5289C21.3847 10.7424 21.2574 10.9451 21.0429 11.1079L20.7111 11.3613L18.4861 9.64584C17.9465 9.23323 17.0753 9.23323 16.5357 9.64584L14.3106 11.3613L13.9408 11.0766C13.4819 10.7233 13.4819 9.98706 13.9409 9.63393L16.5357 7.63713C17.0753 7.22097 17.9465 7.22097 18.4861 7.63713L21.0429 9.60599C21.3713 9.85578 21.4987 10.2032 21.4283 10.5289Z" fill="white"/>
<path d="M10.0666 11.0766L9.69683 11.3612L7.47164 9.64579C6.93217 9.23318 6.06083 9.23318 5.52137 9.64579L3.29615 11.3612L2.96441 11.1079C2.75333 10.9451 2.62261 10.7388 2.57907 10.5253C2.50865 10.1996 2.63938 9.85578 2.96441 9.60599L5.52137 7.63713C6.06083 7.22097 6.93217 7.22097 7.47164 7.63713L10.0665 9.63393C10.5254 9.98706 10.5255 10.7233 10.0666 11.0766Z" fill="white"/>
<path d="M23 10.3553V12.3676C23 12.755 22.809 13.1385 22.427 13.4353L18.791 16.2329C18.0269 16.8229 16.7871 16.8229 16.023 16.2329L12.5725 13.5746C12.2309 13.3115 11.7724 13.3115 11.4307 13.5744L7.97697 16.2329C7.21299 16.8229 5.97302 16.8229 5.20901 16.2329L1.57307 13.4353C1.19102 13.1385 1 12.755 1 12.3676V10.3553C1 10.7172 1.16755 11.0792 1.50271 11.3615C1.52612 11.3869 1.54959 11.4049 1.57307 11.423L2.57841 12.1975L5.20901 14.2243C5.97302 14.8142 7.21299 14.8142 7.97697 14.2243L10.6947 12.1288L11.2033 11.7373C11.6809 11.3696 12.3221 11.3702 12.7991 11.7387L13.3086 12.1324L16.023 14.2243C16.7871 14.8142 18.0269 14.8142 18.791 14.2243L21.4283 12.1939L22.427 11.423C22.4505 11.4049 22.4738 11.3869 22.4974 11.3615C22.8324 11.0792 23 10.7172 23 10.3553Z" fill="white"/>
</svg>
