<svg width="24" height="24" viewBox="0 0 24 24" fill="none" xmlns="http://www.w3.org/2000/svg">
<path d="M4.40731 18.6695L4.80174 18.7382C9.65488 19.7052 14.7221 19.6621 19.5671 18.6749C18.9532 19.2042 18.2424 19.5759 17.4913 19.8695C15.1704 20.7598 12.5398 20.9456 10.0843 20.7018C8.14307 20.4877 5.94065 19.9422 4.40731 18.6695ZM1 3.20001L4.88251 3.21764L7.83345 12.2224L11.0482 3.20417L12.9599 3.2136L16.2285 12.0809L19.1296 3.20552L23 3.20687L17.8547 17.5557C17.222 17.571 16.7495 17.5647 16.4372 17.5368C15.4261 17.4304 14.5309 16.7193 14.189 15.7631C13.9134 15.0044 13.5024 13.8645 12.9558 12.3436L16.1464 12.2547L11.9933 9.71732C11.0312 12.3831 10.31 14.3826 9.82989 15.716C9.57813 16.4325 9.04504 17.0183 8.34905 17.3254C7.90657 17.531 7.16168 17.6001 6.11431 17.5328L1 3.20001Z" fill="#824CE2"/>
</svg>
