<svg width="24" height="24" viewBox="0 0 24 24" fill="none" xmlns="http://www.w3.org/2000/svg">
<path d="M13.5246 9.92914C13.6151 9.92602 13.7042 9.90559 13.787 9.86896C13.8789 9.82334 13.9641 9.76518 14.0401 9.69612C14.0987 9.63284 15.25 8.41679 15.3842 8.22697C15.5185 8.03716 16.2114 7.27327 16.2114 7.27327C16.2114 7.27327 17.1188 6.24703 17.3858 5.87357C17.5955 5.58841 17.7896 5.29219 17.9675 4.98622C18.0601 4.81184 18.1543 4.61585 18.1543 4.61585C18.1543 4.61585 18.2299 4.44301 18.2824 4.35504C18.4108 4.1348 18.5733 3.93634 18.7638 3.76708C18.9308 3.6332 19.1171 3.5255 19.3163 3.44763C19.5833 3.34451 19.8682 3.29521 20.1543 3.30256C20.5094 3.30964 20.86 3.38291 21.1882 3.51862C21.5852 3.69337 21.916 3.99017 22.1327 4.36585C22.262 4.6042 22.3399 4.86708 22.3611 5.13745C22.3699 5.34576 22.3455 5.55415 22.2886 5.75474C22.2165 5.98684 22.1037 6.20423 21.9552 6.39672C21.8196 6.5572 21.6676 6.70305 21.5015 6.83191C21.3926 6.90868 21.2781 6.97729 21.1589 7.03715C21.0586 7.08345 20.8009 7.19148 20.6651 7.23469C20.5293 7.2779 20.2623 7.37821 20.0478 7.46463C19.8333 7.55105 19.554 7.6637 19.3086 7.79179C19.0632 7.91987 18.395 8.29333 17.8719 8.62821C17.3487 8.96309 16.9459 9.21926 16.6234 9.45537C16.3009 9.69149 15.9814 9.93531 15.8518 10.0418C15.7222 10.1483 15.4953 10.3612 15.4213 10.4461C15.3208 10.5457 15.2341 10.6584 15.1635 10.781C15.1194 10.8511 15.0881 10.9284 15.0709 11.0094C15.0563 11.0645 15.0563 11.1225 15.0709 11.1776C15.1017 11.2776 15.1594 11.3673 15.2376 11.4369C15.5599 11.7325 15.9028 12.0048 16.2639 12.2517C16.943 12.6956 17.6537 13.0892 18.3904 13.4292C19.1836 13.7671 19.7422 13.9878 20.0879 14.1035C20.4336 14.2193 21.0571 14.4122 21.3426 14.6545C21.7085 14.9018 21.9739 15.2718 22.091 15.6977C22.2003 16.1609 22.1614 16.6467 21.9799 17.0866C21.8163 17.5912 21.2731 18.1097 20.8842 18.3212C20.4325 18.54 19.9355 18.6489 19.4336 18.6391C19.0838 18.6153 18.7415 18.5264 18.4243 18.3767C18.0771 18.1849 17.778 17.9168 17.5493 17.5928C17.3726 17.3166 17.2208 17.0254 17.0956 16.7224C17.02 16.5063 16.9182 16.1437 16.8657 15.9955C16.7749 15.7782 16.6611 15.5713 16.5262 15.3782C16.3168 15.071 16.089 14.7768 15.8441 14.4971C15.5617 14.1807 15.1496 13.7393 14.875 13.4863C14.6003 13.2332 14.2685 12.9338 14.145 12.8458C14.0505 12.7625 13.9335 12.7088 13.8086 12.6915C13.7118 12.6753 13.6126 12.6838 13.52 12.7162C13.4264 12.7443 13.3397 12.7916 13.2654 12.8551C12.8347 13.177 12.4325 13.5353 12.0632 13.9261C11.5897 14.4311 11.1519 14.9684 10.753 15.5341C10.1815 16.3477 9.65246 17.1904 9.16814 18.0588C8.67123 18.9848 8.19592 20.0125 7.87801 20.3736C7.56011 20.7348 6.81628 21.4678 5.91813 21.7471C5.01998 22.0264 4.49683 22.0141 4.28695 21.9863C4.07707 21.9585 3.23756 21.8412 2.84558 21.5434C2.45361 21.2456 2.0462 20.977 1.82243 20.2872C1.65731 19.7764 1.48601 19.1375 1.82243 18.4277C2.14984 17.7803 2.67313 17.2526 3.31781 16.9199C3.89979 16.6086 4.50136 16.3354 5.11874 16.102C5.87987 15.8227 6.61907 15.4869 7.33017 15.0974C7.94746 14.7316 9.02771 14.0418 9.45827 13.7085C9.88882 13.3751 10.6465 12.7825 10.9475 12.514C11.2484 12.2455 11.7191 11.7995 11.8518 11.6452C11.9845 11.4909 12.0462 11.4214 12.0524 11.3597C12.068 11.2709 12.0498 11.1796 12.0015 11.1035C11.9001 10.9572 11.7742 10.8293 11.6296 10.7254C11.432 10.5711 11.1404 10.2964 10.7546 10.0248C10.3688 9.75322 10.0385 9.52945 9.7808 9.37513C9.2053 9.02631 8.60959 8.71198 7.99684 8.43377C7.46227 8.20248 6.91329 8.00608 6.35332 7.8458C5.74529 7.6745 4.81936 7.39364 4.5246 7.26709C4.22985 7.14055 3.61411 6.85043 3.32707 6.58654C3.04003 6.32265 2.61256 5.8782 2.54311 5.29332C2.47367 4.70844 2.61564 3.95381 2.83787 3.58652C3.06009 3.21923 3.39497 2.67602 4.01689 2.38589C4.54743 2.10441 5.14458 1.97264 5.74432 2.00472C6.34404 2.0368 6.92373 2.23152 7.42122 2.568C8.02308 2.9538 8.72061 3.77788 9.09098 4.39671C9.46135 5.01554 9.95981 5.81493 10.1712 6.14055C10.3827 6.46616 10.929 7.25475 11.1311 7.52944C11.3333 7.80413 11.7484 8.34735 11.9629 8.60969C12.1932 8.89411 12.4384 9.16608 12.6975 9.42451C12.8386 9.56266 12.988 9.69203 13.145 9.81186C13.2039 9.85147 13.2677 9.88312 13.3348 9.90599C13.3761 9.91879 13.4184 9.92757 13.4614 9.93223L13.5246 9.92914Z" fill="url(#paint0_linear_4_4284)"/>
<path d="M21.7665 5.22089C21.7573 4.50021 21.194 3.80884 20.2233 3.83199H20.1014H20.0196C19.7369 3.85019 19.4653 3.94834 19.2364 4.115C19.0074 4.28167 18.8306 4.51 18.7264 4.77335C18.7048 4.82582 18.677 4.87984 18.6492 4.92768C18.1863 5.85361 17.1477 7.14528 16.1261 8.28417C15.4162 9.07276 14.7202 9.78726 14.2387 10.2502L14.0998 10.349C13.9223 10.4356 13.7231 10.4679 13.5273 10.4416C12.7557 10.3706 11.7125 9.15146 10.6831 7.73324C10.2788 7.17614 9.87757 6.58972 9.49794 6.03571C8.97787 5.2641 8.68775 4.56193 8.18775 3.93076C8.1754 3.91378 8.15997 3.89835 8.14608 3.88138C8.13219 3.8644 8.11059 3.83354 8.09052 3.81039C8.0504 3.76255 8.01336 3.71471 7.96861 3.66841C7.24947 2.93076 6.38836 2.48785 5.53959 2.48785C5.20598 2.49214 4.87655 2.56254 4.57033 2.69499C4.26411 2.82743 3.98721 3.01929 3.75563 3.25946C3.72477 3.29033 3.69699 3.32273 3.66921 3.35514C3.65841 3.36749 3.65224 3.38138 3.64143 3.39372C3.63063 3.40607 3.60131 3.43539 3.58279 3.45699H3.57507C2.91304 4.27798 2.90532 5.48323 3.62754 6.09126C4.16613 6.54497 4.72477 6.79651 6.13064 7.19775L6.17385 7.21009L6.60132 7.32892C8.49485 7.84744 10.5874 9.12985 12.0257 10.5079C12.2001 10.6762 12.643 10.8783 12.4995 11.3567C12.3236 11.974 8.9146 15.2904 5.65224 16.4864C4.21088 17.0141 1.78185 17.883 2.13679 19.7487C2.5442 21.8969 6.37447 22.2302 7.75873 19.4941C8.96553 17.1067 10.7804 14.207 13.0412 12.5975C13.4393 12.2302 13.8606 12.1345 14.3236 12.5404C15.1693 13.2765 17.1739 14.9709 17.4826 15.9663C17.9625 17.5095 18.9579 18.6361 20.6585 17.7688C21.8283 16.9848 22.1462 15.3351 20.2866 14.7394C17.3715 13.8043 15.4301 12.2441 14.7634 11.5342C13.7649 10.4678 16.5088 8.85671 17.2773 8.3459L17.3761 8.27954C18.5227 7.46472 19.4425 7.1067 20.7357 6.61287C21.407 6.35669 21.7264 5.84126 21.7619 5.33046C21.7627 5.31658 21.7627 5.30266 21.7619 5.28879C21.7635 5.26564 21.7665 5.24404 21.7665 5.22089Z" fill="url(#paint1_linear_4_4284)"/>
<defs>
<linearGradient id="paint0_linear_4_4284" x1="11.9984" y1="1.72848" x2="11.9984" y2="19.4446" gradientUnits="userSpaceOnUse">
<stop stop-color="#F59C00"/>
<stop offset="0.45" stop-color="#F49600"/>
<stop offset="1" stop-color="#F18700"/>
</linearGradient>
<linearGradient id="paint1_linear_4_4284" x1="12.9841" y1="3.13292" x2="11.3297" y2="22.0559" gradientUnits="userSpaceOnUse">
<stop stop-color="#FFCF22"/>
<stop offset="0.06" stop-color="#FEC91F"/>
<stop offset="0.15" stop-color="#FAB916"/>
<stop offset="0.24" stop-color="#F59E07"/>
<stop offset="0.28" stop-color="#F29100"/>
<stop offset="0.47" stop-color="#F29100"/>
<stop offset="0.63" stop-color="#F49700"/>
<stop offset="0.82" stop-color="#F49800"/>
<stop offset="1" stop-color="#F59C00"/>
</linearGradient>
</defs>
</svg>
