<svg width="24" height="24" viewBox="0 0 24 24" fill="none" xmlns="http://www.w3.org/2000/svg">
<path fill-rule="evenodd" clip-rule="evenodd" d="M9.28898 6.24895C9.11832 5.75898 8.952 5.27728 8.81845 4.78505C8.68132 4.27951 8.57873 3.76687 8.50148 3.24917C8.4585 2.96093 8.46498 2.95246 8.7389 2.85611C9.29289 2.66141 9.85797 2.50831 10.4385 2.41879C10.7072 2.37733 10.7205 2.38614 10.7569 2.66435C10.9103 3.83543 11.2351 4.95557 11.7293 6.02531C11.7853 6.14632 11.8155 6.34381 11.9441 6.35009C12.1076 6.35808 12.1289 6.14871 12.1877 6.02223C12.6797 4.96417 13.0027 3.85523 13.1513 2.69508C13.1914 2.38177 13.2002 2.37433 13.5125 2.42111C14.0938 2.50831 14.6559 2.67425 15.2103 2.86546C15.4628 2.95246 15.458 2.96305 15.4184 3.24023C15.2856 4.16725 15.0474 5.06661 14.7329 5.94678C14.6976 6.04579 14.5897 6.1638 14.6953 6.25728C14.7786 6.33083 14.8851 6.23536 14.9747 6.19774C15.8806 5.81751 16.673 5.26567 17.3709 4.57199C17.403 4.5401 17.4347 4.50773 17.4667 4.4757C17.7222 4.2199 17.7214 4.22085 18.0067 4.46123C18.4311 4.81865 18.8385 5.19396 19.1943 5.62241C19.3741 5.83888 19.3721 5.84243 19.1863 6.03903C17.8277 7.47644 16.1875 8.42019 14.2794 8.8937C14.1919 8.91535 14.1029 8.93174 14.0168 8.95796C13.8105 9.02099 13.7961 9.06585 13.9539 9.22872C14.476 9.76677 15.0525 10.2395 15.673 10.6564C15.8665 10.7865 15.8737 10.7813 16.0995 10.5681C17.0542 9.66632 18.1313 8.94976 19.3193 8.40475C19.6675 8.24503 20.0263 8.10804 20.3851 7.97378C20.6283 7.88276 20.6688 7.90392 20.769 8.14826C20.9935 8.69553 21.1855 9.25406 21.3085 9.83471C21.3637 10.0957 21.3603 10.1083 21.0973 10.2022C20.5223 10.4076 19.9697 10.6602 19.4423 10.9701C19.1012 11.1706 18.7728 11.3901 18.4561 11.6274C18.3685 11.6931 18.2283 11.7468 18.2427 11.8689C18.2608 12.021 18.4303 12.01 18.54 12.0451C19.348 12.3037 20.1752 12.4657 21.0206 12.5314C21.6569 12.5809 21.5333 12.5605 21.483 13.1059C21.4359 13.616 21.3377 14.1191 21.1946 14.6114C21.1183 14.8737 21.1111 14.8838 20.8417 14.864C19.918 14.7959 19.0113 14.6289 18.1223 14.3654C15.8714 13.6981 13.9245 12.5148 12.2653 10.8424C11.9409 10.5154 12.0005 10.4792 11.6521 10.834C9.89034 12.6276 7.79799 13.8448 5.3784 14.483C4.64761 14.6757 3.90391 14.8029 3.15041 14.8613C2.80302 14.8882 2.80789 14.8784 2.7103 14.5504C2.55384 14.0248 2.47585 13.4851 2.41495 12.9422C2.3744 12.5805 2.3813 12.5685 2.76018 12.5417C3.58342 12.4835 4.3918 12.3451 5.18274 12.1063C5.32291 12.0639 5.462 12.0177 5.59994 11.9685C5.71909 11.9258 5.73268 11.8464 5.64022 11.767C5.51168 11.6569 5.37671 11.5533 5.23776 11.457C4.49149 10.9396 3.6992 10.512 2.84243 10.2105C2.54458 10.1057 2.54195 10.1011 2.61244 9.79907C2.74186 9.24443 2.90724 8.70147 3.13723 8.17967C3.26524 7.88938 3.26976 7.882 3.56234 7.98416C4.53589 8.32417 5.44909 8.78642 6.30721 9.36243C6.85269 9.72859 7.35984 10.1424 7.84483 10.5855C8.06009 10.7822 8.05988 10.779 8.299 10.6178C8.85312 10.244 9.36697 9.82072 9.83898 9.34556C9.89473 9.28936 9.95232 9.23439 10.0024 9.17327C10.0819 9.07603 10.0459 9.00583 9.93914 8.96677C9.87595 8.94362 9.80911 8.93044 9.74335 8.91507C7.80381 8.46375 6.14251 7.51393 4.755 6.07338C4.72357 6.04074 4.69276 6.00755 4.66099 5.97532C4.57719 5.88996 4.56124 5.8031 4.64619 5.70647C5.08833 5.20346 5.56169 4.7339 6.08615 4.31796C6.19428 4.23219 6.26802 4.28204 6.34628 4.36351C6.6131 4.64117 6.88959 4.9079 7.19061 5.14869C7.75961 5.6039 8.37807 5.9717 9.05236 6.24294C9.11231 6.26712 9.17408 6.30584 9.28898 6.24895Z" fill="#E6642B"/>
<path fill-rule="evenodd" clip-rule="evenodd" d="M11.927 21.6557C11.6458 21.6557 11.3639 21.6674 11.0835 21.6521C10.8352 21.6387 10.7999 21.5916 10.7991 21.3349C10.7961 20.4706 10.7887 19.6061 10.8028 18.742C10.8073 18.4629 10.728 18.2456 10.5593 18.0265C9.62689 16.8156 8.70591 15.5955 7.78325 14.3769C7.54738 14.0653 7.55143 14.0631 7.91118 13.8883C8.37799 13.6615 8.83533 13.4176 9.27463 13.1391C9.60708 12.9283 9.60924 12.9325 9.83896 13.2355C10.4616 14.0566 11.0842 14.8776 11.7073 15.6983C11.9566 16.0266 11.9632 16.0258 12.2052 15.7064C12.8412 14.8669 13.4772 14.0274 14.1142 13.1885C14.3088 12.9322 14.3129 12.9288 14.572 13.0936C15.068 13.409 15.5851 13.6837 16.1144 13.9371C16.3445 14.0472 16.3515 14.0825 16.1973 14.2867C15.2414 15.5518 14.2873 16.8181 13.3219 18.0755C13.174 18.2682 13.1087 18.458 13.1111 18.6982C13.1201 19.5624 13.1153 20.4268 13.114 21.2911C13.1136 21.6028 13.1032 21.6288 12.8038 21.6492C12.5128 21.6691 12.2194 21.6536 11.9271 21.6536C11.9271 21.6542 11.927 21.6549 11.927 21.6557Z" fill="#E6642B"/>
</svg>
