<svg width="24" height="24" viewBox="0 0 24 24" fill="none" xmlns="http://www.w3.org/2000/svg">
<path d="M7.59948 9.06669L8.33281 5.40002H17.1328L6.13281 17.1334L11.2661 9.06669H7.59948Z" fill="#D2007F"/>
<path d="M16.4005 14.9333L15.6672 18.6H6.13385L17.8672 6.13331L12.0005 14.9333H16.4005Z" fill="#00A0DC"/>
<path fill-rule="evenodd" clip-rule="evenodd" d="M12 22.2667C17.6701 22.2667 22.2667 17.6701 22.2667 12C22.2667 6.32988 17.6701 1.73333 12 1.73333C6.32988 1.73333 1.73333 6.32988 1.73333 12C1.73333 17.6701 6.32988 22.2667 12 22.2667ZM12 23C18.0751 23 23 18.0751 23 12C23 5.92487 18.0751 1 12 1C5.92487 1 1 5.92487 1 12C1 18.0751 5.92487 23 12 23Z" fill="#D2007F"/>
</svg>
