<svg width="24" height="24" viewBox="0 0 24 24" fill="none" xmlns="http://www.w3.org/2000/svg">
<path fill-rule="evenodd" clip-rule="evenodd" d="M11.9999 16.4445C6.47757 16.4445 2 17.4386 2 18.6673V19.7787C2 21.006 6.47757 22.0016 11.9999 22.0016C17.5224 22.0016 22 21.0074 22 19.7787V18.6673C22 17.4401 17.5224 16.4445 11.9999 16.4445Z" fill="white"/>
<path fill-rule="evenodd" clip-rule="evenodd" d="M12.3616 14.7542C17.8376 14.0335 22.1461 12.4619 21.9854 11.2462L21.8407 10.1449C21.68 8.92785 17.1111 8.52553 11.6366 9.2477C6.16039 9.96836 1.85214 11.54 2.01277 12.7556L2.15747 13.857C2.31811 15.074 6.88687 15.4764 12.3616 14.7542Z" fill="white"/>
<path fill-rule="evenodd" clip-rule="evenodd" d="M11.9999 2C6.47614 2 2 2.99421 2 4.22287V5.33429C2 6.56151 6.47757 7.55717 11.9999 7.55717C17.5224 7.55717 22 6.56151 22 5.33429V4.22287C22 2.99566 17.5224 2 11.9999 2Z" fill="white"/>
</svg>
