<svg width="24" height="24" viewBox="0 0 24 24" fill="none" xmlns="http://www.w3.org/2000/svg">
<path d="M10.1719 4C10.7022 4.00006 11.2109 4.21092 11.5859 4.58594L19.4141 12.4141C19.789 12.789 19.9999 13.2979 20 13.8281V18C19.9999 19.1045 19.1045 20 18 20H6C4.89554 19.9999 4.00009 19.1045 4 18V6C4.0001 4.89556 4.89555 4.00007 6 4H10.1719ZM14.4004 13.5098C14.2004 13.2499 13.8103 13.2605 13.6104 13.5205L11 17L9.40039 14.5898C9.20038 14.3099 8.79006 14.2903 8.58008 14.5703L6.59961 17.2002C6.35007 17.5302 6.5902 17.9999 7 18H16.96C17.3799 18 17.6095 17.5204 17.3496 17.1904L14.4004 13.5098ZM19.0205 1C19.5603 1.00024 20 1.44061 20 1.98047V4H22.0205C22.5603 4.00024 23 4.44061 23 4.98047V5.01953C23 5.55939 22.5603 5.99976 22.0205 6H20V8.00977C20 8.54962 19.5603 8.99 19.0205 8.99023H18.9902C18.4402 9.00023 18 8.54977 18 8.00977V6H15.9902C15.4402 6 15 5.55977 15 5.00977V4.98047C15.01 4.44047 15.4502 4 15.9902 4H18V1.98047C18 1.44047 18.4402 1 18.9902 1H19.0205Z" fill="white" fill-opacity="0.9"/>
</svg>
