<svg width="24" height="24" viewBox="0 0 24 24" fill="none" xmlns="http://www.w3.org/2000/svg">
<path d="M18.2424 7.3252C18.2423 6.46555 17.901 5.64117 17.2932 5.0332C16.6852 4.42516 15.8601 4.08309 15.0002 4.08301C14.1402 4.08301 13.3154 4.42509 12.7073 5.0332L6.20728 11.5332C5.20152 12.539 4.63611 13.9028 4.63599 15.3252C4.63599 16.7478 5.20139 18.1122 6.20728 19.1182C7.21321 20.1241 8.57763 20.6895 10.0002 20.6895C11.4227 20.6894 12.7873 20.124 13.7932 19.1182L20.2932 12.6182C20.6837 12.228 21.3169 12.2278 21.7073 12.6182C22.0978 13.0087 22.0978 13.6427 21.7073 14.0332L15.2073 20.5332C13.8263 21.9141 11.9531 22.6894 10.0002 22.6895C8.04739 22.6895 6.17418 21.914 4.79321 20.5332C3.4122 19.1522 2.63599 17.2782 2.63599 15.3252C2.63611 13.3723 3.41231 11.4991 4.79321 10.1182L11.2932 3.61816C12.2764 2.63521 13.61 2.08301 15.0002 2.08301C16.3905 2.08309 17.7242 2.6351 18.7073 3.61816C19.6904 4.60124 20.2423 5.93492 20.2424 7.3252C20.2424 8.71563 19.6905 10.05 18.7073 11.0332L12.2073 17.5332C11.622 18.1184 10.8279 18.4472 10.0002 18.4473C9.17261 18.4473 8.37853 18.1183 7.79321 17.5332C7.20785 16.9478 6.87817 16.153 6.87817 15.3252C6.87829 14.4975 7.20796 13.7034 7.79321 13.1182L14.2932 6.61816C14.6837 6.22804 15.3169 6.22784 15.7073 6.61816C16.0978 7.00869 16.0978 7.64268 15.7073 8.0332L9.20728 14.5332C8.99716 14.7434 8.87829 15.028 8.87817 15.3252C8.87817 15.6226 8.99704 15.9079 9.20728 16.1182C9.41756 16.3285 9.70285 16.4473 10.0002 16.4473C10.2975 16.4472 10.583 16.3284 10.7932 16.1182L17.2932 9.61816C17.9011 9.01009 18.2424 8.18502 18.2424 7.3252Z" fill="white" fill-opacity="0.9"/>
</svg>
