<svg width="24" height="24" viewBox="0 0 24 24" fill="none" xmlns="http://www.w3.org/2000/svg">
<path d="M12 16.95C13.125 16.95 14.0814 16.5564 14.8692 15.7692C15.6564 14.9814 16.05 14.025 16.05 12.9C16.05 11.775 15.6564 10.8186 14.8692 10.0308C14.0814 9.24359 13.125 8.84999 12 8.84999C10.875 8.84999 9.9186 9.24359 9.1308 10.0308C8.3436 10.8186 7.95 11.775 7.95 12.9C7.95 14.025 8.3436 14.9814 9.1308 15.7692C9.9186 16.5564 10.875 16.95 12 16.95ZM4.8 20.1C4.305 20.1 3.8814 19.9239 3.5292 19.5717C3.1764 19.2189 3 18.795 3 18.3V7.49999C3 7.00499 3.1764 6.58139 3.5292 6.22919C3.8814 5.87639 4.305 5.69999 4.8 5.69999H7.635L8.76 4.48499C8.925 4.28999 9.1236 4.14359 9.3558 4.04579C9.5886 3.94859 9.8325 3.89999 10.0875 3.89999H13.9125C14.1675 3.89999 14.4114 3.94859 14.6442 4.04579C14.8764 4.14359 15.075 4.28999 15.24 4.48499L16.365 5.69999H19.2C19.695 5.69999 20.1189 5.87639 20.4717 6.22919C20.8239 6.58139 21 7.00499 21 7.49999V18.3C21 18.795 20.8239 19.2189 20.4717 19.5717C20.1189 19.9239 19.695 20.1 19.2 20.1H4.8Z" fill="white" fill-opacity="0.9"/>
</svg>
