<svg width="24" height="24" viewBox="0 0 24 24" fill="none" xmlns="http://www.w3.org/2000/svg">
<path d="M18.9997 4.99991C19.3902 5.39042 19.3902 6.0236 18.9997 6.41413L13.414 11.9999L18.9997 17.5856C19.3902 17.9761 19.3901 18.6093 18.9997 18.9998C18.6092 19.3903 17.976 19.3903 17.5855 18.9998L11.9998 13.4141L6.41403 18.9998C6.0235 19.3903 5.39034 19.3903 4.99981 18.9998C4.60935 18.6093 4.60931 17.9761 4.99981 17.5856L10.5855 11.9999L4.99981 6.41413C4.60934 6.0236 4.60931 5.39042 4.99981 4.99991C5.39033 4.60948 6.02352 4.60947 6.41403 4.99991L11.9998 10.5856L17.5855 4.99991C17.976 4.60947 18.6092 4.60947 18.9997 4.99991Z" fill="white" fill-opacity="0.9"/>
</svg>
