<svg width="24" height="24" viewBox="0 0 24 24" fill="none" xmlns="http://www.w3.org/2000/svg">
<path d="M11.1093 4.11096C6.75227 4.11096 3.22021 7.64302 3.22021 12C3.22021 16.357 6.75227 19.8891 11.1093 19.8891C11.6616 19.8891 12.1093 20.3368 12.1093 20.8891C12.1093 21.4414 11.6616 21.8891 11.1093 21.8891C5.6477 21.8891 1.22021 17.4616 1.22021 12C1.22021 6.53845 5.6477 2.11096 11.1093 2.11096C16.5709 2.11096 20.9983 6.53845 20.9983 12C20.9983 12.6901 20.9275 13.3645 20.7925 14.0158L21.2839 13.7321C21.7622 13.456 22.3738 13.6198 22.65 14.0981C22.9261 14.5764 22.7622 15.188 22.2839 15.4642L19.6859 16.9642C19.2076 17.2403 18.596 17.0764 18.3198 16.5981L16.8198 14.0001C16.5437 13.5218 16.7076 12.9102 17.1858 12.634C17.6641 12.3579 18.2757 12.5218 18.5519 13.0001L18.8522 13.5202C18.948 13.0288 18.9983 12.5206 18.9983 12C18.9983 7.64302 15.4663 4.11096 11.1093 4.11096Z" fill="white" fill-opacity="0.9"/>
<path d="M15.9603 8.49263C16.3632 8.87036 16.3836 9.5032 16.0059 9.90611L10.7975 15.4618C10.614 15.6574 10.3597 15.7712 10.0916 15.7776C9.8235 15.7839 9.56407 15.6823 9.37159 15.4955L7.02387 13.2177C6.62749 12.8331 6.61793 12.2 7.00251 11.8037C7.38709 11.4073 8.02018 11.3977 8.41656 11.7823L10.0342 13.3517L14.5468 8.53823C14.9246 8.13532 15.5574 8.1149 15.9603 8.49263Z" fill="white" fill-opacity="0.9"/>
</svg>
