<svg width="24" height="24" viewBox="0 0 24 24" fill="none" xmlns="http://www.w3.org/2000/svg">
<path d="M20.1562 9.75C20.1562 9.37704 20.0079 9.01958 19.7441 8.75586C19.4804 8.49214 19.123 8.34375 18.75 8.34375H9.75C9.37704 8.34375 9.01958 8.49214 8.75586 8.75586C8.49214 9.01958 8.34375 9.37704 8.34375 9.75V18.75C8.34375 19.123 8.49214 19.4804 8.75586 19.7441C9.01958 20.0079 9.37704 20.1562 9.75 20.1562H18.75C19.123 20.1562 19.4804 20.0079 19.7441 19.7441C20.0079 19.4804 20.1562 19.123 20.1562 18.75V9.75ZM15.6562 5.25C15.6562 4.87704 15.5079 4.51958 15.2441 4.25586C15.0133 4.02503 14.7107 3.88249 14.3887 3.85059L14.25 3.84375H5.25C4.87704 3.84375 4.51958 3.99214 4.25586 4.25586C3.99214 4.51958 3.84375 4.87704 3.84375 5.25V14.25L3.85059 14.3887C3.88249 14.7107 4.02503 15.0133 4.25586 15.2441C4.51958 15.5079 4.87704 15.6562 5.25 15.6562H6.65625V9.75C6.65625 8.92949 6.98231 8.14269 7.5625 7.5625C8.14269 6.98231 8.92949 6.65625 9.75 6.65625H15.6562V5.25ZM17.3438 6.65625H18.75C19.5705 6.65625 20.3573 6.98231 20.9375 7.5625C21.5177 8.14269 21.8438 8.92949 21.8438 9.75V18.75C21.8438 19.5705 21.5177 20.3573 20.9375 20.9375C20.3573 21.5177 19.5705 21.8438 18.75 21.8438H9.75C8.92949 21.8438 8.14269 21.5177 7.5625 20.9375C6.98231 20.3573 6.65625 19.5705 6.65625 18.75V17.3438H5.25C4.42949 17.3438 3.64269 17.0177 3.0625 16.4375C2.48231 15.8573 2.15625 15.0705 2.15625 14.25V5.25C2.15625 4.42949 2.48231 3.64269 3.0625 3.0625C3.64269 2.48231 4.42949 2.15625 5.25 2.15625H14.25C15.0705 2.15625 15.8573 2.48231 16.4375 3.0625C17.0177 3.64269 17.3438 4.42949 17.3438 5.25V6.65625Z" fill="white" fill-opacity="0.9"/>
</svg>
