<svg width="24" height="24" viewBox="0 0 24 24" fill="none" xmlns="http://www.w3.org/2000/svg">
<path d="M20 19C20.5523 19 21 19.4477 21 20C21 20.5523 20.5523 21 20 21L4 21C3.44772 21 3 20.5523 3 20C3 19.4477 3.44772 19 4 19L20 19ZM12 4C12.5523 4.00003 13 4.44774 13 5L13 12.5859L15.293 10.293C15.6835 9.90249 16.3165 9.90246 16.707 10.293C17.0975 10.6835 17.0975 11.3165 16.707 11.707L12.707 15.707C12.6605 15.7536 12.6086 15.7944 12.5537 15.8311C12.5146 15.8572 12.4743 15.8804 12.4326 15.9004C12.3871 15.9223 12.34 15.9412 12.291 15.9561C12.2717 15.9619 12.252 15.966 12.2324 15.9707C12.2201 15.9737 12.2078 15.977 12.1953 15.9795C12.1853 15.9815 12.1751 15.9827 12.165 15.9844C12.1112 15.9933 12.0563 16 12 16C11.9434 16 11.8881 15.9934 11.834 15.9844C11.8236 15.9826 11.8131 15.9816 11.8027 15.9795C11.7912 15.9772 11.7799 15.9744 11.7686 15.9717C11.748 15.9668 11.7273 15.9623 11.707 15.9561C11.6584 15.9412 11.6116 15.9222 11.5664 15.9004C11.5266 15.8812 11.4877 15.8597 11.4502 15.835C11.3935 15.7976 11.3408 15.7548 11.293 15.707L7.29297 11.707C6.90244 11.3165 6.90244 10.6835 7.29297 10.293C7.6835 9.90249 8.31652 9.90246 8.70703 10.293L11 12.5859L11 5C11 4.44772 11.4477 4 12 4Z" fill="white" fill-opacity="0.9"/>
</svg>
