<svg width="24" height="24" viewBox="0 0 24 24" fill="none" xmlns="http://www.w3.org/2000/svg">
<path fill-rule="evenodd" clip-rule="evenodd" d="M16.975 4.07552C16.3918 4.22835 16.1955 4.37536 15.1517 5.4415L14.3376 6.27295L16.0345 7.97313L17.7315 9.67328L18.6562 8.74292C19.5383 7.85541 19.5882 7.79758 19.7373 7.48854C20.1479 6.63787 20.0752 5.75122 19.5326 4.9912C18.9705 4.20387 17.9202 3.82784 16.975 4.07552ZM9.77778 10.8259L6.36999 14.2337L5.19796 16.5937C3.92595 19.155 3.92606 19.1547 4.05448 19.4908C4.13273 19.6956 4.40766 19.9486 4.58882 19.9826C4.90995 20.0428 4.99069 20.0094 7.40009 18.8182L9.72936 17.6667L13.1387 14.2607C15.0139 12.3874 16.5481 10.8421 16.5481 10.8267C16.5481 10.8002 13.2527 7.4475 13.2071 7.4276C13.1953 7.42245 11.6521 8.9517 9.77778 10.8259ZM11.6231 18.508C11.532 18.556 11.4068 18.6673 11.3448 18.7553C11.2428 18.9 11.2321 18.9432 11.2321 19.2092C11.2321 19.4752 11.2428 19.5183 11.3448 19.663C11.4068 19.751 11.532 19.8623 11.6231 19.9103L11.7887 19.9977H15.6089H19.4291L19.5947 19.9103C19.6857 19.8623 19.8109 19.751 19.8729 19.663C19.9749 19.5183 19.9856 19.4752 19.9856 19.2092C19.9856 18.9432 19.9749 18.9 19.8729 18.7553C19.8109 18.6673 19.6857 18.556 19.5947 18.508L19.4291 18.4206H15.6089H11.7887L11.6231 18.508Z" fill="white" fill-opacity="0.9"/>
</svg>
