<svg width="24" height="24" viewBox="0 0 24 24" fill="none" xmlns="http://www.w3.org/2000/svg">
<path d="M19.9998 3.99991C20.552 3.99991 20.9997 4.44767 20.9998 4.99991V18.9999C20.9998 19.5522 20.552 19.9999 19.9998 19.9999H14.9998C14.4476 19.9998 13.9998 19.5521 13.9998 18.9999C13.9998 18.4477 14.4476 18 14.9998 17.9999H18.9998V5.99991H14.9998C14.4476 5.99978 13.9998 5.55211 13.9998 4.99991C13.9998 4.44775 14.4476 4.00004 14.9998 3.99991H19.9998ZM9.29272 7.29288C9.6832 6.9024 10.3163 6.90251 10.7068 7.29288L14.7068 11.2929C14.7465 11.3326 14.7816 11.3756 14.8132 11.4198C14.8753 11.5067 14.9239 11.6035 14.9558 11.7079C14.9609 11.7247 14.9643 11.7418 14.9685 11.7587C14.9877 11.8361 14.9997 11.9166 14.9998 11.9999C14.9998 12.0562 14.9931 12.1112 14.9841 12.1649C14.977 12.2077 14.9685 12.2502 14.9558 12.2919C14.9221 12.4025 14.8689 12.504 14.8015 12.5946C14.7727 12.6334 14.742 12.6717 14.7068 12.7069L10.7068 16.7069C10.3163 17.0974 9.68322 17.0974 9.29272 16.7069C8.90238 16.3164 8.90233 15.6834 9.29272 15.2929L11.5857 12.9999H3.99976C3.44758 12.9998 2.99976 12.5521 2.99976 11.9999C2.99981 11.4477 3.44761 11 3.99976 10.9999H11.5857L9.29272 8.70694C8.90238 8.31643 8.90233 7.68336 9.29272 7.29288Z" fill="white" fill-opacity="0.9"/>
</svg>
