<svg width="24" height="24" viewBox="0 0 24 24" fill="none" xmlns="http://www.w3.org/2000/svg">
<path d="M9 4C9.55228 4 10 4.44772 10 5C10 5.55228 9.55228 6 9 6H5V18H9C9.55228 18 10 18.4477 10 19C10 19.5523 9.55228 20 9 20H4C3.44772 20 3 19.5523 3 19V5C3 4.44772 3.44772 4 4 4H9ZM15.293 7.29297C15.6835 6.90245 16.3165 6.90246 16.707 7.29297L20.707 11.293C20.7548 11.3408 20.7976 11.3935 20.835 11.4502C20.8597 11.4877 20.8812 11.5266 20.9004 11.5664C20.9222 11.6116 20.9412 11.6584 20.9561 11.707C20.9623 11.7273 20.9668 11.748 20.9717 11.7686C20.9893 11.8429 21 11.9202 21 12C21 12.1552 20.9635 12.3016 20.9004 12.4326C20.8936 12.4468 20.8864 12.4607 20.8789 12.4746C20.851 12.5262 20.8184 12.5745 20.7822 12.6201C20.7586 12.6498 20.7345 12.6796 20.707 12.707L16.707 16.707C16.3165 17.0975 15.6835 17.0975 15.293 16.707C14.9025 16.3165 14.9025 15.6835 15.293 15.293L17.5859 13H10C9.44772 13 9 12.5523 9 12C9 11.4477 9.44772 11 10 11H17.5859L15.293 8.70703C14.9025 8.31652 14.9025 7.68349 15.293 7.29297Z" fill="white" fill-opacity="0.9"/>
</svg>
