<svg width="24" height="24" viewBox="0 0 24 24" fill="none" xmlns="http://www.w3.org/2000/svg">
<path d="M14.0986 6.99512C14.3276 6.97243 14.5429 6.87117 14.707 6.70703C14.8712 6.54289 14.9724 6.32763 14.9951 6.09863L15 6C15 5.73478 14.8946 5.48051 14.707 5.29297C14.5195 5.10543 14.2652 5 14 5L13.9014 5.00488C13.6724 5.02757 13.4571 5.12883 13.293 5.29297C13.1054 5.48051 13 5.73478 13 6C13 6.26522 13.1054 6.51949 13.293 6.70703C13.4805 6.89457 13.7348 7 14 7L14.0986 6.99512ZM8 13C8.26522 13 8.51949 12.8946 8.70703 12.707C8.89457 12.5195 9 12.2652 9 12C9 11.7348 8.89457 11.4805 8.70703 11.293C8.51949 11.1054 8.26522 11 8 11C7.73478 11 7.48051 11.1054 7.29297 11.293C7.10543 11.4805 7 11.7348 7 12C7 12.2652 7.10543 12.5195 7.29297 12.707C7.48051 12.8946 7.73478 13 8 13ZM17 19C17.2652 19 17.5195 18.8946 17.707 18.707C17.8712 18.5429 17.9724 18.3276 17.9951 18.0986L18 18C18 17.7348 17.8946 17.4805 17.707 17.293C17.5195 17.1054 17.2652 17 17 17L16.9014 17.0049C16.6724 17.0276 16.4571 17.1288 16.293 17.293C16.1054 17.4805 16 17.7348 16 18C16 18.2652 16.1054 18.5195 16.293 18.707C16.4805 18.8946 16.7348 19 17 19ZM8 15C7.20435 15 6.44151 14.6837 5.87891 14.1211C5.55984 13.802 5.32358 13.4174 5.17578 13L4 13C3.44772 13 3 12.5523 3 12C3 11.4477 3.44772 11 4 11L5.17578 11C5.32358 10.5826 5.55984 10.198 5.87891 9.87891C6.44151 9.3163 7.20435 9 8 9C8.79565 9 9.55848 9.3163 10.1211 9.87891C10.4402 10.1981 10.6774 10.5825 10.8252 11L20 11C20.5523 11 21 11.4477 21 12C21 12.5523 20.5523 13 20 13L10.8252 13C10.6774 13.4175 10.4402 13.8019 10.1211 14.1211C9.55848 14.6837 8.79565 15 8 15ZM13.7031 8.98535C13.0165 8.91709 12.3711 8.61329 11.8789 8.12109C11.5598 7.80203 11.3236 7.41739 11.1758 7L4 7C3.44772 7 3 6.55228 3 6C3 5.44771 3.44772 5 4 5L11.1758 5C11.3236 4.58261 11.5598 4.19797 11.8789 3.87891C12.3711 3.38671 13.0165 3.08291 13.7031 3.01465L14 3C14.7956 3 15.5585 3.3163 16.1211 3.87891C16.4402 4.19805 16.6774 4.58249 16.8252 5L20 5C20.5523 5 21 5.44772 21 6C21 6.55228 20.5523 7 20 7L16.8252 7C16.6774 7.41751 16.4402 7.80195 16.1211 8.12109C15.5585 8.6837 14.7956 9 14 9L13.7031 8.98535ZM17 21C16.2043 21 15.4415 20.6837 14.8789 20.1211C14.5598 19.802 14.3236 19.4174 14.1758 19L4 19C3.44772 19 3 18.5523 3 18C3 17.4477 3.44772 17 4 17L14.1758 17C14.3236 16.5826 14.5598 16.198 14.8789 15.8789C15.3711 15.3867 16.0165 15.0829 16.7031 15.0146L17 15C17.7956 15 18.5585 15.3163 19.1211 15.8789C19.4402 16.1981 19.6774 16.5825 19.8252 17L20 17C20.5523 17 21 17.4477 21 18C21 18.5523 20.5523 19 20 19L19.8252 19C19.6774 19.4175 19.4402 19.8019 19.1211 20.1211C18.5585 20.6837 17.7956 21 17 21Z" fill="white" fill-opacity="0.9"/>
</svg>
