<svg width="24" height="24" viewBox="0 0 24 24" fill="none" xmlns="http://www.w3.org/2000/svg">
<path d="M8 15.0002C8.55228 15.0002 9 15.4479 9 16.0002V21.0002C8.99992 21.5524 8.55223 22.0002 8 22.0002C7.44777 22.0002 7.00008 21.5524 7 21.0002V17.0002H3C2.44777 17.0002 2.00008 16.5524 2 16.0002C2 15.4479 2.44772 15.0002 3 15.0002H8Z" fill="white" fill-opacity="0.9"/>
<path d="M21 15.0002C21.5523 15.0002 22 15.4479 22 16.0002C21.9999 16.5524 21.5522 17.0001 21 17.0002H17V21.0002C16.9999 21.5524 16.5522 22.0001 16 22.0002C15.4478 22.0002 15.0001 21.5524 15 21.0002V16.0002C15 15.4479 15.4477 15.0002 16 15.0002H21Z" fill="white" fill-opacity="0.9"/>
<path d="M8 2.00015C8.55227 2.00017 9 2.44788 9 3.00015V8.00015C8.99992 8.55236 8.55222 9.00014 8 9.00015H3C2.44776 9.00015 2.00008 8.55237 2 8.00015C2 7.44787 2.44772 7.00015 3 7.00015H7V3.00015C7 2.44787 7.44772 2.00015 8 2.00015Z" fill="white" fill-opacity="0.9"/>
<path d="M16 2.00015C16.5523 2.00017 17 2.44788 17 3.00015V7.00015H21C21.5523 7.00017 22 7.44788 22 8.00015C21.9999 8.55236 21.5522 9.00014 21 9.00015H16C15.4478 9.00015 15.0001 8.55237 15 8.00015V3.00015C15 2.44787 15.4477 2.00015 16 2.00015Z" fill="white" fill-opacity="0.9"/>
</svg>
