<svg width="24" height="24" viewBox="0 0 24 24" fill="none" xmlns="http://www.w3.org/2000/svg">
<path d="M12.0312 2C17.5397 2.01685 22 6.48757 22 12C22 17.5124 17.5397 21.9822 12.0312 21.999C12.0241 21.9992 12.0169 21.999 12.0098 21.999C12.0065 21.999 12.0033 22 12 22C11.9967 22 11.9935 21.999 11.9902 21.999H11.9883C11.9814 21.9989 11.9746 21.9992 11.9678 21.999C6.45975 21.9816 2 17.5121 2 12C2 6.4879 6.45975 2.01738 11.9678 2H12.0312ZM9.34375 16.5C10.1067 18.3026 11.227 19.3692 12 19.8604C12.773 19.3692 13.8933 18.3026 14.6562 16.5H9.34375ZM16.7939 16.5C16.4292 17.5695 15.9519 18.4765 15.4268 19.2295C16.7167 18.617 17.8166 17.6701 18.6143 16.5H16.7939ZM5.38574 16.5C6.18323 17.6699 7.28264 18.617 8.57227 19.2295C8.04722 18.4766 7.57071 17.5693 7.20605 16.5H5.38574ZM4.40039 9.5C4.14174 10.2867 4 11.1267 4 12C4 12.8733 4.14174 13.7133 4.40039 14.5H6.7041C6.5745 13.7301 6.5 12.8977 6.5 12C6.5 11.1023 6.5745 10.2699 6.7041 9.5H4.40039ZM17.2959 9.5C17.4255 10.2699 17.5 11.1023 17.5 12C17.5 12.8977 17.4255 13.7301 17.2959 14.5H19.5996C19.8583 13.7133 20 12.8733 20 12C20 11.1267 19.8583 10.2867 19.5996 9.5H17.2959ZM8.73633 9.5C8.58773 10.2484 8.5 11.0797 8.5 12C8.5 12.9203 8.58773 13.7516 8.73633 14.5H15.2637C15.4123 13.7516 15.5 12.9203 15.5 12C15.5 11.0797 15.4123 10.2484 15.2637 9.5H8.73633ZM8.57227 4.76953C7.28248 5.38206 6.18331 6.32998 5.38574 7.5H7.20605C7.57082 6.43036 8.04705 5.52254 8.57227 4.76953ZM15.4268 4.76953C15.9521 5.52263 16.4291 6.43015 16.7939 7.5H18.6143C17.8165 6.32974 16.7169 5.38205 15.4268 4.76953ZM12 4.13867C11.227 4.62972 10.1069 5.69702 9.34375 7.5H14.6562C13.8931 5.69702 12.773 4.62972 12 4.13867Z" fill="white" fill-opacity="0.9"/>
</svg>
