<svg width="24" height="24" viewBox="0 0 24 24" fill="none" xmlns="http://www.w3.org/2000/svg">
<path d="M6.18859 3.27929C6.97794 3.02957 7.81066 2.94635 8.6339 3.03417C9.45707 3.12202 10.2529 3.37944 10.9718 3.79003C11.3457 4.00361 11.6937 4.25714 12.0118 4.54393C12.3299 4.26032 12.678 4.0097 13.0509 3.79882C13.7692 3.39269 14.5641 3.13974 15.3849 3.05468C16.2057 2.96967 17.0351 3.05445 17.8214 3.30468C18.6078 3.55498 19.3345 3.96489 19.9552 4.50878C20.5759 5.05265 21.0774 5.71913 21.4288 6.46581C21.7803 7.21262 21.9747 8.02456 21.9982 8.8496C22.0216 9.67447 21.8739 10.4953 21.5655 11.2607C21.2571 12.0263 20.794 12.7205 20.2052 13.2988C20.1844 13.3192 20.1618 13.3372 20.1398 13.3555L12.712 20.7139C12.3223 21.0996 11.6945 21.0996 11.3048 20.7139L3.81456 13.2949C3.22145 12.7176 2.75438 12.0235 2.44249 11.2568C2.13064 10.4901 1.98032 9.66728 2.00206 8.83983C2.02386 8.01223 2.2166 7.19762 2.56847 6.44823C2.92035 5.69888 3.42413 5.03068 4.04699 4.48534C4.66994 3.93997 5.3992 3.52903 6.18859 3.27929ZM8.42199 5.02245C7.87333 4.96392 7.31818 5.02011 6.7921 5.18651C6.26596 5.35297 5.77958 5.62672 5.36437 5.99022C4.94936 6.35361 4.61352 6.79856 4.37902 7.29784C4.14445 7.79736 4.01562 8.34091 4.00109 8.89257C3.98662 9.44408 4.08715 9.99286 4.29503 10.5039C4.47703 10.9512 4.73805 11.3615 5.06554 11.7148L5.21007 11.8623L5.21593 11.8682L12.0079 18.5957L18.8009 11.8682C18.8156 11.8536 18.8305 11.8396 18.8458 11.8262C19.2174 11.4497 19.5122 11.0047 19.7101 10.5137C19.9156 10.0035 20.0138 9.45607 19.9982 8.90624C19.9825 8.35634 19.8535 7.81514 19.6193 7.31737C19.385 6.81975 19.0505 6.37613 18.6368 6.01366C18.2231 5.65111 17.7392 5.37777 17.215 5.21093C16.6908 5.0441 16.138 4.98727 15.5909 5.04393C15.0438 5.10063 14.5141 5.26931 14.0353 5.54003C13.5564 5.8108 13.1383 6.17753 12.8077 6.61718C12.6183 6.86911 12.3212 7.01737 12.006 7.01659C11.6908 7.01571 11.3943 6.86608 11.2062 6.61327C10.8771 6.17047 10.4596 5.80004 9.98058 5.52636C9.50152 5.25273 8.97057 5.08103 8.42199 5.02245Z" fill="white" fill-opacity="0.9"/>
</svg>
