<svg width="24" height="24" viewBox="0 0 24 24" fill="none" xmlns="http://www.w3.org/2000/svg">
<path d="M6.98959 3.0852C7.87425 2.93447 8.78147 2.98419 9.64436 3.23071C10.5073 3.47723 11.3038 3.91425 11.9754 4.50957L12.0123 4.54255L12.0463 4.51256C12.6872 3.95011 13.4407 3.5308 14.2565 3.2826C15.0723 3.0344 15.9316 2.96301 16.7772 3.07321L17.0231 3.10919C18.0889 3.29322 19.0851 3.76206 19.9063 4.46606C20.7274 5.17005 21.3428 6.08301 21.6874 7.10824C22.0321 8.13347 22.093 9.23281 21.8638 10.2898C21.6346 11.3469 21.1239 12.3223 20.3856 13.1127L20.2057 13.2976L20.1577 13.3386L12.711 20.7143C12.5392 20.8844 12.3115 20.9864 12.0702 21.0015C11.8289 21.0166 11.5903 20.9436 11.3986 20.7963L11.3047 20.7143L3.81501 13.2956C3.02158 12.5236 2.45732 11.5471 2.1847 10.4742C1.91208 9.40123 1.94175 8.27378 2.27042 7.21667C2.59909 6.15956 3.21394 5.21405 4.04687 4.48485C4.8798 3.75565 5.8983 3.27122 6.98959 3.0852Z" fill="white" fill-opacity="0.9"/>
</svg>
