<svg width="24" height="24" viewBox="0 0 24 24" fill="none" xmlns="http://www.w3.org/2000/svg">
<path fill-rule="evenodd" clip-rule="evenodd" d="M10.6047 2.52846C11.3967 1.82385 12.5985 1.82385 13.3906 2.52846L13.393 2.53066L22.4726 10.6622C23.585 11.626 22.8258 13.3539 21.4541 13.3539H20.6063V19.9192C20.6063 21.0713 19.664 22 18.5193 22H15.2585C14.1138 22 13.1715 21.0713 13.1715 19.9192V15.5155H10.8237V19.9192C10.8237 21.0713 9.88149 22 8.73678 22H5.47594C4.33122 22 3.38899 21.0713 3.38899 19.9192V13.3539H2.54118C1.12273 13.3539 0.460095 11.6013 1.51835 10.6661L10.6022 2.53067L10.6047 2.52846ZM11.934 4.02272C11.9339 4.02288 11.9342 4.02257 11.934 4.02272L3.74811 11.3539H5.38899V19.9192C5.38899 19.9364 5.39512 19.9553 5.41336 19.9734C5.43169 19.9916 5.45326 20 5.47594 20H8.73678C8.75946 20 8.78102 19.9916 8.79935 19.9734C8.8176 19.9553 8.82373 19.9364 8.82373 19.9192V13.5155H15.1715V19.9192C15.1715 19.9364 15.1776 19.9553 15.1959 19.9734C15.2142 19.9916 15.2358 20 15.2585 20H18.5193C18.542 20 18.5636 19.9916 18.5819 19.9734C18.6001 19.9553 18.6063 19.9364 18.6063 19.9192V11.3539H20.2471L12.0612 4.02272C12.061 4.02257 12.0614 4.02288 12.0612 4.02272C12.0461 4.00949 12.0244 4 11.9976 4C11.9708 4 11.9492 4.00949 11.934 4.02272Z" fill="white" fill-opacity="0.9"/>
</svg>
