<svg width="24" height="24" viewBox="0 0 24 24" fill="none" xmlns="http://www.w3.org/2000/svg">
<path d="M19.9556 19.2332C20.3463 18.8431 20.3469 18.2102 19.9569 17.8194L16.4519 14.306C17.3969 12.8248 17.7606 11.0464 17.473 9.31311C17.1854 7.57983 16.2668 6.0142 14.8941 4.91757C13.5214 3.82095 11.7915 3.27085 10.0375 3.37317C8.28352 3.47549 6.62936 4.22299 5.39346 5.47178C4.15755 6.72057 3.42725 8.38239 3.34313 10.1374C3.25901 11.8923 3.82702 13.6164 4.93782 14.9776C6.04862 16.3389 7.6237 17.2412 9.35987 17.5108C11.096 17.7804 12.8706 17.3983 14.3419 16.438L17.8353 19.9372C18.2255 20.3281 18.8587 20.3286 19.2496 19.9383L19.9556 19.2332ZM5.03688 10.475C5.03688 9.40301 5.35476 8.3551 5.95032 7.46379C6.54587 6.57247 7.39236 5.87778 8.38274 5.46755C9.37311 5.05733 10.4629 4.94999 11.5143 5.15912C12.5656 5.36826 13.5314 5.88446 14.2894 6.64246C15.0474 7.40046 15.5636 8.36621 15.7727 9.41759C15.9819 10.469 15.8745 11.5587 15.4643 12.5491C15.0541 13.5395 14.3594 14.386 13.4681 14.9815C12.5768 15.5771 11.5289 15.895 10.4569 15.895C9.01989 15.8934 7.64222 15.3218 6.62612 14.3057C5.61001 13.2896 5.03847 11.912 5.03688 10.475Z" fill="white" fill-opacity="0.9"/>
</svg>
