<svg width="24" height="24" viewBox="0 0 24 24" fill="none" xmlns="http://www.w3.org/2000/svg">
<path fill-rule="evenodd" clip-rule="evenodd" d="M2.66699 6.16667C2.66699 5.52233 3.18933 5 3.83366 5H13.167C13.8113 5 14.3337 5.52233 14.3337 6.16667C14.3337 6.811 13.8113 7.33333 13.167 7.33333H3.83366C3.18933 7.33333 2.66699 6.811 2.66699 6.16667ZM2.66699 12C2.66699 11.3557 3.18933 10.8333 3.83366 10.8333H20.167C20.8113 10.8333 21.3337 11.3557 21.3337 12C21.3337 12.6443 20.8113 13.1667 20.167 13.1667H3.83366C3.18933 13.1667 2.66699 12.6443 2.66699 12ZM2.66699 17.8333C2.66699 17.189 3.18933 16.6667 3.83366 16.6667H13.167C13.8113 16.6667 14.3337 17.189 14.3337 17.8333C14.3337 18.4777 13.8113 19 13.167 19H3.83366C3.18933 19 2.66699 18.4777 2.66699 17.8333Z" fill="white" fill-opacity="0.9"/>
</svg>
