<svg width="24" height="24" viewBox="0 0 24 24" fill="none" xmlns="http://www.w3.org/2000/svg">
<path d="M8 12.9998C9.6568 12.9998 10.9999 14.343 11 15.9998V17.9998C11 19.6567 9.65685 20.9998 8 20.9998H6C4.34315 20.9998 3 19.6567 3 17.9998V15.9998C3.0001 14.343 4.34321 12.9998 6 12.9998H8ZM18 12.9998C19.6568 12.9998 20.9999 14.343 21 15.9998V17.9998C21 19.6567 19.6569 20.9998 18 20.9998H16C14.3431 20.9998 13 19.6567 13 17.9998V15.9998C13.0001 14.343 14.3432 12.9998 16 12.9998H18ZM8 2.99982C9.6568 2.99982 10.9999 4.34304 11 5.99982V7.99982C11 9.65667 9.65685 10.9998 8 10.9998H6C4.34315 10.9998 3 9.65667 3 7.99982V5.99982C3.0001 4.34304 4.3432 2.99982 6 2.99982H8ZM18 2.99982C19.6566 3.00002 20.9999 4.34318 21 5.99982V7.99982C21 9.65655 19.6567 10.9996 18 10.9998H16C14.3431 10.9998 13 9.65667 13 7.99982V5.99982C13.0001 4.34305 14.3432 2.99982 16 2.99982H18ZM6 4.99982C5.44777 4.99982 5.0001 5.44761 5 5.99982V7.99982C5 8.5521 5.44772 8.99982 6 8.99982H8C8.55228 8.99982 9 8.5521 9 7.99982V5.99982C8.9999 5.44761 8.55223 4.99982 8 4.99982H6Z" fill="white" fill-opacity="0.9"/>
</svg>
