<svg width="24" height="24" viewBox="0 0 24 24" fill="none" xmlns="http://www.w3.org/2000/svg">
<path d="M7.5 5.25C7.5 5.84674 7.26295 6.41903 6.84099 6.84099C6.41903 7.26295 5.84674 7.5 5.25 7.5C4.65326 7.5 4.08097 7.26295 3.65901 6.84099C3.23705 6.41903 3 5.84674 3 5.25C3 4.65326 3.23705 4.08097 3.65901 3.65901C4.08097 3.23705 4.65326 3 5.25 3C5.84674 3 6.41903 3.23705 6.84099 3.65901C7.26295 4.08097 7.5 4.65326 7.5 5.25ZM7.5 12C7.5 12.5967 7.26295 13.169 6.84099 13.591C6.41903 14.0129 5.84674 14.25 5.25 14.25C4.65326 14.25 4.08097 14.0129 3.65901 13.591C3.23705 13.169 3 12.5967 3 12C3 11.4033 3.23705 10.831 3.65901 10.409C4.08097 9.98705 4.65326 9.75 5.25 9.75C5.84674 9.75 6.41903 9.98705 6.84099 10.409C7.26295 10.831 7.5 11.4033 7.5 12ZM5.25 21C5.84674 21 6.41903 20.7629 6.84099 20.341C7.26295 19.919 7.5 19.3467 7.5 18.75C7.5 18.1533 7.26295 17.581 6.84099 17.159C6.41903 16.7371 5.84674 16.5 5.25 16.5C4.65326 16.5 4.08097 16.7371 3.65901 17.159C3.23705 17.581 3 18.1533 3 18.75C3 19.3467 3.23705 19.919 3.65901 20.341C4.08097 20.7629 4.65326 21 5.25 21ZM14.25 5.25C14.25 5.84674 14.0129 6.41903 13.591 6.84099C13.169 7.26295 12.5967 7.5 12 7.5C11.4033 7.5 10.831 7.26295 10.409 6.84099C9.98705 6.41903 9.75 5.84674 9.75 5.25C9.75 4.65326 9.98705 4.08097 10.409 3.65901C10.831 3.23705 11.4033 3 12 3C12.5967 3 13.169 3.23705 13.591 3.65901C14.0129 4.08097 14.25 4.65326 14.25 5.25ZM12 14.25C12.5967 14.25 13.169 14.0129 13.591 13.591C14.0129 13.169 14.25 12.5967 14.25 12C14.25 11.4033 14.0129 10.831 13.591 10.409C13.169 9.98705 12.5967 9.75 12 9.75C11.4033 9.75 10.831 9.98705 10.409 10.409C9.98705 10.831 9.75 11.4033 9.75 12C9.75 12.5967 9.98705 13.169 10.409 13.591C10.831 14.0129 11.4033 14.25 12 14.25ZM14.25 18.75C14.25 19.3467 14.0129 19.919 13.591 20.341C13.169 20.7629 12.5967 21 12 21C11.4033 21 10.831 20.7629 10.409 20.341C9.98705 19.919 9.75 19.3467 9.75 18.75C9.75 18.1533 9.98705 17.581 10.409 17.159C10.831 16.7371 11.4033 16.5 12 16.5C12.5967 16.5 13.169 16.7371 13.591 17.159C14.0129 17.581 14.25 18.1533 14.25 18.75ZM18.75 7.5C19.3467 7.5 19.919 7.26295 20.341 6.84099C20.7629 6.41903 21 5.84674 21 5.25C21 4.65326 20.7629 4.08097 20.341 3.65901C19.919 3.23705 19.3467 3 18.75 3C18.1533 3 17.581 3.23705 17.159 3.65901C16.7371 4.08097 16.5 4.65326 16.5 5.25C16.5 5.84674 16.7371 6.41903 17.159 6.84099C17.581 7.26295 18.1533 7.5 18.75 7.5ZM21 12C21 12.5967 20.7629 13.169 20.341 13.591C19.919 14.0129 19.3467 14.25 18.75 14.25C18.1533 14.25 17.581 14.0129 17.159 13.591C16.7371 13.169 16.5 12.5967 16.5 12C16.5 11.4033 16.7371 10.831 17.159 10.409C17.581 9.98705 18.1533 9.75 18.75 9.75C19.3467 9.75 19.919 9.98705 20.341 10.409C20.7629 10.831 21 11.4033 21 12ZM18.75 21C19.3467 21 19.919 20.7629 20.341 20.341C20.7629 19.919 21 19.3467 21 18.75C21 18.1533 20.7629 17.581 20.341 17.159C19.919 16.7371 19.3467 16.5 18.75 16.5C18.1533 16.5 17.581 16.7371 17.159 17.159C16.7371 17.581 16.5 18.1533 16.5 18.75C16.5 19.3467 16.7371 19.919 17.159 20.341C17.581 20.7629 18.1533 21 18.75 21Z" fill="white" fill-opacity="0.9"/>
</svg>
