<svg width="24" height="24" viewBox="0 0 24 24" fill="none" xmlns="http://www.w3.org/2000/svg">
<path d="M9.7594 3.28432C13.2432 2.39085 16.8323 3.63698 18.9996 6.30775V5.00014C18.9998 4.44818 19.4477 4.00039 19.9996 4.00014C20.5518 4.00014 20.9994 4.44802 20.9996 5.00014V9.00014C20.9995 9.55227 20.5518 10.0001 19.9996 10.0001H15.9996C15.4477 9.99988 14.9998 9.55211 14.9996 9.00014C14.9998 8.44818 15.4477 8.00039 15.9996 8.00014H17.7701C16.1407 5.63554 13.1611 4.47694 10.2565 5.22182C9.02598 5.53843 7.90484 6.18373 7.01331 7.089C6.12174 7.99432 5.49268 9.12524 5.19495 10.3605C4.89728 11.5957 4.94165 12.8897 5.32288 14.1017C5.70418 15.3136 6.40892 16.3991 7.35998 17.2413C8.31126 18.0837 9.47499 18.6511 10.7242 18.8829C11.9735 19.1146 13.2627 19.0017 14.4528 18.5568C15.6428 18.1117 16.6894 17.3512 17.4801 16.3566C18.2707 15.362 18.7757 14.171 18.941 12.9113C19.013 12.364 19.5158 11.9774 20.0631 12.049C20.6104 12.1209 20.9961 12.6237 20.9244 13.171C20.712 14.7909 20.0622 16.3228 19.0455 17.6017C18.0288 18.8805 16.6832 19.8586 15.153 20.4308C13.6227 21.003 11.9653 21.1477 10.359 20.8497C8.7528 20.5517 7.25789 19.8214 6.03479 18.7384C4.81177 17.6554 3.90592 16.2596 3.41565 14.7013C2.92551 13.143 2.8679 11.4799 3.25061 9.89174C3.63342 8.3036 4.44222 6.84964 5.5885 5.68568C6.7348 4.52174 8.17729 3.69136 9.7594 3.28432Z" fill="white" fill-opacity="0.9"/>
</svg>
