<svg width="24" height="24" viewBox="0 0 24 24" fill="none" xmlns="http://www.w3.org/2000/svg">
<path d="M2.69775 2.69775C3.08828 2.30723 3.72129 2.30723 4.11182 2.69775L21.0835 19.6694C21.474 20.06 21.474 20.693 21.0835 21.0835C20.693 21.474 20.06 21.474 19.6694 21.0835L18.5161 19.9302C18.3515 19.975 18.1789 20.0005 18.0005 20.0005H6.00049C4.90065 20.0005 4.00075 19.1003 4.00049 18.0005V6.00049C4.00049 5.8218 4.02433 5.64803 4.06885 5.48291L2.69775 4.11182C2.30723 3.72129 2.30723 3.08828 2.69775 2.69775ZM9.40088 14.5903C9.20088 14.3103 8.79057 14.2908 8.58057 14.5708L6.6001 17.2007C6.35067 17.5307 6.59068 18.0005 7.00049 18.0005H16.5864L12.9653 14.3794L11.0005 17.0005L9.40088 14.5903ZM18.0005 4.00049C19.1049 4.00067 20.0005 4.89603 20.0005 6.00049V16.1724L7.82861 4.00049H18.0005Z" fill="white" fill-opacity="0.9"/>
</svg>
