<svg width="24" height="24" viewBox="0 0 24 24" fill="none" xmlns="http://www.w3.org/2000/svg">
<path d="M14.4375 1.72461C14.7858 1.77126 15.0968 1.97687 15.2754 2.28613L16.5947 4.57129H20C20.6311 4.57129 21.1424 5.08287 21.1426 5.71387C21.1426 6.34505 20.6312 6.85645 20 6.85645H19.4287V21.1436C19.4283 21.7743 18.9169 22.2859 18.2861 22.2861H5.71484C5.08389 22.2861 4.57263 21.7744 4.57227 21.1436V6.85645H4C3.36882 6.85645 2.85742 6.34505 2.85742 5.71387C2.85764 5.08287 3.36895 4.57129 4 4.57129H7.33984L8.66016 2.28613L8.74414 2.16016C8.95867 1.88151 9.29212 1.71489 9.64941 1.71484H14.2861L14.4375 1.72461ZM6.85742 20H17.1436V6.85645H6.85742V20ZM9.71484 9.71484C10.3458 9.71511 10.8574 10.2264 10.8574 10.8574V16.5713C10.8573 17.2022 10.3457 17.7146 9.71484 17.7148C9.08375 17.7148 8.57241 17.2023 8.57227 16.5713V10.8574C8.57227 10.2262 9.08366 9.71484 9.71484 9.71484ZM14.2861 9.71484C14.9171 9.71511 15.4287 10.2264 15.4287 10.8574V16.5713C15.4286 17.2022 14.917 17.7146 14.2861 17.7148C13.655 17.7148 13.1437 17.2023 13.1436 16.5713V10.8574C13.1436 10.2262 13.655 9.71484 14.2861 9.71484ZM9.97949 4.57129H13.9561L13.626 4H10.3096L9.97949 4.57129Z" fill="white" fill-opacity="0.9"/>
</svg>
