<svg width="24" height="24" viewBox="0 0 24 24" fill="none" xmlns="http://www.w3.org/2000/svg">
<path d="M5.38641 3.60376C4.62695 3.22424 3.78631 3.94886 4.04938 4.75593L5.75531 9.98549C5.80356 10.1332 5.89139 10.2649 6.00926 10.3662C6.12712 10.4675 6.27051 10.5346 6.42382 10.5601L13.1642 11.6833C13.5191 11.7428 13.5191 12.2528 13.1642 12.3123L6.42425 13.4356C6.27094 13.4611 6.12755 13.5281 6.00968 13.6295C5.89182 13.7308 5.80398 13.8624 5.75573 14.0102L4.04938 19.2427C3.78588 20.0502 4.62695 20.7748 5.38641 20.3953L20.4712 12.855C21.1762 12.5023 21.1762 11.4963 20.4712 11.144L5.38641 3.60376Z" fill="white" fill-opacity="0.9"/>
</svg>
