<svg width="24" height="24" viewBox="0 0 24 24" fill="none" xmlns="http://www.w3.org/2000/svg">
<path d="M12.5981 1.2002C13.5158 1.20029 14.316 1.82458 14.5386 2.71484L14.8169 3.83008C15.7504 4.15192 16.6119 4.62863 17.3696 5.23047L19.1382 4.72461C20.0205 4.47226 20.9615 4.85276 21.4204 5.64746L22.019 6.68457C22.4776 7.47922 22.3368 8.48425 21.6772 9.12207L20.4702 10.2891C20.5813 10.8421 20.6392 11.4143 20.6392 12C20.6392 12.5857 20.5813 13.1579 20.4702 13.7109L21.6772 14.8779C22.3368 15.5158 22.4776 16.5208 22.019 17.3154L21.4204 18.3525C20.9615 19.1472 20.0205 19.5277 19.1382 19.2754L17.3696 18.7695C16.6119 19.3714 15.7504 19.8481 14.8169 20.1699L14.5386 21.2852C14.316 22.1754 13.5158 22.7997 12.5981 22.7998H11.4009C10.4832 22.7997 9.68303 22.1754 9.46045 21.2852L9.18213 20.1699C8.24865 19.8481 7.38708 19.3714 6.62939 18.7695L4.86084 19.2754C3.97855 19.5277 3.03749 19.1472 2.57861 18.3525L1.97998 17.3154C1.52144 16.5208 1.66227 15.5158 2.32178 14.8779L3.52881 13.7109C3.41771 13.1579 3.35986 12.5857 3.35986 12C3.35986 11.4143 3.41772 10.8421 3.52881 10.2891L2.32178 9.12207C1.66223 8.48424 1.52142 7.47924 1.97998 6.68457L2.57861 5.64746C3.0375 4.85276 3.97854 4.47223 4.86084 4.72461L6.62939 5.23047C7.38709 4.62862 8.24865 4.15193 9.18213 3.83008L9.46045 2.71484C9.68302 1.82457 10.4832 1.20027 11.4009 1.2002H12.5981ZM11.9995 7.67969C9.61365 7.67969 7.6792 9.61413 7.6792 12C7.6792 14.3859 9.61365 16.3203 11.9995 16.3203C14.3854 16.3203 16.3198 14.3858 16.3198 12C16.3198 9.61415 14.3854 7.67972 11.9995 7.67969Z" fill="white" fill-opacity="0.9"/>
</svg>
