<svg width="24" height="24" viewBox="0 0 24 24" fill="none" xmlns="http://www.w3.org/2000/svg">
<path d="M9.99707 4.17725C11.2235 2.90019 13.1953 3.88781 13.1953 5.51025V18.4907C13.1951 20.126 11.198 21.106 9.98047 19.8052C9.97487 19.7992 9.9693 19.7927 9.96387 19.7866L7.19238 16.6646H3.86621C2.80123 16.6646 2 15.7765 2 14.7603V9.23877C2 8.22291 2.80181 7.33545 3.86621 7.33545H7.19922L9.9707 4.20459C9.97904 4.19517 9.98836 4.18632 9.99707 4.17725ZM17.8828 5.28564C18.2646 4.91773 18.8643 4.91762 19.2188 5.29932C21.0183 7.09903 21.9999 9.4714 22 12.0073C22 14.5434 21.0049 16.9301 19.2188 18.7163C19.0416 18.8935 18.7961 18.9887 18.5508 18.9888C18.3191 18.9888 18.0737 18.8932 17.8828 18.7026C17.5148 18.3345 17.5148 17.7212 17.8828 17.353C19.3145 15.9214 20.1055 14.0253 20.1055 11.9937C20.1054 9.96224 19.3143 8.06682 17.8828 6.63525C17.5148 6.26711 17.5148 5.65379 17.8828 5.28564ZM8.56934 8.60205C8.56211 8.61021 8.55438 8.61856 8.54688 8.62646C8.37511 8.80722 8.16841 8.95152 7.93945 9.05029C7.71057 9.14899 7.4641 9.20074 7.21484 9.20166H3.87695C3.87202 9.20782 3.86621 9.21952 3.86621 9.23877V14.7603C3.86621 14.7804 3.87201 14.7932 3.87695 14.7993H7.20703C7.46041 14.8001 7.7113 14.8528 7.94336 14.9546C8.17539 15.0564 8.38444 15.2052 8.55664 15.3911L8.56934 15.4058L11.3271 18.5132C11.328 18.5082 11.3291 18.5007 11.3291 18.4907V5.51025C11.3291 5.50042 11.328 5.4928 11.3271 5.48779L8.56934 8.60205ZM15.4688 7.44092C15.8367 7.07284 16.4502 7.07296 16.8184 7.44092C19.3408 9.96336 19.3417 14.0541 16.8057 16.5493C16.6285 16.7403 16.3685 16.8354 16.1367 16.8354C15.905 16.8354 15.6594 16.7538 15.4688 16.563C15.1006 16.195 15.1006 15.5805 15.4688 15.2124C17.2412 13.4399 17.2413 10.563 15.4688 8.79053C15.1009 8.42243 15.1009 7.809 15.4688 7.44092Z" fill="white" fill-opacity="0.9"/>
</svg>
