<svg width="24" height="24" viewBox="0 0 24 24" fill="none" xmlns="http://www.w3.org/2000/svg">
<path d="M9.79297 4.37662C10.9881 3.13271 12.9091 4.09466 12.9092 5.67545V18.3249C12.909 19.9184 10.9629 20.8737 9.77637 19.6061C9.77094 19.6003 9.76504 19.5945 9.75977 19.5885L7.05957 16.5456H3.81836C2.78059 16.5456 2 15.6803 2 14.6901V9.30923C2 8.31932 2.78114 7.45474 3.81836 7.45474H7.06641L9.76758 4.40396C9.7757 4.39478 9.78448 4.38546 9.79297 4.37662ZM8.40137 8.68912C8.39434 8.69705 8.38718 8.70487 8.37988 8.71255C8.21248 8.88876 8.01125 9.02936 7.78809 9.12564C7.56491 9.22192 7.32412 9.27224 7.08105 9.2731H3.8291C3.82428 9.27908 3.81836 9.2904 3.81836 9.30923V14.6901C3.81836 14.7095 3.8243 14.7212 3.8291 14.7272H7.07324C7.32019 14.7279 7.56484 14.7794 7.79102 14.8786C8.01727 14.9778 8.22078 15.1231 8.38867 15.3044L8.40137 15.318L11.0889 18.3463C11.0897 18.3414 11.0908 18.3345 11.0908 18.3249V5.67545C11.0908 5.6658 11.0897 5.65882 11.0889 5.65396L8.40137 8.68912ZM20.4482 8.63052C20.8033 8.2755 21.3784 8.2755 21.7334 8.63052C22.0884 8.98555 22.0884 9.56068 21.7334 9.91568L19.6494 12.0006L21.7334 14.0846C22.0884 14.4396 22.0883 15.0148 21.7334 15.3698C21.3784 15.7248 20.8033 15.7248 20.4482 15.3698L18.3633 13.2858L16.2793 15.3698C15.9243 15.7248 15.3482 15.7248 14.9932 15.3698C14.6386 15.0148 14.6385 14.4395 14.9932 14.0846L17.0781 12.0006L14.9932 9.91568C14.6385 9.56078 14.6386 8.98551 14.9932 8.63052C15.3482 8.2755 15.9243 8.2755 16.2793 8.63052L18.3633 10.7145L20.4482 8.63052Z" fill="white" fill-opacity="0.9"/>
</svg>
