<svg width="24" height="24" viewBox="0 0 24 24" fill="none" xmlns="http://www.w3.org/2000/svg">
<path d="M20 18.9998C20.5522 18.9998 20.9999 19.4476 21 19.9998C21 20.5521 20.5523 20.9998 20 20.9998L4 20.9998C3.44772 20.9998 3 20.5521 3 19.9998C3.00009 19.4476 3.44777 18.9998 4 18.9998L20 18.9998ZM12 3.99985L12.1025 4.00473C12.1236 4.00688 12.1443 4.01106 12.165 4.0145C12.1751 4.01618 12.1853 4.01739 12.1953 4.01938C12.2078 4.02186 12.2201 4.02523 12.2324 4.02817C12.252 4.03283 12.2717 4.03696 12.291 4.04282C12.3036 4.04662 12.3158 4.05123 12.3281 4.05551C12.3472 4.06211 12.3661 4.06921 12.3848 4.077C12.3934 4.08059 12.4017 4.08489 12.4102 4.08871C12.4596 4.11097 12.5077 4.13711 12.5537 4.16782C12.6088 4.20455 12.6604 4.24616 12.707 4.29282L16.707 8.29282C17.0975 8.68331 17.0975 9.31635 16.707 9.70688C16.3165 10.0974 15.6835 10.0974 15.293 9.70688L13 7.41391L13 14.9998C13 15.5521 12.5523 15.9998 12 15.9998C11.4477 15.9998 11 15.5521 11 14.9998L11 7.41391L8.70703 9.70688C8.31651 10.0974 7.68349 10.0974 7.29297 9.70688C6.90248 9.31635 6.90246 8.68333 7.29297 8.29282L11.293 4.29282C11.3611 4.22469 11.439 4.16623 11.5244 4.11996C11.5455 4.10855 11.5672 4.0985 11.5889 4.08871C11.5976 4.08476 11.6063 4.08071 11.6152 4.077C11.6323 4.06989 11.6496 4.06359 11.667 4.05746C11.6804 4.05274 11.6934 4.04698 11.707 4.04282C11.7273 4.03663 11.748 4.03206 11.7686 4.02719C11.7799 4.0245 11.7912 4.02168 11.8027 4.01938C11.8047 4.01899 11.8067 4.01878 11.8086 4.0184L11.8975 4.00473C11.9311 4.0013 11.9654 3.99985 12 3.99985Z" fill="white" fill-opacity="0.9"/>
</svg>
