<svg width="24" height="24" viewBox="0 0 24 24" fill="none" xmlns="http://www.w3.org/2000/svg">
<path d="M14 3.07203C14.9525 3.62197 15.7813 4.36241 16.4348 5.2471C17.0882 6.13178 17.5522 7.1417 17.7978 8.21377C18.0434 9.28585 18.0653 10.397 17.8621 11.478C17.659 12.5589 17.2351 13.5863 16.617 14.496L21.561 19.439C21.8363 19.7103 21.9962 20.0773 22.0075 20.4635C22.0188 20.8498 21.8806 21.2255 21.6217 21.5124C21.3628 21.7993 21.0032 21.9752 20.6178 22.0034C20.2324 22.0317 19.851 21.9101 19.553 21.664L19.439 21.561L14.496 16.617C13.3134 17.4203 11.9371 17.892 10.5104 17.9831C9.08367 18.0741 7.65861 17.7812 6.38348 17.1347C5.10835 16.4883 4.02975 15.512 3.25989 14.3073C2.49004 13.1027 2.05706 11.7137 2.006 10.285L2 10L2.005 9.71503C2.05419 8.33578 2.45937 6.99271 3.18115 5.81636C3.90292 4.64001 4.91675 3.6704 6.12409 3.00176C7.33143 2.33311 8.69122 1.98819 10.0713 2.0005C11.4514 2.01281 12.8048 2.38195 14 3.07203ZM10 6.00003C9.75507 6.00006 9.51866 6.08998 9.33563 6.25274C9.15259 6.4155 9.03566 6.63978 9.007 6.88303L9 7.00003V9.00003H7L6.883 9.00703C6.63995 9.03594 6.41594 9.15298 6.25341 9.33599C6.09088 9.519 6.00111 9.75527 6.00111 10C6.00111 10.2448 6.09088 10.4811 6.25341 10.6641C6.41594 10.8471 6.63995 10.9641 6.883 10.993L7 11H9V13L9.007 13.117C9.03591 13.3601 9.15296 13.5841 9.33597 13.7466C9.51897 13.9091 9.75524 13.9989 10 13.9989C10.2448 13.9989 10.481 13.9091 10.664 13.7466C10.847 13.5841 10.9641 13.3601 10.993 13.117L11 13V11H13L13.117 10.993C13.36 10.9641 13.5841 10.8471 13.7466 10.6641C13.9091 10.4811 13.9989 10.2448 13.9989 10C13.9989 9.75527 13.9091 9.519 13.7466 9.33599C13.5841 9.15298 13.36 9.03594 13.117 9.00703L13 9.00003H11V7.00003L10.993 6.88303C10.9643 6.63978 10.8474 6.4155 10.6644 6.25274C10.4813 6.08998 10.2449 6.00006 10 6.00003Z" fill="white" fill-opacity="0.9"/>
</svg>
