<svg width="24" height="24" viewBox="0 0 24 24" fill="none" xmlns="http://www.w3.org/2000/svg">
<path d="M4.00098 11.9794C4.00133 11.9618 4.00165 11.9442 4.00293 11.9267C4.00421 11.909 4.00562 11.8914 4.00781 11.8739C4.0093 11.8622 4.01177 11.8505 4.01367 11.8388C4.01671 11.82 4.02034 11.8015 4.02441 11.7831C4.02687 11.772 4.02939 11.761 4.03223 11.7499C4.04549 11.6985 4.0621 11.6484 4.08301 11.6005C4.13159 11.4889 4.20163 11.3842 4.29297 11.2929L11.293 4.29289C11.6835 3.90242 12.3165 3.90242 12.707 4.29289C13.0975 4.6834 13.0975 5.31643 12.707 5.70695L7.41406 10.9999L19 10.9999C19.5522 10.9999 19.9999 11.4477 20 11.9999C20 12.5522 19.5523 12.9999 19 12.9999L7.41406 12.9999L12.707 18.2929C13.0975 18.6834 13.0975 19.3164 12.707 19.707C12.3165 20.0975 11.6835 20.0975 11.293 19.707L4.29297 12.707C4.2358 12.6498 4.18656 12.5851 4.14453 12.5155C4.13248 12.4956 4.12088 12.4756 4.11035 12.455C4.07841 12.3927 4.05256 12.3268 4.03418 12.2577C4.02977 12.2412 4.02503 12.2247 4.02148 12.2079C4.01917 12.197 4.01758 12.1858 4.01562 12.1747C4.01252 12.1572 4.00998 12.1396 4.00781 12.122C4.00565 12.1042 4.00415 12.0863 4.00293 12.0683C4.00184 12.0523 4.00131 12.0364 4.00098 12.0204C4.00084 12.0136 4 12.0067 4 11.9999C4 11.9931 4.00084 11.9862 4.00098 11.9794Z" fill="white" fill-opacity="0.9"/>
</svg>
