<svg width="24" height="24" viewBox="0 0 24 24" fill="none" xmlns="http://www.w3.org/2000/svg">
<path d="M19.999 12.0206C19.9987 12.0382 19.9983 12.0558 19.9971 12.0733C19.9958 12.091 19.9944 12.1086 19.9922 12.1261C19.9907 12.1378 19.9882 12.1495 19.9863 12.1612C19.9833 12.18 19.9797 12.1985 19.9756 12.2169C19.9731 12.228 19.9706 12.239 19.9678 12.2501C19.9545 12.3015 19.9379 12.3516 19.917 12.3995C19.8684 12.5111 19.7984 12.6158 19.707 12.7071L12.707 19.7071C12.3165 20.0976 11.6835 20.0976 11.293 19.7071C10.9025 19.3166 10.9025 18.6836 11.293 18.293L16.5859 13.0001L5 13.0001C4.44776 13.0001 4.00007 12.5523 4 12.0001C4 11.4478 4.44771 11.0001 5 11.0001L16.5859 11.0001L11.293 5.70711C10.9025 5.3166 10.9025 4.68357 11.293 4.29304C11.6835 3.90252 12.3165 3.90252 12.707 4.29304L19.707 11.293C19.7642 11.3502 19.8134 11.4149 19.8555 11.4845C19.8675 11.5044 19.8791 11.5244 19.8896 11.545C19.9216 11.6073 19.9474 11.6732 19.9658 11.7423C19.9702 11.7588 19.975 11.7753 19.9785 11.7921C19.9808 11.803 19.9824 11.8142 19.9844 11.8253C19.9875 11.8428 19.99 11.8604 19.9922 11.878C19.9943 11.8958 19.9959 11.9137 19.9971 11.9317C19.9982 11.9477 19.9987 11.9636 19.999 11.9796C19.9992 11.9864 20 11.9933 20 12.0001C20 12.0069 19.9992 12.0138 19.999 12.0206Z" fill="white" fill-opacity="0.9"/>
</svg>
