<svg width="24" height="24" viewBox="0 0 24 24" fill="none" xmlns="http://www.w3.org/2000/svg">
<path d="M12.0205 19.999C12.0381 19.9987 12.0557 19.9983 12.0732 19.9971C12.0909 19.9958 12.1085 19.9944 12.126 19.9922C12.1378 19.9907 12.1494 19.9882 12.1611 19.9863C12.1799 19.9833 12.1984 19.9797 12.2168 19.9756C12.2279 19.9731 12.239 19.9706 12.25 19.9678C12.3015 19.9545 12.3515 19.9379 12.3994 19.917C12.5111 19.8684 12.6157 19.7984 12.707 19.707L19.707 12.707C20.0975 12.3165 20.0975 11.6835 19.707 11.293C19.3165 10.9025 18.6835 10.9025 18.293 11.293L13 16.5859V5C13 4.44776 12.5522 4.00007 12 4C11.4477 4 11 4.44771 11 5V16.5859L5.70703 11.293C5.31652 10.9025 4.6835 10.9025 4.29297 11.293C3.90244 11.6835 3.90244 12.3165 4.29297 12.707L11.293 19.707C11.3501 19.7642 11.4148 19.8134 11.4844 19.8555C11.5043 19.8675 11.5244 19.8791 11.5449 19.8896C11.6073 19.9216 11.6731 19.9474 11.7422 19.9658C11.7588 19.9702 11.7753 19.975 11.792 19.9785C11.803 19.9808 11.8141 19.9824 11.8252 19.9844C11.8427 19.9875 11.8603 19.99 11.8779 19.9922C11.8957 19.9943 11.9136 19.9959 11.9316 19.9971C11.9476 19.9982 11.9635 19.9987 11.9795 19.999C11.9863 19.9992 11.9932 20 12 20C12.0069 20 12.0137 19.9992 12.0205 19.999Z" fill="white" fill-opacity="0.9"/>
</svg>
