<svg width="24" height="24" viewBox="0 0 24 24" fill="none" xmlns="http://www.w3.org/2000/svg">
<path d="M9.29297 13.2932C9.68347 12.9027 10.3165 12.9028 10.707 13.2932C11.0974 13.6838 11.0975 14.3168 10.707 14.7073L6.41406 19.0002H9C9.55225 19.0002 9.99995 19.448 10 20.0002C9.99979 20.5524 9.55216 21.0002 9 21.0002H4C3.94241 21.0002 3.88598 20.995 3.83105 20.9856C3.79 20.9786 3.74908 20.9694 3.70898 20.9573C3.68945 20.9513 3.67038 20.9439 3.65137 20.9368C3.64167 20.9332 3.63167 20.9299 3.62207 20.926C3.59817 20.9163 3.57469 20.9053 3.55176 20.8938C3.54635 20.8911 3.54053 20.8888 3.53516 20.886L3.52344 20.8801C3.50521 20.8702 3.48822 20.8579 3.4707 20.8469C3.46411 20.8428 3.45673 20.8395 3.4502 20.8352L3.44141 20.8293C3.33197 20.7554 3.23781 20.6603 3.16504 20.55C3.11995 20.4817 3.08515 20.4084 3.05859 20.3333C3.05391 20.32 3.04811 20.3067 3.04395 20.2932C3.03779 20.273 3.03317 20.2521 3.02832 20.2317C3.01072 20.1575 3.00003 20.0798 3 20.0002V15.0002C3.00005 14.4481 3.44784 14.0004 4 14.0002C4.55225 14.0002 4.99995 14.448 5 15.0002V17.5862L9.29297 13.2932ZM20.1689 3.01489C20.21 3.02191 20.2509 3.03106 20.291 3.04321C20.3105 3.04915 20.3296 3.05665 20.3486 3.06372C20.3583 3.06731 20.3684 3.07056 20.3779 3.07446C20.4018 3.08424 20.4253 3.09516 20.4482 3.10669C20.4536 3.10938 20.4595 3.11169 20.4648 3.1145L20.4766 3.12036C20.4948 3.13027 20.5118 3.14259 20.5293 3.15356C20.5359 3.15767 20.5433 3.16099 20.5498 3.16528L20.5586 3.17114C20.668 3.24509 20.7622 3.34014 20.835 3.45044C20.88 3.5188 20.9149 3.59203 20.9414 3.66724C20.9461 3.68052 20.9519 3.69373 20.9561 3.70728C20.9622 3.72748 20.9668 3.74832 20.9717 3.7688C20.9893 3.84307 21 3.9206 21 4.00024V9.00024C20.9998 9.55227 20.552 10.0001 20 10.0002C19.4478 10.0002 19.0002 9.55238 19 9.00024V6.41431L14.707 10.7073C14.3166 11.0977 13.6835 11.0975 13.293 10.7073C12.9025 10.3168 12.9025 9.68374 13.293 9.29321L17.5859 5.00024H15C14.4478 5.00024 14.0002 4.55238 14 4.00024C14 3.44796 14.4477 3.00024 15 3.00024H20C20.0576 3.00026 20.114 3.00554 20.1689 3.01489Z" fill="white" fill-opacity="0.9"/>
</svg>
