<svg width="24" height="24" viewBox="0 0 24 24" fill="none" xmlns="http://www.w3.org/2000/svg">
<path d="M10.1689 13.0146C10.21 13.0216 10.2509 13.0308 10.291 13.0429C10.3106 13.0489 10.3296 13.0564 10.3486 13.0634C10.3584 13.0671 10.3683 13.0703 10.3779 13.0742C10.4019 13.084 10.4253 13.0949 10.4482 13.1064C10.4537 13.1091 10.4594 13.1114 10.4648 13.1142L10.4766 13.1201C10.4948 13.13 10.5117 13.1423 10.5293 13.1533C10.5359 13.1574 10.5432 13.1607 10.5498 13.165L10.5586 13.1709C10.6681 13.2448 10.7622 13.3398 10.835 13.4502C10.8801 13.5186 10.9148 13.5917 10.9414 13.667C10.9461 13.6803 10.9519 13.6934 10.9561 13.707C10.9622 13.7273 10.9668 13.748 10.9717 13.7685C10.9893 13.8429 11 13.9202 11 14V19C10.9999 19.5521 10.5521 19.9998 10 20C9.44775 20 9.00005 19.5522 9 19V16.414L4.70703 20.707C4.31654 21.0975 3.6835 21.0974 3.29297 20.707C2.90244 20.3165 2.90244 19.6835 3.29297 19.2929L7.58594 15H5C4.44775 15 4.00005 14.5522 4 14C4 13.4477 4.44772 13 5 13H10C10.0576 13 10.114 13.0053 10.1689 13.0146ZM19.293 3.29294C19.6835 2.90244 20.3165 2.90248 20.707 3.29294C21.0975 3.68347 21.0975 4.31649 20.707 4.707L16.4141 8.99997H19C19.5522 8.99999 20 9.44774 20 9.99997C20 10.5522 19.5522 11 19 11H14C13.9424 11 13.886 10.9947 13.8311 10.9853C13.79 10.9783 13.7491 10.9692 13.709 10.957C13.6894 10.9511 13.6704 10.9436 13.6514 10.9365C13.6416 10.9329 13.6317 10.9297 13.6221 10.9258C13.5981 10.916 13.5747 10.9051 13.5518 10.8935C13.5463 10.8908 13.5406 10.8885 13.5352 10.8857L13.5234 10.8799C13.5052 10.8699 13.4883 10.8577 13.4707 10.8466C13.4641 10.8425 13.4568 10.8393 13.4502 10.8349L13.4414 10.8291C13.3319 10.7551 13.2378 10.6601 13.165 10.5498C13.1199 10.4814 13.0852 10.4082 13.0586 10.333C13.0539 10.3196 13.0481 10.3065 13.0439 10.2929C13.0378 10.2727 13.0332 10.252 13.0283 10.2314C13.0107 10.1571 13 10.0797 13 9.99997V4.99997C13 4.44779 13.4478 4.00008 14 3.99997C14.5522 3.99999 15 4.44774 15 4.99997V7.58591L19.293 3.29294Z" fill="white" fill-opacity="0.9"/>
</svg>
