<svg width="24" height="24" viewBox="0 0 24 24" fill="none" xmlns="http://www.w3.org/2000/svg">
<path d="M3.29272 17.2072C2.90239 16.8167 2.90232 16.1836 3.29272 15.7931L6.79272 12.2921C7.18308 11.9022 7.81634 11.9023 8.20679 12.2921C8.59696 12.6826 8.59691 13.3167 8.20679 13.7072L6.41382 15.5001L19.8748 15.5001C20.4959 15.5002 20.9996 15.948 20.9998 16.5001C20.9997 17.0523 20.496 17.5001 19.8748 17.5001L6.41382 17.5001L8.20679 19.2931C8.59696 19.6835 8.59691 20.3167 8.20679 20.7072C7.81634 21.0976 7.18325 21.0974 6.79272 20.7072L3.29272 17.2072ZM2.99976 7.50014C2.99984 6.94805 3.50364 6.5003 4.12476 6.50014L17.5857 6.50014L15.7927 4.70717C15.4026 4.31667 15.4025 3.68254 15.7927 3.29213C16.1831 2.90222 16.8164 2.90219 17.2068 3.29213L20.7068 6.79311C21.0972 7.18362 21.0972 7.81666 20.7068 8.20717L17.2068 11.7072C16.8163 12.0975 16.1832 12.0976 15.7927 11.7072C15.4026 11.3167 15.4025 10.6835 15.7927 10.2931L17.5857 8.50014L4.12476 8.50014C3.50359 8.49997 2.99976 8.05229 2.99976 7.50014Z" fill="white" fill-opacity="0.9"/>
</svg>
