<svg width="24" height="24" viewBox="0 0 24 24" fill="none" xmlns="http://www.w3.org/2000/svg">
<path d="M11.293 11.0727C11.6835 10.6822 12.3165 10.6822 12.707 11.0727L18.707 17.0727C19.0974 17.4632 19.0975 18.0963 18.707 18.4868C18.3166 18.8772 17.6835 18.8771 17.293 18.4868L12 13.1938L6.70703 18.4868C6.31656 18.8772 5.68351 18.8771 5.29297 18.4868C4.90244 18.0962 4.90244 17.4632 5.29297 17.0727L11.293 11.0727ZM11.293 4.85297C11.6835 4.46244 12.3165 4.46244 12.707 4.85297L18.707 10.853C19.0973 11.2435 19.0975 11.8766 18.707 12.267C18.3166 12.6573 17.6834 12.6573 17.293 12.267L12 6.97406L6.70703 12.267C6.31657 12.6573 5.68345 12.6573 5.29297 12.267C4.90251 11.8766 4.90264 11.2435 5.29297 10.853L11.293 4.85297Z" fill="white" fill-opacity="0.9"/>
</svg>
