<svg width="24" height="24" viewBox="0 0 24 24" fill="none" xmlns="http://www.w3.org/2000/svg">
<path d="M6.79248 3.29297C7.183 2.90263 7.81607 2.90256 8.20654 3.29297L11.7075 6.79297C12.0975 7.18333 12.0973 7.81659 11.7075 8.20703C11.3171 8.59721 10.683 8.59715 10.2925 8.20703L8.49951 6.41406V19.875C8.49947 20.4962 8.05162 20.9999 7.49951 21C6.94734 20.9999 6.49956 20.4962 6.49951 19.875V6.41406L4.70654 8.20703C4.31611 8.59721 3.68295 8.59715 3.29248 8.20703C2.9021 7.81658 2.90222 7.18349 3.29248 6.79297L6.79248 3.29297ZM16.4995 3C17.0516 3.00015 17.4995 3.50381 17.4995 4.125V17.5859L19.2925 15.793C19.683 15.4029 20.3171 15.4028 20.7075 15.793C21.0974 16.1834 21.0974 16.8167 20.7075 17.207L17.2065 20.707C16.8161 21.0975 16.183 21.0974 15.7925 20.707L12.2925 17.207C11.9022 16.8165 11.9021 16.1834 12.2925 15.793C12.683 15.4029 13.3161 15.4028 13.7065 15.793L15.4995 17.5859V4.125C15.4996 3.50377 15.9473 3.00007 16.4995 3Z" fill="white" fill-opacity="0.9"/>
</svg>
