<svg width="24" height="24" viewBox="0 0 24 24" fill="none" xmlns="http://www.w3.org/2000/svg">
<path d="M11.293 12.9268C11.6835 13.3174 12.3165 13.3174 12.707 12.9268L18.707 6.92685C19.0974 6.53631 19.0975 5.90326 18.707 5.51279C18.3166 5.12231 17.6835 5.12241 17.293 5.51279L12 10.8058L6.70703 5.51279C6.31656 5.12231 5.68351 5.12241 5.29297 5.51279C4.90244 5.90331 4.90244 6.53633 5.29297 6.92685L11.293 12.9268ZM11.293 19.1466C11.6835 19.5371 12.3165 19.5371 12.707 19.1466L18.707 13.1466C19.0973 12.756 19.0975 12.123 18.707 11.7325C18.3166 11.3423 17.6834 11.3423 17.293 11.7325L12 17.0255L6.70703 11.7325C6.31657 11.3423 5.68345 11.3423 5.29297 11.7325C4.90251 12.123 4.90264 12.756 5.29297 13.1466L11.293 19.1466Z" fill="white" fill-opacity="0.9"/>
</svg>
