<svg width="24" height="24" viewBox="0 0 24 24" fill="none" xmlns="http://www.w3.org/2000/svg">
<path d="M15.293 14.2935C15.6835 13.903 16.3165 13.903 16.707 14.2935C17.0973 14.684 17.0975 15.3171 16.707 15.7075L12.707 19.7075L12.6309 19.7759C12.2382 20.096 11.659 20.0734 11.293 19.7075L7.29297 15.7075C6.90254 15.3171 6.9027 14.684 7.29297 14.2935C7.68349 13.9029 8.31651 13.9029 8.70703 14.2935L12 17.5864L15.293 14.2935ZM11.3691 4.2251C11.7619 3.90475 12.3409 3.92734 12.707 4.29346L16.707 8.29346C17.0974 8.684 17.0975 9.31706 16.707 9.70752C16.3165 10.0977 15.6834 10.0978 15.293 9.70752L12 6.41455L8.70703 9.70752C8.31656 10.0977 7.68341 10.0977 7.29297 9.70752C6.90255 9.31709 6.90274 8.684 7.29297 8.29346L11.293 4.29346L11.3691 4.2251Z" fill="white" fill-opacity="0.9"/>
</svg>
