<svg width="24" height="24" viewBox="0 0 24 24" fill="none" xmlns="http://www.w3.org/2000/svg">
<path fill-rule="evenodd" clip-rule="evenodd" d="M5.70544 9.37375C5.70544 9.37375 4.74012 7.2568 5.02686 5.90877C5.44663 3.93527 6.87631 2.67004 8.75907 2.62615C10.6935 2.58105 12.2829 3.86882 12.6609 5.90877C12.9152 7.28103 11.8127 9.37375 11.8127 9.37375C11.8127 9.37375 13.4408 9.17181 14.7187 10.0766C14.2931 10.4859 13.9096 10.9651 13.5809 11.4866C13.4018 11.7708 13.3213 12.1041 13.3213 12.4401V17.292C13.1072 17.3451 12.8865 17.3809 12.6609 17.3979C11.4695 17.4879 9.77695 16.3037 9.77695 16.3037C9.77695 16.3037 9.74187 17.5545 9.94659 18.3098C10.1419 19.0305 10.7146 19.8863 11.0504 20.3469C11.1495 20.4829 11.0528 20.6806 10.8845 20.6806H6.59376C6.43288 20.6806 6.33502 20.4992 6.42036 20.3628C6.7095 19.9008 7.22064 19.0211 7.4019 18.3098C7.61267 17.4827 7.57155 16.1214 7.57155 16.1214C7.57155 16.1214 6.01423 17.3939 4.85721 17.3979C2.84228 17.405 1.12501 15.7343 1.125 13.5682C1.12498 8.82666 5.70544 9.37375 5.70544 9.37375Z" fill="white" fill-opacity="0.9"/>
<path d="M18.6196 11.6528C15.428 11.6528 14.7188 13.329 14.7188 13.329C14.7188 13.329 15.7826 14.67 18.6196 14.67C21.4565 14.67 22.5204 13.329 22.5204 13.329C22.5204 13.329 21.8111 11.6528 18.6196 11.6528Z" fill="white" fill-opacity="0.9"/>
<path d="M14.7188 16.6815V15.0053C14.7188 15.0053 15.7826 16.011 18.6196 16.011C21.4565 16.011 22.875 15.0053 22.875 15.0053V16.6815C22.875 16.6815 21.4565 18.0225 18.6196 18.0225C15.7826 18.0225 14.7188 16.6815 14.7188 16.6815Z" fill="white" fill-opacity="0.9"/>
<path d="M18.6196 19.3635C15.7826 19.3635 14.7188 18.3578 14.7188 18.3578V20.034C14.7188 20.034 15.7826 21.375 18.6196 21.375C22.1658 21.375 22.875 20.034 22.875 20.034V18.3578C22.875 18.3578 21.4565 19.3635 18.6196 19.3635Z" fill="white" fill-opacity="0.9"/>
</svg>
