<svg width="24" height="24" viewBox="0 0 24 24" fill="none" xmlns="http://www.w3.org/2000/svg">
<path d="M13.2 9.09036V2.70701C13.2 2.0404 12.6596 1.5 11.993 1.5C11.619 1.5 11.2662 1.67335 11.0376 1.96937L3.47196 11.7682C3.16598 12.1646 3 12.6511 3 13.1518C3 14.4021 4.01357 15.4157 5.26388 15.4157H10.8V20.9143C10.8 21.79 11.51 22.5 12.3857 22.5C12.8968 22.5 13.3766 22.2536 13.6745 21.8382L20.6414 12.1207C20.8746 11.7954 21 11.4053 21 11.005C21 9.94759 20.1428 9.09036 19.0853 9.09036H13.2Z" fill="white" fill-opacity="0.9"/>
</svg>
