<svg width="24" height="24" viewBox="0 0 24 24" fill="none" xmlns="http://www.w3.org/2000/svg">
<path d="M10.405 3.11685C10.8016 1.59402 12.3222 0.69023 13.8015 1.0983L20.9441 3.069C22.4234 3.47706 23.3022 5.04219 22.906 6.56509L20.9919 13.9196C20.5955 15.4425 19.0739 16.3462 17.5945 15.9381L10.4519 13.9674C9.36897 13.6687 8.60978 12.7497 8.4353 11.6813C8.43283 11.6962 8.43071 11.7114 8.42847 11.7262C8.2433 11.6372 7.9906 11.6561 7.77417 11.7975L6.78882 12.442L6.05444 11.2506L4.94702 11.9743L5.68237 13.1657L4.41479 13.9938L4.97632 14.904L7.62183 13.1745C7.64408 14.1045 7.51714 16.1786 6.09839 18.1335L7.08276 18.6452C7.48491 18.0887 7.80078 17.5308 8.04468 16.9821L9.9353 20.0475L11.0417 19.3239L8.96069 15.9499L9.85815 16.0329L10.2234 14.8747L8.73413 14.7379C8.79785 14.3731 8.83522 14.0349 8.85522 13.734C9.21567 14.2966 9.76986 14.7314 10.4519 14.9196L15.8962 16.4206C15.9678 17.4752 15.4646 18.5302 14.5154 19.0944L8.58276 22.6208C7.25642 23.4089 5.56051 22.9411 4.79468 21.5758L1.36987 15.4684C0.604056 14.1029 1.05809 12.3564 2.38452 11.568L8.31714 8.04263C8.60224 7.87318 8.90434 7.76168 9.21069 7.70474L10.405 3.11685ZM18.9333 16.1315C19.7909 16.1329 20.613 16.4839 21.2195 17.1081C21.826 17.7324 22.1674 18.5796 22.1687 19.4626C22.1686 20.1212 21.9792 20.7655 21.6238 21.3131C21.2683 21.8608 20.7628 22.2876 20.1716 22.5397C19.5805 22.7918 18.93 22.8576 18.3025 22.7292C17.6749 22.6006 17.0978 22.2829 16.6453 21.817C16.193 21.3513 15.8853 20.7579 15.7605 20.112C15.6357 19.4659 15.6992 18.7958 15.9441 18.1872C16.1889 17.5788 16.6037 17.0589 17.1355 16.693C17.6676 16.327 18.2934 16.1315 18.9333 16.1315ZM18.1863 20.2311H19.6804V18.694H18.1863V20.2311ZM14.3259 4.06119C13.5797 5.26559 12.1119 7.35805 11.3806 7.82291L11.7048 9.4772C12.1912 9.16367 12.7764 8.52755 13.3259 7.8317L15.2332 8.40591L14.5232 10.904L14.5173 10.902L10.6775 9.74576L10.1658 11.5485L19.0437 14.2233L19.5564 12.4196L15.7175 11.2633L16.4294 8.7565L19.3396 9.63345L19.8523 7.82974L16.9421 6.95377L17.6521 4.45572L16.4529 4.09439L15.7429 6.59244L14.4949 6.21646C14.7507 5.83987 14.9595 5.5152 15.0925 5.30826C15.1575 5.20717 15.2047 5.13362 15.2302 5.09634L14.3259 4.06119ZM5.48315 2.28677C6.3407 2.28688 7.16294 2.63712 7.77026 3.26041C8.22273 3.72621 8.53115 4.3194 8.65601 4.96548C8.78085 5.6116 8.7173 6.28166 8.47241 6.89029C8.22752 7.49888 7.81208 8.01845 7.28003 8.38443C6.74807 8.75035 6.12293 8.94587 5.48315 8.94595C4.84324 8.94595 4.21737 8.75042 3.6853 8.38443C3.1534 8.01851 2.73878 7.49871 2.4939 6.89029C2.24901 6.28166 2.18448 5.6116 2.30933 4.96548C2.43417 4.31942 2.74263 3.72621 3.19507 3.26041C3.80248 2.63701 4.62546 2.28677 5.48315 2.28677ZM4.42651 5.6149L5.48315 6.70279L6.53882 5.6149L5.48315 4.52798L4.42651 5.6149Z" fill="white" fill-opacity="0.9"/>
</svg>
