<svg width="24" height="24" viewBox="0 0 24 24" fill="none" xmlns="http://www.w3.org/2000/svg">
<path d="M21.6814 1.91724C21.7525 1.91381 21.8228 1.9317 21.8826 1.96802C21.9157 1.99452 21.946 2.02386 21.9734 2.05591C21.9866 2.07404 21.9983 2.09345 22.0076 2.11353C22.0095 2.11821 22.0129 2.12281 22.0164 2.12622C22.0202 2.12948 22.0253 2.13168 22.03 2.13306C22.1281 2.30857 22.0953 2.51814 21.8826 2.75122L18.99 5.92017L18.9255 5.99048L14.5964 10.7219C14.6945 10.9671 14.7488 11.2308 14.7488 11.5061C14.7488 12.0754 14.5197 12.5958 14.1404 13.0002L15.6277 15.9172C15.6532 15.9932 15.6658 16.0442 15.6658 16.0696C15.6657 16.1964 15.6207 16.3109 15.53 16.4124C15.4259 16.5263 15.3025 16.5831 15.1599 16.5833H12.741C12.4939 16.5833 12.3184 16.4689 12.2146 16.2405L11.0828 14.1194C11.2976 14.1719 11.5222 14.2004 11.7537 14.2004C12.5695 14.2004 13.3013 13.8516 13.8044 13.3C13.3546 13.6329 12.7775 13.8333 12.1482 13.8333C11.1219 13.8331 10.2363 13.3002 9.81323 12.5276C9.83832 12.613 9.86783 12.6975 9.90405 12.7795C10.031 13.0643 10.223 13.3186 10.4656 13.5237C10.6185 13.6586 10.791 13.773 10.9763 13.8635C11.0106 13.8811 11.0461 13.898 11.0828 13.9133L10.7566 14.7561C10.0521 16.4612 9.0428 18.5331 7.88354 19.803C7.33159 20.3918 6.63603 20.8414 5.85913 21.1116C5.62493 21.1481 5.38827 21.1664 5.15112 21.1663H2.31616C2.24564 21.1697 2.17523 21.1518 2.11499 21.1155C2.08242 21.0891 2.05241 21.0595 2.02515 21.0276C2.01197 21.0095 2.00026 20.99 1.99097 20.97C1.98901 20.9653 1.98561 20.9607 1.98218 20.9573C1.9783 20.954 1.97331 20.9518 1.96851 20.9504C1.8705 20.775 1.90292 20.5653 2.11499 20.3323L5.00854 17.1633L5.073 17.093L9.63647 12.1028C9.58003 11.9121 9.54761 11.7126 9.54761 11.5061C9.54761 11.3462 9.56526 11.1901 9.59937 11.0393L7.45972 7.19067C7.43027 7.11179 7.41577 7.05876 7.41577 7.03247C7.41584 6.90119 7.46721 6.78305 7.57007 6.67798C7.68737 6.55962 7.8275 6.50024 7.98901 6.50024H10.7234C11.0027 6.50027 11.2018 6.61806 11.3191 6.85474L12.7019 9.23169C12.9701 9.28371 13.2225 9.37361 13.4529 9.49341C13.3204 9.38719 13.1762 9.2952 13.0222 9.21997C12.9879 9.20233 12.952 9.18555 12.9158 9.17017L13.241 8.32739C13.9454 6.62222 14.9556 4.55054 16.115 3.28052C16.667 2.69167 17.3625 2.24211 18.1394 1.97192C18.3731 1.93536 18.6103 1.91711 18.8474 1.91724H21.6814ZM9.64233 12.26C9.43803 12.5899 9.27605 12.9425 9.16089 13.3098L7.77124 15.1145L7.03687 16.0598L8.99976 13.8987C8.9836 13.9758 8.96903 14.053 8.95483 14.1301C8.92691 14.2704 8.90461 14.4107 8.8855 14.551L7.05054 16.9524L8.823 15.0227C8.82202 15.0348 8.81959 15.0474 8.81714 15.0598C8.81421 15.0791 8.8113 15.0988 8.81128 15.1184L8.75659 15.6379L8.74683 15.6301L7.44409 17.3665L7.16772 17.7356L7.50366 17.3684L8.69507 16.0959C8.6686 16.3019 8.63662 16.5072 8.59839 16.7112L7.18823 18.6135L8.48804 17.2385C8.42925 17.4855 8.36378 17.73 8.28296 17.97C8.0653 18.588 7.80175 19.1913 7.49487 19.7737C7.95372 19.2706 8.32825 18.7015 8.60425 18.0881C8.74194 17.7782 8.8554 17.4585 8.94214 17.1321C8.97058 17.0218 8.99563 16.9107 9.01929 16.7991L9.08569 16.4622C9.10331 16.3543 9.12032 16.2463 9.13647 16.1399C9.17716 15.8155 9.21258 15.4907 9.23022 15.1565C9.24297 14.9177 9.26043 14.6838 9.27808 14.4514C9.28541 14.3588 9.29271 14.2665 9.29956 14.1741C9.31867 13.9453 9.34631 13.716 9.37964 13.4885L9.40601 13.3245C9.46236 12.9655 9.5409 12.6097 9.64233 12.26ZM12.1482 10.6184C11.6008 10.6186 11.157 11.0162 11.157 11.5061C11.157 11.9961 11.6008 12.3936 12.1482 12.3938C12.6958 12.3938 13.1404 11.9962 13.1404 11.5061C13.1404 11.0161 12.6958 10.6184 12.1482 10.6184ZM16.5037 3.30981C16.0448 3.81293 15.6703 4.38198 15.3943 4.99536C15.2561 5.30527 15.1431 5.62504 15.0564 5.95142C14.9996 6.17178 14.954 6.39537 14.9128 6.62134C14.8952 6.7292 14.8782 6.83715 14.8621 6.9436C14.8214 7.26796 14.786 7.59281 14.7683 7.927C14.7556 8.16574 14.7371 8.39979 14.7195 8.63208C14.7121 8.72467 14.7058 8.81707 14.699 8.90942C14.6799 9.13826 14.6522 9.3675 14.6189 9.59497C14.614 9.63148 14.6067 9.66784 14.6003 9.70435C14.5974 9.72257 14.5945 9.74081 14.5916 9.75903C14.5558 9.98657 14.5105 10.2126 14.4568 10.4368C14.4767 10.4711 14.4974 10.505 14.5154 10.5403C14.645 10.294 14.7537 10.0382 14.8367 9.77368L16.2273 7.96899L16.9617 7.02368L14.9988 9.18481C15.0149 9.10771 15.029 9.03052 15.0437 8.95337C15.0716 8.81309 15.0939 8.67275 15.113 8.53247L16.948 6.1311L15.1755 8.05981C15.1765 8.04796 15.1785 8.03586 15.1804 8.02368C15.1838 8.00445 15.1872 7.98469 15.1873 7.96509L15.2419 7.44556L15.2517 7.45337L16.5544 5.71704L16.8308 5.3479L16.4949 5.71509L15.3035 6.98755C15.3299 6.78162 15.3619 6.57639 15.4001 6.37231L16.8093 4.46997L15.5105 5.84497C15.5693 5.59784 15.6347 5.35266 15.7156 5.11255C15.9332 4.49456 16.1968 3.89202 16.5037 3.30981Z" fill="white" fill-opacity="0.9"/>
</svg>
