<svg width="24" height="24" viewBox="0 0 24 24" fill="none" xmlns="http://www.w3.org/2000/svg">
<g clip-path="url(#clip0_4_3724)">
<path d="M16.8298 8.93423C17.4946 8.7512 18.2375 8.91145 18.7048 9.43814C18.9968 9.76721 19.2191 10.0791 19.4255 10.4254C19.8455 11.1301 19.7142 12.0235 19.1091 12.5436C18.8795 12.741 18.6418 12.922 18.4392 13.027C13.1971 15.744 8.21072 17.6128 6.10425 18.3581C5.45181 18.5889 4.71987 18.4429 4.17456 17.9899L3.12866 17.1208C2.96679 16.9863 2.74088 16.9622 2.56128 17.0602L2.50464 17.0905C2.28575 17.2099 2.00527 17.1462 1.87183 16.9284C1.75173 16.7321 1.62919 16.4989 1.60913 16.3366C1.56843 16.0057 1.87217 15.311 2.6814 15.5612C2.69063 15.564 2.70001 15.5677 2.70874 15.5719L5.49194 16.9196C5.5722 16.9584 5.66687 16.9413 5.72534 16.8776L7.55835 14.8815C7.65447 14.7768 7.60754 14.6055 7.46948 14.5573L3.85815 13.2965C3.47403 13.1625 3.38398 12.6606 3.7019 12.4245L3.88257 12.2907C4.21695 12.0424 4.62569 11.9076 5.04956 11.9069L8.84839 11.901C9.22115 11.9003 9.5308 11.6324 9.58179 11.2672C9.61431 11.0351 9.75402 10.834 9.95972 10.7233L12.1326 9.55435C12.5247 9.34342 12.9813 9.27256 13.4285 9.35318L14.1121 9.47623C14.4101 9.53003 14.7147 9.51738 15.0027 9.43814L16.8298 8.93423ZM17.3845 6.83365C17.1636 6.32744 17.6327 5.81556 18.1589 5.98892L18.3513 6.0524C18.5387 6.11417 18.6962 6.24655 18.7888 6.42056L19.8191 8.35806C19.8537 8.42275 19.9201 8.4646 19.9929 8.46841L20.113 8.47525C20.6094 8.5005 20.9495 9.00319 20.7791 9.4606C20.7578 9.51774 20.7675 9.58257 20.8054 9.63248L22.3093 11.611C22.3926 11.7206 22.4399 11.8527 22.4441 11.9879C22.4596 12.4856 21.9237 12.7933 21.4851 12.5387L21.2917 12.4264C21.1559 12.3475 21.0461 12.2303 20.9763 12.0905L20.0388 10.2135C19.9914 10.1186 19.9363 10.0269 19.8748 9.94009L18.95 8.63541L17.4988 7.01138C17.4515 6.95852 17.4127 6.89821 17.3845 6.83365ZM13.3953 10.029C13.1486 9.93278 12.8754 9.9436 12.6443 10.0592L11.0437 10.861C10.6939 11.036 10.5453 11.452 10.7019 11.819C10.8583 12.1853 11.2669 12.3816 11.6433 12.2711L13.3699 11.7633C14.205 11.5177 14.2219 10.3515 13.3953 10.029Z" fill="white" fill-opacity="0.9"/>
</g>
<defs>
<clipPath id="clip0_4_3724">
<rect width="24" height="24" fill="white"/>
</clipPath>
</defs>
</svg>
