<svg width="24" height="24" viewBox="0 0 24 24" fill="none" xmlns="http://www.w3.org/2000/svg">
<path d="M20.5 3.75C21.6046 3.75 22.5 4.64543 22.5 5.75V14.3965C22.5 14.8254 22.3649 15.2466 22.0928 15.5781C16.9844 21.8008 7.49469 21.8069 1.95898 15.5967C1.65446 15.255 1.50008 14.8073 1.5 14.3496V5.75C1.5 4.64543 2.39543 3.75 3.5 3.75H20.5ZM9.75 13.5C8.92157 13.5 8.25 14.1716 8.25 15C8.25 15.8284 8.92157 16.5 9.75 16.5C10.5784 16.5 11.25 15.8284 11.25 15C11.25 14.1716 10.5784 13.5 9.75 13.5ZM14.25 13.5C13.4216 13.5 12.75 14.1716 12.75 15C12.75 15.8284 13.4216 16.5 14.25 16.5C15.0784 16.5 15.75 15.8284 15.75 15C15.75 14.1716 15.0784 13.5 14.25 13.5ZM5.25 11.25C4.42157 11.25 3.75 11.9216 3.75 12.75C3.75 13.5784 4.42157 14.25 5.25 14.25C6.07843 14.25 6.75 13.5784 6.75 12.75C6.75 11.9216 6.07843 11.25 5.25 11.25ZM18.75 11.25C17.9216 11.25 17.25 11.9216 17.25 12.75C17.25 13.5784 17.9216 14.25 18.75 14.25C19.5784 14.25 20.25 13.5784 20.25 12.75C20.25 11.9216 19.5784 11.25 18.75 11.25ZM7.97852 7.82617C7.42623 7.82617 6.97852 8.27389 6.97852 8.82617V9.07617C6.97857 9.62841 7.42626 10.0762 7.97852 10.0762H16.4785C17.0308 10.0762 17.4785 9.62841 17.4785 9.07617V8.82617C17.4785 8.27389 17.0308 7.82617 16.4785 7.82617H7.97852Z" fill="white" fill-opacity="0.9"/>
</svg>
