<svg width="24" height="24" viewBox="0 0 24 24" fill="none" xmlns="http://www.w3.org/2000/svg">
<g clip-path="url(#clip0_4_3713)">
<path d="M17.1611 14.0044C18.4418 12.192 18.983 10.0303 18.6862 7.91673C18.5603 7.02266 18.2595 6.16214 17.8011 5.3843C17.3426 4.60646 16.7355 3.92654 16.0143 3.38336C15.293 2.84017 14.4719 2.44437 13.5977 2.21853C12.7235 1.9927 11.8134 1.94127 10.9193 2.06717C7.16536 2.59468 4.53992 6.07846 5.06743 9.83244C5.36345 11.9397 6.47986 13.8664 8.21021 15.2577C9.17139 16.0273 10.2557 16.5677 11.2846 16.8094C11.3624 16.8281 11.43 16.8759 11.4737 16.9429C11.5173 17.01 11.5336 17.0912 11.5192 17.1699L11.3288 18.2015C11.3011 18.3418 11.3215 18.4874 11.3866 18.6148C11.4395 18.7164 11.5193 18.8015 11.6172 18.8608C11.7151 18.9202 11.8274 18.9515 11.9419 18.9515C11.9711 18.9515 12.0002 18.9494 12.0291 18.9452L12.7255 18.8475C12.7422 18.8452 12.7591 18.8482 12.7738 18.8563C12.7885 18.8643 12.8002 18.8768 12.8073 18.892C13.4611 20.3119 14.5849 21.3888 16.0197 21.9562C16.0982 21.9873 16.1822 22.0021 16.2666 21.9998C16.351 21.9975 16.4341 21.9781 16.5108 21.9428C16.5875 21.9076 16.6563 21.8572 16.7131 21.7946C16.7698 21.7321 16.8132 21.6587 16.8408 21.5789C16.9515 21.259 16.7767 20.9114 16.4623 20.7858C15.4807 20.3937 14.6626 19.6779 14.1435 18.7571C14.1369 18.746 14.1332 18.7335 14.1326 18.7206C14.1321 18.7077 14.1347 18.6949 14.1404 18.6833C14.146 18.6717 14.1544 18.6616 14.1648 18.654C14.1752 18.6465 14.1874 18.6416 14.2002 18.6398L14.4895 18.6007C14.6409 18.5812 14.7806 18.5088 14.8837 18.3962C14.9671 18.3029 15.0206 18.1866 15.0373 18.0625C15.054 17.9384 15.033 17.8122 14.9772 17.7002L14.5056 16.7527C14.4697 16.6807 14.463 16.5977 14.4867 16.5209C14.5104 16.4441 14.5628 16.3793 14.633 16.3401C15.5555 15.8251 16.4494 15.0106 17.1611 14.0044ZM11.1039 14.6606C11.0252 14.6606 10.9472 14.6457 10.874 14.6168C9.26055 13.9786 7.89034 12.556 7.29792 10.9043C7.26905 10.8267 7.25586 10.7441 7.25913 10.6614C7.2624 10.5787 7.28205 10.4974 7.31695 10.4223C7.35185 10.3473 7.4013 10.2799 7.46244 10.224C7.52358 10.1682 7.5952 10.1251 7.67313 10.0971C7.75106 10.0692 7.83377 10.057 7.91645 10.0613C7.99913 10.0655 8.08015 10.0861 8.1548 10.1219C8.22945 10.1577 8.29626 10.208 8.35135 10.2698C8.40644 10.3316 8.44872 10.4037 8.47573 10.482C9.04274 12.0633 10.3242 13.0538 11.3342 13.4539C11.4697 13.5074 11.5822 13.6065 11.6524 13.7341C11.7227 13.8618 11.7461 14.0099 11.7188 14.1529C11.6916 14.296 11.6152 14.4251 11.5029 14.5179C11.3907 14.6107 11.2496 14.6615 11.1039 14.6614V14.6606Z" fill="white" fill-opacity="0.9"/>
</g>
<defs>
<clipPath id="clip0_4_3713">
<rect width="24" height="24" fill="white"/>
</clipPath>
</defs>
</svg>
