<svg width="24" height="24" viewBox="0 0 24 24" fill="none" xmlns="http://www.w3.org/2000/svg">
<path d="M15.9016 9.91992C17.7042 13.0529 18.4199 17.273 18.4905 20.2568C16.7043 21.6602 14.4534 22.5 12.0051 22.5C11.8922 22.5 11.7802 22.4948 11.6682 22.4912C12.458 20.7567 13.1343 18.0365 13.8411 14.9971C14.0804 13.9678 14.2874 13.0787 14.4514 12.5234C14.8259 11.256 15.2025 10.4393 15.9016 9.91992ZM14.3997 7.87109C14.7379 8.22606 15.0509 8.61687 15.3411 9.0332C14.3741 9.71573 13.8745 10.7679 13.4436 12.2266C13.2707 12.8116 13.0608 13.7143 12.8176 14.7598C12.3114 16.9368 11.4598 20.5978 10.5549 22.3984C8.06983 22.0552 5.86231 20.845 4.24927 19.0811C4.73257 14.8804 10.0465 10.0319 13.926 7.39258C14.0849 7.54832 14.2433 7.70694 14.3997 7.87109ZM18.178 9.1875C19.6665 9.01895 21.2807 10.9228 22.4993 12.4199C22.3931 15.1171 21.2699 17.5523 19.5012 19.3535C19.3309 16.502 18.6351 12.5657 16.8499 9.4502C17.2233 9.33108 17.6602 9.24597 18.178 9.1875ZM11.8313 5.58691C12.2602 5.9125 12.6975 6.26722 13.1331 6.65234C11.8265 7.55021 10.3978 8.66726 9.04517 9.91309C6.78904 11.991 4.15263 14.9558 3.38403 17.9971C2.19791 16.2967 1.50024 14.2301 1.50024 12C1.50026 11.0031 1.64191 10.0397 1.90161 9.12598C3.23529 8.38223 4.82179 8.08496 6.47388 7.77832C6.90258 7.69877 7.34651 7.61644 7.77954 7.52637C9.32577 7.20483 10.7463 6.40208 11.8313 5.58691ZM19.8333 4.99902C21.2243 6.55195 22.1576 8.52161 22.427 10.6973C21.1705 9.26209 19.7063 7.95839 18.0598 8.14453C17.3612 8.22349 16.7773 8.35587 16.2815 8.54297C15.9411 8.04622 15.5695 7.57675 15.1604 7.14746C15.0495 7.03095 14.9383 6.91614 14.8264 6.80371C15.8973 6.13098 16.7986 5.67187 17.3645 5.50293C18.2273 5.24562 19.074 5.09048 19.8333 4.99902ZM7.01685 2.75781C7.34208 2.89111 8.97749 3.591 10.9377 4.94043C9.99811 5.60651 8.81908 6.23716 7.5647 6.49805C7.14264 6.58579 6.70488 6.6675 6.28149 6.74609C4.97254 6.98901 3.63995 7.23849 2.40942 7.72852C3.35613 5.6073 4.98333 3.85667 7.01685 2.75781ZM14.0774 1.70508C15.8957 2.06866 17.5433 2.90293 18.8909 4.07324C18.3079 4.17276 17.6923 4.30975 17.0647 4.49707C16.3657 4.70563 15.288 5.25643 14.0383 6.05273C13.5802 5.63616 13.1203 5.2521 12.6682 4.90039C13.1297 4.48721 13.4849 4.10683 13.6946 3.8291C14.1359 3.24417 14.1177 2.43839 14.0774 1.70508ZM12.0061 1.5C12.3473 1.5 12.6848 1.51802 13.0178 1.5498C13.0192 1.57486 13.0204 1.59977 13.0217 1.625C13.0556 2.21396 13.0933 2.88152 12.8557 3.19629C12.6566 3.46035 12.2924 3.84485 11.8088 4.26074C10.3915 3.2545 9.11605 2.57344 8.29224 2.17773C9.44708 1.74123 10.6984 1.5 12.0061 1.5Z" fill="white" fill-opacity="0.9"/>
</svg>
