<svg width="24" height="24" viewBox="0 0 24 24" fill="none" xmlns="http://www.w3.org/2000/svg">
<path d="M7.71337 18.7989C7.2401 19.1629 6.65511 19.3881 6.01323 19.3881C4.46635 19.3881 3.20762 18.1294 3.20762 16.5825C3.20762 15.0354 4.46635 13.7766 6.01323 13.7766C7.1807 13.7766 8.18197 14.4944 8.60414 15.511L9.4827 14.5998C8.79084 13.3922 7.50464 12.569 6.01323 12.569C3.79644 12.569 2 14.3658 2 16.5825C2 18.7989 3.79644 20.5958 6.01323 20.5958C7.05618 20.5958 7.99721 20.1881 8.71106 19.5356C8.43709 19.4436 8.17722 19.2978 7.95516 19.0839C7.86354 18.9954 7.78449 18.8987 7.71337 18.7989Z" fill="white" fill-opacity="0.9"/>
<path d="M13.8072 12.5997L11.6821 11.3653C12.6298 10.7722 12.2784 10.9919 13.2262 10.3987L13.1963 10.7006C13.1452 11.2144 13.5239 11.6846 14.0006 11.7812C14.012 11.7836 17.7312 12.4157 17.8668 12.4157C18.3499 12.4157 18.7765 12.0666 18.8582 11.5741C18.9494 11.0257 18.5787 10.5075 18.0303 10.4168L15.2923 9.9619L15.4225 8.65529C15.5538 7.82034 15.6107 7.55854 15.299 7.06042L14.9071 6.43383C14.4007 5.62518 13.3331 5.37791 12.5225 5.88541L8.23299 8.57108C7.17944 9.23073 6.66566 10.6216 7.52578 11.6447C7.8618 12.0446 11.1289 14.0522 11.1289 14.0522L8.48291 16.7968C8.01983 17.2768 8.0336 18.0414 8.51396 18.5041C8.74826 18.7301 9.05018 18.8425 9.35205 18.8425C9.66855 18.8425 9.9846 18.7191 10.2212 18.473L14.0698 14.4819C14.6127 13.9201 14.4854 12.9935 13.8072 12.5997Z" fill="white" fill-opacity="0.9"/>
<path d="M18.3149 7.11739C19.2557 6.52814 19.5407 5.28826 18.9517 4.34795C18.3629 3.40685 17.123 3.12185 16.1824 3.71074C15.242 4.29963 14.957 5.53907 15.5456 6.47937C16.1343 7.42052 17.3743 7.70592 18.3149 7.11739Z" fill="white" fill-opacity="0.9"/>
<path d="M17.9867 12.569C15.7469 12.569 13.9735 14.417 13.9735 16.5825C13.9735 18.7989 15.77 20.5958 17.9867 20.5958C20.203 20.5958 22 18.7989 22 16.5825C22 14.3658 20.203 12.569 17.9867 12.569ZM17.9867 19.3881C16.4399 19.3881 15.1811 18.1294 15.1811 16.5825C15.1811 15.0354 16.4399 13.7766 17.9867 13.7766C19.5336 13.7766 20.7924 15.0354 20.7924 16.5825C20.7924 18.1294 19.5336 19.3881 17.9867 19.3881Z" fill="white" fill-opacity="0.9"/>
</svg>
