<svg width="24" height="24" viewBox="0 0 24 24" fill="none" xmlns="http://www.w3.org/2000/svg">
<path d="M17.375 21.375C19.5841 21.375 21.375 19.5841 21.375 17.375L21.375 6.625C21.375 4.41586 19.5841 2.625 17.375 2.625L6.625 2.625C4.41586 2.625 2.625 4.41586 2.625 6.625L2.625 17.375C2.625 19.5841 4.41586 21.375 6.625 21.375L17.375 21.375ZM6.08984 7.875C5.85289 7.87499 5.60651 7.86286 5.35156 7.83887C5.27976 7.83277 5.21978 7.80102 5.17188 7.74414C5.12403 7.68721 5.09961 7.62267 5.09961 7.55078V4.82422C5.09961 4.74934 5.12403 4.6848 5.17188 4.63086C5.22286 4.57388 5.28447 4.54215 5.35645 4.53613C5.59042 4.51214 5.81995 4.5 6.04492 4.5C6.91492 4.5 7.34961 4.7808 7.34961 5.3418C7.34955 5.53067 7.28797 5.69131 7.16504 5.82324C7.0451 5.955 6.88343 6.03921 6.67969 6.0752C6.67669 6.0752 6.67481 6.07799 6.6748 6.08398C6.6748 6.08692 6.67786 6.0888 6.68359 6.08887C6.92045 6.12185 7.10812 6.21155 7.24609 6.3584C7.38704 6.50534 7.45795 6.68087 7.45801 6.88477C7.45801 7.21773 7.34695 7.46684 7.125 7.63184C6.906 7.79384 6.56084 7.875 6.08984 7.875ZM14.2793 7.875C13.7753 7.875 13.3714 7.72669 13.0684 7.42969C12.7654 7.1297 12.6143 6.71543 12.6143 6.1875C12.6143 5.65651 12.7626 5.24231 13.0596 4.94531C13.3565 4.64836 13.7737 4.50005 14.3105 4.5C14.5325 4.5 14.7472 4.51774 14.9541 4.55371C15.0261 4.56571 15.0849 4.60211 15.1299 4.66211C15.1778 4.71909 15.2021 4.7854 15.2021 4.86035V4.98145C15.2021 5.04445 15.176 5.09577 15.125 5.13477C15.0741 5.17357 15.017 5.18587 14.9541 5.1709C14.7681 5.12891 14.5834 5.10742 14.4004 5.10742C13.7287 5.10757 13.3926 5.46765 13.3926 6.1875C13.3926 6.54719 13.4721 6.81707 13.6309 6.99707C13.7928 7.17705 14.0243 7.26756 14.3242 7.26758C14.4171 7.26758 14.5115 7.25539 14.6074 7.23145C14.6344 7.22544 14.6484 7.20864 14.6484 7.18164V6.44824C14.6483 6.42441 14.6343 6.41211 14.6074 6.41211H14.1895C14.1205 6.41211 14.0607 6.3868 14.0098 6.33594C13.9588 6.285 13.9327 6.22515 13.9326 6.15625V6.08887C13.9326 6.01987 13.9588 5.9592 14.0098 5.9082C14.0607 5.85746 14.1206 5.83203 14.1895 5.83203H15.1211C15.1898 5.8321 15.248 5.85751 15.2959 5.9082C15.3469 5.9592 15.373 6.01987 15.373 6.08887V7.43359C15.373 7.51152 15.3506 7.58255 15.3057 7.64551C15.2607 7.70546 15.2018 7.74559 15.1299 7.7666C14.8599 7.8386 14.5763 7.875 14.2793 7.875ZM17.3701 7.875C16.8962 7.875 16.5211 7.72661 16.2451 7.42969C15.9691 7.12969 15.8311 6.7155 15.8311 6.1875C15.8311 5.65956 15.9692 5.24719 16.2451 4.9502C16.5211 4.6502 16.8961 4.5 17.3701 4.5C17.8441 4.5 18.2191 4.6502 18.4951 4.9502C18.771 5.24719 18.9092 5.65957 18.9092 6.1875C18.9092 6.7155 18.7711 7.12969 18.4951 7.42969C18.2191 7.72662 17.8441 7.875 17.3701 7.875ZM8.25879 7.83008C8.18983 7.83008 8.12911 7.80485 8.07813 7.75391C8.03013 7.70291 8.00684 7.64224 8.00684 7.57324V4.80176C8.00684 4.73276 8.03013 4.67209 8.07813 4.62109C8.12911 4.57015 8.18983 4.54492 8.25879 4.54492H8.5918C8.66045 4.54503 8.71876 4.57043 8.7666 4.62109C8.8176 4.67209 8.84375 4.73276 8.84375 4.80176V7.57324C8.84375 7.64224 8.8176 7.70291 8.7666 7.75391C8.71876 7.80457 8.66045 7.82997 8.5918 7.83008H8.25879ZM9.85254 7.83008C9.78358 7.83008 9.72286 7.80485 9.67188 7.75391C9.62088 7.70291 9.5957 7.64224 9.5957 7.57324V4.80176C9.5957 4.73276 9.62088 4.67209 9.67188 4.62109C9.72286 4.57015 9.78358 4.54492 9.85254 4.54492H10.0723C10.2432 4.54492 10.3683 4.61973 10.4463 4.76953L11.3906 6.55664C11.3907 6.55952 11.3926 6.56051 11.3955 6.56055C11.3985 6.56055 11.4003 6.55955 11.4004 6.55664V4.80176C11.4004 4.73276 11.4256 4.67209 11.4766 4.62109C11.5274 4.5703 11.5875 4.54501 11.6563 4.54492H11.877C11.9458 4.54492 12.0057 4.57038 12.0566 4.62109C12.1076 4.67209 12.1338 4.73276 12.1338 4.80176V7.57324C12.1338 7.64224 12.1076 7.70291 12.0566 7.75391C12.0057 7.80462 11.9458 7.83008 11.877 7.83008H11.6563C11.4856 7.82997 11.3612 7.75509 11.2832 7.60547L10.3379 5.81836C10.3378 5.81559 10.3367 5.81458 10.334 5.81445C10.331 5.81445 10.3291 5.81545 10.3291 5.81836V7.57324C10.3291 7.64224 10.3039 7.70291 10.2529 7.75391C10.2019 7.80488 10.1412 7.83008 10.0723 7.83008L9.85254 7.83008ZM6 5.8457C6.43794 5.8457 6.65717 5.71503 6.65723 5.4541C6.65723 5.20519 6.47413 5.08017 6.1084 5.08008C6.02148 5.08008 5.94767 5.08665 5.8877 5.09863C5.8637 5.10463 5.85156 5.12144 5.85156 5.14844V5.80957C5.85159 5.83352 5.86372 5.8457 5.8877 5.8457H6ZM17.3701 7.24512C17.8741 7.24511 18.126 6.89249 18.126 6.1875C18.126 5.48251 17.8741 5.12989 17.3701 5.12988C16.8661 5.12988 16.6143 5.4825 16.6143 6.1875C16.6143 6.8925 16.8661 7.24512 17.3701 7.24512ZM6.12109 7.29492C6.33409 7.29492 6.49084 7.25573 6.58984 7.17773C6.68877 7.09675 6.73826 6.9735 6.73828 6.80859C6.73828 6.53269 6.51316 6.39463 6.06348 6.39453H5.8877C5.86382 6.39453 5.85169 6.40786 5.85156 6.43457V7.22656C5.85156 7.25343 5.86487 7.27029 5.8916 7.27637C5.95451 7.28835 6.03127 7.2949 6.12109 7.29492ZM9 12.75C8.58579 12.75 8.25 12.4142 8.25 12V10.5C8.25 10.0858 8.58579 9.75 9 9.75L10.5 9.75C10.9142 9.75 11.25 10.0858 11.25 10.5V12C11.25 12.4142 10.9142 12.75 10.5 12.75L9 12.75ZM13.5 12.75C13.0858 12.75 12.75 12.4142 12.75 12V10.5C12.75 10.0858 13.0858 9.75 13.5 9.75H15C15.4142 9.75 15.75 10.0858 15.75 10.5V12C15.75 12.4142 15.4142 12.75 15 12.75H13.5ZM18 12.75C17.5858 12.75 17.25 12.4142 17.25 12V10.5C17.25 10.0858 17.5858 9.75 18 9.75H19.5C19.9142 9.75 20.25 10.0858 20.25 10.5V12C20.25 12.4142 19.9142 12.75 19.5 12.75H18ZM4.5 16.5C4.08579 16.5 3.75 16.1642 3.75 15.75V14.25C3.75 13.8358 4.08579 13.5 4.5 13.5H6C6.41421 13.5 6.75 13.8358 6.75 14.25V15.75C6.75 16.1642 6.41421 16.5 6 16.5H4.5ZM9 16.5C8.58579 16.5 8.25 16.1642 8.25 15.75V14.25C8.25 13.8358 8.58579 13.5 9 13.5H10.5C10.9142 13.5 11.25 13.8358 11.25 14.25V15.75C11.25 16.1642 10.9142 16.5 10.5 16.5H9ZM18 16.5C17.5858 16.5 17.25 16.1642 17.25 15.75V14.25C17.25 13.8358 17.5858 13.5 18 13.5H19.5C19.9142 13.5 20.25 13.8358 20.25 14.25V15.75C20.25 16.1642 19.9142 16.5 19.5 16.5H18ZM9 20.25C8.58579 20.25 8.25 19.9142 8.25 19.5V18C8.25 17.5858 8.58579 17.25 9 17.25H10.5C10.9142 17.25 11.25 17.5858 11.25 18V19.5C11.25 19.9142 10.9142 20.25 10.5 20.25H9ZM13.5 20.25C13.0858 20.25 12.75 19.9142 12.75 19.5V18C12.75 17.5858 13.0858 17.25 13.5 17.25H15C15.4142 17.25 15.75 17.5858 15.75 18V19.5C15.75 19.9142 15.4142 20.25 15 20.25H13.5Z" fill="white" fill-opacity="0.9"/>
</svg>
