<svg width="24" height="24" viewBox="0 0 24 24" fill="none" xmlns="http://www.w3.org/2000/svg">
<path d="M23.2498 20.3539C23.2498 20.3539 22.4924 21.7493 18.7058 21.7494C15.6764 21.7494 14.5398 20.3539 14.5398 20.3539V18.6107C14.5398 18.6107 15.6764 19.6566 18.7058 19.6566C21.718 19.6566 23.2328 18.6224 23.2498 18.6107V20.3539ZM7.89819 2.30896C7.96756 2.24882 8.06068 2.24623 8.13354 2.30212C8.91086 2.89838 13.2271 6.36201 14.7449 10.8656C14.2815 11.2326 13.8602 11.6536 13.4929 12.1088C13.239 12.4234 13.1218 12.8236 13.1218 13.2279V17.2572C12.9041 17.3612 12.6734 17.446 12.4314 17.5092C11.1172 17.8518 9.08823 16.5512 9.073 16.5414C9.07055 16.5646 8.96043 17.6219 9.073 18.2836C9.21825 19.1368 9.87366 20.149 10.239 20.6615C10.3363 20.798 10.2386 20.9943 10.071 20.9945H6.13257C5.96485 20.9944 5.86751 20.7982 5.9646 20.6615C6.32572 20.155 6.96828 19.1579 7.12866 18.2836C7.24978 17.623 7.13106 16.5627 7.12866 16.5414C7.0945 16.5631 5.32549 17.6826 4.12476 17.5092C2.18704 17.2292 0.566252 15.573 0.767334 13.4427C1.25651 8.26121 7.01118 3.07923 7.89819 2.30896ZM23.2498 16.8666C23.2472 16.869 21.7325 18.262 18.7058 18.2621C15.6764 18.2621 14.5398 16.8666 14.5398 16.8666V15.1224C14.5398 15.1224 15.6764 16.1693 18.7058 16.1693C21.7351 16.1693 23.2498 15.1224 23.2498 15.1224V16.8666ZM18.7058 11.6351C22.1138 11.6352 22.8708 13.3793 22.8708 13.3793C22.8505 13.4039 21.7078 14.7737 18.7058 14.7738C15.6895 14.7738 14.5496 13.3912 14.5398 13.3793C14.5398 13.3793 15.2977 11.6351 18.7058 11.6351Z" fill="white" fill-opacity="0.9"/>
</svg>
