<svg width="24" height="24" viewBox="0 0 24 24" fill="none" xmlns="http://www.w3.org/2000/svg">
<g clip-path="url(#clip0_35_8455)">
<path d="M18.5312 18.5625C19.6358 18.5625 20.5312 17.6671 20.5312 16.5625V3.5C20.5312 2.39544 19.6358 1.50001 18.5312 1.5H5.52246V18.5625H18.5312ZM12.8779 9.68848C7.64396 6.37046 11.4071 4.08499 12.8994 5.55957C14.4074 4.08502 18.1468 6.37143 12.8779 9.68848ZM9.15039 14.6318C8.98565 14.6315 8.88751 14.4398 8.96973 14.2969C9.03542 14.1827 9.09829 14.055 9.12988 13.9424C9.19623 13.7054 9.18395 13.3179 9.18359 13.3066C9.16832 13.3179 8.67984 13.6765 8.31543 13.6777C7.67081 13.6798 7.12136 13.1941 7.12109 12.5645C7.12109 11.1858 8.58691 11.3447 8.58691 11.3447C8.58691 11.3447 8.27836 10.7289 8.37012 10.3369C8.50446 9.76311 8.962 9.39557 9.56445 9.38281C10.1833 9.3699 10.6916 9.74391 10.8125 10.3369C10.8939 10.7359 10.541 11.3447 10.541 11.3447C10.541 11.3447 11.9521 11.1858 11.9521 12.5645C11.9519 13.1792 11.4404 13.6346 10.8125 13.6777C10.4313 13.7039 9.88965 13.3594 9.88965 13.3594C9.88965 13.3594 9.87889 13.7228 9.94434 13.9424C9.97649 14.0502 10.0401 14.1688 10.1094 14.2764C10.2028 14.4214 10.1051 14.6315 9.93262 14.6318H9.15039ZM17.5264 13.9707C17.126 14.476 16.3583 14.4761 15.958 13.9707L14.9102 12.6465C14.6239 12.285 14.6219 11.7748 14.9053 11.4111L15.9541 10.0654C16.3545 9.55223 17.131 9.55199 17.5312 10.0654L18.5791 11.4111C18.8625 11.7748 18.8605 12.285 18.5742 12.6465L17.5264 13.9707Z" fill="white" fill-opacity="0.9"/>
<path d="M4.34238 1.64176C4.03066 1.78279 3.74766 2.06082 3.6082 2.359L3.48926 2.60882L3.47695 10.861L3.46875 19.1172L3.62871 18.9923C3.80918 18.8513 4.23164 18.6498 4.44492 18.6055L4.57617 18.5773V10.0592C4.57617 5.37298 4.57207 1.54103 4.56797 1.54103C4.55977 1.54103 4.45723 1.58535 4.34238 1.64176Z" fill="white" fill-opacity="0.9"/>
<path d="M4.44655 19.6863C3.97456 19.8709 3.67421 20.1949 3.53261 20.6707C3.35669 21.2531 3.63988 21.9299 4.20197 22.2744C4.58814 22.5123 4.12903 22.5 12.4059 22.5H19.8243C19.8903 22.5 19.9249 22.4217 19.8804 22.3729C19.284 21.692 19.2583 20.5313 19.8418 19.7643C19.9053 19.6849 19.863 19.6121 19.7613 19.6114C19.0007 19.6066 15.9781 19.5879 12.3201 19.5879H4.69112L4.44655 19.6863Z" fill="white" fill-opacity="0.9"/>
</g>
<defs>
<clipPath id="clip0_35_8455">
<rect width="21" height="21" fill="white" transform="translate(1.5 1.5)"/>
</clipPath>
</defs>
</svg>
