<svg width="24" height="24" viewBox="0 0 24 24" fill="none" xmlns="http://www.w3.org/2000/svg">
<path fill-rule="evenodd" clip-rule="evenodd" d="M8.12801 15.75H18.5264C19.4151 15.75 20.1972 15.1636 20.4463 14.3105L23.0008 5.56049C23.3745 4.28038 22.4145 3 21.0809 3H3.62479H1.77733C1.20995 3 0.75 3.45995 0.75 4.02733C0.75 4.49501 1.06589 4.90367 1.51848 5.02151L4.24793 5.73214L6.17808 14.1947C6.3856 15.1046 7.19479 15.75 8.12801 15.75ZM13.1937 5.59697C13.1194 5.452 12.9122 5.452 12.8378 5.59697L11.7839 7.65177L9.5475 8.04982C9.39087 8.0777 9.32791 8.26843 9.43717 8.38407L11.0226 10.0621L10.6998 12.3712C10.6774 12.5311 10.844 12.6503 10.9881 12.5774L13.0158 11.5518L15.0434 12.5774C15.1875 12.6503 15.3541 12.5311 15.3318 12.3712L15.0089 10.0621L16.5943 8.38407C16.7036 8.26843 16.6406 8.0777 16.484 8.04982L14.2476 7.65177L13.1937 5.59697ZM11.25 19.125C11.25 20.1605 10.4105 21 9.375 21C8.33947 21 7.5 20.1605 7.5 19.125C7.5 18.0895 8.33947 17.25 9.375 17.25C10.4105 17.25 11.25 18.0895 11.25 19.125ZM16.875 21C17.9105 21 18.75 20.1605 18.75 19.125C18.75 18.0895 17.9105 17.25 16.875 17.25C15.8395 17.25 15 18.0895 15 19.125C15 20.1605 15.8395 21 16.875 21Z" fill="white" fill-opacity="0.9"/>
</svg>
