<svg width="24" height="24" viewBox="0 0 24 24" fill="none" xmlns="http://www.w3.org/2000/svg">
<path d="M12 2.625C17.1777 2.625 21.375 6.82233 21.375 12C21.375 17.1777 17.1777 21.375 12 21.375C6.82233 21.375 2.625 17.1777 2.625 12C2.625 6.82233 6.82233 2.625 12 2.625ZM12.0049 6C11.7924 6.00012 11.593 6.09821 11.4688 6.26367L7.25781 11.873C7.09019 12.0963 7 12.3654 7 12.6406C7.00023 13.3648 7.61181 13.9521 8.36621 13.9521H11.333V17.166C11.3332 17.6265 11.7224 17.9998 12.2021 18C12.4922 18 12.7635 17.8612 12.9248 17.6299L16.8047 12.0635C16.9319 11.881 17 11.6659 17 11.4463C17 10.8338 16.4827 10.3369 15.8447 10.3369H12.667V6.63477C12.6669 6.28418 12.3701 6 12.0049 6Z" fill="white" fill-opacity="0.9"/>
</svg>
