<svg width="24" height="24" viewBox="0 0 24 24" fill="none" xmlns="http://www.w3.org/2000/svg">
<path fill-rule="evenodd" clip-rule="evenodd" d="M11.8057 1.69966C11.7259 1.80946 11.6464 1.92376 11.6292 1.95359C11.6119 1.98347 11.4708 2.0437 11.3157 2.08748C11.0425 2.16453 10.9161 2.25515 10.9161 2.37387C10.9161 2.4054 11.0007 2.53816 11.1041 2.66891C11.2824 2.89427 11.2922 2.92349 11.2922 3.23111C11.2922 3.57364 11.3267 3.63989 11.5202 3.66831L11.6307 3.68456L11.5395 3.80201C11.4894 3.86661 10.7965 4.87081 9.99977 6.03356C9.20303 7.19631 8.44659 8.30005 8.31871 8.48628C8.0506 8.87683 7.99371 9.06902 8.0576 9.36833C8.14824 9.79307 8.55608 10.036 9.63415 10.3074C10.5742 10.544 10.9574 10.5859 12.2089 10.5883C13.5578 10.5909 13.9781 10.5305 15.0166 10.1846C15.7341 9.94557 15.8163 9.90352 15.9767 9.69343C16.1391 9.48061 16.1852 9.06301 16.0707 8.84164C16.0005 8.7061 14.5601 6.59243 13.1883 4.61199C12.8436 4.11438 12.5615 3.69683 12.5615 3.68414C12.5615 3.67146 12.6023 3.66107 12.6522 3.66107C12.8336 3.66107 12.8973 3.53122 12.8834 3.19015C12.8708 2.8814 12.8753 2.86721 13.0479 2.67638C13.3388 2.35461 13.2589 2.18464 12.7592 2.06169C12.5875 2.01946 12.5328 1.9737 12.3934 1.75599C12.2554 1.54045 12.2076 1.5 12.0903 1.5C11.9805 1.5 11.9202 1.54233 11.8057 1.69966ZM12.2161 2.29866C12.2814 2.37617 12.374 2.4396 12.4219 2.4396C12.5533 2.4396 12.5658 2.50133 12.4652 2.65392C12.4151 2.72984 12.3739 2.8448 12.3737 2.9094C12.3736 2.95803 12.3792 3.02685 12.3792 3.02685C12.3792 3.02685 12.2355 3.02726 12.0678 3.02774L11.7623 3.02863V2.88553C11.7623 2.80679 11.7293 2.69536 11.6891 2.6379C11.6053 2.51834 11.634 2.4396 11.7615 2.4396C11.8097 2.4396 11.8984 2.37735 11.9585 2.30124C12.0187 2.22518 12.0746 2.16176 12.0827 2.1603C12.0908 2.15889 12.1509 2.22114 12.2161 2.29866ZM13.8029 8.08371C13.9525 8.15183 14.0784 8.41074 14.0387 8.56883C14.0055 8.70107 13.7801 8.87584 13.672 8.87584C13.5339 8.87584 13.3257 8.78315 13.268 8.64409C13.1949 8.46772 13.2357 8.29183 13.384 8.14361C13.5089 8.01883 13.6243 8.00234 13.8029 8.08371ZM7.52165 11.758C7.06881 12.4063 6.73685 12.9295 6.69802 13.0562C6.55684 13.5164 6.7652 13.9711 7.22941 14.2158C7.86179 14.5492 8.87949 14.8612 9.90527 15.0362C11.0358 15.229 12.9273 15.2054 14.301 14.9812C15.34 14.8117 16.8278 14.3592 17.1473 14.1157C17.4697 13.8701 17.5967 13.2957 17.4144 12.9084C17.3699 12.8136 17.0175 12.2742 16.6315 11.7095L15.9296 10.6828L15.334 10.8816C14.3376 11.2142 13.1262 11.4122 12.0846 11.4126C11.1091 11.413 9.85558 11.2024 8.88118 10.8743L8.28021 10.672L7.52165 11.758ZM9.73965 12.6156C9.90998 12.7803 9.90311 13.0736 9.72531 13.2265C9.65258 13.2889 9.5341 13.3389 9.45865 13.3389C9.38319 13.3389 9.26472 13.2889 9.19199 13.2265C8.95734 13.0248 9.04098 12.6125 9.34111 12.4912C9.46861 12.4396 9.6002 12.4807 9.73965 12.6156ZM16.6047 15.1577C15.078 15.7108 13.3888 15.9612 11.5507 15.9066C9.9757 15.8598 9.20868 15.7317 7.93729 15.3033C7.23665 15.0672 6.61241 14.7654 6.56291 14.8185C6.45529 14.9338 5.53858 16.4995 5.01916 17.4659C4.82867 17.8203 4.79512 18.3469 5.11528 18.6367C5.62423 19.0092 5.94856 19.1578 6.77205 19.4151C7.74684 19.7197 9.02645 19.9608 10.1521 20.0817L10.4459 20.1132V20.9793C10.4459 21.9244 10.4718 22.0508 10.7105 22.2738C10.932 22.4808 11.0493 22.5 12.096 22.5C13.17 22.5 13.283 22.4789 13.5105 22.2356C13.7147 22.0175 13.7369 21.892 13.7369 20.9551V20.074L14.2423 20.0155C14.9573 19.9327 15.7864 19.8182 16.8077 19.5952C17.5243 19.4389 18.5182 19.065 18.8473 18.7845C19.0096 18.6782 19.2114 18.227 19.0857 17.8743C18.9412 17.4689 18.6699 16.8406 18.3154 16.1634C18.0401 15.6375 17.6737 14.7721 17.6552 14.7691C17.6366 14.7661 16.8503 15.0686 16.6047 15.1577ZM8.33395 17.1877C8.48735 17.341 8.5086 17.4998 8.40305 17.7038C8.30028 17.9024 8.097 17.9705 7.89413 17.8743C7.61022 17.7397 7.54426 17.4355 7.74684 17.1949C7.91275 16.9979 8.14119 16.995 8.33395 17.1877ZM16.4202 17.1877C16.5737 17.341 16.5949 17.4998 16.4894 17.7038C16.3866 17.9024 16.1833 17.9705 15.9804 17.8743C15.6965 17.7397 15.6306 17.4355 15.8331 17.1949C15.9991 16.9979 16.2275 16.995 16.4202 17.1877Z" fill="white" fill-opacity="0.9"/>
</svg>
