<svg width="24" height="24" viewBox="0 0 24 24" fill="none" xmlns="http://www.w3.org/2000/svg">
<path d="M4.74109 17.1327C4.90549 16.9738 5.05655 17.0427 5.21179 17.1991C6.02663 18.0201 6.53068 18.5344 7.49011 19.5125L7.52527 19.5477C7.66883 19.6941 7.75195 19.8426 7.58289 20.0213L6.31335 21.3084C6.06381 21.5398 5.7616 21.3513 5.7616 21.0497V20.4461L4.13367 20.9325C3.91771 20.9803 3.7115 20.8074 3.78796 20.5692L4.30359 19.036L3.62976 18.9559C3.34579 18.9191 3.20758 18.6785 3.3905 18.4852L4.74109 17.1327ZM9.26746 7.62192C12.3176 4.88908 14.5459 3.3565 19.1249 3.99399C19.9158 4.10418 20.5385 4.72766 20.6503 5.5184C21.298 10.1081 19.8238 12.3947 17.0907 15.4452C17.0944 15.4616 17.7457 18.384 15.7987 20.0311C14.2231 21.3637 11.5987 21.9788 10.869 20.6131C10.7381 20.3681 10.7825 20.1059 11.0995 19.8407C11.4995 19.5059 11.6284 18.9316 11.6317 18.9168C11.0003 19.0569 10.5693 19.1282 10.077 19.1561C9.55663 19.1856 9.05819 18.9619 8.69031 18.5926L7.3739 17.2704L6.03308 15.9354C5.66381 15.5675 5.44014 15.0691 5.4696 14.5487C5.49749 14.0564 5.56885 13.6254 5.70886 12.994C5.69557 12.9969 5.12021 13.1257 4.78503 13.5262C4.51714 13.8464 4.2576 13.8876 4.01257 13.7567C2.64682 13.0271 3.34902 10.4906 4.68152 8.91489C6.32197 6.97527 9.22806 7.61316 9.26746 7.62192ZM16.6727 8.03989C15.8196 7.18672 14.4361 7.18672 13.5829 8.03989C12.73 8.89308 12.7298 10.2767 13.5829 11.1297C14.436 11.9827 15.8196 11.9826 16.6727 11.1297C17.5259 10.2766 17.5258 8.89306 16.6727 8.03989Z" fill="white" fill-opacity="0.9"/>
</svg>
