<svg width="24" height="24" viewBox="0 0 24 24" fill="none" xmlns="http://www.w3.org/2000/svg">
<g clip-path="url(#clip0_35_8597)">
<path fill-rule="evenodd" clip-rule="evenodd" d="M6.74065 2.01346C6.60131 2.04003 6.43882 2.08844 6.31419 2.14051L6.19458 2.19048L6.1333 2.30601C6.06033 2.44359 6.00844 2.59414 5.98238 2.74393C5.95923 2.877 5.96551 3.18078 5.99405 3.30783C6.08529 3.71403 6.31452 4.09458 6.69945 4.47888C6.87677 4.6559 6.99988 4.75842 7.17469 4.87466C7.6263 5.17495 8.1078 5.27964 8.6181 5.1885L8.6897 5.1757L8.74337 5.05385C8.89475 4.7102 8.9668 4.41063 8.97979 4.07095C8.99657 3.63189 8.88898 3.24375 8.652 2.88841C8.4471 2.58119 8.19634 2.36032 7.87077 2.20035C7.70069 2.11678 7.5646 2.06869 7.39309 2.0316C7.24468 1.99949 6.86868 1.98904 6.74065 2.01346ZM17.7797 2.01622C17.7637 2.01857 17.7112 2.02631 17.6632 2.03342C17.5492 2.05026 17.3842 2.10465 17.2963 2.15434C17.239 2.18668 16.2729 3.14754 11.9874 7.43444C7.31736 12.106 6.74482 12.6826 6.71417 12.7449C6.6652 12.8445 6.64777 12.9268 6.64884 13.0536C6.64999 13.1869 6.68239 13.3167 6.74453 13.4368C6.78428 13.5137 6.91725 13.6495 8.6555 15.3884C10.7835 17.5173 10.5698 17.3235 10.7893 17.3232C10.8947 17.3231 10.9217 17.3188 10.9848 17.2925C11.1412 17.2272 11.1772 17.1963 11.744 16.6411C12.0487 16.3426 14.4371 14.0004 17.0515 11.436C21.5407 7.03286 21.8074 6.76911 21.8473 6.69208C21.9667 6.46181 21.9899 6.09326 21.9082 5.72535C21.7442 4.98672 21.184 4.13034 20.2997 3.26629C19.5462 2.53004 18.8295 2.11296 18.1691 2.02638C18.0472 2.01041 17.8537 2.00536 17.7797 2.01622ZM5.84334 2.33112C5.69286 2.43191 5.50306 2.61735 5.37662 2.78712C5.28636 2.90834 5.15265 3.17203 5.10374 3.3253C5.03118 3.55267 5.01632 3.66287 5.01658 3.97192C5.01682 4.27898 5.02881 4.36471 5.10398 4.59714C5.1496 4.73815 5.27102 4.98434 5.35192 5.09984C5.73693 5.64948 6.34148 5.97001 6.99316 5.97001C7.37552 5.97001 7.78658 5.84598 8.08363 5.64096C8.17697 5.57654 8.30383 5.46284 8.27093 5.47309C8.21293 5.49116 7.99603 5.50634 7.88569 5.50005C7.48575 5.47724 7.10181 5.31374 6.74104 5.01261C6.62519 4.91591 6.32442 4.60674 6.18764 4.44377C5.93579 4.14367 5.76421 3.80591 5.69049 3.46511C5.66008 3.32452 5.66014 2.97607 5.6906 2.83597C5.72194 2.6918 5.77431 2.54296 5.83919 2.41364C5.87054 2.35115 5.89296 2.30004 5.89296 2.30004C5.89296 2.30004 5.86885 2.31402 5.84334 2.33112ZM6.59172 15.0357C6.58661 15.2983 6.58128 15.3736 6.56164 15.4618C6.52866 15.6098 6.48612 15.7326 6.42591 15.8535C6.29987 16.1066 6.40709 15.9934 4.21208 18.1916C3.09554 19.3098 2.15855 20.257 2.12986 20.2966C1.94055 20.5578 1.95904 20.8989 2.17997 21.2208C2.24417 21.3143 2.77609 21.838 2.86419 21.8944C2.95987 21.9556 3.06124 21.9897 3.17206 21.998C3.2912 22.0068 3.38658 21.9872 3.50758 21.929L3.60661 21.8813L5.65131 19.8404C7.56658 17.9287 7.70361 17.7945 7.81599 17.7207C8.04259 17.572 8.28908 17.473 8.54651 17.4271C8.6148 17.415 8.76008 17.4058 8.96308 17.401L9.2748 17.3935L7.93636 16.0552L6.59793 14.7168L6.59172 15.0357Z" fill="white" fill-opacity="0.9"/>
</g>
<defs>
<clipPath id="clip0_35_8597">
<rect width="20" height="20" fill="white" transform="translate(2 2)"/>
</clipPath>
</defs>
</svg>
