<svg width="24" height="24" viewBox="0 0 24 24" fill="none" xmlns="http://www.w3.org/2000/svg">
<path d="M5.76562 2.625C4.83322 2.625 3.93901 2.9954 3.2797 3.6547C2.6204 4.31401 2.25 5.20822 2.25 6.14062L2.25 17.8594C2.25 18.7918 2.6204 19.686 3.2797 20.3453C3.93901 21.0046 4.83322 21.375 5.76562 21.375H17.4844C18.4168 21.375 19.311 21.0046 19.9703 20.3453C20.6296 19.686 21 18.7918 21 17.8594V6.14062C21 5.20822 20.6296 4.31401 19.9703 3.6547C19.311 2.9954 18.4168 2.625 17.4844 2.625H5.76562ZM8.69531 7.3125C8.69531 7.7787 8.51012 8.22581 8.18046 8.55546C7.85081 8.88512 7.4037 9.07031 6.9375 9.07031C6.4713 9.07031 6.02419 8.88512 5.69454 8.55546C5.36489 8.22581 5.17969 7.7787 5.17969 7.3125C5.17969 6.8463 5.36489 6.39919 5.69454 6.06954C6.02419 5.73989 6.4713 5.55469 6.9375 5.55469C7.4037 5.55469 7.85081 5.73989 8.18046 6.06954C8.51012 6.39919 8.69531 6.8463 8.69531 7.3125ZM18.0703 16.6875C18.0703 17.1537 17.8851 17.6008 17.5555 17.9305C17.2258 18.2601 16.7787 18.4453 16.3125 18.4453C15.8463 18.4453 15.3992 18.2601 15.0695 17.9305C14.7399 17.6008 14.5547 17.1537 14.5547 16.6875C14.5547 16.2213 14.7399 15.7742 15.0695 15.4445C15.3992 15.1149 15.8463 14.9297 16.3125 14.9297C16.7787 14.9297 17.2258 15.1149 17.5555 15.4445C17.8851 15.7742 18.0703 16.2213 18.0703 16.6875ZM11.625 13.7578C11.1588 13.7578 10.7117 13.5726 10.382 13.243C10.0524 12.9133 9.86719 12.4662 9.86719 12C9.86719 11.5338 10.0524 11.0867 10.382 10.757C10.7117 10.4274 11.1588 10.2422 11.625 10.2422C12.0912 10.2422 12.5383 10.4274 12.868 10.757C13.1976 11.0867 13.3828 11.5338 13.3828 12C13.3828 12.4662 13.1976 12.9133 12.868 13.243C12.5383 13.5726 12.0912 13.7578 11.625 13.7578Z" fill="white" fill-opacity="0.9"/>
</svg>
