<svg width="24" height="24" viewBox="0 0 24 24" fill="none" xmlns="http://www.w3.org/2000/svg">
<path d="M11.9951 2.56903C12.3448 1.72053 13.5578 1.7516 13.8633 2.61688L14.9131 5.5954C15.0392 5.80043 15.1188 5.89167 15.2822 6.02118C15.3966 6.11181 15.5925 6.26774 15.7178 6.36786C16.1114 6.68244 16.481 7.02742 16.7998 7.41766L17.6055 8.40399C19.1356 10.2769 20.2799 12.4345 20.9727 14.7516L21.6729 17.0925C21.9299 17.9524 21.5274 18.8718 20.7217 19.2673L17.8086 20.6979L15.8398 21.8952C15.1892 22.2909 14.405 22.4997 13.6436 22.4997C13.2576 22.4997 12.9542 22.2483 12.8076 21.8913C12.75 21.7509 12.7593 21.6712 12.7764 21.5212V21.5182L13.2236 17.5876C13.3033 16.3818 13.2378 15.6013 13.0088 15.0358C12.8569 14.6609 12.7253 14.4119 12.3398 13.7692C12.1528 13.4574 11.8461 13.0555 11.6504 12.8659L11.4541 12.6755L11.082 12.8415C10.8772 12.9328 10.6419 13.0281 10.5596 13.0534C10.4773 13.0787 10.3697 13.1167 10.3203 13.1374C10.0981 13.2304 9.46276 13.4104 8.82422 13.5612C8.49785 13.6383 8.36574 13.6644 7.85156 13.7565C7.76119 13.7727 7.64059 13.7973 7.58301 13.8102C7.52541 13.8232 7.28256 13.8491 7.04395 13.8679C6.53266 13.9079 5.91374 13.8706 5.60352 13.7819L5.30859 13.6979C4.84784 13.5669 3.75466 12.9909 3.31934 12.6501C3.03066 12.424 2.66895 12.0911 2.53613 11.9294C2.31022 11.6542 2.25 11.5417 2.25 11.3952C2.25002 11.1948 2.3145 11.1289 2.66016 10.9763C2.8252 10.9034 3.02717 10.8 3.10938 10.7468C3.53115 10.4737 3.80288 10.3087 4.08496 10.154C4.45758 9.94959 5.7406 9.3575 6.12402 9.21259C6.33899 9.13138 6.57318 8.96504 6.70605 8.7995C6.85165 8.6179 6.89009 8.54725 7.07422 8.12274C7.32317 7.54873 7.41981 7.39274 7.68066 7.14325C7.95669 6.87926 8.67662 6.40763 9.27344 6.0993C9.44851 6.00887 10.3578 5.5954 10.3818 5.5954C10.3895 5.59493 10.4827 5.55841 10.5898 5.51337C10.6967 5.46845 10.7975 5.43102 10.8154 5.43036L11.9951 2.56903ZM10.4756 7.42743C10.2181 7.30971 10.0593 7.3408 9.85254 7.54852C9.73618 7.66551 9.65935 7.81235 9.65918 7.91864C9.65918 8.15188 9.98953 8.48407 10.2217 8.48407C10.4319 8.48407 10.784 8.15639 10.7842 7.96063C10.7842 7.74109 10.6483 7.50648 10.4756 7.42743Z" fill="white" fill-opacity="0.9"/>
</svg>
