<svg width="24" height="24" viewBox="0 0 24 24" fill="none" xmlns="http://www.w3.org/2000/svg">
<path fill-rule="evenodd" clip-rule="evenodd" d="M21.75 12C21.75 17.3848 17.3848 21.75 12 21.75C6.61522 21.75 2.25 17.3848 2.25 12C2.25 6.61522 6.61522 2.25 12 2.25C17.3848 2.25 21.75 6.61522 21.75 12ZM14.3493 16.7743L11.9483 12.0313L13.0938 11.6144L14.6 14.9689L14.6412 14.954L14.8617 10.971L15.8425 10.614L17.4337 13.9458L17.4773 13.9299L17.6104 9.9705L18.7559 9.55357L18.3186 15.3296L17.2966 15.7016L15.7143 12.6051L15.6756 12.6192L15.3713 16.4023L14.3493 16.7743ZM10.2401 18.2699L8.4577 18.9187L7.47588 13.6592L9.22441 13.0228C9.72329 12.8412 10.1744 12.7922 10.5778 12.8757C10.9829 12.9587 11.3222 13.1652 11.5959 13.4952C11.8691 13.8237 12.0575 14.2661 12.1613 14.8226C12.2619 15.3601 12.2532 15.856 12.1351 16.3104C12.0165 16.7631 11.7971 17.1575 11.4769 17.4934C11.1561 17.8277 10.7439 18.0866 10.2401 18.2699ZM9.32946 17.5839L9.97365 17.3494C10.2853 17.236 10.537 17.0786 10.7288 16.8771C10.9222 16.6751 11.0499 16.4256 11.1119 16.1288C11.1755 15.8314 11.17 15.4823 11.0955 15.0816C11.0248 14.7014 10.915 14.4123 10.7661 14.2142C10.6182 14.0138 10.4302 13.8967 10.2021 13.8627C9.97335 13.8271 9.704 13.8657 9.39401 13.9785L8.7038 14.2298L9.32946 17.5839ZM9.08158 4.5547C9.07753 4.32542 9.07901 4.06222 9.08484 3.96981C9.09067 3.8774 9.10166 3.80169 9.10925 3.80156C9.12793 3.80124 9.4769 4.24338 9.66357 4.50386C10.22 5.28029 10.9692 6.62246 11.3954 7.60631C11.4314 7.68959 11.4683 7.76503 11.4773 7.77396C11.4862 7.78288 11.4959 7.63167 11.4988 7.43794C11.5119 6.56447 11.8189 5.80373 12.4013 5.20163C12.5794 5.01748 12.7522 4.86698 12.7683 4.88198C12.7742 4.88753 12.7478 4.96924 12.7095 5.06358C12.5531 5.4485 12.4517 5.82637 12.3866 6.26677C12.3368 6.6038 12.3534 7.55448 12.4152 7.90381C12.4666 8.19425 12.5336 8.49106 12.5792 8.63038C12.6289 8.78254 12.6278 8.78494 12.5025 8.78751C12.077 8.7963 11.2683 8.95686 10.7427 9.13691C10.3104 9.28498 9.86871 9.48525 9.48542 9.70693C9.39818 9.7574 9.32139 9.79877 9.31479 9.79889C9.30819 9.799 9.28541 9.75593 9.26416 9.70315C8.81264 8.582 8.1115 7.67057 7.23016 7.05907C7.12875 6.98869 6.99098 6.90197 6.92402 6.86636C6.85707 6.83075 6.80185 6.79356 6.80134 6.78374C6.80008 6.75996 7.05949 6.78088 7.29692 6.82369C8.16562 6.98031 8.96357 7.4874 9.48911 8.21675C9.54385 8.29269 9.59264 8.36507 9.59756 8.37759C9.60248 8.39012 9.61135 8.3957 9.61728 8.39C9.62322 8.38431 9.60899 8.29759 9.58567 8.19731C9.28342 6.89737 9.09938 5.56753 9.08158 4.5547Z" fill="white" fill-opacity="0.9"/>
</svg>
