<svg width="24" height="24" viewBox="0 0 24 24" fill="none" xmlns="http://www.w3.org/2000/svg">
<path d="M15.948 9.34009C16.4178 9.76105 16.7162 9.7671 17.197 9.35767C17.3573 9.23081 17.5565 9.07548 17.6394 9.01782C17.8549 8.8737 18.3795 8.68881 18.573 8.68872C18.6614 8.68872 18.7283 8.65966 18.7283 8.61353C18.7276 8.49656 18.3795 7.45431 18.1531 6.87817C17.5672 5.41348 16.799 4.19675 15.8484 3.2395C15.058 2.4437 14.3722 2.00482 13.4216 1.68188C13.0076 1.54368 12.8471 1.52046 12.1238 1.50317C11.671 1.49165 11.1847 1.50955 11.0515 1.53833C8.65287 2.06309 6.55759 4.43872 5.44116 7.89868C5.19798 8.65411 5.19825 8.68872 5.39722 8.68872C5.59069 8.68878 6.10968 8.8736 6.33081 9.01196C6.41371 9.06963 6.58031 9.2022 6.7019 9.31177C7.18258 9.74975 7.53074 9.76096 8.01147 9.34009C8.60831 8.82126 9.27751 8.60819 10.0291 8.70044C10.4655 8.75241 10.8855 8.94825 11.2888 9.28833C11.847 9.76696 12.1234 9.77845 12.6042 9.34595C13.6101 8.44656 14.9643 8.44642 15.948 9.34009ZM10.5867 22.3958C11.2609 22.5341 12.7082 22.5341 13.3826 22.3958C16.5273 21.7384 18.9096 19.1839 19.4236 15.9084C19.5838 14.9107 19.4796 12.3445 19.2253 10.8049L19.1589 10.4192H18.9099C18.6225 10.4192 18.5344 10.4654 18.1531 10.7883C17.1859 11.6072 15.909 11.5721 14.9197 10.7073C14.45 10.2922 14.1183 10.2977 13.6101 10.7356C12.5932 11.6006 11.3764 11.6006 10.365 10.7356C10.017 10.4418 9.79582 10.3616 9.50854 10.425C9.41456 10.4424 9.24857 10.5281 9.14917 10.6145C8.41963 11.2431 7.80094 11.4682 7.09351 11.3586C6.60733 11.2837 6.18182 11.0938 5.81714 10.7883C5.43579 10.4654 5.34672 10.4192 5.05933 10.4192H4.81616L4.75562 10.7473C4.56218 11.7738 4.50171 12.6217 4.50171 14.2249C4.49618 15.8337 4.50092 15.8802 4.65015 16.4915C5.21391 18.8095 6.61801 20.6492 8.64624 21.7102C9.18787 21.9928 9.94556 22.2631 10.5867 22.3958Z" fill="white" fill-opacity="0.9"/>
</svg>
