<svg width="24" height="24" viewBox="0 0 24 24" fill="none" xmlns="http://www.w3.org/2000/svg">
<g clip-path="url(#clip0_4_3093)">
<path d="M8.71571 1.71159C9.9121 1.29422 11.194 1.16379 12.4598 1.21074C14.1849 1.26813 15.9315 1.76377 17.3041 2.81242C18.2228 3.50631 18.9652 4.41411 19.51 5.41059L19.5046 5.38972C19.5581 5.50972 19.6275 5.61928 19.6702 5.73928C19.3177 5.30103 19.0827 4.78453 18.7249 4.34628C18.2922 3.78804 17.7848 3.28197 17.2133 2.85416C15.7285 1.7429 13.8218 1.26291 11.9738 1.30987C10.1898 1.26813 8.35786 1.71159 6.89441 2.73417C6.21075 3.22458 5.61255 3.81935 5.12118 4.49236C5.05708 4.58106 4.97163 4.64888 4.87549 4.70105C5.77813 3.31328 7.12941 2.25418 8.71571 1.71159Z" fill="#BAD8EB"/>
<path d="M6.89937 2.73944C8.36282 1.71687 10.1948 1.2734 11.9787 1.31514C13.8267 1.26819 15.7335 1.74817 17.2183 2.85943C17.7844 3.28724 18.2972 3.79331 18.7298 4.35155C19.0877 4.7898 19.3227 5.3063 19.6752 5.74455L19.7019 5.77063V5.7915C19.7019 5.85933 19.7072 5.92715 19.7286 5.98976C20.2253 7.02276 20.5137 8.14446 20.7113 9.26616C20.8075 9.85049 20.8662 10.44 20.8876 11.0296C20.957 11.5513 20.925 12.0782 20.925 12.6052C20.8716 12.9756 20.8983 13.3512 20.8395 13.7217C20.6419 15.7616 20.0758 17.8224 18.8473 19.5075C17.934 20.7962 16.5774 21.8031 15.0445 22.2674C15.0445 22.2205 15.0498 22.1735 15.0498 22.1266C15.1673 22.0848 15.2902 22.0431 15.4077 21.9961C15.9792 21.7718 16.524 21.4796 17.026 21.1301C17.7043 20.6501 18.2918 20.0606 18.7619 19.3875C19.2158 18.7406 19.5897 18.0363 19.8728 17.3007C20.1345 16.6068 20.3375 15.8868 20.4763 15.1564C20.6099 14.4729 20.69 13.779 20.7274 13.0799C20.7701 12.3965 20.7648 11.713 20.738 11.0296C20.7007 10.3305 20.6473 9.62615 20.487 8.93748C20.3588 8.1862 20.1612 7.45057 19.8888 6.74103C19.6057 5.98454 19.2212 5.26456 18.7565 4.60198C18.2491 3.91331 17.6402 3.30811 16.9406 2.82291C16.2302 2.33771 15.4344 1.97251 14.5958 1.74817C13.7413 1.52383 12.8546 1.41427 11.9734 1.41948C11.0921 1.40905 10.2162 1.51861 9.36694 1.74295C7.67383 2.1812 6.19969 3.19855 5.2116 4.60198C4.74159 5.26456 4.35703 5.98454 4.06861 6.74103C3.79088 7.44536 3.58792 8.18098 3.46507 8.92704C3.34223 9.62615 3.26211 10.3253 3.21939 11.0348C3.18734 11.7182 3.19268 12.4017 3.22473 13.0904C3.25677 13.7843 3.34223 14.4781 3.4811 15.1564C3.61996 15.8868 3.82292 16.6068 4.08998 17.3059C4.36771 18.0415 4.74159 18.7354 5.19558 19.3823C5.67093 20.0553 6.25845 20.6449 6.93142 21.1301C7.44416 21.4953 8.00497 21.7979 8.59783 22.017C8.70465 22.0587 8.81147 22.09 8.91829 22.1266C8.91295 22.1631 8.90761 22.2048 8.90227 22.2413C8.68329 22.2309 8.49635 22.1214 8.29339 22.0483C7.47621 21.6988 6.70175 21.2292 6.07685 20.6084C4.65613 19.2936 3.82826 17.4728 3.417 15.6312C3.39564 15.579 3.36893 15.532 3.33689 15.4851C3.18734 14.9007 3.1179 14.2903 3.05381 13.6903C2.92029 12.2504 2.96301 10.7948 3.16597 9.36529C3.38496 7.94099 3.80156 6.53235 4.51726 5.26978C4.63476 5.07675 4.73625 4.87327 4.88045 4.70111C4.97659 4.64893 5.06205 4.58111 5.12614 4.49242C5.61752 3.82462 6.21572 3.22985 6.89937 2.73944Z" fill="#DEEDF3"/>
<path d="M9.37146 1.74294C10.2207 1.5186 11.0966 1.40904 11.9779 1.41947C11.9779 1.45599 11.9779 1.52382 11.9779 1.56034C11.6468 1.64381 11.3049 1.58121 10.9684 1.6386C10.4397 1.68033 9.92159 1.78468 9.40885 1.89424L9.40351 1.87337L9.37146 1.74294Z" fill="#FFE066"/>
<path d="M11.9734 1.41952C12.86 1.4143 13.7412 1.52386 14.5958 1.7482C14.5798 1.80559 14.5638 1.86298 14.5531 1.92037C13.7092 1.70125 12.8386 1.5969 11.968 1.61777V1.56038C11.9734 1.52386 11.9734 1.45604 11.9734 1.41952Z" fill="#50B475"/>
<path d="M10.9636 1.63862C11.2948 1.58123 11.642 1.64384 11.9731 1.56036V1.61775C11.9731 1.73775 11.9731 1.85253 11.9731 1.97252C11.9731 2.03513 11.9731 2.09252 11.9731 2.15513C11.1506 2.10817 10.3334 2.27512 9.53224 2.43164L9.51622 2.3586C9.47883 2.20208 9.44144 2.05078 9.40405 1.89426C9.92214 1.7847 10.4402 1.68036 10.9636 1.63862Z" fill="#FFE688"/>
<path d="M11.9733 1.61774C12.8439 1.60209 13.7145 1.70644 14.5583 1.92556L14.5477 1.9673C14.5263 2.05599 14.5049 2.1499 14.4836 2.23859L14.4622 2.31685C14.0296 2.20729 13.5969 2.12381 13.1536 2.07164C12.7637 2.00903 12.3578 2.06642 11.9733 1.97773C11.9733 1.85252 11.9733 1.73774 11.9733 1.61774Z" fill="#89C699"/>
<path d="M7.00684 2.82813C7.72254 2.33771 8.5237 1.96729 9.36758 1.74817L9.39429 1.8786C9.15928 1.98816 8.91893 2.08207 8.67325 2.14989C8.27267 2.29076 7.88811 2.47336 7.51958 2.68205C7.37003 2.77596 7.24184 2.89595 7.06559 2.93769L7.00684 2.82813ZM19.6865 6.86625C19.7453 6.82451 19.804 6.78277 19.8681 6.74625C20.1405 7.45579 20.3381 8.19142 20.4663 8.9427C20.4129 8.95313 20.3595 8.96357 20.3061 8.97922C20.1458 9.03661 19.9856 9.10443 19.8254 9.16182C18.7999 9.55311 17.7691 9.93918 16.7436 10.3305C16.6848 9.90788 16.6368 9.48007 16.4552 9.08878L16.4498 9.07313C17.3258 8.4888 18.1857 7.88882 19.0563 7.29406C19.2699 7.15319 19.4835 7.01233 19.6865 6.86625Z" fill="#2F3039"/>
<path d="M14.601 1.74817C15.4396 1.97251 16.23 2.33771 16.9457 2.82291C16.9084 2.88552 16.8763 2.94291 16.8389 3.00552C16.4116 2.71857 15.963 2.46814 15.493 2.26467C15.1779 2.16033 14.8681 2.04033 14.5476 1.95686L14.5583 1.91512C14.569 1.86295 14.5797 1.80556 14.601 1.74817Z" fill="#F07E5E"/>
<path d="M9.39788 1.87341L9.40322 1.89428C9.44061 2.0508 9.478 2.2021 9.51539 2.35861C8.90651 2.45252 8.36172 2.7499 7.81693 3.01598C7.63 3.10989 7.48579 3.28728 7.26146 3.30814C7.20805 3.20902 7.15464 3.10989 7.10123 3.00555L7.06384 2.93772C7.2401 2.89599 7.36828 2.77599 7.51783 2.68208C7.88637 2.46817 8.27092 2.29079 8.6715 2.14992C8.92253 2.07688 9.16288 1.98297 9.39788 1.87341Z" fill="#4B4953"/>
<path d="M11.9733 1.9726C12.3632 2.06129 12.7637 2.0039 13.1536 2.0665C13.5969 2.11868 14.0296 2.20215 14.4622 2.31171C14.4408 2.40041 14.4195 2.4891 14.3981 2.57257C14.3767 2.65605 14.3554 2.74474 14.334 2.83343C14.2646 2.79691 14.1898 2.76039 14.1204 2.72387C13.9281 2.62996 13.7305 2.55171 13.5275 2.4891C13.0255 2.34302 12.4967 2.29085 11.9786 2.28563C11.9786 2.25432 11.9786 2.1865 11.9786 2.1552C11.9733 2.09781 11.9733 2.0352 11.9733 1.9726Z" fill="#70BE87"/>
<path d="M14.5474 1.96216C14.8678 2.04563 15.1776 2.16563 15.4927 2.26997C15.9628 2.47344 16.4167 2.72387 16.8387 3.01082L16.8173 3.04734C16.7746 3.12038 16.7372 3.19864 16.6945 3.27689C16.3099 3.0056 15.888 2.78126 15.45 2.60387C15.1402 2.45779 14.7931 2.38475 14.4833 2.23345C14.4993 2.13954 14.5207 2.05085 14.5474 1.96216Z" fill="#F29274"/>
<path d="M9.53064 2.4316C10.3318 2.27509 11.149 2.10813 11.9715 2.15509C11.9715 2.18639 11.9715 2.25422 11.9715 2.28552C11.4694 2.29074 10.962 2.33247 10.4813 2.46812C10.257 2.53073 10.038 2.6142 9.82974 2.71855C9.76031 2.74985 9.69087 2.78637 9.62678 2.81767C9.59473 2.69246 9.56269 2.56203 9.53064 2.4316Z" fill="#FFDF5B"/>
<path d="M14.4771 2.2334C14.7868 2.3847 15.134 2.45252 15.4438 2.60382C15.8871 2.78121 16.3037 3.00554 16.6883 3.27684L16.6509 3.34988C16.6081 3.42814 16.5708 3.5064 16.528 3.58465C15.9085 3.09424 15.15 2.80207 14.3916 2.57773C14.413 2.48904 14.4343 2.40035 14.4557 2.31687L14.4771 2.2334Z" fill="#EF7657"/>
<path d="M11.9721 2.29071C12.4955 2.30114 13.0189 2.3481 13.521 2.49418L13.4409 2.562C13.3768 3.0159 13.4462 3.4698 13.4462 3.9237C12.4902 3.6524 11.4754 3.6524 10.5193 3.91326C10.4606 3.43328 10.5247 2.9533 10.4819 2.47331C10.968 2.33767 11.47 2.29593 11.9721 2.29071Z" fill="#D7E7F1"/>
<path d="M7.81756 3.0107C8.36234 2.74984 8.90713 2.44724 9.51601 2.35333L9.53203 2.42637C9.56408 2.5568 9.59613 2.68723 9.62817 2.81766C9.51067 2.88027 9.39851 2.95331 9.28635 3.02635C9.22225 3.02113 9.15282 3.00027 9.08873 3.042C8.7736 3.1933 8.50121 3.41764 8.18075 3.56372C7.96711 3.65763 7.79619 3.81415 7.58789 3.91328C7.54516 3.83502 7.50243 3.75154 7.4597 3.67329C7.39561 3.55329 7.33152 3.42808 7.26743 3.30808L7.26208 3.29765C7.48641 3.28199 7.63062 3.10461 7.81756 3.0107Z" fill="#35363E"/>
<path d="M9.8302 2.72372C10.0385 2.61938 10.2575 2.5359 10.4818 2.4733C10.5245 2.95328 10.4551 3.43848 10.5192 3.91325C10.3857 3.95498 10.2575 3.99672 10.1293 4.04889C10.0171 3.61065 9.93702 3.16197 9.8302 2.72372Z" fill="#C3DCED"/>
<path d="M13.5274 2.49429C13.7304 2.5569 13.9334 2.63516 14.1203 2.72907C14.0135 3.16731 13.928 3.61599 13.8265 4.05424C13.7037 4.00728 13.5809 3.96555 13.4527 3.92381C13.4527 3.46991 13.3832 3.01601 13.4473 2.56212L13.5274 2.49429Z" fill="#C6DEEE"/>
<path d="M14.3975 2.5777C15.1559 2.80204 15.9144 3.0942 16.5339 3.58462L16.5072 3.63679L16.3951 3.8507C16.0052 3.61592 15.6206 3.34463 15.172 3.22463C15.0117 3.14637 14.8568 2.98986 14.6592 3.03681C14.5524 2.96377 14.4456 2.89595 14.3334 2.83856C14.3548 2.74465 14.3761 2.66117 14.3975 2.5777ZM3.40561 11.0609C3.50709 11.0713 3.60323 11.0817 3.70471 11.0922C3.68335 11.7287 3.678 12.36 3.71005 12.9965L3.83824 13.0225L3.84892 13.033C3.72073 13.0434 3.59789 13.0538 3.4697 13.0695L3.37891 13.0799C3.42698 12.4069 3.36822 11.7339 3.40561 11.0609ZM5.3818 19.1893C5.45658 19.111 5.53135 19.0328 5.60613 18.9545C5.64885 19.2154 5.89454 19.3614 6.04409 19.5597C6.27376 19.8571 6.58354 20.0762 6.83991 20.3475C6.95207 20.4518 7.08026 20.5353 7.22447 20.5927C7.16572 20.7023 7.10696 20.8066 7.04821 20.9162L7.03753 20.9057C6.79718 20.6605 6.49808 20.4779 6.25774 20.2327C5.92659 19.9197 5.60079 19.591 5.3818 19.1893Z" fill="#E94B33"/>
<path d="M9.62738 2.82291C9.69147 2.78639 9.7609 2.75509 9.83034 2.72379C9.93716 3.16203 10.0173 3.61071 10.1294 4.04896C9.81966 4.17417 9.51522 4.3359 9.27487 4.56546C9.23214 4.50807 9.20009 4.44546 9.17873 4.38286C9.08259 4.05939 9.00782 3.72549 8.91168 3.40202C9.0185 3.26116 9.14668 3.14116 9.28555 3.0316C9.39771 2.95856 9.50987 2.88552 9.62738 2.82291ZM14.1192 2.72379C14.1886 2.76031 14.2634 2.79161 14.3328 2.83335C14.445 2.89595 14.5518 2.96378 14.6587 3.0316C14.8029 3.13594 14.9257 3.26116 15.0379 3.40202C14.9257 3.79853 14.8349 4.20025 14.7067 4.59155C14.4504 4.35677 14.1566 4.17417 13.8308 4.05417C13.9323 3.61071 14.0124 3.16725 14.1192 2.72379ZM10.8505 6.0628C10.9733 6.03671 11.1015 6.03671 11.219 6.06801C11.187 6.33931 11.2404 6.6106 11.3792 6.84538C11.2724 6.86103 11.1603 6.87668 11.0534 6.89755C10.9893 6.90798 10.9253 6.92364 10.8612 6.93929C10.8451 6.66799 10.8718 6.3967 10.8505 6.13062V6.0628ZM9.86773 7.49231C10.2523 7.30449 10.6582 7.17406 11.0801 7.10624L11.1816 7.14798C11.0107 7.22623 10.8398 7.31493 10.6796 7.41927C10.044 7.83143 9.6167 8.49923 9.41374 9.20877C9.24816 9.80353 9.17339 10.4192 9.19475 11.0348C8.89565 11.0817 8.59121 11.1339 8.29745 11.2017L8.17995 11.2174C8.1212 10.6122 8.15859 10.0018 8.30279 9.41224C8.46303 8.92704 8.69269 8.46271 9.05054 8.08707C9.29623 7.85752 9.56329 7.63839 9.86773 7.49231ZM12.7305 7.12711C13.0777 7.12189 13.4142 7.23667 13.7453 7.3358C14.0818 7.45579 14.3863 7.64883 14.6693 7.86273C15.0806 8.20185 15.3637 8.66097 15.572 9.14617C15.7963 9.81397 15.839 10.5235 15.7803 11.2174L15.6681 11.2017C15.369 11.1391 15.0699 11.0817 14.7655 11.0348C14.7601 10.174 14.6693 9.28703 14.2581 8.50967C14.0124 8.04012 13.6439 7.64361 13.1845 7.36188C13.035 7.27841 12.8854 7.19493 12.7305 7.12711ZM8.36155 11.447C8.56985 11.4157 8.77281 11.3791 8.97577 11.3322C9.05054 11.3374 9.12532 11.3426 9.20009 11.3478C9.28555 12.8034 9.64874 14.2329 10.1081 15.6155C10.3644 16.4868 10.6529 17.3528 10.8398 18.2398C10.9466 18.7876 10.984 19.3562 10.8825 19.904C10.781 20.384 10.6368 20.8536 10.4446 21.3075C10.295 21.7614 9.93716 22.1318 9.88375 22.617C9.69681 22.5753 9.50987 22.5283 9.32294 22.4813C9.41373 22.0327 9.73954 21.6883 9.92648 21.2762C10.1668 20.7858 10.3484 20.2745 10.4713 19.7423C10.5514 19.4032 10.5567 19.0536 10.4873 18.7093C10.3057 17.885 9.88909 17.1389 9.57397 16.3616C9.10395 15.2555 8.73008 14.1077 8.46837 12.9391C8.37757 12.4747 8.29211 12.0104 8.21734 11.5409C8.26541 11.5096 8.31348 11.4783 8.36155 11.447ZM14.2153 14.3999C14.4931 13.3982 14.6907 12.3756 14.7441 11.3374H15.0005C15.2034 11.3843 15.4064 11.4157 15.604 11.4574L15.7269 11.5043C15.6841 11.9687 15.5827 12.4226 15.4919 12.8817C15.2622 13.9408 14.9417 14.979 14.5358 15.9859C14.2314 16.7581 13.8415 17.4937 13.5798 18.2815C13.4035 18.798 13.3448 19.3615 13.5157 19.8832C13.6759 20.4675 13.8842 21.0414 14.1833 21.5735C14.3596 21.8605 14.5679 22.1422 14.6266 22.4866C14.445 22.5335 14.2581 22.5805 14.0765 22.6222C14.0391 22.4031 13.9643 22.1892 13.8468 21.9961C13.7079 21.7562 13.5851 21.5057 13.4836 21.2501C13.3074 20.8118 13.1685 20.3527 13.067 19.8884C12.9922 19.4293 12.9922 18.9597 13.067 18.5006C13.254 17.4363 13.6118 16.4085 13.9216 15.3703C14.0284 15.0468 14.1245 14.7234 14.21 14.3947V14.3999H14.2153Z" fill="white"/>
<path d="M5.21191 4.60197C5.70329 3.9133 6.31217 3.31332 7.00651 2.82291L7.06526 2.93247L7.10265 3.00029C6.40831 3.46462 5.8208 4.06982 5.32942 4.7324C5.29203 4.69067 5.2493 4.64893 5.21191 4.60197Z" fill="#FDC647"/>
<path d="M16.8386 3.01076C16.8707 2.94815 16.9081 2.88554 16.9454 2.82816C17.6451 3.31857 18.254 3.91855 18.74 4.61244C18.6866 4.66983 18.6332 4.72722 18.5798 4.78983C18.0991 4.11681 17.5009 3.52726 16.8173 3.0525L16.8386 3.01076Z" fill="#FFDE54"/>
<path d="M7.10221 3.00034C7.15562 3.09946 7.20903 3.19859 7.26244 3.30293L7.26778 3.31337C6.85118 3.55336 6.51469 3.8977 6.17821 4.2316C5.9432 4.46115 5.77763 4.7481 5.5266 4.96201C5.47319 4.90462 5.42512 4.84723 5.37171 4.78984L5.32898 4.74288C5.82036 4.06986 6.40787 3.46467 7.10221 3.00034Z" fill="#FFE377"/>
<path d="M9.09303 3.04731C9.15178 3.01079 9.22121 3.02644 9.29065 3.03166C9.15178 3.136 9.0236 3.26122 8.91677 3.40208C8.70847 3.67859 8.61768 4.02293 8.67109 4.36726C8.70313 4.72725 8.80461 5.0768 8.90075 5.42636C8.94348 5.58809 9.01825 5.73939 9.11439 5.87504L9.02894 5.90634C8.92746 5.94808 8.82598 5.99503 8.72984 6.0472C8.68177 5.96373 8.63904 5.88025 8.59631 5.79156C8.27051 5.18637 7.95004 4.57595 7.62424 3.97076L7.59753 3.91858C7.80584 3.81946 7.98209 3.66816 8.19039 3.56903C8.50017 3.41773 8.77791 3.19339 9.09303 3.04731ZM9.08769 6.72544C9.23724 6.60545 9.41883 6.52197 9.61111 6.49067C9.81407 6.49067 10.017 6.49588 10.2093 6.56371C10.3215 6.60545 10.4283 6.6524 10.5351 6.69936V7.00195C10.2841 7.05934 10.0437 7.13238 9.80873 7.23151C9.68589 7.28368 9.56304 7.34107 9.44554 7.39846C9.33338 7.1689 9.21053 6.94978 9.08769 6.72544Z" fill="#1E2129"/>
<path d="M14.6588 3.03157C14.851 2.98462 15.0059 3.14113 15.1715 3.21939C15.4172 3.40721 15.6469 3.63677 15.7323 3.93936C15.8659 4.38804 15.6682 4.83151 15.6255 5.27497C15.54 5.44714 15.4492 5.6193 15.3585 5.79147C15.3104 5.87495 15.2677 5.95842 15.2249 6.0419C15.1288 5.98973 15.0326 5.94277 14.9312 5.90103L14.8404 5.86973C14.9312 5.74973 15.0006 5.60887 15.0433 5.46279C15.1715 5.01411 15.305 4.56021 15.2997 4.09066C15.289 3.84024 15.1982 3.60025 15.0433 3.39678C14.9312 3.26113 14.803 3.14113 14.6588 3.03157ZM13.8576 6.5271C14.0018 6.50101 14.146 6.49058 14.2956 6.49058C14.5039 6.51666 14.6962 6.59492 14.8564 6.72535C14.7335 6.94447 14.616 7.16881 14.4932 7.39315C14.2902 7.28881 14.0766 7.20012 13.863 7.12708C13.7187 7.08012 13.5745 7.0436 13.4303 6.99665C13.3876 6.90274 13.4143 6.78796 13.409 6.68883C13.5585 6.62622 13.7081 6.56884 13.8576 6.5271ZM7.55517 7.22099C7.67801 7.35663 7.79551 7.49228 7.92904 7.62271C7.91836 7.73749 7.91302 7.84705 7.90768 7.96183C7.90234 8.07661 7.90234 8.17573 7.90234 8.28008C7.90234 8.39486 7.91302 8.50964 7.91836 8.62963C7.98245 8.85919 7.83824 9.05744 7.75813 9.26091L7.49642 9.08353L7.48573 9.07309C7.54449 8.9531 7.62994 8.8331 7.60324 8.69224C7.54449 8.20704 7.49642 7.7114 7.55517 7.22099ZM7.31482 11.5617L7.60858 11.5982C7.60858 11.6087 7.61392 11.64 7.61392 11.6504C7.67267 11.9686 7.73142 12.2869 7.81154 12.5999L7.52846 12.6312L7.37891 12.6469C7.42164 12.6208 7.45903 12.5947 7.50176 12.5634C7.42698 12.2347 7.34152 11.9008 7.31482 11.5617ZM15.8605 13.5286C15.9566 13.2156 16.0528 12.9077 16.1276 12.5895L16.3786 12.6156L16.4213 12.6208C16.3412 12.9547 16.2397 13.2834 16.1276 13.6121L15.8605 13.5286ZM8.64474 15.7146C8.70884 15.6468 8.77293 15.5789 8.83702 15.5059C9.01328 15.9181 9.20021 16.3198 9.39783 16.7215C9.34976 16.805 9.30169 16.8885 9.25896 16.9719C9.01328 16.5702 8.83168 16.1372 8.64474 15.7146Z" fill="#BA1716"/>
<path d="M16.6953 3.2768C16.7381 3.19854 16.7755 3.1255 16.8182 3.04724C17.5018 3.52201 18.1 4.11155 18.5807 4.78457L18.5647 4.80544C18.4953 4.8837 18.4258 4.96196 18.3564 5.035C18.2015 4.77414 18.0092 4.53414 17.7903 4.32546C17.4324 3.98112 17.0906 3.6107 16.658 3.34462L16.6953 3.2768Z" fill="#FFE892"/>
<path d="M15.1666 3.21951C15.6153 3.34473 15.9945 3.6108 16.3897 3.84558L16.3524 3.9134C16.112 4.3673 15.877 4.82641 15.6206 5.26987C15.6634 4.82641 15.861 4.38295 15.7274 3.93427C15.642 3.63689 15.4177 3.40733 15.1666 3.21951ZM5.91593 5.39509C5.95331 5.43683 5.9907 5.47856 6.02809 5.5203C6.53549 6.08376 7.03755 6.64722 7.54495 7.21068L7.55563 7.22633C7.50222 7.71674 7.54495 8.21238 7.6037 8.69758C7.6304 8.83844 7.54495 8.95844 7.4862 9.07843L4.87976 7.29415C5.0026 7.03329 5.12011 6.76721 5.25363 6.50635C5.41387 6.10463 5.68092 5.75507 5.91593 5.39509ZM4.23349 11.1653L7.28858 11.5566L7.31528 11.5618C7.33665 11.9009 7.42744 12.2348 7.50222 12.5687C7.45949 12.5948 7.4221 12.6261 7.37937 12.6522C6.36457 12.7618 5.34977 12.8713 4.33497 12.9757L4.20679 12.9653C4.2869 12.7566 4.22815 12.5322 4.22281 12.3183C4.23883 11.9322 4.21213 11.5462 4.23349 11.1653ZM16.4164 12.6261C17.4633 12.7357 18.5048 12.8505 19.5516 12.96L19.6959 12.9757C19.6531 13.5965 19.573 14.2069 19.4982 14.8278C18.3713 14.4313 17.2496 14.0243 16.1227 13.6331L16.128 13.6226C16.2348 13.2887 16.3417 12.96 16.4164 12.6261ZM5.93729 18.5946C6.84527 17.6399 7.74257 16.6695 8.64521 15.7147C8.83214 16.1425 9.01374 16.5703 9.25943 16.9721C9.25409 16.9773 9.24874 16.9929 9.2434 16.9982C8.67191 18.0155 8.10042 19.0276 7.52892 20.045L7.48085 20.1337C6.98414 19.878 6.61026 19.4502 6.24173 19.0433C6.1723 18.8659 5.94797 18.7981 5.93729 18.5946Z" fill="#E30613"/>
<path d="M6.17782 4.23152C6.51431 3.89762 6.8508 3.55328 7.2674 3.31329C7.33149 3.43329 7.39558 3.5585 7.45968 3.6785C6.98966 4.05935 6.50897 4.44021 6.1351 4.92019C6.02827 5.04019 5.95884 5.20714 5.79861 5.26453L5.71315 5.17062C5.64906 5.09758 5.58497 5.02975 5.52087 4.95671C5.77724 4.74803 5.94282 4.45586 6.17782 4.23152Z" fill="#FFDE52"/>
<path d="M16.535 3.57932C16.5777 3.50106 16.6151 3.4228 16.6578 3.34454C17.0905 3.6054 17.4323 3.97583 17.7902 4.32538C18.0091 4.53407 18.2014 4.77406 18.3563 5.03492C18.2869 5.11318 18.2121 5.19143 18.1427 5.26969C17.8916 4.94623 17.6246 4.63841 17.3362 4.35146C17.0798 4.0906 16.7754 3.88713 16.5083 3.63671L16.535 3.57932Z" fill="#FFDF64"/>
<path d="M8.66689 4.362C8.61882 4.02288 8.70962 3.67333 8.91792 3.39682C9.01406 3.72029 9.08883 4.04897 9.18497 4.37765C9.20634 4.44548 9.23838 4.50809 9.28111 4.56026C9.14758 4.68547 9.04076 4.83155 8.96599 4.9985L8.93928 5.07154C8.91792 5.18632 8.9019 5.30632 8.89655 5.4211C8.80042 5.07154 8.70428 4.72199 8.66689 4.362Z" fill="#A8CEE6"/>
<path d="M15.0338 3.4021C15.1887 3.60557 15.2742 3.84556 15.2902 4.09599C15.3009 4.56554 15.162 5.01943 15.0338 5.46811C15.0445 5.33768 15.0338 5.20204 15.0124 5.07682C15.0124 5.06639 15.0071 5.05074 15.0071 5.0403C14.9323 4.87857 14.8309 4.72727 14.708 4.59162C14.8309 4.20033 14.9216 3.79861 15.0338 3.4021ZM15.5626 9.15668C15.648 8.85408 15.5359 8.54626 15.5946 8.24367L15.7388 8.41583L16.0379 8.43149C16.0379 8.57235 16.0166 8.71322 16.0166 8.84886C16.0593 8.98451 16.1287 9.11494 16.1768 9.25059C16.321 9.63666 16.3958 10.0488 16.4011 10.461C16.4065 10.7636 16.3904 11.0662 16.3531 11.3636C16.118 11.3166 15.883 11.2644 15.6534 11.207L15.7655 11.2227C15.8296 10.5288 15.7869 9.81926 15.5626 9.15668Z" fill="#A9CFE7"/>
<path d="M16.3897 3.85075L16.5072 3.63684C16.7742 3.88205 17.084 4.08552 17.335 4.3516C17.6234 4.64376 17.8958 4.94636 18.1415 5.26983C18.0934 5.322 18.0454 5.37417 17.9973 5.43156C17.7676 5.30113 17.6715 5.0507 17.4846 4.87332C17.1321 4.52898 16.7956 4.14813 16.3469 3.91857L16.3897 3.85075ZM19.0175 16.7581L19.0281 16.7633C19.1403 16.8364 19.2525 16.9094 19.37 16.9877C19.1189 17.6816 18.7664 18.3389 18.3338 18.9441C18.3071 18.918 18.2537 18.8606 18.227 18.8293C18.1629 18.7615 18.0988 18.6937 18.0347 18.6259C18.1789 18.3859 18.3605 18.1668 18.478 17.9111C18.5741 17.7024 18.7344 17.5198 18.8091 17.3007C18.8679 17.1181 18.9427 16.9355 19.0175 16.7581Z" fill="#FFDB2E"/>
<path d="M7.46463 3.67331C7.50736 3.75157 7.55008 3.83504 7.59281 3.9133L7.61952 3.96547C7.20292 4.15851 6.90916 4.5185 6.58335 4.82631C6.39108 5.05065 6.17209 5.25934 6.02788 5.5202C5.9905 5.47846 5.95311 5.43672 5.91572 5.39499C5.87833 5.35325 5.83561 5.30629 5.79822 5.26456C5.95845 5.20717 6.03323 5.04022 6.13471 4.92022C6.51392 4.44024 6.99462 4.05417 7.46463 3.67331Z" fill="#FFD91E"/>
<path d="M10.5197 3.91326C11.4757 3.64718 12.4959 3.6524 13.4519 3.92369C13.5801 3.96543 13.7029 4.00717 13.8258 4.05412C14.1516 4.17934 14.4507 4.36194 14.7017 4.59671C14.8246 4.72714 14.926 4.87844 15.0008 5.04539C14.8887 5.07148 14.7765 5.08713 14.6643 5.08191C14.3492 5.06626 14.0394 5.07148 13.7243 5.09756C13.5374 5.07148 13.3504 5.07148 13.1635 5.09756C13.0513 5.02974 12.9392 4.96713 12.8217 4.90975C12.3143 4.74801 11.7695 4.73236 11.2567 4.86801C11.1179 4.91496 10.979 4.97235 10.8562 5.04539L10.8348 5.05583C10.6532 4.99844 10.4663 5.03496 10.2847 5.02452C9.84136 5.00887 9.39805 5.05061 8.96008 5.00366C9.03486 4.84192 9.14168 4.69062 9.2752 4.56541C9.51555 4.33585 9.81999 4.17412 10.1298 4.04891C10.258 3.99152 10.3915 3.955 10.5197 3.91326ZM11.2888 3.91326C10.7654 3.96543 10.2152 4.08543 9.79329 4.40368C9.98557 4.41411 10.1885 4.36716 10.3755 4.41933C10.5731 4.46107 10.6639 4.68541 10.8615 4.72714C11.2621 4.79497 11.6306 4.52889 12.0365 4.57584C12.3837 4.57063 12.6988 4.80018 13.046 4.72193C13.2436 4.68019 13.3397 4.46628 13.532 4.41933C13.7243 4.36716 13.9166 4.41411 14.1142 4.40368C13.5 3.93413 12.6881 3.91848 11.9457 3.86109C11.7267 3.88196 11.5131 3.91326 11.2888 3.91326Z" fill="#598FAA"/>
<path d="M11.2888 3.91329C11.5078 3.91329 11.7268 3.88198 11.9458 3.86633C12.6882 3.92372 13.5 3.93937 14.1142 4.40892C13.922 4.42457 13.7244 4.3724 13.5321 4.42457C13.3345 4.46631 13.2437 4.68543 13.046 4.72717C12.6935 4.80543 12.3837 4.58109 12.0366 4.58109C11.6307 4.52892 11.2675 4.80021 10.8615 4.73239C10.6639 4.69065 10.5731 4.46631 10.3755 4.42457C10.1832 4.3724 9.98561 4.41936 9.79333 4.40892C10.2099 4.08546 10.7601 3.96546 11.2888 3.91329Z" fill="#6094AF"/>
<path d="M15.6217 5.27499C15.8727 4.82631 16.1077 4.3672 16.3534 3.91852C16.8074 4.14286 17.1386 4.52893 17.4911 4.87327C17.678 5.04543 17.7742 5.30108 18.0038 5.43151V5.43672C17.4697 6.03149 16.9356 6.62103 16.4068 7.21579C16.3214 6.84015 16.2199 6.43843 15.9208 6.16192C15.7659 5.99497 15.5416 5.92193 15.36 5.79671C15.4508 5.62454 15.5416 5.45238 15.6217 5.27499ZM6.58464 4.82631C6.91045 4.52371 7.20421 4.16373 7.62081 3.96547C7.94661 4.57067 8.26708 5.18108 8.59288 5.79149C8.40594 5.92714 8.17094 5.99497 8.01605 6.17235C7.72229 6.43843 7.63149 6.84015 7.54603 7.21057C7.03863 6.64712 6.53658 6.08366 6.02917 5.5202C6.16804 5.25934 6.39237 5.05065 6.58464 4.82631ZM15.7552 14.6294L15.7606 14.6347C16.8502 15.339 17.929 16.0537 19.0186 16.7581C18.9438 16.9354 18.8744 17.118 18.8103 17.3006C18.7355 17.5198 18.5807 17.7024 18.4792 17.9111C18.3563 18.1667 18.1801 18.3858 18.0359 18.6258C17.1279 17.6554 16.2199 16.685 15.3066 15.7198V15.7146C15.4668 15.3546 15.6271 14.9999 15.7552 14.6294ZM7.53001 20.0449C8.1015 19.0275 8.673 18.0154 9.24449 16.9981C9.61302 17.645 9.96553 18.3597 9.87473 19.1215C9.78394 19.758 9.4795 20.3423 9.18574 20.911C8.90266 20.8014 8.64095 20.6344 8.35253 20.5353C8.06412 20.3892 7.79706 20.2119 7.53001 20.0449Z" fill="#FFD600"/>
<path d="M5.21067 4.60196C5.24806 4.6437 5.28545 4.69065 5.32818 4.73239L5.3709 4.77934C5.05578 5.24368 4.77805 5.72888 4.5377 6.22973C4.44156 6.43842 4.36679 6.65754 4.23326 6.84536C4.17985 6.80884 4.12644 6.77232 4.07303 6.74101C4.36145 5.98974 4.746 5.26976 5.21067 4.60196ZM3.2238 11.0348L3.4054 11.0504V11.0609C3.37335 11.7339 3.42676 12.4069 3.38403 13.0747L3.23448 13.0851C3.1971 12.4069 3.19176 11.7182 3.2238 11.0348ZM20.4861 13.0538L20.5609 13.0643L20.7158 13.0851C20.6784 13.7842 20.5929 14.4781 20.4647 15.1616L20.2725 15.0938L20.2618 15.0885C20.3259 14.6973 20.4006 14.306 20.4327 13.9095C20.454 13.6225 20.5235 13.3408 20.4861 13.0538ZM5.19999 19.3823C5.25874 19.3197 5.32284 19.2519 5.38159 19.1893C5.60057 19.591 5.92637 19.9197 6.25218 20.2327C6.49253 20.4779 6.79163 20.6605 7.03197 20.9057C6.99993 20.9788 6.96788 21.0518 6.93584 21.1249C6.26286 20.6449 5.67535 20.0553 5.19999 19.3823Z" fill="#CD301F"/>
<path d="M18.74 4.60727C19.21 5.26985 19.5892 5.98983 19.8723 6.74632C19.8082 6.78806 19.7494 6.82458 19.6907 6.86632C19.477 6.39677 19.3008 5.91157 19.0177 5.47854C18.8735 5.24899 18.7507 5.00378 18.5637 4.80031L18.5797 4.77944C18.6332 4.72205 18.6866 4.66466 18.74 4.60727Z" fill="#114D8B"/>
<path d="M5.3708 4.78467C5.42421 4.84206 5.47228 4.89945 5.52569 4.95684C5.58978 5.02466 5.65387 5.0977 5.71797 5.17074C5.42421 5.42638 5.28 5.80202 5.08238 6.12549C4.8901 6.43852 4.78328 6.79329 4.63907 7.12719C4.52157 7.04372 4.39873 6.96546 4.28122 6.88198L4.23315 6.85068C4.36668 6.66286 4.44145 6.44374 4.53759 6.23505C4.77794 5.72898 5.05568 5.24378 5.3708 4.78467ZM20.0961 13.0122L20.2456 13.0279L20.486 13.0539C20.5234 13.3409 20.4486 13.6226 20.4326 13.9096C20.4005 14.3061 20.3258 14.6974 20.2617 15.0886C20.1175 15.0365 19.9679 14.9843 19.8237 14.9321C19.8664 14.8434 19.8985 14.7443 19.9198 14.6504C20.0053 14.1078 20.0587 13.56 20.0961 13.0122Z" fill="#E84831"/>
<path d="M11.2633 4.86291C11.7761 4.73248 12.3209 4.74292 12.8283 4.90465C12.7481 4.97769 12.6894 5.06117 12.6146 5.13421C12.1553 5.16029 11.696 5.12899 11.2366 5.13942C11.242 5.05073 11.2527 4.95682 11.2633 4.86291ZM13.4104 5.93766C13.7683 5.78114 14.1689 5.73419 14.5534 5.80723C14.4039 5.81244 14.249 5.81244 14.0994 5.8594C14.014 5.98983 14.046 6.15156 14.0674 6.29243L13.9499 6.32373C13.8805 6.3446 13.8057 6.36547 13.7362 6.38634C13.6294 6.42286 13.5226 6.4646 13.4158 6.51155C13.4104 6.33938 13.4051 6.17243 13.4051 6.00026L13.4104 5.93766ZM8.22962 8.45757C8.2403 8.77582 8.18155 9.10972 8.29905 9.41753C8.16018 10.0071 8.11745 10.6175 8.1762 11.2227L8.29905 11.2123C8.0587 11.2696 7.8237 11.327 7.58335 11.374C7.54596 11.0766 7.53528 10.7792 7.53528 10.4818C7.54596 10.0697 7.62074 9.65753 7.7596 9.26623C7.83438 9.06276 7.98393 8.86451 7.91983 8.63495C8.02132 8.57235 8.12279 8.50974 8.22962 8.45757Z" fill="#AACFE7"/>
<path d="M18.3552 5.0351C18.4246 4.95684 18.4941 4.87858 18.5635 4.80554C18.7504 5.0038 18.8733 5.25422 19.0175 5.48378C19.3006 5.91681 19.4768 6.40201 19.6905 6.87156C19.4822 7.01764 19.2685 7.1585 19.0602 7.29937L18.9534 7.24719C18.8092 6.85069 18.6329 6.46983 18.4193 6.10463C18.2911 5.86985 18.1736 5.62986 18.0027 5.42639V5.42117C18.0508 5.369 18.0988 5.31683 18.1469 5.25944C18.211 5.1864 18.2804 5.10814 18.3552 5.0351Z" fill="#085FAA"/>
<path d="M10.8574 5.04027C10.9856 4.96723 11.1191 4.90984 11.258 4.86288C11.2473 4.95679 11.2366 5.0507 11.2313 5.14461C11.226 5.25939 11.2313 5.37939 11.2313 5.49417C11.1138 5.43678 10.9909 5.41069 10.8628 5.41591C10.8574 5.2907 10.8574 5.16548 10.8574 5.04027Z" fill="#D2E5F0"/>
<path d="M12.6151 5.13929C12.6899 5.06625 12.7487 4.97755 12.8288 4.90973C12.9463 4.9619 13.0638 5.02451 13.1706 5.09233C13.443 5.29059 13.4484 5.64014 13.411 5.93752L13.4056 6.00013C13.4003 5.97404 13.3843 5.91665 13.3789 5.89056C13.3682 5.7497 13.3682 5.60883 13.3629 5.46797L13.1279 5.48884C13.1065 5.38449 13.0905 5.28015 13.0691 5.17581C12.9623 5.15494 12.8555 5.13407 12.7487 5.11842C12.722 5.22798 12.738 5.36363 12.6579 5.4471C12.1825 5.50449 11.7018 5.41058 11.2318 5.49406C11.2318 5.37928 11.2318 5.25928 11.2318 5.1445C11.6911 5.12885 12.1505 5.16537 12.6151 5.13929Z" fill="#B9D7EB"/>
<path d="M8.94006 5.07161L8.96677 4.99857C9.40474 5.04552 9.84804 5.00378 10.2914 5.01943C10.4729 5.02465 10.6652 4.99335 10.8415 5.05074C10.6332 5.1916 10.4997 5.41594 10.537 5.66637C10.537 5.75506 10.537 5.84375 10.5424 5.92723C10.2379 5.80202 9.91214 5.74984 9.58099 5.77071C9.49553 5.78115 9.41008 5.7968 9.32462 5.81245C9.127 5.60376 8.99347 5.34812 8.94006 5.07161Z" fill="#6698B3"/>
<path d="M10.8402 5.05072L10.8616 5.04028C10.8616 5.1655 10.8616 5.29071 10.8616 5.41592V5.52548C10.7601 5.59331 10.6479 5.64548 10.5304 5.67156C10.493 5.41592 10.6266 5.19158 10.8402 5.05072Z" fill="#BDD9EC"/>
<path d="M13.1682 5.09246C13.3551 5.06637 13.5421 5.06637 13.729 5.09246C14.0388 5.07159 14.3539 5.06637 14.669 5.0768C14.7812 5.08202 14.8934 5.06637 15.0055 5.04028C15.0055 5.05072 15.0109 5.06637 15.0109 5.0768C14.9521 5.35332 14.8186 5.60896 14.6317 5.82286L14.5515 5.80721C14.167 5.73417 13.7664 5.78113 13.4086 5.93764C13.4459 5.64026 13.4406 5.29071 13.1682 5.09246Z" fill="#6799B4"/>
<path d="M8.94059 5.07147C8.99934 5.34798 9.12752 5.60884 9.32514 5.81753C9.25571 5.83318 9.18627 5.84884 9.11684 5.8697C9.0207 5.73406 8.94593 5.58276 8.9032 5.41581C8.9032 5.30625 8.91922 5.18625 8.94059 5.07147ZM14.6342 5.81753C14.8211 5.60363 14.9546 5.34798 15.0134 5.07147C15.0401 5.2019 15.0454 5.33233 15.0347 5.46276C14.992 5.60884 14.9279 5.74449 14.8318 5.8697C14.7677 5.84884 14.6982 5.83318 14.6342 5.81753Z" fill="#49839F"/>
<path d="M12.754 5.1185C12.8608 5.13415 12.9677 5.15502 13.0745 5.17589C13.0958 5.28023 13.1119 5.38458 13.1332 5.48892L13.3682 5.46805C13.3789 5.60892 13.3789 5.74978 13.3843 5.89065L13.1225 5.87499C13.1065 5.755 13.0852 5.62979 13.0531 5.51501C12.9783 5.43675 12.8555 5.48892 12.7594 5.47849C12.7433 5.6037 12.7273 5.73413 12.7059 5.85934C12.2199 5.94804 11.7178 5.83326 11.2318 5.91673C11.2318 5.77587 11.2318 5.635 11.2372 5.49414C11.7072 5.41066 12.1932 5.50457 12.6632 5.44718C12.7433 5.36371 12.722 5.22806 12.754 5.1185Z" fill="#C7DFEE"/>
<path d="M5.08357 6.12546C5.28118 5.79678 5.42539 5.42636 5.71915 5.17072L5.80461 5.26463C5.842 5.30636 5.87938 5.35332 5.92211 5.39506C5.68711 5.75504 5.42005 6.1046 5.25982 6.50632C5.12629 6.76196 5.00879 7.02804 4.88595 7.29412L4.71503 7.17934L4.64026 7.13238C4.78447 6.79327 4.89129 6.4385 5.08357 6.12546Z" fill="#E62A21"/>
<path d="M10.8611 5.41591C10.9893 5.41069 11.1175 5.442 11.2297 5.49417C11.2297 5.63503 11.2297 5.7759 11.2243 5.91676L11.219 6.07328C11.0961 6.04197 10.9733 6.04197 10.8505 6.06806C10.8451 5.88546 10.8558 5.70286 10.8611 5.52547V5.41591Z" fill="#E6F1F7"/>
<path d="M12.7535 5.47333C12.8497 5.48377 12.9725 5.4316 13.0473 5.50985C13.0793 5.62985 13.106 5.74984 13.1167 5.86984L13.3784 5.88549C13.3838 5.91158 13.3998 5.96897 13.4051 5.99505C13.4051 6.16722 13.4105 6.33417 13.4158 6.50634C13.4158 6.55329 13.4158 6.64199 13.4158 6.68894C13.4211 6.78807 13.3944 6.90285 13.4372 6.99676C13.576 7.04371 13.7256 7.08023 13.8698 7.12719C13.8271 7.20023 13.7843 7.27327 13.7416 7.34109C13.4105 7.24197 13.0793 7.12197 12.7268 7.1324C12.8817 7.20545 13.0312 7.2837 13.1808 7.3724C13.1541 7.67499 13.2022 7.98281 13.1861 8.28541C13.1968 8.54627 13.1701 8.81234 13.1861 9.07842C13.1968 9.21929 13.1861 9.36015 13.1594 9.4958C12.4704 8.95843 11.4022 8.9793 10.7399 9.54797C10.7132 9.10973 10.7399 8.67148 10.7186 8.23323C10.6972 7.96194 10.7613 7.68543 10.6865 7.41935C10.8468 7.31501 11.0123 7.22631 11.1886 7.14806L11.0871 7.10632C11.0764 7.03849 11.0711 6.96545 11.0604 6.89763C11.1672 6.87676 11.274 6.86111 11.3862 6.84546C11.2473 6.61068 11.1939 6.33939 11.226 6.06809L11.2313 5.91158C11.7173 5.8281 12.2194 5.93766 12.7054 5.85419C12.7215 5.72898 12.7375 5.59855 12.7535 5.47333ZM12.5773 6.85068C12.7535 6.87676 12.9351 6.90285 13.1167 6.91328C13.1274 6.74111 13.1167 6.56895 13.09 6.39678C12.9885 6.37591 12.8817 6.36548 12.7802 6.37069C12.7054 6.53243 12.6467 6.69416 12.5773 6.85068Z" fill="#DBEBF2"/>
<path d="M16.4012 7.21062C16.93 6.61585 17.4641 6.02109 17.9982 5.43155C18.1691 5.63502 18.292 5.87501 18.4148 6.10979C18.6284 6.47499 18.8047 6.85585 18.9489 7.25235L19.0557 7.30453C18.1851 7.89929 17.3199 8.49927 16.4493 9.08359C16.3905 8.95838 16.2944 8.83317 16.3318 8.68709C16.4119 8.2071 16.4333 7.71669 16.3905 7.23149L16.4012 7.21062ZM4.24498 10.1062C4.28237 9.82965 4.28771 9.54271 4.38919 9.28185C5.32388 9.63662 6.25856 9.99139 7.19325 10.3462L7.22529 10.3566C7.20393 10.7583 7.25734 11.1548 7.28938 11.5513L4.2343 11.16L4.20225 11.1548C4.17555 11.0296 4.13816 10.8992 4.18089 10.774C4.25032 10.5601 4.16487 10.3253 4.24498 10.1062ZM15.7603 14.6347C15.8831 14.2956 16.022 13.9617 16.1288 13.6226C17.2558 14.0139 18.3774 14.4208 19.5044 14.8173L19.5525 14.833C19.499 15.026 19.4617 15.2242 19.4456 15.4277C19.4403 15.6051 19.3281 15.7564 19.2854 15.9286C19.2213 16.2155 19.0931 16.4764 19.029 16.7581L19.0183 16.7529C17.9288 16.0538 16.8445 15.339 15.7603 14.6347Z" fill="#004F9F"/>
<path d="M10.5305 5.6715C10.648 5.64542 10.7602 5.59324 10.8617 5.52542C10.8617 5.70802 10.851 5.89063 10.851 6.06801V6.13062C10.8296 6.17757 10.8083 6.22453 10.7869 6.26626L10.5412 6.28713C10.5412 6.17235 10.5359 6.05236 10.5359 5.93758C10.5305 5.84367 10.5305 5.7602 10.5305 5.6715Z" fill="#CFE3F0"/>
<path d="M8.59272 5.79153C8.64079 5.87501 8.68351 5.95848 8.72624 6.04718C8.17611 6.38108 7.98918 7.03845 7.92508 7.62799C7.7969 7.49756 7.67405 7.36191 7.55121 7.22627L7.54053 7.21061C7.62598 6.84019 7.71144 6.44369 8.01054 6.17239C8.17077 5.99501 8.40578 5.9324 8.59272 5.79153ZM15.221 6.04718C15.2637 5.9637 15.3118 5.88023 15.3545 5.79675C15.5414 5.92196 15.7604 5.99501 15.9153 6.16196C16.2144 6.43325 16.3159 6.84019 16.4013 7.21583L16.3907 7.23148C16.2678 7.36713 16.1396 7.50278 16.0168 7.64364C15.9474 7.04366 15.7711 6.38108 15.221 6.04718ZM8.70488 7.89929C8.69419 7.48713 8.76363 7.01758 9.09477 6.72541C9.21228 6.94975 9.33512 7.16888 9.44728 7.39322C9.27103 7.48191 9.10012 7.59147 8.93988 7.70625C8.85977 7.76886 8.77965 7.83146 8.70488 7.89929ZM14.4999 7.39322C14.6174 7.16888 14.7403 6.94454 14.8631 6.72541C15.1782 7.01758 15.2851 7.47669 15.2316 7.88885C15.0554 7.73233 14.8631 7.59669 14.6602 7.48191C14.6067 7.45061 14.5533 7.4193 14.4999 7.39322ZM15.1141 15.4955C15.2637 15.1616 15.3972 14.8225 15.5307 14.4782L15.7551 14.6243C15.6269 14.9947 15.4667 15.3495 15.3064 15.7094C15.2423 15.6416 15.1729 15.5686 15.1141 15.4955ZM9.39921 16.7216C9.69297 17.3372 10.0722 17.932 10.1844 18.6102C10.3179 19.4919 9.85855 20.3006 9.47399 21.0623C9.36717 21.0362 9.25501 21.0101 9.14819 20.984C9.15887 20.9684 9.17489 20.9319 9.18557 20.9162C9.47933 20.3475 9.78377 19.7632 9.87457 19.1267C9.96537 18.365 9.61286 17.6502 9.24432 17.0033C9.24966 16.9981 9.25501 16.9824 9.26035 16.9772C9.30308 16.8885 9.35114 16.8051 9.39921 16.7216Z" fill="#CCA703"/>
<path d="M9.57495 5.78105C9.90076 5.76018 10.2319 5.81236 10.5363 5.93757C10.5417 6.05235 10.5417 6.17234 10.5417 6.28712C10.5417 6.36538 10.5363 6.43842 10.5363 6.51668C10.4295 6.47494 10.328 6.42799 10.2212 6.38625C10.1518 6.36016 10.0824 6.33929 10.0076 6.32364C9.89541 6.30799 9.78325 6.29756 9.67109 6.29234C9.63904 6.12539 9.75655 5.89583 9.57495 5.78105Z" fill="#AFD1E8"/>
<path d="M9.10889 5.87501C9.17833 5.85414 9.24776 5.83849 9.3172 5.82284C9.40265 5.80718 9.48811 5.79153 9.57357 5.7811C9.75516 5.90109 9.63232 6.12543 9.66971 6.2976C9.44538 6.34456 9.23174 6.42803 9.03412 6.54803C9.03412 6.33412 9.03412 6.12022 9.02344 5.90631L9.10889 5.87501ZM14.1722 11.2279C14.4179 11.2592 14.6689 11.2957 14.92 11.3061L15.0001 11.3479H14.7437C14.6903 12.3861 14.4927 13.4087 14.2149 14.4104C14.0601 14.2382 14.1829 14.0086 14.1615 13.8104C14.1188 13.2887 14.2043 12.7617 14.1188 12.2452C14.0921 12.1044 14.1722 11.9687 14.1615 11.8278C14.1402 11.6296 14.1455 11.4261 14.1722 11.2279Z" fill="#C2DBED"/>
<path d="M14.0975 5.85414C14.2417 5.80719 14.3966 5.81241 14.5515 5.80197L14.6316 5.81762C14.701 5.83327 14.7651 5.84893 14.8345 5.8698L14.9253 5.9011C14.92 6.12022 14.92 6.33413 14.92 6.55325C14.6636 6.39673 14.3752 6.28195 14.0654 6.28717C14.0441 6.14631 14.012 5.98457 14.0975 5.85414Z" fill="#BFDAEC"/>
<path d="M19.6943 5.79153C20.1109 6.6002 20.3832 7.47669 20.5915 8.3584C20.928 9.85574 21.0188 11.3948 20.9494 12.9182C20.8426 15.026 20.3886 17.1703 19.2723 18.9963C18.4284 20.3841 17.1519 21.5371 15.6137 22.1527C15.2879 22.2831 14.9567 22.3927 14.6256 22.4866C14.5668 22.1475 14.3585 21.8657 14.1823 21.5736C14.3585 21.5371 14.5348 21.511 14.7164 21.4953C14.7965 21.631 14.8766 21.7666 14.9407 21.9075C14.9728 21.9805 15.0048 22.0536 15.0369 22.1266C15.0369 22.1736 15.0315 22.2205 15.0315 22.2675C16.5697 21.8031 17.921 20.7962 18.8343 19.5076C20.0628 17.8224 20.6289 15.7616 20.8266 13.7217C20.8853 13.3513 20.8533 12.9756 20.912 12.6052C20.9174 12.0783 20.9441 11.5513 20.8746 11.0296C20.8533 10.4401 20.7945 9.85052 20.6984 9.26619C20.5008 8.14449 20.2177 7.02279 19.7156 5.98979C19.6996 5.92718 19.6889 5.85936 19.6943 5.79153ZM3.33459 15.4903C3.36664 15.5321 3.39869 15.5842 3.41471 15.6364C3.83131 17.4781 4.65384 19.2989 6.07456 20.6136C6.7048 21.2345 7.47391 21.7092 8.2911 22.0536C8.48872 22.1266 8.68099 22.2362 8.89998 22.2466C8.90532 22.2101 8.91066 22.1683 8.916 22.1318C8.92134 22.0953 8.94805 22.0223 8.95873 21.9857C9.04953 21.7718 9.18305 21.5736 9.29521 21.3649L9.3326 21.3023C9.52488 21.2919 9.7225 21.2866 9.91478 21.2762C9.72784 21.6884 9.40204 22.0327 9.31124 22.4814C8.30712 22.2153 7.36709 21.7562 6.55525 21.1249C5.1826 20.0606 4.24792 18.5319 3.70847 16.9198C3.55892 16.4555 3.40403 15.9807 3.33459 15.4903Z" fill="#9BC3DF"/>
<path d="M8.73118 6.04193C8.82732 5.98975 8.9288 5.9428 9.03028 5.90106C9.04097 6.11497 9.04631 6.32887 9.04097 6.54278C8.72584 6.79842 8.59232 7.20536 8.55493 7.59144C8.50686 7.67491 8.45879 7.78969 8.34129 7.78447C8.17571 7.79491 7.99946 7.80012 7.90332 7.95664C7.90866 7.84186 7.914 7.7323 7.92469 7.61752C7.99412 7.03841 8.17571 6.37583 8.73118 6.04193Z" fill="#D3E6F0"/>
<path d="M14.9271 5.90106C15.0286 5.9428 15.1247 5.98975 15.2209 6.04193C15.771 6.37583 15.9526 7.03841 16.022 7.63317C16.0274 7.66448 16.0327 7.7323 16.038 7.7636C15.8618 7.94099 15.6054 7.78969 15.4078 7.74274C15.3864 7.30971 15.2689 6.85059 14.9271 6.55321C14.9218 6.33931 14.9218 6.12018 14.9271 5.90106Z" fill="#D3E5F0"/>
<path d="M10.7857 6.26632C10.8071 6.21937 10.8284 6.17241 10.8498 6.13068C10.8712 6.40197 10.8444 6.67327 10.8605 6.93934C10.7537 6.96021 10.6415 6.98108 10.5347 7.00195V6.69935C10.5347 6.63674 10.5347 6.57936 10.5347 6.51675C10.5347 6.43849 10.54 6.36023 10.54 6.28719L10.7857 6.26632Z" fill="#E5F0F6"/>
<path d="M9.04111 6.54806C9.23339 6.42807 9.45237 6.34459 9.6767 6.29764C9.78886 6.29764 9.90102 6.30807 10.0132 6.32894C9.85829 6.32894 9.73545 6.41242 9.61794 6.49589C9.42567 6.5272 9.24407 6.61067 9.09452 6.73067C8.76338 7.02283 8.69394 7.48716 8.70462 7.90454C8.65655 7.95149 8.61383 7.99845 8.56576 8.04019C8.55507 7.8941 8.54973 7.74802 8.55507 7.59672C8.59246 7.20543 8.72599 6.80371 9.04111 6.54806Z" fill="#93BCD9"/>
<path d="M13.9497 6.32368L14.0672 6.29238C14.3717 6.28194 14.6654 6.39672 14.9218 6.55845C15.2689 6.85062 15.3865 7.31495 15.4025 7.74798C15.4025 7.8471 15.3971 7.94101 15.3918 8.04014L15.2262 7.89406C15.2743 7.4819 15.1675 7.028 14.8577 6.73062C14.6975 6.60019 14.5052 6.51671 14.2969 6.49585C14.2168 6.38107 14.0832 6.31846 13.9497 6.32368Z" fill="#94BCD8"/>
<path d="M9.61194 6.49062C9.72944 6.40714 9.85229 6.32367 10.0072 6.32367C10.082 6.33932 10.1514 6.36019 10.2208 6.38628C10.2155 6.42801 10.2101 6.51671 10.2101 6.56366C10.0179 6.50105 9.8149 6.49584 9.61194 6.49062Z" fill="#72A1BD"/>
<path d="M13.7345 6.38634C13.8039 6.36025 13.8734 6.33938 13.9481 6.32373C14.087 6.32373 14.2152 6.38634 14.2953 6.49068C14.1511 6.49068 14.0015 6.50112 13.8573 6.5272L13.7345 6.38634Z" fill="#73A1BD"/>
<path d="M10.2205 6.38629C10.3273 6.42803 10.4288 6.46977 10.5356 6.51672C10.5356 6.57933 10.5356 6.63672 10.5356 6.69932C10.4288 6.65237 10.322 6.6002 10.2098 6.56368C10.2152 6.52194 10.2205 6.43325 10.2205 6.38629Z" fill="#5F8FA8"/>
<path d="M12.5713 6.85589C12.6407 6.69937 12.6995 6.53242 12.7742 6.3759C12.8811 6.37069 12.9825 6.38112 13.084 6.40199C13.1107 6.57416 13.1214 6.74632 13.1107 6.91849C12.9291 6.90284 12.7529 6.88197 12.5713 6.85589Z" fill="#FBFDFE"/>
<path d="M13.4149 6.5115C13.5217 6.46977 13.6286 6.42803 13.7354 6.38629L13.8582 6.52716C13.7033 6.56889 13.5591 6.62628 13.4149 6.68889C13.4149 6.64715 13.4149 6.55324 13.4149 6.5115Z" fill="#6491AA"/>
<path d="M4.07205 6.74628C4.12546 6.7828 4.17887 6.8141 4.23228 6.85062L4.28035 6.88192C4.20557 7.03322 4.14148 7.18974 4.08807 7.35669C3.95454 7.90971 3.77829 8.4523 3.66613 9.01054L3.64476 9.00011L3.46851 8.92707C3.59135 8.18101 3.79431 7.4506 4.07205 6.74628Z" fill="#B7CCD9"/>
<path d="M4.0897 7.35663C4.13777 7.1949 4.20186 7.03838 4.28198 6.88187C4.39948 6.96534 4.51698 7.04882 4.63983 7.12708L4.7146 7.17403C4.51698 7.46619 4.47425 7.82096 4.36743 8.14443C4.22857 8.47311 4.22857 8.83832 4.12709 9.17744C3.97754 9.12005 3.82265 9.06266 3.6731 9.00527C3.77992 8.45225 3.95617 7.90966 4.0897 7.35663ZM18.0032 19.064C18.0672 18.9806 18.142 18.9023 18.2221 18.8293C18.2488 18.8554 18.3022 18.9127 18.329 18.944C18.4037 19.0275 18.4838 19.111 18.5586 19.1945C18.3076 19.5858 17.9871 19.9197 17.6613 20.2536C17.3996 20.4675 17.1593 20.7179 16.8548 20.8796C16.8121 20.8066 16.7747 20.7335 16.732 20.6657C16.6839 20.5822 16.6412 20.4988 16.5931 20.4153C17.1379 20.0397 17.6346 19.5962 18.0032 19.064Z" fill="#EBF4F9"/>
<path d="M10.8612 6.93932C10.9253 6.92367 10.9894 6.91323 11.0535 6.89758C11.0588 6.97062 11.0695 7.03845 11.0802 7.10627C10.6582 7.17409 10.247 7.30453 9.86774 7.49234C9.88376 7.39844 9.86774 7.30453 9.81433 7.22627C10.0493 7.12714 10.295 7.0541 10.5407 6.99671C10.6475 6.97584 10.7544 6.96019 10.8612 6.93932Z" fill="#D0E4F0"/>
<path d="M13.8648 7.12717C14.0838 7.20021 14.2921 7.2889 14.4951 7.39324C14.5485 7.41933 14.6019 7.45063 14.65 7.47672C14.6553 7.60715 14.6607 7.73758 14.6553 7.86801C14.3722 7.6541 14.0678 7.45585 13.7313 7.34107C13.7847 7.27325 13.8221 7.20021 13.8648 7.12717ZM15.4031 7.7428C15.6007 7.78975 15.8571 7.94105 16.0333 7.76367C16.044 7.98801 16.0387 8.21234 16.0387 8.43668L15.7396 8.42103L15.5953 8.24887C15.5313 8.17582 15.4672 8.10278 15.3924 8.04018C15.3977 7.93583 15.4031 7.84192 15.4031 7.7428Z" fill="#C4DCED"/>
<path d="M4.71459 7.17926L4.8855 7.29404L7.49194 9.07832L7.50262 9.08876C7.31034 9.48526 7.27829 9.92873 7.19818 10.3565C6.26349 9.99655 5.32881 9.647 4.39412 9.29223C4.30333 9.26093 4.21253 9.2244 4.12707 9.18788C4.23389 8.84877 4.23389 8.48356 4.36742 8.15488C4.47424 7.82098 4.51697 7.46621 4.71459 7.17926ZM16.748 10.3305C17.7735 9.94438 18.7989 9.55309 19.8298 9.1618C19.9686 9.80873 19.974 10.4713 20.0541 11.1235C19.9473 11.1391 19.8351 11.1496 19.7283 11.1652C18.7669 11.2904 17.8109 11.4104 16.8495 11.5356L16.6572 11.5461C16.6946 11.1496 16.7533 10.7478 16.7213 10.3461L16.748 10.3305ZM4.34605 12.9756C5.36086 12.8712 6.37566 12.7617 7.39046 12.6521L7.54001 12.6365C7.6041 12.9756 7.72694 13.3095 7.82308 13.6382C6.71214 14.0347 5.6012 14.426 4.49026 14.8225L4.22321 14.9164L4.13775 14.9477C4.03627 14.452 3.94547 13.9512 3.93479 13.4451C3.94013 13.3043 3.91343 13.1634 3.85468 13.033L3.84399 13.0225L3.97218 13.0121C4.10037 13.0017 4.22321 12.986 4.34605 12.9756ZM15.3059 15.7146C16.2139 16.6798 17.1272 17.6502 18.0298 18.6206C18.0939 18.6884 18.158 18.7562 18.2221 18.8241C18.142 18.8971 18.0672 18.9754 18.0031 19.0588C17.6346 19.591 17.1379 20.0345 16.6038 20.4049C16.545 20.3005 16.4863 20.1962 16.4275 20.0918C15.8507 19.0588 15.2632 18.031 14.6917 16.9928C14.916 16.5807 15.119 16.1529 15.3059 15.7146Z" fill="#DAE7EF"/>
<path d="M9.44765 7.39843C9.56515 7.33582 9.688 7.28365 9.81084 7.23148C9.86425 7.30973 9.88027 7.40364 9.86425 7.49755C9.55447 7.64363 9.29276 7.86797 9.04173 8.09231C9.02036 7.96188 9.01502 7.82102 8.92957 7.71146C9.09514 7.59668 9.26605 7.49234 9.44765 7.39843Z" fill="#C2DCED"/>
<path d="M16.0216 7.63317C16.1444 7.49752 16.2673 7.36187 16.3954 7.22101C16.4382 7.70621 16.4168 8.19663 16.3367 8.67661C16.2993 8.82269 16.3901 8.9479 16.4542 9.07312L16.4595 9.08877L16.1818 9.2505C16.1337 9.11485 16.059 8.98964 16.0216 8.84878C16.0216 8.70791 16.0429 8.56705 16.0429 8.4314C16.0429 8.20706 16.0483 7.98272 16.0376 7.75838C16.0269 7.73229 16.0216 7.66969 16.0216 7.63317ZM7.22486 10.3618C7.32634 10.3983 7.43316 10.44 7.53998 10.4765C7.53464 10.7739 7.55066 11.0765 7.58805 11.3687C7.59339 11.4469 7.60407 11.52 7.61475 11.5982L7.32099 11.5617L7.29429 11.5565C7.2569 11.16 7.20349 10.7635 7.22486 10.3618ZM15.6263 14.2068C15.7118 13.9825 15.7866 13.7582 15.8613 13.5286L16.1284 13.6121L16.1231 13.6225C16.0162 13.9616 15.8774 14.2955 15.7599 14.6347L15.7545 14.6294L15.5302 14.4834C15.5569 14.3894 15.5943 14.2955 15.6263 14.2068Z" fill="#084584"/>
<path d="M13.1801 7.37244C13.6394 7.65417 14.008 8.05067 14.2537 8.52022C14.6649 9.29759 14.7557 10.1845 14.7611 11.0453C14.5955 11.0193 14.4299 11.0036 14.2644 10.9827C14.1469 10.9671 14.024 10.9462 13.9065 10.9306C13.8905 10.8836 13.8798 10.8367 13.8638 10.7845C13.8104 10.2784 13.554 9.81409 13.1481 9.49584C13.1748 9.36019 13.1855 9.21933 13.1748 9.07846C13.1588 8.81239 13.1855 8.55152 13.1748 8.28545C13.1961 7.98285 13.1481 7.68025 13.1801 7.37244Z" fill="#C9DFEE"/>
<path d="M9.42035 9.21397C9.62331 8.50443 10.0453 7.83663 10.6862 7.42447C10.761 7.69055 10.6969 7.96706 10.7182 8.23835C10.7343 8.6766 10.7075 9.11484 10.7396 9.55309C10.4031 9.84004 10.1788 10.2365 10.104 10.6696C10.088 10.7583 10.072 10.8417 10.0559 10.9304C9.97048 10.9461 9.89036 10.9617 9.80491 10.9722C9.60729 10.9983 9.40433 11.0139 9.20671 11.0452C9.17466 10.4296 9.24944 9.80873 9.42035 9.21397Z" fill="#CAE0EE"/>
<path d="M14.6531 7.48193C14.8614 7.59671 15.0537 7.73236 15.2246 7.88888L15.3902 8.03496C15.465 8.09756 15.529 8.17061 15.5931 8.24365C15.529 8.54103 15.6412 8.85406 15.5611 9.15666C15.3581 8.67667 15.0751 8.21234 14.6585 7.87322C14.6638 7.74279 14.6638 7.61236 14.6531 7.48193ZM14.5303 15.9912C14.9362 14.9843 15.2567 13.9461 15.4863 12.887C15.6145 13.0591 15.5558 13.2782 15.5664 13.4765C15.5718 13.7165 15.497 13.9774 15.6252 14.2017C15.5931 14.2956 15.5611 14.3843 15.5237 14.4782C15.3902 14.8225 15.2567 15.1617 15.1071 15.4956C14.9255 15.9182 14.7386 16.3355 14.5303 16.7477C14.2899 17.2381 14.0122 17.7077 13.8466 18.2294L13.7345 18.2033C13.681 18.2346 13.6276 18.2607 13.5742 18.292C13.8413 17.499 14.2312 16.7633 14.5303 15.9912Z" fill="#B5D5EA"/>
<path d="M8.34129 7.78978C8.45879 7.79499 8.50686 7.68022 8.55493 7.59674C8.54959 7.74282 8.54959 7.89412 8.56561 8.0402C8.48016 8.12368 8.3947 8.21759 8.27719 8.25411C8.15435 8.27498 8.02616 8.28541 7.90332 8.28541C7.90332 8.18107 7.90332 8.07151 7.90866 7.96716C7.99946 7.80543 8.17571 7.80021 8.34129 7.78978Z" fill="#C5DDED"/>
<path d="M8.70448 7.89921C8.77925 7.83139 8.85937 7.76878 8.93949 7.7114C9.02494 7.82096 9.03028 7.96182 9.05165 8.09225C8.69914 8.46789 8.46413 8.93222 8.3039 9.41742C8.1864 9.10961 8.24515 8.77571 8.23447 8.45746C8.12765 8.50963 8.02082 8.56702 7.91934 8.63484C7.90866 8.52006 7.90332 8.40528 7.90332 8.28529C8.02616 8.28529 8.15435 8.27485 8.27719 8.25398C8.3947 8.21746 8.47481 8.11834 8.56561 8.04008C8.60834 7.99312 8.65107 7.94617 8.70448 7.89921Z" fill="#B4D4EA"/>
<path d="M3.46947 8.92715L3.65107 9.0002C3.58698 9.53757 3.4855 10.0749 3.46413 10.6175C3.45345 10.7636 3.43743 10.9045 3.41072 11.0506L3.22913 11.0349C3.26651 10.3254 3.34663 9.62626 3.46947 8.92715ZM20.2671 15.0939L20.4594 15.1617C20.3205 15.8921 20.1175 16.6069 19.8558 17.306L19.7276 17.2225L19.6529 17.1756C19.9253 16.5025 20.1336 15.8034 20.2671 15.0939Z" fill="#0D4B8A"/>
<path d="M20.3103 8.97924C20.3637 8.96359 20.4171 8.95315 20.4705 8.94272C20.6308 9.62617 20.6842 10.3305 20.7216 11.0348L20.5507 11.0505C20.4866 10.6853 20.5133 10.3148 20.4492 9.94964C20.4385 9.62096 20.4118 9.29227 20.3103 8.97924Z" fill="#ADC6D5"/>
<path d="M3.64562 9.00006L3.66698 9.0105C3.81653 9.06788 3.97143 9.12527 4.12097 9.18266C4.21177 9.21918 4.29723 9.25049 4.38803 9.28701C4.28121 9.54787 4.28121 9.83481 4.24382 10.1113C4.1637 10.3304 4.24916 10.5652 4.17973 10.7843C4.137 10.9096 4.17439 11.04 4.20109 11.1652L3.96074 11.1339C3.87529 11.1235 3.78983 11.113 3.70437 11.1026C3.60289 11.0922 3.50141 11.0817 3.40527 11.0713V11.0609C3.43198 10.92 3.448 10.7739 3.45868 10.6278C3.47471 10.0748 3.57619 9.54265 3.64562 9.00006Z" fill="#055EAB"/>
<path d="M19.823 9.16179C19.9832 9.1044 20.1435 9.03658 20.3037 8.97919C20.4105 9.29222 20.4372 9.6209 20.4479 9.94437C20.512 10.3096 20.4853 10.68 20.5494 11.0452V11.0556C20.4159 11.0713 20.2823 11.0869 20.1488 11.1026L20.0473 11.1182C19.9672 10.4713 19.9619 9.80872 19.823 9.16179Z" fill="#EAF3F9"/>
<path d="M7.50229 9.08353L7.764 9.26091C7.62513 9.6522 7.55036 10.0591 7.53967 10.4765C7.43285 10.44 7.33137 10.3983 7.22455 10.3617L7.1925 10.3513C7.27796 9.9235 7.30467 9.48003 7.50229 9.08353ZM16.4058 10.4609C16.5073 10.4191 16.6141 10.3826 16.7156 10.3409C16.7477 10.7426 16.6889 11.1443 16.6515 11.5408L16.8438 11.5304L16.6355 11.5565C16.5447 11.5669 16.4539 11.5826 16.3631 11.5982C16.3578 11.52 16.3578 11.4417 16.3578 11.3582C16.3951 11.0661 16.4112 10.7635 16.4058 10.4609ZM7.53967 12.6312L7.82275 12.5999C7.90286 12.913 7.99366 13.226 8.0898 13.539L7.82275 13.6381C7.72661 13.3042 7.60377 12.9756 7.53967 12.6312ZM14.5365 16.7476C14.7448 16.3354 14.9317 15.9181 15.1133 15.4955C15.1774 15.5685 15.2415 15.6416 15.3056 15.7094V15.7146C15.1133 16.1476 14.9103 16.5754 14.6913 16.9928V16.998C14.6433 16.9146 14.5899 16.8311 14.5365 16.7476Z" fill="#ADB6BE"/>
<path d="M10.7337 9.5479C11.396 8.97923 12.4642 8.95836 13.1532 9.49573C13.5591 9.81398 13.8155 10.2731 13.8689 10.7792C13.7674 10.7374 13.6713 10.6905 13.5858 10.6279C13.4416 9.98093 12.9129 9.4853 12.2506 9.37052C11.5829 9.25052 10.8779 9.59486 10.5468 10.1635C10.4132 10.3827 10.3598 10.6331 10.3224 10.8835C10.2583 10.8887 10.1943 10.8992 10.1302 10.9096C10.1195 10.8313 10.1035 10.7479 10.0928 10.6696C10.1675 10.2314 10.3919 9.83485 10.7337 9.5479Z" fill="#7EB1D3"/>
<path d="M16.1824 9.25057L16.4601 9.08884C16.6417 9.48013 16.6951 9.90794 16.7485 10.3305L16.7165 10.341C16.6097 10.3827 16.5082 10.4192 16.4067 10.461C16.4014 10.0488 16.3212 9.64186 16.1824 9.25057Z" fill="#272830"/>
<path d="M10.5417 10.1635C10.8729 9.59482 11.5779 9.25049 12.2455 9.37048C12.9078 9.48526 13.4366 9.98611 13.5808 10.6278C13.5861 10.7113 13.5915 10.7948 13.5968 10.8783C12.7903 10.8626 11.9838 10.8209 11.172 10.8522C10.8889 10.8678 10.6005 10.873 10.3174 10.8783C10.3548 10.633 10.4135 10.3826 10.5417 10.1635Z" fill="#DAEAF2"/>
<path d="M13.5812 10.6279C13.6666 10.6905 13.7628 10.7426 13.8642 10.7792C13.8749 10.8261 13.8909 10.8783 13.907 10.9252C14.0245 10.9409 14.142 10.9618 14.2648 10.9774C14.3129 11.0452 14.3609 11.1079 14.4197 11.1652C14.5799 11.2383 14.7722 11.2122 14.9218 11.3061C14.6707 11.2957 14.425 11.2592 14.174 11.2278C14.0779 11.2174 13.9764 11.2122 13.8803 11.207C13.8429 11.3948 13.7841 11.5774 13.7147 11.7496L13.4637 11.6452C13.5384 11.4991 13.5812 11.3322 13.5758 11.1705C13.0097 11.1183 12.4435 11.0974 11.872 11.087C11.3646 11.1183 10.8572 11.1079 10.3498 11.1861C10.3765 11.3948 10.446 11.5983 10.5581 11.7757C10.478 11.8174 10.3925 11.8539 10.3124 11.8956C10.1896 11.6817 10.1255 11.4365 10.0614 11.2018C9.71957 11.2226 9.38309 11.3009 9.04126 11.3113C9.21217 11.207 9.42047 11.2226 9.61275 11.1705C9.70889 11.1444 9.74094 11.04 9.79969 10.9722C9.88515 10.9618 9.96526 10.9409 10.0507 10.9305C10.0667 10.8418 10.0828 10.7583 10.0988 10.6696C10.1095 10.7531 10.1202 10.8313 10.1362 10.9096C10.2003 10.8992 10.2644 10.8887 10.3285 10.8835C10.6115 10.8783 10.8999 10.8731 11.183 10.8574C11.9895 10.8209 12.796 10.8679 13.6079 10.8835C13.5972 10.7948 13.5918 10.7113 13.5812 10.6279Z" fill="#99C1DC"/>
<path d="M9.20092 11.0401C9.39854 11.0087 9.6015 10.9931 9.79912 10.967C9.74037 11.0348 9.70832 11.1392 9.61218 11.1653C9.42524 11.2174 9.2116 11.207 9.04069 11.3061L8.9766 11.3374C8.77363 11.3844 8.56533 11.4209 8.36237 11.4522C8.106 11.4783 7.86031 11.5409 7.62531 11.6452C7.62531 11.6348 7.61997 11.6035 7.61997 11.5931C7.60928 11.52 7.5986 11.4418 7.59326 11.3635C7.83361 11.3166 8.07396 11.2592 8.30896 11.2018C8.59738 11.1444 8.89648 11.0922 9.20092 11.0401Z" fill="#7FB1D3"/>
<path d="M14.2639 10.9774C14.4295 10.9983 14.5951 11.0192 14.7606 11.0401C15.0597 11.087 15.3642 11.1444 15.6633 11.207C15.8983 11.2644 16.1279 11.3166 16.363 11.3635C16.363 11.4418 16.3629 11.5253 16.3683 11.6035L16.3256 11.6087C16.0852 11.567 15.8502 11.4679 15.6045 11.4626C15.4016 11.4209 15.1986 11.3896 15.001 11.3427L14.9209 11.3009C14.7713 11.207 14.579 11.2279 14.4188 11.16C14.3601 11.1079 14.3066 11.0453 14.2639 10.9774Z" fill="#85B5D5"/>
<path d="M20.557 11.0504L20.7279 11.0348C20.7546 11.7182 20.76 12.4017 20.7172 13.0852L20.5623 13.0643C20.5517 12.3965 20.5677 11.7287 20.557 11.0609V11.0504Z" fill="#169955"/>
<path d="M3.70593 11.0974C3.79139 11.1078 3.87684 11.1183 3.9623 11.1287C3.96764 11.3426 3.97298 11.5565 3.95696 11.7704C3.93025 12.1878 3.98366 12.6 3.97298 13.0173L3.8448 13.0278L3.71661 13.0017C3.68456 12.3652 3.68457 11.7287 3.70593 11.0974Z" fill="#E63827"/>
<path d="M10.348 11.1861C10.8501 11.1078 11.3628 11.1235 11.8702 11.087C12.4364 11.0974 13.0079 11.1183 13.574 11.1705C13.574 11.3374 13.5366 11.4991 13.4619 11.6452C13.1948 12.1669 12.65 12.5687 12.0358 12.5739C11.4376 12.6104 10.8608 12.2661 10.5617 11.7704C10.4442 11.593 10.3747 11.3948 10.348 11.1861Z" fill="#DBEAF2"/>
<path d="M19.7219 11.1601C19.8287 11.1444 19.9409 11.134 20.0477 11.1183L20.1492 11.1027L20.224 11.1653C20.2347 11.3322 20.272 11.5044 20.2667 11.6714C20.2079 12.12 20.24 12.5739 20.24 13.0226L20.0904 13.007L19.6899 12.9652L19.5457 12.9496L19.7166 12.9131C19.7433 12.6835 19.7486 12.4539 19.7379 12.2244C19.7379 11.8748 19.7807 11.5149 19.7219 11.1601Z" fill="#3BAE6B"/>
<path d="M20.1553 11.1079C20.2888 11.087 20.4223 11.0714 20.5559 11.0609C20.5665 11.7287 20.5505 12.3965 20.5612 13.0696L20.4864 13.0591L20.2461 13.033C20.2407 12.5844 20.214 12.1305 20.2728 11.6818C20.2781 11.5096 20.2407 11.3427 20.23 11.1757L20.1553 11.1079Z" fill="#5BB77A"/>
<path d="M3.96237 11.1287L4.20272 11.16L4.23476 11.1652C4.2134 11.5513 4.24011 11.9374 4.23476 12.3182C4.24011 12.5322 4.29351 12.7565 4.21874 12.9652L4.34693 12.9756C4.22408 12.9913 4.10124 13.0069 3.97305 13.0174C3.98373 12.6 3.93032 12.1878 3.95703 11.7704C3.96771 11.5565 3.96771 11.3426 3.96237 11.1287Z" fill="#E51E1C"/>
<path d="M9.04121 11.3114C9.38303 11.3062 9.71952 11.2279 10.0613 11.2018C10.1254 11.4418 10.1895 11.6766 10.3124 11.8957C10.4673 12.214 10.761 12.4383 11.0601 12.6261C10.9533 12.8766 11.0761 13.1479 11.0067 13.4035C10.964 13.5861 11.0121 13.7739 11.0121 13.9617C11.0281 14.2226 10.9907 14.4835 11.0281 14.7391C11.0441 14.8695 11.215 14.8643 11.2951 14.9374C11.3058 14.9895 11.3112 15.0417 11.3165 15.0939C11.3966 15.1147 11.4767 15.1304 11.5568 15.1513C11.6209 15.313 11.7812 15.3756 11.9414 15.4069C11.9948 15.553 12.139 15.5739 12.2725 15.5478C12.3313 15.266 12.6731 15.1774 12.7372 14.9061C12.9509 14.8382 12.9081 14.5878 12.9081 14.4156C12.8868 14.1026 12.9295 13.7948 12.9028 13.4818C12.8761 13.1948 12.9455 12.9079 12.8707 12.6261C13.2233 12.4175 13.5597 12.1305 13.7093 11.7392C13.7841 11.5618 13.8375 11.3792 13.8749 11.1966C13.971 11.2018 14.0725 11.2071 14.1686 11.2175C14.1419 11.4157 14.1366 11.614 14.1579 11.8123C14.1686 11.9531 14.0885 12.0888 14.1152 12.2296C14.2007 12.7514 14.1152 13.2731 14.1579 13.7948C14.1793 13.993 14.0618 14.2226 14.2113 14.3948C14.1259 14.7235 14.0298 15.0469 13.9229 15.3704L13.8375 15.2973C13.7467 15.5634 13.533 15.7617 13.3621 15.9808C13.015 16.393 12.6571 16.7895 12.2138 17.1025C11.5195 16.9251 10.9159 16.4921 10.4406 15.9808C10.3604 15.8295 10.2323 15.7199 10.0987 15.6156C9.6394 14.233 9.27621 12.8035 9.19075 11.3479C9.11598 11.3427 9.04121 11.3375 8.96643 11.3323L9.04121 11.3114Z" fill="#CDE2EF"/>
<path d="M16.8443 11.5357C17.8057 11.4105 18.7618 11.2905 19.7232 11.1653C19.7766 11.5201 19.7339 11.8749 19.7499 12.2348C19.7606 12.4644 19.7552 12.694 19.7285 12.9235L19.5576 12.96C18.5108 12.8505 17.4692 12.7357 16.4224 12.6261L16.3797 12.6209C16.4331 12.5583 16.4705 12.4801 16.4865 12.4018C16.5506 12.1253 16.604 11.8436 16.6467 11.5618L16.8443 11.5357ZM4.49048 14.8226C5.60142 14.4261 6.71236 14.0348 7.8233 13.6383C7.9408 13.9722 8.06365 14.3061 8.18649 14.6348C7.15567 15.3078 6.1195 15.9808 5.08868 16.6538C4.75219 16.0956 4.67742 15.433 4.49048 14.8226ZM14.6919 16.9981V16.9929C15.2581 18.0312 15.8509 19.0589 16.4277 20.092C16.0913 20.3059 15.7334 20.4832 15.3916 20.6867C15.2046 20.8015 14.9643 20.7858 14.7934 20.9319L14.7667 20.9476C14.4622 20.2641 14.051 19.5807 14.0617 18.8137C14.0723 18.1564 14.4088 17.572 14.6919 16.9981Z" fill="#1CA75E"/>
<path d="M7.61963 11.6504C7.85464 11.5461 8.10032 11.4783 8.35669 11.4574C8.30862 11.4887 8.26056 11.52 8.21249 11.5513C8.28726 12.0209 8.37272 12.4852 8.46352 12.9495C8.37806 13.1582 8.4742 13.3825 8.44749 13.6017C8.42079 13.7999 8.47954 14.0034 8.43147 14.1964L8.33533 14.259C8.24453 14.0243 8.16442 13.7843 8.08964 13.5443C7.98816 13.2312 7.9027 12.9182 7.82259 12.6052C7.74247 12.2922 7.67838 11.9687 7.61963 11.6504Z" fill="#ADD0E8"/>
<path d="M15.5995 11.4678C15.8505 11.4731 16.0802 11.5722 16.3205 11.6139C16.2778 11.9426 16.2083 12.2713 16.1282 12.5948C16.0481 12.9078 15.9573 13.2208 15.8612 13.5338C15.7917 13.7634 15.7116 13.9877 15.6262 14.2121C15.498 13.9877 15.5728 13.7269 15.5674 13.4869C15.5567 13.2886 15.6155 13.0695 15.4873 12.8973C15.5728 12.4382 15.6796 11.9843 15.7223 11.52L15.5995 11.4678Z" fill="#ABCFE7"/>
<path d="M16.3679 11.6035C16.4587 11.5879 16.5495 11.5722 16.6403 11.5618C16.6029 11.8435 16.5442 12.12 16.4801 12.4017C16.4641 12.48 16.4267 12.5583 16.3733 12.6209L16.1276 12.5948C16.213 12.2713 16.2771 11.9426 16.3199 11.6139L16.3679 11.6035ZM7.81689 13.6382L8.08395 13.5391C8.16406 13.7791 8.24418 14.0191 8.32963 14.2538C8.35634 14.3269 8.38305 14.4051 8.41509 14.4782L8.18009 14.6347C8.06258 14.306 7.93974 13.9721 7.81689 13.6382ZM14.5359 16.7477C14.5894 16.8311 14.6374 16.9146 14.6908 16.9981C14.4078 17.572 14.0766 18.1563 14.0659 18.8137C14.0552 19.5806 14.4665 20.2641 14.7709 20.9475C14.6855 21.0049 14.6 21.0623 14.5146 21.1197C14.2849 20.7075 14.0873 20.2797 13.9217 19.8363C13.7188 19.3198 13.6921 18.7511 13.8576 18.2241C14.0179 17.7076 14.2956 17.2381 14.5359 16.7477Z" fill="#118D4E"/>
<path d="M12.032 12.5739C12.6463 12.5687 13.1911 12.167 13.4581 11.6452L13.7091 11.7496C13.5596 12.1357 13.2231 12.4226 12.8706 12.6365C12.2991 12.9182 11.6208 12.9182 11.0546 12.6261C10.7555 12.4435 10.4671 12.2139 10.3069 11.8957C10.387 11.8539 10.4725 11.8122 10.5526 11.7757C10.857 12.2713 11.4338 12.6156 12.032 12.5739Z" fill="#B0D0E6"/>
<path d="M11.0067 13.4035C11.0761 13.1478 10.9533 12.8765 11.0601 12.6261C11.6262 12.913 12.3045 12.9183 12.876 12.6365C12.9562 12.9183 12.8814 13.2052 12.9081 13.4922C12.9348 13.8 12.8974 14.113 12.9134 14.426C12.9081 14.5982 12.9508 14.8486 12.7425 14.9165C12.6731 15.1877 12.3366 15.2817 12.2778 15.5582C12.1443 15.5843 11.9948 15.5634 11.9467 15.4173C11.7865 15.386 11.6262 15.3182 11.5621 15.1617C11.482 15.1408 11.4019 15.1251 11.3218 15.1043C11.3164 15.0521 11.3111 14.9999 11.3004 14.9478C11.2203 14.8747 11.0494 14.8799 11.0334 14.7495C10.996 14.4886 11.0334 14.2278 11.0174 13.9721C11.0174 13.7791 10.9693 13.5913 11.0067 13.4035Z" fill="#DCEBF2"/>
<path d="M8.46507 12.9444C8.72678 14.1131 9.10066 15.2608 9.57067 16.3669C9.88579 17.1442 10.3077 17.8903 10.484 18.7146L10.1795 18.6051C10.0674 17.9268 9.69351 17.3268 9.39441 16.7164C9.1968 16.3147 9.00986 15.9078 8.8336 15.5008C8.6894 15.1617 8.55053 14.8174 8.417 14.473C8.39029 14.4 8.35825 14.3217 8.33154 14.2487L8.43302 14.1861C8.48109 13.9931 8.42234 13.7896 8.44905 13.5913C8.48109 13.3774 8.38495 13.1583 8.46507 12.9444Z" fill="#B7D6EA"/>
<path d="M19.6947 12.9704L20.0953 13.0121C20.0579 13.5599 20.0045 14.1077 19.919 14.6503C19.8976 14.7494 19.8656 14.8433 19.8229 14.932L19.5451 14.8329L19.4971 14.8173C19.5718 14.2016 19.652 13.5912 19.6947 12.9704Z" fill="#E6251F"/>
<path d="M3.22913 13.0904L3.37868 13.0799C3.35731 13.1477 3.35197 13.2208 3.36265 13.2886C3.4214 13.899 3.46947 14.5199 3.60834 15.1199L3.61902 15.1459L3.4855 15.1512C3.35197 14.4729 3.26651 13.779 3.22913 13.0904Z" fill="#A8C3D2"/>
<path d="M3.3844 13.0799L3.4752 13.0695C3.48588 13.6329 3.57668 14.1912 3.65145 14.7494C3.67282 14.8642 3.70486 14.979 3.74759 15.0885L3.61407 15.1198C3.4752 14.5199 3.42713 13.899 3.36838 13.2886C3.3577 13.2208 3.36304 13.1477 3.3844 13.0799Z" fill="#CEDBE5"/>
<path d="M3.46851 13.0695C3.59669 13.0591 3.71954 13.0434 3.84772 13.033C3.90647 13.1634 3.93318 13.3043 3.92784 13.4452C3.93852 13.9512 4.02932 14.4521 4.1308 14.9477C3.99727 14.9947 3.86909 15.0468 3.7409 15.0886C3.69817 14.979 3.66613 14.8642 3.64476 14.7495C3.56999 14.1912 3.48453 13.633 3.46851 13.0695Z" fill="#ECF4F9"/>
<path d="M8.42139 14.4782C8.55491 14.8225 8.69378 15.1669 8.83799 15.506C8.7739 15.5738 8.70981 15.6469 8.64571 15.7147C7.73773 16.6747 6.84044 17.6398 5.9378 18.5946C5.86836 18.6676 5.79893 18.7459 5.7295 18.8189C5.54256 18.5581 5.37165 18.2868 5.2221 18.005C4.98175 17.6711 4.923 17.2485 4.66663 16.9303C4.70401 16.9042 4.7414 16.8833 4.77879 16.8573C4.88027 16.7894 4.98175 16.7268 5.08323 16.659C6.11405 15.986 7.14488 15.313 8.18104 14.6399L8.42139 14.4782Z" fill="#20232B"/>
<path d="M4.21838 14.9164L4.48544 14.8225C4.67237 15.4382 4.74715 16.0955 5.08364 16.6538C4.98216 16.7216 4.88067 16.7894 4.77919 16.852C4.51214 16.2364 4.31986 15.5843 4.21838 14.9164Z" fill="#2FAB65"/>
<path d="M19.546 14.8381L19.8237 14.9373C19.9679 14.9894 20.1175 15.0416 20.2617 15.0938L20.2724 15.099C20.1335 15.8085 19.9306 16.5076 19.6582 17.1807L19.3644 16.9928C19.2522 16.9198 19.1401 16.8415 19.0226 16.7685C19.0867 16.4868 19.2202 16.2207 19.279 15.939C19.3217 15.7668 19.4338 15.6155 19.4392 15.4381C19.4552 15.2294 19.4926 15.0312 19.546 14.8381Z" fill="#065EAB"/>
<path d="M4.13655 14.9478L4.22201 14.9165C4.32349 15.5843 4.51577 16.2364 4.78282 16.8573C4.74543 16.8834 4.70805 16.9042 4.67066 16.9303C4.52645 17.0242 4.3769 17.1234 4.23269 17.2173C3.94428 16.5547 3.80007 15.8451 3.61847 15.1512L3.60779 15.1252L3.74131 15.0939C3.87484 15.0417 4.00303 14.9895 4.13655 14.9478Z" fill="#4FB474"/>
<path d="M3.48645 15.1563L3.61998 15.1511C3.80157 15.845 3.94578 16.5546 4.2342 17.2171C4.18613 17.2484 4.1434 17.2745 4.09533 17.3058C3.82828 16.6067 3.62532 15.892 3.48645 15.1563Z" fill="#159653"/>
<path d="M13.3614 15.9912C13.5323 15.7721 13.7406 15.5738 13.8368 15.3078L13.9222 15.3808C13.6124 16.419 13.2546 17.4416 13.0676 18.5111C13.0463 18.4433 13.0303 18.3755 13.0089 18.3077C12.7686 18.4016 12.587 18.5894 12.3359 18.6572C12.2398 18.6572 12.149 18.699 12.0582 18.7198C11.9353 18.7042 11.8445 18.5998 11.7217 18.5894C11.4012 18.5529 11.1182 18.3807 10.8297 18.2503C10.6428 17.3633 10.3544 16.4973 10.098 15.626C10.2315 15.7304 10.3597 15.8399 10.4398 15.9912C10.9152 16.5077 11.5187 16.9355 12.2131 17.1129C12.651 16.7999 13.0142 16.4034 13.3614 15.9912Z" fill="#BED9EC"/>
<path d="M4.2285 17.2172C4.37271 17.1233 4.52226 17.0242 4.66646 16.9303C4.92283 17.2537 4.98159 17.6711 5.22193 18.005C5.37148 18.2867 5.53706 18.5633 5.72933 18.8189L5.60649 18.9493C5.53171 19.0276 5.45694 19.1058 5.38217 19.1841C5.32341 19.2467 5.25932 19.3145 5.20057 19.3771C4.74658 18.7302 4.37271 18.0363 4.09497 17.3007C4.1377 17.2746 4.18577 17.2485 4.2285 17.2172Z" fill="#2D2E36"/>
<path d="M19.3657 16.9824L19.6594 17.1702L19.7342 17.2172C19.5366 17.6294 19.3603 18.0467 19.136 18.4432C18.9918 18.7302 18.7888 18.9806 18.6393 19.2676L18.5645 19.1893C18.4844 19.1058 18.4096 19.0223 18.3348 18.9389C18.7621 18.3389 19.1146 17.6815 19.3657 16.9824Z" fill="#FFDE5A"/>
<path d="M19.7293 17.2224L19.8575 17.3059C19.5798 18.0415 19.2059 18.7458 18.7466 19.3928L18.6344 19.2728C18.7786 18.9858 18.9816 18.7354 19.1311 18.4485C19.3554 18.0519 19.537 17.6346 19.7293 17.2224Z" fill="#FCBD33"/>
<path d="M13.5748 18.2867C13.6282 18.2554 13.6816 18.2293 13.735 18.198L13.8472 18.2241C13.6816 18.7511 13.703 19.3197 13.9113 19.8362C13.7778 19.8414 13.6389 19.8571 13.5107 19.8884C13.3398 19.3719 13.3986 18.8032 13.5748 18.2867Z" fill="#ACD0E7"/>
<path d="M10.836 18.2502C11.1244 18.3806 11.4075 18.5528 11.7279 18.5893C11.8508 18.605 11.9416 18.7093 12.0644 18.7198C12.1552 18.6989 12.246 18.6572 12.3422 18.6572C12.5932 18.5893 12.7748 18.4015 13.0151 18.3076C13.0365 18.3754 13.0579 18.4433 13.0739 18.5111C12.9991 18.9702 12.9991 19.4397 13.0739 19.8989C13.17 20.3632 13.3089 20.8171 13.4905 21.2605C13.3302 21.2918 13.17 21.3075 13.0098 21.3075L12.935 21.3805C12.9136 21.2918 12.8869 21.2032 12.8602 21.1145C12.8068 20.9423 12.7534 20.7701 12.6947 20.598C12.5825 20.2954 12.4597 19.9719 12.1926 19.7684C12.043 19.6484 11.808 19.6954 11.6852 19.831C11.4876 20.0345 11.3754 20.3006 11.2739 20.5614C11.1885 20.8014 11.119 21.0414 11.0763 21.2918L11.0282 21.3388L11.0389 21.3023C10.852 21.3962 10.6437 21.2449 10.4514 21.3231C10.6384 20.8693 10.7826 20.3997 10.8894 19.9197C10.9855 19.3615 10.9428 18.798 10.836 18.2502Z" fill="#ACD0E8"/>
<path d="M5.73027 18.8241C5.7997 18.7511 5.86913 18.6728 5.93857 18.5998C5.94925 18.8033 6.17891 18.8711 6.24835 19.0485C6.61154 19.4554 6.99076 19.8832 7.48747 20.1389L7.40736 20.2849C7.35929 20.3684 7.31656 20.4467 7.26849 20.5302C7.25781 20.551 7.23644 20.5875 7.22576 20.6032C7.0869 20.5406 6.95337 20.4571 6.84121 20.358C6.58484 20.0867 6.27505 19.8676 6.04539 19.5702C5.89584 19.3719 5.65015 19.2206 5.60742 18.965L5.73027 18.8241Z" fill="#E63225"/>
<path d="M10.1836 18.6103L10.4881 18.7198C10.5575 19.0589 10.5522 19.4137 10.4721 19.7528C10.3492 20.2798 10.1623 20.7963 9.92727 21.2867C9.73499 21.2971 9.53737 21.3023 9.34509 21.3128C9.38782 21.2293 9.43589 21.151 9.47862 21.0676C9.85783 20.3006 10.3118 19.492 10.1836 18.6103Z" fill="#A6CCE6"/>
<path d="M18.5633 19.1893L18.6381 19.2676L18.7502 19.3876C18.2802 20.0606 17.6927 20.6501 17.0144 21.1301L16.9343 20.9997C16.9129 20.9632 16.8915 20.9266 16.8702 20.8849L16.8595 20.8692C17.1586 20.7023 17.3989 20.4571 17.666 20.2432C17.9865 19.9145 18.3123 19.5754 18.5633 19.1893Z" fill="#B6CBD9"/>
<path d="M11.6789 19.8258C11.8017 19.6901 12.0367 19.6432 12.1863 19.7632C12.4533 19.9666 12.5708 20.2901 12.6883 20.5927C12.3999 20.6658 12.1115 20.5718 11.8231 20.5979C11.6361 20.6188 11.4492 20.6031 11.2729 20.5562C11.3744 20.2953 11.4813 20.0293 11.6789 19.8258Z" fill="#D1E4F0"/>
<path d="M13.5109 19.8884C13.6444 19.8571 13.7779 19.8415 13.9114 19.8362C14.077 20.2745 14.28 20.7075 14.5043 21.1197C14.5524 21.2084 14.6004 21.3023 14.6539 21.391C14.6752 21.4275 14.6966 21.4588 14.7126 21.4953C14.531 21.511 14.3548 21.5371 14.1785 21.5736C13.8794 21.0466 13.6764 20.4727 13.5109 19.8884Z" fill="#A4CBE5"/>
<path d="M7.48048 20.1336L7.52855 20.0449C7.7956 20.2119 8.06265 20.384 8.34573 20.5353C8.63415 20.6345 8.89586 20.8014 9.17893 20.911C9.16825 20.9266 9.15223 20.9631 9.14155 20.9788L9.04007 21.1718C8.46323 20.9318 7.85969 20.7023 7.39502 20.2797L7.48048 20.1336Z" fill="#FFD817"/>
<path d="M15.3862 20.6918C15.728 20.4884 16.0859 20.311 16.4224 20.0971C16.4811 20.2014 16.5399 20.3058 16.5986 20.4101C16.6467 20.4936 16.6894 20.5771 16.7375 20.6605C16.2194 20.9997 15.6693 21.2866 15.0978 21.5214C15.0497 21.4379 14.9963 21.3544 14.9536 21.2657C14.8948 21.1562 14.8414 21.0466 14.7933 20.9318C14.9642 20.791 15.2046 20.8014 15.3862 20.6918Z" fill="#3DAF6C"/>
<path d="M7.26208 20.5249C7.31015 20.4414 7.35288 20.3631 7.40095 20.2797C7.86562 20.7023 8.46917 20.9318 9.046 21.1718L8.99793 21.2553C8.97122 21.3075 8.93918 21.3596 8.91247 21.4118C8.66678 21.2657 8.38371 21.1979 8.13802 21.057C7.83358 20.8953 7.52914 20.7336 7.26208 20.5249Z" fill="#FFDB34"/>
<path d="M7.21907 20.5979C7.22975 20.577 7.25112 20.5405 7.2618 20.5248C7.52885 20.7387 7.83329 20.8953 8.13239 21.0622C8.38342 21.1979 8.6665 21.2709 8.90685 21.417C8.83207 21.5578 8.75195 21.6935 8.6665 21.8291C8.1858 21.6726 7.75318 21.417 7.32055 21.1666C7.20839 21.104 7.11225 21.0205 7.03748 20.9213C7.10157 20.8118 7.16032 20.7022 7.21907 20.5979Z" fill="#FFDE57"/>
<path d="M11.0695 21.2814C11.1175 21.031 11.1816 20.791 11.2671 20.551C11.4487 20.5979 11.6356 20.6136 11.8172 20.5927C12.1056 20.5666 12.3994 20.6553 12.6825 20.5875C12.7465 20.7545 12.8 20.9319 12.848 21.104C12.8267 21.1718 12.8373 21.3023 12.7252 21.271C12.4795 21.2501 12.2391 21.2866 11.9935 21.2658C11.6837 21.2762 11.3739 21.2292 11.0695 21.2814Z" fill="#C7DEED"/>
<path d="M15.1024 21.5214C15.6739 21.2866 16.224 20.9996 16.7421 20.6605C16.7849 20.7336 16.8222 20.8014 16.865 20.8744L16.8756 20.8901C16.3415 21.2083 15.8074 21.537 15.2199 21.7457C15.1772 21.6727 15.1398 21.5944 15.1024 21.5214Z" fill="#5CB77B"/>
<path d="M7.03242 20.911L7.0431 20.9214C7.11788 21.0206 7.21401 21.104 7.32618 21.1667C7.7588 21.4171 8.19143 21.6727 8.67212 21.8292C8.65076 21.8918 8.62405 21.9597 8.60269 22.0223C8.00983 21.7979 7.44902 21.5006 6.93628 21.1301C6.96833 21.0571 7.00037 20.9841 7.03242 20.911Z" fill="#FCBB2F"/>
<path d="M16.8709 20.8901C16.8923 20.9267 16.9137 20.9632 16.935 21.0049C16.4116 21.344 15.8668 21.6518 15.274 21.8658L15.2473 21.8188L15.2152 21.7458C15.8027 21.5371 16.3368 21.2084 16.8709 20.8901Z" fill="#3AA868"/>
<path d="M9.14235 20.9788C9.24917 21.0049 9.36133 21.031 9.46815 21.057C9.42542 21.1405 9.38269 21.2188 9.33463 21.3023L9.29724 21.3649C9.2011 21.3179 9.09428 21.2814 8.9928 21.2501L9.04087 21.1666L9.14235 20.9788Z" fill="#CCAA24"/>
<path d="M14.7661 20.9527L14.7928 20.937C14.8462 21.0518 14.8943 21.1614 14.953 21.2709C14.8569 21.3179 14.7554 21.3596 14.6539 21.3962C14.6059 21.3075 14.5525 21.2188 14.5044 21.1249C14.5952 21.0623 14.6806 21.0049 14.7661 20.9527Z" fill="#2D9059"/>
<path d="M15.2786 21.8658C15.8661 21.6519 16.4109 21.3388 16.9396 21.0049L17.0197 21.1354C16.5177 21.4849 15.9782 21.7771 15.4014 22.0014C15.3533 21.9545 15.316 21.9075 15.2786 21.8658Z" fill="#139352"/>
<path d="M12.8548 21.104C12.8815 21.1927 12.9029 21.2814 12.9296 21.3701C12.983 21.5788 13.0151 21.7875 13.0578 21.9962C13.0791 22.1266 13.0898 22.257 13.0952 22.3875C12.5878 22.4709 12.0697 22.4449 11.5569 22.4449C11.3273 22.4344 11.0976 22.4136 10.8733 22.3822C10.8893 22.0275 10.9427 21.6727 11.0282 21.3284L11.0763 21.2814C11.386 21.224 11.6958 21.2762 12.0056 21.2658C12.2513 21.2919 12.4916 21.2553 12.7373 21.271C12.8441 21.3023 12.8335 21.1719 12.8548 21.104Z" fill="#B4D0E4"/>
<path d="M8.99804 21.2605C9.10487 21.2918 9.20635 21.3283 9.30249 21.3753C9.19032 21.584 9.0568 21.777 8.966 21.9961C8.8752 21.9283 8.77906 21.8761 8.67224 21.8344C8.75236 21.6987 8.83247 21.5579 8.91259 21.4222C8.93929 21.3648 8.966 21.3127 8.99804 21.2605Z" fill="#CBAE45"/>
<path d="M10.4408 21.3179C10.6384 21.2396 10.8413 21.3909 11.0283 21.297L11.0176 21.3336C10.9321 21.6779 10.8841 22.0327 10.8627 22.3874C11.087 22.4187 11.3167 22.4396 11.5464 22.45C12.0591 22.4448 12.5772 22.4709 13.0846 22.3926C13.0792 22.2622 13.0686 22.1318 13.0472 22.0014C13.3089 22.0014 13.576 22.0014 13.8377 22.0014C13.9552 22.1944 14.0299 22.4083 14.0673 22.6274C12.6787 22.8831 11.2579 22.8831 9.86926 22.6274C9.92801 22.1422 10.2859 21.7718 10.4408 21.3179Z" fill="#96BEDC"/>
<path d="M13.0046 21.2971C13.1648 21.2971 13.325 21.2815 13.4853 21.2502C13.5868 21.5058 13.7096 21.7562 13.8485 21.9962C13.5814 21.9962 13.3197 21.9962 13.058 21.9962C13.0206 21.7875 12.9832 21.5736 12.9298 21.3701L13.0046 21.2971Z" fill="#9DC5E0"/>
<path d="M14.9533 21.2658C15.0013 21.3493 15.0494 21.4327 15.0975 21.5214C15.1402 21.5945 15.1776 21.6675 15.2096 21.7405L15.2417 21.8136L14.9373 21.9127C14.8678 21.7718 14.7877 21.6362 14.7129 21.5006C14.6916 21.464 14.6702 21.4327 14.6542 21.3962C14.7557 21.3597 14.8571 21.3179 14.9533 21.2658Z" fill="#429164"/>
<path d="M8.671 21.8292C8.77782 21.8657 8.8793 21.9231 8.96476 21.991C8.95407 22.0275 8.93271 22.1005 8.92203 22.137C8.8152 22.1005 8.70838 22.064 8.60156 22.0275C8.62293 21.9544 8.64429 21.8918 8.671 21.8292Z" fill="#CE922E"/>
<path d="M14.9431 21.9127L15.2476 21.8188L15.2743 21.8657C15.3116 21.9127 15.3544 21.9544 15.3971 22.0014C15.2796 22.0483 15.1621 22.0901 15.0393 22.1318C15.0126 22.0588 14.9805 21.9857 14.9431 21.9127Z" fill="#15844F"/>
</g>
<defs>
<clipPath id="clip0_4_3093">
<rect width="17.9994" height="21.5992" fill="white" transform="translate(3.00061 1.20038)"/>
</clipPath>
</defs>
</svg>
