<svg width="24" height="24" viewBox="0 0 24 24" fill="none" xmlns="http://www.w3.org/2000/svg">
<g clip-path="url(#clip0_4_3238)">
<path d="M12.1017 23.9961C10.8547 24.0126 9.68999 23.8554 8.56246 23.4744C7.88237 23.2445 7.24697 22.9192 6.64676 22.5209C6.11666 22.169 5.64185 21.7565 5.21006 21.2942C4.7428 20.7937 4.34759 20.2382 4.00126 19.6475C3.56695 18.9068 3.2371 18.1208 2.97903 17.3039C2.72264 16.4928 2.53691 15.6653 2.42463 14.8221C2.3319 14.1235 2.26152 13.4236 2.24672 12.717C2.23918 12.3598 2.22214 12.0017 2.23303 11.6451C2.26012 10.7787 2.31151 9.91481 2.44362 9.05542C2.58802 8.1167 2.80028 7.19753 3.11142 6.30015C3.453 5.31479 3.91887 4.39255 4.52438 3.54432C5.0651 2.78687 5.71363 2.12857 6.47472 1.5926C7.19614 1.08455 7.98292 0.700241 8.83282 0.447756C9.49811 0.250293 10.1737 0.123213 10.865 0.0570197C11.4638 -0.000515499 12.0635 -0.0147597 12.6609 0.015963C13.4208 0.0550646 14.1727 0.169018 14.9098 0.374301C15.6075 0.568692 16.2739 0.834862 16.8989 1.19655C17.3371 1.45015 17.7446 1.75124 18.1315 2.07941C18.6303 2.50255 19.0629 2.98741 19.4453 3.51416C19.8078 4.01382 20.1175 4.54728 20.3871 5.10531C20.7155 5.78568 20.9677 6.49203 21.1683 7.2182C21.3462 7.86282 21.4783 8.51749 21.5691 9.17998C21.6674 9.89694 21.7235 10.617 21.7461 11.3412C21.7579 11.7174 21.7743 12.0939 21.7593 12.4687C21.735 13.0751 21.7042 13.6809 21.6344 14.2853C21.5389 15.1117 21.3959 15.9275 21.1817 16.7311C20.98 17.4866 20.7205 18.2225 20.3767 18.9247C19.9815 19.7321 19.5009 20.4845 18.9009 21.1602C18.1239 22.0349 17.2042 22.71 16.1378 23.1892C15.279 23.5755 14.3785 23.8034 13.446 23.916C12.9801 23.9721 12.5134 24.0129 12.1017 23.9961ZM16.6174 7.11514C16.6015 7.0199 16.5939 6.93778 16.5727 6.85958C16.5456 6.75959 16.571 6.69061 16.6439 6.61324C16.8283 6.41745 16.9978 6.20826 17.1751 6.00605C17.8388 5.24915 18.5026 4.49226 19.1685 3.73732C19.2199 3.67922 19.2378 3.63258 19.183 3.56918C19.1286 3.50606 19.0783 3.43931 19.0266 3.37395C18.616 2.85362 18.1418 2.39809 17.6243 1.98529C17.5508 1.92663 17.5192 1.94004 17.4793 2.01713C17.1835 2.58578 16.8841 3.15247 16.5872 3.72056C16.3314 4.20989 16.0775 4.70033 15.8222 5.18966C15.808 5.21731 15.7937 5.27122 15.7655 5.25949C15.6859 5.22597 15.6077 5.18296 15.5399 5.12989C15.4854 5.08716 15.5382 5.03493 15.5597 4.99332C15.8382 4.4526 16.1177 3.91244 16.399 3.37311C16.6652 2.86256 16.9322 2.35228 17.2028 1.84396C17.2453 1.76436 17.248 1.71716 17.1651 1.66102C16.5286 1.23035 15.8359 0.919769 15.1064 0.686276C15.0209 0.658905 14.976 0.691303 14.9561 0.777606C14.9017 1.01277 14.845 1.24738 14.7855 1.48116C14.7701 1.5412 14.7852 1.63672 14.6726 1.61717C14.5576 1.59706 14.45 1.48423 14.4688 1.40407C14.5098 1.22783 14.5537 1.05216 14.597 0.876198C14.6483 0.667098 14.5711 0.539552 14.3651 0.493561C13.7063 0.348047 13.0396 0.26733 12.3648 0.257276C12.1637 0.254203 12.1637 0.2556 12.1634 0.449991C12.1634 0.58936 12.1581 0.729288 12.1648 0.868378C12.1715 1.00691 12.0777 0.983169 11.9964 0.983728C11.9135 0.984565 11.8235 1.00328 11.8297 0.866143C11.8369 0.708341 11.8263 0.549979 11.8328 0.392176C11.8369 0.289954 11.802 0.254203 11.6976 0.254483C11.4046 0.255321 11.1141 0.284368 10.8228 0.308666C10.3589 0.347489 9.90449 0.434909 9.45035 0.530149C9.33528 0.554169 9.32159 0.602487 9.34952 0.702755C9.40343 0.894911 9.44756 1.08986 9.49671 1.28341C9.55369 1.50741 9.55341 1.50545 9.34729 1.60991C9.27886 1.64454 9.24758 1.65041 9.22747 1.55685C9.17245 1.30296 9.09815 1.05299 9.04341 0.799112C9.018 0.681528 8.98364 0.649688 8.85936 0.691583C8.16558 0.925913 7.49666 1.20968 6.88808 1.62332C6.73279 1.72889 6.72804 1.72526 6.81518 1.89256C7.01683 2.27995 7.21597 2.66873 7.42433 3.05248C7.75446 3.66051 8.048 4.28809 8.39321 4.8883C8.51051 5.09219 8.50102 5.10001 8.31752 5.22346C8.23401 5.27988 8.20385 5.25641 8.16363 5.17849C7.83517 4.54365 7.50365 3.91076 7.17268 3.27732C6.95539 2.86144 6.73809 2.44585 6.52052 2.03025C6.49008 1.97216 6.47192 1.90569 6.38143 1.97719C5.79128 2.44166 5.26061 2.96311 4.81457 3.56946C4.77128 3.62839 4.76318 3.66917 4.81541 3.72615C4.95003 3.87334 5.07935 4.02555 5.21118 4.17498C5.50584 4.50902 5.80161 4.84194 6.09515 5.17682C6.46522 5.59883 6.82803 6.02755 7.20564 6.44287C7.35925 6.61156 7.4908 6.76993 7.39388 7.01375C7.38271 7.04168 7.40589 7.08609 7.36595 7.09894C7.32573 7.11179 7.31568 7.06738 7.29557 7.04475C6.98136 6.69061 6.66017 6.3426 6.35546 5.98063C6.08621 5.66112 5.80468 5.35305 5.52958 5.03884C5.23631 4.70369 4.94221 4.36909 4.65202 4.03142C4.58164 3.9493 4.54366 3.94791 4.48165 4.04399C4.13141 4.58889 3.82949 5.15866 3.58427 5.75747C3.48903 5.99041 3.43596 5.96611 3.69487 6.14653C3.74068 6.17837 3.78481 6.21245 3.83033 6.24429C4.4769 6.69703 5.12376 7.14949 5.77033 7.60195C6.21553 7.91365 6.65905 8.22758 7.10621 8.53648C7.31065 8.67781 7.31512 8.68618 7.20536 8.89957C7.17631 8.95626 7.15034 8.96827 7.10006 8.9328C7.03191 8.8842 6.96377 8.83589 6.89534 8.78785C6.27195 8.35103 5.64884 7.91365 5.02489 7.47739C4.51154 7.11849 3.99568 6.76294 3.48428 6.40125C3.38374 6.33003 3.35134 6.35405 3.31531 6.4613C3.11896 7.04755 2.95669 7.64217 2.83017 8.24741C2.80587 8.36443 2.82291 8.4242 2.94189 8.46777C3.29939 8.59876 3.6527 8.74093 4.00769 8.8789C4.93886 9.24059 5.8706 9.60144 6.80121 9.96425C6.99756 10.0408 6.99253 10.0464 6.95204 10.2645C6.93528 10.355 6.90344 10.3555 6.8311 10.3268C6.38646 10.1503 5.94098 9.97598 5.49522 9.80281C4.63806 9.47017 3.78034 9.13948 2.92345 8.80684C2.73325 8.73311 2.73409 8.73087 2.70616 8.92889C2.70476 8.93811 2.70504 8.94761 2.70365 8.95654C2.63019 9.51709 2.54473 10.0762 2.52238 10.6424C2.51959 10.7153 2.52964 10.7413 2.60198 10.751C2.91452 10.7929 3.22593 10.8421 3.53847 10.8837C4.07136 10.9544 4.6051 11.0203 5.13828 11.0898C5.68068 11.1605 6.22279 11.2317 6.76491 11.3046C7.07325 11.3459 7.00929 11.3443 7.03694 11.5708C7.04867 11.668 7.01097 11.6694 6.93779 11.6596C6.44623 11.5945 5.95411 11.5336 5.46254 11.4677C4.52075 11.3417 3.57896 11.2141 2.63745 11.0859C2.55338 11.0745 2.50199 11.0912 2.50004 11.1881C2.49892 11.2387 2.48161 11.2892 2.48244 11.3395C2.48915 11.8643 2.45535 12.3894 2.50507 12.9136C2.51093 12.9765 2.50367 13.0368 2.60003 13.0259C3.02819 12.9773 3.45691 12.9323 3.88535 12.8849C4.26771 12.8424 4.64979 12.7977 5.03215 12.7553C5.49271 12.7039 5.95355 12.653 6.41439 12.603C6.64928 12.5776 6.88445 12.5533 7.11989 12.5318C7.27407 12.5179 7.24669 12.6519 7.27351 12.7349C7.30451 12.8307 7.22882 12.8393 7.16179 12.8472C6.97298 12.8689 6.78446 12.891 6.59565 12.9122C6.24094 12.9524 5.88624 12.9938 5.53125 13.0323C5.06119 13.0832 4.59086 13.1306 4.1208 13.1818C3.64627 13.2331 3.17231 13.2907 2.6975 13.3379C2.58522 13.349 2.52769 13.3773 2.53383 13.5035C2.56232 14.0833 2.65281 14.6553 2.7366 15.2284C2.74861 15.3111 2.79554 15.336 2.87681 15.3041C3.02819 15.2449 3.18124 15.1893 3.33402 15.1338C4.12443 14.8461 4.91484 14.5581 5.70553 14.2713C6.26469 14.0685 6.82412 13.8663 7.38411 13.6658C7.42544 13.651 7.48186 13.6085 7.51286 13.6468C7.56509 13.7113 7.58548 13.7965 7.588 13.8811C7.59023 13.9588 7.52096 13.9607 7.47153 13.9789C6.77775 14.2325 6.0837 14.4852 5.38937 14.7377C4.57298 15.0349 3.7566 15.3329 2.93909 15.627C2.84748 15.66 2.81983 15.6985 2.84106 15.7993C2.96535 16.3956 3.13041 16.9805 3.32285 17.5578C3.37452 17.7128 3.38066 17.715 3.52115 17.6215C3.88088 17.3818 4.23894 17.1397 4.59868 16.9003C5.07013 16.5867 5.54354 16.2761 6.01443 15.9616C6.60934 15.5644 7.20256 15.1653 7.79635 14.7665C7.82931 14.7444 7.85724 14.7282 7.89355 14.7648C8.00052 14.8715 7.98767 15.0285 7.86143 15.1134C7.47237 15.3748 7.0833 15.6362 6.69396 15.8971C5.66308 16.5872 4.63275 17.2782 3.59963 17.965C3.52618 18.0139 3.50942 18.053 3.5407 18.1326C3.7957 18.7783 4.11075 19.3925 4.49618 19.9706C4.53807 20.0335 4.55986 20.031 4.60678 19.9754C4.72073 19.841 4.83943 19.71 4.96093 19.5821C5.47288 19.0439 5.965 18.4878 6.4655 17.9396C7.06962 17.2779 7.67933 16.6213 8.28624 15.9622C8.30495 15.942 8.31808 15.9136 8.35271 15.9272C8.42896 15.9574 8.48426 16.2493 8.42198 16.3116C8.17927 16.5551 7.95192 16.8126 7.7215 17.0676C7.33858 17.491 6.95343 17.9125 6.56688 18.3325C5.98511 18.9643 5.40249 19.5953 4.81625 20.2231C4.75257 20.2913 4.74698 20.3365 4.80089 20.4105C5.22738 20.9968 5.73765 21.5012 6.29457 21.9617C6.3549 22.0114 6.39707 22.0232 6.44427 21.9366C6.78418 21.3126 7.13023 20.692 7.47209 20.0689C7.87623 19.3322 8.27758 18.5937 8.68088 17.8561C8.76328 17.7052 8.84707 17.5553 8.93253 17.4064C8.94733 17.3804 8.95348 17.3218 9.00906 17.3631C9.09704 17.4287 9.15346 17.6826 9.09983 17.7821C9.00096 17.9658 8.90041 18.1485 8.79959 18.3312C8.47393 18.9207 8.14659 19.5089 7.82233 20.0994C7.46706 20.7465 7.11654 21.3964 6.7596 22.0427C6.6543 22.2332 6.6476 22.2301 6.82216 22.3435C7.37377 22.7022 7.9589 22.9929 8.5795 23.2127C8.65379 23.239 8.69038 23.2331 8.71217 23.1535C8.74456 23.0362 8.8035 22.9303 8.86327 22.825C9.22021 22.1941 9.56067 21.5551 9.82991 20.8806C10.112 20.1734 10.1751 19.4581 9.90197 18.7339C9.7492 18.3292 9.55062 17.9454 9.35846 17.5581C8.86103 16.5548 8.41695 15.5276 8.04129 14.4721C7.72485 13.5831 7.45589 12.6815 7.29864 11.749C7.27937 11.6353 7.31205 11.6051 7.41176 11.578C7.84215 11.4616 8.27451 11.3532 8.71496 11.2825C9.09033 11.2222 9.46683 11.1694 9.84276 11.1133C9.91426 11.1027 9.95364 11.1225 9.9623 11.2054C9.97626 11.3392 10.0193 11.4655 10.067 11.5925C10.3583 12.3668 11.0848 12.8759 11.873 12.9192C12.9332 12.9776 13.8403 12.257 14.0319 11.2163C14.0495 11.1211 14.0867 11.1032 14.1702 11.115C14.588 11.1733 15.0067 11.2269 15.4214 11.3054C15.796 11.3761 16.1663 11.4638 16.5347 11.561C16.635 11.5875 16.7272 11.6029 16.6964 11.7688C16.5727 12.4408 16.4026 13.0991 16.1957 13.7498C15.8007 14.9919 15.2994 16.1903 14.7316 17.362C14.5634 17.7089 14.3917 18.0544 14.2266 18.4027C13.8532 19.1911 13.8208 19.9919 14.1386 20.8077C14.3297 21.2981 14.5629 21.7679 14.8031 22.2349C14.9642 22.548 15.1692 22.8387 15.2846 23.1747C15.3044 23.2325 15.3321 23.2437 15.3888 23.223C16.0451 22.982 16.6741 22.6873 17.25 22.286C17.3212 22.2363 17.3232 22.203 17.2807 22.1313C17.1838 21.9676 17.1006 21.7958 17.0098 21.6283C16.7043 21.0649 16.3998 20.501 16.0915 19.9391C15.7119 19.2475 15.336 18.5535 14.9419 17.87C14.8416 17.6963 14.8626 17.5659 14.955 17.4128C15.0042 17.3313 15.0282 17.3338 15.0706 17.4137C15.1902 17.6393 15.3125 17.8639 15.4357 18.0876C15.8856 18.9054 16.3364 19.7223 16.7866 20.5398C17.0419 21.0037 17.2986 21.4668 17.55 21.9327C17.5941 22.0145 17.6357 22.0184 17.6988 21.964C17.755 21.9154 17.8097 21.8651 17.867 21.8179C18.3747 21.399 18.8129 20.9141 19.2121 20.3929C19.2523 20.3407 19.2498 20.2985 19.2017 20.2471C18.8434 19.8639 18.4876 19.4785 18.1315 19.0934C17.9111 18.8546 17.6913 18.6152 17.4718 18.3756C16.8662 17.7153 16.2621 17.0536 15.6547 16.3951C15.4991 16.2266 15.4888 16.1616 15.6083 15.9697C15.6438 15.913 15.6706 15.911 15.7133 15.9577C16.0205 16.2931 16.3289 16.6277 16.6355 16.9634C17.1925 17.5731 17.748 18.1848 18.3057 18.7939C18.6599 19.1808 19.0216 19.5612 19.3701 19.953C19.4511 20.0441 19.4774 20.0162 19.526 19.9388C19.8807 19.3757 20.1865 18.7881 20.4412 18.1728C20.4896 18.056 20.458 17.9915 20.3642 17.9304C19.9955 17.6899 19.6263 17.4497 19.2601 17.2056C18.8392 16.9249 18.4228 16.6378 18.0019 16.3568C17.3762 15.9395 16.7484 15.5256 16.1222 15.1095C16.0068 15.0329 15.989 14.8947 16.089 14.7777C16.1716 14.681 16.2311 14.7894 16.2856 14.8254C16.9285 15.2511 17.5684 15.6812 18.2088 16.1107C18.7099 16.447 19.2095 16.7852 19.7112 17.1204C19.9734 17.2958 20.2407 17.4642 20.5019 17.6416C20.5977 17.7066 20.6376 17.6818 20.6672 17.5796C20.7057 17.4458 20.7546 17.3153 20.7971 17.1827C20.9387 16.74 21.051 16.29 21.1442 15.8351C21.1624 15.746 21.1741 15.6669 21.0537 15.6242C20.5505 15.4452 20.0505 15.2566 19.5486 15.0743C18.5356 14.7064 17.5226 14.3389 16.5079 13.9761C16.3493 13.9194 16.4233 13.8236 16.4409 13.7292C16.4641 13.6052 16.5367 13.6373 16.6152 13.6658C17.5276 13.9973 18.4406 14.3269 19.3528 14.6587C19.9206 14.8651 20.4871 15.0751 21.0549 15.2815C21.2278 15.3443 21.2417 15.3343 21.2671 15.1558C21.3118 14.8441 21.3649 14.533 21.3976 14.2199C21.4238 13.9666 21.4724 13.7146 21.4624 13.458C21.4598 13.3985 21.4593 13.3463 21.3791 13.3412C21.2867 13.3354 21.1945 13.3231 21.1023 13.3136C20.6275 13.2647 20.1525 13.2178 19.6779 13.1661C19.033 13.096 18.3881 13.0223 17.7435 12.9497C17.4349 12.9147 17.1266 12.8793 16.8185 12.8427C16.7791 12.8379 16.7333 12.8435 16.7188 12.7871C16.6855 12.6589 16.7875 12.5215 16.9218 12.5341C17.3003 12.569 17.6784 12.6097 18.0561 12.6516C18.5996 12.712 19.1425 12.7765 19.686 12.8374C20.2432 12.8999 20.8013 12.9583 21.3579 13.0245C21.4593 13.0365 21.4853 13.0086 21.4922 12.9106C21.5288 12.4 21.514 11.8892 21.514 11.3783C21.514 11.3186 21.4981 11.2585 21.4978 11.1987C21.4976 11.0834 21.4328 11.0767 21.3406 11.0895C20.877 11.1541 20.4128 11.2161 19.9488 11.2772C19.4296 11.3454 18.9099 11.4104 18.3906 11.4792C17.9404 11.5386 17.4905 11.6015 17.0405 11.6621C17.009 11.6663 16.9735 11.673 16.9534 11.6378C16.9081 11.559 17.0056 11.344 17.0953 11.3292C17.214 11.3093 17.3335 11.2931 17.453 11.2772C17.9907 11.2066 18.5286 11.137 19.066 11.0661C19.5165 11.0066 19.9664 10.9454 20.417 10.8859C20.7203 10.8457 21.0236 10.8063 21.3272 10.7675C21.4241 10.7552 21.4777 10.7153 21.4646 10.6047C21.4484 10.4667 21.4442 10.3273 21.4342 10.1888C21.4018 9.745 21.3439 9.30427 21.2772 8.86438C21.2607 8.75629 21.2227 8.74903 21.1336 8.78506C20.8535 8.89761 20.5711 9.00486 20.2896 9.11407C19.5793 9.38973 18.8691 9.66512 18.1588 9.94079C17.8254 10.0701 17.4922 10.2 17.1584 10.329C17.1254 10.3419 17.0905 10.3684 17.0584 10.3265C16.9777 10.2209 17.0257 10.0249 17.1467 9.97793C17.8524 9.70422 18.5591 9.43247 19.2649 9.15876C19.8706 8.92387 20.4759 8.68674 21.082 8.45213C21.159 8.42225 21.1878 8.38119 21.1708 8.29321C21.0496 7.66759 20.8811 7.05509 20.6778 6.45153C20.6401 6.33925 20.5924 6.33841 20.5111 6.39706C20.3455 6.51632 20.1809 6.63698 20.0134 6.75373C19.4196 7.16792 18.8241 7.57989 18.2306 7.99409C17.789 8.30215 17.3492 8.61245 16.909 8.92219C16.8822 8.9409 16.8573 8.96744 16.8218 8.94956C16.738 8.90711 16.7149 8.6725 16.7897 8.61496C16.8595 8.56134 16.9319 8.51134 17.0039 8.46079C17.6533 8.00414 18.3027 7.54777 18.9523 7.09168C19.4235 6.76099 19.8955 6.4317 20.3667 6.10101C20.4438 6.04683 20.5147 5.99767 20.4633 5.8759C20.2013 5.25446 19.9089 4.6495 19.5321 4.08784C19.4341 3.94148 19.4182 3.94428 19.2986 4.08197C18.9157 4.52354 18.5281 4.96092 18.1435 5.40109C17.8474 5.73988 17.56 6.08649 17.2547 6.41689C17.0453 6.64368 16.8674 6.89952 16.6185 7.1157L16.6174 7.11514Z" fill="white" fill-opacity="0.9"/>
<path d="M7.19533 10.4851C7.16376 9.95276 7.26487 9.4408 7.43133 8.93919C7.43412 8.93025 7.4358 8.92047 7.44083 8.91321C7.63047 8.63783 7.60589 8.33004 7.58885 8.01806C7.5626 7.5346 7.59025 7.05114 7.7042 6.57996C7.90418 5.75269 8.40021 5.19689 9.34619 5.10583C9.68693 5.07316 10.012 5.09941 10.326 5.23655C10.3997 5.26866 10.441 5.26168 10.4346 5.16784C10.4307 5.10779 10.4402 5.04634 10.4332 4.98685C10.3846 4.56986 10.6153 4.32939 10.9622 4.18108C11.6202 3.89983 12.2889 3.90346 12.9583 4.14561C13.0949 4.19505 13.2175 4.27381 13.3276 4.36709C13.4795 4.49585 13.5731 4.65589 13.5588 4.86536C13.5532 4.94859 13.5636 5.03322 13.5566 5.11617C13.5468 5.23208 13.5653 5.27257 13.6962 5.22202C14.1498 5.04634 14.6101 5.05277 15.0746 5.19074C15.6935 5.3748 16.0583 5.79877 16.2337 6.40093C16.4188 7.03801 16.4473 7.68933 16.3789 8.3454C16.3593 8.53225 16.4521 8.67693 16.5144 8.83333C16.6884 9.26876 16.7869 9.71898 16.7973 10.1874C16.8045 10.5214 16.802 10.8554 16.7716 11.1892C16.7624 11.292 16.7283 11.3208 16.6319 11.2914C16.0178 11.104 15.386 10.997 14.7539 10.894C14.5758 10.8649 14.3953 10.8485 14.2155 10.8306C14.1138 10.8205 14.0677 10.7859 14.0571 10.6689C13.9705 9.72848 13.284 8.98052 12.3581 8.82272C11.7702 8.72245 11.2289 8.84227 10.753 9.20619C10.2679 9.57738 9.98355 10.0681 9.93355 10.6817C9.92462 10.7909 9.88216 10.8211 9.78162 10.8317C8.97724 10.9155 8.18376 11.0591 7.4048 11.2772C7.23862 11.3238 7.24225 11.3202 7.21962 11.1523C7.18974 10.93 7.19728 10.7074 7.19505 10.4854L7.19533 10.4851ZM10.4282 6.27078C10.4684 6.13504 10.3941 6.06997 10.2754 6.02416C10.0134 5.92306 9.7495 5.85742 9.46294 5.88842C9.1585 5.92138 8.91998 6.04986 8.7309 6.29145C8.48596 6.60426 8.46305 6.97405 8.43736 7.34496C8.43596 7.36479 8.44965 7.393 8.46529 7.40473C8.49406 7.42623 8.51556 7.39775 8.53567 7.37987C9.04288 6.93579 9.63973 6.66571 10.2824 6.48808C10.4022 6.45484 10.4634 6.40205 10.4276 6.27106L10.4282 6.27078ZM14.4129 5.89122C14.1526 5.87781 13.9046 5.94177 13.6624 6.0493C13.5007 6.12108 13.5725 6.25291 13.5608 6.36239C13.5493 6.4702 13.6432 6.46741 13.7122 6.48724C14.3478 6.67018 14.9447 6.92964 15.4486 7.37149C15.4687 7.38909 15.4865 7.41869 15.5184 7.40557C15.5502 7.39216 15.5418 7.35837 15.5424 7.33183C15.5446 7.1785 15.5379 7.02628 15.512 6.87434C15.4181 6.32497 14.9983 5.84904 14.4132 5.89122H14.4129Z" fill="white" fill-opacity="0.9"/>
<path d="M15.3368 4.62545C15.3024 4.00709 14.9067 3.65433 14.4199 3.3823C13.7677 3.01782 13.058 2.86057 12.3134 2.81812C11.5311 2.77315 10.7759 2.87789 10.0472 3.15718C9.60088 3.32839 9.18864 3.55798 8.89426 3.95486C8.75098 4.14785 8.67808 4.36235 8.6711 4.62014C8.60239 4.54222 8.5996 4.45675 8.57837 4.38218C8.47894 4.03362 8.40297 3.67919 8.39878 3.31555C8.39348 2.84409 8.59541 2.46788 8.9504 2.16512C9.55312 1.65121 10.2611 1.39147 11.0367 1.28645C11.373 1.24093 11.7101 1.19931 12.0484 1.21132C12.6849 1.23339 13.3197 1.28338 13.9213 1.51883C14.3604 1.6906 14.7846 1.89532 15.1245 2.23104C15.4893 2.59133 15.6491 3.02619 15.5809 3.54569C15.5326 3.91436 15.4485 4.27242 15.3365 4.62573L15.3368 4.62545Z" fill="white" fill-opacity="0.9"/>
<path d="M13.521 10.773C12.8018 10.6982 12.0402 10.7133 11.2788 10.7219C10.9733 10.7253 10.6683 10.7591 10.363 10.7733C10.208 10.7806 10.1966 10.7591 10.2242 10.6055C10.3611 9.84746 10.7962 9.34333 11.5352 9.13413C12.1402 8.96292 12.6951 9.10956 13.1739 9.51426C13.4939 9.7849 13.6808 10.1374 13.7562 10.5491C13.7839 10.7012 13.7055 10.7757 13.5207 10.7728L13.521 10.773Z" fill="white" fill-opacity="0.9"/>
<path d="M11.9863 12.6427C11.1512 12.6323 10.4125 12.0399 10.2508 11.2252C10.2256 11.0981 10.2776 11.0641 10.3815 11.0571C10.5387 11.0465 10.6962 11.0426 10.8535 11.0306C11.4559 10.9839 12.0603 10.9901 12.6639 11.0015C12.9787 11.0074 13.2934 11.0356 13.6076 11.0571C13.7459 11.0666 13.7744 11.1074 13.7459 11.2333C13.5596 12.06 12.8309 12.6432 11.986 12.6427H11.9863Z" fill="white" fill-opacity="0.9"/>
</g>
<defs>
<clipPath id="clip0_4_3238">
<rect width="19.5354" height="24" fill="white" transform="translate(2.22998)"/>
</clipPath>
</defs>
</svg>
