<svg width="24" height="24" viewBox="0 0 24 24" fill="none" xmlns="http://www.w3.org/2000/svg">
<path d="M7.92871 2.05505C8.49851 1.86731 9.10242 2.22334 9.30371 2.78845C9.44804 3.19417 9.64176 3.61516 9.87891 3.85583C10.4415 4.42666 11.2045 4.74743 12 4.74744C12.7955 4.74744 13.5585 4.42666 14.1211 3.85583C14.3578 3.61558 14.5511 3.33903 14.6953 3.03943C14.9906 2.42581 15.6657 1.92201 16.3125 2.13513C17.7977 2.62457 20.1604 3.40383 21.3164 3.78845C21.5159 3.85469 21.6897 3.98383 21.8125 4.15662C21.9353 4.32946 22.0011 4.53728 22 4.75037V8.52185C21.9999 8.67589 21.965 8.82774 21.8984 8.96619C21.8318 9.1047 21.7349 9.2258 21.6152 9.32068C21.4956 9.41552 21.3565 9.48199 21.208 9.51404C21.0594 9.54607 20.9052 9.54353 20.7578 9.50623L18 8.80701V20.9847C18 21.2539 17.8945 21.5122 17.707 21.7025C17.5195 21.8928 17.2652 22.0004 17 22.0004H7C6.73479 22.0004 6.4805 21.8928 6.29297 21.7025C6.10549 21.5122 6 21.2539 6 20.9847V8.80701L3.24219 9.50623C3.09481 9.54353 2.94057 9.54607 2.79199 9.51404C2.6435 9.48199 2.50442 9.41551 2.38477 9.32068C2.26509 9.2258 2.16817 9.1047 2.10156 8.96619C2.03501 8.82775 2.00008 8.67589 2 8.52185V4.75037C1.99887 4.53729 2.06477 4.3295 2.1875 4.15662C2.31015 3.98388 2.4833 3.85486 2.68262 3.78845C3.90421 3.38224 6.47101 2.53535 7.92871 2.05505ZM10.1426 9.43005C10.0047 9.43013 9.88512 9.48145 9.7832 9.58337C9.68129 9.68531 9.62994 9.80487 9.62988 9.94275V10.1498C9.62988 10.2878 9.6812 10.4081 9.7832 10.5101C9.88508 10.6119 10.0048 10.6634 10.1426 10.6635H12.7803C12.792 10.6636 12.7979 10.6692 12.7979 10.681C12.7978 10.693 12.7922 10.7052 12.7803 10.7172C11.8563 12.1812 11.0605 13.78 10.3945 15.514C10.3466 15.6339 10.3587 15.7451 10.4307 15.847C10.5026 15.9489 10.6017 16.0003 10.7275 16.0004H11.3398C11.4898 16.0004 11.6279 15.9546 11.7539 15.8646C11.8798 15.7747 11.9667 15.6579 12.0146 15.514C12.5666 13.894 13.2271 12.4211 13.9951 11.0951C14.1631 10.7951 14.2471 10.4798 14.2471 10.1498V9.94275C14.247 9.8049 14.1956 9.68529 14.0938 9.58337C13.9978 9.48144 13.881 9.43012 13.7432 9.43005H10.1426Z" fill="white" fill-opacity="0.9"/>
</svg>
