<svg width="24" height="24" viewBox="0 0 24 24" fill="none" xmlns="http://www.w3.org/2000/svg">
<path d="M21.5882 7.33747C21.568 7.28729 21.5175 7.24738 21.4569 7.25741C21.3963 7.26745 21.356 7.31763 21.356 7.37785C21.356 8.7829 20.7905 9.82662 19.71 10.499C18.6195 11.1714 17.2967 11.2417 16.8322 11.2015L17.8925 9.77644C17.8925 9.77644 17.9228 9.67607 17.8925 9.63596C17.8622 9.59579 17.8016 9.57571 17.7612 9.58578C16.8019 9.80654 13.086 9.88682 13.0457 9.88682C12.0157 9.91698 11.531 9.25458 11.5108 9.23449C11.4805 9.19438 11.4402 9.18431 11.3897 9.18431C11.3392 9.18431 11.3089 9.22448 11.2887 9.26459L10.0467 12.4862C4.74549 13.8812 2.74618 16.9723 2.72598 17.0024C2.70579 17.0325 2.70579 17.0827 2.71589 17.1128C2.72598 17.1429 2.76637 17.183 2.79666 17.1931C5.07871 17.7852 5.5129 18.2067 5.59368 18.3673C4.24061 18.3873 2.16052 19.1702 2.06964 19.2103C2.01915 19.2304 1.97876 19.2806 1.98886 19.3407C1.98886 19.401 2.03935 19.4411 2.09994 19.4512C4.12954 19.7522 6.63373 19.8225 8.60273 19.8225C10.1274 19.8225 11.3392 19.7823 11.7633 19.7623C11.9047 19.7623 12.0359 19.7422 12.1671 19.7221C13.1971 19.5817 18.4579 18.6784 20.6188 14.8346C23.012 10.5793 21.5983 7.36757 21.5882 7.33747ZM5.42203 16.611C5.1191 16.611 4.87676 16.3701 4.87676 16.069C4.87676 15.7679 5.1191 15.5271 5.42203 15.5271C5.72495 15.5271 5.96729 15.7679 5.96729 16.069C5.96729 16.3701 5.72495 16.611 5.42203 16.611Z" fill="white" fill-opacity="0.9"/>
<path d="M13.9534 6.66584C13.9534 6.66584 13.9029 6.77624 13.9332 6.82642C13.9635 6.8766 14.0241 6.89667 14.0746 6.8766C16.2758 6.19415 18.4569 6.47516 18.4771 6.47516C20.0725 6.71602 20.0422 7.6293 20.0422 7.66944C20.0422 7.72966 20.0826 7.78987 20.1432 7.79991H20.1634C20.2139 7.79991 20.2644 7.7698 20.2845 7.70958C20.9207 5.6522 18.8002 4.88947 18.7901 4.87943L12.4286 2.25C12.4286 2.25 12.3176 2.25 12.2873 2.28011C12.2469 2.32025 12.2469 2.38047 12.2772 2.42061C12.3176 2.48083 13.1657 3.95612 14.0644 4.86939C14.8622 5.67228 13.9938 6.6257 13.9534 6.66584Z" fill="white" fill-opacity="0.9"/>
<path d="M20.0015 19.0302L17.6488 19.3213C17.6488 19.3213 17.6286 19.3213 17.6185 19.3213C16.2857 19.8632 15.1244 20.3048 15.1042 20.3148C15.0639 20.3349 15.0335 20.365 15.0234 20.4152C15.0234 20.4553 15.0234 20.5055 15.0639 20.5356C16.1745 21.479 17.0531 21.7399 17.0934 21.75C17.1036 21.75 17.1136 21.75 17.1237 21.75C17.1641 21.75 17.2146 21.7299 17.2348 21.6797C17.6791 20.8668 20.0621 19.2811 20.0823 19.261C20.1328 19.2309 20.153 19.1707 20.1328 19.1104C20.1126 19.0603 20.052 19.0202 20.0015 19.0302Z" fill="white" fill-opacity="0.9"/>
</svg>
