<svg width="24" height="24" viewBox="0 0 24 24" fill="none" xmlns="http://www.w3.org/2000/svg">
<path d="M19.4443 3.01953C19.03 3.44288 18.6089 3.90067 18.5078 4.03613C17.6953 5.12498 17.2296 6.19725 16.9775 7.5625C16.9298 7.82165 16.9124 8.37095 16.8975 10.0518L16.8779 10.708L17.1973 10.7549C17.8206 10.8465 18.7829 11.2278 19.3223 11.5967C20.5521 12.4377 21.3577 13.659 21.6758 15.165C21.7751 15.6362 21.775 16.719 21.6758 17.2217C21.5927 17.6422 21.3675 18.3138 21.1914 18.667C20.4158 20.2227 19.0084 21.3076 17.292 21.6729C16.8105 21.7753 15.7385 21.7753 15.2568 21.6729C13.2503 21.2459 11.6884 19.8454 11.0488 17.8994C10.5476 16.3739 10.7736 14.5769 11.6357 13.2305C12.464 11.9374 13.9221 10.9654 15.3477 10.7559L15.6641 10.709V10.292C15.6641 8.31126 15.689 7.8279 15.8301 7.09375C16.0432 5.98486 16.501 4.825 17.0664 3.96191C17.167 3.8083 17.2608 3.66252 17.2754 3.63867C17.3103 3.58092 17.0707 3.62036 16.4688 3.77148C14.5687 4.24844 12.7722 5.43533 11.5264 7.03516C10.5111 8.33888 9.78889 9.01004 9.60547 10.665C9.61865 10.6784 9.80516 10.7254 10.0195 10.7695C10.4507 10.8584 10.9254 11.0237 11.3066 11.2178L11.5566 11.3447L11.3818 11.5498C10.2004 12.9255 9.65165 14.242 9.57129 15.8984C9.48939 17.586 10.1235 19.4279 11.21 20.6602C11.3394 20.8069 11.4714 20.9589 11.5029 20.9971C11.5544 21.0594 11.5328 21.0796 11.2812 21.207C10.9275 21.3862 10.3685 21.5785 9.92383 21.6738C9.44798 21.7758 8.41291 21.7754 7.92871 21.6729C5.92481 21.2484 4.3612 19.8454 3.72168 17.8994C3.29476 16.6001 3.39108 15.0787 3.98047 13.8291C4.73803 12.223 6.29679 11.0399 8.03027 10.7539L8.35449 10.7002C8.47515 9.48252 8.74211 8.74588 9.5166 7.85742H9.5C9.46755 7.86488 9.39108 7.89326 9.30273 7.93262C8.9147 8.10551 8.31961 8.27817 7.88184 8.34375C6.08705 8.61248 4.29215 7.94384 2.74121 6.42969L2.25 5.9502L2.5957 5.5957C3.62939 4.53568 4.85577 3.83422 6.12402 3.57715C6.67503 3.46545 7.65804 3.47527 8.21094 3.59863C9.22394 3.82475 10.2241 4.33832 11.083 5.07227L11.3682 5.31543L11.7344 4.98242C13.4148 3.45563 15.5262 2.50863 17.7197 2.29688C17.9214 2.27743 18.561 2.2589 19.1416 2.25586L20.1982 2.25L19.4443 3.01953Z" fill="white" fill-opacity="0.9"/>
</svg>
