<svg width="24" height="24" viewBox="0 0 24 24" fill="none" xmlns="http://www.w3.org/2000/svg">
<g clip-path="url(#clip0_35_8617)">
<path d="M15.953 8.66442C16.027 8.59938 16.0691 8.50534 16.0683 8.40679V3.49153C16.0676 3.36718 15.9989 3.25315 15.8893 3.19445C15.7797 3.13574 15.6467 3.14178 15.5428 3.21018C13.0581 4.75933 10.5733 1.08476 8.08521 2.22035C8.2051 2.38999 8.27016 2.59228 8.27165 2.80001V7.90848C10.831 6.97628 13.3937 10.8915 15.953 8.66442Z" fill="white" fill-opacity="0.9"/>
<path d="M20.3797 18.3424C19.5255 17.9729 17.1288 17.3254 17.3051 16.1695C17.4305 15.3458 19 15.6203 19.0272 14.8136C19.0441 14.2678 18.2678 14.1627 17.8068 14.1356C14.7119 13.7932 11.3221 13.6983 8.27122 14.3322V16.8034C9.54241 17.4814 8.92546 18.9491 7.25427 18.9491C5.58308 18.9491 4.97291 17.4644 6.23732 16.8034V14.8814C4.71529 15.3898 2.25088 16.4407 2.16953 18.0508C2.078 19.9186 4.75258 20.6881 6.36614 21.0102L6.47461 21.0339C8.99526 21.5784 11.5782 21.778 14.1526 21.6271C16.1678 21.5113 18.1695 21.2232 20.1356 20.7661C20.9017 20.5458 22.2238 20.1424 21.5797 19.1864C21.2635 18.8016 20.8488 18.5098 20.3797 18.3424ZM15.7288 19.9661C14.98 19.9661 14.3729 19.359 14.3729 18.6102C14.3729 17.8613 14.98 17.2542 15.7288 17.2542C16.4777 17.2542 17.0848 17.8613 17.0848 18.6102C17.0848 19.359 16.4777 19.9661 15.7288 19.9661Z" fill="white" fill-opacity="0.9"/>
<path d="M6.91528 2.80002V17.5932C6.91528 17.7805 7.06705 17.9322 7.25427 17.9322C7.44148 17.9322 7.59325 17.7805 7.59325 17.5932C7.59325 1.69833 7.63732 2.72206 7.51189 2.57968C7.41965 2.47182 7.26997 2.43284 7.13683 2.48201C7.00368 2.53118 6.91527 2.65809 6.91528 2.80002Z" fill="white" fill-opacity="0.9"/>
</g>
<defs>
<clipPath id="clip0_35_8617">
<rect width="20" height="20" fill="white" transform="translate(2 2)"/>
</clipPath>
</defs>
</svg>
