<svg width="24" height="24" viewBox="0 0 24 24" fill="none" xmlns="http://www.w3.org/2000/svg">
<path d="M14.6279 1.5C14.8655 1.49849 14.8456 1.61806 15.2852 2.09863C15.4139 2.23945 15.5177 2.356 15.6006 2.45215C15.7562 2.63259 15.7346 2.82017 15.5176 2.91797C14.1895 3.51513 13.2667 4.47509 12.875 5.66602L12.7754 5.96875L12.9072 6.0166C12.98 6.0432 13.1889 6.14333 13.3711 6.23828C13.6997 6.40954 13.7041 6.41052 13.9053 6.35449C14.9866 6.05331 16.0002 5.93745 16.9697 6.00488C19.146 6.15621 20.6998 7.19162 21.6455 9.12207C21.8787 9.59813 22.1612 10.4112 22.2803 10.9482C22.5419 12.1277 22.5705 13.4437 22.3623 14.6992C21.8174 17.9845 19.6111 21.019 17.0859 21.9551C16.0777 22.3288 15.0101 22.3665 13.9658 22.0664L13.7002 21.9902L13.4111 22.1494C13.0302 22.3596 12.7989 22.4362 12.3994 22.4824C11.8116 22.5504 11.2471 22.4231 10.7178 22.1035L10.4463 21.9395L10.1758 22.041C9.46712 22.3071 8.44762 22.3677 7.6416 22.1924C6.94688 22.0412 6.21543 21.7185 5.56445 21.2744C3.77929 20.0564 2.3354 17.834 1.76465 15.4258C1.55787 14.5534 1.50242 14.0557 1.5 13.0547C1.49755 12.0479 1.54981 11.5962 1.76855 10.7188C2.10926 9.35218 2.66517 8.29827 3.47363 7.48926C4.26635 6.69607 5.21237 6.22103 6.40527 6.01758C6.95068 5.92458 8.13617 5.92416 8.75 6.0166C9.20393 6.08497 10.1073 6.29403 10.3711 6.3916C10.4829 6.43301 10.5202 6.42233 10.7275 6.28516C10.9459 6.14066 11.2447 5.96915 11.3857 5.96875C11.4605 5.96875 11.6245 5.96841 11.665 5.66895C11.665 5.34083 11.6446 5.42714 11.6895 5.18066C11.8643 4.22145 12.2224 3.28473 12.6064 2.78223C12.9117 2.38303 13.5963 1.88794 14.1855 1.64062C14.3684 1.56392 14.5677 1.50042 14.6279 1.5ZM12.7695 15.8066C12.3433 15.7392 11.7296 15.7312 11.3213 15.7881C10.4209 15.9137 9.3422 16.4003 8.57812 17.0264C8.2838 17.2675 8.25 17.3138 8.25 17.4658C8.25016 17.6919 8.36426 17.8512 8.58398 17.9326C8.74542 17.9924 9.11317 18 11.9775 18C15.6117 18 15.4731 18.0116 15.667 17.7002C15.8321 17.4349 15.7802 17.339 15.25 16.9316C14.4997 16.3552 13.5685 15.9331 12.7695 15.8066ZM6.33594 9.80957C6.24944 9.76922 6.21644 9.73267 6.14941 9.80078C5.94566 10.008 6.20813 10.4228 6.31934 10.6914C6.40692 10.9029 6.50887 11.1324 6.57129 11.249C6.78099 11.6408 7.04138 11.979 7.32715 12.2314C8.00581 12.831 8.76896 12.909 9.69043 12.4727C10.1503 12.2547 10.1072 11.6705 9.65527 11.4365C8.58816 10.8845 6.83063 10.0401 6.33594 9.80957ZM17.6641 9.80957C17.1694 10.0401 15.4118 10.8845 14.3447 11.4365C13.8927 11.6705 13.8497 12.2547 14.3096 12.4727C15.231 12.909 15.9942 12.831 16.6729 12.2314C16.9586 11.979 17.219 11.6408 17.4287 11.249C17.4911 11.1324 17.5931 10.9029 17.6807 10.6914C17.7919 10.4228 18.0543 10.008 17.8506 9.80078C17.7836 9.73268 17.7506 9.76922 17.6641 9.80957Z" fill="white" fill-opacity="0.9"/>
</svg>
