<svg width="24" height="24" viewBox="0 0 24 24" fill="none" xmlns="http://www.w3.org/2000/svg">
<path d="M21.3508 7.5C21.9811 7.50002 22.4965 8.04876 22.4934 8.625L22.4309 19.2051C22.4277 19.7812 21.9117 20.25 21.2815 20.25H13.8899C13.2597 20.25 12.6838 19.7812 12.6868 19.2051L12.7444 8.54492C12.7476 7.96875 13.329 7.50002 13.9592 7.5H21.3508ZM20.7356 16.5342C20.696 16.4748 20.6092 16.4749 20.5696 16.5342L19.6292 17.9453C19.6073 17.9788 19.608 18.0223 19.6301 18.0557L20.5696 19.4658C20.6091 19.5251 20.6969 19.5249 20.7366 19.4658L21.676 18.0547C21.6983 18.0211 21.6974 17.9779 21.675 17.9443L20.7356 16.5342ZM17.8215 9.42871C17.705 9.23478 17.4235 9.23487 17.3069 9.42871L15.5872 12.2959C15.4677 12.4958 15.6129 12.75 15.8459 12.75H16.8147L16.8137 18.4502C16.8138 18.6157 16.949 18.7499 17.1145 18.75H18.0139C18.1793 18.7497 18.3126 18.6156 18.3127 18.4502L18.3137 12.75H19.2834C19.5162 12.7496 19.6599 12.4957 19.5403 12.2959L17.8215 9.42871ZM10.1096 3.75C10.7397 3.75024 11.3148 4.21889 11.3118 4.79492L11.2551 15.4551C11.2519 16.0313 10.6695 16.5 10.0393 16.5H2.64771C2.01765 16.4997 1.50202 15.9511 1.50513 15.375L1.56763 4.79492C1.57086 4.21875 2.08779 3.75 2.71802 3.75H10.1096ZM5.9856 5.25C5.82004 5.25007 5.6859 5.38425 5.68579 5.5498V11.25H4.71606C4.48316 11.2501 4.33883 11.5042 4.45825 11.7041L6.17798 14.5713C6.29455 14.7651 6.57607 14.7651 6.69263 14.5713L8.41138 11.7041C8.531 11.5042 8.38661 11.25 8.15356 11.25H7.18481V5.5498C7.18471 5.38433 7.05046 5.2502 6.88501 5.25H5.9856ZM3.42896 4.53418C3.38932 4.47496 3.30152 4.47494 3.26196 4.53418L2.32349 5.94531C2.30127 5.97881 2.30125 6.02217 2.32349 6.05566L3.26392 7.46582C3.30353 7.52522 3.39039 7.52523 3.42993 7.46582L4.36938 6.05469C4.39139 6.02121 4.3916 5.97773 4.36938 5.94434L3.42896 4.53418Z" fill="white" fill-opacity="0.9"/>
</svg>
