<svg width="24" height="24" viewBox="0 0 24 24" fill="none" xmlns="http://www.w3.org/2000/svg">
<path d="M6.75488 1.5C6.9224 1.50006 6.99651 1.56256 7.80957 2.37988L8.68457 3.25879C8.68457 3.25879 9.44473 3.29917 9.9248 3.23438C15.3008 2.50777 17.3954 3.63463 18.0117 4.44922C18.4888 5.07995 16.5528 4.44704 16.0869 5.08789C15.9961 5.21277 15.8936 5.43262 15.8936 5.43262C15.9851 5.46587 16.0926 5.45741 16.5439 5.56836C19.6253 6.32585 21.5254 9.04949 20.8711 9.44824C20.8463 9.43638 18.2571 8.20001 18.4326 8.98242C18.8891 11.0168 21.1899 16.6068 18.0117 18.4297C16.9393 19.0447 15.6468 19.5576 14.8799 20.1035C10.0149 23.5669 8.72867 22.2884 8.52539 22.1865C8.32229 22.0847 8.16011 21.9243 8.02246 21.5566C7.88474 21.1886 7.2572 18.1281 8.55566 16.4717C9.85379 14.8157 10.5006 14.14 10.6816 13.5361C10.808 13.1143 10.9394 12.389 10.9395 12.1123C10.9395 11.6207 10.6231 10.8851 10.2178 10.4326L10 10.1885L9.47754 10.6826C8.67839 11.4386 7.97532 11.8544 7.25684 11.9971L6.91602 12.0645L6.80664 12.3623C6.48714 13.229 5.93187 13.7059 5.24219 13.707C4.85012 13.7076 4.26886 13.5986 3.95312 13.4648C3.2534 13.1683 2.91023 12.593 3.02051 11.9023C3.07353 11.5702 3.50347 10.6965 3.98535 9.94238C4.21073 9.58978 4.34139 9.3174 4.44434 8.98242C4.91811 7.44122 5.7203 5.65938 6.28418 4.89648L6.59277 4.47852L6.45996 3.27246C6.29604 1.79469 6.29545 1.77401 6.45117 1.62109C6.53617 1.53756 6.63024 1.5 6.75488 1.5ZM7.49512 7.28223C7.23764 7.16454 7.07881 7.19561 6.87207 7.40332C6.75554 7.52045 6.67871 7.66807 6.67871 7.77441C6.67916 8.00763 7.00922 8.33887 7.24121 8.33887C7.45145 8.33887 7.80371 8.01117 7.80371 7.81543C7.80371 7.59589 7.66784 7.36128 7.49512 7.28223Z" fill="white" fill-opacity="0.9"/>
</svg>
