<svg width="24" height="24" viewBox="0 0 24 24" fill="none" xmlns="http://www.w3.org/2000/svg">
<path d="M7.90559 8.54897C7.78114 8.35316 7.62944 8.06795 7.48699 7.78478C7.29525 7.40362 6.72962 7.39672 6.52037 7.76855C5.17233 10.1639 3.33159 12.2324 3.47684 14.982C3.76005 20.3428 9.67707 21.75 9.67707 21.75C7.86446 17.2826 7.90339 15.2216 10.5628 12.6366C10.8329 16.9804 12.1871 18.8507 15.5366 21.75C21.1642 19.1113 21.9525 13.1348 18.3241 8.45097C18.1073 8.171 17.673 8.21995 17.4878 8.52178C17.219 8.95965 16.8308 9.52394 16.4223 9.88917C16.3435 9.95959 16.2861 9.88917 16.2861 9.88917C15.3993 6.39384 13.7844 4.686 10.4515 2.66794C10.1312 2.474 9.72276 2.69634 9.69023 3.06936C9.50218 5.22555 9.01103 6.48457 8.04181 8.48196C8.04181 8.48196 7.96201 8.63773 7.90559 8.54897Z" fill="white" fill-opacity="0.9"/>
</svg>
