<svg width="24" height="24" viewBox="0 0 24 24" fill="none" xmlns="http://www.w3.org/2000/svg">
<g clip-path="url(#clip0_4_3245)">
<path fill-rule="evenodd" clip-rule="evenodd" d="M11.667 2.7268C11.1581 2.98824 11.3008 3.76148 11.8699 3.82605C12.315 3.87656 12.6457 3.40887 12.4534 3.00086C12.3188 2.71531 11.9438 2.58461 11.667 2.7268ZM9.33964 3.89867C8.83076 4.16012 8.97347 4.93336 9.54259 4.99793C9.98762 5.04844 10.3183 4.58074 10.126 4.17273C9.99146 3.88719 9.61644 3.75648 9.33964 3.89867ZM13.9944 3.89867C13.4855 4.16012 13.6282 4.93336 14.1973 4.99793C14.6423 5.04844 14.973 4.58074 14.7807 4.17273C14.6462 3.88719 14.2712 3.75648 13.9944 3.89867ZM11.6238 4.93269C11.4219 5.05672 10.8858 5.61445 10.6148 5.98266C9.85655 7.01269 9.35426 8.23418 9.11152 9.6384C9.01544 10.1941 9.01668 11.5195 9.11377 12.0586C9.3744 13.5058 10.0129 14.7455 11.0379 15.7938C11.5549 16.3227 11.686 16.4138 11.9301 16.4138C12.1741 16.4138 12.3052 16.3227 12.8222 15.7938C13.8472 14.7455 14.4857 13.5058 14.7464 12.0586C14.8435 11.5195 14.8447 10.1941 14.7486 9.6384C14.4777 8.07098 13.8409 6.64687 12.949 5.61328C12.6794 5.30086 12.3347 4.98168 12.1751 4.89668C12.0403 4.82496 11.7706 4.84258 11.6238 4.93269ZM6.15046 7.04574C5.99177 7.09078 5.82378 7.23957 5.76691 7.38543C5.50547 8.05648 5.3808 9.49926 5.50652 10.3984C5.78991 12.4251 6.85992 14.1648 8.51265 15.286C8.88844 15.5409 9.52513 15.894 9.52513 15.8475C9.52513 15.8362 9.44026 15.7086 9.33658 15.5639C8.52941 14.4378 8.01126 12.9627 7.89257 11.4531C7.80824 10.3802 7.93232 9.39004 8.31277 8.10094C8.43337 7.69227 8.44624 7.61437 8.39838 7.58352C8.17856 7.44164 7.23834 7.14953 6.77109 7.07789C6.31756 7.00836 6.28769 7.00684 6.15046 7.04574ZM17.186 7.05816C16.6439 7.14418 15.6943 7.43348 15.4618 7.58352C15.4139 7.61437 15.4268 7.69227 15.5474 8.10094C15.7522 8.795 15.8012 9.00703 15.8858 9.56652C16.0418 10.5979 16.0231 11.521 15.8263 12.5014C15.6091 13.584 15.1208 14.7307 14.5206 15.568C14.4153 15.7149 14.3374 15.8435 14.3475 15.8537C14.4012 15.9078 15.3256 15.3455 15.7695 14.9889C17.1884 13.8488 18.0968 12.235 18.3536 10.3984C18.4793 9.49926 18.3547 8.05648 18.0932 7.38543C18.0341 7.23375 17.8663 7.09113 17.6903 7.04293C17.6049 7.01957 17.5264 7.00234 17.5157 7.00469C17.5051 7.00703 17.3567 7.03109 17.186 7.05816ZM4.1916 10.8936C3.32881 11.087 2.42276 11.4229 2.18223 11.6384C2.0839 11.7265 2 11.9267 2 12.0731C2 12.2636 2.26291 12.9661 2.52819 13.4844C3.55863 15.4977 5.4848 16.8856 7.74082 17.2403C8.108 17.298 9.28479 17.3109 9.5794 17.2604L9.76943 17.2279L9.28437 17.0236C6.91182 16.0244 5.15 13.9625 4.55812 11.4922C4.48861 11.2021 4.42627 10.9429 4.41956 10.916C4.40742 10.8673 4.33888 10.8606 4.1916 10.8936ZM19.4412 10.9118C19.4331 10.9409 19.3867 11.1406 19.3381 11.3555C18.7611 13.9089 16.9552 16.0483 14.5385 17.0415L14.0855 17.2277L14.2394 17.2603C14.5212 17.3201 15.8725 17.2942 16.2613 17.2215C17.3488 17.0182 18.3381 16.5973 19.2365 15.9557C19.6698 15.6462 20.5059 14.7965 20.8225 14.3437C21.2876 13.6787 21.8601 12.4258 21.8601 12.0731C21.8601 11.9267 21.7762 11.7265 21.6779 11.6384C21.4887 11.4689 20.7331 11.1617 20.1214 11.0056C19.5658 10.8639 19.4587 10.8491 19.4412 10.9118ZM3.67566 17.0684C3.37 17.5251 3.24126 17.7975 3.24126 17.9875C3.24126 18.2381 3.28885 18.3399 3.52237 18.5887C4.13419 19.2406 5.20074 19.8464 6.19293 20.1055C6.72516 20.2445 7.58314 20.282 8.11157 20.1893C9.11113 20.0139 9.98164 19.5647 10.7465 18.8298C11.1086 18.4818 11.5002 18.0156 11.4304 18.0156C11.4087 18.0156 11.2485 18.0609 11.0744 18.1163C10.2656 18.3736 9.00171 18.5145 8.14202 18.4431C6.70282 18.3236 5.40989 17.8765 4.24323 17.095C4.03698 16.9568 3.85871 16.8437 3.84711 16.8437C3.83547 16.8437 3.75836 16.9448 3.67566 17.0684ZM19.5817 17.115C18.2854 17.9873 16.6534 18.4855 15.097 18.484C14.4219 18.4834 13.4332 18.3266 12.764 18.1142C12.5934 18.06 12.4395 18.0156 12.4221 18.0156C12.3615 18.0156 12.7581 18.4862 13.0906 18.8091C13.8527 19.549 14.7471 20.0134 15.7486 20.1893C16.1737 20.264 17.0309 20.2416 17.4769 20.1441C18.5344 19.9131 19.5559 19.3884 20.2012 18.7449C20.6704 18.277 20.7314 18.0124 20.4768 17.5506C20.2969 17.2242 20.0426 16.8431 20.0065 16.8457C19.9913 16.8468 19.8001 16.968 19.5817 17.115ZM11.6446 19.5812C11.4982 19.7303 11.2364 19.9597 11.0627 20.0911C10.8891 20.2224 10.741 20.3458 10.7337 20.3652C10.7164 20.4113 11.4629 21.156 11.6281 21.2574C11.7955 21.3602 12.0646 21.3602 12.232 21.2574C12.3972 21.156 13.1437 20.4113 13.1264 20.3652C13.1191 20.3458 12.9713 20.2226 12.7978 20.0914C12.6244 19.9602 12.3588 19.7295 12.2076 19.5788C12.0564 19.428 11.9278 19.3059 11.9217 19.3074C11.9156 19.3089 11.7909 19.4321 11.6446 19.5812Z" fill="white" fill-opacity="0.9"/>
</g>
<defs>
<clipPath id="clip0_4_3245">
<rect width="20" height="20" fill="white" transform="translate(2 2)"/>
</clipPath>
</defs>
</svg>
