<svg width="24" height="24" viewBox="0 0 24 24" fill="none" xmlns="http://www.w3.org/2000/svg">
<g clip-path="url(#clip0_35_8452)">
<path fill-rule="evenodd" clip-rule="evenodd" d="M7.21363 4.6875C6.30228 4.6875 5.44034 5.10177 4.87103 5.81342L3.13005 7.98964C2.23947 9.10286 2.25533 10.6891 3.16799 11.7843L9.72503 19.6527C10.9244 21.092 13.135 21.092 14.3344 19.6527L20.8914 11.7843C21.8041 10.6891 21.8199 9.10286 20.9293 7.98964L19.1884 5.81341C18.619 5.10177 17.7571 4.6875 16.8458 4.6875H7.21363ZM8.6943 5.76206C8.61648 5.4613 8.30958 5.28059 8.00882 5.35842C7.70807 5.43624 7.52735 5.74314 7.60518 6.0439L7.93036 7.30049C8.00819 7.60125 8.31509 7.78196 8.61584 7.70413C8.9166 7.62631 9.09731 7.31941 9.01948 7.01865L8.6943 5.76206ZM16.4523 6.10578C16.5617 5.81502 16.4147 5.49063 16.1239 5.38124C15.8332 5.27184 15.5088 5.41887 15.3994 5.70963L14.9284 6.9615C14.819 7.25226 14.966 7.57665 15.2568 7.68605C15.5476 7.79544 15.872 7.64841 15.9814 7.35765L16.4523 6.10578ZM4.57686 8.62943C4.2662 8.62943 4.01436 8.88128 4.01436 9.19194C4.01436 9.5026 4.2662 9.75444 4.57686 9.75444H19.51C19.8207 9.75444 20.0725 9.5026 20.0725 9.19194C20.0725 8.88128 19.8207 8.62943 19.51 8.62943H4.57686ZM15.0919 11.5113C15.1862 11.2152 15.0227 10.8989 14.7267 10.8046C14.4307 10.7103 14.1143 10.8738 14.02 11.1698L12.0078 17.4876L10.0077 11.1708C9.91397 10.8746 9.59785 10.7105 9.30168 10.8043C9.00552 10.8981 8.84144 11.2142 8.93521 11.5103L11.47 19.5159C11.5439 19.7496 11.7607 19.9084 12.0057 19.9086C12.2508 19.9088 12.4678 19.7503 12.5422 19.5168L15.0919 11.5113Z" fill="white" fill-opacity="0.9"/>
</g>
<defs>
<clipPath id="clip0_35_8452">
<rect width="19.5" height="19.5" fill="white" transform="translate(2.25 2.25)"/>
</clipPath>
</defs>
</svg>
