<svg width="24" height="24" viewBox="0 0 24 24" fill="none" xmlns="http://www.w3.org/2000/svg">
<path d="M17.375 21.75C19.5841 21.75 21.375 19.9591 21.375 17.75V7C21.375 4.79086 19.5841 3 17.375 3H6.625C4.41586 3 2.625 4.79086 2.625 7V17.75C2.625 19.9591 4.41586 21.75 6.625 21.75H17.375ZM16.3545 8.27734C15.8806 8.27728 15.5054 8.12897 15.2295 7.83203C14.9537 7.53206 14.8154 7.11766 14.8154 6.58984C14.8155 6.06208 14.9536 5.64945 15.2295 5.35254C15.5054 5.05261 15.8806 4.90241 16.3545 4.90234C16.8283 4.90234 17.2035 5.05275 17.4795 5.35254C17.7554 5.64945 17.8935 6.06208 17.8936 6.58984C17.8936 7.11784 17.7555 7.53203 17.4795 7.83203C17.2035 8.12903 16.8285 8.27734 16.3545 8.27734ZM6.3623 8.23242C6.29347 8.23233 6.23352 8.20716 6.18262 8.15625C6.13173 8.10532 6.1065 8.04543 6.10645 7.97656V5.2041C6.1065 5.13523 6.13173 5.07534 6.18262 5.02441C6.23352 4.97351 6.29347 4.94834 6.3623 4.94824H6.61914C6.68814 4.94824 6.74692 4.97341 6.79492 5.02441C6.84576 5.07532 6.87104 5.13527 6.87109 5.2041V6.35156C6.87109 6.35456 6.87298 6.35645 6.87598 6.35645C6.88179 6.3564 6.88477 6.35451 6.88477 6.35156L7.64941 5.16406C7.73938 5.02011 7.8701 4.94829 8.04102 4.94824H8.41895C8.47285 4.94824 8.51212 4.97171 8.53613 5.01953C8.5601 5.06747 8.55723 5.11423 8.52734 5.15918L7.61328 6.49121C7.59836 6.51217 7.59831 6.53372 7.61328 6.55469L8.57715 8.02148C8.60694 8.06639 8.60799 8.11325 8.58105 8.16113C8.55704 8.20894 8.51776 8.23242 8.46387 8.23242H8.08594C7.91506 8.23235 7.78618 8.16053 7.69922 8.0166L6.88477 6.69336C6.88447 6.69071 6.88147 6.6895 6.87598 6.68945C6.87314 6.68945 6.87124 6.69067 6.87109 6.69336V7.97656C6.87104 8.04539 6.84576 8.10534 6.79492 8.15625C6.74692 8.20725 6.68814 8.23242 6.61914 8.23242H6.3623ZM9.31152 8.23242C9.24252 8.23242 9.18186 8.20725 9.13086 8.15625C9.08308 8.10537 9.05962 8.04534 9.05957 7.97656V5.2041C9.05962 5.13532 9.08308 5.0753 9.13086 5.02441C9.18186 4.97341 9.24252 4.94824 9.31152 4.94824H10.9043C10.9733 4.94824 11.0321 4.97341 11.0801 5.02441C11.1309 5.07532 11.1562 5.13528 11.1562 5.2041V5.30762C11.1562 5.37662 11.1311 5.43728 11.0801 5.48828C11.0321 5.53921 10.9732 5.56445 10.9043 5.56445H9.86035C9.83635 5.56445 9.82422 5.57659 9.82422 5.60059V6.19434C9.82422 6.22133 9.83635 6.23438 9.86035 6.23438H10.8145C10.8834 6.23441 10.9423 6.26056 10.9902 6.31152C11.041 6.36243 11.0664 6.4224 11.0664 6.49121V6.55859C11.0664 6.62759 11.0412 6.68826 10.9902 6.73926C10.9423 6.79021 10.8834 6.8154 10.8145 6.81543H9.86035C9.83635 6.81543 9.82422 6.82756 9.82422 6.85156V7.58008C9.82422 7.60408 9.83635 7.61621 9.86035 7.61621H10.9043C10.9732 7.61621 11.0321 7.64145 11.0801 7.69238C11.1311 7.74338 11.1562 7.80405 11.1562 7.87305V7.97656C11.1562 8.04539 11.1309 8.10534 11.0801 8.15625C11.0321 8.20725 10.9733 8.23242 10.9043 8.23242H9.31152ZM12.0537 8.23242C11.9848 8.23242 11.925 8.20714 11.874 8.15625C11.8231 8.10531 11.7969 8.04547 11.7969 7.97656V5.2041C11.7969 5.1352 11.8231 5.07536 11.874 5.02441C11.925 4.97353 11.9848 4.94824 12.0537 4.94824H12.2744C12.4452 4.94833 12.5695 5.02297 12.6475 5.17285L13.5928 6.95898C13.5928 6.96184 13.594 6.96373 13.5967 6.96387C13.5997 6.96387 13.6016 6.96198 13.6016 6.95898V5.2041C13.6016 5.1353 13.6269 5.07531 13.6777 5.02441C13.7287 4.97341 13.7894 4.94824 13.8584 4.94824H14.0781C14.1471 4.94824 14.2078 4.97341 14.2588 5.02441C14.3096 5.07533 14.3349 5.13526 14.335 5.2041V7.97656C14.3349 8.04541 14.3096 8.10534 14.2588 8.15625C14.2078 8.20725 14.1471 8.23242 14.0781 8.23242H13.8584C13.6874 8.23242 13.5624 8.15781 13.4844 8.00781L12.54 6.22168C12.54 6.2187 12.5381 6.21681 12.5352 6.2168C12.5322 6.2168 12.5303 6.21868 12.5303 6.22168V7.97656C12.5302 8.04545 12.505 8.10532 12.4541 8.15625C12.4032 8.20717 12.3433 8.23235 12.2744 8.23242H12.0537ZM16.3545 7.64746C16.8585 7.64746 17.1104 7.29484 17.1104 6.58984C17.1102 5.88517 16.8584 5.5332 16.3545 5.5332C15.8508 5.53335 15.5987 5.88531 15.5986 6.58984C15.5986 7.2947 15.8507 7.64732 16.3545 7.64746ZM9.75 13.125C8.9216 13.125 8.25005 12.4534 8.25 11.625C8.25 10.7966 8.92157 10.125 9.75 10.125C10.5784 10.125 11.25 10.7966 11.25 11.625C11.25 12.4534 10.5784 13.125 9.75 13.125ZM14.25 13.125C13.4216 13.125 12.75 12.4534 12.75 11.625C12.75 10.7966 13.4216 10.125 14.25 10.125C15.0784 10.125 15.75 10.7966 15.75 11.625C15.75 12.4534 15.0784 13.125 14.25 13.125ZM18.75 13.125C17.9216 13.125 17.25 12.4534 17.25 11.625C17.25 10.7966 17.9216 10.125 18.75 10.125C19.5784 10.125 20.25 10.7966 20.25 11.625C20.25 12.4534 19.5784 13.125 18.75 13.125ZM5.25 16.875C4.4216 16.875 3.75005 16.2034 3.75 15.375C3.75 14.5466 4.42157 13.875 5.25 13.875C6.07843 13.875 6.75 14.5466 6.75 15.375C6.74995 16.2034 6.0784 16.875 5.25 16.875ZM9.75 16.875C8.9216 16.875 8.25005 16.2034 8.25 15.375C8.25 14.5466 8.92157 13.875 9.75 13.875C10.5784 13.875 11.25 14.5466 11.25 15.375C11.25 16.2034 10.5784 16.875 9.75 16.875ZM18.75 16.875C17.9216 16.875 17.25 16.2034 17.25 15.375C17.25 14.5466 17.9216 13.875 18.75 13.875C19.5784 13.875 20.25 14.5466 20.25 15.375C20.25 16.2034 19.5784 16.875 18.75 16.875ZM9.75 20.625C8.9216 20.625 8.25005 19.9534 8.25 19.125C8.25 18.2966 8.92157 17.625 9.75 17.625C10.5784 17.625 11.25 18.2966 11.25 19.125C11.25 19.9534 10.5784 20.625 9.75 20.625ZM14.25 20.625C13.4216 20.625 12.75 19.9534 12.75 19.125C12.75 18.2966 13.4216 17.625 14.25 17.625C15.0784 17.625 15.75 18.2966 15.75 19.125C15.75 19.9534 15.0784 20.625 14.25 20.625Z" fill="white" fill-opacity="0.9"/>
</svg>
