<svg width="24" height="24" viewBox="0 0 24 24" fill="none" xmlns="http://www.w3.org/2000/svg">
<path d="M11.446 19.313C12.0163 19.1881 12.5828 19.2623 13.1257 19.5279C13.8054 19.8638 14.3328 20.5552 14.4812 21.313C14.5163 21.4887 14.5359 21.6412 14.5242 21.6529C14.4889 21.6847 13.8468 21.8172 13.3601 21.8951C12.731 21.9927 11.2545 21.9927 10.6257 21.8951C10.1378 21.817 9.4937 21.6843 9.46167 21.6529C9.40701 21.6021 9.58281 20.9617 9.7312 20.6568C10.0515 20.0046 10.7469 19.4616 11.446 19.313ZM8.28589 2.69196C8.29761 2.68805 8.33667 2.82477 8.37183 2.98883C8.44611 3.32474 8.63753 3.78974 8.83667 4.12164C9.30156 4.89103 10.1688 5.53574 11.075 5.7818C11.5242 5.90284 12.4617 5.90287 12.9109 5.7818C14.2389 5.41855 15.278 4.35977 15.5984 3.04742C15.6409 2.86184 15.6798 2.70658 15.6843 2.69586C15.7 2.67242 16.3679 2.97711 16.7078 3.16071C18.403 4.07477 19.825 5.48501 20.7546 7.16461C20.9617 7.53192 21.3054 8.27399 21.282 8.29352C21.2734 8.29759 21.1135 8.3366 20.9187 8.38336C19.6179 8.69977 18.5593 9.74274 18.196 11.067C18.075 11.5163 18.075 12.4538 18.196 12.9029C18.2938 13.2505 18.5242 13.7624 18.7156 14.0474C19.2273 14.7973 20.0595 15.3795 20.9304 15.5865C21.1178 15.6333 21.2742 15.6724 21.282 15.6802C21.302 15.7024 20.9296 16.4942 20.7351 16.8404C19.8093 18.4926 18.3717 19.9108 16.7117 20.8052C16.3693 20.992 15.7052 21.2946 15.6843 21.274C15.6804 21.2662 15.6413 21.1097 15.5984 20.9224C15.2781 19.61 14.2389 18.5514 12.9109 18.188C12.4617 18.067 11.5242 18.067 11.075 18.188C9.75073 18.5513 8.70776 19.6099 8.39136 20.9107C8.34452 21.1059 8.30542 21.2662 8.29761 21.274C8.27817 21.2954 7.49605 20.9259 7.14136 20.731C5.28991 19.7037 3.71171 17.9887 2.86792 16.0826C2.77099 15.8655 2.69731 15.6867 2.70386 15.6802C2.71167 15.6724 2.86792 15.6334 3.05542 15.5904C4.3678 15.2701 5.42643 14.2309 5.78979 12.9029C5.91085 12.4538 5.91078 11.5163 5.78979 11.067C5.42653 9.7389 4.36783 8.69982 3.05542 8.37946C2.86961 8.33687 2.71424 8.29791 2.70386 8.28961C2.68043 8.27399 3.05538 7.46944 3.24683 7.12946C4.3015 5.25447 5.96169 3.73102 7.89136 2.85992C8.09448 2.76617 8.27417 2.69196 8.28589 2.69196ZM12.696 7.16071C11.7664 7.01617 10.7937 7.16071 9.93823 7.56696C9.38358 7.83257 8.98509 8.11385 8.55151 8.54352C8.12191 8.97315 7.84445 9.3678 7.57495 9.93024C6.59467 11.9927 7.21956 14.4889 9.06323 15.8755C11.0163 17.344 13.7039 17.1566 15.4343 15.4263C15.8639 14.9967 16.1453 14.5981 16.4109 14.0396C17.2663 12.2389 16.9107 10.0748 15.5125 8.61383C15.1102 8.19202 14.6803 7.87943 14.1218 7.60602C13.6063 7.35604 13.2584 7.24664 12.696 7.16071ZM11.3484 8.32867C11.7351 8.25448 12.5086 8.28181 12.9109 8.38727C14.2154 8.72718 15.2312 9.75455 15.5945 11.0865C15.7233 11.5631 15.7234 12.4069 15.5945 12.8834C15.2311 14.2152 14.2272 15.2271 12.9109 15.5826C12.45 15.7115 11.5594 15.7075 11.0945 15.5826C9.75869 15.2232 8.75474 14.2269 8.39136 12.8951C8.27029 12.4577 8.27035 11.5124 8.39136 11.0748C8.78198 9.65289 9.90308 8.60992 11.3484 8.32867ZM12.5945 9.40289C11.9968 9.10602 11.2976 9.27789 10.8953 9.81305C10.536 10.2896 10.5398 10.985 10.907 11.4849C10.9457 11.5394 10.9183 11.583 10.7351 11.7857C10.3446 12.2037 10.1843 12.7076 10.2742 13.231C10.5127 14.6525 12.2157 15.2034 13.2312 14.188C13.6139 13.8053 13.8052 13.2192 13.7117 12.6998C13.6492 12.3444 13.5084 12.063 13.2507 11.7857C13.0673 11.5828 13.04 11.5395 13.0789 11.4849C13.1062 11.4459 13.1765 11.3208 13.2351 11.2037C13.3288 11.0163 13.3406 10.9455 13.3406 10.6177C13.3406 10.3094 13.3248 10.2152 13.2468 10.063C13.1063 9.77409 12.8756 9.53963 12.5945 9.40289ZM2.49683 9.46539C3.07881 9.54353 3.53591 9.77401 3.96948 10.2076C4.21932 10.4535 4.32108 10.5905 4.44995 10.8521C4.81697 11.6059 4.81708 12.3639 4.44995 13.1177C4.11396 13.7973 3.42249 14.3248 2.66479 14.4732C2.49003 14.5082 2.33819 14.5275 2.32495 14.5162C2.31324 14.5045 2.27024 14.3402 2.2312 14.149C1.91482 12.6921 1.92269 11.1762 2.25464 9.70758L2.31323 9.43805L2.49683 9.46539ZM21.2507 9.50836C21.6803 9.41463 21.6648 9.41073 21.7351 9.70758C22.0631 11.1762 22.071 12.6921 21.7546 14.149C21.7156 14.3402 21.6726 14.5045 21.6609 14.5162C21.6484 14.5277 21.4962 14.5082 21.321 14.4732C20.1454 14.2428 19.2587 13.1723 19.2585 11.9849C19.2585 11.61 19.3524 11.227 19.5359 10.8521C19.8523 10.2076 20.5554 9.6568 21.2507 9.50836ZM11.571 12.1099C11.8015 11.9967 12.1687 11.9967 12.4031 12.106C12.7583 12.2741 13.0085 12.7234 12.95 13.0904C12.9108 13.313 12.7506 13.6061 12.5945 13.7232C11.993 14.1841 11.1611 13.8401 11.0359 13.0904C10.9773 12.731 11.2234 12.2779 11.571 12.1099ZM11.7273 10.0982C11.8991 10.0123 12.0828 10.0162 12.2625 10.1099C12.8048 10.3835 12.6019 11.219 11.9929 11.2193C11.3835 11.2193 11.1804 10.3677 11.7273 10.0982ZM11.0554 2.02399C11.536 1.97323 12.9148 2.00837 13.3992 2.08258C13.8523 2.1529 14.4929 2.28571 14.5242 2.31696C14.5353 2.33086 14.5161 2.48246 14.4812 2.6568C14.3327 3.41057 13.8014 4.10998 13.1257 4.44196C12.3719 4.80909 11.61 4.80899 10.8601 4.44196C10.5985 4.3131 10.4615 4.21127 10.2156 3.96149C9.78208 3.528 9.55157 3.07067 9.47339 2.48883L9.44604 2.30524L9.71558 2.24664C10.0906 2.16071 10.6687 2.06305 11.0554 2.02399Z" fill="white" fill-opacity="0.9"/>
</svg>
