<svg width="24" height="24" viewBox="0 0 24 24" fill="none" xmlns="http://www.w3.org/2000/svg">
<path d="M11.8496 2.25C17.2344 2.25 21.5996 6.61522 21.5996 12C21.5996 17.3848 17.2344 21.75 11.8496 21.75C6.46493 21.7499 2.09961 17.3847 2.09961 12C2.09961 6.61529 6.46493 2.25012 11.8496 2.25ZM9.87109 6.75586C8.79899 6.71641 7.25477 6.9033 6.61621 7.00195C6.361 8.00434 5.85004 10.0383 5.84961 10.1582C5.84961 10.2766 6.13664 10.528 6.28027 10.6387H6.42383C6.40789 12.9743 6.38576 17.6514 6.42383 17.7041C6.4717 17.7534 9.7275 18 9.82324 18C9.89982 18 9.91895 17.9009 9.91895 17.8516L10.1104 12.3779C10.6848 12.9698 11.8435 14.1533 11.8818 14.1533C11.9217 14.1514 12.9836 12.9693 13.5098 12.3779C13.5416 14.1479 13.6051 17.6916 13.6055 17.7529C13.6055 17.7924 13.7649 17.9009 13.8447 17.9502C15.2616 18.0291 16.6049 17.7201 17.0996 17.5557L16.8604 7.10059C16.0944 6.86391 14.4672 6.77231 13.749 6.75586C13.1747 7.46262 11.9973 8.87521 11.8818 8.87598C11.767 8.87598 10.4935 7.46285 9.87109 6.75586Z" fill="white" fill-opacity="0.9"/>
</svg>
