<svg width="24" height="24" viewBox="0 0 24 24" fill="none" xmlns="http://www.w3.org/2000/svg">
<path d="M9.09094 4.14304C10.1915 3.9596 11.4078 3.94234 12.1339 4.09909C12.5025 4.17881 12.687 4.34925 12.7794 4.69577C13.1421 6.05496 16.1901 9.07077 17.2013 9.07077C17.3656 9.07061 17.7402 8.86733 18.0343 8.6196L18.5695 8.16843L19.0197 9.05807C20.8269 12.6309 20.1052 16.9507 17.2169 19.8442C15.3453 21.7192 13.4556 22.505 10.8351 22.4975C7.98979 22.4894 6.13977 21.7318 4.19446 19.7788C2.20463 17.7808 1.35413 15.5548 1.52063 12.7817C1.77924 8.47907 4.97797 4.82847 9.09094 4.14304ZM7.94446 6.06979C7.73256 6.07199 7.28197 6.21085 6.9425 6.37741C5.52149 7.0748 3.92861 9.26389 4.31458 9.98874C4.53438 10.4 4.853 10.3907 5.7218 9.94675C7.66588 8.95292 9.3269 6.0553 7.94446 6.06979ZM14.4464 2.53171C14.7837 2.53171 15.8932 3.11512 16.424 3.57175C16.8817 3.96564 16.9136 4.24966 16.5538 4.72604C16.364 4.97738 16.3479 5.12579 16.4923 5.30026C16.7788 5.64611 17.1167 5.58827 17.4386 5.13815L17.7228 4.74069L18.1632 5.27097C18.7063 5.92387 19.29 7.01862 19.2902 7.38425C19.2902 7.82747 18.3834 7.70975 17.5167 7.15378C15.9704 6.16162 14.1749 3.87145 14.1749 2.89206C14.1749 2.68534 14.2907 2.53178 14.4464 2.53171ZM21.2189 2.06784C21.9305 1.40459 22.1986 1.33896 22.4396 1.76999C22.8151 2.44261 21.3959 3.57993 19.7316 3.93991C19.2465 4.04472 18.5915 4.26555 18.2765 4.43112C17.7228 4.72188 17.6912 4.71973 17.3243 4.35202L16.9454 3.97214L17.5265 3.61765C17.8463 3.42289 18.6664 3.12695 19.3488 2.95944C20.2506 2.73803 20.7612 2.49456 21.2189 2.06784Z" fill="white" fill-opacity="0.9"/>
</svg>
