<svg width="24" height="24" viewBox="0 0 24 24" fill="none" xmlns="http://www.w3.org/2000/svg">
<path d="M13.5518 6.33301C14.7708 6.3348 15.3782 6.38318 16.6572 6.6123C17.929 6.84019 19.7868 7.5149 19.8076 7.52246V12.3193C19.8076 12.4628 19.7166 13.7353 19.4883 14.2832L18.1182 17.1602L18.3379 17.3428C18.5459 17.5162 18.6659 17.7731 18.666 18.0439V21.041C18.666 21.5454 18.5005 21.9541 17.9961 21.9541C17.996 20.1385 16.5237 18.667 14.708 18.667H12.8594C11.0437 18.667 9.57142 20.1385 9.57129 21.9541C9.06698 21.9541 8.80371 21.5454 8.80371 21.041V17.9492C8.80377 17.6544 8.94568 17.3775 9.18555 17.2061L9.44238 17.0225C9.43339 17.016 9.13182 16.7998 8.70117 16.4756C8.22633 16.1181 7.59404 15.6289 7.02246 15.1445C6.53974 14.7355 6.09989 14.3295 5.83496 14.0088C4.69596 12.6299 4.19141 10.9037 4.19141 9.85352C4.19141 9.07754 4.1918 8.63818 5.15039 8.02734C6.50191 7.16612 6.75112 6.96653 6.8252 7.01758C7.02572 7.1573 7.03398 7.4771 7.05371 7.7207L7.15918 9.02734C7.15934 9.029 7.15971 9.03063 7.16016 9.03223C7.1824 9.11084 7.29838 9.0944 7.29785 9.0127L7.29688 8.80371C7.29742 8.79998 7.44327 7.79822 8.40039 7.29688C8.79214 7.09169 9.62892 6.68573 10.4014 6.55664C11.5885 6.35833 12.3152 6.33119 13.5518 6.33301ZM14.7393 19.5342C16.0758 19.5342 17.159 20.6176 17.1592 21.9541H10.4014C10.4015 20.6177 11.4849 19.5343 12.8213 19.5342H14.7393ZM7.66699 10.2275C7.63105 10.2276 7.60039 10.241 7.57422 10.2676C7.54795 10.2942 7.53418 10.3256 7.53418 10.3623V13.5918C7.53418 13.6285 7.54794 13.6608 7.57422 13.6875C7.60031 13.7138 7.63121 13.7274 7.66699 13.7275H8.3125C8.34851 13.7275 8.38003 13.714 8.40625 13.6875C8.43253 13.6608 8.44629 13.6285 8.44629 13.5918V11.9375L8.90918 12.7617C8.9256 12.7884 8.94638 12.8177 8.97266 12.8477C9.00213 12.8742 9.04178 12.8866 9.09082 12.8867H9.40625C9.45527 12.8867 9.49327 12.8741 9.51953 12.8477C9.54909 12.8177 9.57244 12.7884 9.58887 12.7617L10.0518 11.9375V13.5918C10.0518 13.6285 10.0655 13.6608 10.0918 13.6875C10.1179 13.7138 10.1488 13.7274 10.1846 13.7275H10.8301C10.8661 13.7275 10.8976 13.714 10.9238 13.6875C10.9501 13.6608 10.9629 13.6285 10.9629 13.5918V10.3623C10.9629 10.3257 10.95 10.2942 10.9238 10.2676C10.8976 10.2409 10.8662 10.2275 10.8301 10.2275H10.2588C10.1932 10.2276 10.1442 10.2456 10.1113 10.2822C10.0785 10.3189 10.0567 10.3456 10.0469 10.3623L9.24902 11.7471L8.45117 10.3623C8.44132 10.3456 8.41955 10.3189 8.38672 10.2822C8.35393 10.2456 8.30478 10.2276 8.23926 10.2275H7.66699ZM11.7861 10.2275C11.75 10.2275 11.7187 10.2409 11.6924 10.2676C11.6662 10.2942 11.6523 10.3257 11.6523 10.3623V13.5918C11.6523 13.6285 11.6661 13.6608 11.6924 13.6875C11.7186 13.714 11.7501 13.7275 11.7861 13.7275H12.4316C12.4674 13.7274 12.4983 13.7138 12.5244 13.6875C12.5507 13.6608 12.5645 13.6285 12.5645 13.5918V11.9375L13.0273 12.7617C13.0438 12.7884 13.0655 12.8177 13.0918 12.8477C13.1213 12.874 13.161 12.8867 13.21 12.8867H13.5254C13.5744 12.8866 13.6125 12.8742 13.6387 12.8477C13.6682 12.8177 13.6906 12.7884 13.707 12.7617L14.1699 11.9375V13.5918C14.1699 13.6285 14.1837 13.6608 14.21 13.6875C14.2362 13.714 14.2677 13.7275 14.3037 13.7275H14.9482C14.9842 13.7275 15.0158 13.7139 15.042 13.6875C15.0683 13.6608 15.082 13.6285 15.082 13.5918V10.3623C15.082 10.3257 15.0682 10.2942 15.042 10.2676C15.0157 10.2409 14.9844 10.2275 14.9482 10.2275H14.377C14.3114 10.2276 14.2623 10.2456 14.2295 10.2822C14.1966 10.3189 14.1749 10.3456 14.165 10.3623L13.3672 11.7471L12.5693 10.3623C12.5595 10.3456 12.5377 10.3189 12.5049 10.2822C12.4721 10.2456 12.423 10.2276 12.3574 10.2275H11.7861ZM16.7959 10.2275C16.7303 10.2275 16.6797 10.2457 16.6436 10.2822C16.6107 10.3189 16.5874 10.3559 16.5742 10.3926L15.5 13.542C15.4869 13.5753 15.4805 13.6005 15.4805 13.6172C15.4805 13.6471 15.4901 13.674 15.5098 13.6973C15.5328 13.7173 15.5593 13.7275 15.5889 13.7275H16.21C16.2754 13.7275 16.3214 13.714 16.3477 13.6875C16.3771 13.6577 16.3947 13.6291 16.4014 13.6025L16.54 13.1875H17.8506L17.9883 13.6025C17.9949 13.6291 18.011 13.6576 18.0371 13.6875C18.0667 13.7142 18.115 13.7275 18.1807 13.7275H18.8008C18.8303 13.7275 18.8553 13.7173 18.875 13.6973C18.898 13.6739 18.9092 13.6472 18.9092 13.6172C18.9092 13.6005 18.9028 13.5753 18.8896 13.542L17.8154 10.3926C17.8023 10.356 17.7782 10.3188 17.7422 10.2822C17.7093 10.2456 17.6594 10.2275 17.5938 10.2275H16.7959ZM17.5938 12.4121H16.7959L17.1953 11.2119L17.5938 12.4121ZM12.6846 2C13.5441 2 13.5517 3.07612 13.5518 3.0957C13.5545 3.08212 13.6967 2.41113 14.4199 2.41113H15.6523C16.7026 2.41113 16.6572 3.59863 16.6572 3.59863C16.6572 3.59863 17.0222 3.30736 17.5244 3.27832C19.7662 3.14899 19.8107 5.0148 19.8086 5.22363L19.8076 5.23633V6.76758C18.6911 6.33379 17.5808 6.06158 16.6572 5.88672C15.5645 5.67986 14.5592 5.56842 13.5518 5.56152C12.5383 5.5546 11.5884 5.60741 10.4014 5.79004C9.73416 5.92016 8.80279 6.15572 8.25488 6.6123C7.57051 7.18278 7.48343 7.59562 7.3418 8.43848C7.33794 8.46141 7.33414 8.48427 7.33008 8.50684C7.31322 8.60038 7.29691 8.69372 7.29688 8.80371V3.66016C7.29736 3.64234 7.29806 3.62426 7.30078 3.60645C7.33018 3.41456 7.5241 2.54806 8.62012 2.54785H9.625C10.3098 2.54785 10.4014 3.2334 10.4014 3.2334C10.4014 3.2334 10.3558 2.00007 11.3604 2H12.6846Z" fill="white" fill-opacity="0.9"/>
</svg>
