<svg width="24" height="24" viewBox="0 0 24 24" fill="none" xmlns="http://www.w3.org/2000/svg">
<path fill-rule="evenodd" clip-rule="evenodd" d="M12.0231 1.53327C8.16698 1.9491 4.67095 4.3111 2.85836 7.72521C2.72704 7.97251 2.61964 8.1889 2.61964 8.20611C2.61964 8.22333 4.75734 8.23741 7.37005 8.23741H12.1205L12.3297 8.34297C12.4823 8.41992 12.5683 8.50582 12.6469 8.65966C12.7545 8.87009 12.7548 8.87614 12.7375 10.4894C12.7217 11.9601 12.711 12.1409 12.621 12.4667C12.3276 13.5289 11.516 14.4952 10.5681 14.9111C10.4655 14.9561 8.52853 15.6662 6.26368 16.4892C3.99883 17.3121 2.13469 17.9965 2.12113 18.0101C2.08591 18.0453 2.26962 18.683 2.48878 19.2864C2.97228 20.6176 3.85925 22.0636 4.39537 22.3944C4.49151 22.4538 4.64197 22.4999 4.74013 22.5C4.85794 22.5001 6.66275 21.8242 10.3212 20.4096C13.2951 19.2598 16.9722 17.8399 18.4927 17.2544C20.8895 16.3315 21.2797 16.1678 21.4256 16.0241C21.5717 15.8801 21.62 15.7689 21.7919 15.1796C22.0364 14.3413 22.2353 13.4386 22.3655 12.5772C22.4919 11.7398 22.54 10.2001 22.4629 9.45341C22.0176 5.14237 19.2928 2.27391 15.0013 1.59881C14.4097 1.50573 12.6396 1.46679 12.0231 1.53327ZM1.99427 9.77395C1.95328 9.84193 1.72952 10.7987 1.66226 11.1932C1.5279 11.9819 1.4801 12.7842 1.50735 13.7934C1.53123 14.6769 1.66719 16.0572 1.76474 16.407L1.79888 16.5293L5.88252 15.0436C8.12852 14.2264 10.06 13.5028 10.1745 13.4356C10.4525 13.2727 10.8359 12.8605 10.9869 12.5624C11.2133 12.1156 11.2492 11.8685 11.2492 10.7611V9.73876H6.63236C4.09305 9.73876 2.00595 9.75457 1.99427 9.77395Z" fill="white" fill-opacity="0.9"/>
</svg>
