<svg width="24" height="24" viewBox="0 0 24 24" fill="none" xmlns="http://www.w3.org/2000/svg">
<path d="M12 2.25C6.61522 2.25 2.25 6.61522 2.25 12C2.25 17.3848 6.61522 21.75 12 21.75C17.3848 21.75 21.75 17.3848 21.75 12C21.75 6.61522 17.3848 2.25 12 2.25ZM11.334 7.29883C11.5435 6.65393 12.4565 6.65393 12.666 7.29883L13.3584 9.43066C13.4522 9.71896 13.7212 9.91406 14.0244 9.91406H16.2656C16.9435 9.91438 17.2253 10.7822 16.6768 11.1807L14.8633 12.498C14.6182 12.6763 14.5158 12.992 14.6094 13.2803L15.3018 15.4121C15.5111 16.057 14.7732 16.5929 14.2246 16.1943L12.4111 14.877C12.1659 14.699 11.8341 14.699 11.5889 14.877L9.77539 16.1943C9.22683 16.5929 8.48886 16.057 8.69824 15.4121L9.39063 13.2803C9.48425 12.992 9.38183 12.6763 9.13672 12.498L7.32324 11.1807C6.77474 10.7822 7.05654 9.91438 7.73438 9.91406H9.97559C10.2788 9.91406 10.5478 9.71896 10.6416 9.43066L11.334 7.29883Z" fill="white" fill-opacity="0.9"/>
</svg>
