<svg width="24" height="24" viewBox="0 0 24 24" fill="none" xmlns="http://www.w3.org/2000/svg">
<path d="M18.5156 8.75C19.3734 8.75 20.1962 9.09269 20.8027 9.70215C21.4092 10.3115 21.7499 11.1382 21.75 12V15.25C21.75 16.112 21.4093 16.9393 20.8027 17.5488C20.1962 18.1582 19.3734 18.5 18.5156 18.5H17.4375C17.4375 19.362 17.0968 20.1893 16.4902 20.7988C15.8837 21.4082 15.0609 21.75 14.2031 21.75H7.73438C6.87663 21.75 6.05382 21.4082 5.44727 20.7988C4.8407 20.1893 4.5 19.362 4.5 18.5V8.75H18.5156ZM9.08203 11.1934C8.63564 11.1934 8.27367 11.5556 8.27344 12.002V16.8848C8.27344 17.3313 8.63549 17.6933 9.08203 17.6934C9.52861 17.6934 9.89062 17.3313 9.89062 16.8848V12.002C9.89039 11.5556 9.52846 11.1934 9.08203 11.1934ZM13.125 11.1934C12.6786 11.1934 12.3166 11.5556 12.3164 12.002V16.8848C12.3164 17.3313 12.6784 17.6934 13.125 17.6934C13.5716 17.6933 13.9336 17.3313 13.9336 16.8848V12.002C13.9334 11.5556 13.5714 11.1934 13.125 11.1934ZM17.4375 16.334H18.5156C18.8016 16.334 19.0761 16.2198 19.2783 16.0166C19.4805 15.8134 19.5938 15.5373 19.5938 15.25V12C19.5936 11.7129 19.4803 11.4374 19.2783 11.2344C19.0761 11.0312 18.8016 10.917 18.5156 10.917H17.4375V16.334ZM10.8027 2.30176C11.6642 2.17445 12.544 2.28231 13.3496 2.61426C14.1552 2.94621 14.8574 3.49011 15.3818 4.18848C15.55 4.41121 16.5912 3.78376 17.4375 4.88184C18.0567 5.68548 17.4376 6.88492 16.8105 7.49609H4.5C4.63407 6.56265 4.64178 5.17226 5.87109 4.2002C6.59513 3.60006 7.74804 3.9196 8.68555 3.96484C9.36172 3.41381 9.94149 2.42904 10.8027 2.30176Z" fill="white" fill-opacity="0.9"/>
</svg>
