<svg width="24" height="24" viewBox="0 0 24 24" fill="none" xmlns="http://www.w3.org/2000/svg">
<path d="M12 1.5C17.799 1.5 22.5 6.20101 22.5 12C22.5 17.799 17.799 22.5 12 22.5C6.20101 22.5 1.5 17.799 1.5 12C1.5 6.20101 6.20101 1.5 12 1.5ZM5.625 10.125C4.58947 10.125 3.75 10.9645 3.75 12C3.75 13.0355 4.58947 13.875 5.625 13.875C6.66053 13.875 7.5 13.0355 7.5 12C7.5 10.9645 6.66053 10.125 5.625 10.125ZM12 10.125C10.9645 10.125 10.125 10.9645 10.125 12C10.125 13.0355 10.9645 13.875 12 13.875C13.0355 13.875 13.875 13.0355 13.875 12C13.875 10.9645 13.0355 10.125 12 10.125ZM18.375 10.125C17.3395 10.125 16.5 10.9645 16.5 12C16.5 13.0355 17.3395 13.875 18.375 13.875C19.4105 13.875 20.25 13.0355 20.25 12C20.25 10.9645 19.4105 10.125 18.375 10.125Z" fill="white" fill-opacity="0.9"/>
</svg>
