<svg width="24" height="24" viewBox="0 0 24 24" fill="none" xmlns="http://www.w3.org/2000/svg">
<path d="M11.7034 21.8438H10.0985C10.0985 21.8438 11.7457 15.7823 11.809 11.8117C11.8136 11.5367 12.191 11.5367 12.191 11.8117C12.191 17.5329 11.7034 21.8438 11.7034 21.8438Z" fill="white" fill-opacity="0.9"/>
<path d="M20.5267 8.66496C17.4949 6.55675 12.9864 11.0275 12.4805 11.6634C12.7669 12.1788 14.4804 18.7269 18.0461 18.4939C21.3615 18.278 20.8831 14.3806 19.4462 13.6242C21.1781 13.6377 23.2502 10.5586 20.5267 8.66496Z" fill="white" fill-opacity="0.9"/>
<path d="M16.7814 4.10368C15.7304 0.860823 12.3156 2.31573 12 3.93535C11.5659 2.20942 8.23539 0.921526 7.21918 4.10631C6.08748 7.65268 11.6013 10.7856 11.9967 11.3073C12.3904 10.8926 17.9134 7.59264 16.7814 4.10368Z" fill="white" fill-opacity="0.9"/>
<path d="M3.47299 8.66493C0.750208 10.5585 2.8233 13.6377 4.55416 13.6242C3.11697 14.3809 2.63922 18.278 5.95427 18.4939C9.52033 18.7266 11.2256 12.1791 11.5117 11.6637C10.988 11.0278 6.48583 6.57116 3.47299 8.66493Z" fill="white" fill-opacity="0.9"/>
</svg>
