<svg width="24" height="24" viewBox="0 0 24 24" fill="none" xmlns="http://www.w3.org/2000/svg">
<path d="M4.5 15.75C6.15685 15.75 7.5 17.0931 7.5 18.75C7.5 20.4069 6.15685 21.75 4.5 21.75C2.84315 21.75 1.5 20.4069 1.5 18.75C1.5 17.0931 2.84315 15.75 4.5 15.75ZM12 15.75C13.6569 15.75 15 17.0931 15 18.75C15 20.4069 13.6569 21.75 12 21.75C10.3431 21.75 9 20.4069 9 18.75C9 17.0931 10.3431 15.75 12 15.75ZM19.5 15.75C21.1569 15.75 22.5 17.0931 22.5 18.75C22.5 20.4069 21.1569 21.75 19.5 21.75C17.8431 21.75 16.5 20.4069 16.5 18.75C16.5 17.0931 17.8431 15.75 19.5 15.75ZM8.25 9C9.90685 9 11.25 10.3431 11.25 12C11.25 13.6569 9.90685 15 8.25 15C6.59315 15 5.25 13.6569 5.25 12C5.25 10.3431 6.59315 9 8.25 9ZM15.75 9C17.4069 9 18.75 10.3431 18.75 12C18.75 13.6569 17.4069 15 15.75 15C14.0931 15 12.75 13.6569 12.75 12C12.75 10.3431 14.0931 9 15.75 9ZM12 2.25C13.6569 2.25 15 3.59315 15 5.25C15 6.90685 13.6569 8.25 12 8.25C10.3431 8.25 9 6.90685 9 5.25C9 3.59315 10.3431 2.25 12 2.25Z" fill="white" fill-opacity="0.9"/>
</svg>
