<svg width="24" height="24" viewBox="0 0 24 24" fill="none" xmlns="http://www.w3.org/2000/svg">
<path d="M7.80184 11.25H5.78747C5.61138 11.25 5.51411 11.0324 5.62237 10.8935C5.84191 10.6119 6.1135 10.2069 6.19304 9.84278C6.2687 9.49643 6.19304 8.93814 6.19304 8.93814C6.19304 8.93814 5.08544 9.53164 4.33598 9.44072C3.13823 9.29542 2.13614 8.43565 2.26045 7.3299C2.55696 4.69244 5.98355 2.05498 6.63326 1.57673C6.69749 1.52945 6.78253 1.52672 6.84934 1.57026C7.51881 2.00653 11.0205 4.42171 11.218 7.3299C11.2883 8.36421 10.5659 9.20081 9.4702 9.44072C8.65482 9.61926 7.39466 8.93814 7.39466 8.93814C7.39466 8.93814 7.32426 9.49549 7.39466 9.84278C7.46697 10.1995 7.74356 10.6096 7.96646 10.8948C8.07476 11.0333 7.97769 11.25 7.80184 11.25Z" fill="white" fill-opacity="0.9"/>
<path d="M19.4049 2.29614C17.9774 2.29614 17.2637 3.7785 17.2637 3.7785C17.2637 3.7785 16.55 2.29613 14.9186 2.29614C13.6487 2.29615 12.7774 3.51866 12.7773 4.83732C12.7773 7.70896 16.4439 10.6671 17.1477 11.2084C17.2167 11.2616 17.3107 11.2616 17.3797 11.2084C18.0835 10.6671 21.7501 7.70896 21.7501 4.83732C21.7501 3.46279 20.7286 2.29614 19.4049 2.29614Z" fill="white" fill-opacity="0.9"/>
<path d="M2.38202 17.4887L6.54584 12.9074C6.62455 12.8208 6.76048 12.8199 6.84023 12.9056L11.1056 17.487C11.1771 17.5637 11.1771 17.6827 11.1056 17.7595L6.84023 22.3409C6.76048 22.4265 6.62455 22.4257 6.54584 22.3391L2.38202 17.7578C2.3127 17.6815 2.3127 17.565 2.38202 17.4887Z" fill="white" fill-opacity="0.9"/>
<path d="M14.8979 14.2206C14.7275 14.9485 15.3012 16.0917 15.3012 16.0917C15.3012 16.0917 12.5791 15.7962 12.5791 18.3567C12.5791 19.5263 13.5996 20.4285 14.7971 20.4247C15.4847 20.4225 16.4102 19.7354 16.4102 19.7354C16.4102 19.7354 16.4346 20.4705 16.3093 20.9171C16.2214 21.2308 16.0026 21.6051 15.8318 21.8677C15.7418 22.0061 15.8398 22.1973 16.0048 22.1973H18.1821C18.3548 22.1973 18.4518 21.9886 18.3482 21.8504C18.1544 21.5919 17.9152 21.2308 17.8216 20.9171C17.6999 20.5093 17.7208 19.8338 17.7208 19.8338C17.7208 19.8338 18.7266 20.4733 19.4347 20.4247C20.6011 20.3447 21.5518 19.4988 21.5518 18.3567C21.5518 15.7962 18.9306 16.0917 18.9306 16.0917C18.9306 16.0917 19.5858 14.9616 19.4347 14.2206C19.21 13.119 18.2655 12.4236 17.1159 12.4479C15.997 12.4716 15.1474 13.1549 14.8979 14.2206Z" fill="white" fill-opacity="0.9"/>
</svg>
