<svg width="24" height="24" viewBox="0 0 24 24" fill="none" xmlns="http://www.w3.org/2000/svg">
<path d="M12 2C17.5228 2 22 6.47715 22 12C22 17.5228 17.5228 22 12 22C6.47715 22 2 17.5228 2 12C2 6.47715 6.47715 2 12 2ZM12 4.5C7.85786 4.5 4.5 7.85786 4.5 12C4.5 16.1421 7.85786 19.5 12 19.5C16.1421 19.5 19.5 16.1421 19.5 12C19.5 11.0559 19.3233 10.1534 19.0049 9.32129C19.3136 8.94415 19.5 8.46292 19.5 7.9375C19.5 6.72938 18.5206 5.75 17.3125 5.75C16.994 5.75 16.6919 5.81904 16.4189 5.94141C15.1795 5.03582 13.6526 4.5 12 4.5ZM12 5.75C13.2764 5.75 14.4629 6.13327 15.4521 6.79004C15.2458 7.12385 15.125 7.51624 15.125 7.9375C15.125 9.14562 16.1044 10.125 17.3125 10.125C17.5282 10.125 17.7358 10.0913 17.9326 10.0332C18.1376 10.6518 18.25 11.3127 18.25 12C18.25 15.4518 15.4518 18.25 12 18.25C8.54822 18.25 5.75 15.4518 5.75 12C5.75 8.54822 8.54822 5.75 12 5.75ZM11.2031 8.33203L10.8555 8.4248C10.5592 8.50432 10.3835 8.80918 10.4629 9.10547L10.8428 10.5244C10.4637 10.822 10.2121 11.2574 10.1436 11.7344L8.72363 12.1143C8.42726 12.1937 8.25164 12.4986 8.33105 12.7949L8.42383 13.1426C8.50343 13.4387 8.80827 13.6145 9.10449 13.5352L10.5225 13.1553C10.8205 13.5362 11.2576 13.7881 11.7363 13.8564L12.1162 15.2764C12.1956 15.5727 12.5005 15.7484 12.7969 15.6689L13.1445 15.5762C13.4407 15.4966 13.6165 15.1917 13.5371 14.8955L13.1562 13.4766C13.5371 13.178 13.7897 12.7409 13.8574 12.2617L15.2754 11.8818C15.5717 11.8024 15.7473 11.4975 15.668 11.2012L15.5752 10.8535C15.4957 10.5573 15.1908 10.3815 14.8945 10.4609L13.4746 10.8418C13.1765 10.4627 12.7412 10.2115 12.2637 10.1436L11.8838 8.72461C11.8044 8.42827 11.4995 8.25268 11.2031 8.33203Z" fill="white" fill-opacity="0.9"/>
</svg>
