<svg width="24" height="24" viewBox="0 0 24 24" fill="none" xmlns="http://www.w3.org/2000/svg">
<path d="M11.8135 15.2139C12.0306 13.7609 15.56 12.1981 16.918 14.9668C18.3792 17.9454 12.7494 21.3525 12.3594 21.75C12.0585 21.4715 9.34903 20.3727 7.76855 18.748C7.16528 18.5361 6.59848 18.2319 6.08887 17.8457C5.47131 17.3764 4.95493 16.7868 4.57031 16.1133C4.20007 15.4617 3.96977 14.7398 3.89453 13.9941C4.09562 14.687 4.43979 15.3308 4.9043 15.8828C5.35287 16.4133 5.90377 16.8481 6.52441 17.1602C6.61141 17.2037 6.70206 17.2387 6.79102 17.2773C6.61926 16.7982 6.57957 16.2911 6.73535 15.7598C7.58324 12.8716 11.2241 13.7303 11.8135 15.2139ZM18.4805 10.3066C18.4616 9.42427 20.3937 8.16552 21.4805 9.67871C22.2944 10.8129 21.0884 12.3948 20.2178 13.3418C20.2467 13.6716 20.2558 14.0025 20.2285 14.3252C20.1632 15.1252 19.9367 15.9036 19.5635 16.6143C18.8355 18.011 17.5761 19.0384 16.1855 19.4971C17.4707 18.788 18.4209 17.6048 18.8145 16.3008C19.0125 15.6633 19.0787 14.992 19.0098 14.3281C18.9951 14.1949 18.9723 14.0642 18.9473 13.9355C17.8206 13.5618 15.3387 12.7211 15.5264 11.1084C15.736 9.31742 17.9795 9.4819 18.4805 10.3066ZM9.4082 3.57227C8.20218 4.40914 7.37816 5.68383 7.12012 7.02148C7.03906 7.44001 7.01138 7.86751 7.03809 8.29297C8.09011 7.94237 9.77621 8.27857 9.87793 10.0029C10.0212 12.4412 5.17124 13.2711 4.78906 13.4404C4.5961 13.0231 1.07828 9.77197 2.65527 7.81543C3.75147 6.4564 5.3487 7.0884 6.00391 7.98926C6.07435 7.57756 6.18743 7.17424 6.3418 6.78613C6.92255 5.32206 8.07153 4.17092 9.4082 3.57227ZM11.0723 2.69629C12.2255 1.56198 13.6912 2.84964 13.5752 3.68262C14.0051 3.13003 15.6725 3.17993 15.9658 4.33789C16.3662 4.45962 16.753 4.62249 17.1201 4.82324C17.8009 5.19536 18.4002 5.70152 18.8809 6.31055C19.3436 6.89979 19.6778 7.57949 19.8623 8.30566C19.5606 7.6505 19.1253 7.06559 18.584 6.58887C18.0614 6.1308 17.4513 5.78301 16.791 5.56641C16.4843 5.46614 16.1687 5.39479 15.8486 5.35352C15.1434 6.60135 12.3627 6.77388 12.1094 6.85254C12.0077 6.54127 9.78847 3.95896 11.0723 2.69629Z" fill="white" fill-opacity="0.9"/>
</svg>
