<svg width="24" height="24" viewBox="0 0 24 24" fill="none" xmlns="http://www.w3.org/2000/svg">
<path fill-rule="evenodd" clip-rule="evenodd" d="M6.625 2.625C4.41586 2.625 2.625 4.41586 2.625 6.625L2.625 17.375C2.625 19.5841 4.41586 21.375 6.625 21.375L17.375 21.375C19.5841 21.375 21.375 19.5841 21.375 17.375L21.375 6.625C21.375 4.41586 19.5841 2.625 17.375 2.625L6.625 2.625ZM4.125 11.1066C4.125 11.1066 4.26011 10.0253 4.9125 9.7813C5.73771 9.47268 6.4875 11.5483 6.4875 11.5483C6.4875 11.5483 7.19265 9.7813 8.0625 9.7813C8.93235 9.7813 9.6375 11.5483 9.6375 11.5483C9.6375 11.5483 10.3873 9.47268 11.2125 9.7813C11.8648 10.0253 12 11.5483 12 11.5483C12 11.5483 12.7052 9.7813 13.575 9.7813C14.4448 9.7813 15.15 11.5483 15.15 11.5483C15.15 11.5483 15.2852 10.0253 15.9375 9.7813C16.7627 9.47268 17.5125 11.5483 17.5125 11.5483C17.5125 11.5483 18.2623 9.47268 19.0875 9.7813C19.7399 10.0253 19.875 11.1066 19.875 11.1066V17.7017C19.875 17.7017 19.7399 19.2248 19.0875 19.4687C18.2623 19.7773 17.5125 17.7017 17.5125 17.7017C17.5125 17.7017 16.7627 19.7773 15.9375 19.4687C15.2852 19.2248 15.15 17.7017 15.15 17.7017C15.15 17.7017 14.4448 19.4687 13.575 19.4687C12.7052 19.4687 12 17.7017 12 17.7017C12 17.7017 11.8648 19.2248 11.2125 19.4687C10.3873 19.7773 9.6375 17.7017 9.6375 17.7017C9.6375 17.7017 8.93235 19.4687 8.0625 19.4687C7.19265 19.4687 6.4875 17.7017 6.4875 17.7017C6.4875 17.7017 5.73771 19.7773 4.9125 19.4687C4.26011 19.2248 4.125 17.7017 4.125 17.7017L4.125 11.1066ZM7.83681 7.47605C7.85105 7.59203 7.73307 7.67904 7.62647 7.63117L6.8262 7.27179C6.78644 7.25393 6.74087 7.25426 6.70136 7.27268L5.9063 7.64345C5.80039 7.69283 5.68119 7.60752 5.69377 7.49135L5.78827 6.61919C5.79296 6.57585 5.77857 6.53261 5.74884 6.50073L5.15053 5.85915C5.07084 5.77369 5.11514 5.63396 5.22952 5.61003L6.08819 5.43039C6.13086 5.42146 6.16753 5.39441 6.18867 5.35628L6.61395 4.589C6.6706 4.4868 6.81719 4.48575 6.87529 4.58714L7.31149 5.34827C7.33316 5.38609 7.37022 5.41261 7.41301 5.42093L8.27416 5.5883C8.38887 5.61059 8.43516 5.74968 8.35669 5.83627L7.7676 6.48632C7.73833 6.51862 7.72456 6.56206 7.72987 6.60533L7.83681 7.47605ZM13.0809 7.47605C13.0952 7.59203 12.9772 7.67904 12.8706 7.63117L12.0703 7.27179C12.0306 7.25393 11.985 7.25426 11.9455 7.27268L11.1504 7.64345C11.0445 7.69283 10.9253 7.60752 10.9379 7.49135L11.0324 6.61919C11.0371 6.57585 11.0227 6.53261 10.993 6.50073L10.3947 5.85915C10.315 5.77369 10.3593 5.63396 10.4737 5.61003L11.3323 5.43039C11.375 5.42146 11.4117 5.39441 11.4328 5.35628L11.8581 4.589C11.9147 4.4868 12.0613 4.48575 12.1194 4.58714L12.5556 5.34827C12.5773 5.38609 12.6144 5.41261 12.6572 5.42093L13.5183 5.5883C13.633 5.61059 13.6793 5.74968 13.6008 5.83627L13.0117 6.48632C12.9825 6.51862 12.9687 6.56206 12.974 6.60533L13.0809 7.47605ZM18.114 7.63117C18.2206 7.67904 18.3386 7.59203 18.3244 7.47605L18.2174 6.60533C18.2121 6.56206 18.2259 6.51862 18.2552 6.48632L18.8442 5.83627C18.9227 5.74968 18.8764 5.61059 18.7617 5.5883L17.9006 5.42093C17.8578 5.41261 17.8207 5.38609 17.799 5.34827L17.3628 4.58714C17.3047 4.48575 17.1582 4.4868 17.1015 4.589L16.6762 5.35628C16.6551 5.39441 16.6184 5.42146 16.5757 5.43039L15.7171 5.61003C15.6027 5.63396 15.5584 5.77369 15.6381 5.85915L16.2364 6.50073C16.2661 6.53261 16.2805 6.57585 16.2758 6.61919L16.1813 7.49135C16.1687 7.60752 16.2879 7.69283 16.3938 7.64345L17.1889 7.27268C17.2284 7.25426 17.274 7.25393 17.3138 7.27179L18.114 7.63117Z" fill="white" fill-opacity="0.9"/>
<path d="M7.4738 14.2057C7.4248 14.2442 7.3723 14.2495 7.3163 14.2215C7.2638 14.1935 7.23755 14.148 7.23755 14.085V13.7017C7.23755 13.5022 7.31805 13.3447 7.47905 13.2292L8.0093 12.8407C8.1668 12.7252 8.34705 12.6675 8.55005 12.6675H8.8808C8.9613 12.6675 9.0313 12.6972 9.0908 12.7567C9.1503 12.8162 9.18005 12.8862 9.18005 12.9667V16.2007C9.18005 16.2812 9.1503 16.3512 9.0908 16.4107C9.0313 16.4702 8.9613 16.5 8.8808 16.5H8.55005C8.46955 16.5 8.39955 16.4702 8.34005 16.4107C8.28055 16.3512 8.2508 16.2812 8.2508 16.2007V13.6492H8.2403L7.4738 14.2057Z" fill="white" fill-opacity="0.9"/>
<path d="M12.3111 13.581C12.2131 13.3885 12.0591 13.2922 11.8491 13.2922C11.6391 13.2922 11.4833 13.3885 11.3818 13.581C11.2838 13.7735 11.2348 14.1077 11.2348 14.5837C11.2348 15.0597 11.2838 15.394 11.3818 15.5865C11.4833 15.779 11.6391 15.8752 11.8491 15.8752C12.0591 15.8752 12.2131 15.779 12.3111 15.5865C12.4126 15.394 12.4633 15.0597 12.4633 14.5837C12.4633 14.1077 12.4126 13.7735 12.3111 13.581ZM12.9936 16.0905C12.7451 16.3985 12.3636 16.5525 11.8491 16.5525C11.3346 16.5525 10.9513 16.3985 10.6993 16.0905C10.4508 15.7825 10.3266 15.2802 10.3266 14.5837C10.3266 13.8872 10.4508 13.385 10.6993 13.077C10.9513 12.769 11.3346 12.615 11.8491 12.615C12.3636 12.615 12.7451 12.769 12.9936 13.077C13.2456 13.385 13.3716 13.8872 13.3716 14.5837C13.3716 15.2802 13.2456 15.7825 12.9936 16.0905Z" fill="white" fill-opacity="0.9"/>
<path d="M15.7257 13.581C15.6277 13.3885 15.4736 13.2922 15.2636 13.2922C15.0537 13.2922 14.8979 13.3885 14.7964 13.581C14.6984 13.7735 14.6494 14.1077 14.6494 14.5837C14.6494 15.0597 14.6984 15.394 14.7964 15.5865C14.8979 15.779 15.0537 15.8752 15.2636 15.8752C15.4736 15.8752 15.6277 15.779 15.7257 15.5865C15.8272 15.394 15.8779 15.0597 15.8779 14.5837C15.8779 14.1077 15.8272 13.7735 15.7257 13.581ZM16.4082 16.0905C16.1597 16.3985 15.7782 16.5525 15.2636 16.5525C14.7492 16.5525 14.3659 16.3985 14.1139 16.0905C13.8654 15.7825 13.7412 15.2802 13.7412 14.5837C13.7412 13.8872 13.8654 13.385 14.1139 13.077C14.3659 12.769 14.7492 12.615 15.2636 12.615C15.7782 12.615 16.1597 12.769 16.4082 13.077C16.6602 13.385 16.7862 13.8872 16.7862 14.5837C16.7862 15.2802 16.6602 15.7825 16.4082 16.0905Z" fill="white" fill-opacity="0.9"/>
</svg>
