<svg width="24" height="24" viewBox="0 0 24 24" fill="none" xmlns="http://www.w3.org/2000/svg">
<g clip-path="url(#clip0_35_8554)">
<path d="M7.43848 17.6562C8.13251 18.8624 8.40837 20.4879 8.43555 21.6367C7.74791 22.1769 6.88103 22.4999 5.93848 22.4999C5.89497 22.4999 5.85177 22.4974 5.80859 22.496C6.11256 21.8283 6.37348 20.7812 6.64551 19.6113C6.7376 19.2152 6.81677 18.8729 6.87988 18.6591C7.02408 18.1712 7.16931 17.8561 7.43848 17.6562ZM19.4854 22.2597C19.3211 22.3188 19.153 22.3678 18.9824 22.4052C18.5002 22.511 17.9972 22.5282 17.5078 22.456L17.9785 22.3544L19.4277 22.1796L19.4854 22.2597ZM6.86035 16.8681C6.99054 17.0047 7.11097 17.1551 7.22266 17.3154C6.85061 17.5781 6.65899 17.9835 6.49316 18.5449C6.42664 18.77 6.3455 19.1173 6.25195 19.5195C6.05707 20.3576 5.7292 21.7676 5.38086 22.4609C4.42418 22.3288 3.57412 21.8626 2.95312 21.1835C3.13928 19.5663 5.18516 17.6996 6.67871 16.6835C6.7398 16.7434 6.8002 16.805 6.86035 16.8681ZM17.8184 21.4628L17.8965 22.0253L16.7607 22.2724C16.464 22.1692 16.1804 22.032 15.915 21.8642C15.7408 21.7538 15.5744 21.6304 15.4189 21.4951L15.2354 20.5536L16.1699 20.4072L17.8184 21.4628ZM21.5254 20.6337C21.2412 21.0792 20.8671 21.4687 20.4326 21.7714C20.2362 21.9082 20.0266 22.0277 19.8086 22.1279L19.7285 22.0165L20.4902 21.1611L21.6543 20.416C21.6135 20.4898 21.5708 20.5626 21.5254 20.6337ZM8.31543 17.3749C8.88838 17.3104 9.50948 18.0429 9.97852 18.6191C9.93761 19.6574 9.50507 20.5946 8.82422 21.288C8.7586 20.1903 8.49094 18.6748 7.80371 17.4755C7.94747 17.4297 8.11613 17.3974 8.31543 17.3749ZM19.3135 18.6816L19.251 20.5204L18.001 21.1786L16.3838 20.1415L16.4062 18.7578L18.1113 17.9745L19.3135 18.6816ZM14.3311 18.9453L14.8213 20.1894H14.8193L14.9893 21.0595C14.9104 20.9669 14.8348 20.8716 14.7646 20.7724C14.458 20.3386 14.237 19.8436 14.1201 19.3271C14.0863 19.1776 14.0614 19.0263 14.0449 18.874L14.3311 18.9453ZM21.7871 18.5595L21.7881 18.5576L21.708 19.9794L20.3086 20.8759L19.5898 20.4941L19.6533 18.6679L20.665 17.8593L21.7871 18.5595ZM5.87207 15.9882C6.03711 16.1135 6.20544 16.2502 6.37305 16.3984C5.87006 16.744 5.31958 17.1746 4.79883 17.6542C3.93033 18.4542 2.916 19.5958 2.62012 20.7665C2.16344 20.1119 1.89453 19.3156 1.89453 18.457C1.89459 18.0734 1.94889 17.7021 2.04883 17.3505C2.56227 17.0642 3.17356 16.95 3.80957 16.832C3.97443 16.8014 4.145 16.7699 4.31152 16.7353C4.90694 16.6115 5.45428 16.3021 5.87207 15.9882ZM15.251 16.0185L14.9883 17.8798L14.3896 18.6122L14.0225 18.5195C14.0172 18.2618 14.0369 18.0039 14.0811 17.7499C14.1717 17.2295 14.3662 16.7266 14.6504 16.2812C14.7534 16.1197 14.8689 15.9656 14.9941 15.8203L15.251 16.0185ZM18.248 16.2822L17.9775 17.664L16.2666 18.4492L15.3359 17.8408L15.5869 16.0634L16.9219 15.3984L18.248 16.2822ZM20.8477 15.5019C21.0572 15.6954 21.2468 15.9102 21.4111 16.1425C21.7178 16.5763 21.9388 17.0713 22.0557 17.5878C22.0756 17.676 22.0925 17.7651 22.1064 17.8544C22.1027 17.8483 22.0988 17.8433 22.0947 17.8408L21.8896 18.2255L20.7637 17.5224L20.0977 16.2089L20.4824 15.4052L20.8477 15.5019ZM8.95312 15.7626C9.48852 16.3604 9.84842 17.1186 9.95215 17.956C9.46842 17.4035 8.90433 16.9019 8.27051 16.9736C8.00155 17.004 7.77681 17.0549 7.58594 17.1269C7.45487 16.9356 7.31181 16.7541 7.1543 16.5888C7.11169 16.544 7.06841 16.5002 7.02539 16.457C7.43766 16.198 7.78506 16.021 8.00293 15.956C8.33496 15.857 8.66092 15.7978 8.95312 15.7626ZM4.01953 14.8994C4.14588 14.9512 4.77474 15.2205 5.52832 15.7392C5.16669 15.9955 4.71321 16.2383 4.23047 16.3388C4.06807 16.3726 3.89925 16.4043 3.73633 16.4345C3.23241 16.528 2.71885 16.6238 2.24512 16.8124C2.60964 15.9959 3.23669 15.3223 4.01953 14.8994ZM6.7373 14.4941C7.43723 14.6341 8.07113 14.9557 8.58984 15.4062C8.36542 15.4445 8.1283 15.4972 7.88672 15.5693C7.61759 15.6496 7.20272 15.8614 6.72168 16.1679C6.54535 16.0076 6.36832 15.8599 6.19434 15.7245C6.37201 15.5655 6.50912 15.4184 6.58984 15.3115C6.75945 15.0863 6.75282 14.7762 6.7373 14.4941ZM18.085 14.415C18.3179 14.4158 18.5509 14.436 18.7803 14.4765C19.0886 14.531 19.3899 14.6212 19.6777 14.7441L20.1885 15.2363L19.792 16.0624L18.5117 16.0566L18.5137 16.0536L17.1738 15.1601L17.6279 14.4482C17.6292 14.4461 17.6259 14.4433 17.6201 14.4404C17.7414 14.427 17.8634 14.4185 17.9854 14.416C18.0186 14.4154 18.0518 14.4148 18.085 14.415ZM5.93945 14.415C6.07083 14.415 6.20087 14.4213 6.3291 14.4335C6.32964 14.4431 6.32959 14.4532 6.33008 14.4628C6.3431 14.6895 6.35801 14.9471 6.2666 15.0683C6.18992 15.1699 6.04927 15.3175 5.86328 15.4775C5.31773 15.0902 4.82686 14.828 4.50977 14.6757C4.95433 14.5077 5.43606 14.415 5.93945 14.415ZM15.791 9.92865C16.5889 9.92885 17.2354 10.5761 17.2354 11.374C17.2352 12.1718 16.5888 12.8181 15.791 12.8183C14.9931 12.8183 14.3458 12.1719 14.3457 11.374C14.3457 10.5759 14.993 9.92865 15.791 9.92865ZM9.16309 10.2656L7.45996 11.9677C7.27194 12.1555 6.96735 12.1555 6.7793 11.9677L6.09766 11.2841C5.90997 11.0962 5.91007 10.7915 6.09766 10.6035L7.80078 8.90228L9.16309 10.2656ZM9.21191 2.72455C10.9263 1.05818 13.6676 1.09713 15.334 2.81146L15.335 2.81342C17.0041 4.50641 16.9849 7.23206 15.292 8.90131C14.6915 9.55013 13.863 9.94087 12.9805 9.99213L8.07227 5.0849C8.12347 4.20214 8.51504 3.37295 9.16406 2.7724C9.17996 2.75646 9.19577 2.74024 9.21191 2.72455ZM12.2822 9.97748C11.0866 9.85277 10.0795 9.34879 9.50391 9.92377L8.1416 8.56146C8.71605 7.98637 8.21216 6.97915 8.08691 5.78314L12.2822 9.97748Z" fill="white" fill-opacity="0.9"/>
</g>
<defs>
<clipPath id="clip0_35_8554">
<rect width="24" height="24" fill="white"/>
</clipPath>
</defs>
</svg>
