<svg width="24" height="24" viewBox="0 0 24 24" fill="none" xmlns="http://www.w3.org/2000/svg">
<path fill-rule="evenodd" clip-rule="evenodd" d="M8.40578 19.5765C9.42807 20.5217 11.0289 21 13.1668 21C15.1977 21 16.8268 20.5906 18.0112 19.7862C19.2224 18.9589 19.9273 17.7437 20.106 16.1765L20.1491 15.8117C20.3336 14.2201 20.0107 13.0365 19.1433 12.1962C18.3192 11.399 17.0278 10.9092 15.0937 10.6564C14.1042 10.5228 13.4644 10.336 13.1401 10.0818C13.0273 9.99808 12.9433 9.88342 12.8992 9.75286C12.8576 9.59961 12.8477 9.4401 12.8692 9.28315L12.8916 9.08061C12.8994 9.00134 12.9154 8.92324 12.9393 8.84744C12.9631 8.7719 12.9948 8.69864 13.0337 8.62882C13.1119 8.48893 13.2185 8.36559 13.347 8.26615C13.691 8.02232 14.1106 7.89872 14.5372 7.91568H14.7514C15.3064 7.91568 15.6798 8.03777 15.9015 8.30063C16.1232 8.5635 16.2183 8.98868 16.1901 9.60203C16.1854 9.72701 16.2069 9.85161 16.2528 9.96853C16.2988 10.0855 16.3685 10.1923 16.458 10.2829C16.5414 10.3679 16.6419 10.4355 16.7535 10.4817C16.8651 10.5279 16.9851 10.5517 17.1066 10.5515H19.984C20.1973 10.5514 20.403 10.4762 20.5631 10.34C20.723 10.2038 20.8261 10.016 20.8529 9.81174C21.1013 7.90849 20.7575 6.45915 19.7966 5.47808C18.8353 4.49699 17.2658 4 15.1158 4C13.0314 4 11.3637 4.45965 10.163 5.38471C9.74133 5.70154 9.38129 6.07246 9.08605 6.49074H5.05675C5.00328 6.49109 4.95126 6.50523 4.90564 6.53167C4.86002 6.55811 4.82253 6.5959 4.79696 6.64108C4.77168 6.68629 4.75918 6.73722 4.76122 6.7886C4.76325 6.83998 4.77953 6.8899 4.80829 6.93317L5.6725 8.22595C5.6818 8.23994 5.69227 8.25307 5.70389 8.26522C5.72597 8.28821 5.75155 8.30767 5.78002 8.32279C5.8239 8.34586 5.87272 8.35802 5.9227 8.35809H8.27095C8.22504 8.56312 8.18958 8.77393 8.16488 8.99011L8.12159 9.35497C8.06492 9.82715 8.0562 10.2622 8.09601 10.6621H2.67624C2.62394 10.6631 2.5728 10.6773 2.52775 10.7035C2.483 10.7296 2.4461 10.7667 2.42111 10.811C2.39583 10.8553 2.38304 10.9052 2.38449 10.9558C2.38566 11.0063 2.40048 11.0556 2.42779 11.0988L3.292 12.3916C3.31903 12.432 3.35593 12.4653 3.39952 12.4884C3.4434 12.5115 3.49222 12.5236 3.5422 12.5237H8.80999C8.8963 12.6325 8.99016 12.7363 9.09157 12.8354C9.89505 13.6168 11.203 14.1124 13.0924 14.3494C14.0819 14.4729 14.7723 14.6754 15.1233 14.9498C15.2462 15.0402 15.3398 15.1629 15.3927 15.3032C15.4354 15.4429 15.447 15.5897 15.4267 15.7341L15.4133 15.8591H15.4046V15.9409C15.3901 16.0963 15.3433 16.2473 15.2666 16.3846C15.1896 16.5219 15.085 16.6427 14.9583 16.7396C14.6441 16.978 14.1873 17.0987 13.6027 17.0987H13.3885C12.8483 17.0987 12.4781 16.9981 12.2279 16.7626C11.978 16.527 11.8591 16.1478 11.8591 15.6005C11.8571 15.3437 11.7502 15.098 11.5616 14.9168C11.4788 14.8342 11.38 14.7684 11.2707 14.7233C11.2111 14.6988 11.1495 14.6806 11.0865 14.669C11.0333 14.6593 10.9789 14.6542 10.9246 14.6539H7.86732C7.70111 14.6539 7.54099 14.7122 7.41604 14.8179L7.41139 14.822H0.295743C0.266103 14.8222 0.236753 14.8266 0.208857 14.8351C0.186482 14.8419 0.164978 14.8512 0.144637 14.8629C0.128655 14.8721 0.113834 14.8827 0.100177 14.8945C0.0743143 14.9165 0.0525203 14.9429 0.0359567 14.9723C0.0106755 15.0175 -0.00181994 15.0684 0.000214183 15.1198C0.0022483 15.1712 0.0185214 15.2211 0.0472897 15.2644L0.911501 16.5572C0.938525 16.5976 0.97543 16.6309 1.01902 16.654C1.0629 16.6771 1.11172 16.6892 1.1617 16.6893H7.12865C7.20652 17.8951 7.63369 18.8603 8.40578 19.5765Z" fill="white" fill-opacity="0.9"/>
</svg>
