<svg width="24" height="24" viewBox="0 0 24 24" fill="none" xmlns="http://www.w3.org/2000/svg">
<path fill-rule="evenodd" clip-rule="evenodd" d="M17.3724 3.05232C16.4351 3.99081 16.1289 4.51826 16.0348 4.78868C15.9838 4.93536 15.9813 5.09844 15.9751 5.25361C15.9684 5.41972 15.9762 5.67223 16.0372 6.00506C16.0613 6.13659 16.0849 6.26364 16.1073 6.38265C16.2058 6.90499 16.5671 7.2468 17.0877 7.35416C17.2217 7.38179 17.3704 7.4111 17.5335 7.44041L18.2575 7.5705C18.5794 7.62835 18.9093 7.52511 19.1408 7.29407L20.3631 6.07416C20.7343 5.70366 20.9951 5.36974 21.1724 5.10717C21.4174 4.74444 21.3032 4.37221 20.8734 4.28955C20.8132 4.27798 20.7474 4.26674 20.6756 4.25607C19.9719 4.15158 19.3936 4.06369 19.3904 4.06076C19.3871 4.05783 19.303 3.50173 19.2033 2.82498C19.1807 2.73537 19.1608 2.65619 19.1432 2.58619C19.0503 2.21539 18.7813 1.97064 18.4504 2.16216C18.2018 2.30612 17.8527 2.57152 17.3724 3.05232ZM10.5224 2.74759C8.30999 2.96287 6.30397 3.90486 4.74561 5.46025C2.87975 7.32256 1.91018 9.79127 2.00655 12.4344C2.07823 14.3995 2.70936 16.1667 3.91342 17.7738C4.27964 18.2626 5.18483 19.1689 5.66925 19.5317C7.84917 21.1647 10.4599 21.7846 13.1033 21.2968C16.7078 20.6317 19.639 17.833 20.483 14.2508C20.669 13.4612 20.7206 12.99 20.7206 12.0828C20.7206 10.7619 20.5508 9.85486 20.0706 8.61166L19.9143 8.20689L19.5567 8.56306C19.3325 8.78626 19.0136 8.88605 18.7022 8.83039L17.8603 8.6799C17.124 8.5483 16.5126 8.44951 16.5017 8.46041C16.4908 8.47127 16.5598 8.60084 16.6549 8.7483C17.0625 9.38021 17.3819 10.1939 17.5265 10.9695C17.6382 11.5682 17.628 12.7356 17.5061 13.3113C16.9647 15.8681 14.9562 17.825 12.4303 18.2569C11.603 18.3983 10.5114 18.3481 9.72831 18.1325C8.68596 17.8456 7.80979 17.3424 7.01893 16.5768C5.76432 15.3621 5.1169 13.8377 5.11671 12.0977C5.11663 11.4466 5.15436 11.1251 5.29952 10.5398C5.86846 8.24568 7.75085 6.45353 10.1213 5.94908C10.7028 5.82537 11.5992 5.80049 12.2362 5.89045C13.1076 6.01349 14.081 6.37439 14.7477 6.82166C14.8958 6.92107 15.021 6.99841 15.0259 6.99353C15.0307 6.98869 14.9212 6.37052 14.7825 5.61982L14.6223 4.75281C14.5647 4.44103 14.6638 4.12084 14.8876 3.89619L15.2448 3.53744L14.8401 3.38111C14.0761 3.08603 13.4541 2.91927 12.6971 2.80654C12.1975 2.7322 11.0112 2.70002 10.5224 2.74759ZM10.4674 7.06529C8.88643 7.35158 7.50944 8.39181 6.78096 9.85021C6.19702 11.0192 6.10757 12.5395 6.55026 13.7716C6.8155 14.5099 7.19467 15.1029 7.77147 15.6816C8.5071 16.4195 9.33897 16.8709 10.3637 17.0882C10.8824 17.1982 11.7682 17.2069 12.2806 17.1071C14.274 16.719 15.7975 15.2815 16.3188 13.297C16.4522 12.7894 16.4875 11.7786 16.3913 11.2249C16.2708 10.5321 15.986 9.83119 15.577 9.22111L15.3738 8.91802L14.6185 9.67334L13.8632 10.4286L14.0221 10.7438C14.2625 11.2206 14.3505 11.6445 14.3283 12.2195C14.3133 12.6103 14.2906 12.7451 14.1918 13.0305C13.8044 14.149 12.8522 14.9186 11.6925 15.0503C10.2322 15.2163 8.85151 14.2645 8.47202 12.8303C8.36842 12.4386 8.3621 11.7837 8.45819 11.3992C8.71405 10.3758 9.44409 9.58763 10.451 9.24783C10.6989 9.1642 10.8604 9.13853 11.2322 9.12384C11.8071 9.10115 12.2303 9.18884 12.708 9.42967L13.0231 9.58857L13.7791 8.83252L14.5351 8.07646L14.2 7.85396C13.5935 7.45127 12.929 7.18314 12.2396 7.06291C11.824 6.99045 10.8737 6.99174 10.4674 7.06529ZM11.076 10.2901C10.3395 10.396 9.69198 11.0536 9.56405 11.8257C9.40643 12.7769 10.1055 13.7215 11.087 13.8836C12.0612 14.0445 13.041 13.3137 13.1612 12.3367C13.1992 12.0281 13.1611 11.6667 13.0668 11.4411L13.0033 11.2892L12.4103 11.8813C12.0841 12.207 11.7995 12.4734 11.7779 12.4734C11.7275 12.4734 10.9783 11.7229 10.9783 11.6724C10.9783 11.6515 11.2448 11.3676 11.5704 11.0414L12.1626 10.4484L12.0119 10.3854C11.8873 10.3334 11.3994 10.2382 11.3299 10.2524C11.3191 10.2546 11.2049 10.2715 11.076 10.2901Z" fill="white" fill-opacity="0.9"/>
</svg>
