<svg width="24" height="24" viewBox="0 0 24 24" fill="none" xmlns="http://www.w3.org/2000/svg">
<g clip-path="url(#clip0_4_3052)">
<path d="M11.2422 2.80603C11.6071 3.18165 12.1653 3.17091 12.4658 2.79529C12.648 2.55936 12.6904 2.35485 12.6904 1.7113C12.6904 1.01405 12.6589 0.884874 12.4229 0.659546C12.2619 0.487841 12.0359 0.391968 11.832 0.391968C11.6283 0.392021 11.4031 0.488087 11.2422 0.659546C11.0061 0.884884 10.9736 1.01405 10.9736 1.73279C10.9736 2.45181 11.0061 2.58067 11.2422 2.80603ZM17.96 5.5863C18.3248 6.0476 18.7331 5.97231 19.4199 5.29626C19.8919 4.81352 19.9883 4.65233 19.9883 4.33044C19.9883 4.0407 19.9129 3.89083 19.709 3.72986C19.269 3.38648 19.0441 3.45048 18.3574 4.12634C17.6706 4.82393 17.5843 5.11409 17.96 5.5863ZM4.13672 5.29626C4.81279 5.9616 5.22116 6.04767 5.66113 5.59705C6.07969 5.18923 6.00429 4.85619 5.37109 4.1908C4.69508 3.49338 4.29838 3.37572 3.8584 3.71912C3.64379 3.89082 3.56836 4.0407 3.56836 4.33044C3.56836 4.65234 3.66472 4.81352 4.13672 5.29626ZM11.8291 19.0013C14.9298 19.0013 17.5697 17.1291 18.6318 14.183C18.9322 13.3324 18.9638 13.162 18.9531 11.8861C18.9531 10.6739 18.9214 10.3968 18.6641 9.65271C18.2993 8.56787 17.4941 7.34416 16.625 6.56775C15.0693 5.16399 12.6127 4.47307 10.5957 4.85583C7.91342 5.37699 5.83199 7.1531 4.99512 9.63123C4.73766 10.4075 4.70508 10.6631 4.70508 11.8861C4.70508 13.0983 4.73764 13.3751 4.99512 14.1195C5.57455 15.8636 6.93668 17.4272 8.55664 18.2142C9.72608 18.7885 10.5953 19.0013 11.8291 19.0013ZM1.75391 12.6263C2.64464 12.6263 2.7092 12.6153 2.91309 12.347C3.04176 12.1862 3.1385 11.9505 3.13867 11.8217C3.13867 11.6929 3.04187 11.4563 2.91309 11.2953C2.7093 11.0379 2.63375 11.016 1.79688 11.016C1.08881 11.016 0.863059 11.0591 0.65918 11.2201C0.348175 11.4669 0.326744 12.0895 0.616211 12.4115C0.787899 12.5939 0.938584 12.6263 1.75391 12.6263ZM21.8555 12.6263C22.9499 12.6263 23.2509 12.4546 23.251 11.8217C23.251 11.1885 22.9501 11.016 21.8662 11.016C21.0292 11.016 20.9539 11.0378 20.75 11.2953C20.4603 11.6601 20.4603 12.1325 20.7393 12.4115C20.9217 12.5939 21.0935 12.6263 21.8555 12.6263ZM4.33008 20.0531C4.58763 20.0424 4.80218 19.913 5.19922 19.5267C5.88605 18.8506 5.99366 18.3896 5.54297 17.9388C5.21027 17.6061 4.75918 17.7343 4.13672 18.3461C3.66476 18.8288 3.56846 18.9902 3.56836 19.3011C3.56836 19.7733 3.86875 20.0637 4.33008 20.0531ZM19.2158 20.0638C20.0418 20.0636 20.2346 19.2798 19.6016 18.5072C19.0866 17.8849 18.9361 17.7777 18.5283 17.7777C18.2816 17.7778 18.1102 17.8639 17.96 18.057C17.5952 18.5184 17.6699 18.8079 18.3135 19.473C18.7642 19.9452 18.9583 20.0638 19.2158 20.0638ZM11.2422 22.9828C11.6071 23.3583 12.1654 23.3476 12.4658 22.972C12.6481 22.736 12.6904 22.5318 12.6904 21.8881C12.6904 21.1907 12.6588 21.0616 12.4229 20.8363C12.058 20.4607 11.4997 20.4715 11.1992 20.847C11.0168 21.0832 10.9736 21.2871 10.9736 21.931C10.9736 22.6286 11.0061 22.7574 11.2422 22.9828Z" fill="white" fill-opacity="0.9"/>
</g>
<defs>
<clipPath id="clip0_4_3052">
<rect width="24" height="24" fill="white"/>
</clipPath>
</defs>
</svg>
