<svg width="24" height="24" viewBox="0 0 24 24" fill="none" xmlns="http://www.w3.org/2000/svg">
<path d="M2.35386 6.50528C1.79955 6.68487 1.50885 7.32447 1.70566 7.93116L4.45838 16.4092L4.52637 5.802L2.35386 6.50528Z" fill="white" fill-opacity="0.9"/>
<path d="M21.426 5.99903C21.9957 6.12298 22.3492 6.73133 22.2137 7.35461L19.7071 18.8847C19.5715 19.5079 18.9981 19.9139 18.4285 19.79L18.3187 19.7657C18.3852 19.6022 18.4224 19.4216 18.4211 19.2312L18.327 5.65697C18.3262 5.53903 18.3106 5.42427 18.2828 5.31513L21.426 5.99903Z" fill="white" fill-opacity="0.9"/>
<path d="M15.9251 2.9739C16.6863 2.97216 17.3041 3.63257 17.3023 4.44599L17.2685 19.4948C17.2667 20.3083 16.6453 20.9719 15.884 20.9738L6.95531 20.9964C6.19409 20.9981 5.57632 20.3377 5.57815 19.5243L5.61191 4.47549C5.61373 3.66195 6.23511 2.99835 6.99646 2.99642L15.9251 2.9739ZM12.1959 8.75278C11.7993 8.28116 11.0748 8.27658 10.6725 8.74295L8.9027 10.7943C8.59179 11.1548 8.57872 11.6851 8.87121 12.0609L10.6341 14.326C11.0371 14.8439 11.8212 14.8405 12.219 14.3191L13.9493 12.052C14.2328 11.6802 14.2202 11.1613 13.9192 10.8031L12.1959 8.75278Z" fill="white" fill-opacity="0.9"/>
</svg>
