<svg width="24" height="24" viewBox="0 0 24 24" fill="none" xmlns="http://www.w3.org/2000/svg">
<g clip-path="url(#clip0_35_8637)">
<path d="M11.0215 8.37633L11.4215 8.77633L12.6148 7.58267L12.3428 7.31033C12.0013 7.77333 11.5462 8.14048 11.0215 8.37633Z" fill="white" fill-opacity="0.9"/>
<path d="M15.2188 9.24542L16.4121 8.05206L17.6055 9.24542L16.4121 10.4388L15.2188 9.24542Z" fill="white" fill-opacity="0.9"/>
<path d="M13.5557 10.9135L14.7483 9.72089L15.9417 10.9143L14.749 12.1069L13.5557 10.9135Z" fill="white" fill-opacity="0.9"/>
<path d="M16.8848 7.58557L18.0781 6.39221L19.2715 7.58557L18.0781 8.77893L16.8848 7.58557Z" fill="white" fill-opacity="0.9"/>
<path d="M15.2207 5.92065L16.4141 4.72729L17.6074 5.92065L16.4141 7.11401L15.2207 5.92065Z" fill="white" fill-opacity="0.9"/>
<path d="M13.5546 7.58093L14.7475 6.38804L15.9408 7.5814L14.7479 8.77429L13.5546 7.58093Z" fill="white" fill-opacity="0.9"/>
<path d="M11.8916 9.24863L13.0847 8.0555L14.2781 9.24886L13.085 10.442L11.8916 9.24863Z" fill="white" fill-opacity="0.9"/>
<path d="M10.5773 9.62234L10.951 9.24867L10.5303 8.828C10.5182 9.0937 10.5339 9.35993 10.5773 9.62234Z" fill="white" fill-opacity="0.9"/>
<path d="M12.6151 10.9133L11.4217 9.72L10.7744 10.3667C10.9758 10.9158 11.2806 11.4211 11.6724 11.8553L12.6151 10.9133Z" fill="white" fill-opacity="0.9"/>
<path d="M14.28 12.578L13.0866 11.3847L12.1443 12.327C12.5794 12.7177 13.0842 13.023 13.6323 13.227L14.28 12.578Z" fill="white" fill-opacity="0.9"/>
<path d="M14.38 13.4207C14.64 13.4627 14.9036 13.4782 15.1667 13.4667L14.7507 13.0507L14.38 13.4207Z" fill="white" fill-opacity="0.9"/>
<path d="M17.5707 12.542L16.415 11.3857L15.2227 12.578L15.984 13.339C16.5618 13.1846 17.1018 12.9133 17.5707 12.542Z" fill="white" fill-opacity="0.9"/>
<path d="M18.0814 12.104C18.4826 11.7002 18.8285 11.245 19.1101 10.7503L18.0804 9.72067L16.8867 10.9143L18.0784 12.1067L18.0814 12.104Z" fill="white" fill-opacity="0.9"/>
<path d="M19.9426 8.25333L19.745 8.05566L18.5516 9.24933L19.4246 10.1223C19.6896 9.52867 19.8642 8.89869 19.9426 8.25333Z" fill="white" fill-opacity="0.9"/>
<path d="M18.5516 5.91967L19.745 7.11301L19.9373 6.92067C19.8626 6.30347 19.6261 5.71698 19.2516 5.22067L18.5516 5.91967Z" fill="white" fill-opacity="0.9"/>
<path d="M16.8867 4.25499L18.0801 5.44833L18.7821 4.74633C18.2816 4.37268 17.6902 4.13994 17.0694 4.07233L16.8867 4.25499Z" fill="white" fill-opacity="0.9"/>
<path d="M13.881 4.57835L14.7506 5.44835L15.9443 4.25501L15.756 4.06668C15.109 4.1432 14.4771 4.31564 13.881 4.57835Z" fill="white" fill-opacity="0.9"/>
<path d="M13.087 7.11234L14.2797 5.91967L13.2527 4.89267C13.162 4.94434 13.0743 5.001 12.986 5.057C12.9937 5.14834 13 5.24 13 5.33334C12.9996 5.81211 12.8953 6.2851 12.6943 6.71967L13.087 7.11234Z" fill="white" fill-opacity="0.9"/>
<path d="M9.66667 7.99999C11.1394 7.99999 12.3333 6.80608 12.3333 5.33332C12.3333 3.86056 11.1394 2.66666 9.66667 2.66666C8.19391 2.66666 7 3.86056 7 5.33332C7 6.80608 8.19391 7.99999 9.66667 7.99999Z" fill="white" fill-opacity="0.9"/>
<path d="M9.28516 16.1426L4.4375 20.9893L4.43945 20.9912L4.19531 21.2354C4.19066 21.2398 4.18456 21.2429 4.17969 21.2471L4.15332 21.2744L4.15039 21.2715C4.09447 21.3093 4.02832 21.33 3.95996 21.3301C3.87224 21.3301 3.788 21.296 3.72461 21.2354L2.76465 20.2764C2.70216 20.2139 2.66699 20.1284 2.66699 20.04C2.66705 19.9708 2.68813 19.9035 2.72754 19.8477L2.72266 19.8428L7.85352 14.7119L9.28516 16.1426Z" fill="white" fill-opacity="0.9"/>
<path d="M19.9844 4.01567C18.2844 2.31567 15.2177 2.21233 12.5844 3.72533C12.6949 3.92563 12.7842 4.13687 12.851 4.35567C14.0926 3.60782 15.5379 3.26963 16.9824 3.389C17.9259 3.45279 18.8176 3.84382 19.5037 4.49467C21.337 6.33033 20.8724 10.2577 18.5504 12.5763C18.465 12.661 18.3767 12.743 18.288 12.8207C17.6303 13.4241 16.8257 13.8445 15.9547 14.0397C15.6371 14.1086 15.313 14.1434 14.988 14.1433C14.3194 14.1313 13.6598 13.9866 13.0476 13.7177C12.4353 13.4487 11.8826 13.0609 11.4214 12.5767C10.7955 11.9678 10.3301 11.2135 10.0667 10.381C9.89191 9.8238 9.82693 9.23796 9.87536 8.656C9.80536 8.66033 9.73636 8.66667 9.66536 8.66667C9.5042 8.66531 9.34334 8.65239 9.18403 8.628C9.12218 9.58291 9.31545 10.5371 9.74403 11.3927C9.92813 11.7679 9.98957 12.1916 9.91964 12.6037C9.84971 13.0158 9.65195 13.3955 9.35436 13.689L8.5647 14.48L9.52003 15.4353L10.311 14.6443C10.6047 14.3467 10.9846 14.1489 11.3969 14.079C11.8092 14.0092 12.233 14.0707 12.6084 14.255C14.8004 15.3357 17.2034 14.8883 19.0344 13.0577C21.649 10.443 22.1017 6.13333 19.9844 4.01567Z" fill="white" fill-opacity="0.9"/>
</g>
<defs>
<clipPath id="clip0_35_8637">
<rect width="20" height="20" fill="white" transform="translate(2 2)"/>
</clipPath>
</defs>
</svg>
