<svg width="24" height="24" viewBox="0 0 24 24" fill="none" xmlns="http://www.w3.org/2000/svg">
<g clip-path="url(#clip0_4_3271)">
<path d="M12 2.25C12.1819 2.25 12.3626 2.25579 12.542 2.26562C12.7411 2.27219 12.9096 2.27937 12.9902 2.28809C14.7956 2.4833 16.4211 3.12288 17.8672 4.20703C18.2539 4.49694 18.5121 4.72233 18.8945 5.10547C19.5483 5.76049 20.0237 6.37864 20.4609 7.13965C21.1579 8.35283 21.5583 9.59945 21.7168 11.0508C21.7649 11.4917 21.76 12.5843 21.708 13.0244C21.5625 14.2543 21.2688 15.2614 20.75 16.3115C20.4858 16.8464 20.1808 17.3389 19.833 17.8057C19.8201 17.823 19.8069 17.8402 19.7939 17.8574C19.7537 17.9106 19.7162 17.966 19.6748 18.0186C19.5523 18.1739 19.4203 18.3269 19.2842 18.4785C19.2575 18.5085 19.2311 18.5387 19.2041 18.5684C19.1739 18.6012 19.143 18.6335 19.1123 18.666C18.9012 18.8912 18.6787 19.1052 18.4473 19.3096C18.3898 19.3606 18.3326 19.4116 18.2744 19.4609C18.2382 19.4915 18.2017 19.5218 18.165 19.5518C17.9415 19.7361 17.716 19.909 17.4902 20.0615C17.3648 20.1463 17.2372 20.2262 17.1094 20.3047C17.086 20.3191 17.0626 20.3334 17.0391 20.3477C16.9171 20.4212 16.794 20.4917 16.6699 20.5596C16.6511 20.5698 16.6321 20.5797 16.6133 20.5898C15.5538 21.1606 14.4207 21.5259 13.2266 21.6768C12.849 21.7245 12.4507 21.7468 12.0498 21.748C12.0332 21.7481 12.0166 21.75 12 21.75C11.9791 21.75 11.9583 21.7482 11.9375 21.748C11.8134 21.7471 11.6892 21.7436 11.5654 21.7383C11.5335 21.7369 11.5016 21.7361 11.4697 21.7344C11.0912 21.7146 10.7179 21.6757 10.3652 21.6152C10.098 21.5694 9.83586 21.5119 9.57812 21.4463C9.56872 21.4439 9.5592 21.4419 9.5498 21.4395C8.64334 21.206 7.79415 20.8501 6.99219 20.3662C6.95157 20.3418 6.91132 20.3169 6.87109 20.292C6.8039 20.2501 6.73743 20.2068 6.6709 20.1631C6.45386 20.0211 6.24265 19.8712 6.03809 19.7129C5.97149 19.6617 5.90579 19.6088 5.83984 19.5557C5.82279 19.5417 5.80504 19.5287 5.78809 19.5146C5.76589 19.4965 5.74283 19.4793 5.7207 19.4609C5.67711 19.4248 5.62752 19.3772 5.57031 19.3252C5.259 19.0517 4.96468 18.7598 4.69043 18.4492C4.62883 18.382 4.57395 18.3227 4.53223 18.2725C4.42121 18.1389 4.31468 18.0035 4.21191 17.8672C4.19482 17.8445 4.17803 17.8216 4.16113 17.7988C3.11333 16.3859 2.50283 14.8251 2.29395 13.0293C2.24015 12.5668 2.23456 11.4826 2.28418 11.042C2.36468 10.3273 2.4771 9.77073 2.66504 9.15137C3.42354 6.65184 5.19592 4.53235 7.54199 3.32031C8.72304 2.71022 10.0269 2.35092 11.4043 2.25586C11.4912 2.24987 11.6844 2.24966 11.9082 2.25195C11.9388 2.25167 11.9694 2.25 12 2.25ZM12 3.25C7.16751 3.25 3.25 7.16751 3.25 12C3.25 15.4797 5.2813 18.4846 8.22266 19.8945C7.694 19.2373 7.35136 18.4593 7.19824 17.5635C7.16183 17.3505 7.15824 17.2715 7.1582 16.7666C7.15817 16.2653 7.16205 16.183 7.19727 15.9795C7.38734 14.8813 7.87078 13.9466 8.63965 13.1934C9.15821 12.6853 9.71471 12.3347 10.3818 12.0928C10.8876 11.9094 11.3137 11.8322 12.1846 11.7686C13.1734 11.6962 13.9304 11.4203 14.6719 10.8604C14.8981 10.6895 15.3372 10.2507 15.5078 10.0254C16.0006 9.37467 16.289 8.69187 16.417 7.87305C16.4687 7.54238 16.4726 6.92807 16.4258 6.60449C16.2738 5.55452 15.847 4.68217 15.1289 3.95703C15.056 3.88345 14.9804 3.81301 14.9033 3.74512C13.9947 3.42554 13.0179 3.25 12 3.25ZM12.4209 15.4102C12.2733 15.4341 12.0586 15.5098 11.9131 15.5889C11.5095 15.8083 11.2246 16.1715 11.1025 16.624C11.046 16.8337 11.0477 17.2295 11.1055 17.4404C11.2313 17.8988 11.5465 18.2847 11.9658 18.4941C12.9555 18.9881 14.1427 18.3673 14.3145 17.2656C14.3414 17.0925 14.324 16.7853 14.2783 16.6143C14.127 16.0488 13.6862 15.6039 13.1211 15.4453C12.9714 15.4034 12.5837 15.3838 12.4209 15.4102ZM12.8594 5.53613C13.2496 5.57409 13.588 5.73939 13.8682 6.0293C14.0745 6.24287 14.2078 6.48112 14.29 6.78223C14.3327 6.93851 14.3327 7.39079 14.29 7.54688C14.2104 7.83808 14.0856 8.06635 13.8926 8.27246C13.6047 8.57963 13.2731 8.74704 12.8643 8.79199C12.0772 8.87833 11.3506 8.38662 11.1133 7.60742C11.0706 7.4673 11.0664 7.42715 11.0664 7.16406C11.0664 6.90129 11.0706 6.86174 11.1133 6.72168C11.1958 6.45049 11.3167 6.23848 11.5 6.0459C11.7702 5.76212 12.134 5.57549 12.4873 5.53809C12.6752 5.51819 12.673 5.51801 12.8594 5.53613Z" fill="white" fill-opacity="0.9"/>
</g>
<defs>
<clipPath id="clip0_4_3271">
<rect width="24" height="24" fill="white"/>
</clipPath>
</defs>
</svg>
