<svg width="24" height="24" viewBox="0 0 24 24" fill="none" xmlns="http://www.w3.org/2000/svg">
<path d="M19.773 5.35896C17.7471 3.24621 15.0178 2.04217 12.1616 2.00109C9.30533 1.96001 6.54565 3.0851 4.4653 5.13879C2.38495 7.19248 1.14677 10.014 1.01223 13.0076C0.877691 16.0011 1.85732 18.9323 3.74425 21.1823L3.75251 21.1919C3.76765 21.2088 3.78187 21.2261 3.79839 21.2425C3.83234 21.2829 3.87088 21.3286 3.91629 21.3763C4.09442 21.5749 4.3097 21.7328 4.54867 21.8401C4.78764 21.9474 5.04515 22.0018 5.30509 22C5.56502 21.9981 5.82179 21.9399 6.05931 21.8291C6.29683 21.7183 6.51 21.5572 6.68547 21.356C7.36063 20.5862 8.18068 19.9717 9.09378 19.5514C10.0069 19.131 10.9932 18.914 11.9903 18.914C12.9874 18.914 13.9737 19.131 14.8868 19.5514C15.7999 19.9717 16.62 20.5862 17.2951 21.356C17.4719 21.5583 17.6868 21.7199 17.9262 21.8305C18.1655 21.9411 18.4242 21.9983 18.6858 21.9986C18.9473 21.9989 19.2061 21.9422 19.4457 21.832C19.6853 21.7219 19.9005 21.5608 20.0776 21.3589L20.2249 21.1905L20.2331 21.1808C22.0924 18.9783 23.0802 16.1142 22.9949 13.1735C22.9096 10.2327 21.7577 7.437 19.7744 5.35704L19.773 5.35896ZM11.2535 5.82825C11.2535 5.624 11.3308 5.42812 11.4685 5.2837C11.6062 5.13928 11.7929 5.05814 11.9876 5.05814C12.1822 5.05814 12.3689 5.13928 12.5066 5.2837C12.6443 5.42812 12.7216 5.624 12.7216 5.82825V7.36847C12.7216 7.57271 12.6443 7.76859 12.5066 7.91301C12.3689 8.05744 12.1822 8.13857 11.9876 8.13857C11.7929 8.13857 11.6062 8.05744 11.4685 7.91301C11.3308 7.76859 11.2535 7.57271 11.2535 7.36847V5.82825ZM6.11521 14.2994H4.64713C4.45245 14.2994 4.26574 14.2183 4.12808 14.0739C3.99042 13.9295 3.91308 13.7336 3.91308 13.5293C3.91308 13.3251 3.99042 13.1292 4.12808 12.9848C4.26574 12.8404 4.45245 12.7592 4.64713 12.7592H6.11521C6.30989 12.7592 6.4966 12.8404 6.63426 12.9848C6.77192 13.1292 6.84925 13.3251 6.84925 13.5293C6.84925 13.7336 6.77192 13.9295 6.63426 14.0739C6.4966 14.2183 6.30989 14.2994 6.11521 14.2994ZM8.35404 9.7173C8.2164 9.86161 8.02976 9.94268 7.83517 9.94268C7.64057 9.94268 7.45393 9.86161 7.31629 9.7173L6.27808 8.62855C6.1404 8.48412 6.06306 8.28821 6.06306 8.08394C6.06306 7.87968 6.1404 7.68377 6.27808 7.53933C6.41575 7.39489 6.60248 7.31375 6.79718 7.31375C6.99189 7.31375 7.17861 7.39489 7.31629 7.53933L8.35404 8.62855C8.4916 8.77296 8.56887 8.96877 8.56887 9.17293C8.56887 9.37708 8.4916 9.57289 8.35404 9.7173ZM15.2036 10.8291L13.0244 14.4631C12.9352 14.5927 12.8268 14.7065 12.7032 14.8C12.405 15.0183 12.0366 15.1044 11.6782 15.0396C11.3198 14.9748 11.0002 14.7643 10.7888 14.4538C10.5774 14.1433 10.4913 13.7578 10.5491 13.3811C10.6069 13.0044 10.8039 12.6668 11.0975 12.4416L14.5613 10.1553C14.64 10.0977 14.7337 10.0668 14.8297 10.0668C14.9257 10.0668 15.0193 10.0977 15.0981 10.1553C15.1969 10.2302 15.2636 10.3431 15.2833 10.4694C15.3031 10.5956 15.2744 10.725 15.2036 10.8291ZM16.6588 9.7173C16.52 9.85562 16.3352 9.9316 16.1438 9.92903C15.9524 9.92646 15.7695 9.84554 15.6342 9.70353C15.4988 9.56152 15.4217 9.36966 15.4192 9.16884C15.4168 8.96803 15.4892 8.77415 15.6211 8.62855L16.6588 7.53933C16.7965 7.39489 16.9832 7.31375 17.1779 7.31375C17.3726 7.31375 17.5594 7.39489 17.697 7.53933C17.8347 7.68377 17.9121 7.87968 17.9121 8.08394C17.9121 8.28821 17.8347 8.48412 17.697 8.62855L16.6588 9.7173ZM19.328 14.2994H17.8599C17.6652 14.2994 17.4785 14.2183 17.3408 14.0739C17.2032 13.9295 17.1259 13.7336 17.1259 13.5293C17.1259 13.3251 17.2032 13.1292 17.3408 12.9848C17.4785 12.8404 17.6652 12.7592 17.8599 12.7592H19.328C19.5227 12.7592 19.7094 12.8404 19.847 12.9848C19.9847 13.1292 20.062 13.3251 20.062 13.5293C20.062 13.7336 19.9847 13.9295 19.847 14.0739C19.7094 14.2183 19.5227 14.2994 19.328 14.2994Z" fill="white" fill-opacity="0.9"/>
</svg>
