<svg width="24" height="24" viewBox="0 0 24 24" fill="none" xmlns="http://www.w3.org/2000/svg">
<path d="M16.3593 21.5508C15.0308 22.1583 13.5551 22.5 11.9989 22.5C10.4432 22.5 8.96763 22.1589 7.63953 21.5518L11.9999 14L16.3593 21.5508ZM5.90808 20.5498C3.4953 18.8279 1.8409 16.1131 1.54675 13H10.2675L5.90808 20.5498ZM22.4501 13C22.156 16.1126 20.5028 18.8269 18.0907 20.5488L13.7323 13H22.4501ZM10.2675 11H1.54675C1.84092 7.88666 3.49505 5.1711 5.90808 3.44922L10.2675 11ZM18.0907 3.4502C20.503 5.17211 22.1559 7.88723 22.4501 11H13.7323L18.0907 3.4502ZM11.9989 1.5C13.555 1.50002 15.0309 1.84086 16.3593 2.44824L11.9989 9.99902L7.63953 2.44727C8.96754 1.84026 10.4433 1.5 11.9989 1.5ZM11.1825 2.8125C10.4806 2.8125 9.99678 3.51684 10.2489 4.17188L11.0663 6.29395C11.3951 7.14833 12.6036 7.14833 12.9325 6.29395L13.7489 4.17188C14.001 3.51689 13.5181 2.81261 12.8163 2.8125H11.1825Z" fill="white" fill-opacity="0.9"/>
</svg>
