<svg width="24" height="24" viewBox="0 0 24 24" fill="none" xmlns="http://www.w3.org/2000/svg">
<g clip-path="url(#clip0_4_3726)">
<path fill-rule="evenodd" clip-rule="evenodd" d="M5.74775 2.25674C3.81482 2.25771 2.24864 3.8254 2.24951 5.75832L2.25307 13.6054C2.25394 15.5378 3.82069 17.1038 5.75306 17.1038H9.76038V17.946C9.76038 18.4983 10.2081 18.946 10.7604 18.946H13.2794C13.8317 18.946 14.2794 18.4983 14.2794 17.946V17.1038H18.249C20.182 17.1038 21.749 15.5368 21.749 13.6038V5.75043C21.749 3.81674 20.1809 2.24945 18.2472 2.25043L5.74775 2.25674ZM14.6431 10.1961C15.3082 9.81087 15.3082 8.85059 14.6431 8.46539L11.3731 6.57148C10.7065 6.18536 9.87195 6.66641 9.87195 7.43682V11.2246C9.87195 11.9951 10.7065 12.4761 11.3731 12.09L14.6431 10.1961ZM20.4124 14.4275C20.4124 14.8775 20.0486 15.2423 19.5997 15.2423C19.1509 15.2423 18.787 14.8775 18.787 14.4275C18.787 13.9775 19.1509 13.6128 19.5997 13.6128C20.0486 13.6128 20.4124 13.9775 20.4124 14.4275ZM8.3837 20.1285C7.48838 20.1285 6.76258 20.8543 6.76258 21.7496H17.1583C17.1583 20.8543 16.4325 20.1285 15.5371 20.1285H8.3837Z" fill="white" fill-opacity="0.9"/>
</g>
<defs>
<clipPath id="clip0_4_3726">
<rect width="24" height="24" fill="white"/>
</clipPath>
</defs>
</svg>
