<svg width="24" height="24" viewBox="0 0 24 24" fill="none" xmlns="http://www.w3.org/2000/svg">
<path d="M12 2C17.5228 2 22 6.47715 22 12C22 17.5228 17.5228 22 12 22C6.47715 22 2 17.5228 2 12C2 6.47715 6.47715 2 12 2ZM12 15C11.4477 15 11 15.4477 11 16C11 16.5523 11.4477 17 12 17C12.5523 17 13 16.5523 13 16C13 15.4477 12.5523 15 12 15ZM12 7C11.4477 7 11 7.52266 11 8.16699V12.833C11 13.4773 11.4477 14 12 14C12.5523 14 13 13.4773 13 12.833V8.16699C13 7.52266 12.5523 7 12 7Z" fill="white" fill-opacity="0.9"/>
</svg>
