<svg width="24" height="24" viewBox="0 0 24 24" fill="none" xmlns="http://www.w3.org/2000/svg">
<path d="M12 2C17.5228 2 22 6.47715 22 12C22 17.5228 17.5228 22 12 22C6.47715 22 2 17.5228 2 12C2 6.47715 6.47715 2 12 2ZM11.9941 15.748L9.31348 13.0654L7.68555 14.6943L11.9873 19L11.9941 18.9941L12 19L16.3018 14.6943L14.6738 13.0654L11.9941 15.748ZM5 12.0059L6.62793 13.6357L8.25586 12.0059L6.62793 10.377L5 12.0059ZM10.3721 12.0059L12 13.6357L13.6279 12.0059L12 10.377L10.3721 12.0059ZM15.7441 12.0059L17.3721 13.6357L19 12.0059L17.3721 10.377L15.7441 12.0059ZM11.9932 5.00586L11.9873 5L7.68555 9.30566L9.31348 10.9346L11.9932 8.25195L14.6738 10.9346L16.3018 9.30566L12 5L11.9932 5.00586Z" fill="#DFB53F"/>
</svg>
