<svg width="24" height="24" viewBox="0 0 24 24" fill="none" xmlns="http://www.w3.org/2000/svg">
<path d="M12 2C17.5228 2 22 6.47715 22 12C22 17.5228 17.5228 22 12 22C6.47715 22 2 17.5228 2 12C2 6.47715 6.47715 2 12 2ZM10.2285 7.81738C10.0699 7.82221 9.83676 7.82422 9.5293 7.82422L8 7.81738V9H8.80078C9.16589 9.0001 9.37986 9.1636 9.44238 9.49023V11.5605C9.49041 11.5606 9.52878 11.5626 9.55762 11.5674H9.44238V14.4668C9.40393 14.7117 9.26453 14.8339 9.02441 14.834H8.22363L8 16.1543H9.44238C9.53371 16.1543 9.66581 16.1551 9.83887 16.1572C10.0119 16.1597 10.142 16.1611 10.2285 16.1611V18H11.3389V16.1826C11.5407 16.1875 11.8343 16.1904 12.2188 16.1904V18H13.3291V16.1611C13.7234 16.1419 14.0737 16.1058 14.3789 16.0527C14.6841 15.9997 14.9762 15.9167 15.2549 15.8037C15.5336 15.6908 15.7666 15.5501 15.9541 15.3818C16.1417 15.2137 16.2971 14.9999 16.4199 14.7402C16.5423 14.4806 16.6208 14.1802 16.6543 13.8389C16.7171 13.1708 16.6079 12.6566 16.3291 12.2959C16.0503 11.9354 15.63 11.6873 15.0674 11.5527C15.7837 11.1874 16.099 10.5673 16.0127 9.69238C15.9838 9.37505 15.8957 9.09933 15.749 8.86621C15.6022 8.63319 15.4043 8.44546 15.1543 8.30371C14.9043 8.16173 14.632 8.05401 14.3389 7.97949C14.0457 7.90499 13.7089 7.851 13.3291 7.81738V6H12.2188V7.7666C12.0265 7.7666 11.733 7.77163 11.3389 7.78125V6H10.2285V7.81738ZM12.168 12.3896C12.2882 12.3896 12.4544 12.3966 12.666 12.4111C12.8774 12.4255 13.0558 12.4467 13.2002 12.4756C13.3442 12.5045 13.5013 12.5493 13.6719 12.6094C13.8425 12.6694 13.9811 12.7426 14.0869 12.8291C14.1927 12.9158 14.2814 13.0265 14.3535 13.1611C14.4257 13.2956 14.4619 13.4492 14.4619 13.6221C14.4619 13.7568 14.4393 13.8796 14.3936 13.9902C14.3478 14.1009 14.2889 14.1975 14.2168 14.2793C14.1446 14.3608 14.0493 14.4327 13.9316 14.4951C13.8139 14.5577 13.6993 14.608 13.5889 14.6465C13.4784 14.685 13.3453 14.7191 13.1895 14.748C13.033 14.7769 12.8953 14.7965 12.7773 14.8086C12.6597 14.8206 12.5189 14.8306 12.3555 14.8379C12.1922 14.845 12.0649 14.8486 11.9736 14.8486C11.8824 14.8486 11.7671 14.8471 11.6279 14.8447C11.4884 14.8425 11.3988 14.8418 11.3604 14.8418V12.4033C11.3988 12.4033 11.5132 12.4014 11.7031 12.3965C11.8929 12.3916 12.0478 12.3897 12.168 12.3896ZM12.0352 9.06836C12.1385 9.066 12.2778 9.07154 12.4531 9.08594C12.6285 9.10035 12.7764 9.12055 12.8965 9.14453C13.0165 9.1685 13.149 9.20749 13.293 9.2627C13.4373 9.31794 13.5532 9.38553 13.6396 9.46484C13.7262 9.5441 13.7994 9.6451 13.8594 9.76758C13.9195 9.8901 13.9492 10.0309 13.9492 10.1895C13.9492 10.3241 13.928 10.447 13.8848 10.5576C13.8417 10.668 13.7767 10.7605 13.6904 10.835C13.604 10.9095 13.5142 10.975 13.4229 11.0303C13.3316 11.0854 13.2148 11.1295 13.0732 11.1631C12.9316 11.1967 12.8078 11.223 12.7021 11.2422C12.5964 11.2614 12.4643 11.2751 12.3057 11.2822C12.1472 11.2894 12.027 11.2945 11.9453 11.2969C11.8635 11.2992 11.7513 11.2992 11.6094 11.2969C11.4676 11.2945 11.3844 11.293 11.3604 11.293V9.0791C11.394 9.0791 11.4893 9.07762 11.6455 9.0752C11.8018 9.07272 11.9318 9.07078 12.0352 9.06836Z" fill="#F09937"/>
</svg>
