<svg width="24" height="24" viewBox="0 0 24 24" fill="none" xmlns="http://www.w3.org/2000/svg">
<path d="M12 2C17.5228 2 22 6.47715 22 12C22 17.5228 17.5228 22 12 22C6.47715 22 2 17.5228 2 12C2 6.47715 6.47715 2 12 2ZM10.7383 6C9.03614 6.00131 8.51169 6.02032 8.36816 6.08594C8.2673 6.13249 8.1208 6.26543 8.04297 6.38086L7.90137 6.59082L7.88477 8.82031L7.86719 11.0498L7.22363 11.0713C6.53563 11.0939 6.39521 11.1501 6.14551 11.5039C5.86214 11.9056 6.00909 12.5396 6.44629 12.7998C6.64027 12.9151 6.76907 12.9365 7.27344 12.9365H7.87207V15.1084C7.87213 17.5317 7.87823 17.575 8.2793 17.8584C8.47912 17.9996 8.49049 18 10.7197 18C12.5236 18 13.0465 17.9813 13.4082 17.9023C15.2301 17.5042 16.6897 16.3 17.4736 14.5498C17.8656 13.6744 18 13.0252 18 11.998C18 10.9481 17.8614 10.2977 17.4492 9.4043C16.6448 7.66092 15.2451 6.50784 13.4561 6.11523C12.992 6.01341 12.6466 5.99863 10.7383 6ZM11.4971 7.94531C13.0969 7.94531 13.436 8.00075 14.0986 8.36914C15.0444 8.89504 15.7686 9.96943 15.9824 11.166C16.1447 12.0751 16.0462 12.8626 15.6611 13.7432C15.2511 14.6807 14.5595 15.3667 13.6426 15.7441C13.2544 15.9039 13.2286 15.9066 11.6533 15.9258L10.0576 15.9453V12.8486H10.6123C11.2206 12.8486 11.3926 12.774 11.6348 12.4053C11.7872 12.1727 11.7885 11.7089 11.6367 11.4795C11.397 11.1171 11.277 11.0651 10.6436 11.043L10.0576 11.0225V7.94531H11.4971Z" fill="white" fill-opacity="0.9"/>
</svg>
