<svg width="24" height="24" viewBox="0 0 24 24" fill="none" xmlns="http://www.w3.org/2000/svg">
<path d="M12.4922 2.01172C13.6373 2.06814 14.7657 2.32107 15.8271 2.76074C17.0404 3.26329 18.1427 4.00015 19.0713 4.92871C19.9998 5.85727 20.7367 6.95964 21.2393 8.17285C21.7418 9.38611 22 10.6868 22 12L21.9883 12.4922C21.9319 13.6373 21.6789 14.7657 21.2393 15.8271C20.7367 17.0404 19.9998 18.1427 19.0713 19.0713C18.1427 19.9998 17.0404 20.7367 15.8271 21.2393C14.7657 21.6789 13.6373 21.9319 12.4922 21.9883L12 22C10.6868 22 9.38611 21.7418 8.17285 21.2393C6.95964 20.7367 5.85727 19.9998 4.92871 19.0713C4.00015 18.1427 3.26329 17.0404 2.76074 15.8271C2.32107 14.7657 2.06814 13.6373 2.01172 12.4922L2 12C2 10.6868 2.2582 9.38611 2.76074 8.17285C3.26329 6.95964 4.00015 5.85727 4.92871 4.92871C5.85727 4.00015 6.95964 3.26329 8.17285 2.76074C9.38611 2.2582 10.6868 2 12 2L12.4922 2.01172ZM12 4C10.9494 4 9.90908 4.20734 8.93848 4.60938C7.96795 5.01141 7.08559 5.59995 6.34277 6.34277C5.59995 7.08559 5.01141 7.96795 4.60938 8.93848C4.20734 9.90908 4 10.9494 4 12L4.00977 12.3936C4.05489 13.3097 4.25762 14.2123 4.60938 15.0615C5.01141 16.0321 5.59995 16.9144 6.34277 17.6572C7.08559 18.4 7.96795 18.9886 8.93848 19.3906C9.90908 19.7927 10.9494 20 12 20L12.3936 19.9902C13.3097 19.9451 14.2123 19.7424 15.0615 19.3906C16.0321 18.9886 16.9144 18.4 17.6572 17.6572C18.4 16.9144 18.9886 16.0321 19.3906 15.0615C19.7927 14.0909 20 13.0506 20 12L19.9902 11.6064C19.9451 10.6903 19.7424 9.7877 19.3906 8.93848C18.9886 7.96795 18.4 7.08559 17.6572 6.34277C16.9144 5.59995 16.0321 5.01141 15.0615 4.60938C14.2123 4.25762 13.3097 4.05489 12.3936 4.00977L12 4ZM12 5.25C12.1989 5.25 12.3896 5.32907 12.5303 5.46973C12.6709 5.61038 12.75 5.80109 12.75 6V6.31738C14.38 6.6094 15.75 7.83402 15.75 9.5C15.75 9.69891 15.6709 9.88962 15.5303 10.0303C15.3896 10.1709 15.1989 10.25 15 10.25C14.8011 10.25 14.6104 10.1709 14.4697 10.0303C14.3291 9.88962 14.25 9.69891 14.25 9.5C14.25 8.822 13.686 8.10268 12.75 7.84668V11.3174C14.38 11.6094 15.75 12.834 15.75 14.5C15.75 16.166 14.38 17.3906 12.75 17.6826V18C12.75 18.1989 12.6709 18.3896 12.5303 18.5303C12.3896 18.6709 12.1989 18.75 12 18.75C11.8011 18.75 11.6104 18.6709 11.4697 18.5303C11.3291 18.3896 11.25 18.1989 11.25 18V17.6826C9.62003 17.3906 8.25 16.166 8.25 14.5C8.25 14.3011 8.32907 14.1104 8.46973 13.9697C8.61038 13.8291 8.80109 13.75 9 13.75C9.19891 13.75 9.38962 13.8291 9.53027 13.9697C9.67093 14.1104 9.75 14.3011 9.75 14.5C9.75 15.178 10.314 15.8973 11.25 16.1523V12.6826C9.62003 12.3906 8.25 11.166 8.25 9.5C8.25 7.83402 9.62003 6.6094 11.25 6.31738V6C11.25 5.80109 11.3291 5.61038 11.4697 5.46973C11.6104 5.32907 11.8011 5.25 12 5.25ZM12.75 16.1523C13.686 15.8973 14.25 15.178 14.25 14.5C14.25 13.822 13.686 13.1027 12.75 12.8477V16.1523ZM11.25 7.84668C10.314 8.10267 9.75003 8.82201 9.75 9.5C9.75 10.178 10.314 10.8973 11.25 11.1523V7.84668Z" fill="white" fill-opacity="0.9"/>
</svg>
