<svg width="24" height="24" viewBox="0 0 24 24" fill="none" xmlns="http://www.w3.org/2000/svg">
<path d="M12 2C17.523 2 22 6.477 22 12C22 17.523 17.523 22 12 22C6.477 22 2 17.523 2 12C2 6.477 6.477 2 12 2ZM12 5.25C11.8011 5.25 11.6104 5.32907 11.4697 5.46973C11.3291 5.61038 11.25 5.80109 11.25 6V6.31738C9.62003 6.6094 8.25 7.83402 8.25 9.5C8.25 11.166 9.62003 12.3906 11.25 12.6826V16.1523C10.314 15.8973 9.75 15.178 9.75 14.5C9.75 14.3011 9.67093 14.1104 9.53027 13.9697C9.38962 13.8291 9.19891 13.75 9 13.75C8.80109 13.75 8.61038 13.8291 8.46973 13.9697C8.32907 14.1104 8.25 14.3011 8.25 14.5C8.25 16.166 9.62003 17.3906 11.25 17.6826V18C11.25 18.1989 11.3291 18.3896 11.4697 18.5303C11.6104 18.6709 11.8011 18.75 12 18.75C12.1989 18.75 12.3896 18.6709 12.5303 18.5303C12.6709 18.3896 12.75 18.1989 12.75 18V17.6826C14.38 17.3906 15.75 16.166 15.75 14.5C15.75 12.834 14.38 11.6094 12.75 11.3174V7.84668C13.686 8.10268 14.25 8.822 14.25 9.5C14.25 9.69891 14.3291 9.88962 14.4697 10.0303C14.6104 10.1709 14.8011 10.25 15 10.25C15.1989 10.25 15.3896 10.1709 15.5303 10.0303C15.6709 9.88962 15.75 9.69891 15.75 9.5C15.75 7.83402 14.38 6.6094 12.75 6.31738V6C12.75 5.80109 12.6709 5.61038 12.5303 5.46973C12.3896 5.32907 12.1989 5.25 12 5.25ZM12.75 12.8477C13.686 13.1027 14.25 13.822 14.25 14.5C14.25 15.178 13.686 15.8973 12.75 16.1523V12.8477ZM11.25 11.1523C10.314 10.8973 9.75 10.178 9.75 9.5C9.75003 8.82201 10.314 8.10267 11.25 7.84668V11.1523Z" fill="white" fill-opacity="0.9"/>
</svg>
