<svg width="24" height="24" viewBox="0 0 24 24" fill="none" xmlns="http://www.w3.org/2000/svg">
<path d="M12 2C17.5228 2 22 6.47715 22 12C22 17.5228 17.5228 22 12 22C6.47715 22 2 17.5228 2 12C2 6.47715 6.47715 2 12 2ZM12.1182 7.37988C11.5659 7.37995 11.1182 7.82764 11.1182 8.37988V12.9658L9.8252 11.6729C9.43467 11.2824 8.80164 11.2823 8.41113 11.6729C8.02079 12.0634 8.02072 12.6964 8.41113 13.0869L11.4111 16.0869C11.4573 16.133 11.5081 16.1745 11.5625 16.2109C11.5733 16.2182 11.5847 16.2247 11.5957 16.2314C11.6136 16.2424 11.6318 16.2528 11.6504 16.2627C11.6989 16.2884 11.7494 16.309 11.8008 16.3262C11.8089 16.3289 11.8169 16.3324 11.8252 16.335C11.8394 16.3393 11.8538 16.343 11.8682 16.3467C11.8863 16.3513 11.9044 16.3567 11.9229 16.3604C11.9673 16.3692 12.0125 16.3733 12.0576 16.376C12.0776 16.3772 12.0979 16.3799 12.1182 16.3799C12.1382 16.3799 12.158 16.3771 12.1777 16.376C12.2225 16.3733 12.2673 16.369 12.3115 16.3604C12.3303 16.3567 12.3488 16.3514 12.3672 16.3467C12.3812 16.3431 12.3953 16.3392 12.4092 16.335C12.4177 16.3324 12.4261 16.329 12.4346 16.3262C12.4859 16.309 12.5364 16.2884 12.585 16.2627C12.6046 16.2523 12.6238 16.2411 12.6426 16.2295C12.6524 16.2234 12.6623 16.2174 12.6719 16.2109C12.7268 16.1743 12.7787 16.1334 12.8252 16.0869L15.8252 13.0869C16.2156 12.6965 16.2154 12.0634 15.8252 11.6729C15.4347 11.2824 14.8016 11.2823 14.4111 11.6729L13.1182 12.9658V8.37988C13.1182 7.82766 12.6704 7.37999 12.1182 7.37988Z" fill="white" fill-opacity="0.9"/>
</svg>
