<svg width="24" height="24" viewBox="0 0 24 24" fill="none" xmlns="http://www.w3.org/2000/svg">
<path d="M12.4922 2.01172C13.6373 2.06814 14.7657 2.32107 15.8271 2.76074C17.0404 3.26329 18.1427 4.00015 19.0713 4.92871C19.9998 5.85727 20.7367 6.95964 21.2393 8.17285C21.7418 9.38611 22 10.6868 22 12L21.9883 12.4922C21.9319 13.6373 21.6789 14.7657 21.2393 15.8271C20.7367 17.0404 19.9998 18.1427 19.0713 19.0713C18.1427 19.9998 17.0404 20.7367 15.8271 21.2393C14.7657 21.6789 13.6373 21.9319 12.4922 21.9883L12 22C10.6868 22 9.38611 21.7418 8.17285 21.2393C6.95964 20.7367 5.85727 19.9998 4.92871 19.0713C4.00015 18.1427 3.26329 17.0404 2.76074 15.8271C2.32107 14.7657 2.06814 13.6373 2.01172 12.4922L2 12C2 10.6868 2.2582 9.38611 2.76074 8.17285C3.26329 6.95964 4.00015 5.85727 4.92871 4.92871C5.85727 4.00015 6.95964 3.26329 8.17285 2.76074C9.38611 2.2582 10.6868 2 12 2L12.4922 2.01172ZM12 4C10.9494 4 9.90908 4.20734 8.93848 4.60938C7.96795 5.01141 7.08559 5.59995 6.34277 6.34277C5.59995 7.08559 5.01141 7.96795 4.60938 8.93848C4.20734 9.90908 4 10.9494 4 12L4.00977 12.3936C4.05489 13.3097 4.25762 14.2123 4.60938 15.0615C5.01141 16.0321 5.59995 16.9144 6.34277 17.6572C7.08559 18.4 7.96795 18.9886 8.93848 19.3906C9.90908 19.7927 10.9494 20 12 20L12.3936 19.9902C13.3097 19.9451 14.2123 19.7424 15.0615 19.3906C16.0321 18.9886 16.9144 18.4 17.6572 17.6572C18.4 16.9144 18.9886 16.0321 19.3906 15.0615C19.7927 14.0909 20 13.0506 20 12L19.9902 11.6064C19.9451 10.6903 19.7424 9.7877 19.3906 8.93848C18.9886 7.96795 18.4 7.08559 17.6572 6.34277C16.9144 5.59995 16.0321 5.01141 15.0615 4.60938C14.2123 4.25762 13.3097 4.05489 12.3936 4.00977L12 4ZM12.1182 7.37988C12.6704 7.37989 13.1182 7.8276 13.1182 8.37988V12.9658L14.4111 11.6729C14.8017 11.2823 15.4347 11.2823 15.8252 11.6729C16.2155 12.0634 16.2156 12.6965 15.8252 13.0869L12.8252 16.0869C12.7335 16.1785 12.6235 16.2511 12.502 16.3018C12.481 16.3105 12.4598 16.318 12.4385 16.3252C12.4287 16.3285 12.4191 16.332 12.4092 16.335C12.3952 16.3392 12.3813 16.3431 12.3672 16.3467C12.3487 16.3514 12.3304 16.3567 12.3115 16.3604C12.2673 16.369 12.2226 16.3733 12.1777 16.376C12.158 16.3771 12.1382 16.3799 12.1182 16.3799C12.0978 16.3799 12.0777 16.3772 12.0576 16.376C12.0118 16.3732 11.9661 16.3684 11.9209 16.3594C11.9064 16.3565 11.8922 16.3522 11.8779 16.3486C11.8603 16.3443 11.8426 16.3403 11.8252 16.335C11.8146 16.3317 11.8044 16.3278 11.7939 16.3242C11.7737 16.3173 11.7532 16.311 11.7334 16.3027C11.6121 16.2521 11.5027 16.1784 11.4111 16.0869L8.41113 13.0869C8.02067 12.6965 8.0208 12.0634 8.41113 11.6729C8.80166 11.2823 9.43467 11.2823 9.8252 11.6729L11.1182 12.9658V8.37988C11.1182 7.8276 11.5659 7.37988 12.1182 7.37988Z" fill="white" fill-opacity="0.9"/>
</svg>
