<svg width="24" height="24" viewBox="0 0 24 24" fill="none" xmlns="http://www.w3.org/2000/svg">
<path d="M12 2C17.5228 2 22 6.47715 22 12C22 17.5228 17.5228 22 12 22C6.47715 22 2 17.5228 2 12C2 6.47715 6.47715 2 12 2ZM7.42578 9.18945H10.7891V10.625C8.05568 10.7477 6 11.2774 6 11.9111C6.00069 12.5447 8.05713 13.0738 10.7891 13.1973V17.7998H13.2207V13.1963C15.9486 13.0732 17.9993 12.5451 18 11.9121C18 11.279 15.949 10.75 13.2207 10.627L13.2197 9.18945H16.583V7H7.42578V9.18945ZM13.2207 10.793C15.6308 10.8979 17.4297 11.3098 17.4297 11.7998C17.4286 12.2589 15.8473 12.6488 13.665 12.7822L13.2207 12.8057C13.1521 12.8099 12.7994 12.8301 12.0146 12.8301C11.3874 12.8301 10.9458 12.8126 10.79 12.8047V12.8066C8.37517 12.7021 6.57227 12.2915 6.57227 11.7998C6.57253 11.3082 8.37555 10.8977 10.79 10.793V12.3975C10.9484 12.4081 11.4005 12.4346 12.0244 12.4346C12.7738 12.4346 13.1511 12.4037 13.2207 12.3975V10.793Z" fill="#D24235"/>
</svg>
