<svg width="24" height="24" viewBox="0 0 24 24" fill="none" xmlns="http://www.w3.org/2000/svg">
<path d="M12 2C17.5228 2 22 6.47715 22 12C22 17.5228 17.5228 22 12 22C6.47715 22 2 17.5228 2 12C2 6.47715 6.47715 2 12 2ZM12 4C7.58172 4 4 7.58172 4 12C4 16.4183 7.58172 20 12 20C16.4183 20 20 16.4183 20 12C20 7.58172 16.4183 4 12 4ZM13.793 8.79297C14.1835 8.40249 14.8165 8.40246 15.207 8.79297C15.5975 9.18348 15.5975 9.8165 15.207 10.207L13.4141 12L15.207 13.793C15.5976 14.1835 15.5976 14.8165 15.207 15.207C14.8165 15.5976 14.1835 15.5976 13.793 15.207L12 13.4141L10.207 15.207C9.81651 15.5976 9.18349 15.5976 8.79297 15.207C8.40244 14.8165 8.40244 14.1835 8.79297 13.793L10.5859 12L8.79297 10.207C8.40249 9.8165 8.40246 9.18348 8.79297 8.79297C9.18348 8.40246 9.8165 8.40249 10.207 8.79297L12 10.5859L13.793 8.79297Z" fill="white" fill-opacity="0.9"/>
</svg>
