<svg width="24" height="24" viewBox="0 0 24 24" fill="none" xmlns="http://www.w3.org/2000/svg">
<path d="M12 2C17.5228 2 22 6.47715 22 12C22 17.5228 17.5228 22 12 22C6.47715 22 2 17.5228 2 12C2 6.47715 6.47715 2 12 2ZM12 4C7.58172 4 4 7.58172 4 12C4 16.4183 7.58172 20 12 20C16.4183 20 20 16.4183 20 12C20 7.58172 16.4183 4 12 4ZM12 11.5C12.5523 11.5 13 11.9477 13 12.5V16.5C13 17.0523 12.5523 17.5 12 17.5C11.4477 17.5 11 17.0523 11 16.5V12.5C11 11.9477 11.4477 11.5 12 11.5ZM12 6.5C12.8284 6.5 13.5 7.17157 13.5 8C13.5 8.82843 12.8284 9.5 12 9.5C11.1716 9.5 10.5 8.82843 10.5 8C10.5 7.17157 11.1716 6.5 12 6.5Z" fill="white" fill-opacity="0.9"/>
</svg>
