<svg width="24" height="24" viewBox="0 0 24 24" fill="none" xmlns="http://www.w3.org/2000/svg">
<path d="M12.4922 2.01172C13.6373 2.06814 14.7657 2.32107 15.8271 2.76074C17.0404 3.26329 18.1427 4.00015 19.0713 4.92871C19.9998 5.85727 20.7367 6.95964 21.2393 8.17285C21.7418 9.38611 22 10.6868 22 12L21.9883 12.4922C21.9319 13.6373 21.6789 14.7657 21.2393 15.8271C20.7367 17.0404 19.9998 18.1427 19.0713 19.0713C18.1427 19.9998 17.0404 20.7367 15.8271 21.2393C14.7657 21.6789 13.6373 21.9319 12.4922 21.9883L12 22C10.6868 22 9.38611 21.7418 8.17285 21.2393C6.95964 20.7367 5.85727 19.9998 4.92871 19.0713C4.00015 18.1427 3.26329 17.0404 2.76074 15.8271C2.32107 14.7657 2.06814 13.6373 2.01172 12.4922L2 12C2 10.6868 2.2582 9.38611 2.76074 8.17285C3.26329 6.95964 4.00015 5.85727 4.92871 4.92871C5.85727 4.00015 6.95964 3.26329 8.17285 2.76074C9.38611 2.2582 10.6868 2 12 2L12.4922 2.01172ZM12 4C10.9494 4 9.90908 4.20734 8.93848 4.60938C7.96795 5.01141 7.08559 5.59995 6.34277 6.34277C5.59995 7.08559 5.01141 7.96795 4.60938 8.93848C4.20734 9.90908 4 10.9494 4 12L4.00977 12.3936C4.05489 13.3097 4.25762 14.2123 4.60938 15.0615C5.01141 16.0321 5.59995 16.9144 6.34277 17.6572C7.08559 18.4 7.96795 18.9886 8.93848 19.3906C9.90908 19.7927 10.9494 20 12 20L12.3936 19.9902C13.3097 19.9451 14.2123 19.7424 15.0615 19.3906C16.0321 18.9886 16.9144 18.4 17.6572 17.6572C18.4 16.9144 18.9886 16.0321 19.3906 15.0615C19.7927 14.0909 20 13.0506 20 12L19.9902 11.6064C19.9451 10.6903 19.7424 9.7877 19.3906 8.93848C18.9886 7.96795 18.4 7.08559 17.6572 6.34277C16.9144 5.59995 16.0321 5.01141 15.0615 4.60938C14.2123 4.25762 13.3097 4.05489 12.3936 4.00977L12 4ZM10.793 8.29297C11.1835 7.90247 11.8165 7.90248 12.207 8.29297C12.5976 8.68349 12.5975 9.31651 12.207 9.70703L10.9141 11H15.5C16.0523 11 16.4999 11.4478 16.5 12C16.5 12.5523 16.0523 13 15.5 13H10.9141L12.207 14.293C12.5976 14.6835 12.5975 15.3165 12.207 15.707C11.8165 16.0976 11.1835 16.0976 10.793 15.707L7.79297 12.707C7.76536 12.6794 7.7405 12.65 7.7168 12.6201C7.68065 12.5745 7.64797 12.5262 7.62012 12.4746C7.61269 12.4609 7.60634 12.4466 7.59961 12.4326C7.57781 12.3873 7.55783 12.3408 7.54297 12.292C7.5303 12.2503 7.52176 12.2077 7.51465 12.165C7.50572 12.1113 7.5 12.0562 7.5 12C7.50001 11.8481 7.5341 11.7041 7.59473 11.5752C7.61568 11.5305 7.64004 11.4871 7.66797 11.4453C7.70461 11.3905 7.7465 11.3394 7.79297 11.293L10.793 8.29297Z" fill="white" fill-opacity="0.9"/>
</svg>
