<svg width="24" height="24" viewBox="0 0 24 24" fill="none" xmlns="http://www.w3.org/2000/svg">
<path d="M12 2C17.5228 2 22 6.47715 22 12C22 17.5228 17.5228 22 12 22C6.47715 22 2 17.5228 2 12C2 6.47715 6.47715 2 12 2ZM12.207 8.29297C11.8165 7.90253 11.1835 7.90253 10.793 8.29297L7.79297 11.293C7.74518 11.3408 7.70241 11.3936 7.66504 11.4502C7.64032 11.4877 7.61876 11.5266 7.59961 11.5664C7.57779 11.6116 7.55787 11.6583 7.54297 11.707C7.53679 11.7273 7.5322 11.748 7.52734 11.7686C7.50974 11.8428 7.50001 11.9203 7.5 12C7.5 12.1551 7.53655 12.3016 7.59961 12.4326C7.60633 12.4466 7.61271 12.4609 7.62012 12.4746C7.64796 12.5261 7.68067 12.5745 7.7168 12.6201C7.74048 12.6499 7.76539 12.6795 7.79297 12.707L10.793 15.707C11.1835 16.0975 11.8165 16.0975 12.207 15.707C12.5975 15.3165 12.5975 14.6835 12.207 14.293L10.9141 13H15.5C16.0523 13 16.5 12.5523 16.5 12C16.4999 11.4478 16.0522 11 15.5 11H10.9141L12.207 9.70703C12.5975 9.31651 12.5975 8.68347 12.207 8.29297Z" fill="white" fill-opacity="0.9"/>
</svg>
