<svg width="24" height="24" viewBox="0 0 24 24" fill="none" xmlns="http://www.w3.org/2000/svg">
<path d="M12 2C17.5228 2 22 6.47715 22 12C22 17.5228 17.5228 22 12 22C6.47715 22 2 17.5228 2 12C2 6.47715 6.47715 2 12 2ZM11.876 6C11.8001 6.0002 11.7264 6.02532 11.666 6.07129C11.6056 6.11732 11.5614 6.1817 11.541 6.25488L9.69043 12.5078L8.23047 12.9521L7.90918 13.9922L9.36621 13.5488L8.04883 18H15.8438C15.9198 18.0001 15.9939 17.9753 16.0547 17.9297C16.1154 17.8841 16.1595 17.82 16.1807 17.7471L16.625 16.2178C16.6362 16.1791 16.638 16.1383 16.6309 16.0986C16.6236 16.0587 16.6073 16.0208 16.583 15.9883C16.5588 15.9559 16.5274 15.9293 16.4912 15.9111C16.4549 15.8929 16.4146 15.8829 16.374 15.8828H11.2705L12.2246 12.6631L13.6953 12.2354L14.0088 11.1768L12.5508 11.6201L14.1045 6.33301C14.1155 6.294 14.1169 6.2527 14.1094 6.21289C14.1018 6.17315 14.085 6.13574 14.0605 6.10352C14.036 6.07125 14.0041 6.04529 13.9678 6.02734C13.9316 6.00948 13.8919 5.99993 13.8516 6H11.876Z" fill="white" fill-opacity="0.9"/>
</svg>
