<svg width="24" height="24" viewBox="0 0 24 24" fill="none" xmlns="http://www.w3.org/2000/svg">
<path d="M12 2C17.5228 2 22 6.47715 22 12C22 17.5228 17.5228 22 12 22C6.47715 22 2 17.5228 2 12C2 6.47715 6.47715 2 12 2ZM12 4C7.58172 4 4 7.58172 4 12C4 16.4183 7.58172 20 12 20C16.4183 20 20 16.4183 20 12C20 7.58172 16.4183 4 12 4ZM12 7.46484C12.5523 7.46486 13 7.91257 13 8.46484V11H15.5352C16.0874 11 16.5351 11.4477 16.5352 12C16.5352 12.5523 16.0874 13 15.5352 13H13V15.5352C13 16.0874 12.5523 16.5351 12 16.5352C11.4477 16.5352 11 16.0874 11 15.5352V13H8.46484C7.91256 13 7.46484 12.5523 7.46484 12C7.46485 11.4477 7.91256 11 8.46484 11H11V8.46484C11 7.91256 11.4477 7.46484 12 7.46484Z" fill="white" fill-opacity="0.9"/>
</svg>
