<svg width="24" height="24" viewBox="0 0 24 24" fill="none" xmlns="http://www.w3.org/2000/svg">
<path d="M12 2C17.5228 2 22 6.47715 22 12C22 17.5228 17.5228 22 12 22C6.47715 22 2 17.5228 2 12C2 6.47715 6.47715 2 12 2ZM12 7.46484C11.4477 7.46484 11 7.91256 11 8.46484V11H8.46484C7.91256 11 7.46485 11.4477 7.46484 12C7.46484 12.5523 7.91256 13 8.46484 13H11V15.5352C11 16.0874 11.4477 16.5352 12 16.5352C12.5523 16.5351 13 16.0874 13 15.5352V13H15.5352C16.0874 13 16.5352 12.5523 16.5352 12C16.5351 11.4477 16.0874 11 15.5352 11H13V8.46484C13 7.91257 12.5523 7.46486 12 7.46484Z" fill="white" fill-opacity="0.9"/>
</svg>
