<svg width="24" height="24" viewBox="0 0 24 24" fill="none" xmlns="http://www.w3.org/2000/svg">
<path d="M12.4922 2.01172C13.6373 2.06814 14.7657 2.32107 15.8271 2.76074C17.0404 3.26329 18.1427 4.00015 19.0713 4.92871C19.9998 5.85727 20.7367 6.95964 21.2393 8.17285C21.7418 9.38611 22 10.6868 22 12L21.9883 12.4922C21.9319 13.6373 21.6789 14.7657 21.2393 15.8271C20.7367 17.0404 19.9998 18.1427 19.0713 19.0713C18.1427 19.9998 17.0404 20.7367 15.8271 21.2393C14.7657 21.6789 13.6373 21.9319 12.4922 21.9883L12 22C10.6868 22 9.38611 21.7418 8.17285 21.2393C6.95964 20.7367 5.85727 19.9998 4.92871 19.0713C4.00015 18.1427 3.26329 17.0404 2.76074 15.8271C2.32107 14.7657 2.06814 13.6373 2.01172 12.4922L2 12C2 10.6868 2.2582 9.38611 2.76074 8.17285C3.26329 6.95964 4.00015 5.85727 4.92871 4.92871C5.85727 4.00015 6.95964 3.26329 8.17285 2.76074C9.38611 2.2582 10.6868 2 12 2L12.4922 2.01172ZM12 4C10.9494 4 9.90908 4.20734 8.93848 4.60938C7.96795 5.01141 7.08559 5.59995 6.34277 6.34277C5.59995 7.08559 5.01141 7.96795 4.60938 8.93848C4.20734 9.90908 4 10.9494 4 12L4.00977 12.3936C4.05489 13.3097 4.25762 14.2123 4.60938 15.0615C5.01141 16.0321 5.59995 16.9144 6.34277 17.6572C7.08559 18.4 7.96795 18.9886 8.93848 19.3906C9.90908 19.7927 10.9494 20 12 20L12.3936 19.9902C13.3097 19.9451 14.2123 19.7424 15.0615 19.3906C16.0321 18.9886 16.9144 18.4 17.6572 17.6572C18.4 16.9144 18.9886 16.0321 19.3906 15.0615C19.7927 14.0909 20 13.0506 20 12L19.9902 11.6064C19.9451 10.6903 19.7424 9.7877 19.3906 8.93848C18.9886 7.96795 18.4 7.08559 17.6572 6.34277C16.9144 5.59995 16.0321 5.01141 15.0615 4.60938C14.2123 4.25762 13.3097 4.05489 12.3936 4.00977L12 4ZM12 15.5C12.6627 15.5 13.2002 16.0375 13.2002 16.7002C13.2001 17.3628 12.6627 17.9004 12 17.9004C11.3373 17.9004 10.7999 17.3628 10.7998 16.7002C10.7998 16.0375 11.3373 15.5 12 15.5ZM12 6C13.6566 6.00021 15.1004 7.44304 15.1006 9.09961C15.1006 10.5112 14.3252 11.3874 13.7891 11.9746C13.1825 12.6389 13 12.8643 13 13.2002C12.9999 13.7523 12.5521 14.2 12 14.2002C11.448 14.2 11.0001 13.7523 11 13.2002C11 11.9364 11.868 11.1116 12.3115 10.626C12.8253 10.0633 13.1006 9.6878 13.1006 9.09961C13.1003 8.54758 12.552 8.00024 12 8C11.7911 8.00011 11.5304 8.08745 11.293 8.26953C11.0536 8.45317 10.9141 8.67489 10.8691 8.84961C10.7314 9.38413 10.186 9.70564 9.65137 9.56836C9.11651 9.4307 8.79398 8.88544 8.93164 8.35059C9.10868 7.66292 9.55323 7.08423 10.0752 6.68359C10.5989 6.28182 11.2774 6.0001 12 6Z" fill="white" fill-opacity="0.9"/>
</svg>
