<svg width="24" height="24" viewBox="0 0 24 24" fill="none" xmlns="http://www.w3.org/2000/svg">
<path d="M12.0049 18C12.8333 18 13.5049 18.6716 13.5049 19.5C13.5049 20.3284 12.8333 21 12.0049 21C11.1766 20.9998 10.5049 20.3283 10.5049 19.5C10.5049 18.6717 11.1766 18.0002 12.0049 18ZM11.998 3C14.5529 3.00014 16.8047 5.25279 16.8047 7.80762C16.8046 10.0322 15.6026 11.416 14.6396 12.4707C13.6064 13.6023 12.998 14.255 12.998 15.2412C12.9978 15.7932 12.5501 16.2411 11.998 16.2412C11.446 16.2411 10.9983 15.7933 10.998 15.2412C10.998 13.3268 12.2929 12.0752 13.1631 11.1221C14.1037 10.0919 14.8046 9.20876 14.8047 7.80762C14.8047 6.35736 13.4483 5.00015 11.998 5C11.4103 5.00003 10.7679 5.23746 10.2207 5.65723C9.67181 6.07844 9.2944 6.62502 9.15918 7.15039C9.02144 7.68505 8.47613 8.00666 7.94141 7.86914C7.40663 7.73144 7.08405 7.18618 7.22168 6.65137C7.489 5.6129 8.17127 4.7085 9.00293 4.07031C9.83623 3.43097 10.8965 3.00003 11.998 3Z" fill="white" fill-opacity="0.9"/>
</svg>
