<svg width="24" height="24" viewBox="0 0 24 24" fill="none" xmlns="http://www.w3.org/2000/svg">
<path d="M12 2C17.5228 2 22 6.47715 22 12C22 17.5228 17.5228 22 12 22C6.47715 22 2 17.5228 2 12C2 6.47715 6.47715 2 12 2ZM12 15.5C11.3373 15.5 10.7998 16.0375 10.7998 16.7002C10.7999 17.3628 11.3373 17.9004 12 17.9004C12.6627 17.9004 13.2001 17.3628 13.2002 16.7002C13.2002 16.0375 12.6627 15.5 12 15.5ZM12 6C11.2774 6.0001 10.5989 6.28182 10.0752 6.68359C9.55323 7.08423 9.10868 7.66292 8.93164 8.35059C8.79398 8.88544 9.11651 9.4307 9.65137 9.56836C10.186 9.70564 10.7314 9.38413 10.8691 8.84961C10.9141 8.67489 11.0536 8.45317 11.293 8.26953C11.5304 8.08745 11.7911 8.00011 12 8C12.552 8.00024 13.1003 8.54758 13.1006 9.09961C13.1006 9.6878 12.8253 10.0633 12.3115 10.626C11.868 11.1116 11 11.9364 11 13.2002C11.0001 13.7523 11.448 14.2 12 14.2002C12.5521 14.2 12.9999 13.7523 13 13.2002C13 12.8643 13.1825 12.6389 13.7891 11.9746C14.3252 11.3874 15.1006 10.5112 15.1006 9.09961C15.1004 7.44304 13.6566 6.00021 12 6Z" fill="white" fill-opacity="0.9"/>
</svg>
