<svg width="24" height="24" viewBox="0 0 24 24" fill="none" xmlns="http://www.w3.org/2000/svg">
<path d="M12 2C17.5228 2 22 6.47715 22 12C22 17.5228 17.5228 22 12 22C6.47715 22 2 17.5228 2 12C2 6.47715 6.47715 2 12 2ZM13.207 8.29297C12.8165 7.90253 12.1835 7.90253 11.793 8.29297C11.4025 8.68347 11.4025 9.31651 11.793 9.70703L13.0859 11H8.5C7.94776 11 7.50007 11.4478 7.5 12C7.50005 12.5522 7.94775 13 8.5 13H13.0859L11.793 14.293C11.4025 14.6835 11.4025 15.3165 11.793 15.707C12.1835 16.0975 12.8165 16.0975 13.207 15.707L16.207 12.707C16.238 12.676 16.265 12.6422 16.291 12.6084C16.3048 12.5905 16.3185 12.5725 16.3311 12.5537C16.359 12.5119 16.3833 12.4685 16.4043 12.4238C16.4244 12.381 16.4421 12.3369 16.4561 12.291C16.4611 12.2743 16.4646 12.2571 16.4688 12.2402C16.4878 12.1632 16.5 12.083 16.5 12C16.5 11.9203 16.4893 11.8429 16.4717 11.7686C16.4668 11.748 16.4622 11.7273 16.4561 11.707C16.4412 11.6584 16.4222 11.6116 16.4004 11.5664C16.3812 11.5266 16.3597 11.4877 16.335 11.4502C16.2976 11.3936 16.2548 11.3408 16.207 11.293L13.207 8.29297Z" fill="white" fill-opacity="0.9"/>
</svg>
