<svg width="24" height="24" viewBox="0 0 24 24" fill="none" xmlns="http://www.w3.org/2000/svg">
<path d="M12 2C17.5228 2 22 6.47715 22 12C22 17.5228 17.5228 22 12 22C6.47715 22 2 17.5228 2 12C2 6.47715 6.47715 2 12 2ZM15.707 9.29297C15.3165 8.90249 14.6835 8.90246 14.293 9.29297L11 12.5859L9.70703 11.293C9.3165 10.9025 8.68348 10.9025 8.29297 11.293C7.90246 11.6835 7.90249 12.3165 8.29297 12.707L10.293 14.707C10.6835 15.0976 11.3165 15.0976 11.707 14.707L15.707 10.707C16.0976 10.3165 16.0976 9.68349 15.707 9.29297Z" fill="white" fill-opacity="0.9"/>
</svg>
