<svg width="24" height="24" viewBox="0 0 24 24" fill="none" xmlns="http://www.w3.org/2000/svg">
<path d="M12 2C17.5228 2 22 6.47715 22 12C22 17.5228 17.5228 22 12 22C6.47715 22 2 17.5228 2 12C2 6.47715 6.47715 2 12 2ZM12 4C7.58172 4 4 7.58172 4 12C4 16.4183 7.58172 20 12 20C16.4183 20 20 16.4183 20 12C20 7.58172 16.4183 4 12 4ZM14.293 9.29297C14.6835 8.90246 15.3165 8.90249 15.707 9.29297C16.0976 9.68349 16.0976 10.3165 15.707 10.707L11.707 14.707C11.3165 15.0976 10.6835 15.0976 10.293 14.707L8.29297 12.707C7.90249 12.3165 7.90246 11.6835 8.29297 11.293C8.68348 10.9025 9.3165 10.9025 9.70703 11.293L11 12.5859L14.293 9.29297Z" fill="white" fill-opacity="0.9"/>
</svg>
