<svg width="24" height="24" viewBox="0 0 24 24" fill="none" xmlns="http://www.w3.org/2000/svg">
<path d="M12.4922 2.01172C13.6373 2.06814 14.7657 2.32107 15.8271 2.76074C17.0404 3.26329 18.1427 4.00015 19.0713 4.92871C19.9998 5.85727 20.7367 6.95964 21.2393 8.17285C21.7418 9.38611 22 10.6868 22 12L21.9883 12.4922C21.9319 13.6373 21.6789 14.7657 21.2393 15.8271C20.7367 17.0404 19.9998 18.1427 19.0713 19.0713C18.1427 19.9998 17.0404 20.7367 15.8271 21.2393C14.7657 21.6789 13.6373 21.9319 12.4922 21.9883L12 22C10.6868 22 9.38611 21.7418 8.17285 21.2393C6.95964 20.7367 5.85727 19.9998 4.92871 19.0713C4.00015 18.1427 3.26329 17.0404 2.76074 15.8271C2.32107 14.7657 2.06814 13.6373 2.01172 12.4922L2 12C2 10.6868 2.2582 9.38611 2.76074 8.17285C3.26329 6.95964 4.00015 5.85727 4.92871 4.92871C5.85727 4.00015 6.95964 3.26329 8.17285 2.76074C9.38611 2.2582 10.6868 2 12 2L12.4922 2.01172ZM12 4C10.9494 4 9.90908 4.20734 8.93848 4.60938C7.96795 5.01141 7.08559 5.59995 6.34277 6.34277C5.59995 7.08559 5.01141 7.96795 4.60938 8.93848C4.20734 9.90908 4 10.9494 4 12L4.00977 12.3936C4.05489 13.3097 4.25762 14.2123 4.60938 15.0615C5.01141 16.0321 5.59995 16.9144 6.34277 17.6572C7.08559 18.4 7.96795 18.9886 8.93848 19.3906C9.90908 19.7927 10.9494 20 12 20L12.3936 19.9902C13.3097 19.9451 14.2123 19.7424 15.0615 19.3906C16.0321 18.9886 16.9144 18.4 17.6572 17.6572C18.4 16.9144 18.9886 16.0321 19.3906 15.0615C19.7927 14.0909 20 13.0506 20 12L19.9902 11.6064C19.9451 10.6903 19.7424 9.7877 19.3906 8.93848C18.9886 7.96795 18.4 7.08559 17.6572 6.34277C16.9144 5.59995 16.0321 5.01141 15.0615 4.60938C14.2123 4.25762 13.3097 4.05489 12.3936 4.00977L12 4ZM12 7.5L12.1025 7.50488C12.1236 7.50703 12.1443 7.51121 12.165 7.51465C12.1738 7.51611 12.1827 7.51686 12.1914 7.51855L12.2012 7.52051C12.2094 7.52219 12.2174 7.52449 12.2256 7.52637C12.2455 7.53096 12.2655 7.53519 12.2852 7.54102L12.2969 7.54492C12.3032 7.54688 12.3092 7.54968 12.3154 7.55176C12.3387 7.55949 12.362 7.56765 12.3848 7.57715C12.3934 7.58074 12.4017 7.58504 12.4102 7.58887C12.4596 7.61112 12.5077 7.63726 12.5537 7.66797C12.6088 7.70471 12.6604 7.74631 12.707 7.79297L15.707 10.793C16.0975 11.1835 16.0975 11.8165 15.707 12.207C15.3165 12.5976 14.6835 12.5976 14.293 12.207L13 10.9141V15.5C13 16.0523 12.5523 16.5 12 16.5C11.4477 16.5 11 16.0523 11 15.5V10.9141L9.70703 12.207C9.31651 12.5976 8.68349 12.5976 8.29297 12.207C7.90249 11.8165 7.90246 11.1835 8.29297 10.793L11.293 7.79297C11.3611 7.72483 11.439 7.66639 11.5244 7.62012C11.5455 7.60871 11.5672 7.59865 11.5889 7.58887C11.5976 7.58491 11.6063 7.58086 11.6152 7.57715C11.6323 7.57004 11.6496 7.56374 11.667 7.55762C11.6804 7.5529 11.6934 7.54713 11.707 7.54297C11.7273 7.53678 11.748 7.53221 11.7686 7.52734C11.7799 7.52465 11.7912 7.52183 11.8027 7.51953C11.8047 7.51914 11.8067 7.51893 11.8086 7.51855L11.8975 7.50488C11.9311 7.50145 11.9654 7.5 12 7.5Z" fill="white" fill-opacity="0.9"/>
</svg>
