<svg width="24" height="24" viewBox="0 0 24 24" fill="none" xmlns="http://www.w3.org/2000/svg">
<path d="M12 2C17.5228 2 22 6.47715 22 12C22 17.5228 17.5228 22 12 22C6.47715 22 2 17.5228 2 12C2 6.47715 6.47715 2 12 2ZM11.8271 7.51562C11.8198 7.51691 11.8121 7.5171 11.8047 7.51855C11.7889 7.52169 11.7734 7.52641 11.7578 7.53027C11.7412 7.53439 11.7244 7.53799 11.708 7.54297C11.6941 7.54721 11.6806 7.5528 11.667 7.55762C11.6497 7.56373 11.6323 7.57005 11.6152 7.57715C11.6064 7.58085 11.5976 7.58492 11.5889 7.58887C11.5672 7.59864 11.5455 7.60872 11.5244 7.62012C11.439 7.66638 11.3611 7.72485 11.293 7.79297L8.29297 10.793C7.90251 11.1835 7.90251 11.8165 8.29297 12.207C8.68348 12.5975 9.3165 12.5975 9.70703 12.207L11 10.9141V15.5C11 16.0523 11.4478 16.5 12 16.5C12.5522 16.4999 13 16.0522 13 15.5V10.9141L14.293 12.207C14.6835 12.5975 15.3165 12.5975 15.707 12.207C16.0975 11.8165 16.0975 11.1835 15.707 10.793L12.707 7.79297C12.6604 7.74633 12.6088 7.7047 12.5537 7.66797C12.4808 7.61932 12.403 7.58114 12.3223 7.55371C12.3119 7.55017 12.3015 7.54617 12.291 7.54297L12.1934 7.51855C12.1863 7.51718 12.179 7.51686 12.1719 7.51562C12.149 7.51165 12.1259 7.50727 12.1025 7.50488L12 7.5C11.9411 7.50001 11.8833 7.50585 11.8271 7.51562Z" fill="white" fill-opacity="0.9"/>
</svg>
