<svg width="24" height="24" viewBox="0 0 24 24" fill="none" xmlns="http://www.w3.org/2000/svg">
<path d="M12 2.33008C12.5009 2.33016 12.9943 2.45926 13.4307 2.70508C13.8126 2.9203 14.1408 3.21889 14.3906 3.57715L14.4932 3.73438L14.4951 3.73828L22.6016 17.2744L22.6094 17.2891C22.8633 17.7295 22.9978 18.2289 22.999 18.7373C23.0002 19.2457 22.8689 19.7458 22.6172 20.1875C22.3654 20.6292 22.0016 20.9979 21.5635 21.2559C21.1255 21.5136 20.6273 21.6522 20.1191 21.6582H3.88184C3.37341 21.6524 2.87474 21.5137 2.43652 21.2559C1.99825 20.9979 1.63468 20.6293 1.38281 20.1875C1.13099 19.7456 0.999585 19.245 1.00098 18.7363C1.00243 18.2276 1.13719 17.7277 1.3916 17.2871C1.3942 17.2826 1.39674 17.2779 1.39941 17.2734L9.50098 3.74609C9.50324 3.74223 9.50549 3.73821 9.50781 3.73438C9.76746 3.30586 10.1338 2.951 10.5703 2.70508C11.0066 2.45938 11.4993 2.33016 12 2.33008ZM12 4.33008C11.8432 4.33016 11.6884 4.37036 11.5518 4.44727C11.416 4.52373 11.303 4.63474 11.2217 4.76758L3.12305 18.2871C3.04325 18.4253 3.00143 18.5826 3.00098 18.7422C3.00061 18.9016 3.04217 19.0588 3.12109 19.1973C3.20008 19.3356 3.31388 19.4514 3.45117 19.5322C3.58847 19.613 3.74503 19.6563 3.9043 19.6582H20.0957C20.2549 19.6563 20.4116 19.613 20.5488 19.5322C20.6861 19.4513 20.8009 19.3357 20.8799 19.1973C20.9588 19.0588 20.9994 18.9016 20.999 18.7422C20.9986 18.5828 20.9565 18.4262 20.877 18.2881V18.2871L12.7822 4.77051L12.7148 4.67383C12.6419 4.5825 12.5516 4.50503 12.4492 4.44727C12.3124 4.37024 12.157 4.33016 12 4.33008ZM12.0098 15.6621C12.562 15.6621 13.0097 16.1099 13.0098 16.6621C13.0098 17.2144 12.5621 17.6621 12.0098 17.6621H12C11.4477 17.6621 11 17.2144 11 16.6621C11.0001 16.1099 11.4478 15.6621 12 15.6621H12.0098ZM12 8.66211C12.5522 8.66211 12.9999 9.10988 13 9.66211V13.6621C13 14.2144 12.5523 14.6621 12 14.6621C11.4477 14.6621 11 14.2144 11 13.6621V9.66211C11.0001 9.10988 11.4478 8.66212 12 8.66211Z" fill="white" fill-opacity="0.9"/>
</svg>
