<svg width="24" height="24" viewBox="0 0 24 24" fill="none" xmlns="http://www.w3.org/2000/svg">
<path d="M11.998 3C13.0207 3.00033 13.967 3.52164 14.5088 4.35938L14.6123 4.53125L21.7119 16.7812L21.7744 16.9072C21.9516 17.3457 22.0223 17.8199 21.9814 18.291C21.9405 18.7624 21.7885 19.2177 21.5381 19.6191C21.2877 20.0205 20.9463 20.3574 20.541 20.6016C20.1357 20.8457 19.678 20.9908 19.2061 21.0244L19.0068 21.0322H5.00684L4.95801 21.0293L4.8457 21.0312C4.40043 21.0083 3.96547 20.8859 3.57324 20.6738C3.18109 20.4618 2.84117 20.1646 2.57812 19.8047L2.46875 19.6445C2.23077 19.2705 2.07875 18.8481 2.02344 18.4082C1.96814 17.9682 2.01132 17.521 2.14941 17.0996L2.2207 16.9062L2.28125 16.7812L9.37305 4.54785C9.63243 4.07892 10.013 3.68823 10.4746 3.41602C10.9361 3.14389 11.4623 3.00011 11.998 3ZM12 15.6621C11.4478 15.6621 11.0001 16.1099 11 16.6621C11 17.2144 11.4477 17.6621 12 17.6621H12.0098C12.562 17.6621 13.0098 17.2144 13.0098 16.6621C13.0097 16.1099 12.562 15.6621 12.0098 15.6621H12ZM12 8.66211C11.4478 8.66211 11.0001 9.10988 11 9.66211V13.6621C11 14.2144 11.4477 14.6621 12 14.6621C12.5523 14.6621 13 14.2144 13 13.6621V9.66211C12.9999 9.10991 12.5522 8.66215 12 8.66211Z" fill="white" fill-opacity="0.9"/>
</svg>
