<svg width="24" height="24" viewBox="0 0 24 24" fill="none" xmlns="http://www.w3.org/2000/svg">
<path d="M17.4526 5.63838H18.3616V6.54736C18.3616 6.78843 18.4574 7.01963 18.6279 7.1901C18.7983 7.36057 19.0295 7.45633 19.2706 7.45633C19.5117 7.45633 19.7429 7.36057 19.9133 7.1901C20.0838 7.01963 20.1796 6.78843 20.1796 6.54736V5.63838H21.0886C21.3296 5.63838 21.5608 5.54261 21.7313 5.37214C21.9018 5.20168 21.9975 4.97047 21.9975 4.7294C21.9975 4.48832 21.9018 4.25712 21.7313 4.08665C21.5608 3.91619 21.3296 3.82042 21.0886 3.82042H20.1796V2.91144C20.1796 2.67036 20.0838 2.43916 19.9133 2.2687C19.7429 2.09823 19.5117 2.00246 19.2706 2.00246C19.0295 2.00246 18.7983 2.09823 18.6279 2.2687C18.4574 2.43916 18.3616 2.67036 18.3616 2.91144V3.82042H17.4526C17.2116 3.82042 16.9804 3.91619 16.8099 4.08665C16.6394 4.25712 16.5437 4.48832 16.5437 4.7294C16.5437 4.97047 16.6394 5.20168 16.8099 5.37214C16.9804 5.54261 17.2116 5.63838 17.4526 5.63838ZM7.45388 7.45633V16.5461C7.45388 16.7872 7.54964 17.0184 7.72011 17.1889C7.89058 17.3593 8.12178 17.4551 8.36286 17.4551C8.60393 17.4551 8.83513 17.3593 9.0056 17.1889C9.17607 17.0184 9.27183 16.7872 9.27183 16.5461V7.45633C9.27183 7.21526 9.17607 6.98406 9.0056 6.81359C8.83513 6.64312 8.60393 6.54736 8.36286 6.54736C8.12178 6.54736 7.89058 6.64312 7.72011 6.81359C7.54964 6.98406 7.45388 7.21526 7.45388 7.45633ZM20.725 9.27429C20.608 9.29814 20.4968 9.34481 20.3979 9.41163C20.2989 9.47845 20.2141 9.5641 20.1483 9.66371C20.0824 9.76331 20.0368 9.87492 20.0141 9.99214C19.9914 10.1094 19.9921 10.2299 20.016 10.3469C20.3709 12.0705 20.1605 13.8626 19.4161 15.4572C18.6718 17.0518 17.4331 18.3638 15.8839 19.1986C14.3347 20.0333 12.5576 20.3463 10.8165 20.091C9.07531 19.8357 7.46289 19.0258 6.21854 17.7815C4.9742 16.5371 4.16427 14.9247 3.90898 13.1835C3.65369 11.4424 3.96666 9.66531 4.80141 8.11613C5.63617 6.56695 6.94822 5.32823 8.54281 4.58386C10.1374 3.83948 11.9295 3.62913 13.6531 3.98404C13.8942 4.03225 14.1445 3.98272 14.3491 3.84635C14.5537 3.70998 14.6957 3.49793 14.7439 3.25685C14.7921 3.01578 14.7426 2.76542 14.6062 2.56086C14.4698 2.3563 14.2578 2.21429 14.0167 2.16608C13.3515 2.04214 12.6753 1.98731 11.9988 2.00246C10.0212 2.00246 8.08804 2.58888 6.44375 3.68756C4.79947 4.78624 3.5179 6.34783 2.76112 8.17487C2.00433 10.0019 1.80632 12.0123 2.19213 13.9519C2.57793 15.8915 3.53022 17.6731 4.92858 19.0714C6.32693 20.4698 8.10854 21.4221 10.0481 21.8079C11.9877 22.1937 13.9981 21.9957 15.8251 21.2389C17.6522 20.4821 19.2138 19.2005 20.3124 17.5562C21.4111 15.912 21.9975 13.9788 21.9975 12.0012C21.9995 11.3296 21.9325 10.6595 21.7976 10.0015C21.7758 9.88285 21.7306 9.76974 21.6647 9.66874C21.5988 9.56774 21.5134 9.48087 21.4136 9.41319C21.3138 9.34551 21.2015 9.29838 21.0832 9.27453C20.965 9.25068 20.8432 9.2506 20.725 9.27429ZM11.0898 9.27429V10.1833C11.0938 10.856 11.3463 11.5034 11.7988 12.0012C11.3463 12.499 11.0938 13.1465 11.0898 13.8192V14.7282C11.0898 15.4514 11.3771 16.145 11.8885 16.6564C12.3999 17.1678 13.0935 17.4551 13.8167 17.4551H14.7257C15.4489 17.4551 16.1425 17.1678 16.6539 16.6564C17.1653 16.145 17.4526 15.4514 17.4526 14.7282V13.8192C17.4486 13.1465 17.1961 12.499 16.7436 12.0012C17.1961 11.5034 17.4486 10.856 17.4526 10.1833V9.27429C17.4526 8.55106 17.1653 7.85746 16.6539 7.34606C16.1425 6.83466 15.4489 6.54736 14.7257 6.54736H13.8167C13.0935 6.54736 12.3999 6.83466 11.8885 7.34606C11.3771 7.85746 11.0898 8.55106 11.0898 9.27429ZM15.6347 14.7282C15.6347 14.9692 15.5389 15.2004 15.3685 15.3709C15.198 15.5414 14.9668 15.6371 14.7257 15.6371H13.8167C13.5757 15.6371 13.3444 15.5414 13.174 15.3709C13.0035 15.2004 12.9077 14.9692 12.9077 14.7282V13.8192C12.9077 13.5781 13.0035 13.3469 13.174 13.1764C13.3444 13.006 13.5757 12.9102 13.8167 12.9102H14.7257C14.9668 12.9102 15.198 13.006 15.3685 13.1764C15.5389 13.3469 15.6347 13.5781 15.6347 13.8192V14.7282ZM15.6347 9.27429V10.1833C15.6347 10.4243 15.5389 10.6556 15.3685 10.826C15.198 10.9965 14.9668 11.0922 14.7257 11.0922H13.8167C13.5757 11.0922 13.3444 10.9965 13.174 10.826C13.0035 10.6556 12.9077 10.4243 12.9077 10.1833V9.27429C12.9077 9.03322 13.0035 8.80201 13.174 8.63155C13.3444 8.46108 13.5757 8.36531 13.8167 8.36531H14.7257C14.9668 8.36531 15.198 8.46108 15.3685 8.63155C15.5389 8.80201 15.6347 9.03322 15.6347 9.27429Z" fill="white" fill-opacity="0.9"/>
</svg>
