<svg width="24" height="24" viewBox="0 0 24 24" fill="none" xmlns="http://www.w3.org/2000/svg">
<path d="M11.9902 2C17.5201 2.00013 22 6.48008 22 12C22 17.5199 17.5201 21.9999 11.9902 22C6.47023 22 2 17.52 2 12C2 6.48 6.47023 2 11.9902 2ZM12 4C7.58 4 4 7.58 4 12C4 16.42 7.58 20 12 20C16.42 20 20 16.42 20 12C20 7.58 16.42 4 12 4ZM11.7803 7C12.1801 7.00015 12.4999 7.31995 12.5 7.71973V12.2598L16.3701 14.5596C16.7201 14.7595 16.83 15.2098 16.6201 15.5498C16.4201 15.8898 15.9796 15.99 15.6396 15.79L11.4902 13.2998C11.1804 13.1199 11.0001 12.7903 11 12.4404V7.71973C11.0001 7.31995 11.3199 7.00015 11.7197 7H11.7803Z" fill="white" fill-opacity="0.9"/>
</svg>
