<svg width="24" height="24" viewBox="0 0 24 24" fill="none" xmlns="http://www.w3.org/2000/svg">
<path d="M11.9902 2C17.5201 2.00013 22 6.48008 22 12C22 17.5199 17.5201 21.9999 11.9902 22C6.47023 22 2 17.52 2 12C2 6.48 6.47023 2 11.9902 2ZM11.7197 7C11.3199 7.00015 11.0001 7.31995 11 7.71973V12.4404C11.0001 12.7903 11.1804 13.1199 11.4902 13.2998L15.6396 15.79C15.9796 15.99 16.4201 15.8898 16.6201 15.5498C16.83 15.2098 16.7201 14.7595 16.3701 14.5596L12.5 12.2598V7.71973C12.4999 7.31995 12.1801 7.00015 11.7803 7H11.7197Z" fill="white" fill-opacity="0.9"/>
</svg>
