<svg width="24" height="24" viewBox="0 0 24 24" fill="none" xmlns="http://www.w3.org/2000/svg">
<path fill-rule="evenodd" clip-rule="evenodd" d="M12.5579 18.493V18.7166C12.5759 18.7122 12.5935 18.7058 12.61 18.6976C12.6423 18.6699 12.6746 18.6413 12.7068 18.6109C13.6483 17.6852 14.7799 17.0999 16.0424 16.7489C16.9945 16.4827 17.9666 16.3693 18.9532 16.3538C19.4937 16.3454 19.7687 16.0534 19.7687 15.5125V10.9853V4.79889C19.7684 4.30962 19.4644 3.99085 18.9983 4.0002C18.17 4.01696 17.3491 4.09593 16.5432 4.30446C15.1628 4.66191 13.9648 5.31265 13.0477 6.43688C12.7264 6.83138 12.543 7.24072 12.5462 7.77931C12.5631 10.4775 12.5611 13.1758 12.5591 15.874V15.8782C12.5585 16.7498 12.5579 17.6214 12.5579 18.493ZM11.3778 18.6881C11.3949 18.7011 11.4148 18.7162 11.4389 18.7355L11.4386 18.5182V7.49873C11.439 7.42907 11.4353 7.35944 11.4276 7.2902C11.3918 6.99322 11.2143 6.77329 11.0404 6.55775C11.0112 6.52161 10.9821 6.48552 10.9538 6.44929C10.258 5.56519 9.35388 4.96859 8.30862 4.57312C7.23436 4.167 6.11755 4.02035 4.97817 4.00134C4.87027 3.99762 4.76293 4.01843 4.66422 4.0622C4.56552 4.10597 4.47803 4.17156 4.40833 4.25403C4.26071 4.42324 4.22848 4.62308 4.22848 4.8387V15.5036C4.22848 15.518 4.22826 15.5323 4.22805 15.5466C4.22762 15.5753 4.22719 15.604 4.22848 15.6326C4.24557 16.0097 4.49793 16.2905 4.8731 16.3417C4.98512 16.3546 5.0978 16.361 5.21056 16.3607C6.09684 16.3739 6.97828 16.4939 7.83579 16.7182C9.15727 17.0665 10.3379 17.6693 11.3168 18.6388C11.3338 18.6547 11.3528 18.669 11.3778 18.6881ZM3.1003 6.51349V6.74458V15.4932C3.1003 15.9811 3.216 16.4259 3.53993 16.8053C3.88577 17.2104 4.3225 17.4228 4.8527 17.4663C5.01177 17.4793 5.17113 17.4911 5.33051 17.5028C5.85129 17.5411 6.37247 17.5795 6.88553 17.6649C7.90467 17.8344 8.86581 18.186 9.72252 18.783C9.87972 18.892 10.0297 19.0115 10.1797 19.1309C10.2468 19.1844 10.3139 19.2378 10.3816 19.2903L10.3617 19.328C10.2876 19.3133 10.2135 19.2982 10.1395 19.283C9.9975 19.254 9.85545 19.2249 9.71284 19.199C8.11804 18.9151 6.51713 18.9186 4.91652 19.1272C4.34472 19.2018 3.77672 19.3065 3.20893 19.4112C3.07485 19.4359 2.94076 19.4607 2.80667 19.485C2.23199 19.5887 1.84521 19.278 1.84521 18.6953V7.32024C1.84521 6.81162 2.13529 6.51993 2.64036 6.51445C2.74666 6.5126 2.85312 6.51291 2.96499 6.51323L3.1003 6.51349ZM13.8219 19.1259C13.7515 19.182 13.6811 19.238 13.61 19.293L13.6338 19.3285C13.6427 19.327 13.6517 19.3256 13.6608 19.3242C13.6826 19.3208 13.7045 19.3173 13.726 19.3123C14.8348 19.0529 15.9628 18.9672 17.1006 18.9827C18.4705 19.0065 19.8342 19.1719 21.1702 19.4761C21.3842 19.5241 21.5962 19.5303 21.7928 19.4081C22.062 19.2405 22.1549 18.9923 22.1549 18.6839C22.1535 14.9035 22.1528 11.1226 22.1528 7.34079C22.1528 7.33161 22.1529 7.32241 22.1529 7.3132C22.1532 7.27943 22.1533 7.24555 22.1512 7.21187C22.1349 6.95402 22.0172 6.7487 21.7944 6.6172C21.5885 6.49563 21.3692 6.50392 21.1452 6.51239C21.0627 6.51551 20.9797 6.51865 20.8965 6.51536V6.75483C20.894 9.6711 20.894 12.5874 20.8965 15.5036C20.8972 16.1563 20.6718 16.6977 20.1471 17.1006C19.801 17.3662 19.4023 17.4665 18.9722 17.4758C18.268 17.4913 17.569 17.5548 16.8789 17.7063C15.9477 17.9106 15.0659 18.2329 14.2778 18.7793C14.121 18.8875 13.9715 19.0067 13.8219 19.1259Z" fill="white" fill-opacity="0.9"/>
</svg>
