<svg width="24" height="24" viewBox="0 0 24 24" fill="none" xmlns="http://www.w3.org/2000/svg">
<path d="M12.001 19.7106C17.5239 19.7106 22 15.9708 22 11.3553C22 6.73979 17.5239 3 12.001 3C6.47814 3 2.00203 6.73979 2.00203 11.3553C2.00203 13.1669 2.69337 14.842 3.86512 16.2118C3.79091 17.1959 3.41985 18.0716 3.02927 18.7385C2.81445 19.108 2.59572 19.4053 2.43558 19.6061C2.35356 19.7065 2.29106 19.7829 2.24419 19.8351C2.22076 19.8592 2.20513 19.8793 2.19342 19.8913L2.1817 19.9034C2.00203 20.0882 1.95125 20.3613 2.0489 20.6023C2.14655 20.8433 2.37309 21 2.62697 21C3.74795 21 4.87674 20.6425 5.81414 20.2247C6.70858 19.823 7.47022 19.345 7.93502 18.9955C9.17708 19.4575 10.5519 19.7146 12.001 19.7146V19.7106ZM9.92701 8.81656C10.1809 8.72819 10.4621 8.82058 10.6262 9.04151L12.001 10.9255L13.3759 9.04151C13.536 8.82058 13.8172 8.72819 14.075 8.81656C14.3328 8.90493 14.5008 9.14997 14.5008 9.42714V13.2834C14.5008 13.6369 14.2195 13.9261 13.8758 13.9261C13.5321 13.9261 13.2509 13.6369 13.2509 13.2834V11.3553L12.501 12.3836C12.3838 12.5443 12.1963 12.6407 12.001 12.6407C11.8057 12.6407 11.6182 12.5443 11.5011 12.3836L10.7511 11.3553V13.2834C10.7511 13.6369 10.4699 13.9261 10.1262 13.9261C9.78249 13.9261 9.50127 13.6369 9.50127 13.2834V9.42714C9.50127 9.14997 9.67313 8.90493 9.92701 8.81656ZM16.688 10.343V10.3591C16.6919 10.3631 16.7115 10.3912 16.774 10.4274C16.9263 10.5197 17.1489 10.5921 17.4887 10.7005L17.5122 10.7085C17.8012 10.7969 18.1879 10.9174 18.4964 11.1183C18.8519 11.3472 19.1761 11.7289 19.1839 12.3193C19.1917 12.9219 18.887 13.3638 18.4886 13.6168C18.1176 13.8538 17.6723 13.9342 17.2895 13.9221C16.813 13.906 16.3639 13.7454 16.0162 13.6249C15.9615 13.6048 15.9108 13.5887 15.86 13.5686C15.5319 13.4561 15.3561 13.0906 15.4655 12.7572C15.5749 12.4238 15.9303 12.239 16.2545 12.3515C16.3209 12.3756 16.3834 12.3957 16.4459 12.4158C16.8013 12.5403 17.0552 12.6287 17.3286 12.6367C17.5356 12.6447 17.7192 12.5965 17.8285 12.5242C17.8754 12.4921 17.8989 12.464 17.9106 12.4439C17.9184 12.4278 17.934 12.3957 17.934 12.3354V12.3274C17.934 12.2993 17.934 12.2711 17.8285 12.2029C17.6801 12.1064 17.4536 12.0301 17.1255 11.9257L17.0786 11.9096C16.7974 11.8212 16.4263 11.7088 16.1295 11.524C15.778 11.3071 15.4382 10.9335 15.4382 10.343C15.4343 9.73243 15.7741 9.31064 16.1607 9.07364C16.5279 8.85271 16.9614 8.77237 17.3208 8.77639C17.7114 8.78442 18.0902 8.86878 18.4105 8.95314C18.7425 9.04553 18.9417 9.395 18.8519 9.74046C18.762 10.0859 18.4222 10.2868 18.0863 10.1944C17.8012 10.1181 17.5356 10.0618 17.3013 10.0578C17.1099 10.0538 16.9185 10.102 16.7974 10.1743C16.7427 10.2064 16.7154 10.2386 16.7037 10.2546C16.6958 10.2667 16.688 10.2868 16.688 10.331V10.343ZM6.06412 10.343V10.3591C6.06802 10.3631 6.08755 10.3912 6.15005 10.4274C6.30237 10.5197 6.52501 10.5921 6.86482 10.7005L6.88825 10.7085C7.17729 10.7969 7.56396 10.9174 7.87253 11.1183C8.22796 11.3472 8.55215 11.7289 8.55996 12.3193C8.56777 12.9219 8.26311 13.3638 7.86472 13.6168C7.49366 13.8538 7.04839 13.9342 6.66562 13.9221C6.1852 13.906 5.7204 13.7414 5.36888 13.6168C5.3181 13.6008 5.27123 13.5847 5.22826 13.5686C4.90017 13.4561 4.72441 13.0906 4.83377 12.7572C4.94314 12.4238 5.29857 12.239 5.62276 12.3515C5.67744 12.3716 5.73212 12.3876 5.7829 12.4077C6.15395 12.5363 6.42736 12.6327 6.70858 12.6407C6.91559 12.6487 7.09917 12.6005 7.20853 12.5282C7.2554 12.4961 7.27884 12.468 7.29056 12.4479C7.29837 12.4318 7.31399 12.3997 7.31399 12.3394V12.3314C7.31399 12.3033 7.31399 12.2752 7.20853 12.2069C7.06011 12.1105 6.83357 12.0341 6.50548 11.9297L6.45861 11.9136C6.17739 11.8253 5.80633 11.7128 5.50949 11.528C5.15796 11.3151 4.81815 10.9415 4.81424 10.351C4.81034 9.74046 5.15015 9.31868 5.53683 9.08168C5.90398 8.86074 6.33753 8.78041 6.69687 8.78442C7.06792 8.78844 7.56396 8.86878 7.91159 8.96117C8.24358 9.05356 8.44278 9.40303 8.35295 9.74849C8.26311 10.094 7.9233 10.2948 7.5874 10.2024C7.32961 10.1301 6.93122 10.0698 6.67734 10.0658C6.48595 10.0618 6.29456 10.11 6.17348 10.1823C6.1188 10.2145 6.09146 10.2466 6.07974 10.2627C6.07193 10.2747 6.06412 10.2948 6.06412 10.339V10.343Z" fill="white" fill-opacity="0.9"/>
</svg>
