<svg width="24" height="24" viewBox="0 0 24 24" fill="none" xmlns="http://www.w3.org/2000/svg">
<path d="M19 4C20.6569 4 22 5.34315 22 7V17C22 18.6569 20.6569 20 19 20H5C3.34315 20 2 18.6569 2 17V7C2 5.34315 3.34315 4 5 4H19ZM13.7305 11.5029C12.6933 12.2351 11.3067 12.2351 10.2695 11.5029L4 7.07715V17C4 17.5523 4.44772 18 5 18H19C19.5523 18 20 17.5523 20 17V7.07715L13.7305 11.5029ZM11.4229 9.86914C11.7686 10.1132 12.2314 10.1132 12.5771 9.86914L18.0566 6H5.94336L11.4229 9.86914Z" fill="white" fill-opacity="0.9"/>
</svg>
