<svg width="24" height="24" viewBox="0 0 24 24" fill="none" xmlns="http://www.w3.org/2000/svg">
<path d="M20 4C21.1046 4 22 4.89543 22 6V18C22 19.1046 21.1046 20 20 20H4C2.89543 20 2 19.1046 2 18V6C2 4.89543 2.89543 4 4 4H20ZM19.8135 5.99609C19.4925 5.54683 18.8683 5.4428 18.4189 5.76367L12.5811 9.93262C12.2334 10.181 11.7666 10.181 11.4189 9.93262L5.58105 5.76367C5.1317 5.44277 4.50755 5.54684 4.18652 5.99609C3.86553 6.44548 3.9696 7.0696 4.41895 7.39062L10.2559 11.5605C11.299 12.3056 12.701 12.3056 13.7441 11.5605L19.5811 7.39062C20.0304 7.06959 20.1344 6.44546 19.8135 5.99609Z" fill="white" fill-opacity="0.9"/>
</svg>
