<svg width="24" height="24" viewBox="0 0 24 24" fill="none" xmlns="http://www.w3.org/2000/svg">
<path d="M9.71875 3.44043C11.5263 2.8531 13.4737 2.85315 15.2812 3.44043C15.8063 3.61121 16.0935 4.17505 15.9229 4.7002C15.7522 5.2254 15.1883 5.51244 14.6631 5.3418C13.2572 4.88504 11.7428 4.88597 10.3369 5.34277C8.93117 5.79956 7.70577 6.68901 6.83691 7.88477C5.96803 9.08068 5.50001 10.5218 5.5 12C5.50007 13.4781 5.96813 14.9184 6.83691 16.1143C7.70577 17.3101 8.93111 18.2004 10.3369 18.6572C11.7427 19.114 13.2573 19.114 14.6631 18.6572C16.0689 18.2005 17.2942 17.3101 18.1631 16.1143C19.0319 14.9184 19.4999 13.4782 19.5 12C19.5 11.4477 19.9477 11 20.5 11C21.0523 11 21.5 11.4478 21.5 12C21.4999 13.9005 20.8984 15.7525 19.7812 17.29C18.6641 18.8275 17.0887 19.9723 15.2812 20.5596C13.4737 21.1468 11.5263 21.1459 9.71875 20.5586C7.91133 19.9713 6.33584 18.8275 5.21875 17.29C4.10172 15.7525 3.50007 13.9004 3.5 12C3.50001 10.0995 4.10175 8.24751 5.21875 6.70996C6.33586 5.17238 7.91123 4.02777 9.71875 3.44043Z" fill="white" fill-opacity="0.9"/>
</svg>
