<svg width="24" height="24" viewBox="0 0 24 24" fill="none" xmlns="http://www.w3.org/2000/svg">
<path d="M14.1094 19.9482C14.1094 21.0764 13.16 22 12 22C10.8296 21.9999 9.8916 21.0764 9.8916 19.9482H14.1094ZM12 2C12.8751 2 13.5818 2.68698 13.582 3.53809V4.23633C16.5978 4.9338 18.3271 7.56918 18.3271 10.7178V15.8457L19.6875 17.1689C20.3517 17.815 19.8882 18.9225 18.9395 18.9229H5.05078C4.11227 18.9228 3.64815 17.8151 4.3125 17.1689L5.67285 15.8457V10.7178C5.67291 7.55905 7.39182 4.93392 10.418 4.23633V3.53809C10.4182 2.68704 11.125 2.00009 12 2Z" fill="white" fill-opacity="0.9"/>
</svg>
