<svg width="24" height="24" viewBox="0 0 24 24" fill="none" xmlns="http://www.w3.org/2000/svg">
<path d="M2.59668 11.5453C2.99193 11.15 3.58517 11.1501 3.98047 11.5453L8.13086 15.6957C8.52615 16.091 8.52615 16.6842 8.13086 17.0795C8.03205 17.2771 7.73589 17.3763 7.43945 17.3763C7.14306 17.3763 6.94564 17.277 6.74805 17.0795L2.59668 12.9291C2.20153 12.5338 2.20148 11.9405 2.59668 11.5453ZM20.0898 7.29626C20.4851 6.90097 21.0783 6.90097 21.4736 7.29626C21.8687 7.69156 21.8688 8.28485 21.4736 8.68005L13.0732 17.0795C12.9745 17.277 12.6782 17.3763 12.3818 17.3763C12.0854 17.3763 11.8871 17.2771 11.6895 17.0795L7.53906 12.9291C7.14377 12.5338 7.14377 11.9406 7.53906 11.5453C7.93436 11.1501 8.52758 11.15 8.92285 11.5453L12.3818 15.0043L20.0898 7.29626ZM15.1475 7.29626C15.5428 6.90097 16.136 6.90097 16.5312 7.29626C16.9264 7.69156 16.9265 8.28481 16.5312 8.68005L13.3691 11.9408C13.1715 12.1384 12.9732 12.2377 12.6768 12.2377C12.3805 12.2376 12.1829 12.1383 11.9854 11.9408C11.5901 11.5455 11.5901 10.9523 11.9854 10.557L15.1475 7.29626Z" fill="white" fill-opacity="0.9"/>
</svg>
