<svg width="24" height="24" viewBox="0 0 24 24" fill="none" xmlns="http://www.w3.org/2000/svg">
<path d="M17 2C17.5523 2 18 2.44772 18 3V7.66699C17.9999 7.9567 17.8741 8.23202 17.6553 8.42188L13.5264 12L17.6553 15.5781C17.8741 15.768 17.9999 16.0433 18 16.333V21C18 21.5523 17.5523 22 17 22H7C6.44772 22 6 21.5523 6 21V16.333C6.00009 16.0433 6.12591 15.768 6.34473 15.5781L10.4727 12L6.34473 8.42188C6.12591 8.23202 6.00009 7.9567 6 7.66699V3C6 2.44772 6.44772 2 7 2H17ZM8 16.79V20H16V16.79L12 13.3232L8 16.79ZM15 19H9V17H15V19ZM8 7.20898L12 10.6758L16 7.20898V4H8V7.20898ZM12 9.5L9 7H15L12 9.5Z" fill="white" fill-opacity="0.9"/>
</svg>
