<svg width="24" height="24" viewBox="0 0 24 24" fill="none" xmlns="http://www.w3.org/2000/svg">
<path d="M12 2C15.3146 2 18 4.68543 18 8C18 9.81923 17.1891 11.4467 15.9111 12.5469C16.5356 12.7098 17.1567 12.9098 17.7451 13.1455C18.7002 13.5281 19.694 14.0565 20.4814 14.7832C21.2825 15.5226 22 16.6004 22 18V19C22 20.6546 20.6546 22 19 22H5C3.34543 22 2 20.6546 2 19V18C2 16.6004 2.71746 15.5226 3.51855 14.7832C4.30603 14.0565 5.29978 13.5281 6.25488 13.1455C6.84299 12.9099 7.46374 12.7098 8.08789 12.5469C6.81026 11.4467 6 9.81896 6 8C6 4.68543 8.68543 2 12 2ZM12 14C9.33 14 4 15.34 4 18V19C4 19.55 4.45 20 5 20H19C19.55 20 20 19.55 20 19V18C20 15.34 14.67 14 12 14ZM12 4C9.79 4 8 5.79 8 8C8 10.21 9.79 12 12 12C14.21 12 16 10.21 16 8C16 5.79 14.21 4 12 4Z" fill="white" fill-opacity="0.9"/>
</svg>
