<svg width="24" height="24" viewBox="0 0 24 24" fill="none" xmlns="http://www.w3.org/2000/svg">
<path d="M6.41992 18.8604C9.35552 17.9375 12.4329 17.7566 15.4238 18.3193C14.6271 19.8579 13.4296 21.2607 12.0283 22.1992C11.074 22.8383 9.90241 23 8.75391 23H2.45215C2.20241 22.9998 2 22.7768 2 22.502C2.0001 21.1686 2.80357 19.9972 3.96875 19.6309L6.41992 18.8604ZM17.5801 18.8604L20.0312 19.6309C21.1964 19.9972 21.9999 21.1686 22 22.502C22 22.7768 21.7976 22.9998 21.5479 23H15.4766C16.1821 21.6794 16.7827 20.24 17.1807 18.7393C17.3141 18.778 17.4472 18.8186 17.5801 18.8604ZM15.0156 1C16.1058 1.00001 17.0913 1.42814 17.7988 2.19629C18.1236 2.55848 18.3796 2.96504 18.542 3.41504C19.3882 3.74434 19.9794 4.44634 20.165 5.33496C20.2926 5.91667 20.2349 6.53181 20.0029 7.10254C20.1769 7.43179 20.2693 7.82734 20.2461 8.2334C20.2112 8.92466 19.8749 9.59359 19.3184 10.0654L18.9707 10.3623L18.9473 10.3838C18.8313 13.9179 15.7579 16.75 12 16.75C8.24211 16.75 5.16872 13.9179 5.05273 10.3838L5.0293 10.3623L4.68164 10.0654C4.12509 9.59359 3.78883 8.92466 3.75391 8.2334C3.73071 7.82734 3.82312 7.43179 3.99707 7.10254C3.7651 6.53181 3.70738 5.91667 3.83496 5.33496C4.0206 4.44634 4.61176 3.74434 5.45801 3.41504C5.62039 2.96504 5.87642 2.55848 6.20117 2.19629C6.90865 1.42814 7.89424 1.00001 8.98438 1C9.19303 1 9.4017 1.01106 9.61035 1.04395L10.4111 1.16504L10.5615 1.93262C10.6311 2.33871 10.6666 2.7455 10.6318 3.14062C10.6087 3.33796 10.5737 3.5353 10.5273 3.72168C11.0028 3.63392 11.4898 3.5791 12 3.5791C12.5102 3.5791 12.9972 3.63392 13.4727 3.72168C13.4263 3.5353 13.3913 3.33796 13.3682 3.14062C13.3334 2.7455 13.3573 2.33871 13.4385 1.93262L13.5889 1.16504L14.3896 1.04395C14.5983 1.00012 14.807 1 15.0156 1ZM4.86719 6.92676C4.7976 6.97066 4.75062 7.01446 4.71582 7.06934C4.65786 7.13516 4.6118 7.20152 4.56543 7.27832C4.4727 7.43193 4.40307 7.60744 4.37988 7.79395C4.3335 7.92563 4.33301 8.06827 4.33301 8.21094C4.33301 8.28777 4.34497 8.35407 4.36816 8.41992C4.42624 8.86976 4.65874 9.27601 4.9834 9.57227C5.01815 9.60523 5.06445 9.66016 5.06445 9.66016H5.07617C5.36609 9.44064 5.56323 9.1109 5.63281 8.71582C5.656 8.58415 5.66687 8.45244 5.65527 8.29883C5.65527 8.21102 5.64429 8.12273 5.62109 8.0459C5.62103 7.99117 5.60907 7.93636 5.58594 7.89258C5.57436 7.83786 5.55145 7.78308 5.52832 7.73926C5.52832 7.70638 5.51647 7.68422 5.50488 7.65137C5.47012 7.56364 5.43501 7.48692 5.38867 7.41016C5.36547 7.36625 5.33081 7.32199 5.30762 7.28906C5.2613 7.22332 5.21526 7.15736 5.16895 7.10254C5.08779 7.01477 5.00596 6.93813 4.9248 6.86133C4.90175 6.88315 4.87877 6.90494 4.86719 6.92676ZM18.8311 7.10254C18.7847 7.15736 18.7387 7.22332 18.6924 7.28906C18.6692 7.32199 18.6345 7.36625 18.6113 7.41016C18.565 7.48692 18.5299 7.56364 18.4951 7.65137C18.4835 7.68422 18.4717 7.70638 18.4717 7.73926C18.4486 7.78308 18.4256 7.83786 18.4141 7.89258C18.3794 7.93636 18.3789 7.99117 18.3789 8.0459C18.3557 8.12268 18.3447 8.21087 18.3447 8.30957C18.3331 8.45222 18.344 8.58414 18.3672 8.71582C18.4367 9.11074 18.6341 9.43988 18.9238 9.64844H18.9355C18.9702 9.62657 18.9821 9.60499 19.0166 9.57227C19.3413 9.27601 19.5738 8.86976 19.6318 8.41992C19.655 8.35407 19.667 8.28777 19.667 8.21094C19.6786 8.06829 19.6665 7.92562 19.6201 7.79395C19.5969 7.60744 19.5273 7.43193 19.4346 7.27832C19.3882 7.20152 19.3421 7.13516 19.2842 7.06934C19.2494 7.01446 19.2024 6.97066 19.1328 6.92676C19.1212 6.90494 19.0983 6.88315 19.0752 6.86133C18.994 6.93813 18.9122 7.01477 18.8311 7.10254ZM7.12891 5.81836C7.00137 5.81836 6.87363 5.82941 6.74609 5.8623L6.71094 5.87305V5.88379L6.47949 5.9502C6.3983 5.97215 6.31654 6.00493 6.23535 6.04883C6.16585 6.08172 6.10761 6.11434 6.03809 6.1582H6.01562C5.91139 6.22396 5.80672 6.31192 5.72559 6.38867C5.64445 6.45448 5.56273 6.54235 5.49316 6.61914C5.55105 6.67392 5.60892 6.74011 5.65527 6.79492C5.68998 6.83872 5.72506 6.89365 5.75977 6.9375C5.79447 6.98129 5.81789 7.0254 5.85254 7.08008C5.89893 7.15691 5.94567 7.23446 5.98047 7.32227C6.05 7.46484 6.10781 7.59667 6.14258 7.73926C6.15408 7.7611 6.15456 7.78275 6.16602 7.81543C6.36314 7.76055 6.54884 7.67321 6.73438 7.56348C7.16351 7.28909 7.48838 6.89359 7.68555 6.43262C7.74345 6.27913 7.78945 6.11463 7.82422 5.9502C7.75475 5.91736 7.67396 5.89477 7.60449 5.88379C7.45383 5.83992 7.30286 5.81839 7.14062 5.81836H7.12891ZM16.8594 5.80762C16.6971 5.80765 16.5462 5.82918 16.3955 5.87305C16.326 5.88403 16.2453 5.9066 16.1758 5.93945C16.2106 6.10388 16.2565 6.2684 16.3145 6.42188C16.5116 6.88285 16.8365 7.27834 17.2656 7.55273C17.4511 7.66245 17.6369 7.74982 17.834 7.80469C17.8455 7.77199 17.846 7.75034 17.8574 7.72852C17.8922 7.58583 17.9499 7.45346 18.0195 7.2998C18.0543 7.22302 18.1011 7.14612 18.1475 7.06934C18.1822 7.01458 18.2055 6.97059 18.2402 6.92676C18.275 6.88289 18.31 6.82802 18.3447 6.78418C18.3911 6.72934 18.4489 6.66322 18.5068 6.6084C18.4372 6.53157 18.3556 6.44378 18.2744 6.37793C18.1933 6.30115 18.0887 6.21325 17.9844 6.14746H17.9619C17.8924 6.10362 17.8341 6.07097 17.7646 6.03809L17.7529 6.02637C17.6718 5.98249 17.5899 5.94968 17.5088 5.92773L17.2773 5.85156H17.2422C17.1147 5.81868 16.9869 5.80762 16.8594 5.80762ZM5.80664 4.17188C5.598 4.24866 5.41216 4.36915 5.23828 4.51172C4.97153 4.75317 4.76284 5.09392 4.68164 5.5C4.62366 5.76336 4.62356 6.02668 4.66992 6.29004C4.85546 6.03769 5.07585 5.8074 5.31934 5.63184C5.38893 5.56598 5.47057 5.51093 5.55176 5.45605C5.65597 5.40125 5.7483 5.34582 5.85254 5.29102C5.98008 5.23616 6.10781 5.18137 6.23535 5.14844C6.17732 4.83029 6.03803 4.5233 5.85254 4.24902C5.84095 4.21613 5.82979 4.1938 5.80664 4.17188ZM18.1475 4.24902C17.962 4.5233 17.8227 4.83029 17.7646 5.14844C17.8922 5.18137 18.0199 5.23616 18.1475 5.29102C18.2517 5.34582 18.344 5.40125 18.4482 5.45605C18.5294 5.51093 18.6111 5.56598 18.6807 5.63184C18.9242 5.8074 19.1445 6.03769 19.3301 6.29004C19.3764 6.02668 19.3763 5.76336 19.3184 5.5C19.2372 5.09392 19.0285 4.75317 18.7617 4.51172C18.5878 4.36915 18.402 4.24866 18.1934 4.17188C18.1702 4.19387 18.1475 4.24902 18.1475 4.24902ZM8.98438 2.09766C8.26528 2.09766 7.56904 2.37213 7.07031 2.9209C6.83853 3.17321 6.67635 3.4585 6.54883 3.76562C6.8155 4.11673 6.97738 4.51201 7.05859 4.91797C7.08167 4.9398 7.08203 4.99453 7.08203 4.99512H7.12891C7.30263 4.99513 7.4648 5.00603 7.62695 5.0498C7.7661 5.07175 7.90578 5.10455 8.04492 5.14844C8.32324 5.0277 8.57849 4.84104 8.79883 4.59961C8.91474 4.46797 9.01931 4.33619 9.08887 4.18262C9.22796 3.96318 9.32094 3.73281 9.37891 3.48047C9.50644 3.05253 9.51752 2.58075 9.4248 2.13086C9.27412 2.09799 9.13507 2.09766 8.98438 2.09766ZM15.0156 2.09766C14.8649 2.09766 14.7259 2.10894 14.5752 2.13086C14.4825 2.58075 14.4936 3.05253 14.6211 3.48047C14.6791 3.73281 14.772 3.96318 14.9111 4.18262C14.9807 4.33619 15.0853 4.46797 15.2012 4.59961C15.4215 4.84104 15.6768 5.0277 15.9551 5.14844C16.0942 5.10455 16.2339 5.07175 16.373 5.0498C16.5352 5.00603 16.6974 4.99513 16.8711 4.99512H16.918C16.918 4.97317 16.9414 4.93992 16.9414 4.91797C17.0226 4.51201 17.1845 4.11673 17.4512 3.76562C17.3236 3.4585 17.1615 3.17321 16.9297 2.9209C16.431 2.37213 15.7347 2.09766 15.0156 2.09766Z" fill="white" fill-opacity="0.9"/>
</svg>
