<svg width="24" height="24" viewBox="0 0 24 24" fill="none" xmlns="http://www.w3.org/2000/svg">
<path d="M21.2764 1.98633C21.749 1.94497 22.1664 2.29402 22.208 2.7666C22.2494 3.23936 21.8995 3.65679 21.4268 3.69824L19.4141 3.87402C21.6166 5.88489 23 8.78067 23 12C23 18.0751 18.0751 23 12 23C11.5254 23 11.1406 22.6152 11.1406 22.1406C11.1406 21.666 11.5254 21.2812 12 21.2812C17.1259 21.2812 21.2812 17.1259 21.2812 12C21.2812 9.20499 20.0463 6.69745 18.0898 4.99512L18.3018 7.42188C18.3431 7.89469 17.9933 8.31215 17.5205 8.35352C17.0479 8.3948 16.6314 8.04485 16.5898 7.57227L16.2148 3.29102C16.1737 2.81843 16.5235 2.40179 16.9961 2.36035L21.2764 1.98633ZM12 1C12.4746 1 12.8594 1.38476 12.8594 1.85938C12.8594 2.33399 12.4746 2.71875 12 2.71875C6.87412 2.71875 2.71875 6.87412 2.71875 12C2.71875 14.795 3.95365 17.3026 5.91016 19.0049L5.69824 16.5781C5.65687 16.1053 6.00668 15.6879 6.47949 15.6465C6.95213 15.6052 7.3686 15.9552 7.41016 16.4277L7.78516 20.709C7.82628 21.1816 7.4765 21.5982 7.00391 21.6396L2.72363 22.0137C2.25097 22.055 1.83359 21.706 1.79199 21.2334C1.75063 20.7606 2.10051 20.3432 2.57324 20.3018L4.58594 20.126C2.38339 18.1151 1 15.2193 1 12C1 5.92488 5.92488 1 12 1ZM12.6826 7.39746C13.4653 7.50072 14.1107 7.77638 14.6182 8.22363C15.1255 8.66229 15.4269 9.21279 15.5215 9.875L13.6758 10.249C13.5553 9.6384 13.2244 9.23809 12.6826 9.04883V11.165C13.018 11.251 13.2979 11.3328 13.5215 11.4102C13.7536 11.4876 14.0113 11.6041 14.2949 11.7588C14.5788 11.905 14.8074 12.0684 14.9795 12.249C15.1515 12.4297 15.2976 12.6666 15.418 12.959C15.5383 13.2514 15.5986 13.5824 15.5986 13.9521C15.5986 14.6317 15.3229 15.2208 14.7725 15.7197C14.2306 16.21 13.5341 16.5071 12.6826 16.6104V18.0684H11.3535V16.6104C10.5365 16.5072 9.86549 16.2364 9.34082 15.7979C8.81609 15.3591 8.50166 14.8038 8.39844 14.1328L10.2695 13.7588C10.39 14.4039 10.7514 14.8082 11.3535 14.9717V12.6748C10.9493 12.563 10.6092 12.4558 10.334 12.3525C10.0673 12.2407 9.78759 12.0855 9.49512 11.8877C9.20281 11.6899 8.97903 11.4364 8.82422 11.127C8.67798 10.8173 8.60449 10.4508 8.60449 10.0293C8.60462 9.36714 8.86291 8.79508 9.37891 8.31348C9.89503 7.83176 10.5535 7.53059 11.3535 7.41016V5.93945H12.6826V7.39746ZM12.6826 15.0107C13.018 14.9419 13.2714 14.8163 13.4434 14.6357C13.6153 14.4551 13.7021 14.2447 13.7021 14.0039C13.7021 13.5911 13.362 13.2684 12.6826 13.0361V15.0107ZM11.3535 9.01074C10.7944 9.15698 10.5146 9.46224 10.5146 9.92676C10.5148 10.288 10.7945 10.576 11.3535 10.791V9.01074Z" fill="white" fill-opacity="0.9"/>
</svg>
