<svg width="24" height="24" viewBox="0 0 24 24" fill="none" xmlns="http://www.w3.org/2000/svg">
<path d="M3.55469 4.09875C3.90924 3.74433 4.4912 3.74425 4.8457 4.09875L19.6729 18.9445C20.0272 19.2989 20.0271 19.8712 19.6729 20.2257C19.3183 20.5803 18.7452 20.5803 18.3906 20.2257L15.918 17.7531C14.6998 18.2258 13.3818 18.4991 12 18.4991C7.45458 18.4991 3.57275 15.6716 2 11.6808C2.69999 9.8899 3.873 8.34472 5.3457 7.172L3.55469 5.38098C3.20014 5.02644 3.20014 4.4533 3.55469 4.09875ZM7.90039 9.73547C7.61859 10.3173 7.4541 10.9808 7.4541 11.6808C7.45417 14.1898 9.49095 16.2257 12 16.2257C12.7 16.2257 13.3544 16.0625 13.9453 15.7716L12.5186 14.3439C12.3458 14.3802 12.1818 14.4083 12 14.4083C10.4909 14.4083 9.27253 13.1898 9.27246 11.6808C9.27246 11.499 9.29988 11.3259 9.32715 11.1622L7.90039 9.73547ZM12 4.86243C16.5454 4.86243 20.4273 7.69018 22 11.672C21.3727 13.2719 20.3729 14.6721 19.1094 15.7902L16.3271 13.0079C16.4544 12.5898 16.5459 12.1444 16.5459 11.6808C16.5459 9.1717 14.5091 7.13489 12 7.13489C11.5365 7.13489 11.0912 7.22642 10.6641 7.35364L8.69043 5.38098C9.73588 5.04462 10.8455 4.86243 12 4.86243Z" fill="white" fill-opacity="0.9"/>
</svg>
