<svg width="24" height="24" viewBox="0 0 24 24" fill="none" xmlns="http://www.w3.org/2000/svg">
<path d="M12 2C14.6285 2.00007 16.7616 4.13327 16.7617 6.76172V8.66699H17.7139C18.7614 8.66701 19.6191 9.52374 19.6191 10.5713V20.0957C19.6189 21.1431 18.7613 22 17.7139 22H6.28516C5.2379 21.9997 4.38111 21.143 4.38086 20.0957V10.5713C4.38094 9.52389 5.2378 8.66725 6.28516 8.66699H7.23828V6.76172C7.23838 4.13323 9.37149 2 12 2ZM7.23828 10.5713C6.71459 10.5713 6.28633 10.9998 6.28613 11.5234V19.1426C6.28613 19.6664 6.71447 20.0957 7.23828 20.0957H16.7617C17.2855 20.0957 17.7139 19.6664 17.7139 19.1426V11.5234C17.7137 10.9998 17.2854 10.5713 16.7617 10.5713H7.23828ZM12.4766 13.9043C13.0024 13.9045 13.4287 14.3316 13.4287 14.8574V17.2383C13.4286 17.764 13.0023 18.1902 12.4766 18.1904H11.5234C10.9977 18.1902 10.5714 17.7641 10.5713 17.2383V14.8574C10.5713 14.3316 10.9976 13.9045 11.5234 13.9043H12.4766ZM12 3.90527C10.4191 3.90527 9.14269 5.18086 9.14258 6.76172V8.66699H14.8574V6.76172C14.8573 5.18093 13.5808 3.90537 12 3.90527Z" fill="white" fill-opacity="0.9"/>
</svg>
