<svg width="24" height="24" viewBox="0 0 24 24" fill="none" xmlns="http://www.w3.org/2000/svg">
<path d="M12 2C14.6285 2.00005 16.7616 4.13326 16.7617 6.76172V8.66699H17.7139C18.7614 8.66699 19.6191 9.52373 19.6191 10.5713V20.0957C19.6189 21.1431 18.7613 22 17.7139 22H6.28516C5.2379 21.9997 4.38111 21.143 4.38086 20.0957V10.5713C4.38094 9.52389 5.2378 8.66725 6.28516 8.66699H7.23828V6.76172C7.23838 4.13323 9.37149 2 12 2ZM11.5234 13.9043C10.9976 13.9045 10.5713 14.3316 10.5713 14.8574V18.667C10.5715 19.1927 10.9977 19.619 11.5234 19.6191H12.4766C13.0023 19.6189 13.4285 19.1927 13.4287 18.667V14.8574C13.4287 14.3316 13.0024 13.9045 12.4766 13.9043H11.5234ZM12 3.9043C10.4191 3.9043 9.14268 5.18085 9.14258 6.76172V8.66699H14.8574V6.76172C14.8573 5.18089 13.5808 3.90436 12 3.9043Z" fill="white" fill-opacity="0.9"/>
</svg>
