<svg width="24" height="24" viewBox="0 0 24 24" fill="none" xmlns="http://www.w3.org/2000/svg">
<path d="M15.2178 2.5C18.4109 2.5 21 5.14802 21 8.41406C20.9998 11.6799 18.4108 14.3271 15.2178 14.3271C14.279 14.3271 13.3932 14.0966 12.6094 13.6904L8.61914 17.7705L9.73633 18.9131C10.1224 19.308 10.1223 19.9488 9.73633 20.3438L8.89453 21.2041C8.50851 21.5988 7.88313 21.5987 7.49707 21.2041L6.37988 20.0615L5.52832 20.9336C5.14222 21.3284 4.51595 21.3285 4.12988 20.9336L3.28906 20.0732C2.90335 19.6784 2.90332 19.0384 3.28906 18.6436L10.2803 11.4922C9.74482 10.5956 9.43659 9.5416 9.43652 8.41406C9.43652 5.14817 12.0248 2.50025 15.2178 2.5ZM15.2188 5.12793C13.4448 5.12794 12.0068 6.5996 12.0068 8.41406C12.007 10.2284 13.4449 11.6992 15.2188 11.6992C16.9924 11.699 18.4305 10.2283 18.4307 8.41406C18.4307 6.59972 16.9925 5.12813 15.2188 5.12793Z" fill="white" fill-opacity="0.9"/>
</svg>
