<svg width="24" height="24" viewBox="0 0 24 24" fill="none" xmlns="http://www.w3.org/2000/svg">
<path d="M12 4.68182C16.5455 4.68182 20.4273 7.50927 22 11.5002C20.4272 15.491 16.5454 18.3185 12 18.3185C7.4546 18.3185 3.57277 15.491 2 11.5002C3.57273 7.50927 7.45455 4.68182 12 4.68182ZM12 6.95428C9.49091 6.95428 7.4541 8.99109 7.4541 11.5002C7.4542 14.0092 9.49097 16.0451 12 16.0451C14.509 16.0451 16.5458 14.0092 16.5459 11.5002C16.5459 8.99109 14.5091 6.95428 12 6.95428ZM12 8.77264C13.5091 8.77264 14.7275 9.99109 14.7275 11.5002C14.7274 13.0092 13.509 14.2277 12 14.2277C10.491 14.2277 9.27256 13.0092 9.27246 11.5002C9.27246 9.99109 10.4909 8.77264 12 8.77264Z" fill="white" fill-opacity="0.9"/>
</svg>
