<svg width="24" height="24" viewBox="0 0 24 24" fill="none" xmlns="http://www.w3.org/2000/svg">
<path d="M11.9995 2C14.3995 2 16.3481 3.94773 16.3481 6.34766V7.21777H14.6089V6.34766C14.6088 4.90442 13.4437 3.73952 12.0005 3.73926C10.5571 3.73926 9.3912 4.90426 9.39111 6.34766V9.82617H17.2173C18.1738 9.82617 18.9565 10.6089 18.9565 11.5654V20.2607C18.9565 21.2173 18.1738 22 17.2173 22H6.78271C5.82619 22 5.04346 21.2173 5.04346 20.2607V11.5654C5.04346 10.6089 5.82619 9.82617 6.78271 9.82617H7.65186V6.34766C7.65195 3.94789 9.59978 2.00025 11.9995 2ZM11.5649 13.7393C11.0849 13.7394 10.696 14.1284 10.6958 14.6084V18.0869C10.6958 18.5671 11.0848 18.9559 11.5649 18.9561H12.4351C12.9152 18.9559 13.3042 18.5671 13.3042 18.0869V14.6084C13.304 14.1284 12.9151 13.7394 12.4351 13.7393H11.5649Z" fill="white" fill-opacity="0.9"/>
</svg>
