<svg width="24" height="24" viewBox="0 0 24 24" fill="none" xmlns="http://www.w3.org/2000/svg">
<path d="M19.8005 19.8184C19.8001 20.4711 19.2285 21 18.5232 21H5.47534C4.77013 20.9999 4.19846 20.471 4.198 19.8184V11.1465H19.8005V19.8184ZM11.2996 12.4023C10.6329 12.0174 9.79956 12.4988 9.79956 13.2686V16.7324C9.79987 17.5019 10.6331 17.9832 11.2996 17.5986L14.2996 15.8662C14.966 15.4813 14.9659 14.5198 14.2996 14.1348L11.2996 12.4023ZM14.9695 3.6123C15.6653 2.98014 16.6321 2.82422 17.4919 3.20605C18.4273 3.62148 18.9761 4.55843 18.8718 5.60352C18.8391 5.93049 18.7252 6.24018 18.5515 6.51562H19.8689C20.5206 6.51582 21.0485 7.04531 21.0486 7.69824V9.47168C21.0486 9.79822 20.7847 10.0635 20.4587 10.0635H3.53979C3.214 10.0633 2.94995 9.79807 2.94995 9.47168V7.69824C2.94995 7.0452 3.4787 6.51562 4.13062 6.51562H5.44409C5.27037 6.24028 5.15558 5.93128 5.1228 5.60449C5.01803 4.5593 5.56748 3.62154 6.50269 3.20605C7.36211 2.82446 8.32818 2.98023 9.02515 3.6123L10.6912 5.125C11.0152 4.76893 11.482 4.54492 11.9998 4.54492C12.5165 4.54502 12.9825 4.76815 13.3064 5.12305L14.9695 3.6123ZM8.23315 4.48828C7.87113 4.16018 7.39365 4.09648 6.96265 4.2959C6.64867 4.44129 6.40568 4.72852 6.32495 5.06543C6.14173 5.83056 6.71931 6.51562 7.45288 6.51562H10.2292V6.30078L8.23315 4.48828ZM16.8513 4.22754C16.4602 4.11069 16.0375 4.23916 15.7351 4.51367C15.2031 4.99681 14.2215 5.88721 13.7693 6.29785C13.7694 6.30471 13.7703 6.3115 13.7703 6.31836V6.51562H16.488C17.1029 6.51562 17.6567 6.06158 17.7009 5.44727C17.742 4.87377 17.4125 4.39526 16.8513 4.22754Z" fill="white" fill-opacity="0.9"/>
</svg>
