<svg width="24" height="24" viewBox="0 0 24 24" fill="none" xmlns="http://www.w3.org/2000/svg">
<path d="M20.5498 18.5731C21.0744 18.5732 21.5 18.9987 21.5 19.5233V20.4735C21.4997 20.9978 21.0742 21.4226 20.5498 21.4227H3.4502C2.92569 21.4227 2.50025 20.9979 2.5 20.4735V19.5233C2.5 18.9986 2.92554 18.5731 3.4502 18.5731H20.5498ZM7 17.4998H4.5V10.4998H7V17.4998ZM13.25 17.4998H10.75V10.4998H13.25V17.4998ZM19.5 17.4998H17V10.4998H19.5V17.4998ZM11.2939 2.7059C11.7469 2.52474 12.2531 2.52472 12.7061 2.7059L20.3057 5.74594C21.0266 6.03457 21.4999 6.73298 21.5 7.50961V8.12387C21.4997 8.64817 21.0742 9.07297 20.5498 9.07309H3.4502C2.92574 9.07309 2.50034 8.64824 2.5 8.12387V7.50961C2.50009 6.73295 2.9733 6.03455 3.69434 5.74594L11.2939 2.7059Z" fill="white" fill-opacity="0.9"/>
</svg>
