<svg width="24" height="24" viewBox="0 0 24 24" fill="none" xmlns="http://www.w3.org/2000/svg">
<path d="M20.3333 7V8.33333H3V7C3 6.64638 3.14048 6.30724 3.39052 6.05719C3.64057 5.80714 3.97971 5.66667 4.33333 5.66667H6.33333V3.66667C6.33333 3.48986 6.40357 3.32029 6.5286 3.19526C6.65362 3.07024 6.82319 3 7 3C7.17681 3 7.34638 3.07024 7.4714 3.19526C7.59643 3.32029 7.66667 3.48986 7.66667 3.66667V5.66667H15.6667V3.66667C15.6667 3.48986 15.7369 3.32029 15.8619 3.19526C15.987 3.07024 16.1565 3 16.3333 3C16.5101 3 16.6797 3.07024 16.8047 3.19526C16.9298 3.32029 17 3.48986 17 3.66667V5.66667H19C19.3536 5.66667 19.6928 5.80714 19.9428 6.05719C20.1929 6.30724 20.3333 6.64638 20.3333 7ZM3 9.66667H20.3333V19.6667C20.3333 20.0203 20.1929 20.3594 19.9428 20.6095C19.6928 20.8595 19.3536 21 19 21H4.33333C3.97971 21 3.64057 20.8595 3.39052 20.6095C3.14048 20.3594 3 20.0203 3 19.6667V9.66667ZM7.9 14.4333L9.23333 15.7133C9.29637 15.7717 9.34351 15.8452 9.37034 15.9268C9.39716 16.0085 9.40278 16.0956 9.38667 16.18L9.08 17.9933C9.06374 18.0912 9.07509 18.1916 9.11277 18.2834C9.15046 18.3751 9.21298 18.4545 9.29331 18.5127C9.37365 18.5709 9.46862 18.6055 9.56755 18.6127C9.66648 18.6199 9.76544 18.5993 9.85333 18.5533L11.4733 17.7C11.5508 17.6608 11.6365 17.6403 11.7233 17.6403C11.8102 17.6403 11.8958 17.6608 11.9733 17.7L13.5933 18.5533C13.68 18.5907 13.7749 18.6045 13.8686 18.5931C13.9623 18.5818 14.0513 18.5459 14.1265 18.4889C14.2017 18.432 14.2605 18.3561 14.2968 18.2691C14.3332 18.182 14.3458 18.0869 14.3333 17.9933L14.0267 16.18C14.0106 16.0956 14.0162 16.0085 14.043 15.9268C14.0698 15.8452 14.117 15.7717 14.18 15.7133L15.5133 14.4333C15.5832 14.3631 15.6324 14.2751 15.6555 14.1788C15.6787 14.0825 15.6749 13.9817 15.6446 13.8874C15.6143 13.7931 15.5587 13.709 15.4838 13.6442C15.4089 13.5794 15.3177 13.5364 15.22 13.52L13.4 13.26C13.3177 13.2507 13.2387 13.2223 13.1693 13.1772C13.0999 13.1321 13.0419 13.0714 13 13L12.1867 11.3533C12.1423 11.2649 12.0742 11.1906 11.99 11.1387C11.9059 11.0867 11.8089 11.0592 11.71 11.0592C11.6111 11.0592 11.5141 11.0867 11.43 11.1387C11.3458 11.1906 11.2777 11.2649 11.2333 11.3533L10.4133 13C10.3754 13.0776 10.3192 13.1449 10.2495 13.196C10.1798 13.2471 10.0988 13.2805 10.0133 13.2933L8.2 13.5533C8.10812 13.5725 8.02281 13.6152 7.95248 13.6774C7.88216 13.7395 7.82924 13.8189 7.79896 13.9078C7.76868 13.9966 7.76207 14.0918 7.77979 14.1839C7.7975 14.2761 7.83894 14.3621 7.9 14.4333Z" fill="white" fill-opacity="0.9"/>
</svg>
