<svg width="24" height="24" viewBox="0 0 24 24" fill="none" xmlns="http://www.w3.org/2000/svg">
<path fill-rule="evenodd" clip-rule="evenodd" d="M4.80227 14.3835C4.33357 14.3835 3.92776 14.058 3.82608 13.6004L2.53998 7.813C2.34449 6.93326 3.32103 6.26412 4.07087 6.76402L5.92054 7.99713C6.26883 8.22932 6.72488 8.22002 7.06341 7.97381L11.4119 4.81126C11.7626 4.55624 12.2376 4.55624 12.5883 4.81126L16.9368 7.97381C17.2753 8.22002 17.7314 8.22932 18.0797 7.99713L19.9293 6.76401C20.6792 6.26412 21.6557 6.93326 21.4602 7.813L20.1741 13.6004C20.0724 14.058 19.6666 14.3835 19.1979 14.3835H4.80227ZM4.69461 17.5479C4.59302 16.9384 5.06307 16.3835 5.68101 16.3835H7.29344C7.74619 16.3835 8.1804 16.5634 8.50055 16.8835C8.82069 17.2036 9.2549 17.3835 9.70765 17.3835H14.2934C14.7462 17.3835 15.1804 17.2036 15.5005 16.8835C15.8207 16.5634 16.2549 16.3835 16.7077 16.3835H18.3201C18.938 16.3835 19.4081 16.9384 19.3065 17.5479L19.1398 18.5479C19.0595 19.0301 18.6423 19.3835 18.1534 19.3835H5.84767C5.35883 19.3835 4.94164 19.0301 4.86128 18.5479L4.69461 17.5479Z" fill="white" fill-opacity="0.9"/>
</svg>
