<svg width="24" height="24" viewBox="0 0 24 24" fill="none" xmlns="http://www.w3.org/2000/svg">
<path d="M17.3826 3.87517C17.7136 3.80294 18.0563 3.80329 18.3875 3.87517L22.325 4.72478C22.5195 4.76461 22.6971 4.86381 22.8337 5.00798C22.9703 5.15214 23.0593 5.335 23.0886 5.53142C23.1178 5.72766 23.0862 5.92801 22.9978 6.10564C22.9092 6.28343 22.768 6.42964 22.5935 6.52458C20.9123 7.47456 18.5251 8.81875 16.0251 10.2062L14.5437 18.5129C14.5242 18.6226 14.467 18.7225 14.3816 18.7941L12.8191 20.0939C12.7711 20.134 12.7129 20.1605 12.6511 20.1701C12.5893 20.1796 12.5254 20.1714 12.4675 20.1476C12.4097 20.1238 12.3592 20.0846 12.322 20.0343C12.2849 19.9841 12.2625 19.9247 12.2566 19.8625L11.5564 12.6691C8.06266 14.5879 5.106 16.1558 4.31226 16.4621C4.25686 16.4818 4.19738 16.4876 4.1394 16.4777C4.08147 16.4679 4.02695 16.4433 3.9812 16.4064L1.19995 14.2004C1.07283 14.0972 0.981219 13.956 0.938232 13.798C0.895381 13.6402 0.903421 13.4727 0.960693 13.3195C1.01804 13.1663 1.12159 13.0345 1.25757 12.9435C1.39357 12.8526 1.55498 12.8072 1.71851 12.8127L4.57495 12.9377L16.4685 4.29411C16.7396 4.09079 17.0515 3.94742 17.3826 3.87517ZM8.24976 8.97478L4.65601 7.93767C4.59443 7.92176 4.53894 7.88767 4.49683 7.84001C4.45463 7.79218 4.42776 7.73239 4.41968 7.66911C4.41161 7.60586 4.42308 7.54143 4.4519 7.48454C4.48074 7.4278 4.5261 7.38063 4.58179 7.34978L6.37476 6.31853C6.42162 6.28883 6.47561 6.2718 6.53101 6.26872L12.2 6.10661L8.24976 8.97478Z" fill="white" fill-opacity="0.9"/>
</svg>
