<svg width="24" height="24" viewBox="0 0 24 24" fill="none" xmlns="http://www.w3.org/2000/svg">
<path d="M16.4307 4.00098C17.1266 4.00098 17.6362 3.95424 18.0547 4.47559C18.327 4.81507 18.2871 5.18866 18.2871 6.00098V9L20.5781 7.55371C21.1963 7.16357 22 7.61085 22 8.34473V15.6543C22 16.3881 21.1963 16.8354 20.5781 16.4453L18.2871 14.999V17.998C18.2871 18.7229 18.1713 19.2979 17.8232 19.6729C17.4751 20.0478 16.923 19.998 16.4307 19.998H5.85645C5.16029 19.998 4.90333 19.9978 4.46387 19.6729C4.15567 19.4448 4 18.7228 4 17.998V6.00098C4 4.71375 4.23209 4.00099 5.85645 4.00098H16.4307ZM11.4658 9.7002C10.1772 9.7002 9.13192 10.7629 9.13184 12.0742C9.13184 13.3856 10.1772 14.4492 11.4658 14.4492C12.7543 14.449 13.7988 13.3855 13.7988 12.0742C13.7987 10.763 12.7542 9.70042 11.4658 9.7002Z" fill="white" fill-opacity="0.9"/>
</svg>
