<svg width="24" height="24" viewBox="0 0 24 24" fill="none" xmlns="http://www.w3.org/2000/svg">
<path d="M11.0137 4.95605C11.214 4.25127 11.9661 3.84887 12.6904 4.05859L21.1865 6.51953C21.9105 6.72953 22.3375 7.47402 22.1377 8.17871L19.6943 16.7812C19.6899 16.7799 19.6852 16.7777 19.6807 16.7764L18.9414 16.5654C18.6268 16.4759 18.2961 16.6574 18.2021 16.9707C18.1084 17.2842 18.2869 17.6113 18.6016 17.7012L19.3408 17.9121C19.3506 17.9148 19.3613 17.9147 19.3711 17.917L18.4326 21.2207C18.2322 21.9253 17.48 22.3277 16.7559 22.1182L8.25977 19.6562C7.53542 19.4463 7.10932 18.702 7.30957 17.9971L8.25098 14.6826C8.46521 14.6424 8.65121 14.4894 8.71777 14.2676C8.78586 14.0397 8.70936 13.805 8.54199 13.6592L11.0137 4.95605ZM14.7061 1.5C15.4597 1.5 16.0732 2.12103 16.0732 2.88379V3.96777L12.1299 2.86523C11.3405 2.64458 10.5202 3.07209 10.3008 3.81836L6.24121 17.626C6.16685 17.8793 6.17125 18.1371 6.24023 18.376H5.86816C5.11458 18.376 4.50105 17.7559 4.50098 16.9932V2.88379C4.50098 2.12103 5.11454 1.5 5.86816 1.5H14.7061ZM16.1016 15.7559C15.7868 15.6661 15.4552 15.8476 15.3613 16.1611C15.2676 16.4748 15.4469 16.8019 15.7617 16.8916L16.5 17.1016C16.8147 17.1911 17.1464 17.0098 17.2402 16.6963C17.3337 16.3829 17.1543 16.0557 16.8398 15.9658L16.1016 15.7559ZM13.2607 14.9453C12.946 14.8556 12.6144 15.038 12.5205 15.3516C12.4269 15.6651 12.6062 15.9923 12.9209 16.082L13.6592 16.292C13.9739 16.3815 14.3056 16.2002 14.3994 15.8867C14.493 15.5733 14.3135 15.2461 13.999 15.1562L13.2607 14.9453ZM10.4199 14.1357C10.1052 14.046 9.77368 14.2276 9.67969 14.541C9.58587 14.8546 9.7653 15.1817 10.0801 15.2715L10.8193 15.4824C11.1339 15.5716 11.4648 15.3904 11.5586 15.0771C11.6523 14.7637 11.4727 14.4366 11.1582 14.3467L10.4199 14.1357ZM16.3096 8.09668C16.2919 7.62089 15.6758 7.44539 15.3984 7.83691L15.0664 8.30664C14.9422 8.48198 14.7196 8.56047 14.5137 8.50195L13.9854 8.35156C13.5149 8.21772 13.1446 8.76643 13.4502 9.14453L13.7607 9.5293C13.8995 9.70113 13.9071 9.94571 13.7783 10.1279L13.4805 10.5479C13.2012 10.9432 13.5883 11.4584 14.0479 11.3027L14.6152 11.1104C14.8146 11.0429 15.0342 11.105 15.165 11.2666L15.5381 11.7275C15.8398 12.0995 16.4494 11.8687 16.4316 11.3887L16.4131 10.8789C16.4049 10.6575 16.5449 10.4557 16.7568 10.3838L17.2314 10.2227C17.6967 10.0641 17.6867 9.4068 17.2168 9.27246L16.6885 9.12207C16.4826 9.06325 16.3391 8.88013 16.3311 8.66699L16.3096 8.09668Z" fill="white" fill-opacity="0.9"/>
</svg>
