<svg width="24" height="24" viewBox="0 0 24 24" fill="none" xmlns="http://www.w3.org/2000/svg">
<path d="M13.9297 2.69229C14.2893 2.6106 14.6621 2.60345 15.0244 2.67178C15.3656 2.83388 15.6708 3.06363 15.9199 3.34756C16.169 3.63152 16.3574 3.96378 16.4736 4.32315C16.5897 4.62324 16.7569 4.90138 16.9678 5.14444C17.2678 5.27518 17.5884 5.35194 17.915 5.37198C18.2895 5.36894 18.6615 5.44358 19.0059 5.59073C19.3501 5.73787 19.6604 5.95483 19.917 6.22745C20.097 6.5538 20.2069 6.91396 20.2412 7.28506C20.2755 7.65627 20.2334 8.0308 20.1162 8.38467C20.0329 8.70698 20.007 9.04171 20.04 9.37296C20.2038 9.64135 20.4122 9.87986 20.6562 10.078C20.9655 10.3015 21.226 10.586 21.4209 10.914C21.6158 11.242 21.7406 11.6068 21.7891 11.9853C21.7408 12.363 21.6161 12.727 21.4219 13.0546C21.2275 13.3823 20.9677 13.667 20.6592 13.8905C20.4148 14.0891 20.2064 14.3284 20.043 14.5976C20.0096 14.9288 20.0355 15.2636 20.1191 15.5858C20.236 15.9395 20.2783 16.3136 20.2441 16.6845C20.2099 17.0555 20.0996 17.4157 19.9199 17.7421C19.6634 18.0159 19.3526 18.2338 19.0078 18.3817C18.663 18.5297 18.2912 18.6052 17.916 18.6024C17.5896 18.6209 17.2691 18.6968 16.9688 18.8261C16.7564 19.0682 16.5876 19.3453 16.4707 19.6454C16.3571 20.0063 16.1692 20.3403 15.9199 20.6249C15.6707 20.9093 15.365 21.1386 15.0225 21.2987C14.8634 21.3499 14.6973 21.3758 14.5303 21.3749C13.9613 21.3235 13.4129 21.1341 12.9336 20.8232C12.6488 20.6381 12.3323 20.5074 12 20.4374C11.6673 20.5081 11.3502 20.6391 11.0654 20.8251C10.7683 21.0438 10.4291 21.1994 10.0693 21.2812C9.70966 21.3628 9.33695 21.3695 8.97461 21.3007C8.63315 21.1383 8.32823 20.9074 8.0791 20.623C7.8301 20.3386 7.64231 20.0061 7.52637 19.6464C7.41036 19.3465 7.24289 19.069 7.03223 18.8261C6.73205 18.6952 6.41083 18.6176 6.08398 18.5976C5.70959 18.6007 5.33848 18.5268 4.99414 18.3798C4.64976 18.2328 4.33975 18.0156 4.08301 17.7431C3.90301 17.4167 3.79208 17.0566 3.75781 16.6855C3.72357 16.3143 3.76657 15.9397 3.88379 15.5858C3.96704 15.2638 3.99298 14.9295 3.95996 14.5985C3.79646 14.3296 3.58718 14.0908 3.34277 13.8925C3.03353 13.669 2.77401 13.3836 2.5791 13.0556C2.38429 12.7277 2.2584 12.3636 2.20996 11.9853C2.25842 11.6076 2.38375 11.2434 2.57812 10.9159C2.77245 10.5886 3.0316 10.3043 3.33984 10.081C3.58408 9.88246 3.79332 9.6437 3.95703 9.37491C3.99038 9.04365 3.96448 8.70889 3.88086 8.38663C3.76388 8.03274 3.72062 7.65816 3.75488 7.28702C3.78919 6.916 3.90033 6.55578 4.08008 6.2294C4.33676 5.95614 4.64751 5.7392 4.99219 5.59171C5.33685 5.44425 5.70814 5.36896 6.08301 5.37198C6.40986 5.35207 6.7311 5.27537 7.03125 5.14444C7.24413 4.90257 7.41284 4.62515 7.53027 4.3251C7.64345 3.96459 7.83051 3.63116 8.0791 3.34659C8.32766 3.06209 8.63264 2.83234 8.97461 2.67178C9.33698 2.60329 9.7097 2.60965 10.0693 2.69131C10.4289 2.77301 10.7682 2.92811 11.0654 3.14639C11.3504 3.33157 11.6675 3.46308 12 3.53311C12.3324 3.46307 12.6487 3.33153 12.9336 3.14639C13.2308 2.92815 13.5701 2.77403 13.9297 2.69229ZM15.1523 12.1581C14.7358 11.9857 14.2772 11.9412 13.835 12.0292C13.3927 12.1172 12.9868 12.3344 12.668 12.6532C12.3491 12.9721 12.132 13.378 12.0439 13.8202C11.956 14.2624 12.0004 14.721 12.1729 15.1376C12.3454 15.5541 12.6379 15.9105 13.0127 16.161C13.3877 16.4116 13.8293 16.5458 14.2803 16.5458C14.8849 16.5457 15.465 16.3054 15.8926 15.8778C16.3201 15.4503 16.5605 14.8702 16.5605 14.2655C16.5605 13.8145 16.4263 13.3729 16.1758 12.998C15.9252 12.6231 15.5689 12.3306 15.1523 12.1581ZM14.2803 13.5048C14.7001 13.5048 15.041 13.8458 15.041 14.2655C15.0409 14.6852 14.7 15.0253 14.2803 15.0253C13.8607 15.0251 13.5207 14.6851 13.5205 14.2655C13.5205 13.8459 13.8606 13.505 14.2803 13.5048ZM14.2773 8.95401C14.0781 8.95228 13.8855 9.02846 13.7422 9.1669L9.18262 13.7274C9.04416 13.8708 8.96702 14.0633 8.96875 14.2626C8.97051 14.4617 9.05065 14.652 9.19141 14.7929C9.33233 14.9338 9.52337 15.0138 9.72266 15.0155C9.92178 15.0172 10.1136 14.941 10.2568 14.8026L14.8174 10.2421C14.9557 10.0988 15.0319 9.90704 15.0303 9.70792C15.0285 9.50863 14.9485 9.31759 14.8076 9.17667C14.6667 9.03591 14.4765 8.95577 14.2773 8.95401ZM10.1641 7.46866C9.72181 7.38074 9.26326 7.42599 8.84668 7.59854C8.43017 7.77115 8.07373 8.06351 7.82324 8.43839C7.57289 8.81327 7.43945 9.25419 7.43945 9.70499C7.43951 10.3097 7.67985 10.8897 8.10742 11.3173C8.53503 11.7448 9.11508 11.9853 9.71973 11.9853C10.1706 11.9852 10.6114 11.851 10.9863 11.6005C11.3613 11.3499 11.6536 10.9937 11.8262 10.5771C11.9987 10.1605 12.044 9.7019 11.9561 9.25967C11.8681 8.81753 11.6508 8.4115 11.332 8.09268C11.0131 7.77379 10.6064 7.55664 10.1641 7.46866ZM9.71973 8.94424C10.1395 8.94424 10.4805 9.28521 10.4805 9.70499C10.4804 10.1247 10.1394 10.4648 9.71973 10.4648C9.30016 10.4646 8.96007 10.1246 8.95996 9.70499C8.95996 9.28531 9.30009 8.94441 9.71973 8.94424Z" fill="white" fill-opacity="0.9"/>
</svg>
