<svg width="24" height="24" viewBox="0 0 24 24" fill="none" xmlns="http://www.w3.org/2000/svg">
<path d="M3 6.62069L3.30251 5.69178C3.42336 5.32071 3.74024 5.05257 4.11903 5.00087L6.7004 4.64858C7.25071 3.97699 8.07664 3.55 9 3.55H13C13.9234 3.55 14.7493 3.97699 15.2996 4.64858L17.881 5.00087C18.2598 5.05256 18.5766 5.3207 18.6975 5.69178L19 6.62071L3 6.62069Z" fill="white" fill-opacity="0.9"/>
<path d="M8.5 11.9305C8.5 12.2485 8.22863 12.4949 7.94512 12.6389C7.69692 12.7649 7.49547 12.9729 7.37453 13.2283C7.23843 13.5157 6.99222 13.7857 6.67424 13.7857H6.32576C6.00778 13.7857 5.74396 13.5253 5.80683 13.2136C6.02693 12.1224 6.86413 11.262 7.92845 11.0318C8.23924 10.9645 8.5 11.2287 8.5 11.5466V11.9305Z" fill="white" fill-opacity="0.9"/>
<path d="M13.6742 13.7857C13.9922 13.7857 14.2384 13.5157 14.3745 13.2283C14.4955 12.9729 14.6969 12.7649 14.9451 12.6389C15.2286 12.4949 15.5 12.2485 15.5 11.9305V11.5466C15.5 11.2287 15.2392 10.9645 14.9285 11.0318C13.8641 11.262 13.0269 12.1224 12.8068 13.2136C12.744 13.5253 13.0078 13.7857 13.3258 13.7857H13.6742Z" fill="white" fill-opacity="0.9"/>
<path fill-rule="evenodd" clip-rule="evenodd" d="M22 7.64428C22 7.90387 21.9056 8.14089 21.75 8.32133V11.7386C21.75 12.7278 20.9665 13.5298 20 13.5298H19V17.3682H3V8.15606H19V11.9944H20C20.1381 11.9944 20.25 11.8799 20.25 11.7386V8.32133C20.0944 8.14089 20 7.90387 20 7.64428C20 7.07898 20.4477 6.62071 21 6.62071C21.5523 6.62071 22 7.07898 22 7.64428ZM10.2309 9.96685C9.96028 9.68986 9.59353 9.62029 9.35094 9.76493C9.11811 9.90375 8.80072 9.8765 8.41943 9.84377C7.67021 9.77945 6.67427 9.69395 5.58837 10.8054C4.50246 11.9169 4.586 12.9364 4.64884 13.7032C4.68082 14.0935 4.70744 14.4184 4.57183 14.6567C4.43051 14.905 4.49847 15.2804 4.76909 15.5574C5.03973 15.8344 5.40649 15.904 5.64911 15.7593C5.88191 15.6205 6.19928 15.6477 6.58056 15.6805C7.32976 15.7448 8.32571 15.8303 9.41162 14.7188C10.4975 13.6073 10.414 12.5879 10.3512 11.821C10.3192 11.4308 10.2926 11.1059 10.4282 10.8676C10.5695 10.6193 10.5015 10.2439 10.2309 9.96685ZM16.3509 9.76493C16.5935 9.62029 16.9603 9.68986 17.2309 9.96685C17.5015 10.2439 17.5695 10.6193 17.4282 10.8676C17.2926 11.1059 17.3192 11.4308 17.3512 11.821C17.414 12.5879 17.4975 13.6073 16.4116 14.7188C15.3257 15.8303 14.3298 15.7448 13.5806 15.6805C13.1993 15.6477 12.8819 15.6205 12.6491 15.7593C12.4065 15.904 12.0397 15.8344 11.7691 15.5574C11.4985 15.2804 11.4305 14.905 11.5718 14.6567C11.7074 14.4184 11.6808 14.0935 11.6488 13.7032C11.586 12.9364 11.5025 11.9169 12.5884 10.8054C13.6743 9.69395 14.6702 9.77945 15.4194 9.84377C15.8007 9.8765 16.1181 9.90375 16.3509 9.76493Z" fill="white" fill-opacity="0.9"/>
<path d="M4 18.9035C3.44772 18.9035 3 19.3618 3 19.9271V20.4389H19V19.9271C19 19.3618 18.5523 18.9035 18 18.9035H4Z" fill="white" fill-opacity="0.9"/>
</svg>
