<svg width="24" height="24" viewBox="0 0 24 24" fill="none" xmlns="http://www.w3.org/2000/svg">
<path d="M16.6904 19.1875C17.5481 18.8814 17.7939 18.6385 17.9062 18.7559C17.9771 18.8289 17.949 18.9955 17.9189 19.1094C16.2586 20.4962 14.1633 21.2543 12 21.251C11.8597 21.251 11.7197 21.2484 11.5811 21.2422C11.4821 21.1577 11.4139 21.0425 11.3877 20.915C11.3502 20.6523 12.0518 20.6773 12.9785 20.3643C13.5635 20.1632 14.1324 19.9183 14.6807 19.6318C14.6807 19.6318 15.8327 19.4936 16.6904 19.1875ZM8.05859 20.373C8.58927 20.5632 9.10187 20.6279 9.43164 20.7461C9.77117 20.8678 9.93319 21 10.3135 21.0986C9.53372 20.955 8.77567 20.7114 8.05859 20.373ZM7.43359 12.3135C7.47936 12.328 10.3645 13.2463 10.6348 13.6934C10.6708 13.7624 10.6966 13.8365 10.7109 13.9131C10.7178 13.9431 10.725 13.9763 10.7314 14.0117C10.7359 14.0357 10.7397 14.06 10.7441 14.085C10.7505 14.1229 10.7563 14.1637 10.7617 14.2051C10.7656 14.2326 10.769 14.2611 10.7725 14.29C10.7759 14.319 10.7798 14.3484 10.7832 14.3789C10.7881 14.4248 10.7924 14.4712 10.7969 14.5205C10.8023 14.584 10.8076 14.6504 10.8125 14.7178C10.8159 14.7684 10.8193 14.82 10.8223 14.8721L10.8311 15.0303C10.834 15.0834 10.8369 15.1373 10.8389 15.1914L10.8428 15.2979V15.3525C10.8462 15.388 10.8467 15.4245 10.8467 15.46C10.8708 16.2325 10.8585 16.9644 10.8584 16.9922L10.8994 16.9346L10.9209 16.9014L10.9385 16.8779L10.9668 16.8359L11.1035 16.6416L11.1338 16.5996L11.2168 16.4844L11.252 16.4355C11.4166 16.2098 11.6191 15.9361 11.832 15.667L11.8779 15.6094C12.0642 15.3758 12.2567 15.1477 12.4375 14.9551L12.5156 14.873L12.5674 14.8213C12.594 14.7942 12.6213 14.7683 12.6475 14.7441C12.7207 14.6731 12.7984 14.6069 12.8809 14.5469L12.915 14.5234C12.9639 14.4898 13.0177 14.4636 13.0742 14.4453C13.6751 14.2762 16.5771 15.3086 16.5771 15.3086C16.5771 15.3086 17.408 16.99 17.4082 17.4502C17.4082 17.9087 14.6939 19.6211 14.6768 19.6318C14.6768 19.6318 11.7093 20.0885 11.1582 19.5625C10.7878 19.2078 10.7795 18.1603 10.8135 17.5166C10.8145 17.4935 10.8174 17.4703 10.8174 17.4482C10.8228 17.3556 10.8295 17.2726 10.835 17.2041C10.8369 17.185 10.8398 17.1666 10.8398 17.1494C10.8481 17.0577 10.8553 17.0005 10.8555 16.9912C10.5859 17.3494 10.2918 17.689 9.97559 18.0068C9.92146 18.0605 9.86615 18.1158 9.80957 18.165C9.75308 18.2169 9.69615 18.2671 9.63867 18.3154C9.61011 18.3396 9.58081 18.3626 9.55176 18.3857C9.29148 18.5918 9.02613 18.7453 8.79395 18.7734C7.97599 18.8722 5.94473 16.8568 5.90234 16.8154C5.92501 16.8568 6.58743 18.1883 7.04883 18.8037C7.51714 19.4298 7.76777 19.5306 7.54199 19.6494C7.37981 19.7355 7.06255 19.7296 6.90137 19.7197C5.11641 18.5392 3.79452 16.7773 3.16016 14.7334C3.23416 14.5908 3.47252 14.1608 3.65039 14.1914C3.86335 14.2289 3.86144 14.6305 4.36426 15.2812C4.8646 15.9287 5.89203 16.8056 5.90234 16.8145C5.70081 16.4889 5.51775 16.152 5.35449 15.8057C5.11636 15.2924 4.64122 14.1654 4.8916 13.502C5.14246 12.8385 7.43359 12.3135 7.43359 12.3135ZM12 2.75C14.1468 2.74737 16.2274 3.49509 17.8818 4.86328C17.9237 4.99761 17.9461 5.13763 17.9482 5.27832C17.948 5.6283 17.4845 5.32726 16.7715 5.10254C16.0731 4.88243 14.798 4.69709 14.7451 4.68945C14.8212 4.73473 17.3387 6.23898 17.4844 6.87988C17.6317 7.52113 16.3852 9.36338 16.3467 9.4209C16.4095 9.39646 18.5085 8.58078 18.9619 8.88574C19.4223 9.19582 20.0889 12.3398 20.0889 12.3398C20.0839 12.3609 19.4203 15.1573 18.9248 15.5322C18.4291 15.9066 16.5897 15.3107 16.5771 15.3066C16.5637 15.2925 14.5403 13.155 14.54 12.4434C14.54 11.7295 16.3457 9.41895 16.3457 9.41895C16.3457 9.41895 13.8069 10.5204 13.1035 10.333C12.4028 10.1458 10.7342 7.40891 10.7236 7.3916C10.7236 7.3916 10.7751 6.6714 10.8623 5.64453C10.9496 4.61785 11.5064 4.62297 12.2949 4.52441C13.0611 4.42864 14.6491 4.67337 14.7393 4.6875C14.6648 4.6513 13.5847 4.12871 12.6201 3.80664C11.6209 3.47305 11.4131 3.37962 11.4316 3.18262C11.4435 3.05642 11.5559 2.87317 11.6348 2.75781C11.7572 2.75257 11.8792 2.75 12 2.75ZM20.248 8.6582C20.3076 8.59234 20.5126 8.66797 20.6582 8.7334C21.0514 9.77807 21.2522 10.8857 21.25 12.002C21.2514 13.1374 21.0434 14.2635 20.6357 15.3232C20.558 15.3961 20.4637 15.4503 20.3613 15.4795C20.0986 15.5451 20.202 14.9339 20.2676 14.1357C20.3328 13.3402 20.0904 12.3491 20.0889 12.3428C20.0889 12.3428 20.3234 11.3472 20.3047 10.3213C20.2859 9.29554 20.1519 8.76419 20.248 8.6582ZM2.9248 10.46C2.84988 11.1358 3.02527 11.7127 3.03809 12.0381C3.05031 12.3624 2.93712 12.7643 2.9248 13.5527C2.92333 13.6498 2.92574 13.7409 2.93066 13.8271C2.67014 12.5209 2.69139 11.174 2.99414 9.87695C2.97394 10.0534 2.94797 10.2525 2.9248 10.46ZM8.80176 5.58008C9.31903 5.58053 10.7236 7.39355 10.7236 7.39355C10.7273 7.43091 11.0464 10.6486 10.6484 11.123C10.2477 11.5988 7.43066 12.3135 7.43066 12.3135C7.43066 12.3135 5.1397 11.5118 4.87695 10.8857C4.61466 10.2605 5.84979 7.57646 5.85352 7.56836C5.87257 7.55279 8.28669 5.58008 8.80176 5.58008ZM6.91016 4.27539C7.00253 4.28437 7.09446 4.30006 7.18457 4.32227C7.39901 4.376 7.60592 4.48716 7.61035 4.65625C7.61406 4.82564 7.1662 5.2776 6.80566 5.81543C6.44482 6.35376 5.85352 7.56836 5.85352 7.56836C5.85168 7.57004 5.10058 8.2562 4.69043 8.74512C4.27981 9.23462 4.05173 10.0342 3.63867 10.0723C3.34547 10.0989 3.19158 9.64759 3.12598 9.38184C3.74627 7.28705 5.08635 5.47805 6.91016 4.27539ZM10.7383 2.83496C10.2867 2.9725 9.47113 3.32941 9.27148 3.39941C9.05692 3.47429 8.60795 3.53793 8.10742 3.66602C7.9316 3.71711 7.76035 3.78317 7.5957 3.86328C8.5724 3.33326 9.6372 2.98484 10.7383 2.83496Z" fill="white" fill-opacity="0.9"/>
</svg>
