<svg width="24" height="24" viewBox="0 0 24 24" fill="none" xmlns="http://www.w3.org/2000/svg">
<path d="M12.0601 4.05859C12.7844 3.84887 13.5365 4.2512 13.7368 4.95605L17.4419 17.998C17.6416 18.7028 17.2148 19.4473 16.4907 19.6572L7.99561 22.1182C7.2713 22.328 6.5183 21.9255 6.31787 21.2207L2.61279 8.17871C2.41289 7.47405 2.83908 6.72963 3.56299 6.51953L12.0601 4.05859ZM18.8823 1.5C19.6357 1.50024 20.2485 2.12118 20.2485 2.88379V16.9932C20.2485 17.7557 19.6357 18.3757 18.8823 18.376H18.5103C18.5792 18.1371 18.5827 17.8793 18.5083 17.626L14.4497 3.81836C14.2303 3.07196 13.4092 2.64441 12.6196 2.86523L8.67725 3.96777V2.88379C8.67725 2.12107 9.28987 1.50005 10.0435 1.5H18.8823ZM10.7837 15.8096C15.4869 10.4696 10.6494 9.17239 9.47314 11.2764C7.3605 10.1426 3.97411 13.865 10.7837 15.8096Z" fill="white" fill-opacity="0.9"/>
</svg>
