<svg width="24" height="24" viewBox="0 0 24 24" fill="none" xmlns="http://www.w3.org/2000/svg">
<path d="M15.6914 19.9453H16.2188C16.5102 19.9453 16.7461 20.1812 16.7461 20.4727C16.7461 20.7641 16.5102 21 16.2188 21H7.78125C7.48977 21 7.25391 20.7641 7.25391 20.4727C7.25391 20.1812 7.48977 19.9453 7.78125 19.9453H8.30859V18.8203H15.6914V19.9453ZM17.2734 3C17.5649 3 17.8008 3.23586 17.8008 3.52734C17.8008 3.70579 17.7944 3.87933 17.79 4.05469H20.4727C20.7641 4.05469 21 4.29055 21 4.58203V5.91797C21 8.86183 18.6422 11.2533 15.7363 11.4082C15.1302 12.2419 14.4079 12.8605 13.5908 13.2119C13.7106 15.6314 14.9875 17.2884 15.4004 17.7656H8.59961C9.01279 17.2848 10.2894 15.6179 10.4092 13.2119C9.59232 12.8604 8.86973 12.2418 8.26367 11.4082C5.35771 11.2533 3.00004 8.86181 3 5.91797V4.58203C3 4.29055 3.23586 4.05469 3.52734 4.05469H6.20996C6.20557 3.8794 6.19922 3.70579 6.19922 3.52734C6.19922 3.23586 6.43508 3 6.72656 3H17.2734ZM4.05469 5.10938V5.91797C4.05472 8.04296 5.58473 9.81819 7.57617 10.2666C6.87761 8.87953 6.42001 7.11836 6.2627 5.10938H4.05469ZM17.7373 5.10938C17.5801 7.11847 17.1223 8.87951 16.4238 10.2666C18.4152 9.81819 19.9453 8.04289 19.9453 5.91797V5.10938H17.7373ZM12.4717 5.66406C12.2933 5.30719 11.7066 5.30718 11.5283 5.66406L11.1045 6.5127L10.166 6.6543C9.96836 6.68422 9.80494 6.82324 9.74316 7.0127C9.68291 7.19741 9.72913 7.40796 9.87402 7.55078L10.5508 8.2168L10.3945 9.15332C10.3618 9.35037 10.443 9.54916 10.6045 9.66602C10.7662 9.78344 10.98 9.79864 11.1582 9.70801L12 9.27051L12.8418 9.70801C13.0194 9.7998 13.2333 9.78382 13.3955 9.66602C13.557 9.54917 13.6383 9.35034 13.6055 9.15332L13.4492 8.2168L14.126 7.55078C14.2679 7.41079 14.3184 7.20258 14.2568 7.0127C14.195 6.82325 14.0317 6.68423 13.834 6.6543L12.8955 6.5127L12.4717 5.66406ZM12.0752 7.22949C12.1519 7.38281 12.298 7.48974 12.4678 7.51562L12.6338 7.54004L12.5146 7.6582C12.3926 7.77818 12.3359 7.95072 12.3643 8.12012L12.3916 8.28516L12.2432 8.20801C12.089 8.12786 11.9062 8.13029 11.7568 8.20801L11.6084 8.28516L11.6348 8.12598C11.6665 7.95066 11.6051 7.77121 11.4805 7.65234L11.3662 7.54004L11.5322 7.51562C11.5382 7.51195 11.7994 7.48983 11.9287 7.22363L12 7.08008L12.0752 7.22949Z" fill="white" fill-opacity="0.9"/>
</svg>
