<svg width="24" height="24" viewBox="0 0 24 24" fill="none" xmlns="http://www.w3.org/2000/svg">
<path d="M21.9366 11.5011C21.0086 7.00692 19.612 4.60821 17.5404 3.95299C17.1049 3.81616 16.6532 3.7478 16.1993 3.75005C15.5995 3.75005 15.0771 3.90659 14.5245 4.07251C13.8586 4.27263 13.1021 4.49994 11.9991 4.49994C10.8961 4.49994 10.1392 4.2731 9.47195 4.07298C8.91892 3.90659 8.39695 3.75005 7.79886 3.75005C7.32958 3.74831 6.86235 3.81645 6.41059 3.95252C4.34985 4.60493 2.95414 7.00271 2.01259 11.4983C1.00015 16.336 1.49849 19.3904 3.41004 20.0991C3.67207 20.198 3.94776 20.249 4.22559 20.25C5.5351 20.25 6.58516 19.0816 7.3027 18.125C8.11344 17.0423 9.06243 16.493 11.9991 16.493C14.6221 16.493 15.7076 16.8741 16.6452 18.125C17.2345 18.9114 17.7915 19.4617 18.3472 19.808C19.0861 20.2683 19.8247 20.3705 20.5418 20.1066C21.6715 19.6937 22.319 18.6021 22.4669 16.8614C22.5793 15.5266 22.4061 13.7733 21.9366 11.5011ZM9.89898 11.249H8.4989V12.7487C8.4989 12.9476 8.42514 13.1384 8.29386 13.279C8.16258 13.4196 7.98452 13.4986 7.79886 13.4986C7.61319 13.4986 7.43514 13.4196 7.30385 13.279C7.17257 13.1384 7.09882 12.9476 7.09882 12.7487V11.249H5.69874C5.51307 11.249 5.33502 11.17 5.20373 11.0293C5.07245 10.8887 4.9987 10.698 4.9987 10.4991C4.9987 10.3002 5.07245 10.1095 5.20373 9.96882C5.33502 9.82819 5.51307 9.74918 5.69874 9.74918H7.09882V8.2494C7.09882 8.05052 7.17257 7.85978 7.30385 7.71915C7.43514 7.57852 7.61319 7.49951 7.79886 7.49951C7.98452 7.49951 8.16258 7.57852 8.29386 7.71915C8.42514 7.85978 8.4989 8.05052 8.4989 8.2494V9.74918H9.89898C10.0846 9.74918 10.2627 9.82819 10.394 9.96882C10.5253 10.1095 10.599 10.3002 10.599 10.4991C10.599 10.698 10.5253 10.8887 10.394 11.0293C10.2627 11.17 10.0846 11.249 9.89898 11.249ZM13.5742 11.4364C13.4011 11.4364 13.2319 11.3815 13.088 11.2785C12.9441 11.1755 12.832 11.0291 12.7657 10.8578C12.6995 10.6865 12.6822 10.498 12.716 10.3162C12.7497 10.1344 12.8331 9.96735 12.9554 9.83626C13.0778 9.70516 13.2337 9.61589 13.4035 9.57972C13.5732 9.54355 13.7492 9.56212 13.9091 9.63306C14.069 9.70401 14.2056 9.82415 14.3018 9.9783C14.3979 10.1325 14.4492 10.3137 14.4492 10.4991C14.4492 10.7477 14.357 10.9861 14.1929 11.1619C14.0288 11.3377 13.8063 11.4364 13.5742 11.4364ZM15.4993 13.4986C15.3261 13.4986 15.1569 13.4436 15.0129 13.3405C14.869 13.2374 14.7568 13.0909 14.6907 12.9194C14.6245 12.748 14.6073 12.5594 14.6412 12.3775C14.6752 12.1956 14.7587 12.0286 14.8813 11.8976C15.0039 11.7666 15.16 11.6775 15.3299 11.6416C15.4998 11.6057 15.6758 11.6246 15.8357 11.6959C15.9955 11.7672 16.1321 11.8878 16.2279 12.0422C16.3238 12.1967 16.3748 12.3781 16.3743 12.5636C16.3738 12.8118 16.2813 13.0496 16.1173 13.2249C15.9532 13.4002 15.731 13.4986 15.4993 13.4986ZM15.4993 9.37424C15.3262 9.37424 15.157 9.31926 15.0131 9.21626C14.8692 9.11326 14.7571 8.96687 14.6909 8.79559C14.6246 8.62431 14.6073 8.43583 14.6411 8.254C14.6748 8.07217 14.7582 7.90515 14.8805 7.77406C15.0029 7.64296 15.1588 7.55369 15.3286 7.51752C15.4983 7.48135 15.6743 7.49992 15.8342 7.57086C15.9941 7.64181 16.1307 7.76195 16.2269 7.9161C16.323 8.07025 16.3743 8.25148 16.3743 8.43687C16.3743 8.68548 16.2822 8.9239 16.1181 9.09969C15.954 9.27548 15.7314 9.37424 15.4993 9.37424ZM17.4244 11.4364C17.2513 11.4364 17.0822 11.3815 16.9383 11.2785C16.7944 11.1755 16.6822 11.0291 16.616 10.8578C16.5497 10.6865 16.5324 10.498 16.5662 10.3162C16.5999 10.1344 16.6833 9.96735 16.8057 9.83626C16.928 9.70516 17.084 9.61589 17.2537 9.57972C17.4234 9.54355 17.5994 9.56212 17.7593 9.63306C17.9192 9.70401 18.0558 9.82415 18.152 9.9783C18.2481 10.1325 18.2995 10.3137 18.2995 10.4991C18.2995 10.7477 18.2073 10.9861 18.0432 11.1619C17.8791 11.3377 17.6565 11.4364 17.4244 11.4364Z" fill="white" fill-opacity="0.9"/>
</svg>
