<svg width="24" height="24" viewBox="0 0 24 24" fill="none" xmlns="http://www.w3.org/2000/svg">
<g clip-path="url(#clip0_4_3827)">
<path d="M14.3311 21.7266C14.4741 21.6927 14.6201 21.7769 14.6582 21.9189L15.0371 23.3359C15.0751 23.4781 14.9906 23.6252 14.8477 23.6602C13.9331 23.8828 12.9788 24 12 24C11.0212 24 10.0669 23.8828 9.15234 23.6602C9.00942 23.6252 8.92488 23.4781 8.96289 23.3359L9.3418 21.9189C9.37986 21.7769 9.52592 21.6927 9.66895 21.7266C10.4167 21.9051 11.1975 22 12 22C12.8025 22 13.5833 21.9051 14.3311 21.7266ZM3.10742 17.1348C3.23477 17.0611 3.39739 17.1043 3.47461 17.2295C4.29854 18.5697 5.43028 19.7015 6.77051 20.5254C6.89569 20.6026 6.93892 20.7652 6.86523 20.8926L6.13086 22.1621C6.0571 22.2894 5.89426 22.3331 5.76855 22.2568C4.12599 21.2571 2.74293 19.874 1.74316 18.2314C1.66685 18.1057 1.71065 17.9429 1.83789 17.8691L3.10742 17.1348ZM20.5254 17.2295C20.6026 17.1043 20.7652 17.0611 20.8926 17.1348L22.1621 17.8691C22.2894 17.9429 22.3331 18.1057 22.2568 18.2314C21.2571 19.874 19.874 21.2571 18.2314 22.2568C18.1057 22.3331 17.9429 22.2894 17.8691 22.1621L17.1348 20.8926C17.0611 20.7652 17.1043 20.6026 17.2295 20.5254C18.5697 19.7015 19.7015 18.5697 20.5254 17.2295ZM11.917 6C14.0464 6.00006 15.7744 7.72802 15.7744 9.85742C15.7743 10.9903 15.2865 12.0085 14.5098 12.7129C16.0364 13.5834 17.0893 15.1932 17.167 17.0547C17.1722 17.1751 17.0753 17.2764 16.9521 17.2764H15.6641C15.549 17.2763 15.4556 17.1856 15.4502 17.0732C15.3457 15.2197 13.8 13.7413 11.917 13.7412C10.034 13.7412 8.48825 15.2197 8.38379 17.0732C8.3757 17.1882 8.28222 17.2762 8.16992 17.2764H6.88086C6.76056 17.2762 6.66182 17.175 6.66699 17.0547C6.74735 15.1958 7.79745 13.5834 9.32422 12.7129C8.5475 12.0085 8.05966 10.9903 8.05957 9.85742C8.05957 7.72798 9.78753 6 11.917 6ZM0.664062 8.96289L2.08105 9.3418C2.22306 9.37986 2.30731 9.52592 2.27344 9.66895C2.09492 10.4167 2 11.1975 2 12C2 12.8025 2.09492 13.5833 2.27344 14.3311C2.30731 14.4741 2.22306 14.6201 2.08105 14.6582L0.664062 15.0371C0.521876 15.0751 0.37481 14.9906 0.339844 14.8477C0.117157 13.9331 0 12.9788 0 12C2.86461e-08 11.0212 0.117157 10.0669 0.339844 9.15234C0.37481 9.00942 0.521876 8.92488 0.664062 8.96289ZM23.3359 8.96289C23.4781 8.92488 23.6252 9.00942 23.6602 9.15234C23.8828 10.0669 24 11.0212 24 12C24 12.9788 23.8828 13.9331 23.6602 14.8477C23.6252 14.9906 23.4781 15.0751 23.3359 15.0371L21.9189 14.6582C21.7769 14.6201 21.6927 14.4741 21.7266 14.3311C21.9051 13.5833 22 12.8025 22 12C22 11.1975 21.9051 10.4167 21.7266 9.66895C21.6927 9.52592 21.7769 9.37986 21.9189 9.3418L23.3359 8.96289ZM11.917 7.71387C10.7331 7.71387 9.77441 8.6735 9.77441 9.85742C9.77463 11.0412 10.7332 12 11.917 12C13.1007 11.9999 14.0594 11.0411 14.0596 9.85742C14.0596 8.67355 13.1009 7.71394 11.917 7.71387ZM5.76855 1.74316C5.89426 1.66685 6.0571 1.71065 6.13086 1.83789L6.86523 3.10742C6.93892 3.23477 6.89569 3.39739 6.77051 3.47461C5.43028 4.29854 4.29854 5.43028 3.47461 6.77051C3.39739 6.89569 3.23477 6.93892 3.10742 6.86523L1.83789 6.13086C1.71065 6.0571 1.66685 5.89426 1.74316 5.76855C2.74293 4.12599 4.12599 2.74293 5.76855 1.74316ZM17.8691 1.83789C17.9429 1.71065 18.1057 1.66685 18.2314 1.74316C19.874 2.74293 21.2571 4.12599 22.2568 5.76855C22.3331 5.89426 22.2894 6.0571 22.1621 6.13086L20.8926 6.86523C20.7652 6.93892 20.6026 6.89569 20.5254 6.77051C19.7015 5.43028 18.5697 4.29854 17.2295 3.47461C17.1043 3.39739 17.0611 3.23477 17.1348 3.10742L17.8691 1.83789ZM12 0C12.9788 0 13.9331 0.117157 14.8477 0.339844C14.9906 0.37481 15.0751 0.521876 15.0371 0.664062L14.6582 2.08105C14.6201 2.22306 14.4741 2.30731 14.3311 2.27344C13.5833 2.09492 12.8025 2 12 2C11.1975 2 10.4167 2.09492 9.66895 2.27344C9.52592 2.30731 9.37986 2.22306 9.3418 2.08105L8.96289 0.664062C8.92488 0.521876 9.00942 0.374811 9.15234 0.339844C10.0669 0.117157 11.0212 2.8646e-08 12 0Z" fill="white" fill-opacity="0.9"/>
</g>
<defs>
<clipPath id="clip0_4_3827">
<rect width="24" height="24" fill="white"/>
</clipPath>
</defs>
</svg>
