<svg width="24" height="24" viewBox="0 0 24 24" fill="none" xmlns="http://www.w3.org/2000/svg">
<g clip-path="url(#clip0_4_3831)">
<path d="M12 0C18.6274 0 24 5.37258 24 12C24 12.6456 23.9487 13.2795 23.8506 13.8975C23.8181 14.1009 23.5732 14.1846 23.4102 14.0586C23.0114 13.7499 22.5766 13.4853 22.1133 13.2725C22.0055 13.2229 21.9396 13.1102 21.9512 12.9922C21.9833 12.6659 22 12.3348 22 12C22 6.47715 17.5228 2 12 2C6.47715 2 2 6.47715 2 12C2 17.5228 6.47715 22 12 22C12.3348 22 12.6659 21.9833 12.9922 21.9512C13.1102 21.9396 13.2229 22.0055 13.2725 22.1133C13.4853 22.5766 13.7499 23.0114 14.0586 23.4102C14.1846 23.5732 14.1009 23.8181 13.8975 23.8506C13.2795 23.9487 12.6456 24 12 24C5.37258 24 0 18.6274 0 12C1.93277e-07 5.37258 5.37258 1.93283e-07 12 0ZM19.333 14.667C21.9102 14.667 23.9998 16.7558 24 19.333C24 21.9103 21.9103 24 19.333 24C16.7558 23.9998 14.667 21.9102 14.667 19.333C14.6672 16.7559 16.7559 14.6672 19.333 14.667ZM21.5752 16.8633C21.4766 16.7543 21.3085 16.7454 21.1992 16.8438L18.3076 19.4541L17.4678 18.6963C17.3585 18.5976 17.1895 18.6056 17.0908 18.7148L16.2422 19.6553C16.1435 19.7646 16.1524 19.9335 16.2617 20.0322L18.1289 21.7178C18.2304 21.8094 18.3848 21.8094 18.4863 21.7178L22.4053 18.1797C22.5142 18.0811 22.5231 17.9129 22.4248 17.8037L21.5752 16.8633ZM11.917 6C14.0464 6.00006 15.7744 7.728 15.7744 9.85742C15.7743 10.9903 15.2865 12.0085 14.5098 12.7129C14.8824 12.9254 15.2273 13.1821 15.5361 13.4756C15.6567 13.5906 15.6313 13.7858 15.4951 13.8818C15.1891 14.0977 14.9018 14.3385 14.6367 14.6016C14.5287 14.7087 14.3541 14.7112 14.2393 14.6113C13.6172 14.0698 12.8046 13.7412 11.917 13.7412C10.034 13.7412 8.48825 15.2197 8.38379 17.0732C8.37575 17.1883 8.28225 17.2762 8.16992 17.2764H6.88086C6.76053 17.2762 6.66177 17.175 6.66699 17.0547C6.74735 15.1958 7.79744 13.5834 9.32422 12.7129C8.5475 12.0085 8.05965 10.9903 8.05957 9.85742C8.05957 7.72796 9.78753 6 11.917 6ZM11.917 7.71387C10.7331 7.71387 9.77441 8.67349 9.77441 9.85742C9.77461 11.0412 10.7332 12 11.917 12C13.1007 11.9999 14.0594 11.0411 14.0596 9.85742C14.0596 8.67354 13.1009 7.71394 11.917 7.71387Z" fill="white" fill-opacity="0.9"/>
</g>
<defs>
<clipPath id="clip0_4_3831">
<rect width="24" height="24" fill="white"/>
</clipPath>
</defs>
</svg>
