<svg width="24" height="24" viewBox="0 0 24 24" fill="none" xmlns="http://www.w3.org/2000/svg">
<path d="M17.625 16.9883C17.6249 17.2837 17.5068 17.5674 17.2959 17.7764C17.0849 17.9854 16.7984 18.1025 16.5 18.1025H15.375V20.8887C15.375 21.1841 15.2567 21.4678 15.0459 21.6768C14.8349 21.8858 14.5484 22.0029 14.25 22.0029C13.9516 22.0029 13.6651 21.8858 13.4541 21.6768C13.2433 21.4678 13.125 21.1841 13.125 20.8887V18.1025H10.875V20.8887C10.875 21.1841 10.7567 21.4678 10.5459 21.6768C10.3349 21.8858 10.0484 22.0029 9.75 22.0029C9.45163 22.0029 9.16508 21.8858 8.9541 21.6768C8.74331 21.4678 8.625 21.1841 8.625 20.8887V18.1025H7.5C7.20163 18.1025 6.91508 17.9854 6.7041 17.7764C6.49322 17.5674 6.37506 17.2837 6.375 16.9883V8.62988H17.625V16.9883ZM4.125 8.62988C4.42337 8.62988 4.70992 8.74803 4.9209 8.95703C5.13149 9.16589 5.24988 9.44894 5.25 9.74414V14.7598C5.24998 15.0552 5.13177 15.3389 4.9209 15.5479C4.70992 15.7569 4.42337 15.874 4.125 15.874C3.82663 15.874 3.54008 15.7569 3.3291 15.5479C3.11823 15.3389 3.00002 15.0552 3 14.7598V9.74414C3.00012 9.44894 3.11851 9.16589 3.3291 8.95703C3.54008 8.74803 3.82663 8.62988 4.125 8.62988ZM19.875 8.62988C20.1734 8.62988 20.4599 8.74803 20.6709 8.95703C20.8815 9.16589 20.9999 9.44894 21 9.74414V14.7598C21 15.0552 20.8818 15.3389 20.6709 15.5479C20.4599 15.7569 20.1734 15.874 19.875 15.874C19.5766 15.874 19.2901 15.7569 19.0791 15.5479C18.8682 15.3389 18.75 15.0552 18.75 14.7598V9.74414C18.7501 9.44894 18.8685 9.16589 19.0791 8.95703C19.2901 8.74803 19.5766 8.62988 19.875 8.62988ZM14.96 2.2207C15.1141 1.99193 15.4243 1.93122 15.6533 2.08496C15.8824 2.23913 15.9432 2.5502 15.7891 2.7793L15.1172 3.77734C16.6176 4.57854 17.5007 5.96627 17.625 7.51562H6.375C6.49834 5.97327 7.37414 4.59093 8.8623 3.78809L8.20508 2.77148C8.05524 2.53959 8.12166 2.22998 8.35352 2.08008C8.5854 1.93023 8.89501 1.99669 9.04492 2.22852L9.79492 3.38867V3.38965C10.4481 3.17608 11.1856 3.05762 12 3.05762C12.8031 3.05762 13.5314 3.17287 14.1777 3.38086L14.96 2.2207ZM9.75 5.0625C9.60085 5.0625 9.45802 5.12112 9.35254 5.22559C9.24712 5.33002 9.18758 5.47146 9.1875 5.61914C9.1875 5.76693 9.24705 5.90917 9.35254 6.01367C9.458 6.11802 9.60093 6.17676 9.75 6.17676C9.89907 6.17676 10.042 6.11802 10.1475 6.01367C10.253 5.90917 10.3125 5.76693 10.3125 5.61914C10.3124 5.47146 10.2529 5.33002 10.1475 5.22559C10.042 5.12112 9.89915 5.0625 9.75 5.0625ZM14.25 5.0625C14.1008 5.0625 13.958 5.12112 13.8525 5.22559C13.7471 5.33002 13.6876 5.47146 13.6875 5.61914C13.6875 5.76693 13.7471 5.90917 13.8525 6.01367C13.958 6.11802 14.1009 6.17676 14.25 6.17676C14.3991 6.17676 14.542 6.11802 14.6475 6.01367C14.7529 5.90917 14.8125 5.76693 14.8125 5.61914C14.8124 5.47146 14.7529 5.33002 14.6475 5.22559C14.542 5.12112 14.3992 5.0625 14.25 5.0625Z" fill="#7CB342"/>
</svg>
