<svg width="24" height="24" viewBox="0 0 24 24" fill="none" xmlns="http://www.w3.org/2000/svg">
<path fill-rule="evenodd" clip-rule="evenodd" d="M22.9239 7H1.07612C1.17203 6.02491 1.38879 5.36857 1.87868 4.87868C2.75736 4 4.17157 4 7 4H17C19.8284 4 21.2426 4 22.1213 4.87868C22.6112 5.36857 22.828 6.02491 22.9239 7ZM1 10H23V14C23 16.8284 23 18.2426 22.1213 19.1213C21.2426 20 19.8284 20 17 20H7C4.17157 20 2.75736 20 1.87868 19.1213C1 18.2426 1 16.8284 1 14V10ZM4 12.75C4 12.3358 4.33579 12 4.75 12H11.75C12.1642 12 12.5 12.3358 12.5 12.75C12.5 13.1642 12.1642 13.5 11.75 13.5H4.75C4.33579 13.5 4 13.1642 4 12.75ZM4.75 15.5C4.33579 15.5 4 15.8358 4 16.25C4 16.6642 4.33579 17 4.75 17H8.75C9.16421 17 9.5 16.6642 9.5 16.25C9.5 15.8358 9.16421 15.5 8.75 15.5H4.75ZM18 12.5C17.4477 12.5 17 12.9477 17 13.5V15.5C17 16.0523 17.4477 16.5 18 16.5H20C20.5523 16.5 21 16.0523 21 15.5V13.5C21 12.9477 20.5523 12.5 20 12.5H18Z" fill="white" fill-opacity="0.9"/>
</svg>
