<svg width="24" height="24" viewBox="0 0 24 24" fill="none" xmlns="http://www.w3.org/2000/svg">
<path fill-rule="evenodd" clip-rule="evenodd" d="M4.76657 1.73321L4.88304 1.79145C5.12516 1.91251 5.24621 1.97303 5.37643 1.97303C5.50665 1.97303 5.62771 1.91251 5.86982 1.79145L7.08955 1.18158C7.33167 1.06053 7.45272 1 7.58294 1C7.71317 1 7.83422 1.06053 8.07634 1.18158L9.29606 1.79145C9.53818 1.91251 9.65923 1.97303 9.78946 1.97303C9.91968 1.97303 10.0407 1.91251 10.2828 1.79145L11.5026 1.18158C11.7447 1.06053 11.8657 1 11.996 1C12.1262 1 12.2472 1.06053 12.4894 1.18158L13.7091 1.79145C13.9512 1.91251 14.0723 1.97303 14.2025 1.97303C14.3327 1.97303 14.4538 1.91251 14.6959 1.79145L15.9156 1.18158C16.1577 1.06053 16.2788 1 16.409 1C16.5392 1 16.6603 1.06053 16.9024 1.18158L18.1221 1.79145C18.3642 1.91251 18.4853 1.97303 18.6155 1.97303C18.7457 1.97303 18.8668 1.91251 19.1089 1.79145L19.2254 1.73321C19.941 1.37541 20.2988 1.19651 20.5604 1.3582C20.822 1.51989 20.822 1.91992 20.822 2.71999V15C20.822 18.7712 20.822 20.6569 19.6504 21.8284C18.4789 23 16.5932 23 12.822 23H11.1699C7.39868 23 5.51307 23 4.34149 21.8284C3.16992 20.6569 3.16992 18.7712 3.16992 15V2.71999C3.16992 1.91992 3.16992 1.51989 3.43154 1.3582C3.69316 1.19651 4.05096 1.37541 4.76657 1.73321ZM10.803 10.3975V13.3996C10.803 13.7298 10.534 14 10.2052 14H8.41174C8.08294 14 7.81392 13.7298 7.81392 13.3996V9.19663H6.79763C6.52263 9.19663 6.39709 8.85439 6.60035 8.67427L11.5981 4.1531C11.8253 3.94896 12.172 3.94896 12.3992 4.1531L17.397 8.67427C17.6062 8.85439 17.4747 9.19663 17.1997 9.19663H16.1834V13.3996C16.1834 13.7298 15.9144 14 15.5856 14H13.7921C13.4633 14 13.1943 13.7298 13.1943 13.3996V10.3975H10.803ZM7.25 17C7.25 16.5858 7.58579 16.25 8 16.25H16C16.4142 16.25 16.75 16.5858 16.75 17C16.75 17.4142 16.4142 17.75 16 17.75H8C7.58579 17.75 7.25 17.4142 7.25 17ZM8 19.25C7.58579 19.25 7.25 19.5858 7.25 20C7.25 20.4142 7.58579 20.75 8 20.75H14C14.4142 20.75 14.75 20.4142 14.75 20C14.75 19.5858 14.4142 19.25 14 19.25H8Z" fill="white" fill-opacity="0.9"/>
</svg>
