<svg width="24" height="24" viewBox="0 0 24 24" fill="none" xmlns="http://www.w3.org/2000/svg">
<path d="M8.29565 23H6.33569L5.54956 17.083H7.94312L8.29565 23ZM11.3113 23H9.58667L9.23413 17.083H11.3113V23ZM14.6775 17.083L14.325 23H12.6013V17.083H14.6775ZM17.5759 23H15.616L15.9685 17.083H18.3621L17.5759 23ZM12.4119 1.45605C12.5641 1.6083 13.8893 2.97823 13.8894 4.49023C13.8894 5.33069 13.3507 6.04735 12.6003 6.31348V7.49902H15.6218C17.0385 7.49902 18.1912 8.65169 18.1912 10.0684C18.1911 10.5529 18.0561 11.0064 17.822 11.3936C19.0102 11.6188 19.9117 12.6643 19.9119 13.917V13.96C19.9119 14.6776 19.6154 15.3275 19.1394 15.7939H4.77222C4.29614 15.3274 3.99976 14.6776 3.99976 13.96V13.917C3.9999 12.6643 4.90141 11.6188 6.0896 11.3936C5.85554 11.0064 5.72049 10.5529 5.72046 10.0684C5.72046 8.6517 6.87314 7.49903 8.28979 7.49902H11.3113V6.31348C10.5609 6.04735 10.0222 5.33069 10.0222 4.49023C10.0223 2.97828 11.3474 1.60837 11.4998 1.45605L11.9558 1L12.4119 1.45605Z" fill="white" fill-opacity="0.9"/>
</svg>
