<svg width="24" height="24" viewBox="0 0 24 24" fill="none" xmlns="http://www.w3.org/2000/svg">
<path d="M21 8.18849V6.80387C21 6.43665 20.8541 6.08447 20.5945 5.8248C20.3348 5.56513 19.9826 5.41926 19.6154 5.41926H17.5385V3.34233C17.5385 3.15872 17.4655 2.98263 17.3357 2.8528C17.2059 2.72296 17.0298 2.65002 16.8462 2.65002C16.6625 2.65002 16.4865 2.72296 16.3566 2.8528C16.2268 2.98263 16.1538 3.15872 16.1538 3.34233V5.41926H7.84615V3.34233C7.84615 3.15872 7.77321 2.98263 7.64338 2.8528C7.51355 2.72296 7.33746 2.65002 7.15385 2.65002C6.97023 2.65002 6.79414 2.72296 6.66431 2.8528C6.53448 2.98263 6.46154 3.15872 6.46154 3.34233V5.41926H4.38462C4.01739 5.41926 3.66521 5.56513 3.40554 5.8248C3.14588 6.08447 3 6.43665 3 6.80387V8.18849H21Z" fill="white" fill-opacity="0.9"/>
<path fill-rule="evenodd" clip-rule="evenodd" d="M21 9.5731H3V19.9577C3 20.3249 3.14588 20.6771 3.40554 20.9368C3.66521 21.1965 4.01739 21.3423 4.38462 21.3423H19.6154C19.9826 21.3423 20.3348 21.1965 20.5945 20.9368C20.8541 20.6771 21 20.3249 21 19.9577V9.5731ZM19.5 11H4.5V19C4.5 19.5523 4.94772 20 5.5 20H18.5C19.0523 20 19.5 19.5523 19.5 19V11Z" fill="white" fill-opacity="0.9"/>
<path d="M6.25 13.75C6.25 13.1977 6.69772 12.75 7.25 12.75H10.25C10.8023 12.75 11.25 13.1977 11.25 13.75V16.75C11.25 17.3023 10.8023 17.75 10.25 17.75H7.25C6.69772 17.75 6.25 17.3023 6.25 16.75V13.75Z" fill="white" fill-opacity="0.9"/>
</svg>
