<svg width="24" height="24" viewBox="0 0 24 24" fill="none" xmlns="http://www.w3.org/2000/svg">
<path d="M17.6747 2.5L0.5 9.49016L2.57197 14.1767V9.51598H4.15897L15.38 4.94904C15.6935 5.65818 16.5884 5.97223 17.3789 5.65064L19.082 9.50267L19.0503 9.51598H20.7766L17.6747 2.5Z" fill="white" fill-opacity="0.9"/>
<path d="M8.23868 9.51598H14.0125C13.99 9.45162 13.9648 9.38766 13.9367 9.32429C13.3097 7.9058 11.5198 7.2777 9.93888 7.9211C9.14108 8.24587 8.54892 8.83226 8.23868 9.51598Z" fill="white" fill-opacity="0.9"/>
<path d="M16.7992 8.15927C16.956 8.51364 16.7626 8.93158 16.3674 9.09248C15.9722 9.25338 15.5247 9.09625 15.368 8.74168C15.2112 8.38711 15.4045 7.96937 15.7997 7.80847C16.195 7.64757 16.6424 7.80469 16.7992 8.15927Z" fill="white" fill-opacity="0.9"/>
<path d="M13.172 18.4077C14.8893 18.4077 16.2813 17.1589 16.2813 15.6182C16.2813 14.0776 14.8893 12.8287 13.172 12.8287C11.4547 12.8287 10.0626 14.0776 10.0626 15.6182C10.0626 17.1589 11.4547 18.4077 13.172 18.4077Z" fill="white" fill-opacity="0.9"/>
<path d="M18.6133 16.3156C19.0427 16.3156 19.3906 16.0034 19.3906 15.6182C19.3906 15.233 19.0427 14.9208 18.6133 14.9208C18.184 14.9208 17.836 15.233 17.836 15.6182C17.836 16.0034 18.184 16.3156 18.6133 16.3156Z" fill="white" fill-opacity="0.9"/>
<path d="M7.73063 16.3156C8.15996 16.3156 8.50798 16.0034 8.50798 15.6182C8.50798 15.233 8.15996 14.9208 7.73063 14.9208C7.3013 14.9208 6.95333 15.233 6.95333 15.6182C6.95333 16.0034 7.3013 16.3156 7.73063 16.3156Z" fill="white" fill-opacity="0.9"/>
<path fill-rule="evenodd" clip-rule="evenodd" d="M3.84397 10.7364H22.5V20.5H3.84397V10.7364ZM5.39862 13.5259C6.25724 13.5259 6.95333 12.9014 6.95333 12.1313H19.3906C19.3906 12.9014 20.0867 13.5259 20.9453 13.5259V17.7105C20.0867 17.7105 19.3906 18.335 19.3906 19.1051H6.95333C6.95333 18.335 6.25724 17.7105 5.39862 17.7105V13.5259Z" fill="white" fill-opacity="0.9"/>
</svg>
