<svg width="24" height="24" viewBox="0 0 24 24" fill="none" xmlns="http://www.w3.org/2000/svg">
<path d="M12 5.25C12.6213 5.25 13.125 4.74632 13.125 4.125C13.125 3.50368 12.6213 3 12 3C11.3787 3 10.875 3.50368 10.875 4.125C10.875 4.74632 11.3787 5.25 12 5.25Z" fill="white" fill-opacity="0.9"/>
<path d="M3 7.5C3.62132 7.5 4.125 6.99632 4.125 6.375C4.125 5.75368 3.62132 5.25 3 5.25C2.37868 5.25 1.875 5.75368 1.875 6.375C1.875 6.99632 2.37868 7.5 3 7.5Z" fill="white" fill-opacity="0.9"/>
<path d="M12.6898 6.65446C12.47 6.7143 12.2386 6.74623 11.9998 6.74623C11.7611 6.74623 11.5298 6.71431 11.31 6.65451L8.49992 12.375L4.81244 8.26849C4.46724 8.59903 4.03183 8.83611 3.54684 8.93907L5.24992 17.3125H18.7499L20.453 8.9391C19.968 8.83617 19.5325 8.59911 19.1873 8.26859L15.4999 12.375L12.6898 6.65446Z" fill="white" fill-opacity="0.9"/>
<path d="M5.25 19.875V18.75H18.75V19.875C18.75 20.4963 18.2463 21 17.625 21H6.375C5.75368 21 5.25 20.4963 5.25 19.875Z" fill="white" fill-opacity="0.9"/>
<path d="M22.125 6.375C22.125 6.99632 21.6213 7.5 21 7.5C20.3787 7.5 19.875 6.99632 19.875 6.375C19.875 5.75368 20.3787 5.25 21 5.25C21.6213 5.25 22.125 5.75368 22.125 6.375Z" fill="white" fill-opacity="0.9"/>
</svg>
