<svg width="24" height="24" viewBox="0 0 24 24" fill="none" xmlns="http://www.w3.org/2000/svg">
<path d="M12 1C18.0751 1 23 5.92487 23 12C23 18.0751 18.0751 23 12 23C5.92487 23 1 18.0751 1 12C1 5.92487 5.92487 1 12 1ZM16.3848 7C15.2419 7.00004 14.3105 7.24269 13.5918 7.72754C12.8732 8.2038 12.4271 8.8623 12.2539 9.70215C12.1328 10.2561 12.159 10.7367 12.332 11.1436C12.5052 11.5419 12.8042 11.867 13.2285 12.1182C13.6614 12.3692 14.2032 12.5505 14.8525 12.6631C15.3024 12.7496 15.6573 12.8323 15.917 12.9102C16.1852 12.988 16.3676 13.0747 16.4629 13.1699C16.5667 13.2652 16.601 13.387 16.5664 13.5342C16.523 13.7245 16.3758 13.8758 16.125 13.9883C15.8826 14.0921 15.5622 14.1445 15.1641 14.1445C14.9563 14.1445 14.774 14.1224 14.6182 14.0791C14.4713 14.0272 14.35 13.9625 14.2549 13.8848C14.1683 13.7982 14.0988 13.7065 14.0469 13.6113C13.9865 13.5423 13.9256 13.4907 13.8652 13.4561C13.8046 13.4128 13.7089 13.3907 13.5791 13.3906H11.5137C11.4359 13.3907 11.3662 13.4169 11.3057 13.4688C11.2451 13.5207 11.2068 13.5862 11.1895 13.6641C11.1116 14.1315 11.1982 14.5727 11.4492 14.9883C11.7004 15.3952 12.1161 15.7245 12.6963 15.9756C13.285 16.2266 14.0295 16.3525 14.9297 16.3525C16.2285 16.3525 17.2554 16.1189 18.0088 15.6514C18.2053 15.5285 18.383 15.3906 18.542 15.2383H17.418C17.1905 15.2383 17.0059 15.0537 17.0059 14.8262C17.006 14.5988 17.1905 14.4141 17.418 14.4141H19.0654C19.0931 14.4141 19.1204 14.4167 19.1465 14.4219C19.2753 14.1687 19.3746 13.8919 19.4424 13.5908H20.7139C20.9411 13.5905 21.125 13.406 21.125 13.1787C21.125 12.9514 20.9411 12.7669 20.7139 12.7666H19.5156C19.5023 12.5459 19.4599 12.3427 19.3857 12.1572C19.3584 12.0833 19.3242 12.0122 19.2861 11.9434H19.8896C20.117 11.9432 20.3017 11.7586 20.3018 11.5312C20.3018 11.3038 20.117 11.1193 19.8896 11.1191H18.3525C17.9134 10.9006 17.3271 10.7346 16.5928 10.624C16.1775 10.5375 15.8569 10.4599 15.6318 10.3906C15.4069 10.3128 15.2547 10.226 15.1768 10.1309C15.0989 10.0357 15.0727 9.92275 15.0986 9.79297C15.1419 9.60256 15.2548 9.45951 15.4365 9.36426C15.627 9.26042 15.8698 9.20802 16.1641 9.20801C16.4151 9.20804 16.6145 9.25635 16.7617 9.35156C16.9173 9.44674 17.0041 9.55469 17.0215 9.67578C17.0734 9.75365 17.1299 9.8101 17.1904 9.84473C17.2596 9.87926 17.3506 9.89646 17.4629 9.89648H19.6328C19.7018 9.89633 19.7667 9.87015 19.8271 9.81836C19.8962 9.75789 19.9356 9.68902 19.9443 9.61133C19.9963 9.33425 19.9439 9.04328 19.7881 8.74023C19.7729 8.70902 19.7563 8.67822 19.7393 8.64746H18.2412C18.0139 8.64728 17.8301 8.46273 17.8301 8.23535C17.8303 8.00815 18.014 7.8244 18.2412 7.82422H18.999C18.7036 7.58911 18.3474 7.3965 17.9307 7.24707C17.4718 7.08256 16.9562 7.00002 16.3848 7ZM5.21484 7.12988C5.11974 7.12988 5.02885 7.16435 4.94238 7.2334C4.86444 7.29402 4.81615 7.37251 4.79883 7.46777L3.00684 15.8848C2.98952 15.98 3.00663 16.0626 3.05859 16.1318C3.11914 16.1923 3.19692 16.2226 3.29199 16.2227H5.34473C5.43995 16.2226 5.52658 16.1924 5.60449 16.1318C5.68243 16.0626 5.72975 15.98 5.74707 15.8848L6.31934 13.1963H9.91699C10.0122 13.1963 10.0989 13.166 10.1768 13.1055C10.2633 13.0362 10.3157 12.9536 10.333 12.8584L10.6836 11.2217C10.7009 11.1264 10.6838 11.0479 10.6318 10.9873C10.58 10.9182 10.5061 10.8839 10.4111 10.8838H6.8125L7.12402 9.45508H10.9824C11.0775 9.45503 11.1643 9.42071 11.2422 9.35156C11.3201 9.28228 11.3674 9.20379 11.3848 9.11719L11.749 7.46777C11.7663 7.37251 11.7442 7.29402 11.6836 7.2334C11.6317 7.1643 11.558 7.1299 11.4629 7.12988H5.21484Z" fill="white" fill-opacity="0.9"/>
</svg>
