<svg width="24" height="24" viewBox="0 0 24 24" fill="none" xmlns="http://www.w3.org/2000/svg">
<path fill-rule="evenodd" clip-rule="evenodd" d="M18.1116 7.5L18.1483 7.51686C18.1468 7.51059 18.1454 7.50496 18.1439 7.49999H19.2C20.1927 7.49999 21 8.30729 21 9.29999V11.1C21 12.0927 20.1927 12.9 19.2 12.9H17.4H12.9H11.1H6.6H4.8C3.8073 12.9 3 12.0927 3 11.1V11.1V9.29999C3 8.30729 3.8073 7.49999 4.8 7.49999H5.86367C5.86132 7.50745 5.859 7.51701 5.8567 7.52855L5.88777 7.5L5.88777 7.49999H5.86367C5.87069 7.47765 5.8779 7.47409 5.8853 7.49214C5.76977 7.12382 5.69967 6.68261 5.69967 6.15C5.69967 4.413 7.11267 3 8.84967 3C10.4418 3 11.466 4.413 12.0861 5.7765C12.7152 4.3338 13.6899 3 15.1497 3C16.8867 3 18.2997 4.413 18.2997 6.15C18.307 6.60701 18.2436 7.06241 18.1116 7.5ZM18.1439 7.49999C18.1337 7.46519 18.1231 7.46297 18.1119 7.49999H18.1439ZM16.4997 6.15C16.4997 5.4057 15.894 4.8 15.1497 4.8C14.4972 4.8 13.8294 6.0816 13.3695 7.5H15.5997C15.9363 7.5 16.4997 7.5 16.4997 6.15ZM8.84967 4.8C8.10537 4.8 7.49967 5.4057 7.49967 6.15C7.49967 7.5 8.06307 7.5 8.39967 7.5H10.8279C10.3923 6.1725 9.64887 4.8 8.84967 4.8ZM4.7998 14.5V19.2C4.7998 20.1927 5.6071 21 6.5998 21H11.0998V19.2V14.5H4.7998ZM17.3998 21C18.3925 21 19.1998 20.1927 19.1998 19.2V14.5H12.8998V19.2V21H17.3998Z" fill="white" fill-opacity="0.9"/>
</svg>
