<svg width="24" height="24" viewBox="0 0 24 24" fill="none" xmlns="http://www.w3.org/2000/svg">
<path d="M19.2 7.5H18.1119C18.2439 7.06241 18.3074 6.60701 18.3 6.15C18.3 4.413 16.887 3 15.15 3C13.6902 3 12.7155 4.3338 12.0864 5.7765C11.4663 4.413 10.4421 3 8.85 3C7.113 3 5.7 4.413 5.7 6.15C5.7 6.6864 5.7711 7.1301 5.8881 7.5H4.8C3.8073 7.5 3 8.3073 3 9.3V11.1C3 12.0927 3.8073 12.9 4.8 12.9V19.2C4.8 20.1927 5.6073 21 6.6 21H17.4C18.3927 21 19.2 20.1927 19.2 19.2V12.9C20.1927 12.9 21 12.0927 21 11.1V9.3C21 8.3073 20.1927 7.5 19.2 7.5ZM15.15 4.8C15.8943 4.8 16.5 5.4057 16.5 6.15C16.5 7.5 15.9366 7.5 15.6 7.5H13.3698C13.8297 6.0816 14.4975 4.8 15.15 4.8ZM7.5 6.15C7.5 5.4057 8.1057 4.8 8.85 4.8C9.6492 4.8 10.3926 6.1725 10.8282 7.5H8.4C8.0634 7.5 7.5 7.5 7.5 6.15ZM4.8 9.3H11.1V11.1H4.8V9.3ZM6.6 19.2V12.9H11.1V19.2H6.6ZM17.4 19.2H12.9V12.9H17.4V19.2ZM12.9 11.1V9.3765L12.9153 9.3H19.2L19.2009 11.1H12.9Z" fill="white" fill-opacity="0.9"/>
</svg>
