<svg width="24" height="24" viewBox="0 0 24 24" fill="none" xmlns="http://www.w3.org/2000/svg">
<path fill-rule="evenodd" clip-rule="evenodd" d="M2.17157 5.17157C1 6.34315 1 8.22876 1 12C1 15.7712 1 17.6569 2.17157 18.8284C3.34315 20 5.22876 20 9 20H15C18.7712 20 20.6569 20 21.8284 18.8284C23 17.6569 23 15.7712 23 12C23 8.22876 23 6.34315 21.8284 5.17157C20.6569 4 18.7712 4 15 4H9C5.22876 4 3.34315 4 2.17157 5.17157ZM13 9.25C12.5858 9.25 12.25 9.58579 12.25 10C12.25 10.4142 12.5858 10.75 13 10.75H20C20.4142 10.75 20.75 10.4142 20.75 10C20.75 9.58579 20.4142 9.25 20 9.25H13ZM12.25 14C12.25 13.5858 12.5858 13.25 13 13.25H17C17.4142 13.25 17.75 13.5858 17.75 14C17.75 14.4142 17.4142 14.75 17 14.75H13C12.5858 14.75 12.25 14.4142 12.25 14ZM7 12C8.105 12 9 11.105 9 10C9 8.895 8.105 8 7 8C5.895 8 5 8.895 5 10C5 11.105 5.895 12 7 12ZM7 13C5.665 13 3 13.67 3 15V15.5C3 15.775 3.225 16 3.5 16H10.5C10.775 16 11 15.775 11 15.5V15C11 13.67 8.335 13 7 13Z" fill="white" fill-opacity="0.9"/>
</svg>
