<svg width="24" height="24" viewBox="0 0 24 24" fill="none" xmlns="http://www.w3.org/2000/svg">
<path d="M7.96645 21.1362C7.57805 20.8871 7.23381 20.5793 6.94698 20.2246C6.63146 19.8586 6.33913 19.4745 6.07157 19.0745C5.44368 18.1877 4.95128 17.2186 4.60947 16.1967C4.19885 15.0098 4 13.8721 4 12.7593C4 11.5166 4.27888 10.4318 4.82432 9.52018C5.22864 8.80768 5.82311 8.21227 6.54621 7.79555C7.24698 7.37595 8.05217 7.14632 8.87695 7.13086C9.16568 7.13086 9.47657 7.17122 9.80654 7.24837C10.0436 7.31306 10.3323 7.41513 10.685 7.54214C11.1338 7.7089 11.3807 7.81098 11.4644 7.83591C11.7273 7.92849 11.9483 7.96884 12.1219 7.96884C12.2536 7.96884 12.4396 7.92849 12.6507 7.86677C12.7695 7.82641 12.9936 7.75519 13.3144 7.62285C13.632 7.51128 13.882 7.41573 14.0808 7.34451C14.3855 7.25786 14.6804 7.17774 14.9433 7.13739C15.2549 7.09003 15.5712 7.07748 15.8858 7.1C16.431 7.13435 16.968 7.24573 17.4796 7.43056C18.3163 7.75519 18.9928 8.26202 19.4964 8.98249C19.2836 9.10896 19.0838 9.25483 18.8999 9.4181C18.4995 9.76028 18.1584 10.162 17.8896 10.608C17.5383 11.2175 17.3562 11.9042 17.3608 12.6015C17.3738 13.4579 17.6015 14.2122 18.0503 14.8644C18.3803 15.3478 18.8091 15.7612 19.3105 16.0792C19.5672 16.246 19.7882 16.3605 20 16.4377C19.9009 16.7344 19.795 17.0217 19.67 17.3065C19.3866 17.9453 19.0431 18.5578 18.6438 19.1362C18.288 19.6341 18.0091 20.005 17.7973 20.2519C17.4673 20.6288 17.1497 20.9166 16.8289 21.1172C16.4762 21.3427 16.0594 21.4632 15.6359 21.4632C15.349 21.4738 15.0622 21.4404 14.7863 21.3641C14.5493 21.2869 14.3147 21.2033 14.0839 21.1077C13.8439 21.0014 13.5964 20.9116 13.3433 20.8389C12.7176 20.684 12.0616 20.6829 11.4355 20.8359C11.1788 20.9071 10.9319 20.9902 10.6881 21.0923C10.3452 21.2312 10.1174 21.3243 9.98569 21.3641C9.72282 21.4383 9.4501 21.4846 9.1743 21.5C8.74767 21.5 8.34998 21.3825 7.95598 21.1445L7.96645 21.1362ZM13.5932 6.52789C13.0355 6.79674 12.503 6.91128 11.9741 6.87389C11.891 6.36053 11.9741 5.83531 12.1952 5.26024C12.3833 4.77304 12.6613 4.32266 13.0158 3.93086C13.3901 3.51841 13.8443 3.18034 14.3529 2.93561C14.8947 2.66677 15.4112 2.52136 15.9049 2.5C15.9689 3.03769 15.9049 3.56647 15.6999 4.13798C15.5102 4.6432 15.2327 5.11361 14.8793 5.52908C14.5185 5.94209 14.0759 6.28148 13.5772 6.5273L13.5932 6.52789Z" fill="url(#paint0_linear_87_274)"/>
<defs>
<linearGradient id="paint0_linear_87_274" x1="2" y1="2.50019" x2="17.3944" y2="22.8433" gradientUnits="userSpaceOnUse">
<stop stop-color="white" stop-opacity="0.75"/>
<stop offset="1" stop-color="white" stop-opacity="0.35"/>
</linearGradient>
</defs>
</svg>
