<svg width="24" height="24" viewBox="0 0 24 24" fill="none" xmlns="http://www.w3.org/2000/svg">
<path fill-rule="evenodd" clip-rule="evenodd" d="M10.2407 1.16667C6.7697 1.90642 4.16441 4.35065 3.25353 7.72192C3.04845 8.48093 3.04385 8.61935 3.01353 14.9103C2.98425 20.9786 2.99158 19.7452 3.15039 19.8793C3.49869 20.1736 8.36247 23 8.52052 23C8.61147 23 8.75582 22.9241 8.84123 22.8313C8.98221 22.6784 8.99657 22.1455 8.99657 18.1544C8.99657 11.8391 9.06338 12.8591 8.21463 12.7509C7.62286 12.6755 7.15771 12.4525 6.74408 12.0461C6.29018 11.6002 6.07206 11.1125 6.01518 10.4164L5.9675 9.83298L7.64633 9.83335C9.14476 9.83362 9.97067 9.85299 10.2384 10.0134C10.4422 10.1354 10.5689 10.3052 10.6338 10.5432C10.6862 10.7359 10.7948 11.3815 10.8751 12.7509C11.0908 15.3578 11.1223 15.6873 11.2727 15.8351C11.4657 16.0248 12.5344 16.0248 12.7275 15.8351C12.8779 15.6873 12.9094 15.3578 13.1251 12.7509C13.2053 11.3815 13.3139 10.7359 13.3664 10.5432C13.4312 10.3052 13.558 10.1354 13.7617 10.0134C14.0295 9.85299 14.8554 9.83362 16.3538 9.83335L18.0327 9.83298L17.985 10.4164C17.881 11.6893 17.0303 12.5922 15.7855 12.7509C14.9367 12.8591 15.0034 11.837 15.0034 18.1704C15.0034 23.4752 15.0123 22.7027 15.1751 22.8474C15.2695 22.9313 15.4138 23 15.4957 23C15.6425 23 20.523 20.1553 20.8496 19.8793C21.0084 19.7452 21.0159 20.9786 20.9866 14.9103C20.9513 7.57234 20.9761 7.81542 20.0777 6.00608C19.1055 4.04828 17.7459 2.73847 15.7154 1.8036C14.0729 1.04735 11.9561 0.801044 10.2407 1.16667Z" fill="white" fill-opacity="0.9"/>
</svg>
