<svg width="24" height="24" viewBox="0 0 24 24" fill="none" xmlns="http://www.w3.org/2000/svg">
<g filter="url(#filter0_i_167_532)">
<path d="M9.03622 0.937401L17.7268 2.08154L23.063 9.03578L21.9189 17.7264L14.9646 23.0626L6.27401 21.9184L0.937844 14.9642L2.08199 6.27357L9.03622 0.937401Z" fill="url(#paint0_linear_167_532)"/>
</g>
<g filter="url(#filter1_d_167_532)">
<path d="M16.9998 14.711L15.8637 17H9.56189C9.46721 16.9884 9.3962 16.9827 9.34887 16.9827C9.05301 16.948 8.81632 16.8382 8.63881 16.6532C8.5678 16.5723 8.51455 16.5029 8.47905 16.4451C8.3252 16.2486 8.1891 16.052 8.07076 15.8555C8.02342 15.763 7.99976 15.659 7.99976 15.5434C7.99976 15.4509 8.02342 15.3353 8.07076 15.1965C8.0826 15.1618 8.10035 15.1156 8.12402 15.0578L12.8992 10.1676C12.9465 10.1098 12.982 10.0694 13.0057 10.0462C13.0767 9.95376 13.1122 9.86705 13.1122 9.78613C13.1122 9.7052 13.0708 9.62428 12.9879 9.54335C12.9169 9.46243 12.7927 9.39306 12.6151 9.33526L8.92283 7.44509L10.2364 5L15.6861 8.17341C15.7927 8.36994 15.8637 8.54913 15.8992 8.71098C15.9465 8.86127 15.9702 9.03468 15.9702 9.23121C15.9702 9.68208 15.84 10.104 15.5796 10.4971C15.5441 10.5549 15.485 10.6301 15.4021 10.7225L11.8341 14.711H16.9998Z" fill="white"/>
</g>
<defs>
<filter id="filter0_i_167_532" x="0.937744" y="0.937378" width="22.1252" height="22.1252" filterUnits="userSpaceOnUse" color-interpolation-filters="sRGB">
<feFlood flood-opacity="0" result="BackgroundImageFix"/>
<feBlend mode="normal" in="SourceGraphic" in2="BackgroundImageFix" result="shape"/>
<feColorMatrix in="SourceAlpha" type="matrix" values="0 0 0 0 0 0 0 0 0 0 0 0 0 0 0 0 0 0 127 0" result="hardAlpha"/>
<feOffset dy="-1"/>
<feComposite in2="hardAlpha" operator="arithmetic" k2="-1" k3="1"/>
<feColorMatrix type="matrix" values="0 0 0 0 0 0 0 0 0 0 0 0 0 0 0 0 0 0 0.24 0"/>
<feBlend mode="normal" in2="shape" result="effect1_innerShadow_167_532"/>
</filter>
<filter id="filter1_d_167_532" x="7.99976" y="5" width="9" height="12.5" filterUnits="userSpaceOnUse" color-interpolation-filters="sRGB">
<feFlood flood-opacity="0" result="BackgroundImageFix"/>
<feColorMatrix in="SourceAlpha" type="matrix" values="0 0 0 0 0 0 0 0 0 0 0 0 0 0 0 0 0 0 127 0" result="hardAlpha"/>
<feOffset dy="0.5"/>
<feComposite in2="hardAlpha" operator="out"/>
<feColorMatrix type="matrix" values="0 0 0 0 0 0 0 0 0 0 0 0 0 0 0 0 0 0 0.24 0"/>
<feBlend mode="normal" in2="BackgroundImageFix" result="effect1_dropShadow_167_532"/>
<feBlend mode="normal" in="SourceGraphic" in2="effect1_dropShadow_167_532" result="shape"/>
</filter>
<linearGradient id="paint0_linear_167_532" x1="9.03622" y1="0.937401" x2="14.9646" y2="23.0626" gradientUnits="userSpaceOnUse">
<stop stop-color="#D8A177"/>
<stop offset="1" stop-color="#A6724B"/>
</linearGradient>
</defs>
</svg>
