<svg width="24" height="24" viewBox="0 0 24 24" fill="none" xmlns="http://www.w3.org/2000/svg">
<path d="M8.97461 5.04688C9.33699 4.97838 9.7097 4.98474 10.0693 5.06641C10.4289 5.14811 10.7682 5.30319 11.0654 5.52148C11.3503 5.70666 11.6675 5.83817 12 5.9082C12.3324 5.83816 12.6487 5.70661 12.9336 5.52148C13.2308 5.30324 13.5701 5.14913 13.9297 5.06738C14.2893 4.98569 14.6621 4.97854 15.0244 5.04688C15.3656 5.20898 15.6708 5.43869 15.9199 5.72266C16.169 6.00663 16.3574 6.33884 16.4736 6.69824C16.5897 6.99834 16.7569 7.27647 16.9678 7.51953C17.2678 7.65026 17.5884 7.72703 17.915 7.74707C18.2895 7.74404 18.6615 7.81867 19.0059 7.96582C19.3501 8.11296 19.6604 8.32993 19.917 8.60254C20.0969 8.9289 20.2069 9.28905 20.2412 9.66016C20.2755 10.0314 20.2334 10.4059 20.1162 10.7598C20.0329 11.082 20.007 11.4168 20.04 11.748C20.2038 12.0164 20.4122 12.255 20.6562 12.4531C20.9655 12.6766 21.226 12.9611 21.4209 13.2891C21.6158 13.617 21.7406 13.9819 21.7891 14.3604C21.7408 14.7381 21.6161 15.1021 21.4219 15.4297C21.2275 15.7574 20.9677 16.042 20.6592 16.2656C20.4148 16.4642 20.2064 16.7035 20.043 16.9727C20.0097 17.3038 20.0355 17.6388 20.1191 17.9609C20.236 18.3146 20.2784 18.6886 20.2441 19.0596C20.2099 19.4306 20.0996 19.7908 19.9199 20.1172C19.6634 20.391 19.3526 20.6089 19.0078 20.7568C18.663 20.9048 18.2912 20.9803 17.916 20.9775C17.5897 20.996 17.269 21.071 16.9688 21.2002C16.7564 21.4424 16.5876 21.7203 16.4707 22.0205C16.3571 22.3814 16.1692 22.7154 15.9199 23C15.6707 23.2844 15.365 23.5137 15.0225 23.6738C14.8634 23.725 14.6973 23.7509 14.5303 23.75C13.9613 23.6986 13.4129 23.5092 12.9336 23.1982C12.6488 23.0132 12.3323 22.8825 12 22.8125C11.6673 22.8832 11.3502 23.0142 11.0654 23.2002C10.7683 23.4189 10.4291 23.5745 10.0693 23.6562C9.70967 23.7379 9.33694 23.7446 8.97461 23.6758C8.63315 23.5134 8.32823 23.2825 8.0791 22.998C7.83009 22.7137 7.64232 22.3812 7.52637 22.0215C7.4103 21.7214 7.24306 21.4433 7.03223 21.2002C6.73205 21.0694 6.41083 20.9927 6.08398 20.9727C5.70961 20.9758 5.33847 20.9019 4.99414 20.7549C4.64977 20.6079 4.33974 20.3907 4.08301 20.1182C3.90299 19.7917 3.79208 19.4317 3.75781 19.0605C3.72355 18.6894 3.76656 18.3148 3.88379 17.9609C3.9671 17.6387 3.99305 17.3038 3.95996 16.9727C3.79648 16.7038 3.58712 16.4649 3.34277 16.2666C3.03371 16.0432 2.77392 15.7585 2.5791 15.4307C2.38429 15.1028 2.25841 14.7386 2.20996 14.3604C2.25842 13.9826 2.38375 13.6185 2.57812 13.291C2.77245 12.9637 3.0316 12.6794 3.33984 12.4561C3.58408 12.2576 3.79332 12.0188 3.95703 11.75C3.99039 11.4187 3.96449 11.084 3.88086 10.7617C3.76386 10.4078 3.72062 10.0333 3.75488 9.66211C3.78918 9.29106 3.90032 8.9309 4.08008 8.60449C4.33677 8.33121 4.64749 8.1143 4.99219 7.9668C5.33686 7.81933 5.70812 7.74406 6.08301 7.74707C6.40986 7.72716 6.7311 7.65046 7.03125 7.51953C7.24411 7.27768 7.41284 7.00022 7.53027 6.7002C7.64345 6.33969 7.83051 6.00625 8.0791 5.72168C8.32766 5.43717 8.63263 5.20744 8.97461 5.04688ZM12.9512 11.3018C12.6518 10.3807 11.3484 10.3808 11.0488 11.3018L10.877 11.8301C10.743 12.242 10.3589 12.5205 9.92578 12.5205H9.37109C8.40237 12.5205 7.99949 13.7607 8.7832 14.3301L9.23242 14.6562C9.58282 14.9109 9.72956 15.3624 9.5957 15.7744L9.42383 16.3018C9.12448 17.2231 10.1792 17.9893 10.9629 17.4199L11.4121 17.0938C11.7626 16.8392 12.2375 16.8391 12.5879 17.0938L13.0361 17.4199C13.8198 17.9893 14.8745 17.2231 14.5752 16.3018L14.4043 15.7744C14.2704 15.3624 14.4171 14.9109 14.7676 14.6562L15.2158 14.3301C15.9995 13.7607 15.5967 12.5205 14.6279 12.5205H14.0732C13.6401 12.5205 13.256 12.242 13.1221 11.8301L12.9512 11.3018Z" fill="white" fill-opacity="0.9"/>
<path d="M8.50195 3.00293C8.32795 3.00934 8.15435 3.02779 7.98242 3.05762C7.52825 3.25345 7.12307 3.53384 6.79297 3.88086C6.46299 4.2278 6.21473 4.63375 6.06445 5.07324C5.90851 5.4392 5.68409 5.77824 5.40137 6.07324C5.24518 6.1358 5.08343 6.18451 4.91992 6.22656L1 1H7L8.50195 3.00293ZM19.0791 6.22656C18.9152 6.1845 18.7533 6.1359 18.5967 6.07324C18.3168 5.77695 18.0946 5.43708 17.9404 5.07129C17.7861 4.63331 17.5356 4.22797 17.2051 3.88184C16.8744 3.53576 16.4694 3.25526 16.0166 3.05762C15.8448 3.02786 15.6709 3.00936 15.4971 3.00293L17 1H23L19.0791 6.22656Z" fill="white" fill-opacity="0.9"/>
</svg>
