<svg width="24" height="24" viewBox="0 0 24 24" fill="none" xmlns="http://www.w3.org/2000/svg">
<path d="M21.78 7.12799C22.332 9.07199 22.236 10.992 21.756 12.504C21.252 14.04 20.244 15.12 18.996 15.48C18.804 15.552 18.684 15.552 18.516 15.552C18.444 15.576 18.372 15.576 18.3 15.576C18.228 15.6 18.132 15.6 18.036 15.6H9.87599L12.54 22.2C12.564 22.368 12.468 22.512 12.372 22.608C12.276 22.728 12.084 22.8 11.964 22.8H8.33999C8.21999 22.8 8.02799 22.728 7.93199 22.608C7.83599 22.512 7.73999 22.368 7.76399 22.2L6.56399 15.6H5.09999L5.07599 15.576C4.47599 15.648 3.77999 15.36 3.22799 14.832C2.67599 14.304 2.17199 13.536 1.95599 12.576C1.66799 11.616 1.71599 10.704 1.93199 9.93599C2.14799 9.19199 2.62799 8.63999 3.20399 8.37599L3.22799 8.35199L14.028 1.87199C14.148 1.79999 14.244 1.75199 14.316 1.67999C14.388 1.63199 14.484 1.58399 14.604 1.53599C14.796 1.43999 14.94 1.39199 15.204 1.31999C16.452 0.959991 17.892 1.43999 19.068 2.49599C20.244 3.55199 21.276 5.18399 21.78 7.12799ZM18.684 14.304H18.66C19.14 14.184 19.548 13.896 19.908 13.464C20.604 12.624 20.94 11.352 20.94 9.81599C20.94 9.04799 20.82 8.25599 20.604 7.43999C20.196 5.80799 19.38 4.43999 18.468 3.55199C17.556 2.66399 16.452 2.23199 15.516 2.49599C14.532 2.75999 13.836 3.64799 13.476 4.89599C13.092 6.14399 13.14 7.72799 13.548 9.35999C14.004 10.992 14.748 12.36 15.708 13.248C16.644 14.136 17.652 14.568 18.684 14.304ZM15.636 5.80799C15.9 5.75999 16.14 5.78399 16.38 5.85599C16.836 6.04799 17.292 6.43199 17.604 7.05599C17.916 7.67999 18.108 8.49599 18.108 9.19199C18.108 9.55199 18.06 9.86399 17.964 10.152C17.748 10.728 17.436 11.16 16.932 11.28C16.524 11.4 15.972 11.208 15.564 10.8C15.156 10.392 14.796 9.76799 14.628 8.99999C14.412 8.25599 14.484 7.51199 14.652 6.93599C14.82 6.35999 15.228 5.92799 15.636 5.80799Z" fill="white" fill-opacity="0.9"/>
</svg>
