<svg width="24" height="24" viewBox="0 0 24 24" fill="none" xmlns="http://www.w3.org/2000/svg">
<path d="M4.2002 2.90005C4.2002 1.46411 5.36425 0.300049 6.8002 0.300049H17.2002C18.6361 0.300049 19.8002 1.46411 19.8002 2.90005V21.1C19.8002 22.536 18.6361 23.7001 17.2002 23.7001H6.8002C5.36426 23.7001 4.2002 22.536 4.2002 21.1V2.90005ZM18 3.00005C18 2.44776 17.5523 2.00005 17 2.00005H7C6.44772 2.00005 6 2.44776 6 3.00005V21C6 21.5523 6.44772 22 7 22H17C17.5523 22 18 21.5523 18 21V3.00005Z" fill="white" fill-opacity="0.9"/>
<path d="M13.3002 18.55C13.3002 19.268 12.7182 19.85 12.0002 19.85C11.2822 19.85 10.7002 19.268 10.7002 18.55C10.7002 17.8321 11.2822 17.25 12.0002 17.25C12.7182 17.25 13.3002 17.8321 13.3002 18.55Z" fill="white" fill-opacity="0.9"/>
</svg>
