<svg width="24" height="24" viewBox="0 0 24 24" fill="none" xmlns="http://www.w3.org/2000/svg">
<path fill-rule="evenodd" clip-rule="evenodd" d="M8.186 3.02564C8.04427 3.04539 7.56109 3.10325 7.11227 3.15424C4.6512 3.43367 2.59848 4.20715 1.67645 5.20245C0.783021 6.16693 0.787315 7.08626 1.68994 8.06061C2.53526 8.97307 4.41523 9.70929 6.77967 10.0538C8.04461 10.2381 8.46105 10.231 8.52685 10.0237C8.73618 9.3647 10.0825 7.80968 11.0334 7.12866C11.739 6.6232 13.0017 6.03687 13.8982 5.79822C14.8487 5.54523 16.8994 5.51888 17.7331 5.74894C18.6252 5.99507 18.6483 5.9457 17.9796 5.22391C17.0798 4.25256 15.32 3.55223 12.8563 3.18506C12.0149 3.05973 8.74374 2.94804 8.186 3.02564ZM14.6284 6.96616C13.2116 7.22962 11.9827 7.88437 10.927 8.9383C8.13549 11.7251 8.13618 16.1156 10.9287 18.9063C13.7219 21.6979 18.1118 21.6979 20.9051 18.9063C23.6983 16.1148 23.6983 11.7275 20.9051 8.93599C19.2319 7.26379 16.9236 6.53942 14.6284 6.96616ZM1.02826 10.8818C1.05601 12.5198 1.06039 12.5543 1.29205 12.9482C1.75659 13.7381 2.85008 14.4183 4.441 14.9074C5.25712 15.1583 7.01572 15.5093 7.45664 15.5093H7.68513L7.60653 14.9728C7.50594 14.2857 7.58746 12.6858 7.75428 12.0755C7.82523 11.8158 7.88381 11.5791 7.88433 11.5495C7.88493 11.52 7.50852 11.4498 7.04785 11.3936C4.65343 11.1017 2.29569 10.3056 1.26921 9.44231L1 9.21593L1.02826 10.8818ZM16.3502 9.62499C16.4818 9.75642 16.5611 9.93395 16.5611 10.0971V10.3585H17.1925C17.9594 10.3585 18.3096 10.4695 18.439 10.7532C18.5752 11.0517 18.5625 11.1611 18.363 11.4146C18.1893 11.6352 18.1878 11.6355 16.6378 11.6623L15.0863 11.6892H15C14.5 12 14.5745 12.3191 14.6162 12.5808C14.6451 12.7628 14.7574 12.9708 14.888 13.0842C15.0838 13.2542 15.2047 13.2774 15.9002 13.2778C16.8558 13.2783 17.2172 13.37 17.6924 13.7322C18.6493 14.4616 18.7515 15.8992 17.9096 16.786C17.6093 17.1024 17.0588 17.393 16.7544 17.396C16.5906 17.3977 16.5611 17.4445 16.5611 17.7023C16.5611 18.0717 16.2447 18.4281 15.9169 18.4281C15.6097 18.4281 15.2726 18.0709 15.2726 17.7452V17.4838H14.6412C13.8744 17.4838 13.5241 17.3729 13.3947 17.0891C13.2587 16.7909 13.2712 16.6812 13.4695 16.4292C13.6416 16.2107 13.6471 16.2099 15.1947 16.1816L16.7473 16.1532L17.0071 15.8624C17.2264 15.617 17.2592 15.5232 17.2175 15.2615C17.1886 15.0795 17.0763 14.8715 16.9458 14.7582C16.7499 14.5881 16.629 14.5649 15.9335 14.5645C14.9779 14.564 14.6165 14.4723 14.1413 14.1101C13.1844 13.3807 13.0822 11.9431 13.9241 11.0563C14.2244 10.74 14.7749 10.4493 15.0793 10.4463C15.2431 10.4446 15.2726 10.3979 15.2726 10.1401C15.2726 9.77058 15.589 9.41423 15.9169 9.41423C16.0393 9.41423 16.2343 9.5091 16.3502 9.62499ZM1.01349 16.1186C1.01349 17.0228 1.0536 17.7266 1.11734 17.9389C1.26809 18.4419 2.01111 19.2029 2.70878 19.5688C4.45655 20.4857 6.39631 20.8908 9.453 20.9774C11.2908 21.0294 11.4618 20.9998 11.0147 20.7071C10.5943 20.4317 9.49432 19.3278 9.12917 18.8147C8.85532 18.4301 8.24063 17.2964 8.09298 16.9038C8.08842 16.8917 7.64364 16.826 7.10454 16.7579C4.67413 16.4505 2.80421 15.862 1.55035 15.0094L1.01349 14.6444V16.1186Z" fill="white" fill-opacity="0.9"/>
</svg>
