<svg width="24" height="24" viewBox="0 0 24 24" fill="none" xmlns="http://www.w3.org/2000/svg">
<g clip-path="url(#clip0_4_3805)">
<path d="M8.16864 2.06384C8.80417 1.61884 9.57617 1.41198 10.3491 1.4796L15.4518 1.92603C16.2247 1.99365 16.949 2.33142 17.4976 2.88002L21.1196 6.50199C21.6682 7.05059 22.006 7.77494 22.0736 8.54783L22.52 13.6506C22.5877 14.4235 22.3808 15.1955 21.9358 15.831L18.9978 20.0269C18.5528 20.6624 17.8981 21.1208 17.1487 21.3216L12.201 22.6474C11.4516 22.8482 10.6554 22.7785 9.95226 22.4506L5.30993 20.2859C4.60678 19.958 4.04164 19.3929 3.71376 18.6897L1.549 14.0474C1.22112 13.3442 1.15146 12.548 1.35226 11.7986L2.678 6.85093C2.8788 6.10153 3.33722 5.44684 3.97275 5.00183L8.16864 2.06384Z" fill="#E9D33F"/>
<path fill-rule="evenodd" clip-rule="evenodd" d="M15.7306 3.94312L9.8302 3.4269C9.63697 3.41 9.44397 3.46171 9.28509 3.57296L4.43328 6.97024C4.27439 7.08149 4.15979 7.24516 4.10959 7.43252L2.57661 13.1537C2.52641 13.341 2.54382 13.5401 2.6258 13.7159L5.12895 19.0839C5.21092 19.2597 5.35221 19.401 5.528 19.4829L10.896 21.9861C11.0718 22.0681 11.2709 22.0855 11.4582 22.0353L17.1794 20.5023C17.3667 20.4521 17.5304 20.3375 17.6416 20.1786L21.0389 15.3268C21.1502 15.1679 21.2019 14.9749 21.185 14.7817L20.6688 8.88125C20.6519 8.68803 20.5674 8.50695 20.4303 8.3698L16.2421 4.18162C16.1049 4.04447 15.9239 3.96003 15.7306 3.94312ZM9.95004 2.05713C9.43478 2.01205 8.92011 2.14996 8.49642 2.44663L3.64461 5.84391C3.22092 6.14057 2.91531 6.57704 2.78144 7.07664L1.24846 12.7978C1.11459 13.2974 1.16103 13.8282 1.37962 14.297L3.88278 19.665C4.10137 20.1338 4.47813 20.5105 4.9469 20.7291L10.3149 23.2323C10.7837 23.4509 11.3145 23.4973 11.8141 23.3634L17.5352 21.8304C18.0349 21.6966 18.4713 21.391 18.768 20.9673L22.1653 16.1155C22.4619 15.6918 22.5998 15.1771 22.5547 14.6619L22.0385 8.76142C21.9935 8.24616 21.7683 7.76326 21.4025 7.39752L17.2144 3.20935C16.8486 2.84361 16.3657 2.61843 15.8505 2.57335L9.95004 2.05713Z" fill="#8D641B"/>
<path fill-rule="evenodd" clip-rule="evenodd" d="M15.7306 3.33057L9.8302 2.81435C9.63697 2.79745 9.44397 2.84916 9.28509 2.96041L4.43328 6.35769C4.27439 6.46894 4.15979 6.63262 4.10959 6.81997L2.57661 12.5411C2.52641 12.7285 2.54382 12.9275 2.6258 13.1033L5.12895 18.4713C5.21092 18.6471 5.35221 18.7884 5.528 18.8704L10.896 21.3735C11.0718 21.4555 11.2709 21.4729 11.4582 21.4227L17.1794 19.8898C17.3667 19.8396 17.5304 19.7249 17.6416 19.5661L21.0389 14.7142C21.1502 14.5554 21.2019 14.3624 21.185 14.1691L20.6688 8.26871C20.6519 8.07548 20.5674 7.8944 20.4303 7.75725L16.2421 3.56907C16.1049 3.43192 15.9239 3.34748 15.7306 3.33057ZM9.95004 1.44459C9.43478 1.39951 8.92011 1.53741 8.49642 1.83408L3.64461 5.23136C3.22092 5.52803 2.91531 5.96449 2.78144 6.46409L1.24846 12.1852C1.11459 12.6848 1.16103 13.2156 1.37962 13.6844L3.88278 19.0524C4.10137 19.5212 4.47813 19.898 4.9469 20.1166L10.3149 22.6197C10.7837 22.8383 11.3145 22.8847 11.8141 22.7509L17.5352 21.2179C18.0349 21.084 18.4713 20.7784 18.768 20.3547L22.1653 15.5029C22.4619 15.0792 22.5998 14.5646 22.5547 14.0493L22.0385 8.14887C21.9935 7.63361 21.7683 7.15071 21.4025 6.78498L17.2144 2.5968C16.8486 2.23107 16.3657 2.00589 15.8505 1.96081L9.95004 1.44459Z" fill="#CF9327"/>
<path fill-rule="evenodd" clip-rule="evenodd" d="M10.9738 5.59723C8.94899 6.02874 7.42924 7.45455 6.89789 9.42112C6.77826 9.86388 6.77558 9.94462 6.75789 13.6143C6.74081 17.1542 6.74509 16.4347 6.83773 16.5129C7.0409 16.6846 9.87811 18.3333 9.97031 18.3333C10.0234 18.3333 10.1076 18.2891 10.1574 18.2349C10.2396 18.1457 10.248 17.8349 10.248 15.5067C10.248 11.8228 10.287 12.4178 9.79187 12.3547C9.44667 12.3107 9.17533 12.1806 8.93405 11.9436C8.66927 11.6834 8.54203 11.3989 8.50886 10.9929L8.48104 10.6526L9.46036 10.6528C10.3344 10.6529 10.8162 10.6642 10.9724 10.7578C11.0913 10.829 11.1652 10.928 11.203 11.0669C11.2336 11.1792 11.297 11.5559 11.3438 12.3547C11.4696 13.8754 11.488 14.0676 11.5757 14.1538C11.6883 14.2645 12.3118 14.2645 12.4244 14.1538C12.5121 14.0676 12.5305 13.8754 12.6563 12.3547C12.7031 11.5559 12.7665 11.1792 12.7971 11.0669C12.8349 10.928 12.9088 10.829 13.0277 10.7578C13.1839 10.6642 13.6657 10.6529 14.5397 10.6528L15.5191 10.6526L15.4912 10.9929C15.4306 11.7354 14.9343 12.2621 14.2082 12.3547C13.7131 12.4178 13.752 11.8216 13.752 15.5161C13.752 18.6105 13.7572 18.1599 13.8521 18.2443C13.9072 18.2933 13.9914 18.3333 14.0392 18.3333C14.1248 18.3333 16.9717 16.6739 17.1623 16.5129C17.2549 16.4347 17.2593 17.1542 17.2422 13.6143C17.2216 9.33387 17.2361 9.47566 16.712 8.42022C16.1449 7.27816 15.3518 6.51411 14.1673 5.96877C13.2092 5.52762 11.9744 5.38394 10.9738 5.59723Z" fill="#8D641B"/>
<path fill-rule="evenodd" clip-rule="evenodd" d="M10.9737 5.09723C8.94895 5.52874 7.4292 6.95455 6.89785 8.92112C6.77822 9.36388 6.77554 9.44462 6.75785 13.1143C6.74077 16.6542 6.74505 15.9347 6.83769 16.0129C7.04086 16.1846 9.87807 17.8333 9.97027 17.8333C10.0233 17.8333 10.1075 17.7891 10.1573 17.7349C10.2396 17.6457 10.248 17.3349 10.248 15.0067C10.248 11.3228 10.2869 11.9178 9.79183 11.8547C9.44663 11.8107 9.17529 11.6806 8.93401 11.4436C8.66923 11.1834 8.542 10.8989 8.50882 10.4929L8.481 10.1526L9.46032 10.1528C10.3344 10.1529 10.8162 10.1642 10.9724 10.2578C11.0913 10.329 11.1652 10.428 11.203 10.5669C11.2336 10.6792 11.2969 11.0559 11.3438 11.8547C11.4696 13.3754 11.488 13.5676 11.5757 13.6538C11.6883 13.7645 12.3117 13.7645 12.4243 13.6538C12.512 13.5676 12.5304 13.3754 12.6563 11.8547C12.7031 11.0559 12.7664 10.6792 12.797 10.5669C12.8349 10.428 12.9088 10.329 13.0276 10.2578C13.1838 10.1642 13.6656 10.1529 14.5397 10.1528L15.519 10.1526L15.4912 10.4929C15.4305 11.2354 14.9343 11.7621 14.2082 11.8547C13.713 11.9178 13.752 11.3216 13.752 15.0161C13.752 18.1105 13.7572 17.6599 13.8521 17.7443C13.9072 17.7933 13.9913 17.8333 14.0391 17.8333C14.1248 17.8333 16.9717 16.1739 17.1622 16.0129C17.2549 15.9347 17.2592 16.6542 17.2422 13.1143C17.2216 8.83387 17.236 8.97566 16.712 7.92022C16.1449 6.77816 15.3518 6.01411 14.1673 5.46877C13.2092 5.02762 11.9743 4.88394 10.9737 5.09723Z" fill="#CF9327"/>
</g>
<defs>
<clipPath id="clip0_4_3805">
<rect width="24" height="24" fill="white"/>
</clipPath>
</defs>
</svg>
