<svg width="24" height="24" viewBox="0 0 24 24" fill="none" xmlns="http://www.w3.org/2000/svg">
<path d="M3 9C3 8.44772 3.44772 8 4 8H7V20H4C3.44772 20 3 19.5523 3 19V9Z" fill="white" fill-opacity="0.9"/>
<path d="M17 10H20C20.5523 10 21 10.4477 21 11V19C21 19.5523 20.5523 20 20 20H17V10Z" fill="white" fill-opacity="0.9"/>
<path fill-rule="evenodd" clip-rule="evenodd" d="M10 4C9.44772 4 9 4.44772 9 5V20H15V5C15 4.44772 14.5523 4 14 4H10ZM12.8883 9.75H11.1117C10.7739 9.75 10.5 9.47017 10.5 9.125C10.5 8.77983 10.7739 8.5 11.1117 8.5H11.4612V7.25H11.3155C10.9777 7.25 10.7039 6.97017 10.7039 6.625C10.7039 6.27983 10.9777 6 11.3155 6H12.0728C12.4106 6 12.6845 6.27983 12.6845 6.625V8.5H12.8883C13.2261 8.5 13.5 8.77983 13.5 9.125C13.5 9.47017 13.2261 9.75 12.8883 9.75Z" fill="white" fill-opacity="0.9"/>
</svg>
