<svg width="24" height="24" viewBox="0 0 24 24" fill="none" xmlns="http://www.w3.org/2000/svg">
<path d="M2 17C2.55228 17 3 17.4477 3 18V21H6C6.55228 21 7 21.4477 7 22C7 22.5523 6.55228 23 6 23H3C1.89543 23 1 22.1046 1 21V18C1 17.4477 1.44772 17 2 17ZM22 17C22.5523 17 23 17.4477 23 18V21C23 22.1046 22.1046 23 21 23H18C17.4477 23 17 22.5523 17 22C17 21.4477 17.4477 21 18 21H21V18C21 17.4477 21.4477 17 22 17ZM9 13C10.1046 13 11 13.8954 11 15V17C11 18.1046 10.1046 19 9 19H7C5.89543 19 5 18.1046 5 17V15C5 13.8954 5.89543 13 7 13H9ZM14 16C14.5523 16 15 16.4477 15 17V17.5C15 18.0523 14.5523 18.5 14 18.5C13.4477 18.5 13 18.0523 13 17.5V17C13 16.4477 13.4477 16 14 16ZM16.5 15C17.6046 15 18.5 15.8954 18.5 17V17.5C18.5 18.0523 18.0523 18.5 17.5 18.5C16.9477 18.5 16.5 18.0523 16.5 17.5V17C15.9477 17 15.5 16.5523 15.5 16C15.5 15.4477 15.9477 15 16.5 15ZM7 17H9V15H7V17ZM14 13C14.5523 13 15 13.4477 15 14V14.5C15 15.0523 14.5523 15.5 14 15.5C13.4477 15.5 13 15.0523 13 14.5V14C13 13.4477 13.4477 13 14 13ZM9 5C10.1046 5 11 5.89543 11 7V9C11 10.1046 10.1046 11 9 11H7C5.89543 11 5 10.1046 5 9V7C5 5.89543 5.89543 5 7 5H9ZM17 5C18.1046 5 19 5.89543 19 7V9C19 10.1046 18.1046 11 17 11H15C13.8954 11 13 10.1046 13 9V7C13 5.89543 13.8954 5 15 5H17ZM7 9H9V7H7V9ZM15 9H17V7H15V9ZM6 1C6.55228 1 7 1.44772 7 2C7 2.55228 6.55228 3 6 3H3V6C3 6.55228 2.55228 7 2 7C1.44772 7 1 6.55228 1 6V3C1 1.89543 1.89543 1 3 1H6ZM21 1C22.1046 1 23 1.89543 23 3V6C23 6.55228 22.5523 7 22 7C21.4477 7 21 6.55228 21 6V3H18C17.4477 3 17 2.55228 17 2C17 1.44772 17.4477 1 18 1H21Z" fill="white" fill-opacity="0.9"/>
</svg>
