<svg width="24" height="24" viewBox="0 0 24 24" fill="none" xmlns="http://www.w3.org/2000/svg">
<path d="M8.33329 1.00012C7.11817 1.00158 5.95324 1.48493 5.09402 2.34414C4.2348 3.20336 3.75146 4.36829 3.75 5.58341V22.0832C3.75013 22.25 3.79573 22.4135 3.88189 22.5562C3.96805 22.699 4.09151 22.8155 4.23898 22.8933C4.38645 22.9711 4.55234 23.0072 4.7188 22.9977C4.88525 22.9882 5.04597 22.9335 5.18365 22.8395L7.11413 21.5204L9.04461 22.8395C9.19713 22.9439 9.37767 22.9998 9.56252 22.9998C9.74738 22.9998 9.92791 22.9439 10.0804 22.8395L12.0054 21.5204L13.9304 22.8395C14.083 22.9441 14.2637 23.0001 14.4488 23.0001C14.6338 23.0001 14.8145 22.9441 14.9671 22.8395L16.8921 21.5213L18.8171 22.8386C18.9547 22.9323 19.1152 22.9868 19.2815 22.9962C19.4477 23.0056 19.6134 22.9695 19.7607 22.8919C19.9079 22.8142 20.0313 22.6979 20.1175 22.5554C20.2037 22.413 20.2494 22.2497 20.2498 22.0832V5.58341C20.2484 4.36829 19.765 3.20336 18.9058 2.34414C18.0466 1.48493 16.8817 1.00158 15.6665 1.00012L8.33329 1.00012ZM13.8332 13.8333H8.33329C8.09017 13.8333 7.85702 13.7367 7.68511 13.5648C7.5132 13.3929 7.41663 13.1598 7.41663 12.9167C7.41663 12.6736 7.5132 12.4404 7.68511 12.2685C7.85702 12.0966 8.09017 12 8.33329 12H13.8332C14.0763 12 14.3095 12.0966 14.4814 12.2685C14.6533 12.4404 14.7499 12.6736 14.7499 12.9167C14.7499 13.1598 14.6533 13.3929 14.4814 13.5648C14.3095 13.7367 14.0763 13.8333 13.8332 13.8333ZM16.5832 9.25004C16.5832 9.49315 16.4866 9.7263 16.3147 9.89821C16.1428 10.0701 15.9097 10.1667 15.6665 10.1667H8.33329C8.09017 10.1667 7.85702 10.0701 7.68511 9.89821C7.5132 9.7263 7.41663 9.49315 7.41663 9.25004C7.41663 9.00692 7.5132 8.77377 7.68511 8.60186C7.85702 8.42995 8.09017 8.33338 8.33329 8.33338H15.6665C15.9097 8.33338 16.1428 8.42995 16.3147 8.60186C16.4866 8.77377 16.5832 9.00692 16.5832 9.25004Z" fill="white" fill-opacity="0.9"/>
</svg>
