<svg width="24" height="24" viewBox="0 0 24 24" fill="none" xmlns="http://www.w3.org/2000/svg">
<path fill-rule="evenodd" clip-rule="evenodd" d="M4.87868 22.1213C5.75736 23 7.17157 23 10 23H14C16.8284 23 18.2426 23 19.1213 22.1213C20 21.2426 20 19.8284 20 17V7C20 4.17157 20 2.75736 19.1213 1.87868C18.2426 1 16.8284 1 14 1H10C7.17157 1 5.75736 1 4.87868 1.87868C4 2.75736 4 4.17157 4 7V17C4 19.8284 4 21.2426 4.87868 22.1213ZM5.87868 21.1213C6.75736 22 8.17157 22 11 22H13C15.8284 22 17.2426 22 18.1213 21.1213C19 20.2426 19 18.8284 19 16L19 8C19 5.17157 19 3.75736 18.1213 2.87868C17.2426 2 15.8284 2 13 2L11 2C8.17157 2 6.75736 2 5.87868 2.87868C5 3.75736 5 5.17157 5 8L5 16C5 18.8284 5 20.2426 5.87868 21.1213ZM7.27196 20.2555C8.12088 21 9.41392 21 12 21C14.5861 21 15.8791 21 16.728 20.2555C16.8265 20.1692 16.9192 20.0765 17.0055 19.978C17.5199 19.3915 17.6789 18.5929 17.728 17.3022C16.1056 16.1664 14.1305 15.5 11.9998 15.5C9.86921 15.5 7.89428 16.1663 6.27196 17.3019C6.32108 18.5927 6.48003 19.3914 6.99448 19.978C7.08082 20.0765 7.17351 20.1692 7.27196 20.2555ZM14.9998 11.5C14.9998 13.1569 13.6566 14.5 11.9998 14.5C10.3429 14.5 8.99977 13.1569 8.99977 11.5C8.99977 9.84315 10.3429 8.5 11.9998 8.5C13.6566 8.5 14.9998 9.84315 14.9998 11.5ZM9.75 3C9.33579 3 9 3.33579 9 3.75C9 4.16421 9.33579 4.5 9.75 4.5H14.25C14.6642 4.5 15 4.16421 15 3.75C15 3.33579 14.6642 3 14.25 3H9.75Z" fill="white" fill-opacity="0.9"/>
</svg>
