<svg width="24" height="24" viewBox="0 0 24 24" fill="none" xmlns="http://www.w3.org/2000/svg">
<path d="M8 2C8 5.21 10.5204 7.83126 13.6904 7.99219L14 8C10.6863 8 8 10.6863 8 14C8 10.6864 5.31355 8.00019 2 8C5.31355 7.99981 8 5.31359 8 2Z" fill="white" fill-opacity="0.9"/>
<path d="M17.4648 8.97656C17.4653 11.4613 19.4801 13.4752 21.9648 13.4756H21.9658H21.9648C19.4801 13.4759 17.4655 15.49 17.4648 17.9746H17.4639C17.4632 15.4898 15.4498 13.4756 12.9648 13.4756C15.4499 13.4756 17.4634 11.4615 17.4639 8.97656H17.4648Z" fill="white" fill-opacity="0.9"/>
<path d="M10.4668 14.9727C10.4669 16.8418 11.9344 18.3684 13.7803 18.4619L13.96 18.4668C12.0305 18.4668 10.4668 20.0305 10.4668 21.96C10.4668 20.0312 8.90306 18.4679 6.97461 18.4668V18.4658C8.90301 18.4647 10.4667 16.9013 10.4668 14.9727Z" fill="white" fill-opacity="0.9"/>
</svg>
