<svg width="24" height="24" viewBox="0 0 24 24" fill="none" xmlns="http://www.w3.org/2000/svg">
<path d="M7.69222 8.94332L8.57111 3.10999H4L2.09 8.10999C2.03074 8.28776 2.00074 8.47295 2 8.66554C2 9.89221 3.27778 10.8878 4.85667 10.8878C6.31222 10.8878 7.51556 10.0389 7.69222 8.94332ZM12 10.8878C13.5778 10.8878 14.8567 9.89221 14.8567 8.66554C14.8559 8.61962 14.8541 8.5748 14.8511 8.5311L14.2856 3.10999H9.71444L9.14778 8.52665L9.14333 8.66554C9.14333 9.89221 10.4222 10.8878 12 10.8878ZM17.5556 12.05V16.4433H6.44444V12.0567C5.95778 12.2322 5.42222 12.3322 4.85667 12.3322C4.64 12.3322 4.43 12.3067 4.22222 12.2778V19.3322C4.22222 20.1878 4.92111 20.8878 5.77556 20.8878H18.2222C19.0778 20.8878 19.7778 20.1867 19.7778 19.3322V12.2789C19.5679 12.3122 19.3558 12.3304 19.1433 12.3333C18.6016 12.3317 18.0644 12.2359 17.5556 12.05ZM21.9111 8.10999L19.9989 3.10999H15.4289L16.3067 8.93443C16.4778 10.0344 17.6811 10.8878 19.1433 10.8878C20.7211 10.8878 22 9.89221 22 8.66554C21.9993 8.47295 21.9696 8.28776 21.9111 8.10999Z" fill="white" fill-opacity="0.9"/>
</svg>
