<svg width="24" height="24" viewBox="0 0 24 24" fill="none" xmlns="http://www.w3.org/2000/svg">
<path d="M16.9946 9.35303C18.8235 11.2798 19.9577 13.762 20.2173 16.4058C20.2698 16.9407 20.2263 17.4813 20.0874 18.0005L20.0522 18.1304C19.4416 20.412 17.3741 21.9991 15.0122 21.9995H8.81494C6.52673 21.9995 4.52375 20.4618 3.93213 18.2515C3.74931 17.5682 3.71226 16.8534 3.82275 16.1548C4.23912 13.5236 5.42458 11.0726 7.22998 9.11377L8.77588 7.43701L15.1763 7.43701L16.9946 9.35303ZM11.9761 10.3755C11.5884 10.3756 11.2739 10.6899 11.2739 11.0776V11.4233C10.1097 11.5162 9.19385 12.4901 9.19385 13.6782C9.19401 14.9275 10.2072 15.9399 11.4565 15.9399H12.4966C12.9702 15.9403 13.3539 16.3247 13.354 16.7983C13.354 17.272 12.9702 17.6564 12.4966 17.6567H11.4565C10.9826 17.6567 10.5982 17.2722 10.5981 16.7983C10.5981 16.4108 10.2835 16.0964 9.896 16.0962C9.50827 16.0962 9.1939 16.4106 9.19385 16.7983C9.19389 17.9864 10.1097 18.9604 11.2739 19.0532V19.3989C11.274 19.7865 11.5885 20.101 11.9761 20.1011C12.3636 20.1009 12.6781 19.7865 12.6782 19.3989V19.0532C13.8424 18.9604 14.7583 17.9864 14.7583 16.7983C14.7582 15.5492 13.7457 14.536 12.4966 14.5356H11.4565C10.9827 14.5356 10.5983 14.152 10.5981 13.6782C10.5981 13.2043 10.9826 12.8198 11.4565 12.8198H12.4966C12.9702 12.8202 13.354 13.2045 13.354 13.6782C13.3542 14.0657 13.6687 14.3802 14.0562 14.3804C14.4436 14.3802 14.7581 14.0657 14.7583 13.6782C14.7583 12.4902 13.8424 11.5162 12.6782 11.4233V11.0776C12.6782 10.69 12.3637 10.3757 11.9761 10.3755ZM10.5093 2.5835C11.3324 1.80544 12.6198 1.80534 13.4429 2.5835L13.8843 3.00049C14.0482 3.15507 14.3044 3.15516 14.4683 3.00049L15.0649 2.43604C15.6808 1.85398 16.6925 2.09996 16.9722 2.8999C17.0999 3.26543 17.0386 3.67083 16.8081 3.98193L15.0161 6.39697L8.93604 6.39697L7.14404 3.98193C6.91342 3.67076 6.85215 3.26555 6.97998 2.8999C7.25973 2.09993 8.27138 1.8538 8.88721 2.43604L9.48389 3.00049C9.64783 3.15499 9.90407 3.15524 10.0679 3.00049L10.5093 2.5835Z" fill="white" fill-opacity="0.9"/>
</svg>
