<svg width="24" height="24" viewBox="0 0 24 24" fill="none" xmlns="http://www.w3.org/2000/svg">
<path d="M20.25 10.9167C19.1806 9.84722 17.9411 9.01056 16.5317 8.40667C15.1222 7.80278 13.6117 7.50056 12 7.5C11.7083 7.5 11.4272 7.51056 11.1567 7.53167C10.8861 7.55278 10.6117 7.58389 10.3333 7.625L8.20833 5.5C8.81944 5.33333 9.44111 5.20833 10.0733 5.125C10.7056 5.04167 11.3478 5 12 5C13.9722 5 15.8125 5.36806 17.5208 6.10417C19.2292 6.84028 20.7222 7.84722 22 9.125L20.25 10.9167ZM16.9167 14.2083L16.3125 13.6042L15.7083 13L12.7083 10C13.8333 10.1111 14.8856 10.3958 15.865 10.8542C16.8444 11.3125 17.7089 11.9167 18.4583 12.6667L16.9167 14.2083ZM18.4583 20.5L10.625 12.625C9.97222 12.7778 9.36472 13.0069 8.8025 13.3125C8.24028 13.6181 7.73667 14 7.29167 14.4583L5.54167 12.6667C5.98611 12.2222 6.46528 11.8333 6.97917 11.5C7.49306 11.1667 8.04167 10.875 8.625 10.625L6.75 8.75C6.18056 9.04167 5.64917 9.36472 5.15583 9.71917C4.6625 10.0736 4.19389 10.4728 3.75 10.9167L2 9.125C2.44444 8.68056 2.90639 8.28139 3.38583 7.9275C3.86528 7.57361 4.37556 7.23667 4.91667 6.91667L3.16667 5.16667L4.33333 4L19.6667 19.3333L18.4583 20.5ZM12 19.1667L9.0625 16.2083C9.4375 15.8333 9.875 15.5381 10.375 15.3225C10.875 15.1069 11.4167 14.9994 12 15C12.5833 15 13.125 15.1078 13.625 15.3233C14.125 15.5389 14.5625 15.8339 14.9375 16.2083L12 19.1667Z" fill="white" fill-opacity="0.9"/>
</svg>
