<svg width="24" height="24" viewBox="0 0 24 24" fill="none" xmlns="http://www.w3.org/2000/svg">
<path d="M8.859 2.04847C8.11026 2.17956 7.28387 2.54432 6.54622 3.08006C6.10252 3.39923 4.36656 5.11474 4.24454 5.35411C4.20572 5.4339 4.13362 5.66188 4.0837 5.86706C3.87294 6.71057 3.39042 7.16652 2.44202 7.44009C2.10924 7.53128 2.03714 7.58257 1.54353 8.08412C1.09429 8.52867 1 8.65405 1 8.79654C1 8.93902 1.16084 9.1271 2.07042 10.0675C2.97445 10.9965 3.16857 11.1675 3.30168 11.1675C3.43479 11.1675 3.56235 11.0649 3.97277 10.6374C4.4553 10.1416 4.49412 10.0789 4.61059 9.67994C4.89345 8.70535 5.30387 8.2152 5.9916 8.02712C6.4353 7.90744 6.60723 7.98153 7.15631 8.52297C7.42252 8.78514 7.66101 9.00172 7.68874 9.00172C7.71648 9.00172 8.24337 8.48307 8.859 7.85044L9.97933 6.69917L9.60219 6.29451C8.98656 5.64478 8.85345 5.22873 9.11412 4.75568C9.33597 4.35672 9.90169 4.04326 10.7946 3.83808C11.1496 3.75259 11.4935 3.73549 12.6304 3.72979C13.8728 3.72979 14.0392 3.71839 14.1279 3.6329C14.2 3.55311 14.2056 3.50751 14.1612 3.40493C14.1168 3.30234 13.8783 3.17695 13.1129 2.86348C12.0203 2.41323 11.1551 2.14536 10.5118 2.05417C10.0292 1.98578 9.25278 1.98008 8.859 2.04847Z" fill="white" fill-opacity="0.9"/>
<path d="M19.3801 2.81795C18.8754 2.93194 18.3818 3.21121 17.9658 3.62726C17.3502 4.23709 17.1006 4.84693 17.0507 5.89561C17.023 6.32307 16.9842 6.60234 16.9065 6.77902C16.8233 6.9842 15.947 7.9132 12.6304 11.3214C9.68533 14.3421 8.38751 15.6416 8.21558 15.727C8.02146 15.8239 7.81625 15.8638 7.27272 15.898C6.2023 15.9721 5.6865 16.2001 5.06533 16.8897C4.53289 17.4711 4.27222 18.1607 4.27222 18.9643C4.27222 19.5171 4.37205 19.7166 4.65491 19.7166C4.74919 19.7166 4.98213 19.5171 5.49239 19.0042C6.19121 18.2975 6.2023 18.2918 6.45743 18.2918C7.12852 18.2918 7.87172 19.0669 7.87726 19.7679C7.87726 20.013 7.86062 20.0358 7.18398 20.7425C6.5018 21.4492 6.40751 21.6031 6.53508 21.8026C6.66818 22.0135 7.37256 22.0648 7.94936 21.9109C8.94214 21.643 9.80735 20.7938 10.0902 19.8021C10.129 19.6767 10.1789 19.2664 10.2011 18.8902C10.2344 18.3602 10.2732 18.1493 10.3675 17.9498C10.5616 17.5565 18.6758 9.21835 19.0529 9.03027C19.2747 8.91629 19.4689 8.87639 20.0235 8.83649C20.4062 8.808 20.8443 8.7396 20.9941 8.68831C21.6874 8.44324 22.364 7.8334 22.6857 7.16088C23.024 6.44845 23.1072 5.38837 22.8465 5.1205C22.6413 4.90962 22.5248 4.97801 21.826 5.69614C21.1216 6.42566 20.9608 6.52255 20.6114 6.43706C19.9791 6.28887 19.4023 5.61065 19.3912 5.00081L19.3857 4.73294L20.0956 3.99772C20.4838 3.59307 20.8 3.21691 20.8 3.16561C20.8 2.77235 20.2176 2.62987 19.3801 2.81795Z" fill="white" fill-opacity="0.9"/>
<path d="M9.30815 8.3578C8.85336 8.82515 8.4873 9.2241 8.4873 9.2469C8.4873 9.2697 9.04193 9.90233 9.71857 10.6546L10.9498 12.0282L11.9204 11.0308C12.7745 10.1474 12.8799 10.022 12.8023 9.95932C12.7523 9.91943 12.1589 9.36089 11.4823 8.71686C10.8056 8.07283 10.2233 7.54279 10.19 7.53139C10.1512 7.52569 9.75739 7.89615 9.30815 8.3578Z" fill="white" fill-opacity="0.9"/>
<path d="M14.9321 14.1483L13.8672 15.2426L16.7623 18.212C19.3136 20.828 19.6963 21.1985 19.9403 21.2897C21.227 21.7798 22.4361 20.4576 21.8593 19.198C21.7761 19.0156 20.9442 18.1265 18.8699 15.9949L16.0025 13.0484L14.9321 14.1483Z" fill="white" fill-opacity="0.9"/>
</svg>
